<svg width="97" height="97" viewBox="0 0 97 97" fill="none" xmlns="http://www.w3.org/2000/svg">
<g clip-path="url(#clip0_356_18711)">
<path d="M57.9031 16.8057C56.2056 16.5339 54.4705 16.9395 53.0699 17.9325C52.681 18.2209 52.2149 18.3819 51.7319 18.3945H50.672C49.4721 18.3945 48.4979 17.4203 48.4979 16.2203V0H10.0345C4.49252 0 0 4.49252 0 10.0345V48.5H14.55C15.75 48.5 16.7241 47.5258 16.7241 46.3259V45.2702C16.7116 44.7872 16.5485 44.3211 16.2621 43.9322C15.2691 42.5316 14.8657 40.8006 15.1333 39.1052C15.7688 35.7667 18.7206 33.3751 22.1198 33.4483H24.7204C28.1133 33.3772 31.0588 35.7646 31.6964 39.0969C31.9682 40.7944 31.5626 42.5295 30.5696 43.9301C30.2811 44.319 30.1202 44.7852 30.1076 45.2681V46.328C30.1076 47.5279 31.0818 48.5021 32.2818 48.5021H48.5042V33.9521C48.5042 32.7521 49.4784 31.778 50.6783 31.778H51.734C52.2169 31.7905 52.6831 31.9536 53.072 32.24C54.4726 33.233 56.2077 33.6385 57.9052 33.3667C61.2396 32.7312 63.627 29.7836 63.5559 26.3907V23.7817C63.627 20.3888 61.2396 17.4433 57.9073 16.8057H57.9031Z" fill="#FF4D4D"/>
<path d="M39.0969 65.3055C40.7944 65.0337 42.5295 65.4392 43.9301 66.4322C44.319 66.7207 44.7852 66.8817 45.2681 66.8942H46.328C47.5279 66.8942 48.5021 65.9201 48.5021 64.7201V48.4977H32.2797C31.0797 48.4977 30.1055 47.5235 30.1055 46.3236V45.2678C30.1181 44.7849 30.2811 44.3188 30.5675 43.9299C31.5605 42.5293 31.9661 40.7941 31.6943 39.0966C31.0588 35.7623 28.1112 33.3749 24.7183 33.446H22.1177C18.7206 33.3728 15.7667 35.7623 15.1312 39.1008C14.8636 40.7962 15.2691 42.5272 16.26 43.9278C16.5485 44.3167 16.7095 44.7828 16.722 45.2658V46.3256C16.722 47.5256 15.7479 48.4998 14.5479 48.4998H0V86.9653C0 92.5073 4.49252 96.9998 10.0345 96.9998H48.5V82.4498C48.5 81.2498 47.5258 80.2756 46.3259 80.2756H45.2702C44.7872 80.2882 44.3211 80.4513 43.9322 80.7377C42.5316 81.7306 40.7964 82.1362 39.0989 81.8644C35.7646 81.2289 33.3772 78.2813 33.4483 74.8884V72.2794C33.3772 68.8865 35.7646 65.941 39.0969 65.3034V65.3055Z" fill="#FFD966"/>
<path d="M78.6062 50.6743V51.73C78.6188 52.2129 78.7818 52.6791 79.0682 53.0679C80.0612 54.4686 80.4668 56.2037 80.195 57.9012C79.5595 61.2356 76.6119 63.6229 73.219 63.5519H70.61C67.2171 63.6229 64.2715 61.2356 63.6339 57.9033C63.3622 56.2058 63.7677 54.4707 64.7607 53.07C65.0492 52.6812 65.2102 52.215 65.2227 51.7321V50.6722C65.2227 49.4722 64.2485 48.498 63.0486 48.498H48.4986V64.7205C48.4986 65.9204 47.5244 66.8946 46.3244 66.8946H45.2687C44.7858 66.8821 44.3196 66.719 43.9308 66.4326C42.5302 65.4396 40.795 65.034 39.0975 65.3058C35.7632 65.9413 33.3758 68.889 33.4469 72.2819V74.8908C33.3758 78.2837 35.7632 81.2293 39.0954 81.8669C40.7929 82.1386 42.5281 81.7331 43.9287 80.7401C44.3175 80.4516 44.7837 80.2906 45.2666 80.2781H46.3265C47.5265 80.2781 48.5007 81.2523 48.5007 82.4522V97.0022H86.9662C92.5082 97.0022 97.0007 92.5097 97.0007 86.9677V48.5022H80.7783C79.5783 48.5022 78.6041 49.4764 78.6041 50.6764L78.6062 50.6743Z" fill="#FFB531"/>
<path d="M5.01562 8.3623H8.36045V11.7071H5.01562V8.3623Z" fill="#FFD966"/>
<path d="M5.01562 15.0518H8.36045V33.4483H5.01562V15.0518Z" fill="#FFD966"/>
<path d="M46.3259 80.2757H45.2722C44.7893 80.2882 44.3231 80.4513 43.9343 80.7377C42.5337 81.7307 40.7985 82.1362 39.101 81.8645C38.6934 81.8017 38.292 81.6972 37.9032 81.5551C37.6272 81.4443 37.3575 81.3147 37.0983 81.1662C24.9148 84.0323 12.4992 85.7988 0 86.4385V86.9611C0 92.5031 4.49252 96.9956 10.0345 96.9956H48.5V82.4456C48.5 81.2457 47.5258 80.2715 46.3259 80.2715V80.2757Z" fill="#FFD966"/>
<path d="M37.0938 81.1684C37.3509 81.3168 37.6206 81.4464 37.8986 81.5572C38.2874 81.6994 38.6867 81.8039 39.0965 81.8666C40.794 82.1384 42.5291 81.7328 43.9297 80.7398C44.3186 80.4513 44.7848 80.2904 45.2677 80.2778H46.3213C46.9004 80.2778 47.4523 80.5057 47.862 80.9133C48.2717 81.321 48.4996 81.875 48.4996 82.452V97.002H86.9651C92.5071 97.002 96.9996 92.5094 96.9996 86.9675V48.502H94.4053C80.288 66.4365 58.2205 76.0592 37.0958 81.1705L37.0938 81.1684Z" fill="#FFB400"/>
</g>
<defs>
<clipPath id="clip0_356_18711">
<rect width="97" height="97" fill="white"/>
</clipPath>
</defs>
</svg>
