<svg width="128" height="121" viewBox="0 0 128 121" fill="none" xmlns="http://www.w3.org/2000/svg">
<g clip-path="url(#clip0_356_18576)">
<path d="M126.439 68.1208V115.451C126.431 117.653 124.647 119.434 122.441 119.442H73.6055C71.3993 119.434 69.6146 117.653 69.6094 115.451V68.1208C69.6146 65.9189 71.3993 64.1377 73.6055 64.1299H122.441C124.647 64.1377 126.431 65.9189 126.439 68.1208Z" fill="#FFB400"/>
<path d="M126.439 5.55147V52.8817C126.434 55.0836 124.647 56.8674 122.441 56.8726H73.6055C71.3993 56.8674 69.6146 55.0836 69.6094 52.8817V5.55147C69.6146 3.34958 71.3993 1.56834 73.6055 1.56055H122.441C124.647 1.56834 126.431 3.34958 126.439 5.55147Z" fill="#FF4D4D"/>
<path d="M58.3924 68.1208V115.451C58.3872 117.653 56.6025 119.434 54.3963 119.442H5.5612C3.35502 119.434 1.5703 117.653 1.5625 115.451V68.1208C1.5703 65.9189 3.35502 64.1377 5.5612 64.1299H54.3963C56.6025 64.1377 58.3872 65.9189 58.3924 68.1208Z" fill="#FFD966"/>
<path d="M58.3924 5.54903V52.8792C58.3872 55.0811 56.6025 56.8624 54.3963 56.8702H5.5612C3.35502 56.8624 1.5703 55.0811 1.5625 52.8792V5.54903C1.5703 3.34714 3.35502 1.5659 5.5612 1.55811H54.3963C56.6025 1.5659 58.3872 3.34714 58.3924 5.54903Z" fill="#FFD966"/>
<path d="M109.72 87.9042C110.444 88.008 110.948 88.6753 110.844 89.3998C110.803 89.6906 110.667 89.958 110.457 90.1606L105.706 94.7721C105.391 95.0759 105.248 95.5147 105.324 95.9431L106.445 102.453C106.567 103.177 106.078 103.86 105.355 103.982C105.069 104.031 104.772 103.982 104.514 103.85L98.6426 100.775C98.255 100.573 97.7919 100.573 97.4042 100.775L91.5298 103.85C90.8794 104.19 90.0781 103.941 89.7347 103.294C89.5994 103.037 89.5525 102.741 89.602 102.453L90.7233 95.9431C90.7961 95.5147 90.653 95.0759 90.3408 94.7721L85.5903 90.1606C85.0647 89.6517 85.0517 88.8156 85.5616 88.2937C85.7672 88.0833 86.0351 87.9457 86.3265 87.9042L92.893 86.9538C93.3249 86.8915 93.6995 86.6189 93.8947 86.2294L96.8319 80.3066C97.1571 79.6497 97.9558 79.3822 98.614 79.7068C98.8742 79.8366 99.0849 80.047 99.215 80.3066L102.152 86.2294C102.347 86.6215 102.722 86.8915 103.154 86.9538L109.72 87.9042Z" fill="#FDF6E3"/>
<path d="M109.345 21.1177V37.3177C109.34 39.0651 107.922 40.4803 106.171 40.4855H89.8797C88.1288 40.4803 86.7083 39.0651 86.7031 37.3177V21.1177C86.7083 19.3702 88.1288 17.9525 89.8797 17.9473H106.171C107.922 17.9525 109.34 19.3702 109.345 21.1177Z" fill="#FFB400"/>
<path d="M29.9768 17.9395L16.8984 40.488H43.0552L29.9768 17.9395Z" fill="#FFB400"/>
<path d="M29.9782 80.1636C36.4094 80.1792 41.6101 85.3957 41.5944 91.8144C41.5788 98.2331 36.3522 103.424 29.9209 103.408C23.5001 103.392 18.3047 98.1941 18.3047 91.7858C18.3125 85.3593 23.5392 80.1558 29.9782 80.1636Z" fill="#FF4D4D"/>
<path d="M9.36738 115.451V68.1208C9.37518 65.9189 11.1599 64.1377 13.3661 64.1299H5.5612C3.35502 64.1377 1.5703 65.9189 1.5625 68.1208V115.451C1.5703 117.653 3.35502 119.434 5.5612 119.442H13.3661C11.1599 119.434 9.37518 117.653 9.36738 115.451Z" fill="#FFB400"/>
<path d="M9.36738 52.8792V5.54903C9.37518 3.34714 11.1599 1.5659 13.3661 1.55811H5.5612C3.35502 1.5659 1.5703 3.34714 1.5625 5.54903V52.8792C1.5703 55.0811 3.35502 56.8624 5.5612 56.8702H13.3661C11.1599 56.8624 9.37518 55.0811 9.36738 52.8792Z" fill="#FFB400"/>
<path d="M122.442 62.5723H73.6066C70.5366 62.5749 68.0521 65.0572 68.0469 68.1211V115.454C68.0495 118.518 70.5366 120.998 73.6066 121.003H122.442C125.512 121 127.996 118.518 128.001 115.454V68.1211C127.999 65.0572 125.512 62.5775 122.442 62.5723ZM124.879 115.451C124.879 116.794 123.787 117.882 122.442 117.884H73.6066C72.2615 117.884 71.1714 116.794 71.1688 115.451V68.1185C71.1688 66.7761 72.2615 65.6881 73.6066 65.6856H122.442C123.787 65.6856 124.877 66.7761 124.879 68.1185V115.451Z" fill="#5A5A5A"/>
<path d="M109.941 86.362L103.495 85.4298L100.612 79.6161C99.9018 78.188 98.1665 77.6038 96.7356 78.3127C96.1684 78.5931 95.7106 79.0501 95.4296 79.6161L92.547 85.4298L86.1001 86.362C84.5236 86.5879 83.4283 88.0498 83.6546 89.6233C83.7457 90.2543 84.0423 90.8359 84.5002 91.2773L89.1623 95.8005L88.0618 102.188C87.7938 103.762 88.8553 105.252 90.4319 105.519C90.5906 105.545 90.7493 105.561 90.908 105.561C91.3762 105.561 91.8393 105.447 92.253 105.229L98.0208 102.211L103.789 105.229C105.201 105.969 106.95 105.426 107.691 104.016C107.985 103.455 108.086 102.814 107.982 102.191L106.882 95.8031L111.544 91.2799C112.686 90.1712 112.715 88.3484 111.604 87.2059C111.159 86.7489 110.576 86.4529 109.944 86.362H109.941ZM104.613 93.6558C103.932 94.3179 103.62 95.2734 103.781 96.2082L104.821 102.253L99.3606 99.3968C98.5203 98.958 97.5161 98.958 96.6732 99.3968L91.2149 102.253L92.2556 96.2082C92.4169 95.2734 92.1047 94.3179 91.4231 93.6558L87.0133 89.3792L93.1089 88.4964C94.0507 88.3614 94.8624 87.772 95.2839 86.9229L98.013 81.4156L100.742 86.9229C101.164 87.772 101.978 88.3614 102.917 88.4964L109.013 89.3792L104.606 93.6558H104.613Z" fill="#5A5A5A"/>
<path d="M5.55967 58.4279H54.3948C57.4647 58.4253 59.9493 55.943 59.9545 52.8791V5.54886C59.9519 2.48491 57.4647 0.00519313 54.3948 0H5.55967C2.48976 0.00259657 0.00260163 2.48491 0 5.54886V52.8817C0.00260163 55.9456 2.48976 58.4253 5.55967 58.4305V58.4279ZM3.12195 5.54886C3.12195 4.20644 4.21463 3.11848 5.55967 3.11588H54.3948C55.7398 3.11588 56.8299 4.20644 56.8325 5.54886V52.8817C56.8325 54.2241 55.7398 55.3121 54.3948 55.3147H5.55967C4.21463 55.3147 3.12455 54.2241 3.12195 52.8817V5.54886Z" fill="#5A5A5A"/>
<path d="M16.899 42.0461H43.0557C43.9168 42.0461 44.6167 41.3476 44.6167 40.4881C44.6167 40.2129 44.5438 39.9454 44.4059 39.7065L31.3276 17.1554C30.8957 16.4102 29.9409 16.1557 29.1942 16.5867C28.9575 16.7243 28.7624 16.9191 28.6245 17.1554L15.5461 39.7065C15.1142 40.4518 15.3692 41.4047 16.1159 41.8357C16.3526 41.9734 16.6232 42.0461 16.899 42.0461ZM29.9773 21.0476L40.35 38.9302H19.6073L29.9799 21.0476H29.9773Z" fill="#5A5A5A"/>
<path d="M5.55967 121H54.3948C57.4647 120.997 59.9493 118.515 59.9545 115.451V68.1182C59.9519 65.0542 57.4647 62.5745 54.3948 62.5693H5.55967C2.48976 62.5719 0.00520325 65.0542 0 68.1182V115.451C0.00260163 118.515 2.48976 120.995 5.55967 121ZM3.12195 68.1208C3.12195 66.7784 4.21463 65.6904 5.55967 65.6878H54.3948C55.7398 65.6878 56.8299 66.7784 56.8325 68.1208V115.454C56.8325 116.796 55.7398 117.884 54.3948 117.887H5.55967C4.21463 117.887 3.12455 116.796 3.12195 115.454V68.1208Z" fill="#5A5A5A"/>
<path d="M29.9767 104.966C37.269 104.951 43.1695 99.0356 43.1513 91.7575C43.1357 84.4793 37.2092 78.5903 29.9168 78.6084C22.6349 78.624 16.7422 84.5208 16.7422 91.7886C16.7578 99.072 22.6791 104.969 29.9767 104.969V104.966ZM29.9767 81.7217C35.5467 81.7373 40.0476 86.2579 40.0293 91.8146C40.0137 97.3738 35.4843 101.866 29.9168 101.848C24.3597 101.832 19.8641 97.3297 19.8641 91.7834C19.8797 86.219 24.404 81.7165 29.9767 81.7191V81.7217Z" fill="#5A5A5A"/>
<path d="M122.442 0.00244141H73.6066C70.5392 0.00503797 68.0521 2.48736 68.0469 5.5513V52.8841C68.0495 55.9455 70.5366 58.4278 73.6066 58.433H122.442C125.509 58.4304 127.996 55.9481 128.001 52.8841V5.5513C127.999 2.48995 125.512 0.00763454 122.442 0.00244141ZM124.879 52.8815C124.879 54.2239 123.787 55.3119 122.442 55.3145H73.6066C72.2615 55.3145 71.1714 54.2239 71.1688 52.8815V5.5513C71.1688 4.20888 72.2615 3.12092 73.6066 3.11832H122.442C123.787 3.11832 124.877 4.20888 124.879 5.5513V52.8841V52.8815Z" fill="#5A5A5A"/>
<path d="M106.17 16.3896H89.8782C87.2635 16.3922 85.1432 18.5084 85.1406 21.118V37.318C85.1432 39.9275 87.2635 42.0437 89.8782 42.0463H106.17C108.784 42.0437 110.905 39.9275 110.907 37.318V21.118C110.905 18.5084 108.784 16.3922 106.17 16.3896ZM107.783 37.318C107.783 38.2086 107.059 38.9278 106.167 38.9304H89.8756C88.9832 38.9304 88.2626 38.2086 88.26 37.318V21.118C88.26 20.2274 88.9832 19.5081 89.8756 19.5055H106.167C107.059 19.5055 107.78 20.2274 107.783 21.118V37.318Z" fill="#5A5A5A"/>
<path d="M8.12348 107.95C8.98461 107.95 9.68445 107.251 9.68445 106.392V87.0267C9.68445 86.1672 8.98461 85.4688 8.12348 85.4688C7.26234 85.4688 6.5625 86.1672 6.5625 87.0267V106.392C6.5625 107.251 7.26234 107.95 8.12348 107.95Z" fill="#5A5A5A"/>
<path d="M8.12348 82.3267C8.98461 82.3267 9.68445 81.6282 9.68445 80.7688V76.3416C9.68445 75.4822 8.98461 74.7837 8.12348 74.7837C7.26234 74.7837 6.5625 75.4822 6.5625 76.3416V80.7688C6.5625 81.6282 7.26234 82.3267 8.12348 82.3267Z" fill="#5A5A5A"/>
</g>
<defs>
<clipPath id="clip0_356_18576">
<rect width="128" height="121" fill="white"/>
</clipPath>
</defs>
</svg>
