<?xml version="1.0" encoding="UTF-8"?>
<svg id="Layer_1" xmlns="http://www.w3.org/2000/svg" version="1.1" viewBox="0 0 128 128">
  <!-- Generator: Adobe Illustrator 29.2.1, SVG Export Plug-In . SVG Version: 2.1.0 Build 116)  -->
  <defs>
    <style>
      .st0 {
        fill: #5a5a5a;
      }

      .st1 {
        fill: #a54b3f;
      }

      .st1, .st2, .st3, .st4, .st5, .st6 {
        isolation: isolate;
      }

      .st1, .st2, .st6 {
        opacity: .5;
      }

      .st7 {
        fill: #ff4d4d;
      }

      .st2 {
        fill: #9fa5aa;
      }

      .st3 {
        fill: #0f423c;
      }

      .st3, .st5 {
        opacity: .3;
      }

      .st8 {
        fill: #ffb400;
      }

      .st4 {
        fill: #e8fbfc;
        opacity: .4;
      }

      .st9 {
        fill: #ffd966;
      }

      .st5 {
        fill: #f9dbd7;
      }

      .st6 {
        fill: #fff;
      }
    </style>
  </defs>
  <path class="st7" d="M85.3,25.1v14.3c-3.2.8-5.8,3.2-6.9,6.3,0,.2-3.5,10.2-6.7,19.3-.5,1.4-.9,2.7-1.4,4h-12.7c-.5-1.3-.9-2.6-1.4-4-3.2-9.1-6.6-19.1-6.7-19.3-1.3-3.5-4.4-6-8.1-6.6v-14h43.9Z"/>
  <path class="st0" d="M23.9,29.6c-.2-.7-.9-1.2-1.6-1.3l-3.1-.5-1.4-3c-.5-1-1.7-1.4-2.7-1-.4.2-.8.5-1,1l-1.4,3-3.1.5c-1.1.2-1.8,1.2-1.7,2.3,0,.4.3.8.5,1.1l2.3,2.4-.6,3.3c-.2,1.1.6,2.1,1.6,2.3.4,0,.9,0,1.3-.2l2.7-1.5,2.7,1.5c.7.4,1.5.3,2.1-.1.6-.4,1-1.2.8-2l-.5-3.3,2.3-2.4c.5-.5.7-1.3.5-2ZM17.6,31.9c-.4.5-.6,1.1-.5,1.7v.3s0,0,0,0c-.3-.2-.6-.2-1-.2-.3,0-.7,0-1,.2h-.1c0,0,0-.2,0-.2,0-.6-.1-1.3-.6-1.7l-.3-.3h.3c.7-.1,1.2-.6,1.5-1.2h0c0,0,0,0,0,0,.3.6.8,1,1.5,1.1h.3s-.3.3-.3.3Z"/>
  <path class="st8" d="M17.6,31.9c-.4.5-.6,1.1-.5,1.7v.3s0,0,0,0c-.3-.2-.6-.2-1-.2-.3,0-.7,0-1,.2h-.1c0,0,0-.2,0-.2,0-.6-.1-1.3-.6-1.7l-.3-.3h.3c.7-.1,1.2-.6,1.5-1.2h0c0,0,0,0,0,0,.3.6.8,1,1.5,1.1h.3s-.3.3-.3.3Z"/>
  <path class="st0" d="M119.9,29.6c-.2-.7-.9-1.2-1.6-1.3l-3.1-.5-1.4-3c-.5-1-1.7-1.4-2.7-1-.4.2-.8.5-1,1l-1.4,3-3.1.5c-1.1.2-1.8,1.2-1.7,2.3,0,.4.3.8.5,1.1l2.3,2.4-.6,3.3c-.2,1.1.6,2.1,1.6,2.3.4,0,.9,0,1.3-.2l2.7-1.5,2.7,1.5c.7.4,1.5.3,2.1-.1.6-.4,1-1.2.8-2l-.5-3.3,2.3-2.4c.5-.5.7-1.3.5-2ZM113.6,31.9c-.4.5-.6,1.1-.5,1.7v.3s0,0,0,0c-.3-.2-.6-.2-1-.2-.3,0-.7,0-1,.2h0c0,0,0-.2,0-.2,0-.6-.1-1.3-.6-1.7l-.3-.3h.3c.7-.1,1.2-.6,1.5-1.2h0c0,0,0,0,0,0,.3.6.8,1,1.5,1.1h.3s-.3.3-.3.3Z"/>
  <path class="st8" d="M113.6,31.9c-.4.5-.6,1.1-.5,1.7v.3s0,0,0,0c-.3-.2-.6-.2-1-.2-.3,0-.7,0-1,.2h0c0,0,0-.2,0-.2,0-.6-.1-1.3-.6-1.7l-.3-.3h.3c.7-.1,1.2-.6,1.5-1.2h0c0,0,0,0,0,0,.3.6.8,1,1.5,1.1h.3s-.3.3-.3.3Z"/>
  <path class="st0" d="M72.9,93.7c-.2-.7-.9-1.2-1.6-1.3l-3.8-.6-1.7-3.6c-.5-1-1.7-1.4-2.7-1-.4.2-.8.5-1,1l-1.7,3.6-3.8.6c-1.1.2-1.8,1.2-1.7,2.3,0,.4.3.8.5,1.1l2.8,2.9-.7,4.1c-.1.8.2,1.5.8,2,.6.4,1.5.5,2.1.1l3.4-1.9,3.4,1.9c.7.4,1.5.3,2.1-.1.6-.4.9-1.2.8-2l-.7-4.1,2.8-2.9c.5-.5.7-1.3.5-2ZM66.1,96.5c-.4.5-.6,1.1-.5,1.7l.2,1-.7-.4c-.3-.2-.6-.3-1-.2-.3,0-.7,0-1,.2l-.7.4.2-1c.1-.6-.1-1.3-.5-1.7l-.8-.8,1-.2c.7-.1,1.2-.5,1.5-1.1l.3-.8.4.8c.3.6.9,1,1.5,1.1l1,.2-.8.8Z"/>
  <path class="st8" d="M66.1,96.5c-.4.5-.6,1.1-.5,1.7l.2,1-.7-.4c-.3-.2-.6-.3-1-.2-.3,0-.7,0-1,.2l-.7.4.2-1c.1-.6-.1-1.3-.5-1.7l-.8-.8,1-.2c.7-.1,1.2-.5,1.5-1.1l.3-.8.4.8c.3.6.9,1,1.5,1.1l1,.2-.8.8Z"/>
  <path class="st0" d="M73,57v-12.8c.1-5-3.8-9.1-8.8-9.2-5-.1-9.1,3.8-9.2,8.8,0,.2,0,.3,0,.5v12.8c0,1.1.9,2,2,2s2-.9,2-2v-3.9h10v3.9c0,1.1.9,2,2,2s2-.9,2-2h0ZM69,49.1h-10v-4.8c-.1-2.8,2-5.1,4.8-5.2,2.8-.1,5.1,2,5.2,4.8,0,.2,0,.3,0,.5v4.8Z"/>
  <circle class="st0" cx="50" cy="33" r="2"/>
  <circle class="st0" cx="78" cy="33" r="2"/>
  <path class="st0" d="M57.7,81.2s-11.9-34.1-11.9-34.1c-1.1-3.1-4.5-4.7-7.6-3.7,0,0-34.1,11.9-34.1,11.9-3.1,1.1-4.7,4.5-3.7,7.6,0,0,11.9,34.1,11.9,34.1,1.1,3.1,4.5,4.7,7.6,3.7,0,0,34.1-11.9,34.1-11.9,3-.8,4.8-3.9,4-6.8,0-.3-.2-.5-.3-.8ZM52.7,85l-34.1,11.9c-1,.4-2.2-.2-2.5-1.2,0,0-11.9-34.1-11.9-34.1-.4-1,.2-2.2,1.2-2.5,0,0,34.1-11.9,34.1-11.9,1-.3,2.2.2,2.5,1.2,0,0,11.9,34.1,11.9,34.1.4,1-.1,2.1-1.1,2.5,0,0,0,0,0,0Z"/>
  <path class="st8" d="M52.7,85l-34.1,11.9c-1,.4-2.2-.2-2.5-1.2,0,0-11.9-34.1-11.9-34.1-.4-1,.2-2.2,1.2-2.5,0,0,34.1-11.9,34.1-11.9,1-.3,2.2.2,2.5,1.2,0,0,11.9,34.1,11.9,34.1.4,1-.1,2.1-1.1,2.5,0,0,0,0,0,0Z"/>
  <g>
    <circle class="st0" cx="20" cy="91" r="2"/>
    <circle class="st0" cx="10" cy="63" r="2"/>
    <circle class="st0" cx="38" cy="53" r="2"/>
    <circle class="st0" cx="47" cy="82" r="2"/>
    <path class="st0" d="M124,55.2s-34.1-11.9-34.1-11.9c-3.1-1-6.5.6-7.6,3.7,0,0-11.9,34.1-11.9,34.1-1.2,2.8,0,6.1,2.9,7.3.3.1.5.2.8.3,0,0,34.1,11.9,34.1,11.9,3.1,1,6.5-.6,7.6-3.7,0,0,11.9-34.1,11.9-34.1,1-3.1-.6-6.5-3.7-7.6ZM123.9,61.5s-11.9,34.1-11.9,34.1c-.4,1-1.5,1.6-2.5,1.2l-34.1-11.9c-1-.3-1.6-1.4-1.3-2.4,0,0,0,0,0,0,0,0,11.9-34.1,11.9-34.1.4-1,1.5-1.6,2.5-1.2,0,0,34.1,11.9,34.1,11.9,1,.4,1.6,1.5,1.2,2.5Z"/>
  </g>
  <path class="st9" d="M123.9,61.5s-11.9,34.1-11.9,34.1c-.4,1-1.5,1.6-2.5,1.2l-34.1-11.9c-1-.3-1.6-1.4-1.3-2.4,0,0,0,0,0,0,0,0,11.9-34.1,11.9-34.1.4-1,1.5-1.6,2.5-1.2,0,0,34.1,11.9,34.1,11.9,1,.4,1.6,1.5,1.2,2.5Z"/>
  <circle class="st0" cx="108" cy="91" r="2"/>
  <circle class="st0" cx="118" cy="63" r="2"/>
  <circle class="st0" cx="90" cy="53" r="2"/>
  <circle class="st0" cx="81" cy="82" r="2"/>
  <path class="st0" d="M44,29c0-1.1.9-2,2-2h36c1.1,0,2,.9,2,2v10.8c1.3-.5,2.6-.8,4-.8v-10c0-3.3-2.7-6-6-6h-36c-3.3,0-6,2.7-6,6v10c1.4,0,2.7.3,4,.8v-10.8Z"/>
  <path class="st1" d="M71.8,65c-.5,1.4-.9,2.7-1.4,4h-12.7c-.5-1.3-.9-2.6-1.4-4h15.5Z"/>
  <path class="st0" d="M35.8,69.2s0,0,0-.1c.8-1.7.9-3.6.3-5.4-1.3-3.7-5.4-5.6-9.1-4.3l-7.8,2.7c-1,.4-1.6,1.5-1.2,2.6l6.8,19c.4,1,1.5,1.5,2.5,1.2l7.7-2.6c3.7-1.3,5.6-5.3,4.4-9-.6-1.8-2-3.3-3.7-4.1ZM24.6,70.9l-2.1-5.7,5.8-2c1.6-.6,3.4.3,4,1.9.5,1.6-.4,3.3-1.9,3.9l-5.9,2ZM35.7,76.9c-.4.7-1,1.3-1.8,1.6l-5.8,2-2.1-5.8,5.8-2c2.4-.8,5.1,1.7,3.9,4.2Z"/>
  <path class="st0" d="M102.5,82.3l-5.2-1.8c-3.9-1.3-6.1-5.6-4.7-9.5,1.4-3.9,5.6-6,9.5-4.7l5.2,1.8c1,.4,2.2-.2,2.5-1.3s-.2-2.2-1.3-2.5h0l-5.2-1.8c-6-1.9-12.5,1.3-14.6,7.3-2,6,1.2,12.6,7.3,14.6l5.2,1.8c1,.3,2.2-.2,2.5-1.3.3-1-.2-2.2-1.3-2.5Z"/>
  <path class="st6" d="M53.8,84.1c-1.2-3.6-11.8-33.8-11.8-33.8-.4-1-1.5-1.6-2.5-1.2,0,0-34.1,11.9-34.1,11.9-.5.2-.9.5-1.1,1,0-.3-.1-.4-.1-.4-.4-1,.2-2.2,1.2-2.5,0,0,34.1-11.9,34.1-11.9,1-.3,2.2.2,2.5,1.2,0,0,11.9,34.1,11.9,34.1.2.5.2,1.2-.1,1.7Z"/>
  <path class="st2" d="M52.7,85l-34.1,11.9c-1,.4-2.2-.2-2.5-1.2,0,0-11.9-34.1-11.9-34.1-.2-.5-.1-1.1.1-1.6,1.3,3.8,11.7,33.7,11.7,33.7.4,1,1.5,1.6,2.5,1.2l34.1-11.9c.4-.2.8-.5,1.1-.9,0,.2.1.3.1.3.4,1-.1,2.1-1.1,2.5,0,0,0,0,0,0Z"/>
  <path class="st4" d="M123.9,61.5s0,.1-.1.4c-.2-.4-.6-.8-1.1-1,0,0-34.1-11.9-34.1-11.9-1-.3-2.2.2-2.5,1.2,0,0-10.5,30.2-11.8,33.8-.3-.5-.3-1.1-.1-1.7,0,0,11.9-34.1,11.9-34.1.4-1,1.5-1.6,2.5-1.2,0,0,34.1,11.9,34.1,11.9,1,.4,1.6,1.5,1.2,2.5Z"/>
  <path class="st3" d="M123.9,61.5s-11.9,34.1-11.9,34.1c-.4,1-1.5,1.6-2.5,1.2l-34.1-11.9c-1-.3-1.6-1.4-1.3-2.4,0,0,0,0,0,0,0,0,0-.1.1-.3.3.4.7.7,1.1.9l34.1,11.9c1,.4,2.2-.2,2.5-1.2,0,0,10.4-29.9,11.8-33.7.3.5.3,1.1.1,1.6Z"/>
  <path class="st0" d="M58.4,71h11.3l1.4-4h-14.1l1.4,4Z"/>
  <path class="st5" d="M84,29v2c0-1.1-.9-2-2-2h-36c-1.1,0-2,.9-2,2v-2c0-1.1.9-2,2-2h36c1.1,0,2,.9,2,2h0Z"/>
</svg>