<svg width="136" height="139" viewBox="0 0 136 139" fill="none" xmlns="http://www.w3.org/2000/svg">
<g clip-path="url(#clip0_356_18651)">
<path d="M103.102 60.7505H120.65C120.65 65.5856 116.723 69.5017 111.876 69.5017C107.028 69.5017 103.102 65.5856 103.102 60.7505Z" fill="#AAB2BD"/>
<path d="M120.65 51.999V60.7503H103.102V51.999H120.65Z" fill="#CCD1D9"/>
<path d="M111.873 3.86719C99.7646 3.86719 89.9375 13.6686 89.9375 25.7453C89.9375 38.8722 100.905 43.2478 103.099 51.9991H120.647C122.841 43.2478 133.808 38.8722 133.808 25.7453C133.808 13.6686 123.981 3.86719 111.873 3.86719Z" fill="#FFD966"/>
<path d="M123.738 22.6604C124.549 23.4481 125.032 24.542 125.032 25.7453C125.032 26.9486 124.549 28.0425 123.738 28.8301C122.948 29.6396 121.851 30.1209 120.645 30.1209H116.258V25.7453C116.258 23.3387 118.232 21.3696 120.645 21.3696C121.851 21.3696 122.948 21.8509 123.738 22.6604Z" fill="#FCD770"/>
<path d="M107.485 25.7453V30.1209H103.098C100.685 30.1209 98.7109 28.1519 98.7109 25.7453C98.7109 24.542 99.1935 23.4481 100.005 22.6604C100.795 21.8509 101.892 21.3696 103.098 21.3696C104.304 21.3696 105.401 21.8509 106.191 22.6604C107.003 23.4481 107.485 24.542 107.485 25.7453Z" fill="#FCD770"/>
<path d="M19.7437 60.7503V65.1259H2.19531V60.7503C2.19531 55.9152 6.12176 51.999 10.9695 51.999C13.3824 51.999 15.576 52.9835 17.1772 54.5588C18.7566 56.1559 19.7437 58.3437 19.7437 60.7503Z" fill="#AAB2BD"/>
<path d="M13.9308 133.079C13.4702 134.326 12.2856 135.136 10.9695 135.136C9.65338 135.136 8.46886 134.326 8.00822 133.079L2.19531 117.633H19.7437L13.9308 133.079Z" fill="#AAB2BD"/>
<path d="M19.7437 65.126V73.8772H2.19531V65.126H19.7437Z" fill="#FFEAA7"/>
<path d="M10.9688 73.8774H19.7429V117.634H10.9688V73.8774Z" fill="#FCD770"/>
<path d="M2.19531 73.8774H10.9695V117.634H2.19531V73.8774Z" fill="#FF4D4D"/>
<path d="M78.9677 10.4306L68 16.9941V3.86719L78.9677 10.4306Z" fill="#FF4D4D"/>
<path d="M67.999 135.136L57.0312 128.573L67.999 122.009V135.136Z" fill="#FF4D4D"/>
<path d="M98.7084 101.75V108.882H37.2891V101.75C37.2891 94.4425 42.4658 88.1635 49.6387 86.7195L55.0787 85.6475L59.2245 100.131L67.9987 93.5674L76.7729 100.131L80.9187 85.6475L86.3587 86.7195C93.5316 88.1635 98.7084 94.4425 98.7084 101.75Z" fill="#FFB400"/>
<path d="M67.9981 93.5673L59.2239 100.131L55.0781 85.6475L55.5168 85.5599C56.1091 85.4505 56.7013 85.2318 57.2278 84.9692L67.9981 93.5673Z" fill="#FFB400"/>
<path d="M80.92 85.6475L76.7742 100.131L68 93.5673L78.7703 84.9692C79.2968 85.2318 79.889 85.4505 80.4813 85.5599L80.92 85.6475Z" fill="#FFB400"/>
<path d="M63.6109 49.8113L61.4831 50.3364C57.6664 51.299 54.9683 54.6682 54.8367 58.5625H52.6431C50.9541 58.5625 49.4406 59.197 48.278 60.2472L48.256 60.2253C48.256 60.2253 47.7077 58.7157 47.1593 56.6591C46.6109 54.6245 46.0625 51.9991 46.0625 49.8113C46.0625 45.9607 48.6948 42.5915 52.4457 41.6507L54.8367 41.06C57.5786 36.9688 62.1851 34.4966 67.1425 34.4966H72.9554C77.6496 34.4966 81.8831 36.4 84.9541 39.4629C88.0251 42.5259 89.9335 46.7483 89.9335 51.4303C89.9335 53.268 89.6483 55.062 89.056 56.7904L87.8715 60.3565C86.709 59.2626 85.1077 58.5625 83.3528 58.5625H81.1593C81.1593 56.1559 79.1851 54.1869 76.7722 54.1869H67.998C66.7915 54.1869 65.6948 53.7056 64.9051 52.8961C64.0935 52.1085 63.6109 51.0146 63.6109 49.8113Z" fill="#FFD966"/>
<path d="M88.0037 69.7641C86.8192 70.9455 85.1741 71.6894 83.3534 71.6894H80.4141C80.8966 70.3111 81.1599 68.8452 81.1599 67.3138V58.5625H83.3534C85.1083 58.5625 86.7095 59.2626 87.8721 60.3565C89.1444 61.5598 89.9341 63.2444 89.9341 65.1259C89.9341 67.0075 89.1883 68.5827 88.0037 69.7641Z" fill="#F0D0B4"/>
<path d="M75.5505 81.2504C76.1208 82.8912 77.2834 84.2039 78.775 84.9697L68.0047 93.5678L57.2344 84.9697C58.726 84.2039 59.8886 82.8912 60.4589 81.2504L61.3363 78.6469L61.3582 78.625C63.3105 79.7845 65.5699 80.4409 68.0047 80.4409C70.4395 80.4409 72.6989 79.7845 74.6511 78.625L74.6731 78.6469L75.5505 81.2504Z" fill="#F0D0B4"/>
<path d="M54.8367 67.3138C54.8367 68.8452 55.0999 70.3111 55.5825 71.6894H52.6431C50.8225 71.6894 49.1773 70.9455 47.9928 69.7641C46.8083 68.5827 46.0625 66.9418 46.0625 65.1259C46.0625 63.1788 46.918 61.4067 48.278 60.2471C49.4406 59.197 50.9541 58.5625 52.6431 58.5625H54.8367V67.3138Z" fill="#F0D0B4"/>
<path d="M81.1663 58.5623V67.3135C81.1663 68.845 80.9031 70.3109 80.4205 71.6892C79.3676 74.6208 77.3057 77.0931 74.6515 78.6245C72.6992 79.7841 70.4179 80.4404 68.005 80.4404C65.5921 80.4404 63.3108 79.7841 61.3586 78.6245L58.7044 76.5899C57.3225 75.2115 56.2476 73.5488 55.5896 71.6892C55.107 70.3109 54.8438 68.845 54.8438 67.3135V58.5623C54.9754 54.668 57.6734 51.2987 61.4902 50.3361L63.6179 49.811C63.6179 51.0143 64.1005 52.1082 64.9121 52.8959C65.7018 53.7053 66.7986 54.1867 68.005 54.1867H76.7792C79.1921 54.1867 81.1663 56.1557 81.1663 58.5623Z" fill="#F0D0B4"/>
<path d="M100.905 101.744C100.905 93.4306 94.9745 86.2136 86.798 84.5837L80.9166 83.4105C79.3893 83.1042 78.128 82.002 77.6262 80.5362L77.2698 79.4915C79.2138 78.0175 80.7904 76.095 81.8516 73.8743H83.3569C88.1964 73.8743 92.1311 69.9499 92.1311 65.1231C92.1311 63.1513 91.4511 61.3518 90.3461 59.8887L91.1467 57.4876C91.7993 55.535 92.1311 53.5003 92.1311 51.4356C92.1311 40.8876 83.5269 32.3086 72.954 32.3086H67.1383C61.7422 32.3086 56.7135 34.8437 53.5191 39.1346L51.9206 39.5338C47.1825 40.7153 43.8758 44.9405 43.8758 49.8111C43.8758 53.328 45.1151 57.6572 45.7869 59.7383C44.6079 61.2288 43.8758 63.0829 43.8758 65.1258C43.8758 69.9527 47.8104 73.8771 52.65 73.8771H54.1525C55.2137 76.095 56.7903 78.0175 58.7343 79.4943L58.3779 80.5389C57.8761 82.0075 56.6148 83.1096 55.0875 83.4132L49.2061 84.5864C41.0324 86.2191 35.1016 93.4334 35.1016 101.747V111.073H100.908V101.747L100.905 101.744ZM83.3569 69.5014H83.1814C83.2856 68.7849 83.3569 68.0575 83.3569 67.3136V60.7502C85.7753 60.7502 87.744 62.7137 87.744 65.1258C87.744 67.5379 85.7753 69.5014 83.3569 69.5014ZM52.6472 69.5014C50.2288 69.5014 48.2601 67.5379 48.2601 65.1258C48.2601 62.7137 50.2288 60.7502 52.6472 60.7502V67.3136C52.6472 68.0575 52.7185 68.7849 52.8227 69.5014H52.6472ZM52.9598 56.3745H52.6472C51.545 56.3745 50.5003 56.5988 49.5269 56.9707C48.9456 54.9552 48.2601 52.0974 48.2601 49.8111C48.2601 46.9505 50.2041 44.4728 52.9817 43.7782L56.1953 42.9769L56.6669 42.2741C59.0058 38.7736 62.9212 36.6842 67.1356 36.6842H72.9512C81.1085 36.6842 87.744 43.3024 87.744 51.4356C87.744 53.0272 87.489 54.5942 86.9817 56.1011L86.6691 57.0309C85.6464 56.6125 84.5277 56.3718 83.3541 56.3718H82.9511C82.0435 53.8312 79.6306 51.9962 76.7735 51.9962H67.9993C66.7874 51.9962 65.8058 51.0171 65.8058 49.8084C65.8058 48.5996 66.7874 47.6206 67.9993 47.6206H70.1929V43.2449H67.9993C64.9859 43.2449 62.4387 45.2769 61.66 48.039L60.9525 48.2167C56.8835 49.2313 53.8674 52.4337 52.957 56.3718L52.9598 56.3745ZM57.0343 67.3136V58.8304C57.0343 55.8249 59.0688 53.2132 61.9862 52.4693C63.0117 54.7692 65.3204 56.3718 68.002 56.3718H76.7762C77.9882 56.3718 78.9698 57.3509 78.9698 58.5596V67.3109C78.9698 73.3438 74.0508 78.2499 68.002 78.2499C61.9533 78.2499 57.0343 73.3438 57.0343 67.3109V67.3136ZM68.002 82.6283C69.894 82.6283 71.6982 82.2701 73.3708 81.6411L73.4749 81.9501C73.8643 83.0823 74.4785 84.1024 75.2627 84.9693L67.9993 90.767L60.7359 84.9693C61.5201 84.1024 62.1343 83.0823 62.5237 81.9501L62.6279 81.6411C64.3004 82.2701 66.1074 82.6283 67.9966 82.6283H68.002ZM77.8154 88.5381L75.5424 96.4717L71.583 93.5099L77.8154 88.5381ZM64.4211 93.5127L60.4617 96.4744L58.1887 88.5409L64.4211 93.5127ZM96.5182 106.694H39.4859V101.744C39.4859 95.5091 43.9333 90.097 50.0643 88.8745L53.5219 88.1854L57.9912 103.79L67.9554 96.335L67.9993 96.3678L68.0432 96.3322L78.0074 103.787L82.4767 88.1826L85.9343 88.8718C92.0653 90.097 96.5127 95.5118 96.5127 101.744V106.694H96.5182Z" fill="#5A5A5A"/>
<path d="M10.9677 49.811C4.91903 49.811 0 54.7172 0 60.7501V118.033L5.95 133.856C6.73145 135.929 8.74677 137.324 10.9677 137.324C13.1887 137.324 15.204 135.929 15.9855 133.856L21.9355 118.033V60.7501C21.9355 54.7172 17.0165 49.811 10.9677 49.811ZM10.9677 54.1867C14.5953 54.1867 17.5484 57.132 17.5484 60.7501V62.9379H4.3871V60.7501C4.3871 57.132 7.34016 54.1867 10.9677 54.1867ZM5.35774 119.821H16.575L14.9298 124.197H7.0029L5.35774 119.821ZM4.3871 115.445V76.0648H8.77419V115.445H4.3871ZM13.1613 115.445V76.0648H17.5484V115.445H13.1613ZM4.3871 71.6892V67.3135H17.5484V71.6892H4.3871ZM10.0547 132.316L8.64532 128.57H13.2847L11.8753 132.316C11.5902 133.068 10.3398 133.068 10.0519 132.316H10.0547Z" fill="#5A5A5A"/>
<path d="M100.903 52.3462V60.7502C100.903 66.7831 105.823 71.6892 111.871 71.6892C117.92 71.6892 122.839 66.7831 122.839 60.7502V52.3462C123.645 49.3653 125.663 46.8849 128.013 44.0325C131.756 39.4874 136 34.3378 136 25.7451C136 12.4761 125.175 1.6792 111.871 1.6792C98.5673 1.6792 87.7422 12.4761 87.7422 25.7451C87.7422 34.3378 91.9867 39.4901 95.7294 44.0325C98.0793 46.8849 100.1 49.3653 100.903 52.3462ZM105.291 27.933H103.097C101.885 27.933 100.903 26.9539 100.903 25.7451C100.903 24.5364 101.885 23.5573 103.097 23.5573C104.309 23.5573 105.291 24.5364 105.291 25.7451V27.933ZM114.065 49.8111H109.678V32.3086H114.065V49.8111ZM118.452 54.1867V58.5624H105.291V54.1867H118.452ZM111.871 67.3136C109.014 67.3136 106.601 65.4786 105.694 62.938H118.046C117.141 65.4786 114.728 67.3136 111.871 67.3136ZM111.871 6.05483C122.757 6.05483 131.613 14.8881 131.613 25.7451C131.613 32.7708 128.06 37.0835 124.621 41.2567C122.472 43.8657 120.264 46.5595 119.044 49.8111H118.452V32.3086H120.645C124.273 32.3086 127.226 29.3632 127.226 25.7451C127.226 22.1271 124.273 19.1817 120.645 19.1817C117.018 19.1817 114.065 22.1271 114.065 25.7451V27.933H109.678V25.7451C109.678 22.1271 106.725 19.1817 103.097 19.1817C99.4694 19.1817 96.5164 22.1271 96.5164 25.7451C96.5164 29.3632 99.4694 32.3086 103.097 32.3086H105.291V49.8111H104.698C103.475 46.5567 101.271 43.8657 99.1212 41.2567C95.6828 37.0835 92.1293 32.7708 92.1293 25.7451C92.1293 14.8881 100.986 6.05483 111.871 6.05483ZM118.452 27.933V25.7451C118.452 24.5364 119.433 23.5573 120.645 23.5573C121.857 23.5573 122.839 24.5364 122.839 25.7451C122.839 26.9539 121.857 27.933 120.645 27.933H118.452Z" fill="#5A5A5A"/>
<path d="M70.1957 126.332V118.144L52.7734 128.572L70.1957 139.003V130.711C100.579 129.647 125.687 106.626 129.046 76.3052L124.686 75.8267C121.574 103.921 98.3362 125.274 70.1957 126.335V126.332ZM65.8086 131.269L61.2954 128.572L65.8086 125.876V131.271V131.269Z" fill="#5A5A5A"/>
<path d="M65.8026 20.8581L83.2248 10.4277L65.8026 0V8.31916C42.4687 9.156 21.4655 23.158 11.8906 44.5411L15.8966 46.3269C24.7668 26.519 44.1988 13.5289 65.8053 12.6975V20.8581H65.8026ZM70.1897 7.73119L74.7029 10.4277L70.1897 13.1241V7.72845V7.73119Z" fill="#5A5A5A"/>
</g>
<defs>
<clipPath id="clip0_356_18651">
<rect width="136" height="139" fill="white"/>
</clipPath>
</defs>
</svg>
