<svg width="24" height="24" viewBox="0 0 24 24" fill="none" xmlns="http://www.w3.org/2000/svg">
<path d="M12.0002 22.7992C17.9649 22.7992 22.8002 17.9639 22.8002 11.9992C22.8002 6.03454 17.9649 1.19922 12.0002 1.19922C6.03552 1.19922 1.2002 6.03454 1.2002 11.9992C1.2002 17.9639 6.03552 22.7992 12.0002 22.7992Z" fill="#FF4D4D"/>
<path d="M15.7974 14.4378L13.3579 11.9983L15.7974 9.55875C15.8865 9.4696 15.9572 9.36377 16.0055 9.2473C16.0537 9.13083 16.0786 9.00599 16.0786 8.87992C16.0786 8.75385 16.0537 8.62902 16.0055 8.51255C15.9572 8.39607 15.8865 8.29024 15.7974 8.2011C15.7082 8.11196 15.6024 8.04124 15.4859 7.993C15.3695 7.94475 15.2446 7.91992 15.1186 7.91992C14.9925 7.91992 14.8677 7.94475 14.7512 7.993C14.6347 8.04124 14.5289 8.11196 14.4397 8.2011L12.0002 10.6406L9.5607 8.2011C9.47155 8.11196 9.36573 8.04124 9.24925 7.993C9.13278 7.94475 9.00795 7.91992 8.88188 7.91992C8.75581 7.91992 8.63097 7.94475 8.5145 7.993C8.39803 8.04124 8.2922 8.11196 8.20305 8.2011C8.11391 8.29024 8.0432 8.39607 7.99495 8.51255C7.94671 8.62902 7.92188 8.75385 7.92188 8.87992C7.92188 9.00599 7.94671 9.13083 7.99495 9.2473C8.0432 9.36377 8.11391 9.4696 8.20305 9.55875L10.6426 11.9983L8.20305 14.4378C8.11391 14.5269 8.0432 14.6328 7.99495 14.7492C7.94671 14.8657 7.92188 14.9905 7.92188 15.1166C7.92188 15.2427 7.94671 15.3675 7.99495 15.484C8.0432 15.6005 8.11391 15.7063 8.20305 15.7954C8.2922 15.8846 8.39803 15.9553 8.5145 16.0035C8.63097 16.0518 8.75581 16.0766 8.88188 16.0766C9.00795 16.0766 9.13278 16.0518 9.24925 16.0035C9.36573 15.9553 9.47155 15.8846 9.5607 15.7954L12.0002 13.3559L14.4397 15.7954C14.5289 15.8846 14.6347 15.9553 14.7512 16.0035C14.8677 16.0518 14.9925 16.0766 15.1186 16.0766C15.2446 16.0766 15.3695 16.0518 15.4859 16.0035C15.6024 15.9553 15.7082 15.8846 15.7974 15.7954C15.8865 15.7063 15.9572 15.6005 16.0055 15.484C16.0537 15.3675 16.0786 15.2427 16.0786 15.1166C16.0786 14.9905 16.0537 14.8657 16.0055 14.7492C15.9572 14.6328 15.8865 14.5269 15.7974 14.4378Z" fill="white"/>
</svg>
