<svg width="62" height="62" viewBox="0 0 62 62" fill="none" xmlns="http://www.w3.org/2000/svg">
<path d="M14.3329 6.05591C19.2664 2.75947 25.0666 1 31 1C34.9397 1 38.8407 1.77597 42.4805 3.28361C46.1203 4.79125 49.4274 7.00104 52.2132 9.78679C54.999 12.5726 57.2088 15.8797 58.7164 19.5195C60.224 23.1593 61 27.0603 61 31C61 36.9334 59.2405 42.7336 55.9441 47.6671C52.6476 52.6006 47.9623 56.4457 42.4805 58.7164C36.9987 60.987 30.9667 61.5811 25.1473 60.4235C19.3279 59.266 13.9824 56.4088 9.78681 52.2132C5.59123 48.0176 2.73401 42.6721 1.57646 36.8527C0.418899 31.0333 1.013 25.0013 3.28363 19.5195C5.55426 14.0377 9.39943 9.35235 14.3329 6.05591ZM27.6991 43.1991C28.468 42.4302 28.9 41.3874 28.9 40.3V21.7C28.9 20.6126 28.468 19.5698 27.6991 18.8009C26.9302 18.032 25.8874 17.6 24.8 17.6C23.7126 17.6 22.6698 18.032 21.9009 18.8009C21.132 19.5698 20.7 20.6126 20.7 21.7V40.3C20.7 41.3874 21.132 42.4302 21.9009 43.1991C22.6698 43.968 23.7126 44.4 24.8 44.4C25.8874 44.4 26.9302 43.968 27.6991 43.1991ZM40.0991 43.1991C40.868 42.4302 41.3 41.3874 41.3 40.3V21.7C41.3 20.6126 40.868 19.5698 40.0991 18.8009C39.3302 18.032 38.2874 17.6 37.2 17.6C36.1126 17.6 35.0698 18.032 34.3009 18.8009C33.532 19.5698 33.1 20.6126 33.1 21.7V40.3C33.1 41.3874 33.532 42.4302 34.3009 43.1991C35.0698 43.968 36.1126 44.4 37.2 44.4C38.2874 44.4 39.3302 43.968 40.0991 43.1991Z" fill="#FFB400" stroke="#5A5A5A" stroke-width="2"/>
</svg>
