<svg width="32" height="32" viewBox="0 0 32 32" fill="none" xmlns="http://www.w3.org/2000/svg">
<path d="M31.3133 11.9639C31.0799 11.6219 30.7943 11.3297 30.4694 11.0903L31.9618 5.00818C32.0852 4.50554 31.7777 3.99803 31.275 3.8747C30.7725 3.75124 30.2647 4.05882 30.1415 4.56152L28.7118 10.3878C28.5827 10.3699 28.4518 10.3571 28.3187 10.351L26.7448 3.93674C26.6214 3.43398 26.1137 3.12646 25.6114 3.24992C25.1087 3.37325 24.8011 3.88076 24.9245 4.3834L26.478 10.7141C25.7154 11.0883 25.0625 11.7462 24.527 12.6839L22.5205 15.8335C21.625 10.8418 17.1213 7.0341 11.7163 7.0341C3.3824 6.93339 -2.12399 16.1155 2.31434 23.1237C1.20972 24.2355 0.417873 25.6772 0.0838014 27.331L0.0185741 27.6537C-0.037094 27.9292 0.0338188 28.2152 0.211819 28.4328C0.38982 28.6503 0.65604 28.7765 0.93713 28.7765H19.121C22.7214 28.797 25.9622 26.8447 27.6271 23.6521L28.3676 22.2524C29.4423 20.2213 30.5537 18.1211 31.6306 16.0535C31.646 16.0239 31.6599 15.9934 31.6721 15.9621C32.2129 14.5801 32.0787 13.0854 31.3133 11.9639ZM2.62404 17.6578C2.62404 12.8333 6.70281 8.90839 11.7163 8.90839C17.0412 8.88783 21.3105 13.3893 20.7638 18.524C20.7616 18.5452 20.7612 18.5662 20.7605 18.5871C19.8067 19.9622 18.3617 20.7167 16.6673 20.7167H14.8036C14.9962 20.0843 15.1025 19.4095 15.1194 18.6979C15.1773 16.2643 14.272 14.3511 12.6356 13.4491C11.2898 12.7071 9.60268 12.7717 8.33743 13.6134C7.064 14.4605 6.43566 15.8961 6.61347 17.5523C6.6687 18.0669 7.13073 18.4394 7.64536 18.384C8.15999 18.3287 8.53236 17.8668 8.47707 17.3521C8.37492 16.4008 8.694 15.6273 9.37551 15.174C10.0655 14.7149 10.99 14.6821 11.7308 15.0905C13.3245 15.8467 13.6293 18.9708 12.8078 20.7167H8.16768C6.56186 20.7167 5.06213 21.1612 3.79301 21.9478C3.02759 20.6393 2.62404 19.1638 2.62404 17.6578ZM29.9434 15.2352C28.8771 17.282 27.776 19.3629 26.7109 21.3757L25.9701 22.776C24.5837 25.3982 22.0873 26.9021 19.1211 26.9021H2.13521C3.00179 24.327 5.37777 22.5911 8.16774 22.5911H16.6673C19.0635 22.5911 21.1762 21.432 22.4636 19.4112L26.1204 13.6712C26.1291 13.6575 26.1374 13.6437 26.1454 13.6296C26.8492 12.3872 27.5361 12.2198 28.1151 12.2198C28.837 12.2198 29.4076 12.4968 29.7651 13.0206C30.1736 13.6189 30.2391 14.4438 29.9434 15.2352Z" fill="#5A5A5A"/>
</svg>
