<svg width="28" height="48" viewBox="0 0 28 48" fill="none" xmlns="http://www.w3.org/2000/svg">
<path d="M12.8163 0.25C11.7534 0.370934 10.515 0.433326 9.3081 0.66441C6.48027 1.20437 3.95261 2.40678 1.87292 4.42876C-0.121343 6.36678 -0.216785 9.4787 1.59814 11.5423C3.07209 13.2184 5.26031 13.213 7.59093 11.5269C7.75102 11.4106 7.9142 11.2981 8.07198 11.1787C9.81148 9.85845 11.805 9.34159 13.9355 9.55419C15.6927 9.72981 17.1982 10.4847 17.8262 12.301C18.4327 14.0542 17.5846 15.3775 16.3515 16.4975C15.7327 17.0598 15.02 17.5204 14.3457 18.0219C10.2956 21.0313 8.53687 25.7647 9.78223 30.3062C10.3749 32.4669 11.3816 33.6007 12.7055 33.5992C14.0001 33.5976 14.9869 32.5816 15.5634 30.4326C16.1622 28.2018 17.3082 26.3339 19.0701 24.8804C20.4794 23.7181 22.021 22.7182 23.4411 21.569C27.8807 17.9756 28.9598 12.4165 26.1404 7.46751C23.2448 2.38598 18.5344 0.565814 12.8163 0.25Z" fill="#FFD966"/>
<path d="M13.5601 37.1836C10.2889 37.189 8.21233 39.2002 8.21926 42.3568C8.22618 45.4772 10.449 47.7603 13.4701 47.7495C16.6404 47.7387 18.9179 45.4826 18.9025 42.3691C18.8879 39.2002 16.8044 37.1782 13.5601 37.1836Z" fill="#FFD966"/>
</svg>
