<svg width="514" height="349" viewBox="0 0 514 349" fill="none" xmlns="http://www.w3.org/2000/svg">
<path d="M45.8609 109.278C46.8716 111.536 47.6448 114.1 49.0695 116.131C49.7897 117.173 50.3635 117.851 51.6813 117.721C53.4639 116.369 53.7818 112.867 54.0244 110.728C54.4861 106.8 53.2599 99.1869 53.9241 96.6417C54.0529 96.1433 54.1835 95.8157 54.6006 95.5169C55.5633 94.8523 56.7863 95.0513 57.88 95.3353C60.5474 96.0293 63.3083 97.7063 65.7908 98.9505C72.1458 102.156 78.5145 105.677 85.3647 107.581C86.9548 108.027 88.6654 108.604 90.3052 108.298C90.6074 107.95 90.7144 107.972 90.7175 107.469C90.7018 103.136 80.2769 93.2521 76.8116 90.1554C75.4513 88.9447 71.6871 86.331 71.5033 84.4997C72.0627 83.3795 73.3006 83.0129 74.43 82.6601C80.403 80.8368 98.4205 79.6575 102.342 75.9683C102.485 75.5423 102.683 75.3252 102.495 74.8777C101.759 73.1603 98.5352 72.2206 96.9137 71.6651C91.4026 69.7672 85.9483 68.8691 80.206 68.4094C77.832 68.2208 75.2945 68.2867 72.9583 67.8389C71.942 67.6387 70.433 67.1863 69.798 66.2546C69.4093 65.6647 69.4218 65.1529 69.6277 64.5316C70.5507 61.8165 83.8322 53.5562 85.1929 47.0561L84.9672 46.4365C81.6378 45.0255 71.7958 48.8684 68.3761 50.249C63.4295 52.2458 21.572 55.4089 17.9893 70.0841C16.3279 76.8963 25.878 81.4991 32.2577 88.1839C39.6017 95.8757 44.1354 105.42 45.8695 109.287L45.8609 109.278Z" fill="#F78004"/>
<path d="M134.368 145.27C135.186 147.605 135.741 150.224 136.99 152.368C137.62 153.467 138.135 154.191 139.459 154.172C141.349 152.973 141.96 149.511 142.381 147.4C143.171 143.524 142.587 135.835 143.463 133.355C143.633 132.869 143.791 132.553 144.231 132.291C145.246 131.709 146.448 132.01 147.514 132.385C150.114 133.3 152.725 135.203 155.094 136.651C161.158 140.379 167.208 144.421 173.875 146.893C175.422 147.471 177.078 148.19 178.738 148.022C179.068 147.7 179.173 147.731 179.218 147.23C179.566 142.912 170.007 132.188 166.814 128.811C165.56 127.491 162.028 124.571 161.999 122.73C162.65 121.661 163.914 121.399 165.069 121.143C171.174 119.827 189.227 120.164 193.444 116.816C193.623 116.404 193.839 116.204 193.689 115.742C193.099 113.969 189.966 112.762 188.396 112.073C183.064 109.719 177.704 108.367 172.021 107.427C169.671 107.04 167.137 106.893 164.846 106.25C163.851 105.966 162.385 105.388 161.83 104.406C161.492 103.786 161.548 103.277 161.805 102.675C162.953 100.047 176.88 92.9303 178.782 86.5673L178.609 85.9309C175.409 84.2455 165.28 87.2492 161.756 88.338C156.659 89.9128 114.684 89.5529 109.883 103.876C107.656 110.525 116.786 115.912 122.582 123.109C129.255 131.39 132.972 141.281 134.376 145.28L134.368 145.27Z" fill="#95C2E3"/>
<path d="M329.991 145.205C331.74 146.832 333.393 148.82 335.424 150.089C336.457 150.745 337.222 151.132 338.345 150.52C339.421 148.646 338.385 145.413 337.795 143.42C336.727 139.754 332.77 133.446 332.402 130.933C332.329 130.442 332.321 130.101 332.58 129.679C333.185 128.725 334.348 128.442 335.427 128.282C338.06 127.895 341.146 128.346 343.822 128.518C350.679 128.975 357.668 129.707 364.475 128.821C366.057 128.619 367.795 128.488 369.137 127.598C369.275 127.174 369.379 127.154 369.192 126.705C367.547 122.859 354.556 117.996 350.309 116.548C348.643 115.984 344.312 115.077 343.46 113.518C343.535 112.312 344.498 111.52 345.369 110.781C349.993 106.911 365.568 99.0776 367.666 94.3209C367.633 93.8881 367.727 93.6205 367.392 93.2934C366.09 92.0439 362.87 92.4222 361.219 92.5388C355.605 92.9267 350.417 94.1819 345.138 95.9355C342.957 96.6617 340.725 97.6758 338.48 98.1573C337.501 98.362 335.989 98.528 335.073 97.9387C334.505 97.5606 334.324 97.1009 334.273 96.471C334.071 93.7094 342.769 81.364 341.532 75.0724L341.098 74.6064C337.606 74.6056 330.303 81.7283 327.782 84.2435C324.136 87.8816 288.111 106.455 290.452 120.852C291.54 127.534 301.764 128.031 309.953 131.572C319.379 135.645 327.004 142.425 330.002 145.21L329.991 145.205Z" fill="#FCD836"/>
<path d="M427.247 129.327C429.549 130.233 431.896 131.523 434.335 131.977C435.579 132.218 436.463 132.301 437.313 131.286C437.64 129.072 435.417 126.348 434.094 124.651C431.675 121.522 425.472 116.941 424.165 114.658C423.908 114.212 423.773 113.886 423.861 113.381C424.084 112.232 425.097 111.519 426.077 110.956C428.468 109.586 431.614 108.852 434.258 108.003C441.041 105.847 448.055 103.905 454.281 100.472C455.729 99.6782 457.355 98.8933 458.312 97.5269C458.284 97.0668 458.376 97.0077 458.026 96.646C454.983 93.5621 440.619 93.7958 435.977 94.0084C434.158 94.0954 429.64 94.8622 428.227 93.6825C427.843 92.4908 428.471 91.3627 429.031 90.3204C432.022 84.8383 444.068 71.388 444.288 66.0086C444.092 65.6037 444.082 65.3101 443.634 65.122C441.906 64.4107 438.946 65.9949 437.399 66.7327C432.134 69.2333 427.609 72.4083 423.185 76.0981C421.357 77.6246 419.59 79.4473 417.608 80.7622C416.742 81.3303 415.347 82.063 414.242 81.8418C413.551 81.6924 413.202 81.318 412.914 80.7301C411.674 78.1446 415.382 62.9498 411.805 57.3541L411.211 57.0693C407.845 58.3911 403.503 68.0234 402.026 71.4026C399.89 76.2906 372.201 107.84 379.91 120.831C383.49 126.86 393.533 123.465 402.769 123.777C413.397 124.133 423.315 127.779 427.26 129.328L427.247 129.327Z" fill="#F78004"/>
<path d="M241.186 158.817C243.019 160.514 244.752 162.588 246.88 163.91C247.962 164.594 248.763 164.996 249.936 164.353C251.056 162.391 249.964 159.013 249.342 156.93C248.215 153.099 244.061 146.513 243.67 143.886C243.592 143.373 243.584 143.017 243.853 142.574C244.484 141.575 245.699 141.276 246.827 141.106C249.579 140.694 252.808 141.159 255.606 141.331C262.778 141.792 270.088 142.54 277.205 141.595C278.858 141.38 280.676 141.238 282.077 140.304C282.22 139.861 282.328 139.839 282.132 139.37C280.401 135.353 266.804 130.301 262.359 128.797C260.616 128.212 256.085 127.275 255.189 125.647C255.265 124.385 256.269 123.554 257.178 122.779C262.004 118.72 278.272 110.489 280.453 105.509C280.417 105.057 280.515 104.776 280.163 104.435C278.799 103.132 275.433 103.536 273.707 103.662C267.836 104.082 262.415 105.408 256.899 107.255C254.62 108.02 252.289 109.087 249.942 109.596C248.918 109.812 247.338 109.99 246.379 109.376C245.784 108.982 245.593 108.502 245.538 107.843C245.32 104.956 254.385 92.0235 253.074 85.4474L252.619 84.9612C248.968 84.9693 241.349 92.4366 238.719 95.0732C234.916 98.887 197.291 118.403 199.776 133.452C200.931 140.437 211.624 140.93 220.197 144.612C230.064 148.847 238.055 155.917 241.197 158.822L241.186 158.817Z" fill="#FFBFDA"/>
<path d="M85.3283 127.173C87.1214 125.722 88.846 123.919 90.8874 122.829C91.9261 122.266 92.6891 121.943 93.7296 122.602C94.6405 124.47 93.4268 127.509 92.7258 129.385C91.4518 132.836 82.2632 140.337 83.7908 143.791C85.3184 147.245 110.951 143.819 117.448 145.105C118.958 145.4 120.623 145.637 121.857 146.577C121.961 146.992 122.06 147.019 121.85 147.438C120.008 151.025 107.172 154.865 102.984 155.985C101.343 156.421 95.0734 156.626 94.1478 158.069C94.14 159.232 95.0142 160.054 95.8041 160.819C99.9994 164.831 116.515 173.734 118.218 178.435C118.157 178.849 118.23 179.112 117.885 179.404C116.548 180.521 113.472 179.952 111.89 179.735C106.508 179.004 101.595 177.468 96.6279 175.447C94.575 174.611 92.4936 173.495 90.3628 172.889C89.4336 172.63 87.9883 172.374 87.0673 172.881C86.4952 173.208 86.2896 173.638 86.1985 174.24C85.8199 176.878 93.3733 189.287 91.7611 195.25L91.312 195.669C87.9491 195.447 78.8513 181.772 72.7735 176.773C66.6957 171.773 50.5747 172.624 50.1095 151.379C49.9741 144.857 56.9944 141.861 65.1074 138.988C74.4581 135.678 82.2548 129.656 85.3283 127.173Z" fill="#B4E296"/>
<path d="M159.703 170.135C161.731 168.571 163.692 166.613 165.986 165.457C167.154 164.858 168.009 164.52 169.147 165.279C170.11 167.376 168.684 170.717 167.857 172.782C166.353 176.58 155.959 184.668 157.565 188.542C159.172 192.416 187.713 189.277 194.893 190.873C196.561 191.239 198.404 191.546 199.749 192.621C199.854 193.085 199.962 193.117 199.719 193.576C197.581 197.511 183.232 201.441 178.555 202.576C176.721 203.016 169.757 203.082 168.692 204.66C168.653 205.951 169.602 206.886 170.459 207.756C175.013 212.317 193.115 222.629 194.883 227.891C194.806 228.349 194.88 228.642 194.489 228.958C192.976 230.163 189.576 229.452 187.825 229.17C181.87 228.219 176.456 226.387 170.995 224.015C168.738 223.033 166.456 221.74 164.107 221.013C163.082 220.701 161.484 220.38 160.449 220.919C159.805 221.267 159.566 221.739 159.449 222.404C158.96 225.324 167.024 239.294 165.079 245.871L164.57 246.325C160.843 245.991 151.098 230.576 144.481 224.868C137.864 219.161 119.946 219.688 119.981 196.092C119.999 188.85 127.87 185.706 136.95 182.726C147.416 179.295 156.227 172.811 159.703 170.135Z" fill="#FCD836"/>
<path d="M312.576 167.994C313.254 165.79 313.679 163.331 314.765 161.288C315.312 160.24 315.765 159.547 316.997 159.513C318.795 160.555 319.483 163.753 319.949 165.701C320.818 169.277 317.379 180.628 320.574 182.642C323.77 184.656 343.127 167.509 349.236 164.95C350.654 164.352 352.168 163.619 353.716 163.711C354.035 163.997 354.131 163.964 354.191 164.429C354.665 168.433 346.156 178.784 343.306 182.05C342.187 183.327 337.099 186.996 337.136 188.71C337.779 189.68 338.963 189.874 340.046 190.068C345.765 191.055 364.439 189.226 368.475 192.177C368.656 192.554 368.863 192.732 368.74 193.167C368.254 194.84 365.384 196.085 363.949 196.787C359.076 199.184 354.142 200.651 348.893 201.746C346.722 202.198 344.372 202.433 342.266 203.12C341.35 203.423 340.008 204.018 339.527 204.953C339.235 205.543 339.304 206.014 339.564 206.565C340.723 208.966 353.916 215.047 355.905 220.894L355.767 221.493C352.852 223.186 337.671 216.915 329.838 216.158C322.004 215.401 309.102 225.105 296.86 207.735C293.108 202.399 297.262 195.995 302.39 189.083C308.302 181.118 311.411 171.77 312.576 167.994Z" fill="#95C2E3"/>
<path d="M392.208 150.087C392.651 147.823 392.816 145.333 393.682 143.188C394.116 142.088 394.494 141.351 395.715 141.189C397.612 142.036 398.633 145.145 399.3 147.033C400.539 150.497 398.31 162.147 401.699 163.815C405.088 165.482 422.54 146.399 428.347 143.213C429.694 142.47 431.123 141.582 432.672 141.511C433.019 141.762 433.111 141.72 433.219 142.175C434.111 146.108 426.735 157.294 424.243 160.841C423.264 162.229 418.59 166.411 418.806 168.112C419.547 169.009 420.745 169.077 421.842 169.157C427.634 169.539 446.012 165.761 450.336 168.272C450.555 168.628 450.78 168.783 450.703 169.229C450.395 170.944 447.671 172.482 446.319 173.332C441.723 176.227 436.971 178.203 431.865 179.843C429.754 180.52 427.442 181 425.419 181.904C424.541 182.302 423.268 183.034 422.888 184.014C422.659 184.632 422.777 185.093 423.094 185.613C424.498 187.879 438.256 192.543 440.848 198.15L440.773 198.76C438.052 200.749 422.297 196.105 414.427 196.174C406.558 196.243 394.745 207.246 380.748 191.257C376.457 186.344 379.916 179.539 384.291 172.128C389.335 163.587 391.446 153.964 392.208 150.087Z" fill="#027B72"/>
<path d="M230.479 178.669C231.532 176.39 232.349 173.8 233.819 171.755C234.562 170.705 235.152 170.023 236.484 170.167C238.272 171.552 238.548 175.103 238.765 177.271C239.181 181.254 233.816 192.996 236.969 195.634C240.121 198.272 263.501 182.602 270.463 180.734C272.079 180.295 273.819 179.726 275.476 180.051C275.777 180.406 275.886 180.385 275.883 180.894C275.81 185.283 265.122 195.205 261.572 198.311C260.179 199.526 254.156 202.741 253.946 204.595C254.498 205.734 255.747 206.117 256.886 206.484C262.911 208.383 283.318 209.135 287.241 212.907C287.381 213.34 287.578 213.561 287.382 214.013C286.613 215.746 283.337 216.67 281.687 217.219C276.081 219.093 270.546 219.955 264.724 220.371C262.317 220.541 259.748 220.452 257.377 220.885C256.345 221.079 254.811 221.524 254.155 222.462C253.754 223.056 253.76 223.575 253.96 224.206C254.859 226.965 268.201 235.449 269.494 242.046L269.257 242.671C265.867 244.072 250.408 235.094 242.07 233.135C233.732 231.175 218.4 239.758 207.731 219.238C204.463 212.935 209.877 206.635 216.417 199.928C223.955 192.2 228.672 182.571 230.479 178.669Z" fill="#B4E296"/>
</svg>
