<svg width="109" height="119" viewBox="0 0 109 119" fill="none" xmlns="http://www.w3.org/2000/svg">
<path d="M55.7383 118.983C48.9301 120.013 12.4057 73.0164 2.59801 43.6609C-2.53605 28.3154 1.09127 19.9958 3.6583 18.7715C6.22533 17.5471 18.056 22.7087 25.1572 35.1743C38.2016 58.0882 48.7627 95.8608 51.8878 94.7617C55.0129 93.6626 45.0796 52.1615 45.9306 24.6982C46.4328 8.21184 56.9381 -0.441745 59.1145 0.0173687C61.2909 0.476482 68.5037 12.3578 68.6991 27.9259C69.0339 54.9579 61.3886 92.0487 64.416 92.3409C67.4434 92.633 77.1396 56.9196 87.9657 34.1587C94.6205 20.1627 103.661 14.5142 105.893 14.9177C107.874 15.2655 111.362 26.8825 106.632 42.8958C97.4526 73.9763 72.7728 116.382 55.7383 118.969V118.983Z" fill="#B4E296"/>
</svg>
