<svg width="192" height="177" viewBox="0 0 192 177" fill="none" xmlns="http://www.w3.org/2000/svg">
<path d="M53.3973 182.974C42.9663 184.558 -12.993 112.286 -28.0196 67.1425C-35.8855 43.5439 -30.3281 30.7498 -26.3951 28.867C-22.4621 26.9843 -4.33623 34.9218 6.54358 54.0916C26.5291 89.329 42.7098 147.416 47.4978 145.726C52.2858 144.036 37.0669 80.2148 38.3707 37.9812C39.1402 12.6283 55.2355 -0.679322 58.57 0.0267098C61.9044 0.732741 72.9553 19.004 73.2545 42.9449C73.7675 84.5151 62.0541 141.554 66.6924 142.003C71.3308 142.453 86.1863 87.5318 102.773 52.5298C112.969 31.0065 126.82 22.3202 130.24 22.9406C133.275 23.4755 138.619 41.3402 131.373 65.9658C117.308 113.762 79.496 178.974 53.3973 182.953V182.974Z" fill="#B4E296"/>
<path d="M133 183C120.237 183 94.3635 138.216 83.5205 118.035C78.3227 108.351 74.3955 98.7969 79.1168 95.6798C80.7916 94.578 87.9097 96.0133 94.0603 105.292C105.207 122.124 117.508 152.265 119.255 151.279C121.955 149.742 117.017 136.868 113.278 120.616C108.946 101.711 110.116 78.1955 115.905 77.0212C121.695 75.8469 127.773 88.9239 130.084 107.293C132.841 129.228 130.791 155.657 135.238 155.759C137.707 155.817 135.556 121.036 139.31 99.0288C142.284 81.4865 151.308 75.6004 152.925 76.0208C154.542 76.4413 160.635 85.9083 159.552 102.059C158.108 123.69 144.117 152.758 148.983 153.511C153.849 154.265 163.782 118.963 175.65 99.1738C181.686 89.1123 187.706 85.9663 189.121 86.7202C190.334 87.3726 194.276 99.5942 190.19 111.221C180.256 139.536 151.972 183 133 183Z" fill="#027B72"/>
</svg>
