<svg width="127" height="178" viewBox="0 0 127 178" fill="none" xmlns="http://www.w3.org/2000/svg">
<path d="M41.3025 72.3594C43.6425 72.5981 46.1216 73.1775 48.4711 72.9673C49.672 72.8687 50.5027 72.7175 51.0209 71.5701C50.7524 69.4595 48.0179 67.5359 46.3708 66.3211C43.3536 64.0769 36.4988 61.4746 34.7169 59.7196C34.3674 59.377 34.1595 59.1139 34.1112 58.6285C34.0204 57.5199 34.7647 56.6066 35.5177 55.8403C37.3552 53.9718 40.0471 52.4928 42.2501 51.0377C47.9071 47.3229 53.8303 43.7462 58.6491 39.0053C59.7716 37.907 61.0586 36.7714 61.5842 35.2748C61.4409 34.8606 61.5097 34.783 61.0967 34.5416C57.5196 32.4988 44.4289 36.3981 40.2331 37.7838C38.59 38.3301 34.6503 40.1914 33.0542 39.4738C32.3967 38.4813 32.682 37.2875 32.9273 36.1895C34.2593 30.403 41.8372 14.998 40.6582 10.0166C40.3754 9.69608 40.2903 9.42997 39.8325 9.37249C38.0678 9.16465 35.7641 11.3746 34.5369 12.447C30.3581 16.0873 27.0299 20.1551 23.9264 24.6683C22.6445 26.5348 21.4947 28.6568 20.0172 30.3692C19.37 31.1116 18.2812 32.1402 17.2122 32.2213C16.5417 32.2617 16.126 32.0085 15.7118 31.5441C13.9127 29.4952 13.4089 14.6325 8.69892 10.427L8.08129 10.3188C5.3389 12.3925 3.83502 22.3253 3.34983 25.798C2.64787 30.8213 -14.6079 66.8102 -4.21656 76.7257C0.607945 81.3271 8.93206 75.6425 17.4671 73.5581C27.2896 71.1569 37.3052 71.9506 41.3142 72.3567L41.3025 72.3594Z" fill="#FFBFDA"/>
<path d="M38.7654 165.331C41.1054 165.57 43.5845 166.149 45.934 165.939C47.1349 165.84 47.9656 165.689 48.4838 164.542C48.2152 162.431 45.4808 160.508 43.8337 159.293C40.8165 157.049 33.9617 154.446 32.1798 152.691C31.8303 152.349 31.6223 152.086 31.5741 151.6C31.4833 150.492 32.2276 149.578 32.9806 148.812C34.8181 146.943 37.51 145.464 39.713 144.009C45.37 140.295 51.2931 136.718 56.112 131.977C57.2345 130.879 58.5215 129.743 59.0471 128.247C58.9038 127.832 58.9726 127.755 58.5596 127.513C54.9825 125.471 41.8918 129.37 37.696 130.756C36.0529 131.302 32.1132 133.163 30.5171 132.445C29.8596 131.453 30.1449 130.259 30.3902 129.161C31.7222 123.375 39.3001 107.97 38.121 102.988C37.8383 102.668 37.7532 102.402 37.2954 102.344C35.5307 102.136 33.227 104.346 31.9998 105.419C27.821 109.059 24.4928 113.127 21.3893 117.64C20.1074 119.506 18.9576 121.629 17.4801 123.341C16.8329 124.083 15.744 125.112 14.6751 125.193C14.0046 125.233 13.5889 124.98 13.1747 124.516C11.3756 122.467 10.8718 107.604 6.16181 103.399L5.54418 103.291C2.80179 105.364 1.29791 115.297 0.812722 118.77C0.110757 123.793 -17.145 159.782 -6.75367 169.697C-1.92916 174.299 6.39495 168.614 14.93 166.53C24.7525 164.129 34.7681 164.922 38.7771 165.328L38.7654 165.331Z" fill="#FCD836"/>
<path d="M62.3248 67.119C61.5747 65.0584 60.486 62.9503 60.1377 60.7781C59.9517 59.6698 59.8977 58.8841 60.8119 58.1522C62.773 57.9105 65.1299 59.9409 66.6001 61.151C69.3102 63.3634 73.2143 73.9438 76.7925 73.6378C80.3707 73.3319 85.2122 49.2251 88.3768 43.7805C89.1086 42.5136 89.8362 41.0894 91.063 40.2707C91.4685 40.3052 91.5227 40.2251 91.8344 40.5431C94.4914 43.3079 93.9767 56.0373 93.6893 60.1485C93.5735 61.7592 91.8207 67.4598 92.8317 68.7379C93.8754 69.1045 94.8847 68.5725 95.8168 68.0988C100.72 65.5662 113.831 53.4675 118.584 53.3898C118.937 53.5718 119.196 53.5876 119.353 53.9884C119.943 55.5359 118.481 58.1259 117.797 59.4815C115.476 64.0948 112.577 68.0373 109.225 71.8791C107.838 73.4664 106.191 74.993 104.988 76.7218C104.468 77.4773 103.791 78.6978 103.962 79.6827C104.079 80.2981 104.402 80.6158 104.915 80.8837C107.171 82.0397 120.663 79.0832 125.526 82.3756L125.765 82.9092C124.526 85.8644 109.418 89.8183 103.043 93.738C96.6694 97.6577 92.4523 112.416 73.2052 106.268C67.2994 104.374 66.7754 97.1361 66.6991 88.953C66.6132 79.5221 63.6076 70.65 62.3248 67.119Z" fill="#95C2E3"/>
</svg>
