<svg width="284" height="304" viewBox="0 0 284 304" fill="none" xmlns="http://www.w3.org/2000/svg">
<g filter="url(#filter0_d_719_9902)">
<path d="M17.3697 208.773C18.0295 209.387 18.3824 210.093 18.904 210.798C17.9374 211.458 13.2576 214.909 12.5364 214.94L12.4444 214.894C13.8867 212.731 15.6819 210.752 17.3697 208.773Z" fill="#E03102"/>
<path d="M208.66 144.071C209.887 143.55 211.084 143.013 212.281 142.399C215.994 148.796 218.618 155.392 220.704 162.525C217.237 163.445 215.15 163.138 211.682 162.939L211.606 162.878C211.237 157.095 210.087 149.762 208.66 144.163V144.087H208.675L208.66 144.071Z" fill="#29120D"/>
<path d="M220.689 162.509C221.134 164.887 221.748 167.219 222.147 169.596C222.898 174.029 223.113 178.585 223.021 183.08C221.855 183.08 220.674 183.31 219.508 183.356C216.331 183.479 213.447 182.819 210.424 181.883C211.866 176.376 211.744 168.599 211.667 162.908C215.135 163.123 217.221 163.414 220.689 162.494V162.509Z" fill="#EB6021"/>
<path d="M174.658 23.4871C178.77 22.3673 183.619 20.5726 186.825 17.6274C190.17 14.5595 191.244 10.4331 191.505 6C192.15 7.08911 192.733 8.20889 193.285 9.35936C193.822 10.5098 194.329 11.6756 194.773 12.8721C194.743 12.9335 194.712 12.9795 194.681 13.0409C194.375 13.6851 194.052 16.799 193.669 18.0262C191.582 24.6989 186.15 29.3928 179.936 31.8165C178.785 32.2613 177.573 32.7062 176.376 32.9976C175.072 33.3197 173.154 33.3504 171.988 33.964C170.208 33.3197 168.459 32.5681 166.648 32.0005C163.212 30.9268 159.544 30.3285 155.969 30.0677C159.621 27.9662 164.04 26.2022 167.032 23.1496C169.871 20.2658 170.561 16.5843 170.592 12.6267C173.43 15.8327 174.428 19.2227 174.658 23.4717V23.4871Z" fill="#F78004"/>
<path d="M171.988 33.964C173.154 33.3504 175.072 33.3197 176.376 32.9976C177.573 32.7062 178.785 32.2766 179.936 31.8165C186.15 29.3928 191.582 24.6989 193.669 18.0262C194.052 16.799 194.375 13.6698 194.681 13.0409C194.712 12.9795 194.743 12.9335 194.773 12.8721C196.293 17.0138 197.244 21.723 196.2 26.1101C197.121 26.3863 199.837 24.8523 200.712 24.3768C204.563 22.1986 207.079 19.5448 209.427 15.7713C211.928 22.5974 210.255 27.9662 207.478 34.3628C206.91 35.6513 206.327 36.9552 205.744 38.2284C211.483 37.6301 214.552 35.5746 218.265 31.0802C219.814 38.3511 216.316 45.1465 212.618 51.0983C212.158 51.8346 211.698 52.5555 211.191 53.2765C214.843 53.8134 217.59 53.5986 221.011 52.1414C220.167 55.9302 218.894 58.4613 215.626 60.5781C213.662 61.8513 211.513 62.6796 209.304 63.3546C213.032 64.8118 216.5 64.4897 220.336 63.7381C218.541 68.1558 214.766 71.1164 210.547 72.8958C209.381 73.3866 208.184 73.8161 207.002 74.261C205.637 66.4685 201.939 59.3663 197.29 53.1691C194.39 49.8404 191.567 46.343 188.038 43.7046C187.393 42.7536 184.417 41.0048 183.312 40.2992C180.887 37.7068 175.226 35.2985 172.003 33.964H171.988Z" fill="#F78004"/>
<path d="M171.988 33.964C173.154 33.3504 175.072 33.3197 176.376 32.9976C177.573 32.7062 178.785 32.2766 179.936 31.8165C186.15 29.3928 191.582 24.6989 193.669 18.0262C194.052 16.799 194.375 13.6698 194.681 13.0409C194.712 12.9795 194.743 12.9335 194.773 12.8721C196.293 17.0138 197.244 21.723 196.2 26.1101C194.666 31.0495 192.625 34.3782 189.419 38.3204C193.193 41.6951 198.088 43.2598 203.059 42.8916C205.084 42.7382 206.987 42.2627 208.874 41.5111C207.202 45.7448 204.164 48.7667 200.481 51.175C199.453 51.8499 198.226 52.4175 197.275 53.1845C194.375 49.8558 191.551 46.3583 188.022 43.7199C187.378 42.7689 184.401 41.0202 183.296 40.3146C180.872 37.7222 175.21 35.3139 171.988 33.9793V33.964Z" fill="#E03102"/>
<path d="M242.538 90.2908C246.466 92.8525 248.814 99.1417 250.655 100.323C251.1 100.2 251.269 100.077 251.561 99.694C252.512 98.4208 253.156 96.9175 254.062 95.6136C255.09 94.141 260.291 87.8212 261.918 88.5421C263.068 90.9504 258.388 99.5252 258.941 101.841C259.033 102.256 259.186 102.317 259.524 102.501C260.537 102.578 261.718 101.903 262.7 101.611C264.71 101.013 272.627 98.8043 273.978 100.108C274.039 100.492 273.978 100.676 273.747 100.998C272.29 103.253 268.5 105.814 266.229 107.379C265.339 107.993 264.326 108.56 263.544 109.312C263.16 109.68 262.93 109.987 262.946 110.554C263.789 112.733 272.658 115.034 272.228 117.166C270.142 118.623 256.946 117.595 252.374 119.773C248.768 121.491 245.837 127.949 243.612 131.309C242.354 133.226 240.943 135.021 239.408 136.708C237.475 138.779 235.941 140.16 233.117 140.681C227.486 141.709 221.41 141.249 215.748 140.681C214.153 140.512 212.541 140.175 210.946 140.098C209.335 139.086 207.785 136.923 206.511 135.496C204.716 133.38 202.89 131.293 201.064 129.192C200.727 128.348 200.082 127.489 199.653 126.676C198.717 124.912 197.858 123.01 197.167 121.123C196.922 120.448 196.369 119.083 196.661 118.408C200.082 119.559 203.412 120.955 206.818 122.151C213.201 124.391 219.922 126.339 226.535 127.704C228.683 126.477 230.739 125.158 232.688 123.608C236.278 120.77 242.308 115.003 243.505 110.462C244.242 107.655 243.444 104.219 243.106 101.381C242.692 97.8532 242.124 93.8803 242.492 90.3368L242.538 90.2908Z" fill="url(#paint0_linear_719_9902)"/>
<path d="M253.478 107.379C254.399 107.318 255.228 107.272 256.118 107.609C256.915 107.931 257.698 108.514 258.02 109.373C258.235 109.941 258.22 110.554 257.974 111.107C257.468 112.272 256.332 112.748 255.243 113.116C254.138 113.269 253.08 113.223 252.067 112.717C251.3 112.334 250.594 111.689 250.348 110.815C250.195 110.248 250.241 109.649 250.532 109.143C251.146 108.023 252.343 107.671 253.478 107.364V107.379Z" fill="#EB6021"/>
<path d="M129.072 148.274C123.794 150.683 118.515 152.079 112.9 153.352C109.662 154.088 104.23 155.453 101.008 154.962C95.4231 154.119 87.5517 143.857 84.4063 139.132C81.982 135.496 79.9413 131.278 76.4122 128.64C71.9779 125.326 65.687 124.559 60.5929 122.611C58.8283 121.936 53.811 119.973 53.0591 118.285L53.1972 117.979C55.9591 116 63.7997 117.503 65.0732 116.813C65.3648 116.644 65.5489 116.46 65.6103 116.107C65.7023 115.54 65.288 114.849 64.9812 114.42C64.26 113.438 63.2934 112.579 62.4648 111.689C60.4701 109.511 58.7363 107.287 57.3247 104.664C56.9104 103.882 56.0204 102.409 56.3427 101.519C56.4194 101.289 56.5728 101.274 56.7723 101.167C59.5188 101.136 66.6843 106.95 69.5536 108.345C70.106 108.606 70.689 108.898 71.2874 108.668C71.8551 107.916 71.3335 105.63 71.2567 104.695C71.0266 102.317 70.5509 94.9847 72.0393 93.3434C72.208 93.144 72.2387 93.19 72.4842 93.1747C73.2054 93.6195 73.6504 94.4325 74.0953 95.1535C75.9979 98.252 77.1641 101.795 78.4376 105.201C78.9286 106.535 79.3889 108.115 80.1561 109.312C80.463 109.803 80.8619 110.294 81.445 110.386C81.7058 110.416 81.8592 110.34 82.0894 110.202C83.2248 109.481 85.4036 106.183 86.9227 104.863C87.7512 104.142 89.0861 102.946 90.2215 103.053C90.7586 103.467 90.7432 103.912 90.6512 104.557C90.4824 105.814 89.884 107.042 89.4851 108.253C88.1962 112.088 85.9867 117.948 86.8306 121.982C88.0581 127.842 99.0442 136.448 104.046 139.623C105.427 139.316 106.793 138.948 108.143 138.549C109.493 138.15 110.843 137.69 112.178 137.199C113.513 136.708 114.818 136.171 116.122 135.589C117.411 135.006 118.699 134.392 119.958 133.732C122.98 132.152 125.896 130.373 128.903 128.762C129.041 130.235 128.903 131.769 128.872 133.257C128.811 135.343 128.811 137.414 128.826 139.5C128.857 141.372 128.918 143.243 129.01 145.114C129.056 146.127 129.241 147.323 129.102 148.305L129.072 148.274Z" fill="#29120D"/>
<path d="M73.6043 114.313C74.7091 114.221 75.7371 114.389 76.7038 114.926C77.7778 115.524 78.6831 116.506 79.0053 117.749C79.2048 118.531 79.1587 119.39 78.7291 120.096C78.1307 121.062 77.2101 121.415 76.1821 121.63C75.1234 121.676 74.1414 121.522 73.1747 121.031C72.0546 120.464 71.0266 119.467 70.643 118.209C70.4282 117.488 70.4282 116.69 70.7964 116.031C71.3948 114.957 72.4842 114.604 73.5736 114.313H73.6043Z" fill="#EB6021"/>
<path d="M195.08 113.653C195.311 114.819 195.663 117.503 196.507 118.316L196.691 118.378C196.4 119.052 196.952 120.418 197.198 121.093C197.888 122.979 198.748 124.881 199.683 126.646C200.113 127.459 200.758 128.318 201.095 129.161C202.906 131.263 204.747 133.349 206.542 135.466C207.816 136.892 209.365 139.055 210.976 140.068C211.421 140.835 211.882 141.602 212.296 142.384C211.115 142.997 209.902 143.534 208.675 144.056V144.133C210.087 149.732 211.237 157.064 211.606 162.847L211.682 162.908C211.759 168.599 211.882 176.376 210.439 181.883C209.611 187.007 207.647 192.314 205.575 197.039C204.992 198.358 203.611 200.199 203.366 201.518H203.289C202.691 198.665 198.671 195.045 196.4 193.526C191.521 190.259 185.721 188.74 179.982 190.029C173.108 191.563 166.679 197.192 163.043 203.282C162.966 203.405 162.905 203.512 162.843 203.635C162.506 203.512 159.314 199.34 158.624 198.665C155.939 196.042 152.947 194.416 149.402 193.357C147.96 193.403 146.502 193.388 145.06 193.495C144.554 192.912 144.124 191.977 143.725 191.286C141.807 187.958 140.181 184.552 138.554 181.086C135.884 175.548 133.859 169.52 132.171 163.599C131.174 160.162 129.225 152.661 129.302 149.133L129.056 148.274C129.195 147.277 129.01 146.081 128.964 145.084C128.872 143.212 128.811 141.341 128.78 139.469C128.75 137.383 128.78 135.312 128.826 133.226C128.857 131.738 128.995 130.204 128.857 128.732C128.826 127.443 129.102 125.971 129.256 124.682C129.624 125.357 130.974 125.618 131.696 125.833C133.123 126.231 134.565 126.553 136.022 126.83C137.48 127.09 138.938 127.29 140.411 127.428C141.884 127.566 144.615 127.382 145.842 127.811H145.888C154.205 127.75 162.199 126.431 170.27 124.406C172.234 123.915 174.765 123.409 176.514 122.366V122.304C177.803 121.599 179.353 121.231 180.734 120.724C182.744 120.004 184.723 119.191 186.672 118.301C189.587 116.966 192.165 114.972 195.065 113.653H195.08Z" fill="#F78004"/>
<path d="M206.527 135.466C207.8 136.892 209.35 139.055 210.961 140.068C211.406 140.835 211.866 141.602 212.281 142.384C211.099 142.997 209.887 143.534 208.66 144.056C208.107 141.51 206.527 137.935 206.527 135.45V135.466Z" fill="#EB6021"/>
<path d="M195.08 113.653C195.311 114.819 195.663 117.503 196.507 118.316L196.691 118.378C196.4 119.052 196.952 120.418 197.198 121.093C197.888 122.979 198.748 124.881 199.683 126.646C200.113 127.459 200.758 128.318 201.08 129.161C193.224 132.275 187.823 127.566 181.041 124.176C179.675 123.486 178.034 122.657 176.545 122.366V122.304C177.834 121.599 179.384 121.231 180.765 120.724C182.775 120.004 184.754 119.191 186.703 118.301C189.618 116.966 192.196 114.972 195.096 113.653H195.08Z" fill="#2D2423"/>
<path d="M129.271 124.682C129.64 125.357 130.99 125.618 131.711 125.833C133.138 126.231 134.58 126.553 136.038 126.83C137.495 127.09 138.953 127.29 140.426 127.428C141.899 127.566 144.63 127.382 145.858 127.811C144.308 129.744 142.62 131.539 141.132 133.533C138.646 136.877 132.125 147.293 129.317 149.133L129.072 148.274C129.21 147.277 129.026 146.081 128.98 145.084C128.888 143.212 128.826 141.341 128.796 139.469C128.765 137.383 128.796 135.312 128.842 133.226C128.872 131.738 129.01 130.204 128.872 128.732C128.842 127.443 129.118 125.971 129.271 124.682Z" fill="#2D2423"/>
<path d="M132.187 163.583C134.734 162.111 137.035 160.561 139.03 158.352C146.272 150.33 149.264 136.401 160.296 132.551C171.528 128.624 180.657 137.981 189.986 142.675C196.323 145.866 201.939 146.526 208.629 144.148C210.056 149.747 211.207 157.079 211.575 162.862C206.327 161.773 201.74 159.718 197.321 156.604C194.605 154.702 191.966 152.646 189.096 151.005C180.166 145.881 169.717 144.884 160.971 150.882C157.028 153.582 153.929 157.585 151.919 161.988C148.451 169.596 147.791 178.248 138.57 181.086C135.9 175.548 133.874 169.52 132.187 163.599V163.583Z" fill="#2D2423"/>
<path d="M138.585 181.07C147.806 178.232 148.466 169.581 151.934 161.973C153.944 157.57 157.043 153.566 160.987 150.867C169.733 144.869 180.182 145.881 189.112 150.989C191.981 152.631 194.62 154.686 197.336 156.588C201.77 159.687 206.343 161.758 211.59 162.847L211.667 162.908C211.744 168.599 211.866 176.376 210.424 181.883C209.595 187.007 207.632 192.314 205.56 197.039C204.977 198.358 203.596 200.199 203.351 201.518H203.274C202.675 198.665 198.655 195.045 196.385 193.526C191.505 190.259 185.705 188.74 179.967 190.029C173.093 191.563 166.664 197.192 163.027 203.282C162.951 203.405 162.889 203.512 162.828 203.635C162.49 203.512 159.299 199.34 158.608 198.665C155.923 196.042 152.931 194.416 149.387 193.357C147.945 193.403 146.487 193.388 145.045 193.495C144.538 192.912 144.109 191.977 143.71 191.286C141.792 187.958 140.165 184.552 138.539 181.086L138.585 181.07Z" fill="#FCD836"/>
<path d="M149.418 193.357C151.504 191.992 153.637 190.995 155.417 189.17C162.199 182.19 161.324 172.833 171.206 167.986C179.184 164.074 186.703 166.237 193.684 171.192C196.4 173.124 198.886 175.349 201.632 177.251C204.409 179.168 207.294 180.733 210.455 181.899C209.626 187.022 207.662 192.329 205.591 197.054C205.008 198.373 203.627 200.214 203.381 201.533H203.305C202.706 198.68 198.686 195.06 196.415 193.541C191.536 190.274 185.736 188.755 179.998 190.044C173.124 191.578 166.695 197.207 163.058 203.297C162.981 203.42 162.92 203.527 162.859 203.65C162.521 203.527 159.33 199.355 158.639 198.68C155.954 196.057 152.962 194.431 149.418 193.373V193.357Z" fill="#2D2423"/>
<path d="M144.646 29.9757C147.208 29.5769 150.123 29.8377 152.716 29.9757C153.79 30.0371 154.895 30.1598 155.969 30.0524C159.544 30.3132 163.212 30.8961 166.648 31.9852C168.459 32.5528 170.208 33.3044 171.988 33.9487C175.226 35.2985 180.872 37.6915 183.296 40.2839C184.401 40.9895 187.378 42.7382 188.022 43.6893C191.551 46.343 194.39 49.8251 197.275 53.1538C201.924 59.3509 205.621 66.4532 206.987 74.2456C207.662 78.0805 207.862 82.1609 207.355 86.0418C206.895 91.0885 205.038 95.5523 202.752 99.9701C201.003 103.621 197.259 107.41 194.329 110.017C194.559 111.229 194.804 112.441 195.065 113.638C192.18 114.957 189.603 116.951 186.672 118.285C184.723 119.175 182.744 119.988 180.734 120.709C179.353 121.2 177.803 121.583 176.514 122.289V122.35C174.765 123.394 172.234 123.9 170.27 124.391C162.199 126.415 154.205 127.735 145.888 127.811H145.842C144.615 127.382 141.899 127.566 140.411 127.428C138.938 127.29 137.48 127.09 136.022 126.83C134.565 126.569 133.123 126.231 131.696 125.833C130.959 125.618 129.624 125.357 129.256 124.682C129.455 122.627 129.824 120.617 130.269 118.623C129.225 118.04 126.371 117.641 125.067 117.304C124.192 117.074 123.349 116.767 122.505 116.445C112.316 112.733 102.589 106.873 95.776 98.0219C91.2956 92.1929 87.3676 84.4771 88.2882 76.8074C89.0708 70.288 93.8887 64.7965 98.6759 60.9002C98.3997 59.6117 98.369 58.2005 98.4918 56.8966C98.86 52.847 100.993 48.8587 104.031 46.2663C106.67 44.0267 109.923 42.8456 113.344 43.1831C115.232 41.8178 116.996 40.2685 118.914 38.934C127.43 32.9823 134.58 30.9268 144.646 29.9757Z" fill="#2D2423"/>
<path d="M109.923 71.8987C110.061 71.8987 110.199 71.8987 110.337 71.8987C112.071 72.0061 113.344 72.9725 114.465 74.2763C114.864 74.7365 115.37 75.3041 115.339 75.9483L115.063 76.1017C114.802 76.0557 114.541 75.9944 114.296 75.9177C112.731 75.4421 110.322 74.3684 109.539 72.8344C109.524 72.2975 109.601 72.2822 109.908 71.8834L109.923 71.8987Z" fill="black"/>
<path d="M141.914 80.6576C143.004 80.6116 144.293 80.5349 145.305 81.0257C145.658 81.1945 145.796 81.3172 145.935 81.6853L145.75 82.0228C144.784 82.6824 143.756 82.7284 142.62 82.8665C141.592 82.8665 139.122 83.1886 138.355 82.4983L138.385 82.1915C139.26 81.2098 140.687 80.903 141.914 80.6422V80.6576Z" fill="black"/>
<path d="M188.022 43.7046C191.551 46.3584 194.39 49.8404 197.275 53.1691C201.924 59.3663 205.621 66.4685 206.987 74.261C207.662 78.0959 207.862 82.1762 207.355 86.0571C205.836 81.762 204.471 77.7737 202.046 73.8775C201.74 73.2026 201.249 72.5583 200.85 71.9294C201.156 70.5181 200.497 68.616 200.144 67.2508C198.517 61.0536 196.262 55.0866 192.733 49.7484C191.935 48.5519 191.03 47.4014 190.109 46.297C189.48 45.5607 188.59 44.7477 188.13 43.904C188.099 43.8427 188.053 43.766 188.022 43.7046Z" fill="#29120D"/>
<path d="M105.719 83.0812C103.755 81.67 97.2643 77.9271 96.7426 75.7949C96.8961 75.4115 96.9574 75.3654 97.2796 75.12C97.9241 75.1967 100.533 77.8811 101.422 78.51C104.123 80.4275 106.931 82.0075 109.938 83.3573C120.433 88.0359 132.156 90.5209 143.495 91.5947C153.606 92.5611 164.009 92.3156 173.829 89.4778C174.643 89.2477 175.333 88.6341 176.008 89.3551C176.085 89.6772 176.131 89.7999 175.901 90.0914C175.471 90.5976 174.673 90.751 174.121 91.0731C174.075 91.0885 174.029 91.1038 173.983 91.1191C169.963 92.423 165.743 93.0059 161.554 93.3741C144.216 94.908 121.2 91.5026 105.688 83.0812H105.719Z" fill="#29120D"/>
<path d="M187.731 61.161C193.3 63.2165 197.275 67.2355 200.865 71.9294C201.264 72.5583 201.755 73.2026 202.062 73.8775C204.486 77.7737 205.852 81.762 207.371 86.0571C206.91 91.1038 205.054 95.5676 202.768 99.9854C202.338 96.3806 201.141 92.6224 199.898 89.2324L199.852 89.0943C196.998 82.8971 193.73 78.7555 188.483 74.5524C189.787 71.1471 190.048 67.6496 188.882 64.1369C188.575 63.2165 188.007 62.3115 187.792 61.3758C187.777 61.3144 187.761 61.2377 187.746 61.1764L187.731 61.161Z" fill="#FCD836"/>
<path d="M202.046 73.8775C204.471 77.7737 205.836 81.762 207.355 86.0571C206.895 91.1038 205.038 95.5676 202.752 99.9854C202.323 96.3806 201.126 92.6224 199.883 89.2324L199.837 89.0943C200.297 88.3427 200.573 87.4223 200.865 86.5786C202.307 82.3296 202.43 78.326 202.062 73.8928L202.046 73.8775Z" fill="#EAA712"/>
<path d="M113.36 43.1831C115.83 44.0728 117.994 45.0698 119.236 47.6622C120.357 49.9938 120.234 53.4145 119.405 55.8228C119.313 56.099 119.206 56.3291 119.037 56.5745C118.301 59.1209 116.275 62.5876 113.882 63.8301C113.713 63.9221 113.529 63.9835 113.329 64.0295C113.406 64.1676 113.375 64.0755 113.329 64.3363C112.148 65.5021 110.445 66.4225 108.864 66.8673C106.701 67.4809 104.307 67.4502 102.343 66.2537C100.348 65.0419 99.2897 63.1091 98.7066 60.8696C98.4304 59.581 98.3997 58.1698 98.5225 56.8659C98.8907 52.8163 101.024 48.828 104.062 46.2356C106.701 43.9961 109.954 42.8149 113.375 43.1524L113.36 43.1831Z" fill="#EB6021"/>
<path d="M111.411 44.3182C112.316 44.1341 113.16 44.3489 114.05 44.5176C113.053 44.7784 112.086 45.1312 111.196 45.6374C106.041 48.5519 103.893 53.9361 102.343 59.443L102.113 59.9032L101.852 59.9492C101.146 59.397 100.87 57.9857 100.717 57.096C100.272 54.4576 101.146 51.988 102.619 49.8251C104.767 46.6651 107.805 44.9624 111.442 44.3182H111.411Z" fill="#EAA712"/>
<path d="M111.427 49.3956C112.485 48.8127 114.112 48.9354 115.232 49.2882C116.597 49.7177 117.656 50.6994 118.27 52.034C118.945 53.4606 119.068 55.0252 119.022 56.5898C118.285 59.1362 116.26 62.6029 113.866 63.8454C113.697 63.9375 113.513 63.9988 113.329 64.0448C112.194 64.321 110.951 64.3056 109.877 63.8148C108.711 63.2779 107.897 62.2348 107.483 60.9923C106.517 58.1084 107.529 54.7798 108.726 52.1414C108.818 51.7732 108.926 51.4204 109.079 51.0829C109.524 50.0552 110.46 49.7484 111.411 49.3956H111.427Z" fill="black"/>
<path d="M111.427 49.3956C112.056 49.595 112.547 49.733 112.9 50.362C113.237 50.9602 113.252 51.6658 113.038 52.3101C112.792 53.0464 112.286 53.7367 111.595 54.0741C111.12 54.3042 110.583 54.3349 110.107 54.1202C109.37 53.7827 109.033 53.0464 108.787 52.3101C108.772 52.2641 108.757 52.2181 108.741 52.172C108.833 51.8039 108.941 51.4511 109.094 51.1136C109.539 50.0859 110.475 49.7791 111.427 49.4263V49.3956Z" fill="#FEFEFE"/>
<path d="M105.719 83.0812C121.216 91.5026 144.247 94.908 161.585 93.3741C165.774 93.0059 169.993 92.423 174.013 91.1191C174.06 91.1191 174.106 91.0885 174.152 91.0731C173.139 93.2667 171.298 95.583 169.548 97.1936C167.538 97.1629 165.467 97.4851 163.472 97.6231C160.327 97.8532 157.105 97.9606 153.959 97.8532C150.261 97.7305 146.564 97.4851 142.866 97.1016C133.92 96.1812 125.804 94.5092 117.088 98.1907C115.493 98.8656 113.559 99.74 112.301 100.998C112.27 101.028 112.24 101.059 112.209 101.09C112.178 101.059 112.148 101.044 112.117 101.013C107.683 96.3039 105.811 89.4932 105.734 83.0812H105.719Z" fill="#EE5315"/>
<path d="M112.194 101.09C112.194 101.09 112.255 101.028 112.286 100.998C113.544 99.74 115.477 98.8656 117.073 98.1907C125.788 94.5245 133.905 96.1965 142.85 97.1016C146.533 97.4851 150.231 97.7305 153.944 97.8532C157.089 97.9606 160.312 97.8532 163.457 97.6231C165.467 97.4697 167.538 97.1629 169.533 97.1936C160.68 105.952 148.758 111.981 136.299 111.736C127.016 111.567 118.653 107.993 112.178 101.09H112.194Z" fill="#FED8C5"/>
<path d="M144.661 29.9757C147.223 29.5769 150.139 29.8377 152.732 29.9757C153.806 30.0371 154.911 30.1598 155.985 30.0524C159.56 30.3132 163.227 30.8961 166.664 31.9852C168.474 32.5528 170.224 33.3044 172.003 33.9487C175.241 35.2985 180.887 37.6915 183.312 40.2839C180.857 39.5476 178.386 39.3022 175.824 39.3328C161.508 39.4402 147.346 47.248 136.667 56.6205C133.629 59.2742 130.898 62.2655 128.105 65.1953C130.054 51.8959 136.115 40.0231 144.661 29.9911V29.9757Z" fill="#FCD836"/>
<path d="M188.467 74.5524C187.669 76.4239 186.611 78.1112 185.153 79.5071C182.468 82.0842 178.969 83.342 175.333 83.2039C171.236 83.0352 167.462 80.995 164.731 77.8658C162.061 74.8132 160.726 70.9783 160.956 66.8827C161.186 63.1398 163.027 59.397 165.759 56.9426C168.643 54.3349 172.448 53.2151 176.238 53.5373C179.721 53.8287 183.066 55.424 185.399 58.1238C186.196 59.0442 186.81 60.1026 187.593 61.023L187.731 61.1764C187.731 61.1764 187.761 61.3144 187.777 61.3758C187.992 62.3115 188.559 63.2165 188.866 64.1369C190.032 67.665 189.771 71.1471 188.467 74.5524Z" fill="#F78004"/>
<path d="M169.257 60.6701C170.883 60.5168 172.433 60.7622 173.845 61.6672C175.425 62.695 176.407 64.3516 176.852 66.2077C177.374 68.4013 177.236 71.009 176.039 72.9571C174.965 74.7058 173.461 75.4421 171.558 75.841C169.993 75.8716 168.582 75.6876 167.186 74.9052C167.078 74.8439 166.971 74.7825 166.863 74.7058C166.756 74.6445 166.649 74.5678 166.541 74.4911C166.434 74.4144 166.342 74.3377 166.234 74.261C166.142 74.1843 166.035 74.1076 165.943 74.0156C165.851 73.9389 165.759 73.8468 165.667 73.7548C165.574 73.6627 165.482 73.5707 165.39 73.4787C165.298 73.3866 165.222 73.2946 165.129 73.2026C165.053 73.1105 164.961 73.0032 164.884 72.9111C164.807 72.8037 164.731 72.7117 164.654 72.6043C164.577 72.4969 164.516 72.3896 164.439 72.2822C164.362 72.1748 164.301 72.0674 164.24 71.9447C164.178 71.8373 164.117 71.7146 164.055 71.6073C163.994 71.4999 163.948 71.3772 163.887 71.2544C163.841 71.1317 163.779 71.0244 163.733 70.9016C163.687 70.7789 163.641 70.6562 163.61 70.5335C163.564 70.4108 163.534 70.288 163.503 70.1653C162.951 68.1865 163.135 65.9776 164.163 64.1982C165.329 62.1581 167.093 61.207 169.242 60.6548L169.257 60.6701Z" fill="black"/>
<path d="M167.492 61.6979C167.937 61.6672 168.459 61.6519 168.889 61.8053C169.518 62.0354 170.009 62.5416 170.285 63.1705C170.607 63.9068 170.592 64.7351 170.285 65.4714C169.963 66.2691 169.41 66.6526 168.659 66.99C168.244 67.0361 167.769 67.0361 167.385 66.9133C166.771 66.6986 166.219 66.1924 165.927 65.5941C165.574 64.8885 165.559 64.0755 165.82 63.3239C166.111 62.4802 166.771 62.0967 167.508 61.7132L167.492 61.6979Z" fill="#FEFEFE"/>
<path d="M199.883 89.2324C201.126 92.6224 202.323 96.3806 202.752 99.9854C201.003 103.636 197.259 107.425 194.329 110.033C194.559 111.245 194.804 112.456 195.065 113.653C192.18 114.972 189.603 116.966 186.672 118.301C184.723 119.191 182.744 120.004 180.734 120.724C179.353 121.215 177.803 121.599 176.514 122.304V122.366C174.765 123.409 172.234 123.915 170.27 124.406C162.199 126.431 154.205 127.75 145.888 127.827H145.842C144.615 127.397 141.899 127.581 140.411 127.443C138.938 127.305 137.48 127.106 136.022 126.845C134.565 126.584 133.123 126.247 131.696 125.848C130.959 125.633 129.624 125.372 129.256 124.697C129.455 122.642 129.824 120.632 130.269 118.638C130.499 118.47 130.622 118.439 130.913 118.424C132.11 118.362 133.429 118.669 134.626 118.838C136.022 119.022 137.434 119.145 138.846 119.237C140.472 119.313 142.099 119.344 143.725 119.329C145.351 119.313 146.978 119.252 148.604 119.129C150.231 119.022 151.857 118.853 153.468 118.638C155.079 118.424 156.69 118.178 158.302 117.871C171.988 115.294 185.368 109.036 194.359 97.7458C196.661 94.862 197.812 92.2696 199.76 89.4011L199.868 89.2477L199.883 89.2324Z" fill="#29120D"/>
<path d="M174.274 121.399C175.011 121.737 175.778 122.013 176.53 122.304V122.366C174.781 123.409 172.249 123.915 170.285 124.406C162.214 126.431 154.22 127.75 145.904 127.827L148.098 125.311C156.798 125.311 165.943 124.053 174.274 121.415V121.399Z" fill="#E03102"/>
<path d="M210.424 181.899C213.447 182.834 216.331 183.494 219.508 183.371C220.674 183.325 221.87 183.095 223.021 183.095C222.868 186.746 222.607 190.32 221.947 193.925C229.88 198.879 239.362 207.378 241.633 217.072C242.692 221.582 241.28 226.015 238.979 229.85C235.956 234.835 231.997 239.222 228.192 243.579C226.566 245.45 224.663 247.322 223.313 249.423C221.702 251.939 220.858 255.36 219.738 258.167C217.712 263.275 215.564 268.475 213.155 273.399C211.974 270.607 210.9 267.708 209.503 265.024C206.419 266.757 203.259 268.352 200.128 270.009C201.064 265.637 202.568 261.403 203.642 257.062C200.405 257.185 197.167 257.369 193.945 257.645C195.955 253.964 198.533 250.742 200.788 247.23C198.625 245.834 196.262 244.423 194.313 242.705C197.029 242.03 199.683 241.109 202.369 240.281C204.271 239.683 206.297 239.176 208.122 238.379C214.398 235.648 221.993 230.019 225.522 224.036C225.645 223.822 225.768 223.607 225.891 223.377C223.144 220.907 217.482 218.637 214.091 217.072C211.421 221.413 208.736 225.57 205.437 229.436C195.418 241.186 181.102 249.347 166.971 254.623C163.165 256.035 159.268 257.17 155.402 258.351C156.706 266.128 160.388 272.647 165.897 278.078C167.6 279.75 169.456 281.207 171.206 282.817L160.618 284.183C161.401 286.882 162.26 289.567 162.874 292.313C159.314 290.564 155.601 289.061 152.149 287.082C151.566 288.447 149.832 293.248 149.049 294C148.788 293.739 148.528 293.478 148.282 293.202C142.728 285.64 140.242 276.927 139.045 267.631C138.815 265.545 138.662 263.459 138.539 261.373C137.894 261.449 137.25 261.511 136.606 261.557C114.112 263.536 92.4157 253.872 76.2128 238.072C70.8578 232.857 66.5462 226.598 60.8997 221.705C46.7068 209.387 27.696 212.716 13.0121 222.134C11.9227 222.825 6.33756 227.135 6 227.166L6.04603 226.874C6.95131 223.208 10.02 217.87 12.429 214.955L12.5211 215.001C13.2269 214.971 17.9221 211.519 18.8887 210.86C18.3517 210.139 18.0141 209.448 17.3543 208.835L18.275 207.807C22.1723 203.834 26.2844 200.061 31.2557 197.56C41.1678 191.455 53.5348 190.918 64.5976 193.235C68.9552 194.6 73.1287 196.103 77.1641 198.281C81.1688 200.367 86.002 203.236 89.3776 206.258C92.4924 208.773 95.5458 211.335 98.5685 213.989C101.284 216.397 104.046 218.407 107.084 220.339C111.135 222.702 115.262 224.451 119.85 225.386C123.195 226.092 126.509 226.291 129.916 226.245C131.312 225.969 132.77 225.923 134.181 225.678C137.818 225.049 141.224 223.883 144.569 222.303C145.842 221.505 147.07 220.662 148.282 219.772C150.261 218.131 152.195 216.244 153.238 213.805C154.343 211.258 154.036 209.28 153.1 206.764C150.829 202.101 147.592 198.051 145.045 193.557C146.472 193.449 147.945 193.48 149.387 193.419C152.931 194.477 155.923 196.103 158.608 198.726C159.299 199.401 162.49 203.573 162.828 203.696C162.889 203.573 162.951 203.451 163.027 203.343C166.664 197.253 173.093 191.624 179.967 190.09C185.705 188.817 191.505 190.32 196.385 193.587C198.655 195.106 202.675 198.726 203.274 201.579H203.351C203.596 200.275 204.977 198.45 205.56 197.115C207.616 192.391 209.595 187.068 210.424 181.96V181.899Z" fill="#29120D"/>
<path d="M203.289 201.518H203.366C205.698 207.04 205.529 213.13 203.443 218.714C201.202 224.681 197.198 228.945 191.551 231.507C193.162 226.843 194.375 223.07 193.362 218.1C197.106 212.808 200.036 207.117 203.289 201.518Z" fill="#EB6021"/>
<path d="M139.076 267.585C144.615 267.723 150.384 267.754 155.202 271.021C157.626 272.663 159.775 274.856 161.953 276.82C163.595 278.308 165.452 279.535 167.078 281.007C166.158 281.774 160.051 282.265 158.44 282.71C158.854 284.689 159.314 286.683 159.698 288.677C158.654 288.14 152.225 284.628 151.719 284.72L151.489 284.612C150.123 286.591 149.617 291.668 148.313 293.141C142.758 285.579 140.273 276.866 139.076 267.57V267.585Z" fill="#2D2423"/>
<path d="M162.843 203.635C162.905 203.512 162.966 203.389 163.043 203.282C166.679 197.192 173.108 191.563 179.982 190.029C185.721 188.755 191.521 190.259 196.4 193.526C198.671 195.045 202.691 198.665 203.289 201.518C200.021 207.117 197.106 212.808 193.362 218.1C192.84 216.658 192.18 215.277 191.321 214.004C191.198 213.82 191.06 213.621 190.922 213.437C190.784 213.253 190.646 213.069 190.493 212.9C190.355 212.716 190.201 212.547 190.048 212.378C189.894 212.21 189.741 212.041 189.572 211.887C189.403 211.719 189.25 211.565 189.081 211.412C188.912 211.258 188.743 211.105 188.559 210.967C188.375 210.829 188.206 210.691 188.022 210.553C187.838 210.415 187.654 210.292 187.47 210.169C187.286 210.047 187.086 209.924 186.887 209.801C186.687 209.679 186.488 209.571 186.288 209.464C186.089 209.356 185.889 209.264 185.675 209.157C185.46 209.05 185.26 208.973 185.046 208.896C184.831 208.82 184.631 208.727 184.417 208.666C184.202 208.589 183.987 208.528 183.772 208.467C183.557 208.405 183.342 208.344 183.112 208.298C182.897 208.252 182.667 208.206 182.453 208.16C176.484 207.147 171.252 210.783 166.618 214.158C166.25 210.323 164.838 206.856 162.828 203.65L162.843 203.635Z" fill="#FCD836"/>
<path d="M31.2711 197.499C41.1831 191.394 53.5501 190.857 64.6129 193.173C68.9705 194.538 73.144 196.042 77.1794 198.22C81.1841 200.306 86.0174 203.175 89.393 206.196C92.5078 208.712 95.5611 211.289 98.5839 213.928C101.3 216.336 104.062 218.345 107.1 220.278C111.15 222.64 115.278 224.389 119.866 225.325C123.21 226.03 126.525 226.23 129.931 226.184C131.327 225.908 132.785 225.862 134.197 225.616C137.833 224.987 141.239 223.822 144.584 222.242C145.858 221.444 147.085 220.6 148.297 219.711C150.277 218.069 152.21 216.182 153.253 213.743C154.358 211.197 154.051 209.218 153.115 206.703C150.844 202.039 147.607 197.99 145.06 193.495C146.487 193.388 147.96 193.419 149.402 193.357C152.947 194.416 155.939 196.042 158.624 198.665C159.314 199.34 162.506 203.512 162.843 203.635C164.853 206.841 166.265 210.323 166.633 214.142C166.664 215.676 166.863 217.195 166.802 218.744C166.602 223.269 164.531 227.626 161.524 230.878C153.438 239.606 138.033 244.192 126.509 244.407C125.911 244.423 125.313 244.438 124.714 244.423C124.116 244.423 123.517 244.423 122.919 244.392C122.321 244.377 121.722 244.346 121.124 244.3C120.525 244.254 119.927 244.208 119.329 244.146C118.73 244.085 118.132 244.008 117.549 243.932C116.95 243.855 116.367 243.763 115.769 243.671C115.17 243.579 114.587 243.472 114.004 243.349C113.421 243.226 112.823 243.103 112.24 242.965C111.657 242.827 111.074 242.689 110.491 242.52C109.908 242.367 109.34 242.198 108.757 242.03C108.189 241.861 107.606 241.677 107.038 241.477C106.471 241.278 105.903 241.079 105.335 240.864C104.767 240.649 104.215 240.434 103.663 240.204C103.11 239.974 102.558 239.729 102.006 239.483C101.453 239.238 100.916 238.977 100.364 238.716C99.8267 238.456 99.2897 238.179 98.7526 237.888C90.4824 233.424 83.1634 226.905 75.9826 220.8C70.5049 216.152 65.1039 211.351 58.5061 208.467C54.5475 206.749 50.42 205.951 46.1545 205.752C45.5867 205.721 45.0037 205.706 44.436 205.706C43.8682 205.706 43.2852 205.706 42.7175 205.736C42.1497 205.767 41.5667 205.798 40.999 205.844C40.4313 205.89 39.8482 205.951 39.2805 206.028C38.7128 206.104 38.145 206.196 37.5773 206.288C37.0096 206.396 36.4419 206.503 35.8895 206.626C35.3218 206.749 34.7694 206.902 34.2171 207.04C33.6647 207.194 33.1123 207.362 32.5599 207.531C24.4431 210.169 16.1575 215.385 10.2349 221.705C8.97668 223.055 7.18146 225.739 6.04603 226.767C6.95131 223.101 10.02 217.762 12.429 214.848L12.5211 214.894C13.2269 214.863 17.9221 211.412 18.8887 210.752C18.3517 210.031 18.0141 209.341 17.3543 208.727L18.275 207.7C22.1723 203.727 26.2844 199.953 31.2557 197.453L31.2711 197.499Z" fill="#F78004"/>
<path d="M31.2711 197.499C32.9282 197.974 34.4626 198.373 35.3525 200.061C35.7668 200.843 36.0276 201.794 36.2578 202.653C34.7081 203.205 33.1123 203.604 31.5473 204.156C30.5346 204.54 29.5372 204.939 28.5399 205.383C27.5579 205.828 26.5759 206.288 25.6092 206.779C24.6426 207.27 23.7066 207.807 22.7707 208.359C21.8347 208.912 20.9294 209.494 20.0241 210.108C19.6712 210.323 19.2723 210.645 18.8887 210.798C18.3517 210.077 18.0141 209.387 17.3543 208.773L18.275 207.746C22.1723 203.773 26.2844 199.999 31.2557 197.499H31.2711Z" fill="#E03102"/>
<path d="M18.2903 207.746C19.1802 208.405 19.5792 209.126 20.0395 210.123C19.6866 210.338 19.2876 210.66 18.904 210.814C18.367 210.093 18.0295 209.402 17.3697 208.789L18.2903 207.761V207.746Z" fill="#EB6021"/>
<path d="M47.1058 192.897C49.4687 192.728 52.7216 194.124 54.5321 195.643C56.404 197.207 56.8797 199.355 57.1405 201.702C55.33 201.134 53.5808 200.766 51.7089 200.536C50.0671 200.459 48.4407 200.475 46.8142 200.597C45.6635 200.674 44.436 200.858 43.3005 200.766C42.7021 200.72 42.0577 200.551 41.5667 200.183C41.1524 199.892 40.9069 199.478 40.8455 198.972C40.7228 197.836 41.5053 196.241 42.1958 195.397C43.4386 193.894 45.2492 193.112 47.1058 192.912V192.897Z" fill="#E03102"/>
<path d="M90.7893 224.42C88.2115 222.18 85.02 219.726 84.4677 216.044C84.0687 213.467 85.1581 210.66 86.938 208.835C87.6745 208.083 88.7025 207.316 89.2702 206.427C89.3163 206.35 89.3623 206.258 89.4237 206.181C92.5384 208.697 95.5918 211.258 98.6145 213.912C94.7633 217.394 92.0628 218.99 90.8046 224.42H90.7893Z" fill="#E03102"/>
<path d="M64.6129 193.173C68.9705 194.538 73.144 196.042 77.1794 198.22C76.9953 203.512 76.3048 208.666 76.6884 213.974C74.9853 211.627 73.0826 209.05 70.7964 207.27C69.6303 206.365 68.2033 205.798 67.1907 204.693C64.6129 201.886 64.4595 196.778 64.5976 193.188L64.6129 193.173Z" fill="#E03102"/>
<path d="M144.6 222.211C143.633 227.15 139.567 231.246 135.654 233.915C132.754 235.894 128.55 238.041 124.944 237.259C124.162 237.09 123.487 236.676 123.072 235.955C122.627 235.158 122.597 234.206 122.842 233.332C123.824 229.927 127.384 228.132 129.931 226.153C131.327 225.877 132.785 225.831 134.197 225.586C137.833 224.957 141.239 223.791 144.584 222.211H144.6Z" fill="#E03102"/>
<path d="M153.131 206.703C155.724 207.592 157.811 210.63 158.992 213.023C160.388 215.86 160.971 219.097 159.974 222.165C158.7 226.061 155.279 228.577 151.842 230.295C150.706 230.847 149.54 231.353 148.359 231.783C148.742 227.656 148.927 223.852 148.297 219.711C150.277 218.069 152.21 216.182 153.253 213.743C154.358 211.197 154.051 209.218 153.115 206.703H153.131Z" fill="#E03102"/>
<path d="M107.115 220.247C111.166 222.61 115.293 224.358 119.881 225.294C117.671 228.347 114.587 231.445 111.166 232.995C108.726 234.084 106.072 234.16 103.617 233.133C101.515 232.243 99.1669 230.448 98.3384 228.209C97.9087 227.058 97.9394 225.831 98.4611 224.711C100.026 221.337 104.062 221.413 107.008 220.324C107.054 220.309 107.1 220.293 107.146 220.278L107.115 220.247Z" fill="#E03102"/>
</g>
<defs>
<filter id="filter0_d_719_9902" x="0" y="0" width="284" height="304" filterUnits="userSpaceOnUse" color-interpolation-filters="sRGB">
<feFlood flood-opacity="0" result="BackgroundImageFix"/>
<feColorMatrix in="SourceAlpha" type="matrix" values="0 0 0 0 0 0 0 0 0 0 0 0 0 0 0 0 0 0 127 0" result="hardAlpha"/>
<feOffset dx="2" dy="2"/>
<feGaussianBlur stdDeviation="4"/>
<feComposite in2="hardAlpha" operator="out"/>
<feColorMatrix type="matrix" values="0 0 0 0 0 0 0 0 0 0 0 0 0 0 0 0 0 0 0.25 0"/>
<feBlend mode="normal" in2="BackgroundImageFix" result="effect1_dropShadow_719_9902"/>
<feBlend mode="normal" in="SourceGraphic" in2="effect1_dropShadow_719_9902" result="shape"/>
</filter>
<linearGradient id="paint0_linear_719_9902" x1="107.254" y1="307.488" x2="259.37" y2="16.5299" gradientUnits="userSpaceOnUse">
<stop stop-color="#1C0200"/>
<stop offset="1" stop-color="#3E1408"/>
</linearGradient>
</defs>
</svg>
