<svg width="207" height="304" viewBox="0 0 207 304" fill="none" xmlns="http://www.w3.org/2000/svg">
<g clip-path="url(#clip0_719_9887)">
<path d="M50.4046 98.0699C48.5093 98.1438 46.5824 98.0805 44.6239 97.8799C42.6654 97.6793 40.749 97.3205 38.8853 96.8138C37.0216 96.3072 35.2631 95.6105 33.61 94.7238C31.9569 93.8372 30.5038 92.75 29.2613 91.4411C28.0188 90.1323 27.008 88.6123 26.2288 86.8918C25.4602 85.1607 25.0284 83.1658 24.9337 80.9175C24.8916 79.7986 24.9758 78.5425 25.1759 77.1809C25.3864 75.8192 25.755 74.5104 26.2815 73.2754C26.8079 72.0404 27.5345 70.9954 28.4505 70.151C29.3666 69.3066 30.5038 68.8527 31.8726 68.7999C33.3152 68.7472 34.7156 69.011 36.095 69.6127C37.4743 70.2143 38.8642 70.8688 40.2647 71.5865C41.6651 72.3043 43.0866 72.9587 44.5291 73.5604C45.9717 74.1515 47.4879 74.4154 49.0674 74.352C49.7307 74.3204 50.3625 74.1832 50.9521 73.9298C51.5418 73.6765 52.0472 73.3387 52.4895 72.9165C52.9317 72.4943 53.2686 71.9876 53.5108 71.3965C53.753 70.8054 53.8583 70.1721 53.8267 69.5071C53.7846 68.3461 53.395 67.4277 52.6579 66.7522C51.9314 66.0767 51.0048 65.5489 49.8781 65.1794C48.7515 64.7995 47.4985 64.5461 46.1086 64.4089C44.7187 64.2717 43.3393 64.1767 41.9915 64.1239C40.6332 64.0711 39.3486 64.0395 38.1377 64.0184C36.9268 63.9972 35.9265 63.8917 35.1473 63.7123C31.1777 62.8467 28.1031 61.0418 25.9129 58.2974C23.7333 55.553 22.554 52.1542 22.3961 48.1115C22.2802 45.156 22.6909 42.4855 23.628 40.0788C24.5651 37.6828 25.8919 35.54 27.5871 33.6612C29.2824 31.7823 31.2725 30.1357 33.5574 28.7424C35.8423 27.3491 38.2535 26.188 40.8017 25.2486C43.3498 24.3197 45.9506 23.6125 48.6251 23.1059C51.2891 22.6098 53.8583 22.3142 56.3117 22.2192C57.4278 22.177 58.6808 22.1664 60.0497 22.1981C61.4185 22.2298 62.8084 22.3459 64.2299 22.5359C65.6408 22.7259 67.0202 23.0214 68.3469 23.4225C69.6737 23.8236 70.874 24.3831 71.9164 25.1008C72.9589 25.8186 73.8223 26.7052 74.4751 27.7713C75.1279 28.8374 75.4965 30.1252 75.5491 31.6346C75.5807 32.5107 75.5807 33.5029 75.5386 34.5901C75.4965 35.6878 75.3912 36.8067 75.2227 37.9572C75.0542 39.1078 74.8015 40.2266 74.4646 41.3138C74.1171 42.401 73.6643 43.3827 73.0747 44.2482C72.4956 45.1137 71.7901 45.8315 70.9477 46.3698C70.1054 46.9082 69.1156 47.2143 67.9573 47.2565C67.115 47.2881 66.2305 47.1615 65.3039 46.887C64.3773 46.602 63.4191 46.2959 62.4188 45.9476C61.4185 45.5993 60.3866 45.2932 59.3231 45.0187C58.2596 44.7443 57.1646 44.6282 56.0379 44.681C55.5851 44.7021 55.0587 44.7654 54.469 44.8815C53.8794 44.9976 53.3424 45.1665 52.858 45.3987C52.3736 45.631 51.963 45.9476 51.626 46.3487C51.2891 46.7498 51.1311 47.2459 51.1627 47.8476C51.2154 49.0403 51.6997 49.9798 52.6158 50.6447C53.5424 51.3097 54.7428 51.8481 56.2169 52.2703C57.691 52.6819 59.3652 53.0303 61.2395 53.3047C63.1138 53.5791 65.0301 53.9486 66.9991 54.3919C68.9682 54.8458 70.8951 55.4369 72.7904 56.1652C74.6857 56.9041 76.381 57.9174 77.8972 59.2051C79.4029 60.5034 80.6559 62.1606 81.6247 64.1767C82.6039 66.1928 83.1514 68.7049 83.2673 71.6921C83.3831 74.542 82.983 77.1598 82.0774 79.5347C81.1719 81.9097 79.9083 84.0735 78.2763 86.0051C76.6442 87.9368 74.7384 89.6256 72.5482 91.0717C70.3581 92.5178 68.0205 93.7422 65.5566 94.7661C63.0822 95.7794 60.5445 96.5605 57.9332 97.1094C55.3219 97.6582 52.8053 97.9749 50.3836 98.0699H50.4046Z" fill="#F78004"/>
<path d="M110.518 74.2565C108.496 73.7921 106.411 73.2537 104.274 72.631C102.136 72.0082 100.146 71.1849 98.3247 70.161C97.0716 69.4749 96.2293 68.4933 95.7765 67.2161C95.3343 65.9389 95.0605 64.6195 94.9763 63.2684C94.8078 60.049 94.7973 56.7241 94.9341 53.2725C95.071 49.8209 95.3553 46.3587 95.766 42.8755C96.1766 39.3922 96.6926 35.9512 97.2822 32.5524C97.8719 29.1535 98.5352 25.8919 99.2407 22.7676C99.4513 21.8387 99.7356 20.6776 100.094 19.2843C100.452 17.8804 100.883 16.4027 101.378 14.8405C101.884 13.2783 102.452 11.695 103.084 10.08C103.716 8.47562 104.442 6.98732 105.232 5.61512C106.032 4.24293 106.906 3.07129 107.843 2.1002C108.78 1.11855 109.791 0.485229 110.876 0.189679C111.529 0.0102385 112.245 -0.0425382 113.013 0.0313492C113.793 0.0946812 114.498 0.21079 115.151 0.358565C116.141 0.590782 117.33 0.991885 118.71 1.55132C120.089 2.12131 121.416 2.81796 122.69 3.63072C123.964 4.44348 125.059 5.37235 125.975 6.41733C126.891 7.46231 127.376 8.56006 127.439 9.73171C127.46 10.4178 127.418 11.125 127.312 11.8428C127.207 12.5605 127.07 13.2466 126.923 13.8905C126.386 16.2232 125.786 18.5243 125.101 20.7831C124.427 23.0525 123.817 25.3431 123.28 27.6758L122.69 30.2513C122.395 31.5179 122.09 32.9851 121.774 34.6423C121.448 36.2995 121.132 38.0517 120.816 39.8883C120.5 41.7249 120.268 43.456 120.121 45.0604C119.973 46.6648 119.921 48.0687 119.973 49.2509C120.026 50.4331 120.268 51.2036 120.689 51.552C121.237 52.0058 121.869 52.312 122.585 52.4808C123.543 52.7025 124.491 52.808 125.428 52.808C126.365 52.808 127.312 52.9136 128.271 53.1353C129.703 53.4625 130.766 54.1591 131.44 55.2147C132.114 56.2702 132.546 57.4946 132.714 58.8668C132.883 60.2496 132.893 61.6534 132.714 63.0995C132.546 64.5456 132.335 65.8122 132.082 66.91C131.451 69.686 130.377 71.7338 128.871 73.0532C127.365 74.3621 125.607 75.1959 123.606 75.5231C121.605 75.8609 119.457 75.8504 117.183 75.5126C114.898 75.1748 112.666 74.7526 110.476 74.2459L110.518 74.2565Z" fill="#B4E296"/>
<path d="M177.306 97.9427C174.126 98.2382 171.178 98.0377 168.461 97.3199C165.745 96.6021 163.302 95.5044 161.112 94.0055C158.922 92.5067 156.974 90.7017 155.257 88.5695C153.541 86.4374 152.067 84.1046 150.846 81.5925C149.624 79.0697 148.634 76.4203 147.897 73.6232C147.16 70.826 146.655 68.05 146.402 65.2845C146.139 62.4767 146.107 59.6268 146.307 56.7346C146.507 53.8319 146.971 51.0031 147.676 48.2481C148.382 45.4932 149.371 42.8755 150.635 40.3844C151.899 37.8934 153.478 35.6767 155.352 33.7346C157.237 31.7924 159.438 30.1985 161.965 28.9424C164.492 27.6969 167.366 26.9158 170.578 26.6203C173.789 26.3247 176.769 26.5358 179.496 27.2641C182.224 27.9924 184.719 29.1324 186.962 30.6629C189.205 32.204 191.205 34.0618 192.953 36.2256C194.712 38.3895 196.217 40.7539 197.481 43.2977C198.744 45.8415 199.755 48.5331 200.513 51.362C201.271 54.1908 201.787 57.0091 202.051 59.8062C202.314 62.6034 202.335 65.4639 202.114 68.3666C201.893 71.2693 201.398 74.0771 200.629 76.8003C199.861 79.5236 198.818 82.0991 197.491 84.5268C196.165 86.9546 194.543 89.1079 192.627 91.0078C190.71 92.9078 188.468 94.4594 185.919 95.6733C183.371 96.8871 180.486 97.6471 177.275 97.9532L177.306 97.9427ZM175.432 75.7976C176.906 75.6604 178.054 75.1115 178.896 74.1404C179.739 73.1799 180.37 72.0293 180.792 70.6994C181.213 69.3694 181.465 67.9761 181.539 66.5194C181.613 65.0628 181.602 63.775 181.497 62.6562C181.402 61.6006 181.171 60.334 180.823 58.8457C180.476 57.3574 179.97 55.9324 179.307 54.5602C178.644 53.188 177.822 52.0481 176.811 51.1297C175.811 50.222 174.611 49.8314 173.21 49.9581C171.81 50.0848 170.652 50.6442 169.746 51.6364C168.841 52.6286 168.146 53.8003 167.672 55.1724C167.198 56.5446 166.893 57.9696 166.756 59.4474C166.608 60.9251 166.598 62.234 166.703 63.3528C166.777 64.0917 166.903 64.915 167.093 65.8333C167.282 66.7516 167.545 67.6911 167.882 68.6516C168.219 69.6121 168.619 70.5305 169.093 71.4277C169.567 72.3249 170.104 73.106 170.715 73.7921C171.325 74.4782 172.031 75.0059 172.821 75.3648C173.61 75.7237 174.484 75.8715 175.421 75.787L175.432 75.7976Z" fill="#FFBFDA"/>
<path d="M27.4507 170.194C25.3869 170.395 23.2389 170.542 21.0066 170.637C18.7744 170.732 16.6369 170.574 14.5836 170.184C13.1832 169.93 12.0671 169.276 11.2352 168.199C10.4139 167.133 9.74003 165.972 9.22409 164.705C8.04478 161.708 6.9813 158.552 6.02311 155.237C5.06492 151.923 4.23309 148.545 3.52761 145.115C2.82213 141.684 2.21142 138.254 1.706 134.844C1.19006 131.435 0.779404 128.131 0.474048 124.943C0.379282 123.993 0.284516 122.801 0.179221 121.365C0.0739258 119.919 0.0107486 118.378 -0.0103104 116.742C-0.0313695 115.095 0.0107486 113.417 0.105514 111.686C0.20028 109.965 0.410871 108.319 0.737286 106.767C1.0637 105.215 1.51647 103.822 2.10612 102.598C2.69578 101.373 3.44337 100.444 4.3805 99.8322C4.93857 99.4627 5.60193 99.1777 6.36005 98.9983C7.11818 98.8189 7.82366 98.6922 8.49755 98.6289C9.50838 98.5339 10.7614 98.5339 12.2566 98.6289C13.7518 98.7344 15.2259 98.9666 16.6895 99.3361C18.1531 99.7055 19.4798 100.233 20.6802 100.93C21.8806 101.627 22.6914 102.524 23.1125 103.611C23.3547 104.255 23.5337 104.941 23.6601 105.648C23.7864 106.366 23.8812 107.052 23.9444 107.717C24.176 110.103 24.334 112.467 24.3971 114.831C24.4708 117.196 24.6183 119.571 24.8499 121.946C24.892 122.399 24.9763 123.276 25.1026 124.574C25.229 125.872 25.3974 127.36 25.6186 129.039C25.8397 130.717 26.0819 132.48 26.3767 134.327C26.661 136.174 26.9874 137.884 27.3559 139.457C27.7245 141.03 28.1141 142.37 28.5458 143.478C28.9775 144.587 29.4408 145.241 29.9567 145.431C30.6201 145.685 31.315 145.78 32.0521 145.706C33.0314 145.611 33.958 145.41 34.853 145.115C35.7374 144.819 36.6746 144.618 37.6538 144.523C39.1174 144.376 40.3388 144.703 41.3181 145.495C42.2973 146.286 43.0871 147.3 43.6767 148.556C44.2769 149.812 44.7191 151.142 45.0245 152.567C45.3193 153.992 45.5299 155.258 45.6352 156.377C45.909 159.217 45.5404 161.496 44.5296 163.228C43.5188 164.948 42.1078 166.289 40.3178 167.249C38.5278 168.21 36.4956 168.885 34.2212 169.276C31.9468 169.677 29.6935 169.983 27.4612 170.205L27.4507 170.194Z" fill="#95C2E3"/>
<path d="M57.7543 194.144C55.6905 193.975 53.9111 193.764 52.4159 193.521C50.9207 193.279 49.7203 192.793 48.8042 192.086C47.8882 191.379 47.2669 190.344 46.9194 188.993C46.572 187.642 46.4983 185.774 46.6878 183.388C46.8036 181.953 47.0142 180.823 47.309 180C47.6039 179.177 47.9513 178.543 48.362 178.1C48.7726 177.657 49.2149 177.351 49.7098 177.182C50.1941 177.013 50.7101 176.855 51.226 176.696C51.7525 176.548 52.2579 176.358 52.7528 176.137C53.2477 175.915 53.6899 175.535 54.0901 175.007C54.5218 172.326 54.8587 169.635 55.0904 166.933C55.3325 164.23 55.5642 161.528 55.7853 158.837C55.8169 158.414 55.8801 157.623 55.9748 156.472C56.0696 155.322 56.1538 153.981 56.2486 152.461C56.3328 150.952 56.4276 149.347 56.5118 147.669C56.5961 145.98 56.6382 144.407 56.6382 142.94C56.6382 141.473 56.575 140.206 56.4697 139.14C56.3644 138.074 56.1854 137.388 55.9222 137.082C55.501 136.586 55.0061 136.269 54.4375 136.111C53.8689 135.953 53.2898 135.847 52.6896 135.784C52.1 135.72 51.5209 135.604 50.9733 135.457C50.4153 135.309 49.9414 134.992 49.5413 134.517C49.1412 134.042 48.8464 133.324 48.6568 132.374C48.4673 131.424 48.4462 130.105 48.5831 128.427C48.6252 127.973 48.6884 127.382 48.8042 126.664C48.9201 125.946 49.078 125.25 49.2886 124.563C49.5097 123.877 49.7835 123.244 50.131 122.674C50.4784 122.104 50.8996 121.735 51.4156 121.566C51.921 121.355 52.6791 121.207 53.6689 121.112C54.6587 121.017 55.7853 120.953 57.0383 120.911C58.2913 120.869 59.6181 120.858 61.008 120.869C62.3979 120.869 63.7456 120.901 65.0408 120.932C66.3359 120.964 67.5363 121.017 68.6208 121.07C69.7053 121.122 70.5688 121.175 71.2005 121.228C71.7586 121.27 72.4957 121.344 73.4012 121.439C74.3068 121.534 75.3176 121.661 76.4127 121.819C77.5077 121.977 78.6239 122.199 79.7716 122.463C80.9088 122.737 81.9828 123.054 82.9726 123.413C83.9623 123.782 84.8047 124.205 85.5102 124.711C86.2051 125.207 86.6684 125.788 86.9001 126.442C87.1317 127.065 87.2686 127.783 87.3002 128.596C87.3423 129.408 87.3318 130.158 87.2791 130.823C87.1317 132.607 86.8474 133.979 86.4157 134.908C85.984 135.847 85.4786 136.501 84.91 136.871C84.3414 137.24 83.6886 137.43 82.9831 137.43C82.2776 137.43 81.5721 137.43 80.8772 137.42C80.1717 137.42 79.4978 137.473 78.8555 137.599C78.2132 137.726 77.6341 138.095 77.1287 138.729C76.8549 139.056 76.6233 139.7 76.4232 140.66C76.2231 141.61 76.0441 142.645 75.9072 143.742C75.7598 144.84 75.644 145.896 75.5492 146.888C75.4439 147.891 75.3808 148.598 75.3492 149.02C75.2965 149.622 75.2334 150.656 75.1491 152.134C75.0649 153.612 74.9806 155.301 74.8964 157.201C74.8122 159.1 74.7279 161.085 74.6437 163.164C74.5595 165.244 74.5068 167.186 74.4858 169.001C74.4647 170.817 74.4647 172.379 74.4963 173.688C74.5279 174.997 74.6016 175.831 74.7174 176.2C75.1702 176.665 75.6335 176.992 76.0862 177.182C76.5495 177.382 76.9918 177.551 77.4235 177.688C77.8447 177.836 78.2448 178.016 78.5923 178.237C78.9397 178.459 79.2346 178.818 79.4557 179.314C79.6768 179.81 79.8348 180.517 79.919 181.446C80.0032 182.375 79.9822 183.61 79.8558 185.151C79.761 186.27 79.5926 187.42 79.3399 188.603C79.0872 189.785 78.7186 190.904 78.2448 191.959C77.9394 192.645 77.3182 193.184 76.3705 193.585C75.4229 193.986 74.2962 194.281 72.9906 194.471C71.6849 194.661 70.2845 194.767 68.7893 194.788C67.2941 194.809 65.841 194.778 64.4406 194.693C63.0402 194.609 61.745 194.524 60.5552 194.429L57.7754 194.197L57.7543 194.144Z" fill="#FFBFDA"/>
<path d="M154.058 175.029C153.121 174.913 152.173 174.712 151.236 174.427C150.299 174.142 149.435 173.762 148.646 173.277C147.856 172.791 147.193 172.169 146.656 171.419C146.118 170.68 145.771 169.783 145.613 168.728C145.455 167.714 145.392 166.384 145.402 164.738C145.424 163.091 145.487 161.265 145.592 159.281C145.708 157.286 145.866 155.206 146.066 153.032C146.266 150.857 146.487 148.746 146.708 146.699C146.929 144.651 147.15 142.751 147.35 141.009C147.551 139.257 147.73 137.832 147.866 136.713C148.34 133.008 148.909 129.346 149.583 125.704C150.257 122.062 150.92 118.4 151.562 114.726C151.699 113.935 151.868 113.122 152.078 112.32C152.289 111.518 152.573 110.758 152.952 110.061C153.321 109.364 153.805 108.773 154.405 108.277C155.005 107.781 155.764 107.475 156.701 107.348C157.891 107.179 159.112 107.105 160.365 107.127C161.618 107.148 162.839 107.232 164.019 107.38C164.998 107.507 166.051 107.718 167.209 108.003C168.367 108.288 169.484 108.678 170.589 109.153C171.695 109.628 172.716 110.219 173.664 110.905C174.601 111.591 175.338 112.383 175.854 113.259C176.265 113.945 176.612 114.653 176.917 115.36C177.212 116.077 177.518 116.806 177.812 117.555C178.518 119.244 179.223 120.912 179.908 122.558C180.603 124.205 181.266 125.873 181.898 127.551C182.161 128.258 182.445 128.966 182.751 129.652C183.046 130.348 183.404 131.024 183.825 131.678C183.941 131.583 184.014 131.425 184.046 131.172C184.309 129.071 184.393 126.939 184.299 124.765C184.204 122.59 184.299 120.437 184.562 118.305C184.815 116.31 185.373 114.811 186.225 113.776C187.078 112.753 188.142 112.035 189.395 111.623C190.648 111.211 192.027 111.032 193.522 111.085C195.018 111.138 196.555 111.264 198.124 111.465C199.314 111.613 200.461 111.887 201.578 112.278C202.694 112.668 203.673 113.323 204.515 114.251C205.042 114.853 205.473 115.909 205.81 117.429C206.147 118.949 206.4 120.775 206.579 122.907C206.748 125.039 206.863 127.393 206.927 129.979C206.99 132.565 206.99 135.214 206.948 137.938C206.895 140.661 206.821 143.363 206.716 146.055C206.6 148.736 206.484 151.237 206.347 153.57C206.211 155.903 206.063 157.972 205.905 159.798C205.747 161.624 205.6 163.028 205.473 163.999C205.021 167.566 204.399 170.226 203.61 171.979C202.82 173.741 201.725 174.924 200.314 175.525C198.914 176.127 197.113 176.317 194.933 176.085C192.754 175.852 190.037 175.536 186.805 175.124C185.478 174.955 184.425 174.385 183.625 173.414C182.824 172.443 182.161 171.387 181.635 170.258C179.918 166.49 178.255 162.7 176.654 158.901C175.054 155.101 173.337 151.322 171.516 147.575C171.495 147.501 171.421 147.353 171.305 147.121C171.189 146.899 171.063 146.656 170.916 146.403C170.768 146.15 170.621 145.928 170.473 145.738C170.315 145.537 170.178 145.432 170.042 145.421C169.905 145.411 169.789 145.474 169.726 145.622C169.663 145.77 169.589 145.939 169.526 146.129C169.462 146.319 169.42 146.498 169.399 146.667L169.357 146.984C169.157 148.556 168.999 150.108 168.873 151.66C168.746 153.211 168.589 154.763 168.388 156.336C168.262 157.317 168.083 158.647 167.851 160.336C167.62 162.025 167.314 163.745 166.935 165.487C166.556 167.229 166.114 168.865 165.619 170.374C165.124 171.884 164.535 172.96 163.861 173.583C163.334 174.121 162.65 174.512 161.829 174.755C160.997 175.008 160.133 175.166 159.217 175.24C158.301 175.325 157.396 175.325 156.48 175.261C155.563 175.198 154.763 175.124 154.068 175.029H154.058Z" fill="#FCD836"/>
<path d="M46.7094 289.301C43.5084 288.837 40.7181 287.866 38.3279 286.388C35.9377 284.9 33.8949 283.074 32.1997 280.91C30.5044 278.746 29.1356 276.308 28.0932 273.595C27.0508 270.882 26.2716 268.074 25.7767 265.151C25.2713 262.237 25.0186 259.292 25.0186 256.347C25.0186 253.392 25.2081 250.574 25.5977 247.893C26.0189 244.937 26.7033 241.96 27.6193 238.984C28.5354 236.007 29.7147 233.157 31.1362 230.455C32.5577 227.742 34.2319 225.241 36.1588 222.94C38.0857 220.639 40.2758 218.718 42.7082 217.166C45.151 215.614 47.8255 214.506 50.7422 213.82C53.6589 213.144 56.8388 213.049 60.2819 213.545C63.4829 214.01 66.3154 214.949 68.7898 216.374C71.2642 217.799 73.3596 219.583 75.097 221.736C76.8238 223.89 78.1611 226.339 79.0877 229.093C80.0248 231.838 80.5513 234.772 80.6671 237.886C80.7092 238.351 80.6882 238.836 80.6145 239.322C80.4355 240.546 79.909 241.433 79.035 242.003C78.1506 242.573 77.1397 242.953 76.0025 243.132C74.8548 243.322 73.6755 243.364 72.4436 243.259C71.2116 243.153 70.1692 243.037 69.3058 242.91C67.8843 242.699 66.7892 242.393 66.0311 241.982C65.2729 241.57 64.7149 241.105 64.3674 240.599C64.0199 240.092 63.7883 239.564 63.6935 239.037C63.5882 238.509 63.4829 238.002 63.3566 237.517C63.2302 237.031 63.0091 236.619 62.7037 236.271C62.3984 235.923 61.8824 235.701 61.1559 235.596C59.5554 235.363 58.1234 235.722 56.8493 236.683C55.5752 237.633 54.4907 238.857 53.5852 240.345C52.6796 241.834 51.9531 243.417 51.4056 245.095C50.858 246.774 50.5 248.241 50.321 249.497C50.142 250.721 50.0683 252.072 50.0788 253.571C50.0894 255.07 50.3105 256.495 50.7106 257.846C51.1213 259.208 51.7636 260.38 52.648 261.382C53.5325 262.385 54.7434 262.997 56.2702 263.219C56.7546 263.293 57.2916 263.303 57.8917 263.261C58.4814 263.219 59.05 263.103 59.587 262.923C60.124 262.733 60.5978 262.448 60.9874 262.058C61.377 261.667 61.6192 261.182 61.7034 260.591C61.8087 259.862 61.735 259.345 61.4718 259.06C61.2085 258.775 60.8611 258.553 60.4188 258.406C59.9766 258.258 59.5028 258.11 58.9868 257.983C58.4709 257.857 58.0076 257.614 57.6074 257.245C57.1968 256.886 56.902 256.316 56.7019 255.545C56.5124 254.775 56.5229 253.687 56.723 252.294C56.8177 251.671 56.9441 250.975 57.1231 250.215C57.3021 249.465 57.5759 248.8 57.9339 248.251C58.2919 247.734 58.9236 247.365 59.8292 247.143C60.7347 246.921 61.714 246.784 62.788 246.742C63.862 246.7 64.9044 246.721 65.9152 246.795C66.9366 246.869 67.7158 246.953 68.2739 247.027C69.1794 247.154 70.0744 247.323 70.9694 247.523C71.8644 247.724 72.7278 247.977 73.5807 248.273C74.8338 248.705 75.813 249.571 76.529 250.89C77.245 252.199 77.7715 253.751 78.119 255.545C78.4664 257.34 78.6665 259.271 78.7192 261.34C78.7718 263.409 78.7507 265.436 78.6454 267.409C78.5401 269.383 78.3927 271.209 78.2032 272.888C78.0137 274.566 77.8452 275.917 77.6978 276.92C77.403 278.936 77.1187 280.846 76.8449 282.641C76.5711 284.435 76.0762 285.966 75.3602 287.232C74.6442 288.499 73.5913 289.428 72.1908 290.029C70.7904 290.631 68.8003 290.737 66.2311 290.367C65.5678 290.272 64.8939 290.135 64.22 289.945C63.5356 289.755 62.9143 289.491 62.3457 289.143C61.7771 288.794 61.2717 288.362 60.8295 287.855C60.3872 287.348 60.0608 286.736 59.8397 286.029C59.8186 285.955 59.7765 285.828 59.7344 285.638C59.6923 285.459 59.6291 285.269 59.5449 285.079C59.4712 284.889 59.3869 284.72 59.3027 284.562C59.2185 284.403 59.1026 284.319 58.9658 284.298C58.9342 284.298 58.692 284.477 58.2497 284.857C57.8075 285.237 57.3021 285.66 56.7335 286.135C56.1649 286.599 55.6384 287.053 55.133 287.475C54.6276 287.897 54.2801 288.172 54.0906 288.288C53.0797 288.921 51.8899 289.291 50.5211 289.396C49.1628 289.502 47.8887 289.47 46.6989 289.291L46.7094 289.301Z" fill="#FCD836"/>
<path d="M125.301 303.266C122.132 303.635 119.173 303.487 116.446 302.833C113.719 302.179 111.244 301.123 109.033 299.677C106.811 298.231 104.821 296.468 103.063 294.368C101.304 292.267 99.7777 289.977 98.5036 287.486C97.219 284.995 96.1871 282.356 95.3869 279.58C94.5866 276.804 94.0286 274.038 93.7127 271.273C93.3863 268.475 93.302 265.625 93.4389 262.723C93.5758 259.82 93.9759 256.981 94.6288 254.215C95.2816 251.45 96.2082 248.811 97.4191 246.288C98.63 243.776 100.157 241.528 101.999 239.543C103.842 237.559 106.011 235.912 108.507 234.614C111.013 233.316 113.856 232.482 117.067 232.102C120.279 231.732 123.248 231.88 125.996 232.556C128.744 233.231 131.25 234.308 133.535 235.796C135.81 237.284 137.852 239.1 139.653 241.232C141.454 243.364 143.012 245.686 144.328 248.209C145.644 250.732 146.708 253.402 147.529 256.21C148.35 259.018 148.919 261.826 149.245 264.623C149.572 267.42 149.646 270.27 149.488 273.183C149.33 276.086 148.898 278.915 148.182 281.648C147.466 284.382 146.487 286.989 145.213 289.438C143.939 291.887 142.37 294.083 140.485 296.014C138.6 297.956 136.399 299.55 133.883 300.817C131.356 302.084 128.492 302.907 125.291 303.276L125.301 303.266ZM122.964 281.163C124.427 280.994 125.575 280.414 126.396 279.432C127.218 278.45 127.828 277.289 128.218 275.949C128.608 274.608 128.829 273.215 128.871 271.758C128.913 270.301 128.871 269.014 128.744 267.895C128.629 266.85 128.376 265.583 127.986 264.106C127.607 262.628 127.07 261.213 126.386 259.852C125.701 258.49 124.849 257.371 123.827 256.485C122.806 255.598 121.595 255.228 120.205 255.397C118.815 255.566 117.667 256.147 116.772 257.15C115.877 258.152 115.214 259.356 114.772 260.728C114.33 262.1 114.056 263.536 113.94 265.024C113.824 266.502 113.835 267.81 113.972 268.929C114.056 269.668 114.203 270.491 114.414 271.399C114.624 272.318 114.909 273.246 115.267 274.196C115.625 275.146 116.046 276.065 116.541 276.941C117.036 277.817 117.583 278.598 118.215 279.274C118.836 279.939 119.552 280.456 120.352 280.804C121.153 281.152 122.027 281.279 122.964 281.163Z" fill="#95C2E3"/>
<path d="M173.147 251.988C172.715 252.03 172.157 252.051 171.462 252.061C170.778 252.061 170.083 252.009 169.378 251.914C168.683 251.819 168.03 251.65 167.44 251.396C166.851 251.154 166.429 250.805 166.177 250.362C165.524 249.212 164.839 247.639 164.113 245.644C163.397 243.649 162.681 241.432 161.986 238.994C161.291 236.556 160.607 234.001 159.933 231.32C159.259 228.65 158.659 226.043 158.122 223.52C157.585 220.997 157.132 218.654 156.763 216.49C156.395 214.326 156.142 212.542 156.005 211.138C155.879 209.872 156.11 208.827 156.7 208.014C157.29 207.201 158.058 206.536 158.996 206.04C159.933 205.544 160.975 205.164 162.102 204.921C163.239 204.679 164.281 204.499 165.25 204.404C166.113 204.32 166.977 204.256 167.83 204.225C168.683 204.193 169.546 204.161 170.42 204.14C172.2 204.14 173.695 204.087 174.916 204.014C176.138 203.94 177.127 204.077 177.907 204.425C178.675 204.763 179.275 205.449 179.697 206.462C180.118 207.486 180.434 209.07 180.655 211.244C180.96 214.284 181.118 217.345 181.15 220.459C181.171 223.573 181.118 226.686 180.981 229.821C180.844 232.946 180.634 236.081 180.36 239.205C180.086 242.329 179.812 245.401 179.549 248.43C179.507 249.043 179.244 249.56 178.749 250.003C178.254 250.436 177.675 250.805 177.022 251.09C176.359 251.375 175.674 251.586 174.969 251.724C174.263 251.861 173.653 251.956 173.158 252.009L173.147 251.988ZM174.948 275.589C173.716 275.716 172.473 275.674 171.21 275.463C169.946 275.252 168.799 274.861 167.767 274.27C166.735 273.679 165.871 272.898 165.166 271.905C164.46 270.913 164.039 269.721 163.902 268.317C163.765 266.913 163.955 265.53 164.513 264.348C165.071 263.166 165.829 262.142 166.798 261.287C167.767 260.432 168.904 259.756 170.199 259.25C171.494 258.754 172.789 258.437 174.084 258.3C175.348 258.173 176.601 258.205 177.854 258.405C179.107 258.606 180.223 258.986 181.244 259.556C182.255 260.126 183.108 260.896 183.793 261.878C184.477 262.849 184.898 264.052 185.035 265.488C185.182 266.955 184.982 268.285 184.456 269.488C183.919 270.692 183.171 271.715 182.192 272.57C181.223 273.425 180.097 274.112 178.823 274.629C177.549 275.146 176.264 275.463 174.969 275.6L174.948 275.589Z" fill="#B4E296"/>
</g>
<g filter="url(#filter0_d_719_9887)">
<path d="M16.0241 193.349C16.4876 193.78 16.7354 194.276 17.1019 194.771C16.4229 195.235 13.1358 197.659 12.6293 197.681L12.5646 197.648C13.5777 196.129 14.8386 194.739 16.0241 193.349Z" fill="#E03102"/>
<path d="M150.386 147.898C151.248 147.531 152.089 147.154 152.929 146.723C155.537 151.217 157.38 155.85 158.846 160.861C156.41 161.507 154.945 161.292 152.509 161.152L152.455 161.109C152.196 157.046 151.388 151.896 150.386 147.962V147.909H150.397L150.386 147.898Z" fill="#29120D"/>
<path d="M158.835 160.85C159.148 162.52 159.579 164.158 159.859 165.828C160.387 168.942 160.538 172.143 160.473 175.3C159.654 175.3 158.824 175.462 158.005 175.494C155.774 175.58 153.748 175.117 151.625 174.46C152.638 170.591 152.552 165.128 152.498 161.13C154.934 161.281 156.4 161.486 158.835 160.839V160.85Z" fill="#EB6021"/>
<path d="M126.503 63.1913C129.391 62.4047 132.797 61.144 135.05 59.0751C137.399 56.92 138.153 54.0214 138.337 50.9072C138.789 51.6723 139.199 52.4589 139.587 53.2671C139.964 54.0752 140.32 54.8942 140.632 55.7347C140.611 55.7778 140.589 55.8101 140.568 55.8532C140.352 56.3058 140.126 58.4932 139.856 59.3552C138.391 64.0426 134.575 67.3399 130.211 69.0425C129.402 69.3549 128.551 69.6674 127.71 69.8722C126.794 70.0985 125.447 70.12 124.628 70.551C123.378 70.0985 122.149 69.5705 120.877 69.1718C118.463 68.4175 115.887 67.9972 113.376 67.814C115.941 66.3378 119.045 65.0986 121.147 62.9543C123.141 60.9285 123.626 58.3423 123.647 55.5623C125.641 57.8143 126.341 60.1957 126.503 63.1806V63.1913Z" fill="#F78004"/>
<path d="M124.628 70.551C125.447 70.12 126.794 70.0985 127.71 69.8722C128.551 69.6674 129.402 69.3657 130.211 69.0425C134.575 67.3399 138.391 64.0426 139.856 59.3552C140.126 58.4932 140.352 56.295 140.568 55.8532C140.589 55.8101 140.611 55.7778 140.632 55.7347C141.699 58.6441 142.367 61.9522 141.635 65.034C142.281 65.2279 144.189 64.1504 144.803 63.8163C147.508 62.2862 149.276 60.422 150.925 57.7712C152.681 62.5664 151.507 66.3378 149.556 70.8312C149.157 71.7363 148.748 72.6523 148.338 73.5466C152.369 73.1264 154.524 71.6825 157.132 68.5252C158.221 73.6328 155.764 78.4064 153.166 82.5873C152.843 83.1045 152.52 83.611 152.164 84.1174C154.729 84.4946 156.658 84.3437 159.062 83.32C158.469 85.9816 157.574 87.7596 155.279 89.2466C153.899 90.141 152.39 90.7228 150.838 91.197C153.457 92.2206 155.893 91.9943 158.587 91.4663C157.326 94.5697 154.675 96.6494 151.711 97.8993C150.892 98.2442 150.052 98.5459 149.222 98.8584C148.263 93.3844 145.665 88.3953 142.4 84.042C140.363 81.7037 138.38 79.2469 135.901 77.3935C135.448 76.7254 133.358 75.497 132.582 75.0013C130.879 73.1803 126.902 71.4885 124.639 70.551H124.628Z" fill="#F78004"/>
<path d="M124.628 70.551C125.447 70.12 126.794 70.0985 127.71 69.8722C128.551 69.6674 129.402 69.3657 130.211 69.0425C134.575 67.3399 138.391 64.0426 139.856 59.3552C140.126 58.4932 140.352 56.295 140.568 55.8532C140.589 55.8101 140.611 55.7778 140.632 55.7347C141.699 58.6441 142.367 61.9522 141.635 65.034C140.557 68.5037 139.123 70.842 136.871 73.6113C139.522 75.9819 142.96 77.081 146.452 76.8224C147.875 76.7146 149.211 76.3806 150.537 75.8526C149.362 78.8266 147.228 80.9494 144.641 82.6412C143.919 83.1153 143.057 83.514 142.389 84.0528C140.352 81.7145 138.369 79.2577 135.89 77.4043C135.438 76.7362 133.347 75.5078 132.571 75.0121C130.868 73.191 126.891 71.4993 124.628 70.5618V70.551Z" fill="#E03102"/>
<path d="M174.182 110.119C176.941 111.918 178.59 116.336 179.883 117.166C180.196 117.08 180.315 116.994 180.519 116.724C181.188 115.83 181.64 114.774 182.276 113.858C182.998 112.823 186.652 108.384 187.794 108.89C188.602 110.582 185.315 116.606 185.703 118.233C185.768 118.524 185.876 118.567 186.113 118.696C186.824 118.75 187.654 118.276 188.344 118.071C189.756 117.651 195.317 116.099 196.265 117.015C196.308 117.285 196.265 117.414 196.103 117.64C195.08 119.224 192.418 121.024 190.823 122.123C190.197 122.554 189.486 122.952 188.936 123.48C188.667 123.739 188.505 123.955 188.516 124.353C189.109 125.883 195.338 127.5 195.036 128.998C193.571 130.021 184.302 129.299 181.091 130.829C178.558 132.036 176.499 136.573 174.937 138.933C174.053 140.28 173.061 141.54 171.984 142.726C170.626 144.18 169.548 145.15 167.565 145.516C163.61 146.238 159.342 145.915 155.365 145.516C154.244 145.398 153.112 145.161 151.992 145.107C150.86 144.396 149.771 142.876 148.877 141.874C147.616 140.387 146.333 138.922 145.051 137.446C144.814 136.853 144.361 136.249 144.059 135.678C143.402 134.439 142.799 133.103 142.314 131.778C142.141 131.304 141.753 130.344 141.958 129.87C144.361 130.679 146.7 131.659 149.092 132.5C153.576 134.073 158.296 135.441 162.941 136.4C164.45 135.538 165.894 134.612 167.263 133.523C169.785 131.53 174.021 127.478 174.861 124.289C175.379 122.317 174.818 119.903 174.581 117.91C174.29 115.431 173.891 112.64 174.15 110.151L174.182 110.119Z" fill="url(#paint0_linear_719_9887)"/>
<path d="M181.867 122.123C182.513 122.08 183.095 122.047 183.72 122.284C184.281 122.511 184.83 122.92 185.057 123.524C185.208 123.922 185.197 124.353 185.024 124.741C184.669 125.56 183.871 125.894 183.106 126.153C182.33 126.261 181.586 126.228 180.875 125.873C180.336 125.603 179.84 125.151 179.668 124.536C179.56 124.138 179.592 123.718 179.797 123.362C180.228 122.575 181.069 122.327 181.867 122.112V122.123Z" fill="#EB6021"/>
<path d="M94.4835 150.85C90.7761 152.542 87.0687 153.523 83.1241 154.417C80.8501 154.934 77.0349 155.893 74.7717 155.548C70.8487 154.956 65.3199 147.747 63.1105 144.428C61.4077 141.874 59.9743 138.911 57.4955 137.058C54.3808 134.73 49.9621 134.191 46.384 132.823C45.1446 132.349 41.6204 130.969 41.0923 129.784L41.1893 129.569C43.1293 128.179 48.6365 129.235 49.531 128.75C49.7358 128.631 49.8651 128.502 49.9082 128.254C49.9729 127.855 49.6819 127.37 49.4664 127.069C48.9598 126.379 48.2808 125.776 47.6989 125.151C46.2978 123.621 45.08 122.058 44.0884 120.215C43.7974 119.666 43.1724 118.631 43.3987 118.006C43.4526 117.845 43.5603 117.834 43.7005 117.759C45.6296 117.737 50.6626 121.821 52.678 122.802C53.066 122.985 53.4755 123.19 53.8959 123.028C54.2946 122.5 53.9282 120.894 53.8743 120.237C53.7126 118.567 53.3785 113.416 54.424 112.263C54.5425 112.123 54.5641 112.155 54.7365 112.145C55.243 112.457 55.5556 113.028 55.8681 113.535C57.2045 115.711 58.0236 118.2 58.9181 120.593C59.263 121.53 59.5863 122.64 60.1252 123.48C60.3407 123.825 60.6209 124.17 61.0305 124.235C61.2137 124.256 61.3215 124.202 61.4831 124.105C62.2807 123.599 63.8111 121.282 64.878 120.356C65.46 119.849 66.3976 119.009 67.1952 119.084C67.5724 119.375 67.5616 119.687 67.4969 120.14C67.3784 121.024 66.958 121.886 66.6778 122.737C65.7725 125.431 64.2206 129.547 64.8133 132.381C65.6755 136.497 73.3922 142.542 76.9056 144.773C77.8755 144.557 78.8347 144.299 79.7831 144.019C80.7316 143.738 81.68 143.415 82.6176 143.07C83.5552 142.726 84.4713 142.348 85.3874 141.939C86.2927 141.529 87.198 141.098 88.0817 140.635C90.2049 139.525 92.2526 138.275 94.3649 137.144C94.4619 138.178 94.3649 139.256 94.3434 140.301C94.3003 141.767 94.3003 143.221 94.3111 144.687C94.3326 146.001 94.3757 147.316 94.4404 148.631C94.4727 149.342 94.6021 150.182 94.5051 150.872L94.4835 150.85Z" fill="#29120D"/>
<path d="M55.5232 126.993C56.2992 126.929 57.0213 127.047 57.7003 127.424C58.4547 127.845 59.0906 128.534 59.3169 129.407C59.457 129.957 59.4247 130.56 59.1229 131.056C58.7026 131.735 58.0559 131.982 57.3338 132.133C56.5902 132.166 55.9005 132.058 55.2215 131.713C54.4347 131.314 53.7126 130.614 53.4432 129.73C53.2923 129.224 53.2923 128.663 53.551 128.2C53.9713 127.446 54.7365 127.198 55.5017 126.993H55.5232Z" fill="#EB6021"/>
<path d="M140.848 126.53C141.009 127.349 141.257 129.235 141.85 129.806L141.979 129.849C141.775 130.323 142.163 131.282 142.335 131.756C142.82 133.081 143.424 134.418 144.081 135.657C144.383 136.228 144.835 136.831 145.073 137.424C146.344 138.9 147.638 140.366 148.899 141.853C149.793 142.855 150.882 144.374 152.013 145.085C152.326 145.624 152.649 146.163 152.94 146.713C152.11 147.144 151.259 147.521 150.397 147.887V147.941C151.388 151.874 152.196 157.025 152.455 161.087L152.509 161.13C152.563 165.128 152.649 170.591 151.636 174.46C151.054 178.059 149.674 181.787 148.22 185.106C147.81 186.032 146.84 187.326 146.668 188.252H146.614C146.193 186.248 143.37 183.705 141.775 182.638C138.347 180.343 134.274 179.276 130.243 180.181C125.415 181.259 120.899 185.214 118.345 189.491C118.291 189.578 118.248 189.653 118.205 189.739C117.967 189.653 115.726 186.722 115.241 186.248C113.355 184.405 111.253 183.263 108.764 182.52C107.75 182.552 106.727 182.541 105.714 182.617C105.358 182.207 105.056 181.55 104.776 181.065C103.429 178.727 102.286 176.334 101.144 173.899C99.2687 170.009 97.846 165.774 96.6605 161.615C95.96 159.201 94.5913 153.932 94.6452 151.454L94.4727 150.85C94.5697 150.15 94.4404 149.309 94.4081 148.609C94.3434 147.294 94.3003 145.98 94.2787 144.665C94.2572 143.2 94.2787 141.745 94.3111 140.28C94.3326 139.234 94.4296 138.157 94.3326 137.122C94.3111 136.217 94.5051 135.183 94.6128 134.278C94.8715 134.752 95.8199 134.935 96.3264 135.086C97.3287 135.366 98.3418 135.592 99.3657 135.786C100.39 135.969 101.413 136.109 102.448 136.206C103.483 136.303 105.401 136.174 106.263 136.476H106.296C112.137 136.433 117.752 135.506 123.421 134.084C124.8 133.739 126.579 133.383 127.807 132.65V132.607C128.712 132.112 129.801 131.853 130.771 131.497C132.183 130.991 133.573 130.42 134.942 129.795C136.99 128.857 138.8 127.457 140.837 126.53H140.848Z" fill="#F78004"/>
<path d="M148.888 141.853C149.782 142.855 150.871 144.374 152.002 145.085C152.315 145.624 152.638 146.163 152.929 146.713C152.099 147.144 151.248 147.521 150.386 147.887C149.998 146.098 148.888 143.588 148.888 141.842V141.853Z" fill="#EB6021"/>
<path d="M140.848 126.53C141.009 127.349 141.257 129.235 141.85 129.806L141.979 129.849C141.775 130.323 142.163 131.282 142.335 131.756C142.82 133.081 143.424 134.418 144.081 135.657C144.383 136.228 144.835 136.831 145.062 137.424C139.544 139.611 135.75 136.303 130.986 133.922C130.027 133.437 128.874 132.855 127.829 132.65V132.607C128.734 132.112 129.823 131.853 130.793 131.497C132.204 130.991 133.595 130.42 134.963 129.795C137.011 128.857 138.822 127.457 140.859 126.53H140.848Z" fill="#2D2423"/>
<path d="M94.6236 134.278C94.8823 134.752 95.8307 134.935 96.3372 135.086C97.3395 135.366 98.3526 135.592 99.3764 135.786C100.4 135.969 101.424 136.109 102.459 136.206C103.493 136.303 105.412 136.174 106.274 136.476C105.185 137.833 104 139.094 102.955 140.495C101.209 142.844 96.6282 150.161 94.6559 151.454L94.4835 150.85C94.5805 150.15 94.4512 149.309 94.4188 148.609C94.3542 147.294 94.3111 145.98 94.2895 144.665C94.2679 143.2 94.2895 141.745 94.3218 140.28C94.3434 139.234 94.4404 138.157 94.3434 137.122C94.3218 136.217 94.5158 135.183 94.6236 134.278Z" fill="#2D2423"/>
<path d="M96.6713 161.604C98.4604 160.57 100.077 159.482 101.478 157.93C106.565 152.294 108.667 142.51 116.415 139.805C124.305 137.047 130.717 143.62 137.27 146.917C141.721 149.159 145.665 149.622 150.364 147.952C151.367 151.885 152.175 157.035 152.433 161.098C148.748 160.333 145.525 158.889 142.421 156.701C140.514 155.365 138.66 153.921 136.645 152.768C130.372 149.169 123.033 148.469 116.89 152.682C114.12 154.579 111.943 157.391 110.531 160.484C108.095 165.828 107.632 171.906 101.155 173.899C99.2794 170.009 97.8568 165.774 96.6713 161.615V161.604Z" fill="#2D2423"/>
<path d="M101.165 173.888C107.643 171.895 108.106 165.818 110.542 160.473C111.954 157.38 114.131 154.568 116.9 152.671C123.044 148.458 130.383 149.169 136.655 152.758C138.671 153.911 140.524 155.354 142.432 156.691C145.547 158.867 148.758 160.322 152.444 161.087L152.498 161.13C152.552 165.128 152.638 170.591 151.625 174.46C151.043 178.059 149.664 181.787 148.209 185.106C147.799 186.032 146.829 187.326 146.657 188.252H146.603C146.183 186.248 143.359 183.705 141.764 182.638C138.337 180.343 134.263 179.276 130.232 180.181C125.404 181.259 120.888 185.214 118.334 189.491C118.28 189.578 118.237 189.653 118.194 189.739C117.957 189.653 115.715 186.722 115.23 186.248C113.344 184.405 111.242 183.263 108.753 182.52C107.74 182.552 106.716 182.541 105.703 182.617C105.347 182.207 105.045 181.55 104.765 181.065C103.418 178.727 102.276 176.334 101.133 173.899L101.165 173.888Z" fill="#FCD836"/>
<path d="M108.774 182.52C110.24 181.561 111.738 180.86 112.988 179.578C117.752 174.675 117.138 168.102 124.078 164.697C129.682 161.949 134.963 163.468 139.867 166.949C141.775 168.307 143.521 169.869 145.45 171.205C147.4 172.552 149.427 173.651 151.647 174.47C151.065 178.069 149.685 181.798 148.23 185.117C147.821 186.043 146.851 187.336 146.678 188.263H146.624C146.204 186.259 143.38 183.716 141.785 182.649C138.358 180.354 134.284 179.287 130.254 180.192C125.425 181.27 120.91 185.224 118.355 189.502C118.302 189.588 118.258 189.664 118.215 189.75C117.978 189.664 115.737 186.733 115.252 186.259C113.365 184.416 111.264 183.274 108.774 182.53V182.52Z" fill="#2D2423"/>
<path d="M105.423 67.7494C107.222 67.4692 109.27 67.6524 111.091 67.7494C111.846 67.7925 112.622 67.8787 113.376 67.8033C115.887 67.9865 118.463 68.3959 120.877 69.161C122.149 69.5597 123.378 70.0877 124.628 70.5403C126.902 71.4885 130.868 73.1695 132.571 74.9906C133.347 75.4862 135.438 76.7146 135.89 77.3827C138.369 79.2469 140.363 81.6929 142.389 84.0312C145.655 88.3845 148.252 93.3736 149.211 98.8476C149.685 101.541 149.825 104.408 149.47 107.134C149.146 110.679 147.842 113.815 146.236 116.918C145.008 119.483 142.378 122.144 140.32 123.976C140.481 124.827 140.654 125.679 140.837 126.519C138.811 127.446 137 128.847 134.942 129.784C133.573 130.409 132.183 130.98 130.771 131.487C129.801 131.832 128.712 132.101 127.807 132.597V132.64C126.579 133.372 124.8 133.728 123.421 134.073C117.752 135.495 112.137 136.422 106.296 136.476H106.263C105.401 136.174 103.493 136.303 102.448 136.206C101.413 136.109 100.39 135.969 99.3657 135.786C98.3418 135.603 97.3287 135.366 96.3264 135.086C95.8091 134.935 94.8715 134.752 94.6128 134.278C94.7529 132.834 95.0116 131.422 95.3241 130.021C94.5913 129.612 92.5867 129.332 91.6706 129.095C91.0563 128.933 90.4635 128.717 89.8708 128.491C82.7146 125.883 75.8817 121.767 71.0966 115.55C67.9496 111.455 65.1906 106.035 65.8372 100.647C66.3868 96.0675 69.7709 92.2099 73.1335 89.4729C72.9395 88.5677 72.9179 87.5764 73.0042 86.6605C73.2628 83.8157 74.7609 81.0141 76.8948 79.193C78.7485 77.6198 81.0333 76.7901 83.4367 77.0271C84.7623 76.0681 86.0017 74.9798 87.3489 74.0423C93.3303 69.8614 98.3526 68.4175 105.423 67.7494Z" fill="#2D2423"/>
<path d="M81.0333 97.1989C81.1303 97.1989 81.2273 97.1989 81.3243 97.1989C82.5421 97.2744 83.4367 97.9532 84.2234 98.8691C84.5036 99.1924 84.8593 99.5911 84.8377 100.044L84.6437 100.151C84.4605 100.119 84.2773 100.076 84.1049 100.022C83.0056 99.6881 81.3135 98.9338 80.7639 97.8562C80.7531 97.4791 80.807 97.4683 81.0225 97.1882L81.0333 97.1989Z" fill="black"/>
<path d="M103.504 103.352C104.269 103.319 105.175 103.266 105.886 103.61C106.134 103.729 106.231 103.815 106.328 104.074L106.199 104.311C105.52 104.774 104.797 104.806 104 104.903C103.278 104.903 101.543 105.13 101.004 104.645L101.025 104.429C101.64 103.74 102.642 103.524 103.504 103.341V103.352Z" fill="black"/>
<path d="M135.89 77.3935C138.369 79.2577 140.363 81.7037 142.389 84.042C145.655 88.3953 148.252 93.3844 149.211 98.8584C149.685 101.552 149.825 104.419 149.47 107.145C148.403 104.128 147.444 101.326 145.741 98.589C145.525 98.1149 145.18 97.6623 144.9 97.2205C145.116 96.2291 144.652 94.893 144.404 93.9339C143.262 89.5806 141.678 85.3889 139.199 81.6391C138.638 80.7986 138.003 79.9904 137.356 79.2146C136.914 78.6973 136.289 78.1262 135.966 77.5336C135.944 77.4905 135.912 77.4366 135.89 77.3935Z" fill="#29120D"/>
<path d="M78.0803 105.054C76.7008 104.063 72.142 101.434 71.7755 99.9359C71.8833 99.6665 71.9264 99.6342 72.1527 99.4618C72.6054 99.5157 74.4376 101.401 75.0626 101.843C76.9595 103.19 78.9317 104.3 81.0441 105.248C88.4158 108.535 96.6497 110.28 104.614 111.035C111.717 111.714 119.024 111.541 125.921 109.548C126.492 109.386 126.977 108.955 127.452 109.461C127.505 109.688 127.538 109.774 127.376 109.979C127.074 110.334 126.514 110.442 126.126 110.668C126.094 110.679 126.061 110.69 126.029 110.701C123.205 111.617 120.241 112.026 117.299 112.285C105.121 113.362 88.9547 110.97 78.0588 105.054H78.0803Z" fill="#29120D"/>
<path d="M135.685 89.6561C139.598 91.1 142.389 93.9232 144.911 97.2205C145.191 97.6623 145.536 98.1149 145.752 98.589C147.454 101.326 148.414 104.128 149.48 107.145C149.157 110.69 147.853 113.826 146.247 116.929C145.945 114.397 145.105 111.757 144.232 109.375L144.2 109.278C142.195 104.925 139.899 102.016 136.214 99.0631C137.13 96.6709 137.313 94.2141 136.494 91.7465C136.278 91.1 135.879 90.4642 135.729 89.8069C135.718 89.7638 135.707 89.7099 135.696 89.6668L135.685 89.6561Z" fill="#FCD836"/>
<path d="M145.741 98.589C147.444 101.326 148.403 104.128 149.47 107.145C149.146 110.69 147.842 113.826 146.236 116.929C145.935 114.397 145.094 111.757 144.221 109.375L144.189 109.278C144.512 108.75 144.706 108.104 144.911 107.511C145.924 104.526 146.01 101.714 145.752 98.5997L145.741 98.589Z" fill="#EAA712"/>
<path d="M83.4474 77.0271C85.1826 77.6521 86.7022 78.3525 87.5752 80.1736C88.3619 81.8115 88.2757 84.2144 87.6937 85.9062C87.6291 86.1001 87.5536 86.2618 87.4351 86.4342C86.9178 88.2229 85.4952 90.6582 83.8139 91.531C83.6953 91.5957 83.566 91.6388 83.4259 91.6711C83.4798 91.7681 83.4582 91.7034 83.4259 91.8866C82.596 92.7055 81.3997 93.3521 80.2897 93.6646C78.7701 94.0956 77.0888 94.074 75.7093 93.2335C74.3082 92.3823 73.5646 91.0245 73.1551 89.4513C72.9611 88.5462 72.9395 87.5548 73.0257 86.6389C73.2844 83.7942 74.7824 80.9925 76.9164 79.1715C78.7701 77.5982 81.0549 76.7685 83.4582 77.0056L83.4474 77.0271Z" fill="#EB6021"/>
<path d="M82.0787 77.8245C82.7146 77.6952 83.3074 77.8461 83.9324 77.9646C83.2319 78.1478 82.5529 78.3956 81.9278 78.7512C78.3066 80.7986 76.7978 84.5808 75.7093 88.4492L75.5476 88.7725L75.3644 88.8048C74.8687 88.4169 74.6747 87.4255 74.5669 86.8005C74.2543 84.9471 74.8687 83.2123 75.9033 81.6929C77.4121 79.4732 79.546 78.2771 82.1003 77.8245H82.0787Z" fill="#EAA712"/>
<path d="M82.0895 81.3912C82.8331 80.9817 83.9755 81.068 84.7623 81.3158C85.7215 81.6175 86.4651 82.3071 86.8962 83.2446C87.3704 84.2467 87.4566 85.3458 87.4243 86.4449C86.907 88.2337 85.4844 90.669 83.8031 91.5418C83.6846 91.6064 83.5552 91.6495 83.4259 91.6819C82.6284 91.8758 81.7554 91.865 81.001 91.5202C80.1819 91.1431 79.6107 90.4103 79.3197 89.5375C78.6407 87.5117 79.3521 85.1734 80.1927 83.32C80.2573 83.0614 80.3328 82.8136 80.4406 82.5765C80.7531 81.8546 81.4105 81.6391 82.0787 81.3912H82.0895Z" fill="black"/>
<path d="M82.0895 81.3912C82.5314 81.5313 82.8763 81.6283 83.1241 82.0701C83.3612 82.4903 83.372 82.986 83.2211 83.4386C83.0487 83.9558 82.693 84.4407 82.2081 84.6778C81.874 84.8394 81.4967 84.8609 81.1626 84.7101C80.6453 84.473 80.4082 83.9558 80.2358 83.4386C80.225 83.4062 80.2142 83.3739 80.2035 83.3416C80.2681 83.083 80.3436 82.8351 80.4513 82.5981C80.7639 81.8761 81.4213 81.6606 82.0895 81.4128V81.3912Z" fill="#FEFEFE"/>
<path d="M78.0803 105.054C88.9655 110.97 105.142 113.362 117.321 112.285C120.263 112.026 123.227 111.617 126.05 110.701C126.083 110.701 126.115 110.679 126.147 110.668C125.436 112.209 124.143 113.836 122.914 114.968C121.502 114.946 120.047 115.173 118.646 115.27C116.437 115.431 114.174 115.507 111.964 115.431C109.367 115.345 106.77 115.173 104.172 114.903C97.8892 114.257 92.1879 113.082 86.0664 115.668C84.9455 116.142 83.5876 116.757 82.7038 117.64C82.6823 117.662 82.6607 117.683 82.6391 117.705C82.6176 117.683 82.596 117.672 82.5745 117.651C79.4598 114.343 78.145 109.558 78.0911 105.054H78.0803Z" fill="#EE5315"/>
<path d="M82.6284 117.705C82.6284 117.705 82.6715 117.662 82.693 117.64C83.5768 116.757 84.9347 116.142 86.0556 115.668C92.1771 113.093 97.8784 114.267 104.162 114.903C106.748 115.173 109.346 115.345 111.954 115.431C114.163 115.507 116.426 115.431 118.636 115.27C120.047 115.162 121.502 114.946 122.903 114.968C116.685 121.121 108.311 125.355 99.5596 125.183C93.0393 125.064 87.1656 122.554 82.6176 117.705H82.6284Z" fill="#FED8C5"/>
<path d="M105.433 67.7494C107.233 67.4692 109.281 67.6524 111.102 67.7494C111.857 67.7925 112.633 67.8787 113.387 67.8033C115.898 67.9865 118.474 68.3959 120.888 69.161C122.16 69.5597 123.388 70.0877 124.639 70.5403C126.913 71.4885 130.879 73.1695 132.582 74.9906C130.857 74.4733 129.122 74.3009 127.322 74.3225C117.267 74.3979 107.319 79.8826 99.8183 86.4665C97.6844 88.3307 95.766 90.4319 93.8045 92.49C95.1732 83.1476 99.4303 74.8074 105.433 67.7602V67.7494Z" fill="#FCD836"/>
<path d="M136.203 99.0631C135.642 100.378 134.899 101.563 133.875 102.544C131.989 104.354 129.532 105.237 126.977 105.141C124.1 105.022 121.449 103.589 119.53 101.391C117.655 99.2463 116.717 96.5524 116.879 93.6753C117.041 91.0461 118.334 88.4169 120.252 86.6928C122.278 84.8609 124.951 84.0743 127.613 84.3006C130.06 84.5053 132.409 85.626 134.047 87.5225C134.608 88.169 135.039 88.9125 135.588 89.5591L135.685 89.6668C135.685 89.6668 135.707 89.7638 135.718 89.8069C135.869 90.4642 136.267 91.1 136.483 91.7465C137.302 94.2249 137.119 96.6709 136.203 99.0631Z" fill="#F78004"/>
<path d="M122.709 89.3112C123.852 89.2035 124.94 89.3759 125.932 90.0117C127.042 90.7336 127.732 91.8974 128.044 93.2012C128.411 94.7421 128.314 96.574 127.473 97.9424C126.719 99.1709 125.662 99.6881 124.326 99.9682C123.227 99.9898 122.235 99.8605 121.255 99.3109C121.179 99.2678 121.104 99.2247 121.028 99.1709C120.953 99.1278 120.877 99.0739 120.802 99.02C120.726 98.9661 120.662 98.9122 120.586 98.8584C120.522 98.8045 120.446 98.7506 120.382 98.686C120.317 98.6321 120.252 98.5674 120.188 98.5028C120.123 98.4381 120.058 98.3735 119.994 98.3088C119.929 98.2442 119.875 98.1795 119.81 98.1149C119.756 98.0502 119.692 97.9748 119.638 97.9101C119.584 97.8347 119.53 97.77 119.476 97.6946C119.422 97.6192 119.379 97.5437 119.325 97.4683C119.271 97.3929 119.228 97.3175 119.185 97.2313C119.142 97.1558 119.099 97.0696 119.056 96.9942C119.013 96.9188 118.98 96.8326 118.937 96.7464C118.905 96.6602 118.862 96.5847 118.83 96.4985C118.797 96.4123 118.765 96.3261 118.743 96.2399C118.711 96.1537 118.689 96.0675 118.668 95.9813C118.28 94.5913 118.409 93.0396 119.131 91.7896C119.95 90.3565 121.19 89.6884 122.699 89.3005L122.709 89.3112Z" fill="black"/>
<path d="M121.47 90.0332C121.783 90.0117 122.149 90.0009 122.451 90.1086C122.893 90.2703 123.238 90.6259 123.432 91.0676C123.658 91.5849 123.647 92.1668 123.432 92.684C123.205 93.2443 122.817 93.5137 122.289 93.7508C121.998 93.7831 121.664 93.7831 121.395 93.6969C120.964 93.546 120.576 93.1904 120.371 92.7702C120.123 92.2745 120.112 91.7034 120.295 91.1754C120.5 90.5827 120.964 90.3134 121.481 90.044L121.47 90.0332Z" fill="#FEFEFE"/>
<path d="M144.221 109.375C145.094 111.757 145.935 114.397 146.236 116.929C145.008 119.494 142.378 122.155 140.32 123.987C140.481 124.838 140.654 125.689 140.837 126.53C138.811 127.457 137 128.857 134.942 129.795C133.573 130.42 132.183 130.991 130.771 131.497C129.801 131.842 128.712 132.112 127.807 132.607V132.65C126.579 133.383 124.8 133.739 123.421 134.084C117.752 135.506 112.137 136.433 106.296 136.487H106.263C105.401 136.185 103.493 136.314 102.448 136.217C101.413 136.12 100.39 135.98 99.3657 135.797C98.3418 135.614 97.3287 135.377 96.3264 135.096C95.8091 134.946 94.8715 134.762 94.6128 134.288C94.7529 132.844 95.0116 131.433 95.3241 130.032C95.4858 129.913 95.572 129.892 95.7768 129.881C96.6174 129.838 97.5443 130.054 98.3849 130.172C99.3657 130.301 100.357 130.388 101.349 130.452C102.491 130.506 103.633 130.528 104.776 130.517C105.918 130.506 107.061 130.463 108.203 130.377C109.346 130.301 110.488 130.183 111.62 130.032C112.751 129.881 113.883 129.709 115.014 129.493C124.628 127.683 134.026 123.287 140.341 115.356C141.958 113.33 142.766 111.509 144.135 109.494L144.21 109.386L144.221 109.375Z" fill="#29120D"/>
<path d="M126.234 131.972C126.751 132.209 127.29 132.403 127.818 132.607V132.65C126.589 133.383 124.811 133.739 123.432 134.084C117.763 135.506 112.148 136.433 106.306 136.487L107.847 134.719C113.958 134.719 120.382 133.836 126.234 131.982V131.972Z" fill="#E03102"/>
<path d="M151.625 174.47C153.748 175.128 155.774 175.591 158.005 175.505C158.824 175.472 159.665 175.311 160.473 175.311C160.366 177.875 160.182 180.386 159.719 182.918C165.291 186.399 171.951 192.368 173.546 199.179C174.29 202.347 173.299 205.461 171.682 208.155C169.559 211.657 166.778 214.738 164.105 217.799C162.963 219.113 161.627 220.428 160.678 221.904C159.547 223.671 158.954 226.074 158.167 228.046C156.744 231.635 155.236 235.287 153.544 238.746C152.714 236.785 151.959 234.749 150.979 232.863C148.812 234.081 146.592 235.201 144.394 236.365C145.051 233.294 146.107 230.32 146.862 227.27C144.588 227.357 142.314 227.486 140.05 227.68C141.462 225.094 143.273 222.831 144.857 220.363C143.337 219.383 141.678 218.391 140.309 217.185C142.217 216.71 144.081 216.064 145.967 215.482C147.303 215.062 148.726 214.706 150.009 214.146C154.417 212.228 159.751 208.273 162.23 204.071C162.316 203.92 162.403 203.769 162.489 203.607C160.56 201.872 156.583 200.278 154.201 199.179C152.326 202.228 150.44 205.148 148.123 207.864C141.085 216.118 131.03 221.85 121.104 225.557C118.431 226.548 115.693 227.346 112.977 228.176C113.894 233.639 116.48 238.218 120.349 242.033C121.546 243.207 122.85 244.231 124.078 245.363L116.642 246.322C117.191 248.218 117.795 250.104 118.226 252.033C115.726 250.804 113.118 249.748 110.693 248.358C110.283 249.317 109.065 252.69 108.516 253.218C108.332 253.035 108.149 252.852 107.977 252.658C104.075 247.345 102.329 241.225 101.489 234.695C101.327 233.229 101.219 231.764 101.133 230.298C100.68 230.352 100.228 230.395 99.7752 230.428C83.9755 231.818 68.7363 225.029 57.3554 213.93C53.5941 210.267 50.5656 205.87 46.5996 202.433C36.6305 193.78 23.2773 196.118 12.9634 202.735C12.1982 203.219 8.27519 206.247 8.03809 206.269L8.07042 206.064C8.70628 203.489 10.8618 199.739 12.5538 197.692L12.6185 197.724C13.1142 197.702 16.4121 195.278 17.0911 194.815C16.7139 194.308 16.4768 193.823 16.0134 193.392L16.66 192.67C19.3974 189.879 22.2858 187.229 25.7777 185.472C32.7399 181.183 41.4264 180.806 49.1969 182.433C52.2577 183.392 55.1891 184.448 58.0236 185.979C60.8365 187.444 64.2314 189.459 66.6024 191.582C68.7902 193.349 70.9349 195.149 73.0581 197.013C74.9656 198.704 76.9056 200.116 79.0395 201.474C81.8847 203.133 84.7839 204.362 88.0063 205.019C90.3558 205.515 92.6837 205.655 95.0762 205.622C96.057 205.428 97.0808 205.396 98.0724 205.224C100.627 204.782 103.019 203.963 105.369 202.853C106.263 202.293 107.125 201.7 107.977 201.075C109.367 199.922 110.725 198.597 111.458 196.883C112.234 195.095 112.018 193.705 111.361 191.937C109.766 188.662 107.492 185.817 105.703 182.66C106.705 182.584 107.74 182.606 108.753 182.563C111.242 183.306 113.344 184.448 115.23 186.291C115.715 186.765 117.957 189.696 118.194 189.782C118.237 189.696 118.28 189.61 118.334 189.535C120.888 185.257 125.404 181.302 130.232 180.224C134.263 179.33 138.337 180.386 141.764 182.681C143.359 183.748 146.183 186.291 146.603 188.295H146.657C146.829 187.379 147.799 186.097 148.209 185.16C149.653 181.841 151.043 178.102 151.625 174.513V174.47Z" fill="#29120D"/>
<path d="M146.614 188.252H146.668C148.306 192.131 148.187 196.409 146.721 200.332C145.148 204.523 142.335 207.519 138.369 209.318C139.501 206.043 140.352 203.392 139.641 199.901C142.27 196.183 144.329 192.185 146.614 188.252Z" fill="#EB6021"/>
<path d="M101.51 234.662C105.401 234.759 109.453 234.781 112.837 237.076C114.54 238.229 116.049 239.77 117.579 241.149C118.733 242.195 120.037 243.057 121.179 244.091C120.532 244.63 116.243 244.975 115.111 245.287C115.402 246.677 115.726 248.078 115.995 249.479C115.262 249.102 110.747 246.634 110.391 246.699L110.229 246.623C109.27 248.013 108.914 251.58 107.998 252.614C104.097 247.302 102.351 241.182 101.51 234.652V234.662Z" fill="#2D2423"/>
<path d="M118.205 189.739C118.248 189.653 118.291 189.567 118.345 189.491C120.899 185.214 125.415 181.259 130.243 180.181C134.274 179.287 138.347 180.343 141.775 182.638C143.37 183.705 146.193 186.248 146.614 188.252C144.318 192.185 142.27 196.183 139.641 199.901C139.274 198.888 138.811 197.918 138.207 197.023C138.121 196.894 138.024 196.754 137.927 196.625C137.83 196.495 137.733 196.366 137.625 196.248C137.528 196.118 137.421 196 137.313 195.881C137.205 195.763 137.097 195.644 136.979 195.536C136.86 195.418 136.752 195.31 136.634 195.202C136.515 195.095 136.397 194.987 136.267 194.89C136.138 194.793 136.02 194.696 135.89 194.599C135.761 194.502 135.632 194.416 135.502 194.33C135.373 194.243 135.233 194.157 135.093 194.071C134.953 193.985 134.812 193.909 134.672 193.834C134.532 193.759 134.392 193.694 134.241 193.618C134.09 193.543 133.95 193.489 133.799 193.435C133.649 193.381 133.508 193.317 133.358 193.274C133.207 193.22 133.056 193.177 132.905 193.134C132.754 193.09 132.603 193.047 132.441 193.015C132.291 192.983 132.129 192.95 131.978 192.918C127.786 192.207 124.111 194.761 120.856 197.131C120.597 194.437 119.606 192.002 118.194 189.75L118.205 189.739Z" fill="#FCD836"/>
<path d="M25.7884 185.429C32.7506 181.14 41.4372 180.763 49.2077 182.39C52.2685 183.349 55.1999 184.405 58.0344 185.935C60.8473 187.401 64.2421 189.416 66.6132 191.539C68.801 193.306 70.9457 195.116 73.0688 196.97C74.9764 198.661 76.9164 200.073 79.0503 201.431C81.8955 203.09 84.7946 204.319 88.0171 204.976C90.3665 205.472 92.6945 205.612 95.087 205.579C96.0678 205.385 97.0916 205.353 98.0831 205.181C100.637 204.739 103.03 203.92 105.379 202.81C106.274 202.25 107.136 201.657 107.988 201.032C109.378 199.879 110.736 198.554 111.469 196.84C112.245 195.052 112.029 193.662 111.372 191.894C109.777 188.619 107.503 185.774 105.714 182.617C106.716 182.541 107.75 182.563 108.764 182.52C111.253 183.263 113.355 184.405 115.241 186.248C115.726 186.722 117.967 189.653 118.205 189.739C119.616 191.991 120.608 194.437 120.867 197.12C120.888 198.198 121.028 199.265 120.985 200.353C120.845 203.532 119.39 206.592 117.278 208.877C111.598 215.008 100.777 218.23 92.6837 218.381C92.2634 218.391 91.843 218.402 91.4227 218.391C91.0024 218.391 90.5821 218.391 90.1618 218.37C89.7414 218.359 89.3211 218.338 88.9008 218.305C88.4805 218.273 88.0602 218.241 87.6399 218.197C87.2195 218.154 86.7992 218.1 86.3897 218.047C85.9694 217.993 85.5598 217.928 85.1395 217.863C84.7192 217.799 84.3096 217.723 83.9001 217.637C83.4906 217.551 83.0703 217.465 82.6607 217.368C82.2512 217.271 81.8416 217.174 81.4321 217.055C81.0225 216.947 80.6238 216.829 80.2142 216.71C79.8155 216.592 79.4059 216.463 79.0072 216.322C78.6084 216.182 78.2096 216.042 77.8109 215.891C77.4121 215.741 77.0241 215.59 76.6361 215.428C76.2482 215.266 75.8602 215.094 75.4722 214.922C75.0842 214.749 74.707 214.566 74.319 214.383C73.9418 214.2 73.5646 214.006 73.1874 213.801C67.3784 210.665 62.2376 206.086 57.1937 201.797C53.3462 198.532 49.5526 195.159 44.9183 193.134C42.1377 191.927 39.2386 191.366 36.2425 191.226C35.8437 191.205 35.4342 191.194 35.0354 191.194C34.6367 191.194 34.2271 191.194 33.8284 191.215C33.4296 191.237 33.0201 191.259 32.6213 191.291C32.2225 191.323 31.813 191.366 31.4142 191.42C31.0155 191.474 30.6167 191.539 30.2179 191.603C29.8192 191.679 29.4204 191.754 29.0324 191.84C28.6337 191.927 28.2457 192.034 27.8577 192.131C27.4697 192.239 27.0817 192.358 26.6937 192.476C20.9925 194.33 15.1727 197.993 11.0126 202.433C10.1289 203.381 8.86794 205.267 8.07042 205.989C8.70628 203.413 10.8618 199.663 12.5538 197.616L12.6185 197.648C13.1142 197.627 16.4121 195.202 17.0911 194.739C16.7139 194.233 16.4768 193.748 16.0134 193.317L16.66 192.595C19.3974 189.804 22.2858 187.153 25.7777 185.397L25.7884 185.429Z" fill="#F78004"/>
<path d="M25.7884 185.429C26.9524 185.763 28.0301 186.043 28.6552 187.229C28.9462 187.778 29.1294 188.446 29.2911 189.05C28.2026 189.438 27.0817 189.718 25.9824 190.106C25.2711 190.375 24.5706 190.655 23.8701 190.968C23.1803 191.28 22.4906 191.603 21.8116 191.948C21.1326 192.293 20.4752 192.67 19.8178 193.058C19.1603 193.446 18.5245 193.855 17.8886 194.287C17.6407 194.437 17.3605 194.664 17.0911 194.771C16.7139 194.265 16.4768 193.78 16.0134 193.349L16.66 192.627C19.3974 189.836 22.2858 187.185 25.7777 185.429H25.7884Z" fill="#E03102"/>
<path d="M16.6708 192.627C17.2959 193.09 17.5761 193.597 17.8994 194.297C17.6515 194.448 17.3713 194.674 17.1019 194.782C16.7247 194.276 16.4876 193.791 16.0241 193.36L16.6708 192.638V192.627Z" fill="#EB6021"/>
<path d="M36.9107 182.196C38.5704 182.078 40.8552 183.058 42.127 184.125C43.4418 185.224 43.7759 186.733 43.9591 188.382C42.6874 187.983 41.4588 187.724 40.1439 187.563C38.9907 187.509 37.8483 187.519 36.7059 187.606C35.8976 187.66 35.0354 187.789 34.2379 187.724C33.8176 187.692 33.3649 187.573 33.0201 187.315C32.7291 187.11 32.5566 186.819 32.5135 186.463C32.4273 185.666 32.977 184.545 33.4619 183.953C34.3349 182.897 35.6066 182.347 36.9107 182.207V182.196Z" fill="#E03102"/>
<path d="M67.5939 204.34C65.7833 202.767 63.5416 201.043 63.1536 198.457C62.8734 196.646 63.6386 194.674 64.8888 193.392C65.4061 192.864 66.1282 192.325 66.527 191.7C66.5593 191.647 66.5916 191.582 66.6347 191.528C68.8225 193.295 70.9672 195.095 73.0904 196.959C70.3853 199.405 68.4884 200.526 67.6047 204.34H67.5939Z" fill="#E03102"/>
<path d="M49.2077 182.39C52.2685 183.349 55.1999 184.405 58.0344 185.935C57.905 189.653 57.4201 193.274 57.6895 197.002C56.4932 195.353 55.1568 193.543 53.551 192.293C52.7319 191.657 51.7296 191.259 51.0183 190.483C49.2077 188.511 49.0999 184.923 49.1969 182.401L49.2077 182.39Z" fill="#E03102"/>
<path d="M105.39 202.788C104.711 206.258 101.855 209.135 99.107 211.01C97.0701 212.4 94.1171 213.909 91.5844 213.359C91.0347 213.241 90.5605 212.95 90.2695 212.443C89.957 211.883 89.9354 211.215 90.1079 210.601C90.7976 208.208 93.298 206.948 95.087 205.558C96.0678 205.364 97.0916 205.331 98.0831 205.159C100.637 204.717 103.03 203.898 105.379 202.788H105.39Z" fill="#E03102"/>
<path d="M111.382 191.894C113.204 192.519 114.67 194.653 115.499 196.334C116.48 198.327 116.89 200.601 116.189 202.756C115.295 205.493 112.891 207.26 110.477 208.467C109.68 208.855 108.861 209.211 108.031 209.512C108.3 206.614 108.429 203.941 107.988 201.032C109.378 199.879 110.736 198.554 111.469 196.84C112.245 195.052 112.029 193.662 111.372 191.894H111.382Z" fill="#E03102"/>
<path d="M79.0611 201.409C81.9063 203.069 84.8054 204.297 88.0278 204.954C86.4759 207.099 84.3096 209.275 81.9063 210.364C80.1927 211.129 78.3282 211.183 76.6038 210.461C75.1273 209.836 73.4784 208.575 72.8964 207.002C72.5946 206.193 72.6162 205.331 72.9826 204.545C74.0819 202.174 76.9164 202.228 78.9856 201.463C79.0179 201.452 79.0503 201.441 79.0826 201.431L79.0611 201.409Z" fill="#E03102"/>
</g>
<defs>
<filter id="filter0_d_719_9887" x="2.03809" y="44.9072" width="204.243" height="218.311" filterUnits="userSpaceOnUse" color-interpolation-filters="sRGB">
<feFlood flood-opacity="0" result="BackgroundImageFix"/>
<feColorMatrix in="SourceAlpha" type="matrix" values="0 0 0 0 0 0 0 0 0 0 0 0 0 0 0 0 0 0 127 0" result="hardAlpha"/>
<feOffset dx="2" dy="2"/>
<feGaussianBlur stdDeviation="4"/>
<feComposite in2="hardAlpha" operator="out"/>
<feColorMatrix type="matrix" values="0 0 0 0 0 0 0 0 0 0 0 0 0 0 0 0 0 0 0.25 0"/>
<feBlend mode="normal" in2="BackgroundImageFix" result="effect1_dropShadow_719_9887"/>
<feBlend mode="normal" in="SourceGraphic" in2="effect1_dropShadow_719_9887" result="shape"/>
</filter>
<linearGradient id="paint0_linear_719_9887" x1="79.159" y1="262.693" x2="186.021" y2="58.3128" gradientUnits="userSpaceOnUse">
<stop stop-color="#1C0200"/>
<stop offset="1" stop-color="#3E1408"/>
</linearGradient>
<clipPath id="clip0_719_9887">
<rect width="207" height="303.466" fill="white"/>
</clipPath>
</defs>
</svg>
