<svg width="115" height="107" viewBox="0 0 115 107" fill="none" xmlns="http://www.w3.org/2000/svg">
<path d="M56.001 107C43.2377 107 17.3645 62.2163 6.52143 42.0354C1.32369 32.3509 -2.6035 22.7969 2.11779 19.6798C3.79261 18.578 10.9106 20.0133 17.0613 29.2919C28.2076 46.1238 40.5089 76.2647 42.2559 75.2788C44.9558 73.7421 40.018 60.868 36.2785 44.616C31.947 25.7109 33.1165 2.1955 38.9062 1.02118C44.696 -0.153146 50.7744 12.9239 53.0845 31.2926C55.8422 53.2277 53.792 79.6572 58.239 79.7587C60.7079 79.8166 58.5566 45.0365 62.3105 23.0288C65.2848 5.48649 74.3086 -0.399608 75.9257 0.0208277C77.5428 0.441264 83.6357 9.90832 82.5528 26.0589C81.109 47.6895 67.1184 76.7576 71.9841 77.5115C76.8498 78.2654 86.7832 42.9633 98.6514 23.1738C104.687 13.1123 110.707 9.96631 112.122 10.7202C113.335 11.3726 117.277 23.5942 113.191 35.2215C103.257 63.5356 74.9728 107 56.001 107Z" fill="#027B72"/>
</svg>
