<svg width="90" height="156" viewBox="0 0 90 156" fill="none" xmlns="http://www.w3.org/2000/svg">
<path d="M75.3329 109C76.481 106.947 77.997 104.902 78.7368 102.662C79.1231 101.52 79.3141 100.698 78.4668 99.7668C76.423 99.1754 73.5719 100.921 71.8031 101.951C68.5455 103.829 63.4356 109.088 61.1174 110.026C60.6642 110.211 60.3402 110.297 59.8755 110.149C58.822 109.792 58.2793 108.747 57.8748 107.751C56.8894 105.323 56.6006 102.265 56.1398 99.6654C54.976 92.9985 54.0448 86.1422 51.6066 79.8372C51.0442 78.3709 50.5128 76.7388 49.348 75.6623C48.9109 75.6295 48.867 75.5354 48.4815 75.8187C45.1865 78.2908 43.5682 91.8537 43.1743 96.2549C43.0234 97.9798 43.1677 102.335 41.8754 103.515C40.7035 103.724 39.721 102.988 38.8106 102.327C34.0284 98.8075 22.8979 85.7365 17.8578 84.8411C17.4514 84.9733 17.1734 84.9457 16.9389 85.3432C16.0475 86.8803 17.1613 89.8721 17.6584 91.4242C19.3405 96.7047 21.7527 101.374 24.6628 106.015C25.8671 107.932 27.3582 109.83 28.3433 111.866C28.7677 112.754 29.2796 114.162 28.9296 115.176C28.7005 115.807 28.3031 116.088 27.7124 116.284C25.1176 117.122 11.2763 111.683 5.54656 114.337L5.20214 114.861C6.01666 118.201 14.5361 123.525 17.5308 125.349C21.8626 127.987 48.0432 158.112 61.2692 152.512C67.4078 149.91 65.4951 140.013 66.9704 131.352C68.6661 121.384 73.3708 112.506 75.3352 108.988L75.3329 109Z" fill="#B4E296"/>
<path d="M57.8691 68.1987C55.68 68.0691 53.3129 68.2313 51.1809 67.6887C50.0899 67.4194 49.3474 67.157 49.0385 66.0274C49.5952 64.1316 52.3945 62.7744 54.0888 61.9054C57.1953 60.2964 68.4561 60.9136 69.5958 57.508C70.7356 54.1023 50.5321 40.0883 46.7912 35.0222C45.919 33.8477 44.9007 32.6144 44.6363 31.1635C44.829 30.8049 44.777 30.7234 45.1926 30.5636C48.785 29.2226 60.2639 34.7486 63.9231 36.6445C65.3555 37.3903 69.8918 41.2621 71.4662 40.8416C72.217 40.0292 72.1295 38.8917 72.0647 37.8481C71.6869 32.3422 65.7874 15.5059 67.6032 11.1125C67.9104 10.8606 68.0278 10.6292 68.4577 10.6446C70.1126 10.7168 71.9092 13.0869 72.8817 14.2533C76.1947 18.2146 78.662 22.4413 80.8572 27.043C81.7636 28.946 82.5109 31.0636 83.6199 32.8543C84.1068 33.6316 84.9583 34.7372 85.9305 34.9708C86.5417 35.1077 86.9616 34.9374 87.411 34.5731C89.3675 32.9617 92.0105 19.4043 96.9629 16.2484L97.5473 16.2412C99.7677 18.5516 97.3988 33.9878 98.4658 41.3942C99.5329 48.8006 111.405 58.5303 98.1205 73.7548C94.0376 78.4234 87.1861 76.0307 79.6452 72.852C70.9553 69.1868 61.6191 68.4232 57.8691 68.1987Z" fill="#FCD836"/>
</svg>
