<svg width="198" height="36" viewBox="0 0 198 36" fill="none" xmlns="http://www.w3.org/2000/svg">
<path d="M12.1008 35.9822C11.2128 35.9822 10.3248 35.9109 9.40204 35.7862C8.49666 35.6437 7.60869 35.4478 6.75554 35.1628C5.90239 34.8778 5.08407 34.5215 4.33539 34.0762C3.5867 33.6309 2.92508 33.0787 2.36792 32.4374C1.81076 31.7961 1.37548 31.048 1.04467 30.2108C0.713859 29.3736 0.557158 28.4117 0.557158 27.3429C0.557158 26.8085 0.626803 26.2207 0.748681 25.5616C0.870559 24.9203 1.06208 24.2969 1.34066 23.7269C1.61924 23.139 1.96746 22.6581 2.40274 22.284C2.83802 21.8921 3.39518 21.714 4.02198 21.714C4.70102 21.714 5.34523 21.8743 5.97204 22.1771C6.59884 22.48 7.24305 22.8362 7.86986 23.1925C8.49666 23.5487 9.15828 23.905 9.81991 24.2078C10.4815 24.5106 11.178 24.671 11.9267 24.671C12.2401 24.671 12.5361 24.6175 12.8146 24.5106C13.0932 24.4038 13.337 24.2434 13.5459 24.0653C13.7548 23.8694 13.9289 23.6378 14.0508 23.3528C14.1727 23.0678 14.2423 22.7828 14.2423 22.4621C14.2423 21.9099 14.0856 21.4646 13.7548 21.1262C13.424 20.7877 13.0062 20.5205 12.4838 20.3246C11.9615 20.1287 11.3869 19.9683 10.7427 19.8793C10.0985 19.7902 9.45427 19.719 8.82747 19.6655C8.20067 19.6121 7.59128 19.5764 7.03412 19.5408C6.47696 19.5052 6.00686 19.4339 5.64122 19.3449C3.81305 18.8639 2.40274 17.9377 1.44513 16.5839C0.470102 15.2301 0 13.5913 0 11.6675C0 10.2603 0.243757 8.99555 0.73127 7.87333C1.21878 6.75111 1.863 5.75359 2.69873 4.89857C3.51706 4.04354 4.49209 3.2954 5.57158 2.67194C6.66848 2.04849 7.80021 1.54973 9.01899 1.15784C10.2204 0.765957 11.4566 0.48095 12.7102 0.285007C13.9638 0.0890648 15.1651 0 16.3143 0C16.8366 0 17.4112 0.017813 18.0554 0.0712519C18.6996 0.124691 19.3438 0.195943 20.0055 0.30282C20.6671 0.427511 21.2939 0.587828 21.9033 0.801583C22.5127 1.01534 23.0698 1.31816 23.5399 1.67442C24.01 2.03068 24.3931 2.476 24.6891 2.99258C24.9676 3.50915 25.1243 4.13261 25.1243 4.84513C25.1243 5.27264 25.1069 5.73577 25.0547 6.25235C25.0199 6.76893 24.9502 7.30332 24.8458 7.85552C24.7413 8.40772 24.602 8.9243 24.4279 9.44087C24.2538 9.95745 24.01 10.4028 23.7314 10.8125C23.4355 11.2222 23.1046 11.5428 22.7042 11.7744C22.3037 12.0238 21.8336 12.1484 21.2939 12.1484C20.8934 12.1484 20.493 12.0772 20.0577 11.9169C19.6224 11.7744 19.1871 11.5962 18.7344 11.4181C18.2817 11.24 17.7942 11.0619 17.3067 10.9193C16.8192 10.7768 16.3143 10.6878 15.7745 10.6878C15.5656 10.6878 15.3218 10.7056 15.0433 10.759C14.7647 10.8125 14.5035 10.8659 14.2772 10.9728C14.0508 11.0797 13.8419 11.2222 13.6852 11.4003C13.5285 11.5784 13.4414 11.8278 13.4414 12.1128C13.4414 12.6828 13.6504 13.1282 14.0682 13.4666C14.4861 13.805 15.0433 14.0901 15.7223 14.3038C16.4013 14.5354 17.1674 14.7313 18.038 14.8916C18.9085 15.052 19.7965 15.2657 20.7019 15.5151C21.6073 15.7645 22.4953 16.0851 23.3658 16.477C24.2364 16.8689 25.0025 17.3855 25.6815 18.0267C26.3605 18.668 26.9177 19.4874 27.3356 20.4671C27.7534 21.4468 27.9624 22.6581 27.9624 24.0831C27.9624 25.5082 27.736 26.6838 27.2659 27.7882C26.7958 28.9104 26.169 29.908 25.3681 30.7986C24.5672 31.6893 23.6444 32.4552 22.5997 33.0965C21.555 33.7378 20.4407 34.29 19.2742 34.7175C18.1076 35.1628 16.9063 35.4834 15.6701 35.6794C14.4339 35.8931 13.2673 36 12.1356 36L12.1008 35.9822Z" fill="#2D2423"/>
<path d="M40.0283 35.8753C39.0533 35.8753 38.0609 35.8397 37.0162 35.7862C35.9715 35.7328 34.9791 35.5547 34.0563 35.2697C33.4121 35.0915 32.9245 34.7175 32.5937 34.1831C32.2629 33.6309 32.0018 33.0609 31.8276 32.4374C31.4098 30.9589 31.0616 29.4092 30.7656 27.806C30.4696 26.1851 30.2432 24.5463 30.0691 22.8897C29.895 21.2331 29.7731 19.5764 29.6861 17.9377C29.599 16.2989 29.5642 14.7135 29.5642 13.1816C29.5642 12.7363 29.5642 12.1663 29.5816 11.4715C29.5816 10.7768 29.6338 10.0465 29.7035 9.26274C29.7731 8.47897 29.8602 7.6952 29.9821 6.8758C30.1039 6.05641 30.2781 5.29045 30.5044 4.57793C30.7307 3.86541 31.0093 3.22415 31.3227 2.67194C31.6535 2.11974 32.0366 1.71004 32.5067 1.46066C32.7853 1.31816 33.0987 1.21128 33.4643 1.15784C33.8299 1.1044 34.1607 1.08659 34.4741 1.08659C34.9442 1.08659 35.5362 1.14003 36.2153 1.26472C36.9117 1.38941 37.5733 1.56754 38.2524 1.79911C38.914 2.04849 39.506 2.35131 40.0283 2.7432C40.5507 3.13508 40.8815 3.59822 41.0382 4.13261C41.1252 4.45324 41.1775 4.77387 41.1949 5.13013C41.2123 5.46858 41.2297 5.80703 41.2297 6.12766C41.2297 7.26769 41.1949 8.40772 41.1252 9.52994C41.0556 10.6522 41.0208 11.7922 41.0208 12.9322V14.1969C41.0208 14.8204 41.0208 15.5329 41.0556 16.3345C41.073 17.1361 41.1252 17.9911 41.16 18.8817C41.1949 19.7724 41.2819 20.5918 41.3864 21.3577C41.4909 22.1237 41.6127 22.765 41.7694 23.3172C41.9261 23.8694 42.1177 24.19 42.3266 24.3147C42.6226 24.4572 42.936 24.5463 43.2842 24.5463C43.7369 24.5463 44.1896 24.4928 44.6075 24.4038C45.0253 24.2969 45.478 24.2613 45.9307 24.2613C46.6272 24.2613 47.1669 24.475 47.5848 24.8847C48.0026 25.3122 48.316 25.8288 48.5424 26.4523C48.7687 27.0757 48.908 27.717 48.9777 28.4117C49.0473 29.1064 49.0821 29.712 49.0821 30.2464C49.0821 31.6002 48.8036 32.669 48.2638 33.4349C47.7066 34.2009 46.9928 34.7709 46.1222 35.145C45.2517 35.5191 44.2766 35.7328 43.1972 35.8219C42.1177 35.9109 41.0556 35.9466 40.0109 35.9466L40.0283 35.8753Z" fill="#2D2423"/>
<path d="M62.1231 34.5928C60.6257 34.5928 59.2677 34.3612 58.0489 33.8981C56.8301 33.4349 55.7332 32.8115 54.7756 31.9921C53.818 31.1905 52.9996 30.2464 52.2858 29.142C51.5893 28.0554 50.9974 26.8798 50.5447 25.6329C50.092 24.386 49.7438 23.0856 49.5174 21.714C49.2911 20.3602 49.1866 19.0064 49.1866 17.6883C49.1866 16.3701 49.2911 14.9985 49.5174 13.6269C49.7438 12.2553 50.0746 10.9372 50.5273 9.67244C50.98 8.38991 51.5545 7.19644 52.251 6.07422C52.9474 4.952 53.7832 3.97229 54.7408 3.13508C55.6984 2.29787 56.7953 1.63879 58.0141 1.15784C59.2503 0.676893 60.6083 0.445324 62.1231 0.445324C63.6379 0.445324 65.0308 0.676893 66.2844 1.15784C67.5206 1.62098 68.6349 2.26225 69.6099 3.08164C70.585 3.90104 71.4207 4.86294 72.1345 5.96734C72.8484 7.07175 73.4404 8.26522 73.9105 9.52994C74.3806 10.7947 74.7288 12.1306 74.9552 13.5022C75.1815 14.8738 75.3034 16.2454 75.3034 17.5992C75.3034 18.953 75.1815 20.289 74.9552 21.6606C74.7288 23.0322 74.3806 24.3325 73.8931 25.5972C73.423 26.8619 72.8136 28.0198 72.0997 29.1242C71.3684 30.2108 70.5327 31.1727 69.5577 31.9743C68.5827 32.7937 67.4683 33.4171 66.2322 33.8803C64.996 34.3434 63.6205 34.575 62.1231 34.575V34.5928ZM62.2102 24.0119C62.9066 24.0119 63.4638 23.7981 63.8991 23.3884C64.3343 22.9787 64.6826 22.4621 64.9263 21.8387C65.1875 21.2331 65.3616 20.574 65.4486 19.8971C65.5531 19.2024 65.5879 18.5967 65.5879 18.0623C65.5879 17.5636 65.5357 16.9401 65.4486 16.2276C65.3442 15.4973 65.1701 14.8026 64.9263 14.1257C64.6826 13.4488 64.3517 12.861 63.9165 12.3978C63.4986 11.9169 62.9589 11.6853 62.2972 11.6853C61.6356 11.6853 61.0784 11.8991 60.6083 12.3266C60.1382 12.7541 59.7726 13.2885 59.494 13.9119C59.2154 14.5354 59.0065 15.1945 58.8846 15.907C58.7628 16.6195 58.6931 17.2251 58.6931 17.7595C58.6931 18.1158 58.7105 18.5077 58.7628 18.953C58.815 19.3983 58.902 19.8615 59.0065 20.3246C59.1284 20.7877 59.2677 21.2509 59.4418 21.6962C59.6159 22.1415 59.8422 22.5334 60.1034 22.8897C60.3646 23.2459 60.6606 23.5309 61.0088 23.7269C61.357 23.9406 61.7575 24.0475 62.1928 24.0475L62.2102 24.0119Z" fill="#2D2423"/>
<path d="M88.4837 35.8753C87.5086 35.8753 86.5162 35.8397 85.4715 35.7862C84.4268 35.7328 83.4344 35.5547 82.5116 35.2697C81.8674 35.0915 81.3799 34.7175 81.0491 34.1831C80.7183 33.6309 80.4571 33.0609 80.283 32.4374C79.8651 30.9589 79.5169 29.4092 79.2209 27.806C78.9249 26.1851 78.6986 24.5463 78.5245 22.8897C78.3503 21.2331 78.2285 19.5764 78.1414 17.9377C78.0543 16.2989 78.0195 14.7135 78.0195 13.1816C78.0195 12.7363 78.0195 12.1663 78.0369 11.4715C78.0369 10.7768 78.0892 10.0465 78.1588 9.26274C78.2285 8.47897 78.3155 7.6952 78.4374 6.8758C78.5593 6.05641 78.7334 5.29045 78.9597 4.57793C79.1861 3.86541 79.4647 3.22415 79.7781 2.67194C80.1089 2.11974 80.4919 1.71004 80.962 1.46066C81.2406 1.31816 81.554 1.21128 81.9196 1.15784C82.2853 1.1044 82.6161 1.08659 82.9295 1.08659C83.3996 1.08659 83.9916 1.14003 84.6706 1.26472C85.367 1.38941 86.0287 1.56754 86.7077 1.79911C87.3693 2.04849 87.9613 2.35131 88.4837 2.7432C89.006 3.13508 89.3368 3.59822 89.4935 4.13261C89.5806 4.45324 89.6328 4.77387 89.6502 5.13013C89.6676 5.46858 89.685 5.80703 89.685 6.12766C89.685 7.26769 89.6502 8.40772 89.5806 9.52994C89.5109 10.6522 89.4761 11.7922 89.4761 12.9322V14.1969C89.4761 14.8204 89.4761 15.5329 89.5109 16.3345C89.5283 17.1361 89.5806 17.9911 89.6154 18.8817C89.6502 19.7724 89.7373 20.5918 89.8417 21.3577C89.9462 22.1237 90.0681 22.765 90.2248 23.3172C90.3815 23.8694 90.573 24.19 90.7819 24.3147C91.0779 24.4572 91.3913 24.5463 91.7395 24.5463C92.1922 24.5463 92.6449 24.4928 93.0628 24.4038C93.4807 24.2969 93.9333 24.2613 94.386 24.2613C95.0825 24.2613 95.6222 24.475 96.0401 24.8847C96.458 25.3122 96.7714 25.8288 96.9977 26.4523C97.2241 27.0757 97.3634 27.717 97.433 28.4117C97.5026 29.1064 97.5375 29.712 97.5375 30.2464C97.5375 31.6002 97.2589 32.669 96.7191 33.4349C96.162 34.2009 95.4481 34.7709 94.5776 35.145C93.707 35.5191 92.732 35.7328 91.6525 35.8219C90.573 35.9109 89.5109 35.9466 88.4662 35.9466L88.4837 35.8753Z" fill="#2D2423"/>
<path d="M104.641 9.51212C103.945 9.51212 103.248 9.42306 102.552 9.26274C101.855 9.10242 101.211 8.83523 100.637 8.47897C100.062 8.12271 99.592 7.64176 99.2263 7.07175C98.8607 6.48392 98.6692 5.78921 98.6692 4.96982C98.6692 4.15042 98.8781 3.38446 99.2786 2.76101C99.679 2.13756 100.201 1.63879 100.828 1.22909C101.455 0.819396 102.151 0.534389 102.918 0.338446C103.684 0.142504 104.432 0.0534389 105.129 0.0534389C105.825 0.0534389 106.487 0.142504 107.201 0.30282C107.915 0.463137 108.559 0.730332 109.133 1.08659C109.708 1.44285 110.178 1.90599 110.544 2.476C110.909 3.04602 111.101 3.74072 111.101 4.56012C111.101 5.37952 110.892 6.14547 110.491 6.76893C110.074 7.39238 109.569 7.90896 108.942 8.31866C108.315 8.72835 107.619 9.03117 106.87 9.22712C106.121 9.42306 105.372 9.51212 104.641 9.51212ZM105.32 35.9822C104.276 35.9822 103.405 35.8931 102.726 35.7328C102.047 35.5725 101.507 35.3231 101.089 35.0203C100.671 34.7175 100.375 34.3256 100.201 33.8446C100.01 33.3815 99.888 32.8471 99.8357 32.2415C99.7835 31.6536 99.7661 30.9767 99.7835 30.2464C99.8009 29.5161 99.8183 28.7323 99.8183 27.8773C99.8183 26.8263 99.8183 25.6863 99.8183 24.4928C99.8183 23.2994 99.8183 22.0881 99.8357 20.859C99.8531 19.6299 99.9054 18.4364 99.9576 17.243C100.01 16.0495 100.097 14.9451 100.219 13.9297C100.306 13.2885 100.497 12.7897 100.793 12.3978C101.089 12.0059 101.472 11.7209 101.925 11.525C102.378 11.329 102.865 11.1865 103.405 11.1331C103.945 11.0797 104.467 11.044 104.989 11.044C105.442 11.044 105.982 11.0619 106.609 11.1153C107.235 11.1687 107.845 11.2756 108.437 11.4537C109.029 11.6319 109.569 11.8812 110.039 12.2197C110.509 12.5581 110.787 13.0035 110.909 13.5735C111.223 14.9451 111.432 16.3701 111.553 17.8664C111.675 19.3449 111.797 20.8055 111.937 22.2128C112.076 23.7447 112.25 25.2944 112.459 26.8798C112.65 28.4651 112.755 30.0148 112.755 31.5468C112.755 32.2058 112.633 32.758 112.407 33.239C112.18 33.7199 111.867 34.1296 111.484 34.4503C111.101 34.7887 110.648 35.0559 110.143 35.2519C109.638 35.4478 109.098 35.6081 108.559 35.715C108.019 35.8219 107.462 35.8931 106.905 35.9287C106.348 35.9644 105.825 35.9822 105.338 35.9822H105.32Z" fill="#2D2423"/>
<path d="M122.975 35.5547C122.557 35.5547 122.139 35.5191 121.704 35.4478C121.269 35.3765 120.834 35.2519 120.433 35.0737C120.033 34.9134 119.667 34.6818 119.336 34.3968C119.005 34.1118 118.727 33.7734 118.535 33.3637C118.187 32.669 117.874 31.7427 117.578 30.567C117.282 29.3914 117.003 28.0732 116.759 26.6126C116.498 25.1697 116.272 23.6378 116.08 22.0525C115.889 20.4671 115.715 18.9174 115.575 17.4211C115.436 15.9248 115.332 14.5354 115.262 13.2528C115.192 11.9703 115.158 10.9193 115.158 10.1178C115.158 9.63681 115.158 9.0668 115.192 8.38991C115.21 7.73083 115.262 7.05393 115.332 6.35923C115.401 5.66452 115.506 5.00544 115.645 4.36418C115.784 3.72291 115.958 3.18852 116.167 2.76101C116.359 2.35131 116.655 2.03068 117.021 1.7813C117.404 1.53191 117.804 1.33597 118.257 1.17566C118.709 1.03315 119.162 0.926274 119.65 0.872835C120.12 0.819396 120.555 0.801583 120.956 0.801583C121.373 0.801583 121.913 0.837209 122.523 0.908461C123.149 0.979713 123.759 1.08659 124.385 1.24691C125.012 1.40722 125.587 1.62098 126.127 1.90599C126.666 2.19099 127.049 2.52944 127.293 2.95695C127.38 3.08164 127.45 3.18852 127.502 3.33102C127.554 3.45572 127.624 3.56259 127.711 3.66947C127.746 3.7051 127.798 3.74072 127.868 3.81197C127.937 3.86541 128.007 3.90104 128.059 3.90104C128.164 3.90104 128.408 3.77635 128.791 3.54478C129.174 3.31321 129.644 3.04602 130.218 2.76101C130.793 2.476 131.402 2.20881 132.081 1.97724C132.76 1.74567 133.439 1.62098 134.118 1.62098C135.233 1.62098 136.225 1.9238 137.096 2.49381C137.966 3.08164 138.732 3.86541 139.377 4.86294C140.038 5.84265 140.595 7.0005 141.048 8.31866C141.501 9.63681 141.901 11.0262 142.215 12.4691C142.528 13.9119 142.789 15.3904 142.963 16.9045C143.137 18.4186 143.277 19.8615 143.381 21.2509C143.486 22.6403 143.538 23.9228 143.573 25.0985C143.59 26.2741 143.607 27.2538 143.607 28.0376C143.607 28.572 143.607 29.1242 143.642 29.712C143.66 30.2999 143.642 30.8521 143.538 31.4043C143.433 31.9565 143.277 32.4552 143.033 32.9184C142.789 33.3815 142.389 33.7734 141.849 34.094C141.309 34.3968 140.735 34.6106 140.143 34.7531C139.551 34.8956 138.941 34.9669 138.332 34.9669C137.844 34.9669 137.305 34.9134 136.73 34.8243C136.155 34.7353 135.598 34.5572 135.076 34.3256C134.554 34.094 134.084 33.7734 133.683 33.3993C133.283 33.0074 133.021 32.5443 132.882 31.9743C132.743 31.3152 132.604 30.5314 132.482 29.6051C132.36 28.6789 132.255 27.717 132.168 26.7194C132.081 25.7397 131.994 24.76 131.907 23.8159C131.82 22.8718 131.75 22.0346 131.663 21.3399L130.95 14.9273C130.915 14.6779 130.845 14.3394 130.723 13.9297C130.601 13.52 130.445 13.1282 130.253 12.7363C130.062 12.3444 129.835 12.0238 129.591 11.7387C129.33 11.4537 129.069 11.3112 128.773 11.3112C128.477 11.3112 128.251 11.5072 128.077 11.8812C127.92 12.2731 127.798 12.7185 127.728 13.2172C127.659 13.716 127.607 14.2147 127.589 14.6957C127.589 15.1766 127.572 15.5151 127.572 15.711C127.572 16.8689 127.607 18.0089 127.676 19.1489C127.746 20.289 127.816 21.429 127.885 22.5868C127.955 23.7269 128.024 24.8847 128.094 26.0247C128.164 27.1648 128.199 28.3226 128.199 29.4626C128.199 29.997 128.199 30.5314 128.199 31.048C128.199 31.5646 128.164 32.0633 128.077 32.5265C127.99 32.9896 127.816 33.4349 127.554 33.8268C127.293 34.2187 126.893 34.5572 126.353 34.8422C125.831 35.1094 125.291 35.3053 124.734 35.43C124.177 35.5547 123.619 35.6081 123.045 35.6081L122.975 35.5547Z" fill="#2D2423"/>
<path d="M155.865 35.7862C154.89 35.7862 153.915 35.6972 152.905 35.5191C151.895 35.3409 150.938 35.0915 150.05 34.7531C149.701 34.6106 149.423 34.4325 149.214 34.1831C149.005 33.9337 148.831 33.6665 148.692 33.3459C148.552 33.043 148.465 32.7046 148.413 32.3662C148.361 32.0277 148.343 31.6893 148.343 31.3508C148.343 30.9055 148.413 30.3177 148.552 29.6051C148.692 28.8926 148.9 28.1979 149.179 27.521C149.458 26.8441 149.806 26.2563 150.241 25.7754C150.659 25.2944 151.164 25.045 151.738 25.045C152.139 25.045 152.522 25.0985 152.922 25.2053C153.323 25.3122 153.723 25.3657 154.159 25.3657C154.594 25.3657 155.134 25.2766 155.743 25.1163C156.352 24.956 156.944 24.7066 157.502 24.4038C158.059 24.1009 158.529 23.7091 158.912 23.2637C159.295 22.8184 159.486 22.3196 159.486 21.7674C159.486 21.4468 159.382 21.2331 159.19 21.1084C158.999 20.9837 158.755 20.9302 158.477 20.9302C158.128 20.9302 157.78 20.9659 157.415 21.0193C157.049 21.0727 156.666 21.144 156.265 21.2152C155.865 21.2865 155.464 21.3577 155.064 21.429C154.646 21.5002 154.246 21.5359 153.828 21.5359C152.435 21.5359 151.181 21.3043 150.05 20.859C148.918 20.4137 147.978 19.7724 147.194 18.953C146.411 18.1336 145.801 17.1361 145.383 15.9782C144.948 14.8204 144.739 13.52 144.739 12.095C144.739 10.7768 144.948 9.44087 145.349 8.08709C145.766 6.7333 146.358 5.52202 147.142 4.43543C147.925 3.34884 148.883 2.476 150.015 1.7813C151.146 1.08659 152.435 0.748145 153.88 0.748145C154.472 0.748145 155.012 0.819396 155.534 0.979713C156.039 1.14003 156.509 1.31816 156.927 1.49629C157.345 1.67442 157.711 1.85255 158.024 2.01287C158.337 2.17318 158.633 2.24443 158.877 2.24443C159.19 2.24443 159.434 2.17318 159.626 2.01287C159.817 1.85255 160.026 1.67442 160.287 1.47848C160.549 1.28253 160.879 1.1044 161.28 0.944087C161.698 0.78377 162.272 0.712519 163.021 0.712519C163.282 0.712519 163.63 0.730332 164.048 0.78377C164.466 0.819396 164.901 0.890648 165.354 0.997526C165.807 1.1044 166.19 1.22909 166.555 1.40722C166.921 1.58535 167.165 1.79911 167.287 2.04849C167.705 2.86789 168.035 3.86541 168.314 5.05888C168.592 6.23454 168.819 7.46363 168.976 8.76398C169.132 10.0465 169.254 11.3112 169.341 12.5403C169.428 13.7694 169.446 14.856 169.446 15.7823C169.446 17.3142 169.393 18.8996 169.306 20.5562C169.202 22.2128 168.958 23.8337 168.575 25.4191C168.192 27.0045 167.617 28.4829 166.851 29.8723C166.085 31.2618 165.041 32.4196 163.717 33.3815C162.533 34.2187 161.28 34.8243 159.957 35.1984C158.633 35.5725 157.258 35.7684 155.848 35.7684L155.865 35.7862ZM156.056 14.6423C156.352 14.6423 156.683 14.6423 157.084 14.5888C157.467 14.5532 157.832 14.4819 158.163 14.3573C158.494 14.2326 158.79 14.0722 159.016 13.8407C159.26 13.6091 159.365 13.3063 159.365 12.8966C159.365 12.6472 159.365 12.3266 159.33 11.9347C159.312 11.5428 159.243 11.1509 159.156 10.7768C159.069 10.4028 158.929 10.0821 158.738 9.81494C158.546 9.54775 158.285 9.40525 157.954 9.40525C157.519 9.40525 157.014 9.45868 156.457 9.58337C155.9 9.70807 155.36 9.8862 154.855 10.1356C154.35 10.385 153.915 10.7234 153.584 11.1153C153.236 11.525 153.062 12.0059 153.062 12.576C153.062 12.9857 153.149 13.3063 153.34 13.5735C153.532 13.8407 153.776 14.0544 154.072 14.1969C154.368 14.3394 154.698 14.4641 155.047 14.5176C155.395 14.5888 155.726 14.6244 156.039 14.6244L156.056 14.6423Z" fill="#2D2423"/>
<path d="M184.82 34.5928C183.322 34.5928 181.964 34.3612 180.746 33.8981C179.527 33.4349 178.43 32.8115 177.472 31.9921C176.515 31.1905 175.696 30.2464 174.982 29.142C174.286 28.0554 173.694 26.8798 173.241 25.6329C172.789 24.386 172.44 23.0856 172.214 21.714C171.988 20.3602 171.883 19.0064 171.883 17.6883C171.883 16.3701 171.988 14.9985 172.214 13.6269C172.44 12.2553 172.771 10.9372 173.224 9.67244C173.677 8.38991 174.251 7.19644 174.948 6.07422C175.644 4.952 176.48 3.97229 177.437 3.13508C178.395 2.29787 179.492 1.63879 180.711 1.15784C181.947 0.676893 183.305 0.445324 184.82 0.445324C186.335 0.445324 187.727 0.676893 188.981 1.15784C190.217 1.62098 191.332 2.26225 192.307 3.08164C193.282 3.90104 194.117 4.86294 194.831 5.96734C195.545 7.07175 196.137 8.26522 196.607 9.52994C197.077 10.7947 197.425 12.1306 197.652 13.5022C197.878 14.8738 198 16.2454 198 17.5992C198 18.953 197.878 20.289 197.652 21.6606C197.425 23.0322 197.077 24.3325 196.59 25.5972C196.12 26.8619 195.51 28.0198 194.796 29.1242C194.065 30.2108 193.229 31.1727 192.254 31.9743C191.279 32.7937 190.165 33.4171 188.929 33.8803C187.693 34.3434 186.317 34.575 184.82 34.575V34.5928ZM184.907 24.0119C185.603 24.0119 186.16 23.7981 186.596 23.3884C187.031 22.9787 187.379 22.4621 187.623 21.8387C187.884 21.2331 188.058 20.574 188.145 19.8971C188.25 19.2024 188.285 18.5967 188.285 18.0623C188.285 17.5636 188.232 16.9401 188.145 16.2276C188.041 15.4973 187.867 14.8026 187.623 14.1257C187.379 13.4488 187.048 12.861 186.613 12.3978C186.195 11.9169 185.655 11.6853 184.994 11.6853C184.332 11.6853 183.775 11.8991 183.305 12.3266C182.835 12.7541 182.469 13.2885 182.191 13.9119C181.912 14.5354 181.703 15.1945 181.581 15.907C181.459 16.6195 181.39 17.2251 181.39 17.7595C181.39 18.1158 181.407 18.5077 181.459 18.953C181.512 19.3983 181.599 19.8615 181.703 20.3246C181.825 20.7877 181.964 21.2509 182.138 21.6962C182.313 22.1415 182.539 22.5334 182.8 22.8897C183.061 23.2459 183.357 23.5309 183.705 23.7269C184.054 23.9406 184.454 24.0475 184.889 24.0475L184.907 24.0119Z" fill="#2D2423"/>
</svg>
