<svg width="134" height="160" viewBox="0 0 134 160" fill="none" xmlns="http://www.w3.org/2000/svg">
<g clip-path="url(#clip0_269_9199)">
<path fill-rule="evenodd" clip-rule="evenodd" d="M118.28 132.699L118.042 133.175C117.631 134.53 117.934 138.632 118.287 140.016C118.446 140.643 118.886 141.436 118.778 142.201H53.3678C53.2164 141.235 53.2308 129.822 53.4183 129.239H118.893C118.893 129.974 118.634 130.183 118.518 130.767C118.381 131.445 118.172 131.956 118.208 132.67C118.691 131.971 118.504 130.998 119.073 130.01C119.268 129.671 119.268 129.491 119.203 129.008L53.2741 129.058C53.0073 129.635 53.0505 142.028 53.2741 142.359C53.5553 142.691 54.8533 142.511 55.2787 142.511H110.867C113.514 142.511 116.478 142.633 119.088 142.489C119.239 141.847 118.533 139.908 118.381 139.065C117.812 135.914 118.381 133.391 118.295 132.692L118.28 132.699Z" fill="#7C8184"/>
<path fill-rule="evenodd" clip-rule="evenodd" d="M33.4657 147.658C33.7325 147.528 33.92 147.348 34.1651 147.117L34.8069 146.598C35.3333 146.216 35.6506 145.892 36.1049 145.553C36.624 145.171 37.0783 145.048 37.7706 144.745C39.2632 144.089 41.4842 144.399 42.6523 145.192L45.9477 147.759C46.5174 147.961 46.7265 148.372 47.2024 148.588H47.9956C48.0245 148.155 48.248 148.004 48.248 147.204C48.248 144.969 48.3706 136.707 48.1687 135.77H31.1726C30.9419 137.032 30.9779 147.384 31.2519 148.48C32.1749 148.718 32.2398 148.134 33.0114 147.759C33.0186 147.759 33.1556 147.701 33.17 147.694C33.3936 147.622 33.2349 147.651 33.4585 147.665L33.4657 147.658Z" fill="#FF4D4D"/>
<path fill-rule="evenodd" clip-rule="evenodd" d="M118.28 132.699L118.201 132.677C118.172 131.964 118.381 131.452 118.511 130.774C118.626 130.19 118.886 129.981 118.886 129.239H53.4109C53.2306 129.83 53.209 141.242 53.3604 142.208H118.77C118.879 141.444 118.439 140.651 118.28 140.023C117.934 138.632 117.631 134.53 118.035 133.182L118.273 132.706L118.28 132.699Z" fill="#FFD966"/>
<path fill-rule="evenodd" clip-rule="evenodd" d="M20.1618 130.644C19.5417 131.408 18.972 131.819 18.5682 132.627C18.4601 132.951 18.3519 133.052 18.0635 133.268C17.0323 134.04 16.0011 133.571 15.7055 133.6C15.4531 135.345 15.1935 135.972 15.7704 137.94C16.0516 137.89 16.2031 137.789 16.5348 137.781C17.2991 137.76 17.1477 137.998 17.1621 138.027C18.9576 138.358 19.0225 140.557 21.2146 141.559C21.8564 141.855 22.2746 142.028 22.9885 142.229C24.0197 142.287 24.8633 142.475 25.9666 142.345C26.1613 141.35 26.1252 129.931 25.9305 129.159C21.2723 129.159 21.1065 130.349 20.1474 130.637L20.1618 130.644Z" fill="#FFD966"/>
<path fill-rule="evenodd" clip-rule="evenodd" d="M17.169 138.026C17.169 138.026 17.306 137.76 16.5417 137.781C16.2027 137.789 16.0513 137.89 15.7773 137.94C15.1932 135.979 15.4528 135.345 15.7124 133.6C16.0081 133.578 17.0392 134.04 18.0704 133.268C18.3588 133.052 18.467 132.944 18.5751 132.627C18.2723 132.778 18.4237 132.706 18.1569 132.922C17.4502 133.492 16.1306 133.723 15.3591 133.225C15.1427 133.081 14.9048 132.836 14.7678 132.663C14.1837 131.899 14.126 131.178 14.501 130.334C14.8543 129.534 14.8976 129.599 15.3807 128.972C16.6426 127.335 17.4214 126.723 19.3034 125.749C19.3251 125.735 19.3539 125.72 19.3755 125.713L19.6784 125.576C19.837 125.497 19.8226 125.497 20.0101 125.389L21.9859 124.704C22.3825 124.639 22.6421 124.646 23.0387 124.574C24.1275 124.38 24.8919 124.401 26.0312 124.401H122.051C123.176 124.401 125.376 124.581 126.291 124.243C129.89 122.916 130.286 118.194 126.731 116.594C125.614 116.089 124.006 116.24 122.693 116.24H92.0758C91.4628 116.24 23.7814 116.089 22.3248 116.298C22.0219 116.341 21.7696 116.435 21.3802 116.5C21.034 116.558 20.7312 116.55 20.3923 116.601C20.0245 116.659 19.0655 116.911 18.7121 117.055C17.58 117.509 16.1811 117.762 15.1644 118.518C13.2968 119.91 12.5685 119.91 10.535 122.001C9.10002 123.478 7.75158 125.201 6.85743 127.061C5.33594 130.205 4.36246 134.364 4.86723 138.005C5.06913 139.439 5.7758 141.898 6.26614 143.203C6.85743 144.774 8.56641 147.413 9.60478 148.595C10.5638 149.684 10.9244 149.893 11.869 150.707C12.8569 151.565 13.8736 152.293 15.0634 152.949C15.2942 153.079 15.5321 153.151 15.7989 153.288L16.7796 153.815C16.9743 153.959 16.9311 154.002 17.2123 154.067C18.4093 154.348 19.3611 154.961 20.6086 155.026C21.4306 155.069 21.4162 155.336 22.4185 155.343C23.8751 155.35 25.3389 155.35 26.7955 155.35C59.5114 155.35 92.2344 155.473 124.95 155.35C125.96 155.35 125.866 155.444 126.594 155.119L126.76 155.062C127.171 154.91 126.904 155.091 127.171 154.867C127.186 154.853 127.207 154.831 127.222 154.817L128.022 154.11L129.169 151.969C129.356 151.104 129.176 150.023 128.693 149.345C128.094 148.494 127.972 148.227 127.077 147.651L126.342 147.297C125.318 146.98 119.282 147.16 117.696 147.16H54.4277C53.1586 147.146 53.2379 146.93 53.2451 148.17C53.2523 150.448 51.6659 152.452 49.5892 153.238C48.6301 153.605 46.7986 153.656 45.8035 153.259C44.8733 152.885 43.9142 152.084 43.1498 151.544C40.4746 149.633 40.1069 147.953 38.0085 150.116C37.6191 150.513 37.2297 150.801 36.7394 151.089C36.4221 151.277 36.35 151.306 36.1192 151.522C35.2179 152.394 34.0713 153.267 32.6075 153.461C31.4754 153.613 30.0693 153.541 29.0526 152.942C27.3364 151.933 26.7018 150.837 26.2764 148.984C26.161 148.48 26.1466 147.427 26.024 147.124C25.3966 146.858 24.0194 147.081 23.1901 146.98C22.8872 146.944 22.1229 146.915 21.7984 146.843L20.7023 146.468C19.9308 146.223 19.2818 145.899 18.6833 145.502C18.1208 145.127 17.4935 144.789 17.0032 144.298C16.2604 143.556 14.6308 142.15 14.4361 141.018C14.0755 138.956 15.3158 137.868 17.1762 138.034L17.169 138.026Z" fill="#FFB400"/>
<path fill-rule="evenodd" clip-rule="evenodd" d="M4.80961 49.9162V99.5152C4.80961 101.123 6.10757 97.8859 9.2371 95.8169L9.92934 95.2473C10.1601 95.0743 10.2178 95.0815 10.4485 94.9085C10.4629 94.8941 10.4918 94.8725 10.5062 94.8652L10.9317 94.548C11.1119 94.4111 11.2201 94.2957 11.4148 94.1732L12.5974 93.5316C13.0517 93.3081 12.7416 93.5099 13.131 93.2288C14.054 92.5727 14.4434 92.6593 15.561 92.1186C16.3759 91.7293 16.1163 91.9672 16.5273 91.8014C16.5562 91.7869 16.621 91.7437 16.6499 91.7293L21.1279 90.6263C21.9355 90.6046 22.0436 90.6407 22.0436 89.8116V30.8263C22.0436 30.1126 21.7264 30.1919 20.551 30.4731L16.9455 31.5617C16.3254 31.7996 15.9 32.0591 15.3736 32.3258C14.9986 32.5133 14.9121 32.5854 14.6308 32.7512C13.3401 33.537 13.1526 33.5225 11.8258 34.6544C11.3571 35.0509 9.93655 36.4711 9.53995 37.0911C8.96308 37.9922 8.53764 37.9778 7.11709 40.5082C6.96566 40.7822 6.80702 40.9624 6.69886 41.2436C6.54743 41.6401 6.51859 41.741 6.35995 42.0942C5.58838 43.8461 5.21342 45.7853 4.89614 47.6669C4.78798 48.3013 4.8024 49.188 4.8024 49.9234L4.80961 49.9162Z" fill="#FFB400"/>
<path fill-rule="evenodd" clip-rule="evenodd" d="M4.91079 121.251C5.10548 121.171 6.86494 118.965 7.47786 118.403C7.94657 117.978 8.46576 117.495 8.88399 117.142L10.8598 115.7C11.5664 115.094 11.3573 115.44 12.1073 114.914C12.4101 114.705 12.5832 114.539 12.9365 114.373L17.6452 112.463C18.1067 112.311 18.0707 112.232 18.6836 112.153C19.3398 112.074 19.1451 111.958 19.8518 111.901C20.6233 111.843 21.8636 111.843 22.0006 111.345C22.1088 110.942 22.0367 96.0836 22.0006 95.3339C20.7026 95.1969 16.9818 96.3215 15.5324 97.1145C15.1214 97.338 15.0493 97.4534 14.7176 97.6696C13.3403 98.5564 13.0519 98.4915 11.5232 99.9261C11.2996 100.135 11.04 100.301 10.8237 100.503C9.90794 101.368 9.48249 102.19 8.6965 102.774C8.68208 102.788 8.65324 102.803 8.63882 102.817L7.17501 105.174C6.85773 105.657 6.64861 106.559 6.32412 106.998C5.77609 107.726 6.29528 106.847 6.11501 107.279C6.07174 107.38 6.02126 107.712 5.99242 107.798L5.68235 108.772C5.55977 109.132 5.53813 108.894 5.45881 109.262C5.41555 109.464 5.44439 109.637 5.39392 109.86C5.29296 110.314 5.14875 110.12 5.11269 110.819C5.09106 111.309 5.12711 111.691 4.99011 112.153C4.70888 113.076 4.80262 120.998 4.93963 121.251H4.91079Z" fill="#FFB400"/>
<path fill-rule="evenodd" clip-rule="evenodd" d="M4.86721 24.0497C5.33591 23.8695 6.13632 22.7881 6.54013 22.334C7.20353 21.5842 8.01115 20.8344 8.7683 20.2866L9.1649 19.8468C9.42449 19.5873 9.77061 19.371 10.1095 19.0898L16.8661 15.6222C17.9261 15.305 20.0461 14.7716 21.1133 14.7067C21.9642 14.6562 21.9859 14.7932 21.9859 13.8704C21.9859 11.3039 22.0652 7.41821 21.9714 5.00315C21.1133 4.91664 18.9789 5.34919 18.128 5.68081C17.8612 5.78173 17.7098 5.86824 17.3637 5.97638C17.032 6.07731 16.8878 6.17824 16.5561 6.32242C16.3037 6.43777 16.1378 6.5387 15.8494 6.68288C15.4816 6.86311 15.3591 6.8559 15.0346 7.05055C14.4937 7.37496 14.2269 7.60565 13.6789 7.91564C12.655 8.49238 12.3233 8.93214 11.7536 9.32143C11.5084 9.48724 11.3282 9.64584 11.119 9.85491C10.7585 10.2298 10.3186 10.6768 9.94367 11.03L7.5785 14.2164C7.09537 14.9302 6.74925 15.7664 6.35986 16.5017L6.24449 16.718C6.24449 16.718 6.21564 16.7685 6.20122 16.7829C5.84068 17.4173 6.06421 17.4101 5.82625 18.131C5.22775 19.9261 4.81673 22.0961 4.85278 24.0569L4.86721 24.0497Z" fill="#FFB400"/>
<path fill-rule="evenodd" clip-rule="evenodd" d="M19.8444 19.7315C19.181 19.6954 16.7004 20.7191 15.8712 21.0868C14.4939 21.6996 12.5469 22.9684 11.5446 24.0281L10.189 25.333C10.1313 25.3979 10.052 25.4844 9.98708 25.5781L9.72749 25.953C9.34531 26.4144 9.17225 26.3206 8.86218 26.7892C8.76123 26.9406 8.65307 27.2002 8.55211 27.3443C8.27089 27.7697 7.79497 28.2311 7.40558 28.9448L5.99946 32.0231C5.85524 32.4412 5.85524 32.261 5.73266 32.7007C5.5668 33.3207 5.40817 33.6451 5.43701 34.3444C5.85524 34.2435 5.61007 34.3084 5.85524 34.0128C6.65565 33.0324 8.91266 30.8408 9.77797 30.3506C10.0448 30.1992 10.0303 30.1848 10.2539 29.9829L11.7754 28.9448C11.8475 28.9015 11.9629 28.8222 12.035 28.779L12.1648 28.6925C12.1648 28.6925 12.208 28.6636 12.2297 28.6492L12.821 28.3969C13.1455 27.8274 14.1982 27.5318 14.8112 27.2578C16.1884 26.6451 17.9046 26.1693 19.4189 25.8304C19.8804 25.7295 19.9886 25.6141 20.6231 25.5709C20.9693 25.5493 21.3226 25.5637 21.6327 25.3835C22.0149 25.1672 21.7048 25.3762 21.9283 25.1744L21.9427 19.4503C21.1279 19.4792 20.89 19.7459 19.8588 19.7387L19.8444 19.7315Z" fill="#FFB400"/>
<path fill-rule="evenodd" clip-rule="evenodd" d="M33.4655 147.658C33.1987 148.033 33.3069 147.968 32.9103 148.191C32.4127 148.473 32.1676 148.977 31.3744 148.783C30.9417 148.674 31.1004 148.566 30.8552 148.357C30.8263 148.328 30.7975 148.242 30.7903 148.256C30.6605 148.451 30.6244 147.218 30.6244 147.189C30.6749 144.169 30.4514 129.476 30.7686 129.109C30.985 128.849 42.2268 128.993 44.0583 128.993C45.2625 128.993 47.4763 128.864 48.5651 129.037C48.8031 130.132 48.6372 133.586 48.6372 134.927C48.6372 136.376 48.7454 147.954 48.5723 148.422C48.5147 148.566 47.945 149.273 47.2455 148.905L46.1423 148.09C45.9476 147.86 46.0774 148.09 45.9548 147.752L42.6594 145.185C41.4912 144.385 39.2631 144.082 37.7776 144.738C37.0854 145.041 36.6311 145.171 36.1119 145.546C35.6504 145.884 35.3331 146.209 34.814 146.591L34.1722 147.11C33.9198 147.341 33.7395 147.528 33.4727 147.651L33.4655 147.658ZM21.9209 7.00681e-06H22.1661C28.0429 0.0360528 43.2435 0.0216345 60.29 7.00681e-06H126.522C126.695 7.00681e-06 126.803 0.00721616 126.832 0.0144253C127.301 0.093726 126.796 7.00541e-06 127.077 0.0865169C128.065 0.40372 129.031 0.735341 129.969 1.35533C131.216 2.17717 132.377 3.35947 133.005 4.722C133.048 4.81572 133.055 4.84456 133.098 4.94549L133.582 6.06291C133.776 6.63243 133.993 7.60567 133.993 8.21124V151.782C133.993 152.286 133.935 152.575 133.805 152.978C133.582 153.685 133.466 154.254 133.163 154.896L132.853 155.545C132.853 155.545 132.824 155.588 132.81 155.61L131.101 157.744L128.267 159.495C128.267 159.495 128.209 159.51 128.188 159.524L127.135 159.856C126.962 159.913 126.767 159.957 126.558 159.993H21.6397C21.3512 159.971 21.0844 159.935 20.8393 159.856C20.4571 159.726 19.8946 159.784 19.6062 159.704C19.2601 159.604 19.3322 159.575 19.1447 159.524C18.7481 159.409 18.3515 159.438 18.0054 159.272C17.6304 159.099 17.9909 159.221 17.5006 159.135C17.0247 159.056 17.3852 159.164 17.0031 158.991C16.5776 158.796 17.1184 158.955 16.5343 158.825L15.3518 158.407C15.1354 158.313 15.3878 158.407 15.1354 158.299C14.948 158.212 14.8758 158.205 14.6739 158.118L13.7798 157.729C13.6644 157.671 13.5058 157.585 13.3616 157.506L13.1524 157.39C13.0803 157.347 13.0371 157.325 12.9433 157.282C11.5084 156.525 10.2897 155.595 9.04223 154.672L4.62195 150.023C4.62195 150.023 4.54985 149.929 4.52821 149.9C3.74223 148.804 3.05719 147.622 2.4659 146.418C2.43705 146.353 2.35773 146.209 2.35773 146.209L1.50685 144.176C1.42753 143.974 1.39148 143.945 1.31937 143.722L1.20399 143.304C1.20399 143.304 1.18236 143.253 1.17515 143.224L0.61991 141.22C0.562223 140.73 0.46127 140.744 0.360318 140.196C0.288209 139.786 0.345896 139.396 0.252155 139.021L0.0574605 137.933C0.0141951 137.565 -0.0146484 137.255 -0.0146484 136.729V23.2495C-0.0146484 22.2907 0.0718823 21.7212 0.259365 20.8561C0.345896 20.438 0.266576 20.1063 0.360318 19.681C0.482903 19.1259 0.562223 19.2845 0.61991 18.6645C0.692019 17.9508 1.25447 16.4369 1.52848 15.7304C1.6078 15.5285 1.62222 15.4276 1.69433 15.2546L2.19188 14.1516C2.19188 14.1516 2.21352 14.1011 2.22073 14.0723C2.26399 13.9714 2.24957 13.9714 2.30726 13.8344L2.74712 12.9981C3.28794 11.9167 3.93692 10.8714 4.65801 9.89818L6.48958 7.67776C6.59774 7.56241 6.68427 7.46148 6.79243 7.34614C6.80686 7.33172 6.82849 7.31009 6.84291 7.28846C6.85733 7.27404 6.87896 7.25242 6.89339 7.23079C6.90781 7.21637 6.92944 7.18754 6.94386 7.17312L7.7659 6.40174C7.80196 6.36569 7.87407 6.2936 7.92454 6.24314L9.5542 4.88781C10.0806 4.4048 10.7584 3.97946 11.3714 3.61179C11.9194 3.28738 12.4386 2.94855 13.0371 2.60972L14.7965 1.8095C15.7267 1.44905 17.753 0.619994 18.6327 0.526275C19.3033 0.454184 19.6927 0.245118 20.3417 0.209073C20.9835 0.173027 20.933 0.00721616 21.8848 -0.00720215L21.9209 7.00681e-06ZM124.294 129.181C125.116 129.087 126.277 129.181 127.005 128.979C127.568 128.828 128.491 128.222 129.168 128.236L129.19 143.239C128.584 143.26 127.553 142.698 127.02 142.568C126.205 142.366 125.181 142.453 124.287 142.374C124.15 142.143 124.027 142.006 123.941 141.811C123.306 140.434 123.407 140.247 123.155 139.49C122.751 138.293 122.484 134.999 122.758 133.809L123.068 132.108C123.162 131.913 123.09 132.202 123.212 131.819C123.364 131.351 123.147 131.545 123.645 130.659C123.926 130.161 123.984 129.707 124.294 129.181ZM118.201 132.67L118.28 132.692C118.374 133.391 117.79 135.914 118.367 139.065C118.518 139.908 119.225 141.847 119.073 142.489C116.463 142.633 113.506 142.511 110.853 142.511H55.264C54.8386 142.511 53.5479 142.691 53.2594 142.359C53.0359 142.028 52.9998 129.642 53.2594 129.058L119.189 129.008C119.254 129.491 119.254 129.671 119.059 130.01C118.489 130.99 118.677 131.971 118.194 132.67H118.201ZM18.575 132.627C18.9716 131.827 19.5413 131.416 20.1686 130.644C20.385 130.111 20.147 130.378 20.6229 130.046L21.9065 129.376C22.2526 129.26 22.4401 129.354 22.7573 129.195C23.0674 129.044 22.8295 129.022 23.464 128.965C27.1344 128.626 26.3988 128.921 26.3988 132.266C26.3988 135.229 26.5142 139.699 26.3844 142.33C25.8364 142.763 24.762 142.633 23.7885 142.597C23.2477 142.583 23.1828 142.626 23.0025 142.222C22.2814 142.02 21.8704 141.847 21.2286 141.552C19.0365 140.55 18.9716 138.358 17.1761 138.019C15.3157 137.853 14.0682 138.942 14.436 141.004C14.6379 142.129 16.2603 143.542 17.0031 144.284C17.4862 144.767 18.1135 145.106 18.6832 145.488C19.2745 145.884 19.9307 146.202 20.7022 146.454L21.7983 146.829C22.1228 146.901 22.8871 146.93 23.19 146.966C24.0193 147.074 25.3965 146.843 26.0239 147.11C26.1537 147.413 26.1609 148.465 26.2763 148.97C26.7017 150.83 27.3363 151.919 29.0525 152.928C30.062 153.526 31.4753 153.598 32.6074 153.447C34.0712 153.252 35.2178 152.38 36.1191 151.508C36.3427 151.291 36.422 151.262 36.7393 151.075C37.2296 150.787 37.6262 150.498 38.0084 150.102C40.1068 147.939 40.4745 149.619 43.1497 151.529C43.9069 152.07 44.8732 152.87 45.8034 153.245C46.7913 153.642 48.6228 153.591 49.5891 153.223C51.6658 152.438 53.2522 150.433 53.245 148.155C53.245 146.915 53.1657 147.132 54.4276 147.146H117.696C119.282 147.146 125.311 146.973 126.342 147.283L127.077 147.636C127.971 148.213 128.094 148.48 128.693 149.33C129.176 150.015 129.349 151.089 129.168 151.955L128.022 154.096L127.222 154.802C127.222 154.802 127.185 154.838 127.171 154.853C126.911 155.076 127.171 154.896 126.76 155.047L126.594 155.105C125.866 155.429 125.96 155.328 124.95 155.336C92.2343 155.458 59.5113 155.336 26.7954 155.336C25.3388 155.336 23.875 155.336 22.4184 155.328C21.4161 155.328 21.4378 155.055 20.6085 155.011C19.3682 154.954 18.4092 154.334 17.2122 154.052C16.9309 153.988 16.9814 153.944 16.7795 153.8L15.7988 153.274C15.532 153.137 15.3013 153.065 15.0633 152.935C13.8735 152.279 12.8568 151.558 11.8689 150.693C10.9315 149.878 10.5637 149.669 9.60468 148.581C8.56631 147.398 6.85733 144.76 6.26604 143.188C5.7757 141.883 5.06903 139.425 4.86713 137.99C4.36236 134.343 5.34304 130.19 6.85733 127.047C7.75869 125.187 9.09992 123.464 10.5349 121.986C12.5684 119.895 13.3039 119.895 15.1643 118.504C16.181 117.747 17.5727 117.488 18.712 117.041C19.0654 116.896 20.0244 116.644 20.3922 116.586C20.7311 116.536 21.0339 116.543 21.3801 116.486C21.7695 116.421 22.0218 116.32 22.3247 116.284C23.7813 116.082 91.4699 116.226 92.0757 116.226H122.693C124.005 116.226 125.621 116.082 126.731 116.579C130.279 118.18 129.882 122.902 126.291 124.228C125.376 124.567 123.176 124.387 122.051 124.387H26.0311C24.8918 124.387 24.1274 124.358 23.0386 124.56C22.642 124.632 22.3824 124.625 21.9858 124.69L20.01 125.374C19.8225 125.483 19.8369 125.483 19.6783 125.562L19.3754 125.699C19.3754 125.699 19.325 125.728 19.3033 125.735C17.4141 126.708 16.6425 127.321 15.3806 128.957C14.8903 129.585 14.847 129.52 14.5009 130.32C14.1331 131.163 14.1836 131.877 14.7677 132.648C14.9047 132.829 15.1426 133.074 15.359 133.211C16.1377 133.708 17.4501 133.485 18.1568 132.908C18.4308 132.692 18.2722 132.764 18.575 132.612V132.627ZM127.063 5.33478C127.488 5.3492 128.483 6.17104 128.635 6.6108L128.757 6.94242C129.262 8.13194 129.197 8.42751 129.197 9.91981V98.6645C129.197 103.134 129.378 107.986 129.183 112.412C128.786 112.441 128.642 112.333 128.274 112.247C127.395 112.03 126.984 111.547 125.686 111.583C117.458 111.677 109.165 111.583 100.931 111.583H27.1055C26.8387 111.533 26.7666 111.583 26.7017 111.244C26.6729 111.1 26.6729 110.999 26.6657 110.848C26.5863 107.15 26.6657 102.413 26.6657 98.6789L26.6512 5.33478C26.6512 4.84456 26.5791 4.83014 26.8892 4.70759C26.9036 4.70759 124.957 4.54898 125.859 4.73642C126.717 4.91665 126.875 5.01037 127.048 5.3492L127.063 5.33478ZM4.91039 121.251C4.77338 120.991 4.68685 113.076 4.96087 112.153C5.09787 111.699 5.06182 111.309 5.08345 110.819C5.1123 110.12 5.25651 110.314 5.36468 109.86C5.41515 109.637 5.38631 109.464 5.42957 109.262C5.50889 108.902 5.53053 109.132 5.65311 108.772L5.96318 107.799C5.99202 107.712 6.0425 107.38 6.08577 107.279C6.26604 106.847 5.75407 107.726 6.29488 106.998C6.61937 106.559 6.82849 105.657 7.14577 105.174L8.60958 102.817C8.60958 102.817 8.65284 102.788 8.66727 102.774C9.45325 102.19 9.8787 101.368 10.7945 100.503C11.0108 100.301 11.2704 100.135 11.4939 99.9261C13.0226 98.4915 13.3111 98.5564 14.6884 97.6696C15.0201 97.4534 15.0922 97.3452 15.5032 97.1145C16.9526 96.3215 20.6734 95.1897 21.9714 95.3339C22.0074 96.0836 22.0795 110.942 21.9714 111.345C21.8344 111.85 20.5941 111.843 19.8225 111.901C19.1158 111.958 19.3105 112.066 18.6544 112.153C18.0414 112.232 18.0775 112.311 17.616 112.463L12.9073 114.373C12.5539 114.539 12.3881 114.705 12.078 114.914C11.3281 115.433 11.53 115.087 10.8305 115.7L8.85475 117.142C8.42931 117.488 7.91733 117.971 7.44863 118.403C6.8357 118.965 5.07624 121.171 4.88155 121.251H4.91039ZM4.80944 49.9162C4.80944 49.1809 4.79502 48.2941 4.90318 47.6597C5.21325 45.7781 5.58821 43.8461 6.36699 42.0871C6.52563 41.7338 6.55447 41.6329 6.7059 41.2364C6.81407 40.9552 6.97271 40.775 7.12414 40.501C8.54468 37.9778 8.97012 37.985 9.54699 37.0839C9.9508 36.4639 11.3714 35.0437 11.8328 34.6472C13.1524 33.5154 13.3471 33.5298 14.6379 32.744C14.9191 32.571 15.0056 32.5061 15.3806 32.3187C15.907 32.0591 16.3324 31.7924 16.9526 31.5545L20.558 30.4659C21.7334 30.1847 22.0507 30.1054 22.0507 30.8191V89.8045C22.0507 90.6407 21.9425 90.6047 21.1349 90.6191L16.6569 91.7221C16.6569 91.7221 16.5632 91.7798 16.5343 91.7942C16.1233 91.96 16.3829 91.7221 15.5681 92.1114C14.4504 92.6521 14.061 92.5583 13.138 93.2216C12.7558 93.4955 13.0587 93.3009 12.6044 93.5244L11.4218 94.166C11.2271 94.2885 11.119 94.4039 10.9387 94.5409L10.5133 94.8581C10.5133 94.8581 10.47 94.8941 10.4556 94.9013C10.2248 95.0743 10.1671 95.0671 9.93638 95.2402L9.24414 95.8097C6.11461 97.8787 4.81665 101.116 4.81665 99.508V49.909L4.80944 49.9162ZM12.8135 28.3969L12.2222 28.6492C12.2222 28.6492 12.179 28.678 12.1573 28.6924L12.0275 28.779C11.9554 28.8294 11.8401 28.9015 11.7679 28.9448L10.2465 29.9829C10.0229 30.1847 10.0445 30.1992 9.77053 30.3505C8.90522 30.8408 6.64822 33.0324 5.84781 34.0128C5.60985 34.3084 5.84781 34.2435 5.42957 34.3444C5.40073 33.6451 5.55937 33.3135 5.72522 32.7007C5.84781 32.2682 5.84781 32.4412 5.99202 32.0231L7.39815 28.9448C7.79475 28.2311 8.26346 27.7697 8.54468 27.3443C8.64563 27.1929 8.7538 26.9406 8.85475 26.7892C9.16482 26.3278 9.33067 26.4144 9.72006 25.953L9.97965 25.5781C10.0445 25.4844 10.1239 25.3979 10.1816 25.333L11.5372 24.0281C12.5395 22.9684 14.4865 21.6996 15.8637 21.0868C16.693 20.7119 19.1807 19.6882 19.8369 19.7315C20.1326 19.4719 20.385 19.3782 20.796 19.335C21.0484 19.3061 21.8344 19.2052 22.0002 19.3854C22.1949 19.7891 22.1805 24.9725 22.0002 25.6286C21.1421 25.7799 20.2119 25.8953 19.4043 26.0106C19.0293 26.0611 18.575 26.2125 18.164 26.3206L15.9431 27.0271C15.77 27.0992 15.7051 27.1425 15.4383 27.2578L13.8735 27.9355C13.3255 28.2022 13.5851 28.1878 12.7919 28.3825L12.8135 28.3969ZM4.86713 24.0497C4.83107 22.0889 5.24209 19.9189 5.8406 18.1238C6.07856 17.4029 5.85502 17.4101 6.21556 16.7757C6.22998 16.7541 6.24441 16.7325 6.25883 16.7108L6.3742 16.4946C6.76359 15.7664 7.10971 14.9302 7.59284 14.2093L9.95802 11.0228C10.333 10.6696 10.7728 10.2226 11.1334 9.84771C11.3353 9.63865 11.5228 9.48726 11.7679 9.31424C12.3376 8.92494 12.6621 8.48518 13.6933 7.90845C14.2413 7.59846 14.5081 7.36776 15.0489 7.04335C15.3734 6.84871 15.5032 6.86312 15.8637 6.67569C16.1594 6.5315 16.318 6.43057 16.5704 6.31523C16.9021 6.16384 17.0535 6.07012 17.378 5.96919C17.7241 5.86105 17.8756 5.77454 18.1424 5.67361C19.0005 5.3492 21.1277 4.90944 21.9858 4.99595C22.0795 7.41102 22.0002 11.2968 22.0002 13.8632C22.0002 14.7932 21.9786 14.649 21.1277 14.6995C20.0605 14.7644 17.9405 15.2978 16.8805 15.615L10.1239 19.0826C9.78495 19.3638 9.43883 19.5801 9.17924 19.8396L8.78264 20.2794C8.0255 20.8345 7.21788 21.5842 6.55447 22.3268C6.14345 22.7881 5.35026 23.8623 4.88155 24.0425L4.86713 24.0497Z" fill="#5A5A5A"/>
<path fill-rule="evenodd" clip-rule="evenodd" d="M116.607 90.5686C116.665 91.5635 116.03 93.4307 115.648 94.0795C114.898 95.3627 114.718 95.5574 113.752 96.5595L112.288 97.6553C111.956 97.8499 110.939 98.3906 110.514 98.3978C110.269 98.9096 108.307 99.061 107.644 99.0682C90.3307 99.1764 72.6857 99.0682 55.3651 99.0682C53.0216 99.0682 50.6636 99.0899 48.3201 99.0682C47.4115 99.0538 46.8635 98.9024 45.9765 98.7438L44.2026 97.9941C43.3085 97.4534 41.9096 96.509 41.2606 95.7088L40.5539 94.6058C40.0492 93.6542 40.0492 93.8416 39.7896 92.6377C39.6742 92.0898 39.6309 92.5223 39.2776 90.6263C39.0685 89.4873 39.2199 37.4011 39.2199 31.4752V26.1404C39.2704 23.6821 40.7414 20.611 42.7605 19.1908C45.0463 17.5832 46.438 17.1794 49.3873 17.1794H101.666C102.128 17.1794 108.091 17.0208 108.509 17.3308C109.202 17.2155 110.968 17.8571 111.596 18.1455C113.305 18.9457 115.605 21.4256 116.117 23.1847C116.283 23.7542 116.369 24.1435 116.499 24.7419C116.896 26.4865 116.694 33.4866 116.694 36.1612C116.694 38.1365 116.665 37.9418 117.617 39.0664C118.215 39.1746 119.095 39.8667 120.22 39.1457C120.775 38.7925 121.374 38.0139 121.388 37.1344C121.417 35.2888 121.532 25.816 121.258 24.6842C121.092 24.0209 121.128 23.3865 120.869 22.7305C120.141 20.9138 119.874 19.7243 118.482 17.9725C118.186 17.5976 118.071 17.4029 117.768 17.0857L115.216 14.8509C115.028 14.7355 114.934 14.6562 114.768 14.5409C113.247 13.4307 110.074 12.5368 108.077 12.5079C105.95 12.4791 103.801 12.5007 101.673 12.5007H50.8871C48.6301 12.5007 46.9716 12.4142 45.0319 12.9333C44.2892 13.1279 43.6546 13.2288 42.984 13.5605C41.9024 14.0939 40.7703 14.7211 39.8256 15.5141L38.6431 16.6604C37.9003 17.266 37.3739 18.1238 36.8043 18.888L36.1625 19.8324C35.6505 20.8705 35.2179 22.1538 34.8862 23.2496C34.403 24.85 34.5401 32.3836 34.5401 34.1426V84.9167C34.5401 86.8343 34.403 89.3359 34.6554 91.0949C35.0376 93.7407 34.7347 92.0898 35.3693 94.339C35.463 94.6707 35.4198 94.7428 35.5496 95.0383C36.5663 97.439 38.2753 99.7243 40.4674 101.123L41.4192 101.764C41.8735 102.038 41.9817 102.067 42.4648 102.312L43.6546 102.911C46.7841 104.079 50.4545 103.718 53.7787 103.718H104.565C106.036 103.718 107.673 103.805 109.101 103.552C111.293 103.163 109.908 103.862 112.908 102.55C114.343 101.923 116.11 100.914 117.155 99.7315C118.093 98.6789 118.922 97.8283 119.585 96.5018L120.588 94.303C120.768 93.8128 120.689 93.4235 120.84 93.0342C120.97 92.7026 120.927 93.0198 121.056 92.5151C121.604 90.3452 121.402 91.4986 121.402 88.8601V50.7813C121.402 47.9914 122.196 43.5289 118.23 44.4517C117.602 44.5959 116.845 45.4898 116.751 46.2035C116.6 47.357 116.73 81.6509 116.73 87.4759C116.73 88.3771 116.838 89.3503 116.715 90.2442L116.622 90.5831L116.607 90.5686Z" fill="#5A5A5A"/>
<path fill-rule="evenodd" clip-rule="evenodd" d="M117.624 39.0592C118.013 39.8594 118.806 39.0232 118.922 40.2055V44.0047C117.465 44.5526 116.694 44.9131 116.636 46.3909C116.614 46.8884 116.622 47.393 116.622 47.8904V78.3996C116.622 81.3337 116.485 88.1536 116.622 90.5758L116.715 90.237C116.838 89.3431 116.73 88.3626 116.73 87.4687C116.73 81.6437 116.6 47.3497 116.751 46.1963C116.845 45.4826 117.602 44.5886 118.23 44.4445C122.196 43.5217 121.402 47.9841 121.402 50.7741V88.8529C121.402 91.4914 121.604 90.3379 121.056 92.5079C120.926 93.0125 120.97 92.7025 120.84 93.0269C120.688 93.4162 120.768 93.7983 120.588 94.2958L119.585 96.4946C118.922 97.821 118.085 98.6717 117.155 99.7243C116.11 100.907 114.343 101.916 112.908 102.543C109.908 103.855 111.293 103.156 109.101 103.545C107.68 103.797 106.043 103.711 104.565 103.711H53.7786C50.4544 103.711 46.7841 104.071 43.6545 102.904L42.4647 102.305C41.9816 102.06 41.8662 102.031 41.4191 101.757L40.4673 101.116C38.2752 99.7171 36.5662 97.4318 35.5495 95.0311C35.4269 94.7355 35.463 94.6634 35.3692 94.3318C34.7419 92.0826 35.0375 93.7335 34.6553 91.0877C34.403 89.3287 34.54 86.8271 34.54 84.9094V34.1354C34.54 32.3763 34.403 24.8428 34.8861 23.2423C35.2178 22.1393 35.6432 20.8633 36.1624 19.8252L36.8042 18.8808C37.3738 18.1166 37.9002 17.2587 38.643 16.6532L39.8255 15.5069C40.7702 14.7139 41.8951 14.0867 42.9839 13.5532C43.6617 13.2216 44.2963 13.1279 45.0318 12.926C46.9715 12.4142 48.63 12.4935 50.887 12.4935H101.673C103.808 12.4935 105.949 12.4719 108.077 12.5007C110.074 12.5295 113.247 13.4235 114.768 14.5337C114.934 14.6562 115.021 14.7283 115.215 14.8437L117.768 17.0785C118.064 17.3885 118.179 17.5904 118.482 17.9652C119.874 19.7171 120.148 20.9066 120.869 22.7233C121.128 23.3793 121.092 24.0137 121.258 24.677C121.532 25.8016 121.417 35.2744 121.388 37.1272C121.374 38.0067 120.775 38.7853 120.22 39.1385C119.095 39.8594 118.215 39.1746 117.617 39.0592H117.624ZM125.678 111.576C126.976 111.54 127.387 112.03 128.267 112.239C128.642 112.333 128.779 112.441 129.176 112.405C129.37 107.986 129.19 103.127 129.19 98.6573V9.91981C129.19 8.42752 129.248 8.13194 128.75 6.94243L128.628 6.61081C128.483 6.17105 127.481 5.34921 127.056 5.33479C126.068 5.15456 125.491 4.8734 124.287 4.8734H52.0552C50.0434 4.8734 28.3314 4.76526 26.9541 4.90945L27.0046 111.237C27.9276 111.41 37.5541 111.288 39.3568 111.288C67.6524 111.288 96.1138 111.18 124.395 111.288C124.828 111.288 125.34 111.295 125.671 111.583L125.678 111.576Z" fill="#FFB400"/>
<path fill-rule="evenodd" clip-rule="evenodd" d="M30.8627 148.364C31.1007 148.566 30.9421 148.682 31.3819 148.79C32.1751 148.984 32.4203 148.48 32.9178 148.199C33.3144 147.975 33.2063 148.04 33.4731 147.665C33.2495 147.651 33.4082 147.629 33.1846 147.694C33.1702 147.694 33.0332 147.752 33.026 147.759C32.2544 148.134 32.1895 148.718 31.2665 148.48C30.9925 147.384 30.9637 137.032 31.1872 135.77H48.1833C48.3924 136.707 48.2626 144.962 48.2626 147.204C48.2626 148.011 48.0463 148.163 48.0102 148.588H47.217C47.8011 149.085 48.4285 148.588 48.4789 147.845V139.843C48.4789 137.89 48.5583 130.637 48.4357 129.282C47.9814 129.123 31.2882 129.152 30.9565 129.282C30.6969 129.887 30.8267 146.259 30.8627 148.364Z" fill="#FF4D4D"/>
<path fill-rule="evenodd" clip-rule="evenodd" d="M125.678 111.576C125.347 111.295 124.835 111.281 124.402 111.281C96.1209 111.172 67.6596 111.281 39.364 111.281C37.5613 111.281 27.9348 111.403 27.0118 111.23L26.9613 4.90224C28.3386 4.75806 50.0506 4.86619 52.0624 4.86619H124.294C125.491 4.86619 126.068 5.14735 127.063 5.32758C126.883 4.98875 126.731 4.89503 125.873 4.7148C124.972 4.52736 26.918 4.67876 26.9036 4.68596C26.5935 4.80852 26.6656 4.82294 26.6656 5.31316L26.6801 98.6573C26.6801 102.392 26.5935 107.128 26.6801 110.826C26.6801 110.978 26.6801 111.071 26.7161 111.223C26.781 111.562 26.8531 111.511 27.1199 111.554H100.945C109.18 111.562 117.472 111.663 125.7 111.569L125.678 111.576Z" fill="#AA8662"/>
<path fill-rule="evenodd" clip-rule="evenodd" d="M124.294 129.181C123.984 129.707 123.926 130.154 123.645 130.659C123.148 131.545 123.364 131.351 123.213 131.819C123.09 132.201 123.169 131.913 123.068 132.108L122.758 133.809C122.484 134.999 122.751 138.293 123.155 139.49C123.415 140.247 123.306 140.434 123.941 141.811C124.027 142.006 124.15 142.143 124.287 142.374C125.174 142.46 126.205 142.374 127.02 142.568C127.554 142.698 128.585 143.26 129.19 143.239L129.169 128.236C128.491 128.229 127.568 128.828 127.006 128.979C126.277 129.181 125.109 129.087 124.294 129.181Z" fill="#FFB400"/>
<path fill-rule="evenodd" clip-rule="evenodd" d="M30.8626 148.364C30.8266 146.252 30.6968 129.887 30.9564 129.282C31.2881 129.152 47.9741 129.123 48.4356 129.282C48.5582 130.637 48.4789 137.89 48.4789 139.843V147.845C48.4284 148.595 47.7938 149.085 47.2169 148.588C46.7338 148.372 46.5319 147.961 45.9622 147.759C46.0848 148.098 45.9622 147.867 46.1497 148.098L47.253 148.912C47.9525 149.28 48.5221 148.573 48.5798 148.429C48.7601 147.961 48.6447 136.383 48.6447 134.934C48.6447 133.593 48.8106 130.14 48.5726 129.044C47.4837 128.878 45.2772 129.001 44.0658 129.001C42.2342 129.001 30.9924 128.864 30.7761 129.116C30.466 129.484 30.6824 144.176 30.6319 147.197C30.6319 147.225 30.6679 148.458 30.7977 148.264C30.8122 148.249 30.8338 148.336 30.8626 148.364Z" fill="#FF4D4D"/>
<path fill-rule="evenodd" clip-rule="evenodd" d="M20.1616 130.644C21.1207 130.356 21.2793 129.166 25.9448 129.166C26.1395 129.938 26.1755 141.357 25.9808 142.352C24.8775 142.475 24.0339 142.287 23.0027 142.237C23.183 142.64 23.2479 142.59 23.7887 142.612C24.755 142.64 25.8366 142.77 26.3846 142.345C26.5216 139.713 26.399 135.237 26.399 132.281C26.399 128.936 27.1346 128.64 23.4642 128.979C22.8224 129.037 23.0676 129.058 22.7575 129.21C22.4403 129.361 22.2528 129.275 21.9067 129.39L20.6231 130.06C20.1472 130.392 20.3852 130.125 20.1688 130.659L20.1616 130.644Z" fill="#2B2D2D"/>
<path fill-rule="evenodd" clip-rule="evenodd" d="M19.8445 19.7314C20.8756 19.7386 21.1136 19.4791 21.9284 19.4431L21.914 25.1671C21.6905 25.369 22.0077 25.1671 21.6184 25.3762C21.3083 25.5492 20.9549 25.542 20.6088 25.5636C19.9743 25.5997 19.8661 25.715 19.4046 25.8232C17.8903 26.1692 16.1741 26.6378 14.7968 27.2506C14.1839 27.5245 13.1311 27.8201 12.8066 28.3896C13.5998 28.195 13.3402 28.2094 13.8883 27.9427L15.453 27.265C15.7198 27.1497 15.7847 27.1064 15.9578 27.0343L18.1788 26.3278C18.5898 26.2197 19.0441 26.0683 19.419 26.0178C20.2266 25.9025 21.1569 25.7799 22.0149 25.6357C22.188 24.9797 22.2024 19.7963 22.0149 19.3926C21.8491 19.2124 21.0631 19.3133 20.8107 19.3421C20.3997 19.3854 20.1473 19.4791 19.8517 19.7386L19.8445 19.7314Z" fill="#624D39"/>
<path d="M88 54H87V50C87 45.5879 83.4121 42 79 42C74.5879 42 71 45.5879 71 50V54H70C68.3467 54 67 55.3452 67 57V71C67 72.6548 68.3467 74 70 74H88C89.6533 74 91 72.6548 91 71V57C91 55.3452 89.6533 54 88 54ZM73.6667 50C73.6667 47.0586 76.0586 44.6667 79 44.6667C81.9414 44.6667 84.3333 47.0586 84.3333 50V54H73.6667V50Z" fill="#5A5A5A"/>
</g>
<defs>
<clipPath id="clip0_269_9199">
<rect width="134" height="160" fill="white"/>
</clipPath>
</defs>
</svg>
