<svg width="48" height="48" viewBox="0 0 48 48" fill="none" xmlns="http://www.w3.org/2000/svg">
<path d="M30.0016 37.8809C29.7384 37.8824 29.4774 37.832 29.2338 37.7325C28.9901 37.6329 28.7685 37.4863 28.5816 37.3009L16.5816 25.3009C16.2091 24.9262 16 24.4193 16 23.8909C16 23.3625 16.2091 22.8556 16.5816 22.4809L28.5816 10.4809C28.9642 10.1533 29.4563 9.98205 29.9597 10.0015C30.463 10.0209 30.9405 10.2296 31.2967 10.5858C31.6529 10.942 31.8616 11.4195 31.881 11.9228C31.9005 12.4262 31.7292 12.9183 31.4016 13.3009L20.8216 23.8809L31.4016 34.4609C31.6824 34.7395 31.8744 35.095 31.9531 35.4827C32.0319 35.8703 31.994 36.2726 31.8441 36.6386C31.6943 37.0047 31.4392 37.3181 31.1113 37.5392C30.7833 37.7603 30.3971 37.8793 30.0016 37.8809Z" fill="#5A5A5A"/>
</svg>
