<svg width="24" height="24" viewBox="0 0 24 24" fill="none" xmlns="http://www.w3.org/2000/svg">
<g opacity="0.5">
<path d="M17.1444 19.7119C16.7642 19.8897 16.5146 20.2959 16.5146 20.7339C16.5146 21.1148 16.6929 21.464 16.9899 21.6671C17.1622 21.7877 17.3582 21.8512 17.5602 21.8512C17.7028 21.8512 17.8454 21.8195 17.982 21.756C21.6355 20.0293 23.9998 16.1633 23.9998 11.9038C23.9998 7.6442 21.6355 3.77822 17.982 2.05154C17.6612 1.89919 17.2869 1.93092 16.9958 2.13406C16.6988 2.34355 16.5206 2.6927 16.5206 3.07358C16.5206 3.5116 16.7642 3.91153 17.1503 4.09562C20.0434 5.46681 21.9147 8.53294 21.9147 11.9038C21.9147 15.2746 20.0434 18.3407 17.1503 19.7119H17.1444Z" fill="#5A5A5A"/>
<path d="M19.77 11.9159C19.77 14.1885 18.4156 16.1183 16.5205 16.8356V6.99609C18.4156 7.71343 19.77 9.6496 19.77 11.9222V11.9159Z" fill="#5A5A5A"/>
</g>
<path d="M12.8852 0.145508L5.13271 6.48724H1.48516C0.665351 6.48724 0 7.19822 0 8.07426V15.9141C0 16.7902 0.665351 17.5012 1.48516 17.5012H5.13271L12.8852 23.8429C13.3486 24.2238 14.0199 23.8683 14.0199 23.2462V0.754924C14.0199 0.126464 13.3486 -0.222683 12.8852 0.158202V0.145508Z" fill="#5A5A5A"/>
</svg>
