<svg width="62" height="62" viewBox="0 0 62 62" fill="none" xmlns="http://www.w3.org/2000/svg">
<g clip-path="url(#clip0_296_6771)">
<path d="M42.2444 28.5088L42.2452 28.5093C43.1026 29.0464 43.625 29.9869 43.625 31C43.625 32.0132 43.1025 32.9535 42.2453 33.4906L42.2444 33.4912L26.7447 43.1785C25.8403 43.7443 24.6979 43.7772 23.7621 43.2558C22.8292 42.7381 22.25 41.7556 22.25 40.6875V21.3125C22.25 20.2443 22.8293 19.2618 23.7622 18.7441C24.2071 18.4968 24.6984 18.375 25.1875 18.375C25.7279 18.375 26.2686 18.5242 26.744 18.821L26.7444 18.8213L42.2444 28.5088ZM1 31C1 47.5685 14.4317 61 31 61C47.5683 61 61 47.5685 61 31C61 14.4314 47.5683 1 31 1C14.4317 1 1 14.4314 1 31Z" fill="#FFB400" stroke="#5A5A5A" stroke-width="2"/>
</g>
<defs>
<clipPath id="clip0_296_6771">
<rect width="62" height="62" fill="white" transform="matrix(1 0 0 -1 0 62)"/>
</clipPath>
</defs>
</svg>
