<?xml version="1.0" encoding="UTF-8"?>
<svg id="Capa_1" xmlns="http://www.w3.org/2000/svg" version="1.1" viewBox="0 0 512 512">
  <!-- Generator: Adobe Illustrator 29.2.1, SVG Export Plug-In . SVG Version: 2.1.0 Build 116)  -->
  <defs>
    <style>
      .st0 {
        fill: #80b6fc;
      }

      .st1 {
        fill: #be694e;
      }

      .st2 {
        fill: #ebae9d;
      }

      .st3 {
        fill: #5a5a5a;
      }

      .st4 {
        fill: #ddebfd;
      }

      .st5 {
        fill: #ff4d4d;
      }

      .st6 {
        fill: #407194;
      }

      .st7 {
        fill: #62a4fb;
      }

      .st8 {
        fill: #4980ac;
      }

      .st9 {
        fill: #5d91b9;
      }

      .st10 {
        fill: #ffb400;
      }

      .st11 {
        fill: #bed9fd;
      }

      .st12 {
        fill: #ffcdbe;
      }

      .st13 {
        fill: #ffd966;
      }
    </style>
  </defs>
  <path class="st8" d="M442.2,254.8h-131.5c-16,0-28.9,13-28.9,28.9v220.8h164.3v-100.2h20.9c17.2,0,31.1-13.9,31.1-31.1v-62.5c0-30.8-25-55.9-55.9-55.9h0Z"/>
  <path class="st6" d="M330.8,404.3h115.3v28.5h-115.3v-28.5Z"/>
  <path class="st9" d="M446.1,254.9v108.3h-69.1v41.1h89.9c2.1,0,4.2-.2,6.3-.6,6.7-1.4,13.1-5,17.8-10.7,1.6-1.9,2.9-4,4-6.3,2-4.1,3.1-8.7,3.1-13.5v-62.5c0-29.6-23-53.7-52-55.7h0Z"/>
  <g>
    <path class="st1" d="M278.7,30.7v102.3h180.7v-46.6c0-37.5-30.4-67.9-67.9-67.9h-56.8c-5.7,0-11.3-1.6-16.1-4.6l-4.5-2.8c-15.4-9.7-35.5,1.4-35.5,19.6Z"/>
    <path class="st2" d="M341.6,175.1v84.5c0,13.1,10.6,23.6,23.6,23.6h7.6c13.1,0,23.6-10.6,23.6-23.6v-84.5h-54.8Z"/>
    <g>
      <path class="st12" d="M270.5,133c0,12.7,10.3,23,23,23h150.9c12.7,0,23-10.3,23-23s-10.3-23-23-23h-150.9c-12.7,0-23,10.3-23,23Z"/>
      <path class="st12" d="M313.1,72.6v96.8c0,29.2,23.7,52.9,52.9,52.9h6.1c29.2,0,52.9-23.7,52.9-52.9v-62.8c0-20.5-16.6-37-37-37h-71.9c-1.7,0-3,1.3-3,3h0Z"/>
    </g>
  </g>
  <path class="st0" d="M351.8,432.2h-206.3c-6.4,0-11.6-5.2-11.6-11.6v-170.3c0-6.4,5.2-11.6,11.6-11.6h206.3c6.4,0,11.6,5.2,11.6,11.6v170.3c0,6.4-5.2,11.6-11.6,11.6h0Z"/>
  <path class="st7" d="M351.8,238.7h-28.2c6.4,0,11.6,5.2,11.6,11.6v170.3c0,6.4-5.2,11.6-11.6,11.6h28.2c6.4,0,11.6-5.2,11.6-11.6v-170.3c0-6.4-5.2-11.6-11.6-11.6h0Z"/>
  <path class="st4" d="M351.8,466.1h-206.3c-6.4,0-11.6-5.2-11.6-11.6v-170.3c0-6.4,5.2-11.6,11.6-11.6h206.3c6.4,0,11.6,5.2,11.6,11.6v170.3c0,6.4-5.2,11.6-11.6,11.6Z"/>
  <path class="st11" d="M363.4,284.2v170.3c0,6.4-5.2,11.6-11.6,11.6h-28.2c6.4,0,11.6-5.2,11.6-11.6v-181.9h16.6c6.4,0,11.6,5.2,11.6,11.6h0Z"/>
  <g>
    <path class="st5" d="M220.5,309.6v57.4c0,3.8,4.1,6.1,7.3,4.1l46.6-28.7c3.1-1.9,3.1-6.3,0-8.2l-46.6-28.7c-3.2-2-7.3.3-7.3,4.1h0Z"/>
    <circle class="st5" cx="217.5" cy="421.9" r="15.6" transform="translate(-145 115.4) rotate(-22.5)"/>
  </g>
  <path class="st12" d="M377,404.3h-22.5c-10.2,0-18.5-8.3-18.5-18.5v-22.5h41.1v41.1Z"/>
  <path class="st12" d="M244.8,495.1h-23.9c-6,0-10.9-4.9-10.9-10.9v-18.1h45.7v18.1c0,6-4.9,10.9-10.9,10.9h0Z"/>
  <ellipse class="st10" cx="118.1" cy="198.5" rx="104.2" ry="105.7"/>
  <path class="st13" d="M197.5,130.1c6.4,13.7,9.9,29,9.9,45.1,0,58.4-46.7,105.7-104.2,105.7s-60.3-14.4-79.4-37.2c16.7,35.8,52.6,60.6,94.3,60.6s104.2-47.3,104.2-105.7c0-26.1-9.4-50-24.9-68.5h0Z"/>
  <g>
    <path class="st6" d="M69.8,190v50.4c0,2.5,1.6,4.6,4,5.2l41.7,10.8c1.7.5,3.5.5,5.3,0l41.7-10.8c2.4-.6,4-2.8,4-5.2v-50.4h-96.7Z"/>
    <path class="st9" d="M116.6,165.5l-73.2,22.1c-2.3.7-2.3,4,0,4.7l73.2,22.1c1,.3,2,.3,3,0l73.2-22.1c2.3-.7,2.3-4,0-4.7l-73.2-22.1c-1-.3-2-.3-3,0h0Z"/>
  </g>
  <g>
    <path class="st3" d="M370.1,194.7c6.8,0,13.2-2.6,18.1-7.4,3-2.9,3.1-7.6.2-10.6-2.9-3-7.6-3.1-10.6-.2-2.1,2-4.8,3.2-7.7,3.2h-2.2c-2.9,0-5.6-1.1-7.7-3.2-3-2.9-7.7-2.8-10.6.2-2.9,3-2.8,7.7.2,10.6,4.9,4.8,11.4,7.4,18.1,7.4h2.2Z"/>
    <path class="st3" d="M219.3,377.8c1.9,1,3.9,1.6,6,1.6s4.5-.6,6.5-1.8l46.6-28.7c3.7-2.3,5.9-6.2,5.9-10.5s-2.2-8.2-5.9-10.5l-46.6-28.7c-3.8-2.3-8.6-2.4-12.5-.3-3.9,2.2-6.3,6.3-6.3,10.8v57.4c0,4.5,2.4,8.6,6.3,10.8ZM228,314.4l38.8,23.9-38.8,23.9v-47.8Z"/>
    <path class="st3" d="M311.3,414.4h-72.1c-3.1-9.1-11.7-15.6-21.9-15.6s-18.7,6.5-21.9,15.6h-9.6c-4.1,0-7.5,3.4-7.5,7.5,0,4.1,3.4,7.5,7.5,7.5h9.6c3.1,9.1,11.7,15.6,21.9,15.6s18.7-6.5,21.9-15.6h72.1c4.1,0,7.5-3.4,7.5-7.5s-3.4-7.5-7.5-7.5ZM217.4,430c-4.5,0-8.1-3.6-8.1-8.1s3.6-8.1,8.1-8.1,8.1,3.6,8.1,8.1-3.6,8.1-8.1,8.1Z"/>
    <path class="st3" d="M505.6,363.2v-52.6c0-34.9-28.4-63.4-63.4-63.4h-38.3v-26.5c17.1-10.7,28.5-29.7,28.5-51.3v-5.9h12c16.8,0,30.5-13.7,30.5-30.5s-3.1-15.3-8.1-20.7v-25.9c0-22.6-10-43.8-27.4-58.2-3.2-2.6-7.9-2.2-10.6,1-2.6,3.2-2.2,7.9,1,10.6,14,11.5,22,28.5,22,46.6v17c-2.4-.6-4.9-.9-7.4-.9h-12.2c-2.1-22.6-21.2-40.4-44.3-40.4h-71.9c-5.8,0-10.5,4.7-10.5,10.5v29.9h-12c-2.6,0-5,.3-7.4.9V30.7c0-5.8,3-10.9,8.1-13.7,5.1-2.8,11-2.6,15.9.5l4.5,2.8c6,3.8,13,5.8,20.1,5.8h56.8c3.1,0,6.3.2,9.3.7,4.1.6,7.9-2.2,8.6-6.3.6-4.1-2.2-7.9-6.3-8.6-3.8-.6-7.7-.9-11.6-.9h-56.8c-4.3,0-8.5-1.2-12.1-3.5l-4.5-2.8c-9.6-6-21.2-6.4-31.2-.9-9.9,5.5-15.8,15.5-15.8,26.8v81.6c-5,5.4-8.1,12.7-8.1,20.7,0,16.8,13.7,30.5,30.5,30.5h12v5.9c0,21.6,11.4,40.6,28.5,51.3v10.5h-109c3.1-10.3,4.7-21.3,4.7-32.7,0-62.4-50.1-113.2-111.7-113.2S6.4,136.1,6.4,198.5s50.1,113.2,111.7,113.2,5.5-.1,8.2-.3v143.1c0,10.5,8.6,19.1,19.1,19.1h57.1v10.6c0,10.1,8.2,18.4,18.4,18.4h23.9c10.1,0,18.4-8.2,18.4-18.4v-10.6h11.1v30.9c0,4.1,3.4,7.5,7.5,7.5h164.3c4.1,0,7.5-3.4,7.5-7.5v-25.9c0-4.1-3.4-7.5-7.5-7.5s-7.5,3.4-7.5,7.5v18.4h-149.3v-23.4h62.5c10.5,0,19.1-8.6,19.1-19.1v-42.8h67.7v31.8c0,4.1,3.4,7.5,7.5,7.5s7.5-3.4,7.5-7.5v-31.8h13.4c7.3,0,14.2-2,20-5.6,11.2-6.8,18.6-19.1,18.6-33v-9.9h0ZM460,133.1c0,8.6-7,15.5-15.5,15.5h-12v-31.1h12c8.6,0,15.5,7,15.5,15.5ZM293.6,148.6c-8.6,0-15.5-7-15.5-15.5s7-15.5,15.5-15.5h12v31.1h-12ZM320.6,169.5v-13.3s0,0,0,0,0,0,0,0v-45.9s0,0,0,0,0,0,0,0v-32.8h67.4c16.3,0,29.5,13.3,29.5,29.5v62.8c0,25-20.4,45.4-45.4,45.4h-6.1c-25,0-45.4-20.4-45.4-45.4ZM349.1,227.4c5.4,1.6,11,2.4,16.8,2.4h6.1c5.8,0,11.5-.9,16.9-2.4v32.2c0,8.9-7.2,16.1-16.1,16.1h-1.9v-25.5c0-10.5-8.6-19.1-19.1-19.1h-2.7v-3.7ZM363.5,396.8s0,0,0,0,0,0,0,0h-8.8c-6.1,0-11-5-11-11v-15h26.1v26.1h-6.1ZM351.8,246.2c2.3,0,4.1,1.8,4.1,4.1v15.3c-1.3-.3-2.7-.5-4.1-.5h-143.3c4.3-5.9,8-12.2,11.1-18.9h132.3ZM21.4,198.5c0-54.1,43.4-98.2,96.7-98.2s96.7,44,96.7,98.2-43.4,98.2-96.7,98.2S21.4,252.7,21.4,198.5ZM248.2,484.2c0,1.9-1.5,3.4-3.4,3.4h-23.9c-1.9,0-3.4-1.5-3.4-3.4v-10.6h30.7v10.6ZM355.9,454.5c0,2.3-1.9,4.1-4.1,4.1h-206.3c-2.3,0-4.1-1.8-4.1-4.1v-145.3c20.8-4.5,39.4-14.8,54.2-29.1h156.3c2.3,0,4.1,1.8,4.1,4.1v71.4h-40.5c-4.1,0-7.5,3.4-7.5,7.5s3.4,7.5,7.5,7.5h13v15c0,14.4,11.7,26,26,26h1.4v42.8ZM488.2,383.4c-3.8,7.9-11.9,13.4-21.3,13.4s-78,0-82.4,0v-26.1h74.9c4.1,0,7.5-3.4,7.5-7.5s-3.4-7.5-7.5-7.5h-5.8v-47.7c0-4.1-3.4-7.5-7.5-7.5s-7.5,3.4-7.5,7.5v47.7h-67.7v-64.9h1.9c16.3,0,29.7-12.6,31-28.5h38.4c26.7,0,48.4,21.7,48.4,48.4v62.5c0,2-.2,6-2.3,10.2h0Z"/>
    <path class="st3" d="M195,199.5c4.2-1.3,7.1-5.1,7.1-9.5s-2.8-8.3-7.1-9.5l-73.2-22.1c-2.4-.7-5-.7-7.4,0l-73.2,22.1c-4.2,1.3-7.1,5.1-7.1,9.5s.6,4,1.7,5.6v24.8c0,4.1,3.4,7.5,7.5,7.5s7.5-3.4,7.5-7.5v-18l11.4,3.4v34.6c0,5.9,4,11,9.6,12.5l41.7,10.8c1.5.4,3,.6,4.5.6s3-.2,4.5-.6l41.7-10.8c5.7-1.5,9.6-6.6,9.6-12.5v-34.6l21-6.4ZM118.2,172.9l56.6,17.1-56.6,17.1-56.6-17.1,56.6-17.1ZM159,238.8l-40.1,10.4c-.5.1-1,.1-1.5,0l-40.1-10.4v-28.4l37.2,11.2c1.2.4,2.4.5,3.7.5s2.5-.2,3.7-.5l37.2-11.2v28.4Z"/>
  </g>
</svg>