<?xml version="1.0" encoding="UTF-8"?>
<svg id="Icons" xmlns="http://www.w3.org/2000/svg" version="1.1" viewBox="0 0 512 512">
  <!-- Generator: Adobe Illustrator 29.2.1, SVG Export Plug-In . SVG Version: 2.1.0 Build 116)  -->
  <defs>
    <style>
      .st0 {
        fill: #5a5a5a;
      }

      .st1 {
        fill: #ff4d4d;
      }

      .st2 {
        fill: #ffb400;
      }

      .st3 {
        fill: #ffd966;
      }
    </style>
  </defs>
  <rect class="st2" x="8.5" y="8.5" width="341.3" height="119.5" rx="17.1" ry="17.1"/>
  <path class="st3" d="M324.3,315.7H85.3c-9.4,0-17.1-7.7-17.1-17.1v-85.3c0-9.4,7.7-17.1,17.1-17.1h238.9v119.5Z"/>
  <rect class="st3" x="8.5" y="384" width="341.3" height="119.5" rx="17.1" ry="17.1"/>
  <path class="st2" d="M501.8,243.2c-.9-3.8-4.2-6.7-8.1-7.3l-12.1-2c-2.2-9-5.8-17.5-10.4-25.3l7.2-10.1c2.2-3.2,2.6-7.4.5-10.8-1.7-2.9-4.3-6.5-7.9-10.2s-7.3-6.2-10.2-7.9c-3.4-2-7.7-1.7-10.8.6l-10.1,7.1c-7.8-4.6-16.2-8.2-25.3-10.4l-2-12.1c-.7-3.9-3.5-7.2-7.3-8.1-3.2-.9-7.7-1.6-12.8-1.6s-9.6.8-12.8,1.6c-3.8.9-6.7,4.2-7.3,8.1l-2,12.1c-9,2.2-17.5,5.8-25.3,10.4l-10.1-7.1c-3.2-2.3-7.4-2.6-10.8-.6-2.9,1.7-6.5,4.3-10.2,7.9s-6.2,7.3-7.9,10.2c-2,3.4-1.7,7.7.5,10.8l7.2,10.1c-4.6,7.8-8.2,16.2-10.4,25.3l-12.1,2c-3.9.7-7.2,3.5-8.1,7.3-.9,3.2-1.6,7.7-1.6,12.8s.8,9.6,1.6,12.8c.9,3.8,4.2,6.7,8.1,7.3l12.1,2c2.2,9,5.8,17.5,10.4,25.3l-7.2,10.1c-2.2,3.2-2.6,7.4-.5,10.8,1.7,2.9,4.3,6.5,7.9,10.2s7.3,6.2,10.2,7.9c3.4,2,7.7,1.7,10.8-.6l10.1-7.1c7.8,4.6,16.2,8.2,25.3,10.4l2,12.1c.7,3.9,3.5,7.2,7.3,8.1,3.2.9,7.7,1.6,12.8,1.6s9.6-.8,12.8-1.6c3.8-.9,6.7-4.2,7.3-8.1l2-12.1c9-2.2,17.5-5.8,25.3-10.4l10.1,7.1c3.2,2.3,7.4,2.6,10.8.6,2.9-1.7,6.5-4.3,10.2-7.9s6.2-7.3,7.9-10.2c2-3.4,1.7-7.7-.5-10.8l-7.2-10.1c4.6-7.8,8.2-16.2,10.4-25.3l12.1-2c3.9-.7,7.2-3.5,8.1-7.3.9-3.2,1.6-7.7,1.6-12.8s-.8-9.6-1.6-12.8ZM392.5,307.2c-28.2,0-51.2-23-51.2-51.2s23-51.2,51.2-51.2,51.2,23,51.2,51.2-23,51.2-51.2,51.2Z"/>
  <g>
    <path class="st0" d="M128,273.1h-12.5c1.3-1.2,2.9-2.4,4.8-3.8,6.8-5.1,16.2-12.2,16.2-26s-9.6-21.3-21.3-21.3-18.7,8.6-19.5,9.6c-2.9,3.7-2.3,9.1,1.3,12,3.7,3,9.1,2.3,12-1.3,0,0,2.9-3.2,6.1-3.2s4.3,1.9,4.3,4.3c0,4.8-2.7,7.4-9.4,12.4-6.8,5.1-16.2,12.2-16.2,26s3.8,8.5,8.5,8.5h25.6c4.7,0,8.5-3.8,8.5-8.5s-3.8-8.5-8.5-8.5h0Z"/>
    <path class="st0" d="M68.3,85.3v-42.7c0-3.4-2.1-6.6-5.3-7.9-3.2-1.3-6.9-.6-9.3,1.9l-8.5,8.5c-3.3,3.3-3.3,8.7,0,12.1,1.7,1.7,3.8,2.5,6,2.5v25.6c-4.7,0-8.5,3.8-8.5,8.5s3.8,8.5,8.5,8.5h17.1c4.7,0,8.5-3.8,8.5-8.5s-3.8-8.5-8.5-8.5Z"/>
    <path class="st0" d="M55.5,409.6c-11,0-18.5,8.4-19.3,9.4-3,3.6-2.6,8.9.9,11.9,3.5,3.1,8.9,2.7,12-.8.8-.9,3.7-3.5,6.4-3.5s4.3,1.9,4.3,4.3c0,3.9-2.1,4.2-3,4.4-4.2.6-7.3,4.2-7.3,8.4s3.1,7.8,7.3,8.4c.9.1,3,.4,3,4.4s-1.9,4.3-4.3,4.3-5.5-2.6-6.3-3.5c-3.1-3.5-8.4-4-12-.9-3.6,3-4,8.4-1,12,.8,1,8.3,9.4,19.3,9.4s21.3-9.6,21.3-21.3-1.3-9.3-3.8-12.8c2.4-3.5,3.8-7.9,3.8-12.8,0-11.8-9.6-21.3-21.3-21.3h0Z"/>
  </g>
  <path class="st1" d="M281.6,59.7H119.5c-4.7,0-8.5-3.8-8.5-8.5s3.8-8.5,8.5-8.5h162.1c4.7,0,8.5,3.8,8.5,8.5s-3.8,8.5-8.5,8.5Z"/>
  <path class="st1" d="M221.9,93.9h-102.4c-4.7,0-8.5-3.8-8.5-8.5s3.8-8.5,8.5-8.5h102.4c4.7,0,8.5,3.8,8.5,8.5s-3.8,8.5-8.5,8.5Z"/>
  <path class="st2" d="M281.6,435.2H119.5c-4.7,0-8.5-3.8-8.5-8.5s3.8-8.5,8.5-8.5h162.1c4.7,0,8.5,3.8,8.5,8.5s-3.8,8.5-8.5,8.5Z"/>
  <path class="st2" d="M221.9,469.3h-102.4c-4.7,0-8.5-3.8-8.5-8.5s3.8-8.5,8.5-8.5h102.4c4.7,0,8.5,3.8,8.5,8.5s-3.8,8.5-8.5,8.5Z"/>
  <path class="st2" d="M247.5,247.5h-68.3c-4.7,0-8.5-3.8-8.5-8.5s3.8-8.5,8.5-8.5h68.3c4.7,0,8.5,3.8,8.5,8.5s-3.8,8.5-8.5,8.5Z"/>
  <path class="st2" d="M230.4,281.6h-51.2c-4.7,0-8.5-3.8-8.5-8.5s3.8-8.5,8.5-8.5h51.2c4.7,0,8.5,3.8,8.5,8.5s-3.8,8.5-8.5,8.5Z"/>
  <path class="st0" d="M392.5,315.7c-32.9,0-59.7-26.8-59.7-59.7s26.8-59.7,59.7-59.7,59.7,26.8,59.7,59.7-26.8,59.7-59.7,59.7ZM392.5,213.3c-23.5,0-42.7,19.1-42.7,42.7s19.1,42.7,42.7,42.7,42.7-19.1,42.7-42.7-19.1-42.7-42.7-42.7Z"/>
</svg>