<svg width="107" height="107" viewBox="0 0 107 107" fill="none" xmlns="http://www.w3.org/2000/svg">
<g clip-path="url(#clip0_356_18745)">
<path d="M8.67188 7.1333H83.3587V105.217H8.67188V7.1333Z" fill="#FFD966"/>
<path d="M83.3587 1.7832V12.4832H14.0066C11.0614 12.4832 8.67188 10.0868 8.67188 7.1332C8.67188 4.17956 11.0614 1.7832 14.0066 1.7832H83.3587Z" fill="#FFD966"/>
<path d="M46 78.4643L83.3368 41.021L94.0041 51.7188L56.6673 89.1621L46 78.4643Z" fill="#FF9F00"/>
<path d="M83.3438 41.0233L88.6785 35.6733L99.3458 46.3711L94.0111 51.7211L83.3438 41.0233Z" fill="#FFD966"/>
<path d="M88.6875 35.6668L93.2865 31.0547C94.6758 29.6615 96.9275 29.6615 98.3168 31.0547L103.956 36.7101C105.345 38.1033 105.345 40.3615 103.956 41.7547L99.357 46.3668L88.6875 35.6668Z" fill="#FDF6E3"/>
<path d="M46.0126 78.4668L44.2344 90.9501L56.6822 89.1668V78.4668H46.0126Z" fill="#FFD966"/>
<path d="M78.0219 26.7501C78.0219 25.7648 77.2262 24.9668 76.2437 24.9668H37.122C36.1395 24.9668 35.3438 25.7648 35.3438 26.7501C35.3438 27.7354 36.1395 28.5335 37.122 28.5335H76.2437C77.2262 28.5335 78.0219 27.7354 78.0219 26.7501Z" fill="#FF4D4D"/>
<path d="M76.2465 35.6665H62.0204C61.038 35.6665 60.2422 36.4645 60.2422 37.4498C60.2422 38.4351 61.038 39.2332 62.0204 39.2332H76.2465C77.229 39.2332 78.0248 38.4351 78.0248 37.4498C78.0248 36.4645 77.229 35.6665 76.2465 35.6665Z" fill="#FF4D4D"/>
<path d="M107 39.2333C107.004 37.8134 106.442 36.4513 105.437 35.4504L99.7981 29.795C97.7131 27.7085 94.3388 27.7085 92.2538 29.795L85.3564 36.7121V1.78333C85.3564 0.798042 84.5606 0 83.5781 0H14.2261C10.3006 0.00445833 7.11748 3.19663 7.11303 7.13333V17.9314C2.95413 18.4018 0 20.5016 0 23.1833C0 25.865 2.95413 27.9649 7.11303 28.4353V32.2003C2.95413 32.6684 0 34.7705 0 37.4522C0 40.1339 2.95413 42.2338 7.11303 42.7041V46.4692C2.95413 46.9373 0 49.0394 0 51.7211C0 54.4028 2.95413 56.5027 7.11303 56.973V60.7381C2.95413 61.2062 0 63.3083 0 65.99C0 68.6717 2.95413 70.7716 7.11303 71.2419V75.007C2.95413 75.4751 0 77.5772 0 80.2589C0 82.9406 2.95413 85.0405 7.11303 85.5108V89.2759C2.95413 89.744 0 91.8461 0 94.5278C0 97.2095 2.95413 99.3094 7.11303 99.7797V105.228C7.11303 106.213 7.9088 107.011 8.89129 107.011H83.5781C84.5606 107.011 85.3564 106.213 85.3564 105.228V63.1657L105.437 43.0274C106.442 42.0265 107.004 40.6645 107 39.2445V39.2333ZM47.5551 80.25H54.9037V87.6196L46.3303 88.8479L47.5551 80.25ZM50.3047 76.6833L83.3558 43.5379L86.1766 46.3667L55.9462 76.6833H50.3069H50.3047ZM58.4602 79.2045L88.6906 48.8879L91.5114 51.7167L58.4602 84.8622V79.2068V79.2045ZM85.8699 41.0167L88.6906 38.1879L96.8462 46.3667L94.0254 49.1955L85.8699 41.0167ZM75.5071 46.3667H24.6733V39.2333H54.9037C55.8862 39.2333 56.682 38.4353 56.682 37.45C56.682 36.4647 55.8862 35.6667 54.9037 35.6667H24.6733V14.2667H81.5776V40.2788L75.5071 46.3667ZM14.0038 3.56667H81.5776V10.7H14.0038C12.0388 10.7 10.4473 9.10392 10.4473 7.13333C10.4473 5.16275 12.0388 3.56667 14.0038 3.56667ZM3.33423 23.1833C3.33423 22.8222 4.58124 21.8726 6.89075 21.5271V24.8374C4.58124 24.4919 3.33423 23.5422 3.33423 23.1811V23.1833ZM3.33423 37.45C3.33423 37.0889 4.58124 36.1393 6.89075 35.7937V39.104C4.58124 38.7585 3.33423 37.8089 3.33423 37.4478V37.45ZM3.33423 51.7167C3.33423 51.3555 4.58124 50.4059 6.89075 50.0604V53.3707C4.58124 53.0252 3.33423 52.0756 3.33423 51.7144V51.7167ZM3.33423 65.9833C3.33423 65.6222 4.58124 64.6726 6.89075 64.3271V67.6374C4.58124 67.2919 3.33423 66.3422 3.33423 65.9811V65.9833ZM3.33423 80.25C3.33423 79.8889 4.58124 78.9393 6.89075 78.5937V81.904C4.58124 81.5585 3.33423 80.6089 3.33423 80.2478V80.25ZM3.33423 94.5167C3.33423 94.1555 4.58124 93.2059 6.89075 92.8604V96.1707C4.58124 95.8252 3.33423 94.8756 3.33423 94.5144V94.5167ZM10.4473 99.7686C14.6062 99.3005 17.5603 97.1984 17.5603 94.5167C17.5603 93.5314 16.7645 92.7333 15.782 92.7333C14.7996 92.7333 14.0038 93.5314 14.0038 94.5167C14.0038 94.8778 12.7568 95.8274 10.4473 96.1729V85.5019C14.6062 85.0338 17.5603 82.9317 17.5603 80.25C17.5603 79.2647 16.7645 78.4667 15.782 78.4667C14.7996 78.4667 14.0038 79.2647 14.0038 80.25C14.0038 80.6111 12.7568 81.5608 10.4473 81.9063V71.2353C14.6062 70.7671 17.5603 68.665 17.5603 65.9833C17.5603 64.998 16.7645 64.2 15.782 64.2C14.7996 64.2 14.0038 64.998 14.0038 65.9833C14.0038 66.3445 12.7568 67.2941 10.4473 67.6396V56.9686C14.6062 56.5005 17.5603 54.3984 17.5603 51.7167C17.5603 50.7314 16.7645 49.9333 15.782 49.9333C14.7996 49.9333 14.0038 50.7314 14.0038 51.7167C14.0038 52.0778 12.7568 53.0274 10.4473 53.3729V42.7019C14.6062 42.2338 17.5603 40.1317 17.5603 37.45C17.5603 36.4647 16.7645 35.6667 15.782 35.6667C14.7996 35.6667 14.0038 36.4647 14.0038 37.45C14.0038 37.8111 12.7568 38.7608 10.4473 39.1063V28.4353C14.6062 27.9671 17.5603 25.865 17.5603 23.1833C17.5603 22.198 16.7645 21.4 15.782 21.4C14.7996 21.4 14.0038 22.198 14.0038 23.1833C14.0038 23.5445 12.7568 24.4941 10.4473 24.8396V13.3081C11.5276 13.9368 12.7546 14.2689 14.0038 14.2689H21.1168V103.436H10.4473V99.7708V99.7686ZM81.5776 103.433H24.6733V71.3333H46.0124C46.9949 71.3333 47.7907 70.5353 47.7907 69.55C47.7907 68.5647 46.9949 67.7667 46.0124 67.7667H24.6733V60.6333H40.6777C41.6601 60.6333 42.4559 59.8353 42.4559 58.85C42.4559 57.8647 41.6601 57.0667 40.6777 57.0667H24.6733V49.9333H71.9505L64.8375 57.0667H47.7907C46.8082 57.0667 46.0124 57.8647 46.0124 58.85C46.0124 59.8353 46.8082 60.6333 47.7907 60.6333H61.281L44.7565 77.205C44.4831 77.4769 44.3075 77.8314 44.2519 78.2125L42.4737 90.6959C42.3337 91.67 43.0094 92.5751 43.9808 92.7133C44.0652 92.7244 44.1497 92.7311 44.2342 92.7311C44.3186 92.7311 44.4031 92.7244 44.4853 92.7133L56.9332 90.9299C57.3133 90.8764 57.6667 90.6981 57.9379 90.4239L81.5776 66.719V103.431V103.433ZM102.701 40.495L99.3602 43.8455L91.2046 35.6667L94.5455 32.3162C95.2413 31.6207 96.366 31.6207 97.0595 32.3162L102.699 37.9716C103.392 38.6694 103.392 39.7973 102.699 40.4928L102.701 40.495Z" fill="#5A5A5A"/>
</g>
<defs>
<clipPath id="clip0_356_18745">
<rect width="107" height="107" fill="white"/>
</clipPath>
</defs>
</svg>
