<svg width="90" height="91" viewBox="0 0 90 91" fill="none" xmlns="http://www.w3.org/2000/svg">
<g clip-path="url(#clip0_356_18755)">
<path d="M46.5506 38.5592C49.9786 38.5592 52.7575 35.797 52.7575 32.3897C52.7575 28.9824 49.9786 26.2202 46.5506 26.2202C43.1227 26.2202 40.3438 28.9824 40.3438 32.3897C40.3438 35.797 43.1227 38.5592 46.5506 38.5592Z" fill="#FDCD08"/>
<path d="M65.1756 50.8981C68.6036 50.8981 71.3825 48.1359 71.3825 44.7286C71.3825 41.3213 68.6036 38.5591 65.1756 38.5591C61.7477 38.5591 58.9688 41.3213 58.9688 44.7286C58.9688 48.1359 61.7477 50.8981 65.1756 50.8981Z" fill="#FDCD08"/>
<path d="M83.7928 30.8473C87.2208 30.8473 89.9997 28.0851 89.9997 24.6778C89.9997 21.2705 87.2208 18.5083 83.7928 18.5083C80.3649 18.5083 77.5859 21.2705 77.5859 24.6778C77.5859 28.0851 80.3649 30.8473 83.7928 30.8473Z" fill="#FDCD08"/>
<path d="M12.4158 81.7459L51.5658 90.6916C54.1107 91.3086 56.7951 90.9847 59.1227 89.7662L87.7986 74.3271C89.6607 73.3554 90.4831 71.1035 89.7072 69.1447C88.9158 67.155 86.7589 66.1062 84.7417 66.7386L56.2055 76.1162C55.7555 76.255 55.29 76.2396 54.84 76.0854L42.0693 71.3811C41.0762 71.011 40.4865 69.9622 40.7038 68.9133L41.4331 65.1962C41.6038 64.3325 42.271 63.6539 43.14 63.4842L53.9089 61.6025C55.9262 61.1552 57.2141 59.1501 56.8107 57.0988C56.4383 55.2171 54.7469 53.9061 52.8538 54.014L33.302 55.2479C31.5796 55.3559 29.8883 55.8803 28.3986 56.7749L19.4296 62.2194C17.7538 63.2374 17.0555 63.2528 12.4003 63.2528H9.29688V81.7613H12.4003L12.4158 81.7459Z" fill="#FFD966"/>
<path d="M10.8621 61.6948H1.55172C0.694731 61.6948 0 62.3854 0 63.2372V83.288C0 84.1399 0.694731 84.8304 1.55172 84.8304H10.8621C11.7191 84.8304 12.4138 84.1399 12.4138 83.288V63.2372C12.4138 62.3854 11.7191 61.6948 10.8621 61.6948Z" fill="#FF4D4D"/>
<path d="M43.4502 21.593C42.5967 21.593 41.8984 20.8989 41.8984 20.0506V12.3388C41.8984 11.4905 42.5967 10.7964 43.4502 10.7964C44.3036 10.7964 45.0019 11.4905 45.0019 12.3388V20.0506C45.0019 20.8989 44.3036 21.593 43.4502 21.593Z" fill="#FF9F00"/>
<path d="M49.6533 18.5085C48.7998 18.5085 48.1016 17.8145 48.1016 16.9662V9.25429C48.1016 8.40598 48.7998 7.71191 49.6533 7.71191C50.5067 7.71191 51.205 8.40598 51.205 9.25429V16.9662C51.205 17.8145 50.5067 18.5085 49.6533 18.5085Z" fill="#FF9F00"/>
<path d="M62.0673 33.9324C61.2139 33.9324 60.5156 33.2383 60.5156 32.39V24.6781C60.5156 23.8298 61.2139 23.1357 62.0673 23.1357C62.9208 23.1357 63.6191 23.8298 63.6191 24.6781V32.39C63.6191 33.2383 62.9208 33.9324 62.0673 33.9324Z" fill="#FF9F00"/>
<path d="M68.2783 30.8474C67.4248 30.8474 66.7266 30.1533 66.7266 29.305V21.5932C66.7266 20.7448 67.4248 20.0508 68.2783 20.0508C69.1317 20.0508 69.83 20.7448 69.83 21.5932V29.305C69.83 30.1533 69.1317 30.8474 68.2783 30.8474Z" fill="#FF9F00"/>
<path d="M80.6923 13.8816C79.8389 13.8816 79.1406 13.1875 79.1406 12.3392V4.62733C79.1406 3.77903 79.8389 3.08496 80.6923 3.08496C81.5458 3.08496 82.2441 3.77903 82.2441 4.62733V12.3392C82.2441 13.1875 81.5458 13.8816 80.6923 13.8816Z" fill="#FF9F00"/>
<path d="M86.8955 10.7966C86.042 10.7966 85.3438 10.1025 85.3438 9.25424V1.54237C85.3438 0.694068 86.042 0 86.8955 0C87.7489 0 88.4472 0.694068 88.4472 1.54237V9.25424C88.4472 10.1025 87.7489 10.7966 86.8955 10.7966Z" fill="#FF9F00"/>
</g>
<defs>
<clipPath id="clip0_356_18755">
<rect width="90" height="91" fill="white"/>
</clipPath>
</defs>
</svg>
