<svg width="393" height="852" viewBox="0 0 393 852" fill="none" xmlns="http://www.w3.org/2000/svg">
<path d="M393 1.79704e-06L0 0L-3.90958e-06 855L393 855L393 1.79704e-06Z" fill="url(#paint0_linear_719_3007)" fill-opacity="0.2"/>
<path d="M280 355.275C280 374.605 271.935 392.095 258.96 404.623L259.697 404.345C259.697 404.345 260.188 410.349 261.24 417.289C261.731 420.516 262.818 424.438 263.835 427.7C264.676 430.303 262.116 432.732 259.486 431.795C253.49 429.609 243.952 426.485 233.292 424.23C230.136 423.57 227.576 423.015 225.507 422.599C220.633 423.674 215.549 424.23 210.324 424.23H94.6762C56.2087 424.23 25 393.344 25 355.275V340.989C25 302.885 56.2087 272 94.6762 272H210.324C248.826 272 280 302.885 280 340.989V355.275Z" fill="#95C2E3"/>
<g filter="url(#filter0_d_719_3007)">
<path d="M146.37 624.773C147.029 625.387 147.382 626.093 147.904 626.798C146.937 627.458 142.258 630.909 141.536 630.94L141.444 630.894C142.887 628.731 144.682 626.752 146.37 624.773Z" fill="#E03102"/>
<path d="M337.66 560.071C338.887 559.55 340.084 559.013 341.281 558.399C344.994 564.796 347.618 571.392 349.704 578.525C346.237 579.445 344.15 579.138 340.682 578.939L340.606 578.878C340.237 573.095 339.087 565.762 337.66 560.163V560.087H337.675L337.66 560.071Z" fill="#29120D"/>
<path d="M349.689 578.509C350.134 580.887 350.748 583.219 351.147 585.596C351.898 590.029 352.113 594.585 352.021 599.08C350.855 599.08 349.674 599.31 348.508 599.356C345.331 599.479 342.447 598.819 339.424 597.883C340.866 592.376 340.744 584.599 340.667 578.908C344.135 579.123 346.221 579.414 349.689 578.494V578.509Z" fill="#EB6021"/>
<path d="M303.658 439.487C307.77 438.367 312.619 436.573 315.825 433.627C319.17 430.559 320.244 426.433 320.505 422C321.15 423.089 321.733 424.209 322.285 425.359C322.822 426.51 323.329 427.676 323.773 428.872C323.743 428.933 323.712 428.979 323.681 429.041C323.375 429.685 323.052 432.799 322.669 434.026C320.582 440.699 315.15 445.393 308.936 447.816C307.785 448.261 306.573 448.706 305.376 448.998C304.072 449.32 302.154 449.35 300.988 449.964C299.208 449.32 297.459 448.568 295.648 448.001C292.212 446.927 288.544 446.329 284.969 446.068C288.621 443.966 293.04 442.202 296.032 439.15C298.871 436.266 299.561 432.584 299.592 428.627C302.43 431.833 303.428 435.223 303.658 439.472V439.487Z" fill="#F78004"/>
<path d="M300.988 449.964C302.154 449.35 304.072 449.32 305.376 448.998C306.573 448.706 307.785 448.277 308.936 447.816C315.15 445.393 320.582 440.699 322.669 434.026C323.052 432.799 323.375 429.67 323.681 429.041C323.712 428.979 323.743 428.933 323.773 428.872C325.293 433.014 326.244 437.723 325.2 442.11C326.121 442.386 328.837 440.852 329.712 440.377C333.563 438.199 336.079 435.545 338.427 431.771C340.928 438.597 339.255 443.966 336.478 450.363C335.91 451.651 335.327 452.955 334.744 454.228C340.483 453.63 343.552 451.575 347.265 447.08C348.814 454.351 345.316 461.147 341.618 467.098C341.158 467.835 340.698 468.556 340.191 469.276C343.843 469.813 346.59 469.599 350.011 468.141C349.167 471.93 347.894 474.461 344.626 476.578C342.662 477.851 340.513 478.68 338.304 479.355C342.032 480.812 345.5 480.49 349.336 479.738C347.541 484.156 343.766 487.116 339.547 488.896C338.381 489.387 337.184 489.816 336.002 490.261C334.637 482.468 330.939 475.366 326.29 469.169C323.39 465.84 320.567 462.343 317.038 459.705C316.393 458.754 313.417 457.005 312.312 456.299C309.887 453.707 304.226 451.299 301.003 449.964H300.988Z" fill="#F78004"/>
<path d="M300.988 449.964C302.154 449.35 304.072 449.32 305.376 448.998C306.573 448.706 307.785 448.277 308.936 447.816C315.15 445.393 320.582 440.699 322.669 434.026C323.052 432.799 323.375 429.67 323.681 429.041C323.712 428.979 323.743 428.933 323.773 428.872C325.293 433.014 326.244 437.723 325.2 442.11C323.666 447.049 321.625 450.378 318.419 454.32C322.193 457.695 327.088 459.26 332.059 458.892C334.084 458.738 335.987 458.263 337.874 457.511C336.202 461.745 333.164 464.767 329.481 467.175C328.453 467.85 327.226 468.417 326.275 469.184C323.375 465.856 320.551 462.358 317.022 459.72C316.378 458.769 313.401 457.02 312.296 456.315C309.872 453.722 304.21 451.314 300.988 449.979V449.964Z" fill="#E03102"/>
<path d="M371.538 506.291C375.466 508.853 377.814 515.142 379.655 516.323C380.1 516.2 380.269 516.077 380.561 515.694C381.512 514.421 382.156 512.917 383.062 511.614C384.09 510.141 389.291 503.821 390.918 504.542C392.068 506.95 387.388 515.525 387.941 517.841C388.033 518.256 388.186 518.317 388.524 518.501C389.537 518.578 390.718 517.903 391.7 517.611C393.71 517.013 401.627 514.804 402.978 516.108C403.039 516.492 402.978 516.676 402.747 516.998C401.29 519.253 397.5 521.814 395.229 523.379C394.339 523.993 393.326 524.56 392.544 525.312C392.16 525.68 391.93 525.987 391.946 526.554C392.789 528.733 401.658 531.034 401.228 533.166C399.142 534.623 385.946 533.595 381.374 535.773C377.768 537.491 374.837 543.949 372.612 547.309C371.354 549.226 369.943 551.021 368.408 552.708C366.475 554.779 364.941 556.16 362.117 556.681C356.486 557.709 350.41 557.249 344.748 556.681C343.153 556.512 341.541 556.175 339.946 556.098C338.335 555.086 336.785 552.923 335.511 551.496C333.716 549.38 331.89 547.293 330.064 545.192C329.727 544.348 329.082 543.489 328.653 542.676C327.717 540.912 326.858 539.01 326.167 537.123C325.922 536.448 325.369 535.083 325.661 534.408C329.082 535.559 332.412 536.955 335.818 538.151C342.201 540.391 348.922 542.339 355.535 543.704C357.683 542.477 359.739 541.158 361.688 539.608C365.278 536.77 371.308 531.003 372.505 526.462C373.242 523.655 372.444 520.219 372.106 517.381C371.692 513.853 371.124 509.88 371.492 506.337L371.538 506.291Z" fill="url(#paint1_linear_719_3007)"/>
<path d="M382.478 523.379C383.399 523.318 384.228 523.272 385.118 523.609C385.915 523.931 386.698 524.514 387.02 525.373C387.235 525.941 387.22 526.554 386.974 527.107C386.468 528.272 385.332 528.748 384.243 529.116C383.138 529.269 382.08 529.223 381.067 528.717C380.3 528.334 379.594 527.689 379.348 526.815C379.195 526.248 379.241 525.649 379.532 525.143C380.146 524.023 381.343 523.671 382.478 523.364V523.379Z" fill="#EB6021"/>
<path d="M258.072 564.274C252.794 566.683 247.515 568.079 241.9 569.352C238.662 570.088 233.23 571.453 230.008 570.962C224.423 570.119 216.552 559.857 213.406 555.132C210.982 551.496 208.941 547.278 205.412 544.64C200.978 541.326 194.687 540.559 189.593 538.611C187.828 537.936 182.811 535.973 182.059 534.285L182.197 533.979C184.959 532 192.8 533.503 194.073 532.813C194.365 532.644 194.549 532.46 194.61 532.107C194.702 531.54 194.288 530.849 193.981 530.42C193.26 529.438 192.293 528.579 191.465 527.689C189.47 525.511 187.736 523.287 186.325 520.664C185.91 519.882 185.02 518.409 185.343 517.519C185.419 517.289 185.573 517.274 185.772 517.167C188.519 517.136 195.684 522.95 198.554 524.345C199.106 524.606 199.689 524.898 200.287 524.668C200.855 523.916 200.333 521.63 200.257 520.695C200.027 518.317 199.551 510.985 201.039 509.343C201.208 509.144 201.239 509.19 201.484 509.175C202.205 509.619 202.65 510.432 203.095 511.153C204.998 514.252 206.164 517.795 207.438 521.201C207.929 522.535 208.389 524.115 209.156 525.312C209.463 525.803 209.862 526.294 210.445 526.386C210.706 526.416 210.859 526.34 211.089 526.202C212.225 525.481 214.404 522.183 215.923 520.863C216.751 520.142 218.086 518.946 219.222 519.053C219.759 519.467 219.743 519.912 219.651 520.557C219.482 521.814 218.884 523.042 218.485 524.253C217.196 528.088 214.987 533.948 215.831 537.982C217.058 543.842 228.044 552.448 233.046 555.623C234.427 555.316 235.793 554.948 237.143 554.549C238.493 554.15 239.843 553.69 241.178 553.199C242.513 552.708 243.818 552.171 245.122 551.589C246.411 551.006 247.699 550.392 248.958 549.732C251.98 548.152 254.896 546.373 257.903 544.762C258.041 546.235 257.903 547.769 257.872 549.257C257.811 551.343 257.811 553.414 257.826 555.5C257.857 557.372 257.918 559.243 258.01 561.114C258.056 562.127 258.241 563.323 258.102 564.305L258.072 564.274Z" fill="#29120D"/>
<path d="M202.604 530.313C203.709 530.221 204.737 530.389 205.704 530.926C206.778 531.524 207.683 532.506 208.005 533.749C208.205 534.531 208.159 535.39 207.729 536.096C207.131 537.062 206.21 537.415 205.182 537.63C204.123 537.676 203.141 537.522 202.175 537.031C201.055 536.464 200.027 535.467 199.643 534.209C199.428 533.488 199.428 532.69 199.796 532.031C200.395 530.957 201.484 530.604 202.574 530.313H202.604Z" fill="#EB6021"/>
<path d="M324.08 529.653C324.311 530.819 324.663 533.503 325.507 534.316L325.691 534.378C325.4 535.052 325.952 536.418 326.198 537.093C326.888 538.979 327.748 540.881 328.683 542.646C329.113 543.459 329.758 544.318 330.095 545.161C331.906 547.263 333.747 549.349 335.542 551.466C336.816 552.892 338.365 555.055 339.976 556.068C340.421 556.835 340.882 557.602 341.296 558.384C340.115 558.997 338.902 559.534 337.675 560.056V560.133C339.087 565.732 340.237 573.064 340.606 578.847L340.682 578.908C340.759 584.599 340.882 592.376 339.439 597.883C338.611 603.007 336.647 608.314 334.575 613.039C333.992 614.358 332.611 616.199 332.366 617.518H332.289C331.691 614.665 327.671 611.045 325.4 609.526C320.521 606.259 314.721 604.74 308.982 606.029C302.108 607.563 295.679 613.192 292.043 619.282C291.966 619.405 291.905 619.512 291.843 619.635C291.506 619.512 288.314 615.34 287.624 614.665C284.939 612.042 281.947 610.416 278.402 609.357C276.96 609.403 275.502 609.388 274.06 609.495C273.554 608.912 273.124 607.977 272.725 607.286C270.807 603.958 269.181 600.552 267.554 597.086C264.884 591.548 262.859 585.52 261.171 579.599C260.174 576.162 258.225 568.661 258.302 565.133L258.056 564.274C258.195 563.277 258.01 562.081 257.964 561.084C257.872 559.212 257.811 557.341 257.78 555.469C257.75 553.383 257.78 551.312 257.826 549.226C257.857 547.738 257.995 546.204 257.857 544.732C257.826 543.443 258.102 541.971 258.256 540.682C258.624 541.357 259.974 541.618 260.696 541.833C262.123 542.231 263.565 542.553 265.022 542.83C266.48 543.09 267.938 543.29 269.411 543.428C270.884 543.566 273.615 543.382 274.842 543.811H274.888C283.205 543.75 291.199 542.431 299.27 540.406C301.234 539.915 303.765 539.409 305.514 538.366V538.304C306.803 537.599 308.353 537.231 309.734 536.724C311.744 536.004 313.723 535.191 315.672 534.301C318.587 532.966 321.165 530.972 324.065 529.653H324.08Z" fill="#F78004"/>
<path d="M335.527 551.466C336.8 552.892 338.35 555.055 339.961 556.068C340.406 556.835 340.866 557.602 341.281 558.384C340.099 558.997 338.887 559.534 337.66 560.056C337.107 557.51 335.527 553.935 335.527 551.45V551.466Z" fill="#EB6021"/>
<path d="M324.08 529.653C324.311 530.819 324.663 533.503 325.507 534.316L325.691 534.378C325.4 535.052 325.952 536.418 326.198 537.093C326.888 538.979 327.748 540.881 328.683 542.646C329.113 543.459 329.758 544.318 330.08 545.161C322.224 548.275 316.823 543.566 310.041 540.176C308.675 539.486 307.034 538.657 305.545 538.366V538.304C306.834 537.599 308.384 537.231 309.765 536.724C311.775 536.004 313.754 535.191 315.703 534.301C318.618 532.966 321.196 530.972 324.096 529.653H324.08Z" fill="#2D2423"/>
<path d="M258.271 540.682C258.64 541.357 259.99 541.618 260.711 541.833C262.138 542.231 263.58 542.553 265.038 542.83C266.495 543.09 267.953 543.29 269.426 543.428C270.899 543.566 273.63 543.382 274.858 543.811C273.308 545.744 271.62 547.539 270.132 549.533C267.646 552.877 261.125 563.293 258.317 565.133L258.072 564.274C258.21 563.277 258.026 562.081 257.98 561.084C257.888 559.212 257.826 557.341 257.796 555.469C257.765 553.383 257.796 551.312 257.842 549.226C257.872 547.738 258.01 546.204 257.872 544.732C257.842 543.443 258.118 541.971 258.271 540.682Z" fill="#2D2423"/>
<path d="M261.187 579.583C263.734 578.111 266.035 576.561 268.03 574.352C275.272 566.33 278.264 552.401 289.296 548.551C300.528 544.624 309.657 553.981 318.986 558.675C325.323 561.866 330.939 562.526 337.629 560.148C339.056 565.747 340.207 573.079 340.575 578.862C335.327 577.773 330.74 575.718 326.321 572.604C323.605 570.702 320.966 568.646 318.096 567.005C309.166 561.881 298.717 560.884 289.971 566.882C286.028 569.582 282.929 573.585 280.919 577.988C277.451 585.596 276.791 594.248 267.57 597.086C264.9 591.548 262.874 585.52 261.187 579.599V579.583Z" fill="#2D2423"/>
<path d="M267.585 597.07C276.806 594.232 277.466 585.581 280.934 577.973C282.944 573.57 286.043 569.566 289.987 566.867C298.733 560.869 309.182 561.881 318.112 566.989C320.981 568.631 323.62 570.686 326.336 572.588C330.77 575.687 335.343 577.758 340.59 578.847L340.667 578.908C340.744 584.599 340.866 592.376 339.424 597.883C338.595 603.007 336.632 608.314 334.56 613.039C333.977 614.358 332.596 616.199 332.351 617.518H332.274C331.675 614.665 327.655 611.045 325.385 609.526C320.505 606.259 314.705 604.74 308.967 606.029C302.093 607.563 295.664 613.192 292.027 619.282C291.951 619.405 291.889 619.512 291.828 619.635C291.49 619.512 288.299 615.34 287.608 614.665C284.923 612.042 281.931 610.416 278.387 609.357C276.945 609.403 275.487 609.388 274.045 609.495C273.538 608.912 273.109 607.977 272.71 607.286C270.792 603.958 269.165 600.552 267.539 597.086L267.585 597.07Z" fill="#FCD836"/>
<path d="M278.418 609.357C280.504 607.992 282.637 606.995 284.417 605.17C291.199 598.19 290.324 588.833 300.206 583.986C308.184 580.074 315.703 582.237 322.684 587.192C325.4 589.124 327.886 591.349 330.632 593.251C333.409 595.168 336.294 596.733 339.455 597.899C338.626 603.022 336.662 608.329 334.591 613.054C334.008 614.373 332.627 616.214 332.381 617.533H332.305C331.706 614.68 327.686 611.06 325.415 609.541C320.536 606.274 314.736 604.755 308.998 606.044C302.124 607.578 295.695 613.207 292.058 619.297C291.981 619.42 291.92 619.527 291.859 619.65C291.521 619.527 288.33 615.355 287.639 614.68C284.954 612.057 281.962 610.431 278.418 609.373V609.357Z" fill="#2D2423"/>
<path d="M273.646 445.976C276.208 445.577 279.123 445.838 281.716 445.976C282.79 446.037 283.895 446.16 284.969 446.052C288.544 446.313 292.212 446.896 295.648 447.985C297.459 448.553 299.208 449.304 300.988 449.949C304.226 451.299 309.872 453.692 312.296 456.284C313.401 456.99 316.378 458.738 317.022 459.689C320.551 462.343 323.39 465.825 326.275 469.154C330.924 475.351 334.621 482.453 335.987 490.246C336.662 494.081 336.862 498.161 336.355 502.042C335.895 507.088 334.038 511.552 331.752 515.97C330.003 519.621 326.259 523.41 323.329 526.017C323.559 527.229 323.804 528.441 324.065 529.638C321.18 530.957 318.603 532.951 315.672 534.285C313.723 535.175 311.744 535.988 309.734 536.709C308.353 537.2 306.803 537.583 305.514 538.289V538.35C303.765 539.394 301.234 539.9 299.27 540.391C291.199 542.415 283.205 543.735 274.888 543.811H274.842C273.615 543.382 270.899 543.566 269.411 543.428C267.938 543.29 266.48 543.09 265.022 542.83C263.565 542.569 262.123 542.231 260.696 541.833C259.959 541.618 258.624 541.357 258.256 540.682C258.455 538.627 258.824 536.617 259.269 534.623C258.225 534.04 255.371 533.641 254.067 533.304C253.192 533.074 252.349 532.767 251.505 532.445C241.316 528.733 231.589 522.873 224.776 514.022C220.296 508.193 216.368 500.477 217.288 492.807C218.071 486.288 222.889 480.796 227.676 476.9C227.4 475.612 227.369 474.2 227.492 472.897C227.86 468.847 229.993 464.859 233.031 462.266C235.67 460.027 238.923 458.846 242.344 459.183C244.232 457.818 245.996 456.269 247.914 454.934C256.43 448.982 263.58 446.927 273.646 445.976Z" fill="#2D2423"/>
<path d="M238.923 487.899C239.061 487.899 239.199 487.899 239.337 487.899C241.071 488.006 242.344 488.972 243.465 490.276C243.864 490.737 244.37 491.304 244.339 491.948L244.063 492.102C243.802 492.056 243.541 491.994 243.296 491.918C241.731 491.442 239.322 490.368 238.539 488.834C238.524 488.298 238.601 488.282 238.908 487.883L238.923 487.899Z" fill="black"/>
<path d="M270.914 496.658C272.004 496.612 273.293 496.535 274.305 497.026C274.658 497.194 274.796 497.317 274.935 497.685L274.75 498.023C273.784 498.682 272.756 498.728 271.62 498.866C270.592 498.866 268.122 499.189 267.355 498.498L267.385 498.192C268.26 497.21 269.687 496.903 270.914 496.642V496.658Z" fill="black"/>
<path d="M317.022 459.705C320.551 462.358 323.39 465.84 326.275 469.169C330.924 475.366 334.621 482.468 335.987 490.261C336.662 494.096 336.862 498.176 336.355 502.057C334.836 497.762 333.471 493.774 331.046 489.878C330.74 489.203 330.249 488.558 329.85 487.929C330.156 486.518 329.497 484.616 329.144 483.251C327.517 477.054 325.262 471.087 321.733 465.748C320.935 464.552 320.03 463.401 319.109 462.297C318.48 461.561 317.59 460.748 317.13 459.904C317.099 459.843 317.053 459.766 317.022 459.705Z" fill="#29120D"/>
<path d="M234.719 499.081C232.755 497.67 226.264 493.927 225.743 491.795C225.896 491.411 225.957 491.365 226.28 491.12C226.924 491.197 229.533 493.881 230.422 494.51C233.123 496.427 235.931 498.007 238.938 499.357C249.433 504.036 261.156 506.521 272.495 507.595C282.606 508.561 293.009 508.316 302.829 505.478C303.643 505.248 304.333 504.634 305.008 505.355C305.085 505.677 305.131 505.8 304.901 506.091C304.471 506.598 303.673 506.751 303.121 507.073C303.075 507.088 303.029 507.104 302.983 507.119C298.963 508.423 294.743 509.006 290.554 509.374C273.216 510.908 250.2 507.503 234.688 499.081H234.719Z" fill="#29120D"/>
<path d="M316.731 477.161C322.3 479.217 326.275 483.235 329.865 487.929C330.264 488.558 330.755 489.203 331.062 489.878C333.486 493.774 334.852 497.762 336.371 502.057C335.91 507.104 334.054 511.568 331.768 515.985C331.338 512.381 330.141 508.622 328.898 505.232L328.852 505.094C325.998 498.897 322.73 494.755 317.483 490.552C318.787 487.147 319.048 483.65 317.882 480.137C317.575 479.217 317.007 478.311 316.792 477.376C316.777 477.314 316.761 477.238 316.746 477.176L316.731 477.161Z" fill="#FCD836"/>
<path d="M331.046 489.878C333.471 493.774 334.836 497.762 336.355 502.057C335.895 507.104 334.038 511.568 331.752 515.985C331.323 512.381 330.126 508.622 328.883 505.232L328.837 505.094C329.297 504.343 329.573 503.422 329.865 502.579C331.307 498.33 331.43 494.326 331.062 489.893L331.046 489.878Z" fill="#EAA712"/>
<path d="M242.36 459.183C244.83 460.073 246.994 461.07 248.236 463.662C249.357 465.994 249.234 469.415 248.405 471.823C248.313 472.099 248.206 472.329 248.037 472.574C247.301 475.121 245.275 478.588 242.882 479.83C242.713 479.922 242.529 479.983 242.329 480.03C242.406 480.168 242.375 480.076 242.329 480.336C241.148 481.502 239.445 482.422 237.864 482.867C235.701 483.481 233.307 483.45 231.343 482.254C229.348 481.042 228.29 479.109 227.707 476.87C227.43 475.581 227.4 474.17 227.522 472.866C227.891 468.816 230.024 464.828 233.062 462.236C235.701 459.996 238.954 458.815 242.375 459.152L242.36 459.183Z" fill="#EB6021"/>
<path d="M240.411 460.318C241.316 460.134 242.16 460.349 243.05 460.518C242.053 460.778 241.086 461.131 240.196 461.637C235.041 464.552 232.893 469.936 231.343 475.443L231.113 475.903L230.852 475.949C230.146 475.397 229.87 473.986 229.717 473.096C229.272 470.458 230.146 467.988 231.619 465.825C233.767 462.665 236.805 460.962 240.442 460.318H240.411Z" fill="#EAA712"/>
<path d="M240.427 465.396C241.485 464.813 243.112 464.935 244.232 465.288C245.597 465.718 246.656 466.699 247.27 468.034C247.945 469.461 248.068 471.025 248.022 472.59C247.285 475.136 245.26 478.603 242.866 479.845C242.697 479.937 242.513 479.999 242.329 480.045C241.194 480.321 239.951 480.306 238.877 479.815C237.711 479.278 236.897 478.235 236.483 476.992C235.517 474.108 236.529 470.78 237.726 468.141C237.818 467.773 237.926 467.42 238.079 467.083C238.524 466.055 239.46 465.748 240.411 465.396H240.427Z" fill="black"/>
<path d="M240.427 465.396C241.056 465.595 241.547 465.733 241.9 466.362C242.237 466.96 242.252 467.666 242.038 468.31C241.792 469.046 241.286 469.737 240.595 470.074C240.12 470.304 239.583 470.335 239.107 470.12C238.37 469.783 238.033 469.046 237.787 468.31C237.772 468.264 237.757 468.218 237.741 468.172C237.833 467.804 237.941 467.451 238.094 467.114C238.539 466.086 239.475 465.779 240.427 465.426V465.396Z" fill="#FEFEFE"/>
<path d="M234.719 499.081C250.216 507.503 273.247 510.908 290.585 509.374C294.774 509.006 298.993 508.423 303.013 507.119C303.06 507.119 303.106 507.088 303.152 507.073C302.139 509.267 300.298 511.583 298.548 513.194C296.538 513.163 294.467 513.485 292.472 513.623C289.327 513.853 286.105 513.961 282.959 513.853C279.261 513.73 275.564 513.485 271.866 513.102C262.92 512.181 254.804 510.509 246.088 514.191C244.493 514.866 242.559 515.74 241.301 516.998C241.27 517.028 241.24 517.059 241.209 517.09C241.178 517.059 241.148 517.044 241.117 517.013C236.683 512.304 234.811 505.493 234.734 499.081H234.719Z" fill="#EE5315"/>
<path d="M241.194 517.09C241.194 517.09 241.255 517.028 241.286 516.998C242.544 515.74 244.477 514.866 246.073 514.191C254.788 510.525 262.905 512.197 271.85 513.102C275.533 513.485 279.231 513.73 282.944 513.853C286.089 513.961 289.312 513.853 292.457 513.623C294.467 513.47 296.538 513.163 298.533 513.194C289.68 521.952 277.758 527.981 265.299 527.736C256.016 527.567 247.653 523.993 241.178 517.09H241.194Z" fill="#FED8C5"/>
<path d="M273.661 445.976C276.223 445.577 279.139 445.838 281.732 445.976C282.806 446.037 283.911 446.16 284.985 446.052C288.56 446.313 292.227 446.896 295.664 447.985C297.474 448.553 299.224 449.304 301.003 449.949C304.241 451.299 309.887 453.692 312.312 456.284C309.857 455.548 307.386 455.302 304.824 455.333C290.508 455.44 276.346 463.248 265.667 472.621C262.629 475.274 259.898 478.265 257.105 481.195C259.054 467.896 265.115 456.023 273.661 445.991V445.976Z" fill="#FCD836"/>
<path d="M317.467 490.552C316.669 492.424 315.611 494.111 314.153 495.507C311.468 498.084 307.969 499.342 304.333 499.204C300.236 499.035 296.462 496.995 293.731 493.866C291.061 490.813 289.726 486.978 289.956 482.883C290.186 479.14 292.027 475.397 294.759 472.943C297.643 470.335 301.448 469.215 305.238 469.537C308.721 469.829 312.066 471.424 314.399 474.124C315.196 475.044 315.81 476.103 316.593 477.023L316.731 477.176C316.731 477.176 316.761 477.314 316.777 477.376C316.992 478.311 317.559 479.217 317.866 480.137C319.032 483.665 318.771 487.147 317.467 490.552Z" fill="#F78004"/>
<path d="M298.257 476.67C299.883 476.517 301.433 476.762 302.845 477.667C304.425 478.695 305.407 480.352 305.852 482.208C306.374 484.401 306.236 487.009 305.039 488.957C303.965 490.706 302.461 491.442 300.558 491.841C298.993 491.872 297.582 491.688 296.186 490.905C296.078 490.844 295.971 490.783 295.863 490.706C295.756 490.644 295.649 490.568 295.541 490.491C295.434 490.414 295.342 490.338 295.234 490.261C295.142 490.184 295.035 490.108 294.943 490.016C294.851 489.939 294.759 489.847 294.667 489.755C294.574 489.663 294.482 489.571 294.39 489.479C294.298 489.387 294.222 489.295 294.129 489.203C294.053 489.111 293.961 489.003 293.884 488.911C293.807 488.804 293.731 488.712 293.654 488.604C293.577 488.497 293.516 488.39 293.439 488.282C293.362 488.175 293.301 488.067 293.24 487.945C293.178 487.837 293.117 487.715 293.055 487.607C292.994 487.5 292.948 487.377 292.887 487.254C292.841 487.132 292.779 487.024 292.733 486.902C292.687 486.779 292.641 486.656 292.61 486.533C292.564 486.411 292.534 486.288 292.503 486.165C291.951 484.187 292.135 481.978 293.163 480.198C294.329 478.158 296.093 477.207 298.242 476.655L298.257 476.67Z" fill="black"/>
<path d="M296.492 477.698C296.937 477.667 297.459 477.652 297.889 477.805C298.518 478.035 299.009 478.542 299.285 479.17C299.607 479.907 299.592 480.735 299.285 481.471C298.963 482.269 298.41 482.653 297.659 482.99C297.244 483.036 296.769 483.036 296.385 482.913C295.771 482.699 295.219 482.192 294.927 481.594C294.574 480.889 294.559 480.076 294.82 479.324C295.111 478.48 295.771 478.097 296.508 477.713L296.492 477.698Z" fill="#FEFEFE"/>
<path d="M328.883 505.232C330.126 508.622 331.323 512.381 331.752 515.985C330.003 519.636 326.259 523.425 323.329 526.033C323.559 527.245 323.804 528.456 324.065 529.653C321.18 530.972 318.603 532.966 315.672 534.301C313.723 535.191 311.744 536.004 309.734 536.724C308.353 537.215 306.803 537.599 305.514 538.304V538.366C303.765 539.409 301.234 539.915 299.27 540.406C291.199 542.431 283.205 543.75 274.888 543.827H274.842C273.615 543.397 270.899 543.581 269.411 543.443C267.938 543.305 266.48 543.106 265.022 542.845C263.565 542.584 262.123 542.247 260.696 541.848C259.959 541.633 258.624 541.372 258.256 540.697C258.455 538.642 258.824 536.632 259.269 534.638C259.499 534.47 259.622 534.439 259.913 534.424C261.11 534.362 262.429 534.669 263.626 534.838C265.022 535.022 266.434 535.145 267.846 535.237C269.472 535.313 271.099 535.344 272.725 535.329C274.351 535.313 275.978 535.252 277.604 535.129C279.231 535.022 280.857 534.853 282.468 534.638C284.079 534.424 285.69 534.178 287.302 533.871C300.988 531.294 314.368 525.036 323.359 513.746C325.661 510.862 326.812 508.27 328.76 505.401L328.868 505.248L328.883 505.232Z" fill="#29120D"/>
<path d="M303.274 537.399C304.011 537.737 304.778 538.013 305.53 538.304V538.366C303.781 539.409 301.249 539.915 299.285 540.406C291.214 542.431 283.22 543.75 274.904 543.827L277.098 541.311C285.798 541.311 294.943 540.053 303.274 537.415V537.399Z" fill="#E03102"/>
<path d="M339.424 597.899C342.447 598.834 345.331 599.494 348.508 599.371C349.674 599.325 350.87 599.095 352.021 599.095C351.868 602.746 351.607 606.32 350.947 609.925C358.88 614.879 368.362 623.378 370.633 633.072C371.692 637.582 370.28 642.015 367.979 645.85C364.956 650.835 360.997 655.222 357.192 659.579C355.566 661.45 353.663 663.322 352.313 665.423C350.702 667.939 349.858 671.36 348.738 674.167C346.712 679.275 344.564 684.475 342.155 689.399C340.974 686.607 339.9 683.708 338.503 681.024C335.419 682.757 332.259 684.352 329.128 686.009C330.064 681.637 331.568 677.403 332.642 673.062C329.405 673.185 326.167 673.369 322.945 673.645C324.955 669.964 327.533 666.742 329.788 663.23C327.625 661.834 325.262 660.423 323.313 658.705C326.029 658.03 328.683 657.109 331.369 656.281C333.271 655.683 335.297 655.176 337.122 654.379C343.398 651.648 350.993 646.019 354.522 640.036C354.645 639.822 354.768 639.607 354.891 639.377C352.144 636.907 346.482 634.637 343.091 633.072C340.421 637.413 337.736 641.57 334.437 645.436C324.418 657.186 310.102 665.347 295.971 670.623C292.165 672.035 288.268 673.17 284.402 674.351C285.706 682.128 289.388 688.647 294.897 694.078C296.6 695.75 298.456 697.207 300.206 698.817L289.618 700.183C290.401 702.882 291.26 705.567 291.874 708.313C288.314 706.564 284.601 705.061 281.149 703.082C280.566 704.447 278.832 709.248 278.049 710C277.788 709.739 277.528 709.478 277.282 709.202C271.728 701.64 269.242 692.927 268.045 683.631C267.815 681.545 267.662 679.459 267.539 677.373C266.894 677.449 266.25 677.511 265.606 677.557C243.112 679.536 221.416 669.872 205.213 654.072C199.858 648.857 195.546 642.598 189.9 637.705C175.707 625.387 156.696 628.716 142.012 638.134C140.923 638.825 135.338 643.135 135 643.166L135.046 642.874C135.951 639.208 139.02 633.87 141.429 630.955L141.521 631.001C142.227 630.971 146.922 627.519 147.889 626.86C147.352 626.139 147.014 625.448 146.354 624.835L147.275 623.807C151.172 619.834 155.284 616.061 160.256 613.56C170.168 607.455 182.535 606.918 193.598 609.235C197.955 610.6 202.129 612.103 206.164 614.281C210.169 616.367 215.002 619.236 218.378 622.258C221.492 624.773 224.546 627.335 227.569 629.989C230.284 632.397 233.046 634.407 236.084 636.339C240.135 638.702 244.262 640.451 248.85 641.386C252.195 642.092 255.509 642.291 258.916 642.245C260.312 641.969 261.77 641.923 263.181 641.678C266.818 641.049 270.224 639.883 273.569 638.303C274.842 637.505 276.07 636.662 277.282 635.772C279.261 634.131 281.195 632.244 282.238 629.805C283.343 627.258 283.036 625.28 282.1 622.764C279.829 618.101 276.592 614.051 274.045 609.557C275.472 609.449 276.945 609.48 278.387 609.419C281.931 610.477 284.923 612.103 287.608 614.726C288.299 615.401 291.49 619.573 291.828 619.696C291.889 619.573 291.951 619.451 292.027 619.343C295.664 613.253 302.093 607.624 308.967 606.09C314.705 604.817 320.505 606.32 325.385 609.587C327.655 611.106 331.675 614.726 332.274 617.579H332.351C332.596 616.275 333.977 614.45 334.56 613.115C336.616 608.391 338.595 603.068 339.424 597.96V597.899Z" fill="#29120D"/>
<path d="M332.289 617.518H332.366C334.698 623.04 334.529 629.13 332.443 634.714C330.202 640.681 326.198 644.945 320.551 647.507C322.162 642.843 323.375 639.07 322.362 634.1C326.106 628.808 329.036 623.117 332.289 617.518Z" fill="#EB6021"/>
<path d="M268.076 683.585C273.615 683.723 279.384 683.754 284.202 687.021C286.626 688.663 288.775 690.856 290.953 692.82C292.595 694.308 294.452 695.535 296.078 697.007C295.158 697.774 289.051 698.265 287.44 698.71C287.854 700.689 288.314 702.683 288.698 704.677C287.654 704.14 281.225 700.628 280.719 700.72L280.489 700.612C279.123 702.591 278.617 707.668 277.313 709.141C271.758 701.579 269.273 692.866 268.076 683.57V683.585Z" fill="#2D2423"/>
<path d="M291.843 619.635C291.905 619.512 291.966 619.389 292.043 619.282C295.679 613.192 302.108 607.563 308.982 606.029C314.721 604.755 320.521 606.259 325.4 609.526C327.671 611.045 331.691 614.665 332.289 617.518C329.021 623.117 326.106 628.808 322.362 634.1C321.84 632.658 321.18 631.277 320.321 630.004C320.198 629.82 320.06 629.621 319.922 629.437C319.784 629.253 319.646 629.069 319.493 628.9C319.355 628.716 319.201 628.547 319.048 628.378C318.894 628.21 318.741 628.041 318.572 627.887C318.403 627.719 318.25 627.565 318.081 627.412C317.912 627.258 317.743 627.105 317.559 626.967C317.375 626.829 317.206 626.691 317.022 626.553C316.838 626.415 316.654 626.292 316.47 626.169C316.286 626.047 316.086 625.924 315.887 625.801C315.687 625.679 315.488 625.571 315.288 625.464C315.089 625.356 314.889 625.264 314.675 625.157C314.46 625.05 314.26 624.973 314.046 624.896C313.831 624.82 313.631 624.727 313.417 624.666C313.202 624.589 312.987 624.528 312.772 624.467C312.557 624.405 312.342 624.344 312.112 624.298C311.897 624.252 311.667 624.206 311.453 624.16C305.484 623.147 300.252 626.783 295.618 630.158C295.25 626.323 293.838 622.856 291.828 619.65L291.843 619.635Z" fill="#FCD836"/>
<path d="M160.271 613.499C170.183 607.394 182.55 606.857 193.613 609.173C197.971 610.538 202.144 612.042 206.179 614.22C210.184 616.306 215.017 619.175 218.393 622.196C221.508 624.712 224.561 627.289 227.584 629.928C230.3 632.336 233.062 634.345 236.1 636.278C240.15 638.64 244.278 640.389 248.866 641.325C252.21 642.03 255.525 642.23 258.931 642.184C260.327 641.908 261.785 641.862 263.197 641.616C266.833 640.987 270.239 639.822 273.584 638.242C274.858 637.444 276.085 636.6 277.297 635.711C279.277 634.069 281.21 632.182 282.253 629.743C283.358 627.197 283.051 625.218 282.115 622.703C279.844 618.039 276.607 613.99 274.06 609.495C275.487 609.388 276.96 609.419 278.402 609.357C281.947 610.416 284.939 612.042 287.624 614.665C288.314 615.34 291.506 619.512 291.843 619.635C293.853 622.841 295.265 626.323 295.633 630.142C295.664 631.676 295.863 633.195 295.802 634.744C295.602 639.269 293.531 643.626 290.524 646.878C282.438 655.606 267.033 660.192 255.509 660.407C254.911 660.423 254.313 660.438 253.714 660.423C253.116 660.423 252.517 660.423 251.919 660.392C251.321 660.377 250.722 660.346 250.124 660.3C249.525 660.254 248.927 660.208 248.329 660.146C247.73 660.085 247.132 660.008 246.549 659.932C245.95 659.855 245.367 659.763 244.769 659.671C244.17 659.579 243.587 659.472 243.004 659.349C242.421 659.226 241.823 659.103 241.24 658.965C240.657 658.827 240.074 658.689 239.491 658.52C238.908 658.367 238.34 658.198 237.757 658.03C237.189 657.861 236.606 657.677 236.038 657.477C235.471 657.278 234.903 657.079 234.335 656.864C233.767 656.649 233.215 656.434 232.663 656.204C232.11 655.974 231.558 655.729 231.006 655.483C230.453 655.238 229.916 654.977 229.364 654.716C228.827 654.456 228.29 654.179 227.753 653.888C219.482 649.424 212.163 642.905 204.983 636.8C199.505 632.152 194.104 627.351 187.506 624.467C183.547 622.749 179.42 621.951 175.154 621.752C174.587 621.721 174.004 621.706 173.436 621.706C172.868 621.706 172.285 621.706 171.717 621.736C171.15 621.767 170.567 621.798 169.999 621.844C169.431 621.89 168.848 621.951 168.28 622.028C167.713 622.104 167.145 622.196 166.577 622.288C166.01 622.396 165.442 622.503 164.89 622.626C164.322 622.749 163.769 622.902 163.217 623.04C162.665 623.194 162.112 623.362 161.56 623.531C153.443 626.169 145.158 631.385 139.235 637.705C137.977 639.055 136.181 641.739 135.046 642.767C135.951 639.101 139.02 633.762 141.429 630.848L141.521 630.894C142.227 630.863 146.922 627.412 147.889 626.752C147.352 626.031 147.014 625.341 146.354 624.727L147.275 623.7C151.172 619.727 155.284 615.953 160.256 613.453L160.271 613.499Z" fill="#F78004"/>
<path d="M160.271 613.499C161.928 613.974 163.463 614.373 164.352 616.061C164.767 616.843 165.028 617.794 165.258 618.653C163.708 619.205 162.112 619.604 160.547 620.156C159.535 620.54 158.537 620.939 157.54 621.383C156.558 621.828 155.576 622.288 154.609 622.779C153.643 623.27 152.707 623.807 151.771 624.359C150.835 624.912 149.929 625.494 149.024 626.108C148.671 626.323 148.272 626.645 147.889 626.798C147.352 626.077 147.014 625.387 146.354 624.773L147.275 623.746C151.172 619.773 155.284 615.999 160.256 613.499H160.271Z" fill="#E03102"/>
<path d="M147.29 623.746C148.18 624.405 148.579 625.126 149.039 626.123C148.687 626.338 148.288 626.66 147.904 626.814C147.367 626.093 147.029 625.402 146.37 624.789L147.29 623.761V623.746Z" fill="#EB6021"/>
<path d="M176.106 608.897C178.469 608.728 181.722 610.124 183.532 611.643C185.404 613.207 185.88 615.355 186.141 617.702C184.33 617.134 182.581 616.766 180.709 616.536C179.067 616.459 177.441 616.475 175.814 616.597C174.663 616.674 173.436 616.858 172.301 616.766C171.702 616.72 171.058 616.551 170.567 616.183C170.152 615.892 169.907 615.478 169.846 614.972C169.723 613.836 170.505 612.241 171.196 611.397C172.439 609.894 174.249 609.112 176.106 608.912V608.897Z" fill="#E03102"/>
<path d="M219.789 640.42C217.212 638.18 214.02 635.726 213.468 632.044C213.069 629.467 214.158 626.66 215.938 624.835C216.674 624.083 217.703 623.316 218.27 622.427C218.316 622.35 218.362 622.258 218.424 622.181C221.538 624.697 224.592 627.258 227.615 629.912C223.763 633.394 221.063 634.99 219.805 640.42H219.789Z" fill="#E03102"/>
<path d="M193.613 609.173C197.971 610.538 202.144 612.042 206.179 614.22C205.995 619.512 205.305 624.666 205.688 629.974C203.985 627.627 202.083 625.05 199.796 623.27C198.63 622.365 197.203 621.798 196.191 620.693C193.613 617.886 193.459 612.778 193.598 609.188L193.613 609.173Z" fill="#E03102"/>
<path d="M273.6 638.211C272.633 643.15 268.567 647.246 264.654 649.915C261.754 651.894 257.55 654.041 253.944 653.259C253.162 653.09 252.487 652.676 252.072 651.955C251.627 651.158 251.597 650.206 251.842 649.332C252.824 645.927 256.384 644.132 258.931 642.153C260.327 641.877 261.785 641.831 263.197 641.586C266.833 640.957 270.239 639.791 273.584 638.211H273.6Z" fill="#E03102"/>
<path d="M282.131 622.703C284.724 623.592 286.811 626.63 287.992 629.023C289.388 631.86 289.971 635.097 288.974 638.165C287.7 642.061 284.279 644.577 280.842 646.295C279.706 646.847 278.54 647.353 277.359 647.783C277.742 643.656 277.927 639.852 277.297 635.711C279.277 634.069 281.21 632.182 282.253 629.743C283.358 627.197 283.051 625.218 282.115 622.703H282.131Z" fill="#E03102"/>
<path d="M236.115 636.247C240.166 638.61 244.293 640.358 248.881 641.294C246.671 644.347 243.587 647.445 240.166 648.995C237.726 650.084 235.072 650.16 232.617 649.133C230.515 648.243 228.167 646.448 227.338 644.209C226.909 643.058 226.939 641.831 227.461 640.711C229.026 637.337 233.062 637.413 236.008 636.324C236.054 636.309 236.1 636.293 236.146 636.278L236.115 636.247Z" fill="#E03102"/>
</g>
<path d="M53.3973 857.974C42.9663 859.558 -12.993 787.286 -28.0196 742.142C-35.8855 718.544 -30.3281 705.75 -26.3951 703.867C-22.4621 701.984 -4.33623 709.922 6.54358 729.092C26.5291 764.329 42.7098 822.416 47.4978 820.726C52.2858 819.036 37.0669 755.215 38.3707 712.981C39.1402 687.628 55.2355 674.321 58.57 675.027C61.9044 675.733 72.9553 694.004 73.2545 717.945C73.7675 759.515 62.0541 816.554 66.6924 817.003C71.3308 817.453 86.1863 762.532 102.773 727.53C112.969 706.007 126.82 697.32 130.24 697.941C133.275 698.476 138.619 716.34 131.373 740.966C117.308 788.762 79.496 853.974 53.3973 857.953V857.974Z" fill="#B4E296"/>
<path d="M41.3025 528.359C43.6425 528.598 46.1216 529.177 48.4711 528.967C49.672 528.869 50.5027 528.718 51.0209 527.57C50.7524 525.46 48.0179 523.536 46.3708 522.321C43.3536 520.077 36.4988 517.475 34.7169 515.72C34.3674 515.377 34.1595 515.114 34.1112 514.629C34.0204 513.52 34.7647 512.607 35.5177 511.84C37.3552 509.972 40.0471 508.493 42.2501 507.038C47.9071 503.323 53.8303 499.746 58.6491 495.005C59.7716 493.907 61.0586 492.771 61.5842 491.275C61.4409 490.861 61.5097 490.783 61.0967 490.542C57.5196 488.499 44.4289 492.398 40.2331 493.784C38.59 494.33 34.6503 496.191 33.0542 495.474C32.3967 494.481 32.682 493.287 32.9273 492.19C34.2593 486.403 41.8372 470.998 40.6582 466.017C40.3754 465.696 40.2903 465.43 39.8325 465.372C38.0678 465.165 35.7641 467.375 34.5369 468.447C30.3581 472.087 27.0299 476.155 23.9264 480.668C22.6445 482.535 21.4947 484.657 20.0172 486.369C19.37 487.112 18.2812 488.14 17.2122 488.221C16.5417 488.262 16.126 488.009 15.7118 487.544C13.9127 485.495 13.4089 470.632 8.69892 466.427L8.08129 466.319C5.3389 468.393 3.83502 478.325 3.34983 481.798C2.64787 486.821 -14.6079 522.81 -4.21656 532.726C0.607945 537.327 8.93206 531.642 17.4671 529.558C27.2896 527.157 37.3052 527.951 41.3142 528.357L41.3025 528.359Z" fill="#FFBFDA"/>
<path d="M378.333 296C379.481 293.947 380.997 291.902 381.737 289.662C382.123 288.52 382.314 287.698 381.467 286.767C379.423 286.175 376.572 287.921 374.803 288.951C371.545 290.829 366.436 296.088 364.117 297.026C363.664 297.211 363.34 297.297 362.876 297.149C361.822 296.792 361.279 295.747 360.875 294.751C359.889 292.323 359.601 289.265 359.14 286.665C357.976 279.998 357.045 273.142 354.607 266.837C354.044 265.371 353.513 263.739 352.348 262.662C351.911 262.629 351.867 262.535 351.481 262.819C348.186 265.291 346.568 278.854 346.174 283.255C346.023 284.98 346.168 289.335 344.875 290.515C343.703 290.724 342.721 289.988 341.811 289.327C337.028 285.807 325.898 272.737 320.858 271.841C320.451 271.973 320.173 271.946 319.939 272.343C319.048 273.88 320.161 276.872 320.658 278.424C322.34 283.705 324.753 288.374 327.663 293.015C328.867 294.932 330.358 296.83 331.343 298.866C331.768 299.754 332.28 301.162 331.93 302.176C331.7 302.807 331.303 303.088 330.712 303.284C328.118 304.122 314.276 298.683 308.547 301.337L308.202 301.861C309.017 305.201 317.536 310.525 320.531 312.349C324.863 314.987 351.043 345.112 364.269 339.512C370.408 336.91 368.495 327.013 369.97 318.352C371.666 308.384 376.371 299.506 378.335 295.988L378.333 296Z" fill="#B4E296"/>
<path d="M38.7654 621.331C41.1054 621.57 43.5845 622.149 45.934 621.939C47.1349 621.84 47.9656 621.689 48.4838 620.542C48.2152 618.431 45.4808 616.508 43.8337 615.293C40.8165 613.049 33.9617 610.446 32.1798 608.691C31.8303 608.349 31.6223 608.086 31.5741 607.6C31.4833 606.492 32.2276 605.578 32.9806 604.812C34.8181 602.943 37.51 601.464 39.713 600.009C45.37 596.295 51.2931 592.718 56.112 587.977C57.2345 586.879 58.5215 585.743 59.0471 584.247C58.9038 583.832 58.9726 583.755 58.5596 583.513C54.9825 581.471 41.8918 585.37 37.696 586.756C36.0529 587.302 32.1132 589.163 30.5171 588.445C29.8596 587.453 30.1449 586.259 30.3902 585.161C31.7222 579.375 39.3001 563.97 38.121 558.988C37.8383 558.668 37.7532 558.402 37.2954 558.344C35.5307 558.136 33.227 560.346 31.9998 561.419C27.821 565.059 24.4928 569.127 21.3893 573.64C20.1074 575.506 18.9576 577.629 17.4801 579.341C16.8329 580.083 15.744 581.112 14.6751 581.193C14.0046 581.233 13.5889 580.98 13.1747 580.516C11.3756 578.467 10.8718 563.604 6.16181 559.399L5.54418 559.291C2.80179 561.364 1.29791 571.297 0.812722 574.77C0.110757 579.793 -17.145 615.782 -6.75367 625.697C-1.92916 630.299 6.39495 624.614 14.93 622.53C24.7525 620.129 34.7681 620.922 38.7771 621.328L38.7654 621.331Z" fill="#FCD836"/>
<path d="M62.3248 523.119C61.5747 521.058 60.486 518.95 60.1377 516.778C59.9517 515.67 59.8977 514.884 60.8119 514.152C62.773 513.91 65.1299 515.941 66.6001 517.151C69.3102 519.363 73.2143 529.944 76.7925 529.638C80.3707 529.332 85.2122 505.225 88.3768 499.78C89.1086 498.514 89.8362 497.089 91.063 496.271C91.4685 496.305 91.5227 496.225 91.8344 496.543C94.4914 499.308 93.9767 512.037 93.6893 516.148C93.5735 517.759 91.8207 523.46 92.8317 524.738C93.8754 525.105 94.8847 524.573 95.8168 524.099C100.72 521.566 113.831 509.467 118.584 509.39C118.937 509.572 119.196 509.588 119.353 509.988C119.943 511.536 118.481 514.126 117.797 515.481C115.476 520.095 112.577 524.037 109.225 527.879C107.838 529.466 106.191 530.993 104.988 532.722C104.468 533.477 103.791 534.698 103.962 535.683C104.079 536.298 104.402 536.616 104.915 536.884C107.171 538.04 120.663 535.083 125.526 538.376L125.765 538.909C124.526 541.864 109.418 545.818 103.043 549.738C96.6694 553.658 92.4523 568.416 73.2052 562.268C67.2994 560.374 66.7754 553.136 66.6991 544.953C66.6132 535.522 63.6076 526.65 62.3248 523.119Z" fill="#95C2E3"/>
<path d="M360.869 255.199C358.68 255.069 356.313 255.231 354.181 254.689C353.09 254.419 352.347 254.157 352.039 253.027C352.595 251.132 355.395 249.774 357.089 248.905C360.195 247.296 371.456 247.914 372.596 244.508C373.736 241.102 353.532 227.088 349.791 222.022C348.919 220.848 347.901 219.614 347.636 218.163C347.829 217.805 347.777 217.723 348.193 217.564C351.785 216.223 363.264 221.749 366.923 223.644C368.356 224.39 372.892 228.262 374.466 227.842C375.217 227.029 375.129 225.892 375.065 224.848C374.687 219.342 368.787 202.506 370.603 198.112C370.91 197.861 371.028 197.629 371.458 197.645C373.113 197.717 374.909 200.087 375.882 201.253C379.195 205.215 381.662 209.441 383.857 214.043C384.764 215.946 385.511 218.064 386.62 219.854C387.107 220.632 387.958 221.737 388.93 221.971C389.542 222.108 389.962 221.937 390.411 221.573C392.368 219.962 395.011 206.404 399.963 203.248L400.547 203.241C402.768 205.552 400.399 220.988 401.466 228.394C402.533 235.801 414.405 245.53 401.121 260.755C397.038 265.423 390.186 263.031 382.645 259.852C373.955 256.187 364.619 255.423 360.869 255.199Z" fill="#FCD836"/>
<path d="M133 858C120.237 858 94.3635 813.216 83.5205 793.035C78.3227 783.351 74.3955 773.797 79.1168 770.68C80.7916 769.578 87.9097 771.013 94.0603 780.292C105.207 797.124 117.508 827.265 119.255 826.279C121.955 824.742 117.017 811.868 113.278 795.616C108.946 776.711 110.116 753.195 115.905 752.021C121.695 750.847 127.773 763.924 130.084 782.293C132.841 804.228 130.791 830.657 135.238 830.759C137.707 830.817 135.556 796.036 139.31 774.029C142.284 756.486 151.308 750.6 152.925 751.021C154.542 751.441 160.635 760.908 159.552 777.059C158.108 798.69 144.117 827.758 148.983 828.511C153.849 829.265 163.782 793.963 175.65 774.174C181.686 764.112 187.706 760.966 189.121 761.72C190.334 762.373 194.276 774.594 190.19 786.221C180.256 814.536 151.972 858 133 858Z" fill="#027B72"/>
<defs>
<filter id="filter0_d_719_3007" x="129" y="416" width="284" height="304" filterUnits="userSpaceOnUse" color-interpolation-filters="sRGB">
<feFlood flood-opacity="0" result="BackgroundImageFix"/>
<feColorMatrix in="SourceAlpha" type="matrix" values="0 0 0 0 0 0 0 0 0 0 0 0 0 0 0 0 0 0 127 0" result="hardAlpha"/>
<feOffset dx="2" dy="2"/>
<feGaussianBlur stdDeviation="4"/>
<feComposite in2="hardAlpha" operator="out"/>
<feColorMatrix type="matrix" values="0 0 0 0 0 0 0 0 0 0 0 0 0 0 0 0 0 0 0.25 0"/>
<feBlend mode="normal" in2="BackgroundImageFix" result="effect1_dropShadow_719_3007"/>
<feBlend mode="normal" in="SourceGraphic" in2="effect1_dropShadow_719_3007" result="shape"/>
</filter>
<linearGradient id="paint0_linear_719_3007" x1="197.428" y1="14.9849" x2="193.892" y2="840.282" gradientUnits="userSpaceOnUse">
<stop stop-color="#FFBFDA"/>
<stop offset="0.5" stop-color="#95C2E3"/>
<stop offset="1" stop-color="#B4E296"/>
</linearGradient>
<linearGradient id="paint1_linear_719_3007" x1="236.254" y1="723.488" x2="388.37" y2="432.53" gradientUnits="userSpaceOnUse">
<stop stop-color="#1C0200"/>
<stop offset="1" stop-color="#3E1408"/>
</linearGradient>
</defs>
</svg>
