<svg width="62" height="70" viewBox="0 0 62 70" fill="none" xmlns="http://www.w3.org/2000/svg">
<path d="M41.3025 63.3594C43.6425 63.5981 46.1216 64.1775 48.4711 63.9673C49.672 63.8687 50.5027 63.7175 51.0209 62.5701C50.7524 60.4595 48.0179 58.5359 46.3708 57.3211C43.3536 55.0769 36.4988 52.4746 34.7169 50.7196C34.3674 50.377 34.1595 50.1139 34.1112 49.6285C34.0204 48.5199 34.7647 47.6066 35.5177 46.8403C37.3552 44.9718 40.0471 43.4928 42.2501 42.0377C47.9071 38.3229 53.8303 34.7462 58.6491 30.0053C59.7716 28.907 61.0586 27.7714 61.5842 26.2748C61.4409 25.8606 61.5097 25.783 61.0967 25.5416C57.5196 23.4988 44.4289 27.3981 40.2331 28.7838C38.59 29.3301 34.6503 31.1914 33.0542 30.4738C32.3967 29.4813 32.682 28.2875 32.9273 27.1895C34.2593 21.403 41.8372 5.99802 40.6582 1.01662C40.3754 0.696078 40.2903 0.429972 39.8325 0.372492C38.0678 0.16465 35.7641 2.37461 34.5369 3.44705C30.3581 7.0873 27.0299 11.1551 23.9264 15.6683C22.6445 17.5348 21.4947 19.6568 20.0172 21.3692C19.37 22.1116 18.2812 23.1402 17.2122 23.2213C16.5417 23.2617 16.126 23.0085 15.7118 22.5441C13.9127 20.4952 13.4089 5.63245 8.69892 1.42695L8.08129 1.31884C5.3389 3.39252 3.83502 13.3253 3.34983 16.798C2.64787 21.8213 -14.6079 57.8102 -4.21656 67.7257C0.607945 72.3271 8.93206 66.6425 17.4671 64.5581C27.2896 62.1569 37.3052 62.9506 41.3142 63.3567L41.3025 63.3594Z" fill="#FFBFDA"/>
</svg>
