<svg width="46" height="67" viewBox="0 0 46 67" fill="none" xmlns="http://www.w3.org/2000/svg">
<path d="M13.8691 58.1987C11.68 58.0691 9.31289 58.2313 7.18092 57.6887C6.08988 57.4194 5.34738 57.157 5.03855 56.0274C5.59523 54.1316 8.3945 52.7744 10.0888 51.9054C13.1953 50.2964 24.4561 50.9136 25.5958 47.508C26.7356 44.1023 6.53209 30.0883 2.79122 25.0222C1.91896 23.8477 0.900716 22.6144 0.636324 21.1635C0.829018 20.8049 0.776995 20.7234 1.19263 20.5636C4.78497 19.2226 16.2639 24.7486 19.9231 26.6445C21.3555 27.3903 25.8918 31.2621 27.4662 30.8416C28.217 30.0292 28.1295 28.8917 28.0647 27.8481C27.6869 22.3422 21.7874 5.50594 23.6032 1.11249C23.9104 0.860586 24.0278 0.629173 24.4577 0.644636C26.1126 0.716799 27.9092 3.08691 28.8817 4.25333C32.1947 8.21458 34.662 12.4413 36.8572 17.043C37.7636 18.946 38.5109 21.0636 39.6199 22.8543C40.1068 23.6316 40.9583 24.7372 41.9305 24.9708C42.5417 25.1077 42.9616 24.9374 43.411 24.5731C45.3675 22.9617 48.0105 9.4043 52.9629 6.24835L53.5473 6.24117C55.7677 8.5516 53.3988 23.9878 54.4658 31.3942C55.5329 38.8006 67.4045 48.5303 54.1205 63.7548C50.0376 68.4234 43.1861 66.0307 35.6452 62.852C26.9553 59.1868 17.6191 58.4232 13.8691 58.1987Z" fill="#FCD836"/>
</svg>
