<svg width="75" height="79" viewBox="0 0 75 79" fill="none" xmlns="http://www.w3.org/2000/svg">
<path d="M70.3329 33.9999C71.481 31.9469 72.997 29.9016 73.7368 27.6618C74.1231 26.5204 74.3141 25.698 73.4668 24.7668C71.423 24.1754 68.5719 25.9215 66.8031 26.9509C63.5455 28.8292 58.4356 34.0875 56.1174 35.0262C55.6642 35.211 55.3402 35.2974 54.8755 35.1491C53.822 34.7922 53.2793 33.7465 52.8748 32.7512C51.8894 30.3229 51.6006 27.2651 51.1398 24.6654C49.976 17.9985 49.0448 11.1422 46.6066 4.8372C46.0442 3.37093 45.5128 1.73884 44.348 0.662334C43.9109 0.629468 43.867 0.535414 43.4815 0.818715C40.1865 3.29079 38.5682 16.8537 38.1743 21.2549C38.0234 22.9798 38.1677 27.3346 36.8754 28.5147C35.7035 28.7241 34.721 27.9883 33.8106 27.3273C29.0284 23.8075 17.8979 10.7365 12.8578 9.84107C12.4514 9.97333 12.1734 9.94575 11.9389 10.3432C11.0475 11.8803 12.1613 14.8721 12.6584 16.4242C14.3405 21.7047 16.7527 26.3743 19.6628 31.0145C20.8671 32.9321 22.3582 34.8299 23.3433 36.8657C23.7677 37.7544 24.2796 39.1622 23.9296 40.1755C23.7005 40.8069 23.3031 41.088 22.7124 41.2838C20.1176 42.1216 6.27633 36.6834 0.546562 39.3367L0.202139 39.8607C1.01666 43.2009 9.53607 48.5246 12.5308 50.3485C16.8626 52.9871 43.0432 83.1124 56.2692 77.5115C62.4078 74.9103 60.4951 65.0135 61.9704 56.3523C63.6661 46.3838 68.3708 37.5064 70.3352 33.9881L70.3329 33.9999Z" fill="#B4E296"/>
</svg>
