<svg width="66" height="68" viewBox="0 0 66 68" fill="none" xmlns="http://www.w3.org/2000/svg">
<path d="M2.32482 27.119C1.57466 25.0584 0.486026 22.9503 0.137694 20.7781C-0.0482867 19.6698 -0.102283 18.8841 0.811897 18.1522C2.77296 17.9105 5.12991 19.9409 6.60008 21.151C9.31021 23.3634 13.2143 33.9438 16.7925 33.6378C20.3707 33.3319 25.2122 9.22514 28.3768 3.78047C29.1086 2.51359 29.8362 1.0894 31.063 0.270726C31.4685 0.305234 31.5227 0.225135 31.8344 0.543145C34.4914 3.30789 33.9767 16.0373 33.6893 20.1485C33.5735 21.7592 31.8207 27.4598 32.8317 28.7379C33.8754 29.1045 34.8847 28.5725 35.8168 28.0988C40.7203 25.5662 53.8307 13.4675 58.584 13.3898C58.9372 13.5718 59.1961 13.5876 59.3526 13.9884C59.9434 15.5359 58.4814 18.1259 57.7969 19.4815C55.4764 24.0948 52.5766 28.0373 49.2245 31.8791C47.8378 33.4664 46.1909 34.993 44.9877 36.7218C44.4676 37.4773 43.7908 38.6978 43.9624 39.6827C44.0794 40.2981 44.4024 40.6158 44.9152 40.8837C47.1709 42.0397 60.6634 39.0832 65.5261 42.3756L65.7647 42.9092C64.5257 45.8644 49.4176 49.8183 43.0435 53.738C36.6694 57.6577 32.4523 72.4165 13.2052 66.2683C7.29939 64.3744 6.77537 57.1361 6.69913 48.953C6.61318 39.5221 3.60755 30.65 2.32482 27.119Z" fill="#95C2E3"/>
</svg>
