<svg width="60" height="70" viewBox="0 0 60 70" fill="none" xmlns="http://www.w3.org/2000/svg">
<path d="M38.7654 63.3311C41.1054 63.5697 43.5845 64.1491 45.934 63.939C47.1349 63.8404 47.9656 63.6892 48.4838 62.5418C48.2152 60.4312 45.4808 58.5076 43.8337 57.2928C40.8165 55.0486 33.9617 52.4463 32.1798 50.6913C31.8303 50.3486 31.6223 50.0856 31.5741 49.6002C31.4833 48.4916 32.2276 47.5783 32.9806 46.812C34.8181 44.9435 37.51 43.4645 39.713 42.0094C45.37 38.2945 51.2931 34.7178 56.112 29.977C57.2345 28.8787 58.5215 27.743 59.0471 26.2465C58.9038 25.8323 58.9726 25.7546 58.5596 25.5133C54.9825 23.4705 41.8918 27.3697 37.696 28.7555C36.0529 29.3018 32.1132 31.1631 30.5171 30.4455C29.8596 29.453 30.1449 28.2592 30.3902 27.1612C31.7222 21.3746 39.3001 5.9697 38.121 0.988301C37.8383 0.667757 37.7532 0.401652 37.2954 0.344172C35.5307 0.136329 33.227 2.34629 31.9998 3.41872C27.821 7.05898 24.4928 11.1268 21.3893 15.6399C20.1074 17.5065 18.9576 19.6285 17.4801 21.3409C16.8329 22.0833 15.744 23.1119 14.6751 23.193C14.0046 23.2334 13.5889 22.9802 13.1747 22.5158C11.3756 20.4669 10.8718 5.60413 6.16181 1.39863L5.54418 1.29052C2.80179 3.3642 1.29791 13.297 0.812722 16.7697C0.110757 21.793 -17.145 57.7818 -6.75367 67.6973C-1.92916 72.2988 6.39495 66.6141 14.93 64.5297C24.7525 62.1286 34.7681 62.9222 38.7771 63.3284L38.7654 63.3311Z" fill="#FCD836"/>
</svg>
