<svg width="31" height="31" viewBox="0 0 31 31" fill="none" xmlns="http://www.w3.org/2000/svg">
<g clip-path="url(#clip0_296_6872)">
<path d="M15.5 31C24.0604 31 31 24.0604 31 15.5C31 6.93959 24.0604 0 15.5 0C6.93959 0 0 6.93959 0 15.5C0 24.0604 6.93959 31 15.5 31Z" fill="#F0F0F0"/>
<path d="M30.0359 10.1087H13.4783V6.06519H5.39128V10.1087H0.964088C0.341061 11.7878 0 13.604 0 15.5C0 17.3959 0.341061 19.2121 0.964088 20.8912L15.5 22.2391L30.0359 20.8912C30.6589 19.2121 31 17.3959 31 15.5C31 13.604 30.6589 11.7878 30.0359 10.1087Z" fill="#0052B4"/>
<path d="M15.4998 31.0001C22.1642 31.0001 27.8456 26.7938 30.0357 20.8914H0.963867C3.15391 26.7938 8.83532 31.0001 15.4998 31.0001Z" fill="#D80027"/>
<path d="M5.39111 10.1087V11.4565C5.39111 14.5517 9.43462 15.5 9.43462 15.5C9.43462 15.5 13.4781 14.5517 13.4781 11.4565V10.1087L12.1303 11.4565L9.43462 9.43481L6.73895 11.4565L5.39111 10.1087Z" fill="#F0F0F0"/>
<circle cx="15.5" cy="15.5" r="15" stroke="#5A5A5A"/>
</g>
<defs>
<clipPath id="clip0_296_6872">
<rect width="31" height="31" fill="white"/>
</clipPath>
</defs>
</svg>
