<?xml version="1.0" encoding="UTF-8"?>
<svg id="_x2014_ÎÓÈ_x5F_1" xmlns="http://www.w3.org/2000/svg" xmlns:xlink="http://www.w3.org/1999/xlink" version="1.1" viewBox="0 0 4000 4000">
  <!-- Generator: Adobe Illustrator 29.2.1, SVG Export Plug-In . SVG Version: 2.1.0 Build 116)  -->
  <defs>
    <style>
      .st0 {
        fill: #970722;
      }

      .st1 {
        fill: #e02230;
      }

      .st2 {
        fill: #f13b09;
      }

      .st3 {
        fill: url(#_ÂÁ_Ï_ÌÌ_È_ËÂÌÚ_2);
      }

      .st4 {
        display: none;
      }

      .st4, .st5 {
        fill: #fefefe;
      }

      .st6 {
        fill: #cf1839;
      }

      .st7 {
        fill: #fa700c;
      }

      .st8 {
        fill: #362616;
      }

      .st9 {
        fill: #ee3540;
      }

      .st10 {
        fill: #fcc86b;
      }

      .st11 {
        fill: #f54a4c;
      }

      .st12 {
        fill: url(#_ÂÁ_Ï_ÌÌ_È_ËÂÌÚ);
      }

      .st13 {
        fill: #917b29;
      }

      .st14 {
        fill: #f99222;
      }
    </style>
    <linearGradient id="_ÂÁ_Ï_ÌÌ_È_ËÂÌÚ" data-name="¡ÂÁ˚ÏˇÌÌ˚È „‡‰ËÂÌÚ" x1="1696.1" y1="2682.2" x2="1656.2" y2="2681.5" gradientTransform="translate(-3830.1 10933.1) scale(3.9 -3.9)" gradientUnits="userSpaceOnUse">
      <stop offset="0" stop-color="#f7671b"/>
      <stop offset="1" stop-color="#fa8f29"/>
    </linearGradient>
    <linearGradient id="_ÂÁ_Ï_ÌÌ_È_ËÂÌÚ_2" data-name="¡ÂÁ˚ÏˇÌÌ˚È „‡‰ËÂÌÚ 2" x1="1744.2" y1="2026.5" x2="1905.2" y2="1939.8" gradientTransform="translate(-3830.1 10933.1) scale(3.9 -3.9)" gradientUnits="userSpaceOnUse">
      <stop offset="0" stop-color="#960a1a"/>
      <stop offset="1" stop-color="#d4243b"/>
    </linearGradient>
  </defs>
  <path class="st4" d="M0,0h4000v4000H0V0Z"/>
  <path class="st11" d="M1300.3,2871.6c55.2-14.5,112.6-30.9,170.1-25.6-11.3,26.6-62.7,88-88.1,104.3l-82-78.7Z"/>
  <path class="st11" d="M3349.5,507.2c63.5,25.4,115.2,59.1,166.1,104.4-23.9,2.5-46,7.5-68.9,14.8-7.4,2.4-15,6.2-22.4,8.1-28-32.1-62.2-57.3-98.7-79,8.7-15.8,16.4-31.9,24-48.3Z"/>
  <path class="st1" d="M1654.5,3733.1c17.6-9.6,33.9-21.7,51.8-30.9,47.9-24.8,109.2-35.1,161.6-19.9,39,11.3,84.9,34.7,116.2,60.3,13.4,11,25.3,26.1,39.8,35.4,2.1,12.2,3,24.5,4,36.8-74.2-50.9-179.1-111.8-272.3-95.9-23.8,4.1-47.2,10.4-70.3,17.5-10.9,3.3-21.9,8.2-33.1,10.3-1.9-4.4.9-9.1,2.3-13.6Z"/>
  <path class="st1" d="M2295.2,3708.5c1-.4,2-.7,2.9-1.1,17.6-6.8,34.2-23.4,51-32.8,50.5-28.3,124.9-36.4,178.9-14.2,39.5,16.3,81.4,42.7,112.9,71.6,11.4,10.5,32.4,40.8,43.3,46,1,11.6,1.1,23.2,1.3,34.9-21.9-19.9-46.1-38.7-70.2-55.9-43.1-30.7-103.2-73.7-158.1-71-35,1.7-70.7,13.1-104.7,21.3-18.5,4.5-37.9,11.4-56.4,14.5-3-4.6-1.4-7.9-.8-13.3Z"/>
  <path class="st12" d="M2636.9,377.2c59.8,6.8,109.9,30.5,161.9,59.5-.9,22.8-2.2,45.6-2.2,68.4-26.5,6-81.2,16.3-104.2,27.4l-.7,1.7c-6.6,1.1-12.2,2.7-18.5,5-6.3-11.3-11.1-23.5-16.7-35.1-.1-13.4-8.9-32.5-12.3-46-6.9-27.5-8.1-52.7-7.3-81Z"/>
  <path class="st10" d="M1335.7,2700.3c66.4-24.9,148.3-45.9,218.9-33.3-29.9,47.8-54.4,103.7-71.6,157.3-2.8,6.7-5.5,12.7-9.4,18.8-49.8-37.3-101.4-92.5-137.9-142.8Z"/>
  <path class="st7" d="M1440.7,2477.6c9.2-2,18.4-3.7,27.6-5.3,9.2-1.6,18.5-2.9,27.8-4.1,9.3-1.2,18.6-2.1,27.9-2.9,9.3-.8,18.7-1.3,28-1.7,9.4-.3,18.7-.5,28.1-.4,9.4,0,18.7.3,28.1.8,9.4.5,18.7,1.1,28,2,9.3.9,18.6,1.9,27.9,3.2-7.2,17.1-18.5,33.2-28.1,49-23.7,39-49.6,77.5-68.6,119.1-38-39.4-100.3-112-126.7-159.8Z"/>
  <path class="st7" d="M3227.5,421.7c11.1-2.7,20.9-10.3,31.4-14.9,39.4-17,84.4-33.6,128-30.8-7,45.5-19.1,88.7-37.4,131.1-7.6,16.4-15.3,32.5-24,48.3-17-9.3-33.9-18-53.5-19.6l-.8-2.6c-13.5-7.5-45.3-12.6-61.5-17.1,10.5-30.7,13.6-62.5,17.8-94.5Z"/>
  <path class="st7" d="M1547.9,2222c93.7-7.4,193.4,11.5,278.6,49.6-16.2,29.4-79.6,80.2-84.5,106.6-29,23.2-48.4,51.6-68.1,82.7-50.3-73.6-93-156.2-126-238.9Z"/>
  <path class="st2" d="M3026.2,402.4c59.8-65.4,121.2-127.4,205.6-160,5.9,59.2,6.1,120.5-4.4,179.3-4.2,32-7.3,63.8-17.8,94.5-49.5-17.8-107.3-19.2-159-26.4-5.9-29.7-15.2-58.6-24.4-87.4Z"/>
  <path class="st10" d="M1944.5,1812.5c21.8,5.8,43.8,18.5,64.3,28,66.1,31,172.1,80.4,227,125.7-13.3,7.8-27.8,15.5-39.2,26.1-54.2,26.2-140.6,83.4-185.5,122-16.3-66.7-33.5-133.2-48-200.4-7.2-33.4-15.1-67.3-18.5-101.4Z"/>
  <path class="st14" d="M2607.1,3014.7c16.7,14.8,36.2,27.4,55.1,39.1,69.6,43.3,138.9,66.6,220.4,73.4-101.8,74.5-231.6,152.8-349.8,196.2-15.6-130.3,34.7-196.2,74.3-308.7Z"/>
  <path class="st14" d="M2885.1,142.5c67.5,73.5,107.5,167.4,141.1,259.9,9.2,28.8,18.5,57.7,24.4,87.4-84.2-7-171.7-5.4-254.1,15.3,0-22.8,1.3-45.7,2.2-68.4,8-101.8,31.1-206.6,86.4-294.1Z"/>
  <path class="st3" d="M3319.7,2652.6c12,138.2-15.2,258-63.2,386.9-21.2,57.1-53.9,110.4-52.3,172.9,1.3,53,21.7,83.2,44.4,128.6,84.4-15,162.9-22.8,244.8,8.9-35.1,15.6-64.4,30.8-94.1,55.8,63.7,20.9,110,52.1,144.5,110.6-74.7-18.7-152.9-26.1-229.8-26,22.8,40,34.8,78.2,38,124.1-66.6-55.4-175.9-113.8-264.3-105.9-30.9,2.7-60.8,10.9-89.4,22.9-12.2,5.1-26.6,13.6-39.4,16.2-3.6.7-1.9.9-5.3-1.5-3.5-24.3,8.9-47.7,23-66.6,26.2-35,66.7-60.9,103.2-83.9-7.3-42-24.7-79.5-41.5-118.4-28.9-67.2-60.9-131.3-94.2-196.3,41.3-33.2,78.9-69.8,117.1-106.4,107.5-103.2,187.5-189.9,258.4-321.7Z"/>
  <path class="st14" d="M2512.3,1563.7c20.2,12.7,38.9,27.8,57.9,42.1.9,30.8-.8,64.2,3.8,94.5,2.1,138.1-40.9,284.1-138.4,385-68.3,70.7-147.3,108.4-227.9,160.8-43.3,27.9-85.4,57.7-126.1,89.4-40.7,31.7-79.9,65.1-117.6,100.3-99.9,94.8-185.3,205.2-260.7,320.1-49.2,75-89,158.7-144.3,229.2-113.6,144.8-315.9,223-496.6,225.4-183.8,2.5-376.3-60.8-508.7-191.1-92.6-91.2-151.2-204.3-151.2-336.6,0-137.1,62.3-249.4,157.4-343.6,44-43.5,94.5-81.8,145-117.3,93.2-65.6,208.5-128.8,262.1-233.9,22.5-44.1,30.5-94.7,30.9-143.8.2-19.5-6.9-40.9-5.2-59.8,23.8,33.9,43.8,83.3,43.8,125.2,5.5,134-41.8,238.7-130.9,335.6-43.9,47.8-94.1,89.1-140.7,134.2-81.7,79.3-164.7,174.2-167,294.2-.6,28.4,4.4,54.9,11.7,82.2,25.5,66.5,55,103.6,110.4,148.5,19.2,13.6,41.7,25.7,59.6,40.7,43.7,24.1,89.7,40.5,137.9,53,21.2,3.5,41.9,7.6,62.8,12.4,44.4,8.3,102.2,16.5,146.9,12.1,27.2-7.1,61.1-5.1,89.5-7,71.3-9.2,106.8-23.3,165.3-65.3,25.4-16.3,76.8-77.6,88.1-104.3l3.2-2.9c3.9-6.1,6.6-12.1,9.4-18.8,17.2-53.6,41.7-109.6,71.6-157.3,5.4-9.3,8.9-19.6,12.8-29.7,19-41.6,44.9-80,68.6-119.1,9.6-15.8,20.9-32,28.1-49l5.2-1.2,4.6-7.2c19.8-31.2,39.1-59.5,68.1-82.7,4.8-26.4,68.2-77.3,84.5-106.6l5.3-2c-45.4-88.7-85.3-171.8-105.5-270.4,92.2,22.6,202.7,61.2,278.9,119.4,1.9-.4,4.3-3,5.9-4.3,44.9-38.6,131.3-95.8,185.5-122,11.4-10.6,25.8-18.3,39.2-26.1,4.7-1.7,8.5-3.4,12.8-6-2.1-26.8-10.3-53.8-14-80.6-4.3-31.2-7.4-62.5-9.3-93.9-1.9-31.4-2.7-62.8-2.3-94.3,90.6,38.3,150.5,83.5,222.4,149.7,9.7-10.5,23.1-24.2,28-37.6,5.7-15.5,6.5-35.1,9.5-51.4,11.7-62.5,24.5-124.9,29.4-188.4Z"/>
  <path class="st7" d="M609.9,2755.9c-2-2.2-3.9-4.4-5.1-7.2-7.6-16.6-8.1-35.6-9-53.5-4.3-85.7,27.2-157.6,80.1-224.1,14-17.7,56.7-58.6,62.1-75.5-3.6-13.6-41.8-6.6-57.9-23.6-9.6-10.1-20.4-32.9-19.3-46.9,0-.6.1-1.2.2-1.7-3.6-.6-19.2,13.7-23.3,16.6,6.4-9.6,16.6-16.3,26-22.5l1.2,13.4c4.3,17.7,9.7,33.2,25.9,43.6,14.6,9.3,33.9,10.5,50.5,6.6,6.1-1.4,12.2-3.8,17.9-6.3l6.1,4.7c-81.7,79.3-164.7,174.2-167,294.2-.6,28.4,4.4,54.9,11.7,82.2Z"/>
  <path class="st2" d="M511.3,2578.4c-10.7-10.1-18.1-23.7-19.8-38.4-1.9-16.9,3.8-33.8,14.8-46.6,11.8-13.8,26.6-20.6,44.5-22.3-12.8,35.9-26,71.6-39.4,107.3Z"/>
  <path class="st7" d="M925.1,2123.3c-27,53.9-97.4,99.1-141,140-5.3-3.3-10.9-6.1-16.4-9.1-13.2-1.9-26-2.4-39.3-2.5,5.1-.6,11.1-.8,15.9-2.8,12.6-5.3,26.6-17.5,38.3-25.1,26.3-17.3,53.5-33.8,78.9-52.4,20.8-15.2,40.3-32.6,61.8-46.9l1.8-1.2Z"/>
  <path class="st1" d="M550.8,2471.2c16.2,3.7,28.7,8.5,38,23.4,9.1,14.6,10.1,33.7,6.1,50.1-4,16.4-13.9,31.5-28.8,39.8-1.4.8-2.9,1.6-4.4,2.2-1.5.7-3,1.2-4.6,1.7-1.6.5-3.1.9-4.7,1.2-1.6.3-3.2.6-4.8.7-1.6.2-3.3.2-4.9.2-1.6,0-3.3-.1-4.9-.3-1.6-.2-3.2-.5-4.8-.8-1.6-.4-3.2-.8-4.7-1.3-6.4-2.1-11.5-5.5-16.8-9.6,13.5-35.6,26.6-71.4,39.4-107.3Z"/>
  <path class="st2" d="M523.4,2749.8c5.9-.4,12-.9,17.9.3,14.7,2.9,27.8,13.1,36.1,25.3,9.6,14.2,14.6,32.8,11.1,49.7-3.4,16.2-11.8,25.1-25.4,33.6-6.6,1.1-12.9,2.3-19.6,1.4-13.4-2-25-10.1-32.7-21-10.5-14.9-15.5-36.4-12.1-54.4,3.2-16.8,11-25.4,24.7-34.9Z"/>
  <path class="st2" d="M720.3,2904.4c19.2,13.6,41.7,25.7,59.6,40.7-.1,17.4-.3,31.5-9.5,47.1-7,11.9-18.4,20.7-31.8,23.8-1.9.4-3.8.8-5.8,1-1.9.2-3.9.4-5.9.4-2,0-3.9,0-5.9-.2-2-.1-3.9-.4-5.8-.7-1.9-.3-3.8-.8-5.7-1.3-1.9-.5-3.7-1.1-5.6-1.8-1.8-.7-3.6-1.5-5.4-2.4-1.7-.9-3.5-1.8-5.1-2.9-15.7-9.8-28.1-26.3-31.7-44.6-2.4-12-.9-24.2,6.2-34.3,12.5-17.9,32.3-21.8,52.3-24.8Z"/>
  <path class="st2" d="M1127.5,3022.6c27.2-7.1,61.1-5.1,89.5-7,12,11.7,20.5,24.7,20.8,41.9.3,16.8-7.5,35.2-19.3,47-1.5,1.5-3.1,2.9-4.7,4.2-1.6,1.3-3.4,2.5-5.1,3.7-1.8,1.1-3.6,2.2-5.5,3.2-1.9,1-3.8,1.8-5.8,2.6-2,.8-4,1.4-6,2-2,.6-4.1,1-6.2,1.4-2.1.4-4.2.6-6.3.7-2.1.1-4.2.2-6.3,0-2.1,0-4.3-.3-6.4-.5-2.1-.3-4.2-.7-6.3-1.2-2.1-.5-4.1-1.1-6.1-1.8-2-.7-4-1.5-5.9-2.4-1.9-.9-3.8-1.9-5.7-3-1.8-1.1-3.6-2.3-5.4-3.5-1.7-1.3-3.4-2.6-5-4-1.6-1.4-3.1-2.9-4.6-4.5-1.3-1.4-2.4-2.9-3.6-4.4-1.1-1.5-2.1-3.1-3.1-4.7-1-1.6-1.8-3.3-2.6-5-.8-1.7-1.5-3.5-2.1-5.3-.6-1.8-1.1-3.6-1.6-5.4-.4-1.8-.8-3.7-1-5.6-.2-1.9-.4-3.8-.4-5.6,0-1.9,0-3.8.1-5.7,1.1-14.4,6.4-25.4,14.3-37.1Z"/>
  <path class="st2" d="M917.7,2998.1c21.2,3.5,41.9,7.6,62.8,12.4,10.6,14.8,21.4,30.7,19.4,49.8-1.7,16.4-12.3,32.8-25.1,42.8-1.5,1.2-3.1,2.3-4.8,3.4s-3.3,2-5.1,2.9c-1.7.9-3.5,1.6-5.4,2.3-1.8.7-3.7,1.3-5.6,1.8-1.9.5-3.8.9-5.7,1.2-1.9.3-3.9.5-5.8.6-1.9.1-3.9.1-5.8,0-1.9,0-3.9-.3-5.8-.6-2.2-.3-4.5-.8-6.7-1.3-2.2-.6-4.4-1.2-6.5-2-2.1-.8-4.2-1.6-6.3-2.6-2-1-4-2.1-6-3.3-1.9-1.2-3.8-2.5-5.6-3.8-1.8-1.4-3.5-2.8-5.2-4.4-1.7-1.6-3.2-3.2-4.7-4.9-1.5-1.7-2.9-3.5-4.2-5.3-8.6-12.3-12.6-27.7-9.2-42.5,5.1-22.4,22.6-35.2,41.1-46.4Z"/>
  <path class="st1" d="M728.4,2251.8c13.3.1,26.1.6,39.3,2.5,5.5,2.9,11.1,5.7,16.4,9.1,11.4,16.9,16.9,31.7,13,52.6-5.8,31.1-18.6,38.3-38,58.9-5.7,2.6-11.8,4.9-17.9,6.3-16.6,3.9-35.9,2.7-50.5-6.6-16.2-10.3-21.6-25.9-25.9-43.6l-1.2-13.4c3.1-10.4,6.6-20.6,12.4-29.8,12.4-19.7,29.8-31.3,52.5-36Z"/>
  <path class="st2" d="M728.4,2251.8c13.3.1,26.1.6,39.3,2.5-23.3,19.8-51.5,35.4-77,52.3-7.2,4.8-17.2,9.8-23.4,15.6-2,1.9-2.3,6.3-2.6,8.8l-1.2-13.4c3.1-10.4,6.6-20.6,12.4-29.8,12.4-19.7,29.8-31.3,52.5-36Z"/>
  <path class="st2" d="M1554.6,2667c19.3-4.5,38.6-11.8,57.2-.4,9.7,6,15.3,15.6,17.8,26.5,6.8,30.6-5.9,63.8-22.9,89-17.7,26.3-47.6,55.7-80,61.7-9.9,1.8-23.5.9-31.6-5.7-4.6-3.7-8.4-9.2-12.1-13.8,17.2-53.6,41.7-109.6,71.6-157.3Z"/>
  <path class="st2" d="M1742.1,2378.2c18.7-7.3,36.6-13.7,56.2-5.4,14.3,6,25.8,16.7,31.6,31.2,9,22.2,3.8,48.9-5.7,70-15.8,35.2-48.7,67.7-85.3,80.6-16,5.6-33.4,8-49.3.7-11.6-5.3-21.7-15.6-25.6-27.8-6.2-19.4-.1-40.5,5.3-59.3l4.6-7.2c19.8-31.2,39.1-59.5,68.1-82.7Z"/>
  <path class="st2" d="M1036.8,1909.8c5.5,134-41.8,238.7-130.9,335.6-43.9,47.8-94.1,89.1-140.7,134.2l-6.1-4.7c19.4-20.5,32.3-27.8,38-58.9,3.9-20.9-1.6-35.7-13-52.6,43.6-40.9,114.1-86.1,141-140,43.2-41.3,73.7-101.6,94.5-157,5.7-15.3,6.9-46,17.2-56.5Z"/>
  <path class="st2" d="M2223,1691.4c90.6,38.3,150.5,83.5,222.4,149.7-43.8,46-97.4,69.4-152.6,97.5,22.1,1.2,44.8,4.3,60.9,21.4,12.3,13.1,15.4,31.1,14.4,48.5-1.7,30.3-18.8,57.9-41.6,77.2-25.9,21.9-62,36.5-96.2,33.7-16.8-1.4-33.9-7.4-45-20.7-10.8-13.1-14.3-30.7-12.2-47.3,2.6-20.8,14.3-40.6,23.6-59,11.4-10.6,25.8-18.3,39.2-26.1,4.7-1.7,8.5-3.4,12.8-6-2.1-26.8-10.3-53.8-14-80.6-4.3-31.2-7.4-62.5-9.3-93.9-1.9-31.4-2.7-62.8-2.3-94.3Z"/>
  <path class="st2" d="M1726.3,1999.1c92.2,22.6,202.7,61.2,278.9,119.4l2.5,2.3c24.4-.4,53-3.6,72.4,14.6,12.2,11.4,16.9,30.9,16.9,47.1,0,31-16.6,61.4-38.7,82.4-26.8,25.5-67.2,46.8-105,45.6-13.2-.4-26.2-4.1-35.4-14.1-10.3-11.1-13.2-26.7-11.9-41.4,2.3-26.9,15.2-53.5,26.6-77.6-19.3,16.1-38.9,32-56.9,49.5-14.3,13.8-28.1,30.6-43.7,42.6-45.4-88.7-85.3-171.8-105.5-270.4Z"/>
  <path class="st11" d="M2796.6,505.1c82.4-20.7,169.8-22.2,254.1-15.3,51.7,7.2,109.6,8.6,159,26.4,16.1,4.5,48,9.5,61.5,17.1l.8,2.6c19.6,1.6,36.5,10.3,53.5,19.6,36.5,21.7,70.7,46.9,98.7,79,7.5-1.8,15-5.7,22.4-8.1,22.9-7.3,45-12.2,68.9-14.8l3.4,1.2c11.2,3.9,22.8,5.5,33.8,10.2,28.1,12.1,51,43.1,64.1,69.7,15.9,32.2,30.5,79.7,29.8,115.7,0,.6.1,1.3.2,1.9,3,20.7,32.9,49.3,44.5,68.3,59.6,97.9,133.4,240.3,114.9,357.9-5.6,35.7-20.9,68.9-41.9,98.1-34.7,48.3-81.6,87.8-129.2,122.8-51.1,37.6-106.2,70.2-155,110.9-125.6,104.7-117.3,243.9-93.8,391l9.4,56.6c5.7,26,8,52.9,10.7,79.3,1.8,18.6,3.2,37.3,4.1,56,.9,18.7,1.4,37.4,1.4,56.1,0,18.7-.4,37.4-1.4,56.1-.9,18.7-2.3,37.4-4.1,56-1.8,18.6-4.1,37.2-6.8,55.7-2.7,18.5-5.9,36.9-9.5,55.3-3.6,18.4-7.7,36.6-12.2,54.8-4.5,18.2-9.5,36.2-14.9,54.1-11.7,38.8-32.1,74.7-43.4,113.2-71,131.7-151,218.5-258.4,321.7-38.2,36.6-75.8,73.3-117.1,106.4-20.3,15.8-40.8,31.3-61.5,46.6-81.5-6.8-150.9-30.2-220.4-73.4-18.9-11.8-38.5-24.3-55.1-39.1-39.5,112.5-89.8,178.4-74.3,308.7,13.2,80,52.9,148.5,111.4,204.2,70.3-11.4,134.1-14.8,202.4,8.9,11.5,4.7,22.5,9.1,33,15.9-40.7,14.2-80.3,29.8-116.1,54.3,44.9,15.6,86.4,44.8,107.7,88.7.5,1.1,1,2.2,1.5,3.2,7,8.7,11.3,21.6,15.5,31.8-74.6-32.8-147.3-41.8-228.2-39.1l-2.8,2.7c10.4,28.6,24.2,52.7,27.1,83.9-10.9-5.2-31.9-35.5-43.3-46-31.5-28.9-73.3-55.3-112.9-71.6-54-22.2-128.4-14.1-178.9,14.2-16.8,9.4-33.4,26.1-51,32.8-1,.4-2,.7-2.9,1.1.3-1.4.6-2.7.9-4.1,18.6-68.1,79.6-118.8,138-153-42.9-39.4-69-94.3-94.6-145.6-95,45-218,75.5-320.3,103.2-30.2,8.2-82.7,16.4-107.8,29.1,32.1,27.8,141.6,11.2,185.2,12.6,33.3,1.1,68.7,6.5,98.7,21.8-31.2,14.8-66.6,28.5-91.9,52.7,36.5,17.4,74.1,40.7,90.9,79.5,4.9,11.3,8.7,22.4,12.2,34.3-62.2-23-141.3-31.1-207.1-27.8,12.1,18,21.4,45.2,24.6,66.8-14.4-9.3-26.4-24.5-39.8-35.4-31.3-25.6-77.3-49-116.2-60.3-52.3-15.2-113.7-4.9-161.6,19.9-17.8,9.2-34.1,21.3-51.8,30.9,15.1-52.3,55.7-89.8,99.2-119.3-6.2-9.2-12.9-18-19.1-27.2-367.8,88.9-765,70-1103-110.9-175.4-93.8-345.3-251.5-404.4-446.3-.4-.9-.9-1.7-1.3-2.6-29.7-69.8-27.5-185.9-15.3-260.3,45.2-275.3,231.4-457.6,451.3-609.8,32.6-22.4,65.4-44.7,98.3-66.8,73.4-49.7,141.5-99.8,174.5-185.9,21.8-56.9,25.2-123.3.4-179.7,23.5,17.2,42,35.8,58,60.2-1.7,18.9,5.3,40.3,5.2,59.8-.4,49.1-8.4,99.6-30.9,143.8-53.6,105.1-168.9,168.3-262.1,233.9-50.5,35.6-101,73.8-145,117.3-95.2,94.1-157.4,206.4-157.4,343.6,0,132.3,58.6,245.4,151.2,336.6,132.4,130.3,324.9,193.5,508.7,191.1,180.7-2.4,383-80.7,496.6-225.4,55.3-70.5,95.1-154.2,144.3-229.2,75.4-115,160.8-225.4,260.7-320.1,37.7-35.2,76.9-68.6,117.6-100.3,40.7-31.7,82.7-61.5,126.1-89.4,80.6-52.4,159.6-90.1,227.9-160.8,97.5-100.9,140.5-246.9,138.4-385-4.6-30.3-2.9-63.8-3.8-94.5-19-14.4-37.7-29.4-57.9-42.1-45.9-42.2-101.3-76.1-151.2-113.6-79-59.4-147.8-129.5-161.7-231.6-17.6-128.8,40.1-276.7,118-378.5,4.2-10.5,12.3-19.8,15.5-30.9,16.1-56.7,18-127.6,63.3-171.4,18.4-17.8,40.1-22,64.7-21.9,63.4-54.1,117.9-82.8,195.6-111.6,5.6,11.7,10.5,23.8,16.7,35.1,6.3-2.4,11.9-4,18.5-5l.7-1.7c23-11.1,77.7-21.4,104.2-27.4Z"/>
  <path class="st6" d="M3581.9,1160.7c11.4-.7,22.8,1.2,32.9,6.7,9.1,5.1,22.1,15.4,23.8,26.5.8,5-1.3,6.5-4.3,10-6.7,2.6-12.3,2.5-19.5,2.3-.6,0-1.1,0-1.7-.1-16.1-1.4-50.7-8.8-59.6-22.9-2.9-4.5-2.1-5.5-.7-10.3,7.5-7.6,18.9-10.1,29-12.2Z"/>
  <path class="st9" d="M2846.6,3536.6c11.5,4.7,22.5,9.1,33,15.9-40.7,14.2-80.3,29.8-116.1,54.3-13.6,4.5-32.8-.3-46.9-2.3,20.6-14,41.5-27,64.2-37.3,22-10,46.3-16,65.8-30.6Z"/>
  <path class="st6" d="M2390,1154.9c10-.7,22.9-.5,32.3,2.9,4.3,1.5,5.7,3.4,7.2,7.4-.5,3-1.1,5.6-2.7,8.2-12.1,20-36.8,29.4-58.2,34.7-10.7,1.6-28.8,4.9-38.2-2.6-2.5-1.9-3.8-3.4-4.1-6.5-.6-5.3,1.5-9.5,4.5-13.6,13.6-19.1,37-27.1,59.2-30.5Z"/>
  <path class="st0" d="M3148.8,1109.7c8.6-.8,15.4-.6,23.6,2.6,7.8,3,14.1,6.5,17.1,14.8,2.8,7.6.5,17.2-2.7,24.3-9.8,21.7-30.9,30.7-51.8,38.6-8.7,1.9-18.6,4-27.6,4.2-5.4.1-6.9-.6-10.7-4.3-1-3.9-1.2-6.8-.2-10.6,6.9-26.4,28.8-56.5,52.3-69.7Z"/>
  <path class="st0" d="M2824.3,1107.5c6.7,0,13.5,1.2,19.5,4.2,20.8,10.2,38,38,45.5,59.5,2.7,7.6,3.4,13.7,0,21.2-6.4,3.1-13.6,2-20.5,1.6-5.6-1-11.1-2.4-16.5-4-19.5-5.5-41.2-18.1-50.8-36.8-3.9-7.5-5.2-15.3-2.1-23.4,4.1-10.5,15-17.9,24.8-22.5Z"/>
  <path class="st6" d="M2197.2,2933.2c-5.6-16.5-2.2-64.9-1.5-83.6,3.4-89.1,21.9-179.2,65-257.9,7.8-14.2,17.5-32,29.3-43l1.5,1.2c-9,17-19.4,32.4-27,50.4-30.2,71.3-37.5,158.2-38.1,234.8-.2,26,3.6,52.8,1.6,78.7-10.2,6.5-20.3,13.5-30.8,19.4Z"/>
  <path class="st1" d="M2610.1,3643.8l2.9.4c61.8,8.4,109.7.8,173.8,19.3,21.4,6.2,42,14.7,62.3,23.9,7.8,3.5,15.5,8.5,23.5,11.4,7,8.7,11.3,21.6,15.5,31.8-74.6-32.8-147.3-41.8-228.2-39.1-11.6-.8-16-8.3-23.2-16.6-8.9-10.3-17.2-21.3-26.6-31.1Z"/>
  <path class="st1" d="M1944.3,3655c96.2,4.4,160.1,15.4,249.9,49.9,4.9,11.3,8.7,22.4,12.2,34.3-62.2-23-141.3-31.1-207.1-27.8-5.7-3.1-41.8-45.3-55-56.3Z"/>
  <path class="st1" d="M1594,3058.8c93.4-8.2,209.5,35.4,289,84.7l-.4,1.1c-23.5,15.1-45.3,34-66.9,51.7-38.2-57.6-91-94.9-156-117.4-21.6-7.5-44-12.7-65.7-20.1Z"/>
  <path class="st6" d="M2570.2,1605.8c43.4,34,83.7,71.8,126.8,106.2,40.4,32.2,85.9,61.4,123.4,96.8-90.6-21-168.8-57.6-246.4-108.4-4.6-30.3-2.9-63.8-3.8-94.5Z"/>
  <path class="st6" d="M2409.9,1200.5c17.4,6.1,50.7,35.4,69.4,46.8,27.4,16.9,55.5,32.5,84.3,46.9,28.8,14.4,58.1,27.6,88.1,39.4,244,94.6,487.1,92.3,727.3-13.7,38.2-16.9,76.3-35.8,112.2-57,17.4-10.3,33.3-24.3,51.8-32.5-2.5,9-31.9,29.7-40.2,36.7-26.9,22.5-56.1,42.5-85.2,62-121.2,81.6-269.4,158.5-419.2,159.2-69.8.3-137.1-17.8-202.1-41.7-9-3.3-18-6.7-27-10.3-8.9-3.6-17.8-7.2-26.7-11-8.8-3.8-17.6-7.7-26.4-11.7-8.7-4-17.4-8.2-26-12.4-8.6-4.3-17.2-8.6-25.7-13.1-8.5-4.5-17-9.1-25.3-13.8-8.4-4.7-16.7-9.6-25-14.5-8.3-5-16.4-10-24.6-15.2-8.1-5.2-16.2-10.4-24.1-15.8-8-5.4-15.9-10.9-23.7-16.5-7.8-5.6-15.6-11.3-23.2-17.1-7.7-5.8-15.3-11.7-22.8-17.7-7.5-6-14.9-12.1-22.3-18.3-7.3-6.2-14.6-12.5-21.8-18.9-7.2-6.4-14.3-12.9-21.3-19.5-7-6.6-13.9-13.3-20.7-20.1Z"/>
  <path class="st1" d="M227.2,3029.4c5.7,2.1,7.3,2.5,11,7.5,13.6,18.1,24.6,39.4,36.9,58.5,21.5,32.9,45.3,63.9,71.6,93.1,234.7,259.7,564.3,341.2,903.3,340.9,58.9,0,117.7-2.6,176.4-7.7,26.2-2.1,53.5-3.6,79.3-8.3-12.2-26.5-24.9-52.7-34-80.5-1.8-5.8-3.6-11.7-5.2-17.6-1.6-5.9-3.1-11.8-4.4-17.8-1.4-6-2.6-12-3.7-18-1.1-6-2.1-12.1-2.9-18.1-.9-6.1-1.6-12.1-2.2-18.2-.6-6.1-1.1-12.2-1.4-18.3-.3-6.1-.6-12.2-.7-18.4,0-6.1,0-12.2.1-18.4.2-6.1.5-12.2.9-18.3.4-6.1,1-12.2,1.6-18.3.7-6.1,1.5-12.2,2.4-18.2.9-6.1,2-12.1,3.1-18.1,1.2-6,2.5-12,3.9-17.9,1.4-6,3-11.9,4.6-17.8,1.7-5.9,3.5-11.7,5.4-17.6,1.9-5.8,3.9-11.6,6.1-17.3,1-2.7,2.1-5.3,3.2-7.9,25.8,135.8,87.9,250.6,173.9,357.8,24.9,31,56.4,59.4,78.3,92.3-367.8,88.9-765,70-1103-110.9-175.4-93.8-345.3-251.5-404.4-446.3Z"/>
  <path class="st14" d="M2228,2913.8c3.6,128,29.3,260.8,69.8,382.2,12.4,37.2,28.8,72.9,41.6,109.8-95,45-218,75.5-320.3,103.2-30.2,8.2-82.7,16.4-107.8,29.1,2.4-19.6-.5-41-2.6-60.6-1.4-12.3-3.1-24.7-5.2-36.9-2-12.3-4.4-24.5-7.1-36.6-2.7-12.1-5.7-24.2-8.9-36.2-3.3-12-6.9-23.9-10.8-35.7-3.9-11.8-8.1-23.5-12.6-35.1-4.5-11.6-9.3-23-14.4-34.4-5.1-11.3-10.5-22.5-16.1-33.6-5.7-11.1-11.6-22-17.9-32.7,21.6-17.7,43.4-36.7,66.9-51.7l.4-1.1c25-13.8,47.3-35.1,71.4-50.8l241.6-158.2,1.2-1.3c10.5-5.9,20.6-12.9,30.8-19.4Z"/>
  <path class="st10" d="M2196,2934.5c3.4,33.3,2.8,67,5.3,100.4,6.7,89.4,23.2,173.4,53,257.9-77.8-19.3-156.5-40.8-230.2-73-31.7-13.8-62.5-30.8-93.1-46.9-13.3-7-39.3-17.5-48.5-28.2l.4-1.1c25-13.8,47.3-35.1,71.4-50.8l241.6-158.2Z"/>
  <path class="st9" d="M2796.6,505.1c82.4-20.7,169.8-22.2,254.1-15.3,51.7,7.2,109.6,8.6,159,26.4,16.1,4.5,48,9.5,61.5,17.1l.8,2.6c19.6,1.6,36.5,10.3,53.5,19.6,36.5,21.7,70.7,46.9,98.7,79,7.5-1.8,15-5.7,22.4-8.1,22.9-7.3,45-12.2,68.9-14.8l3.4,1.2c11.2,3.9,22.8,5.5,33.8,10.2,28.1,12.1,51,43.1,64.1,69.7,15.9,32.2,30.5,79.7,29.8,115.7-3.6,58.5,32.8,135.6,21.9,183.1-5,21.9-19.5,40-36,54.6-21.8,19.4-54.1,37.9-83.1,42.7-11.9,3.1-23.9,5.4-36.1,6.9-12.2,1.5-24.4,2.3-36.7,2.3-61.5.6-135.4-18.7-180.3-63.1-30.3-17.8-57.1-43.5-91.2-54.3-108.1-34-254.9-32.9-366.6-15.5-20.8,3.2-44.9,6.1-64.5,13.7-20.5,7.9-40.2,21.4-58.2,34-6.5,4.6-13.1,10.9-20.1,14.4-.7.4-1.5.7-2.3,1.1-40.7,34.2-109.6,70.4-164.8,64.3-1.8-.2-3.9-.7-5.6-1.1-13.4.9-26.6-.4-40-1.4-3.1.3-6.1.5-9.2.4-50.8-1.6-114.2-40.2-147.9-76.6-39.6-42.9-35.2-85.6-18.3-136.8,3.3-9.8,9.8-23.7,9.9-33.9,0-1.1,0-2.2,0-3.3,4.2-10.5,12.3-19.8,15.5-30.9,16.1-56.7,18-127.6,63.3-171.4,18.4-17.8,40.1-22,64.7-21.9,63.4-54.1,117.9-82.8,195.6-111.6,5.6,11.7,10.5,23.8,16.7,35.1,6.3-2.4,11.9-4,18.5-5l.7-1.7c23-11.1,77.7-21.4,104.2-27.4Z"/>
  <path class="st1" d="M3280.8,906.8c4.9-.7,6.6-2.1,9.2-6.2,8-12.8,12.8-29.2,18.6-43.2,9.8-23.6,26-46.5,42.9-65.6,31.1-35.2,74.4-59.7,121.9-62.1,50.4-2.6,86.4,19.5,120.5,54.5,8.4,8.6,17.8,21.5,27.5,27.9,4.2,2.8,6.1,1.8,10.5.5.7,1.3.6,3.5.7,5-10.8-.2-18.2-5.5-25.5-13.3-41.3-44.3-60.6-66.3-123.8-71-42.5-3.2-78.2,18.1-111.1,41.9,15-3.4,40.6-18.1,58.1-24.1,35.6-12.1,88.3-1.8,121,15.3,27.7,14.4,58.6,40.8,69.5,70.9,1,2.7,1.1,5.4,1.3,8.2-27.8-44.5-57.6-78.5-111-91-43.1-10.1-92.1-2.1-129.5,21.7-41.5,26.3-73.8,80.2-84.1,127.5-8.4,38.6.4,77.8,22,110.6,26.7,40.4,66.2,65.7,113.5,75.2,27.9,5.6,53.8,3.1,81.3-3.6,7.5-1.8,17.2-6.4,24.6-6.8l-1.6,3.2c-11.9,5.1-24.2,8.3-36.9,10.7,16.3,4.5,33.3-7.5,49.1-4.1-11.9,3.1-23.9,5.4-36.1,6.9-12.2,1.5-24.4,2.3-36.7,2.3-61.5.6-135.4-18.7-180.3-63.1-5-9.2-10.2-18.5-13.6-28.4-9.1-26.7-14.8-73.8-1.9-99.8Z"/>
  <path class="st0" d="M3280.8,906.8c6.4-24,9.8-47.6,19.2-70.9,21-52.3,59.7-97.5,112.2-119.6,40.9-17.2,88.3-20.9,129.8-3.3,43.2,18.3,72.6,57.4,90,99.8-4.4,1.3-6.2,2.3-10.5-.5-9.7-6.5-19.2-19.3-27.5-27.9-34.2-35.1-70.1-57.1-120.5-54.5-47.5,2.4-90.8,26.9-121.9,62.1-16.8,19.1-33.1,42-42.9,65.6-5.8,13.9-10.6,30.4-18.6,43.2-2.6,4.1-4.3,5.5-9.2,6.2Z"/>
  <path class="st13" d="M3538.8,1079.1c-7.4.4-17.1,5-24.6,6.8-27.5,6.7-53.4,9.2-81.3,3.6-47.2-9.5-86.8-34.8-113.5-75.2-21.6-32.8-30.4-72-22-110.6,10.3-47.4,42.7-101.2,84.1-127.5,37.4-23.8,86.4-31.8,129.5-21.7,53.3,12.6,83.2,46.5,111,91,19.3,48.4,26.8,91.7,5.5,141.2-18.8,43.8-49.6,67.9-88.7,92.4Z"/>
  <path class="st8" d="M3540.1,871.7h.5c2.4,2.4,2.6,2,3.8,4.4,12.1,24.3,11.9,61.9,2.6,86.7-8.7,23.2-25.9,44.1-49.2,53.8-20.7,8.6-45.6,8.1-66-1.1-22.7-10.2-38.3-30.7-46-53.9-9.3-27.9-7.4-60.3,6.1-86.5,11.8-22.9,31.5-40.1,56.2-47.5,12.2-3.7,32.3-7.1,44.1-1.1l-1.8,1.9c15,1.9,29.3,4.4,39.2,17.2,5.9,7.7,8.4,16.8,10.5,26.2Z"/>
  <path class="st5" d="M3490.4,828.4c15,1.9,29.3,4.4,39.2,17.2,5.9,7.7,8.4,16.8,10.5,26.2-.8,3.1-1.6,6.2-2.6,9.3-3.5,11.1-11.7,22.6-22.6,27.5-9.8,4.4-21.2,3.9-31-.2-1.5-.6-3-1.4-4.4-2.1-1.4-.8-2.8-1.7-4.2-2.6-1.4-.9-2.7-1.9-3.9-3-1.3-1.1-2.4-2.2-3.6-3.4-1.1-1.2-2.2-2.4-3.2-3.8-1-1.3-1.9-2.7-2.8-4.1-.9-1.4-1.7-2.8-2.4-4.3-.7-1.5-1.4-3-1.9-4.6-3.4-9.6-3.6-20.7,1.3-29.9,6.6-12.4,18.7-18.5,31.6-22.2Z"/>
  <path class="st13" d="M2358.8,809.3c-1.4-26.1,21-57.9,38.3-76.9,18.2-20.1,40.6-36.1,68.6-37.4,51.7-2.4,106.1,30,142.5,64.2,63.9,60,93.7,122.3,96,210,.3,16,.5,32.1.4,48.1-3.6,3-9.8,6.7-11.4,11-40.7,34.2-109.6,70.4-164.8,64.3-1.8-.2-3.9-.7-5.6-1.1-13.4.9-26.6-.4-40-1.4-9-2.5-18.1-4.9-26.8-8-44-15.7-77.5-50-96.7-92.2-22.7-49.9-17.6-97.2,1-147.3-2.3-2-4.4-4.2-6.6-6.3-1-8.4,4.4-16.4,4.9-25.2,0-.6,0-1.2,0-1.8Z"/>
  <path class="st6" d="M2358.8,809.3c-1.4-26.1,21-57.9,38.3-76.9,18.2-20.1,40.6-36.1,68.6-37.4,51.7-2.4,106.1,30,142.5,64.2,63.9,60,93.7,122.3,96,210,.3,16,.5,32.1.4,48.1-3.6,3-9.8,6.7-11.4,11-40.7,34.2-109.6,70.4-164.8,64.3-1.8-.2-3.9-.7-5.6-1.1,30.3-4.8,57.6-13,82-32.3,2.1-1.6,4.1-3.3,6.1-5,2-1.7,3.9-3.5,5.8-5.3,1.9-1.8,3.7-3.6,5.5-5.5,1.8-1.9,3.6-3.8,5.3-5.8,1.7-2,3.4-4,5-6.1,1.6-2.1,3.2-4.2,4.7-6.3,1.5-2.1,2.9-4.3,4.3-6.5,1.4-2.2,2.7-4.5,4-6.7,1.3-2.3,2.5-4.6,3.7-6.9,1.2-2.3,2.3-4.7,3.3-7.1,1-2.4,2-4.8,3-7.3.9-2.4,1.8-4.9,2.6-7.4.8-2.5,1.5-5,2.2-7.5.7-2.5,1.3-5.1,1.8-7.6.6-2.6,1-5.1,1.5-7.7.4-2.6.8-5.2,1.1-7.8,6.8-59.4-13.5-107-49.9-152.4-34.3-32.2-74.5-52.3-122.4-51.2-38.9.9-73.4,16.9-99.9,45.2-6.6,7.1-12.6,14.8-18,22.8-5.4,8.1-10.1,16.6-14.1,25.4-2.3-2-4.4-4.2-6.6-6.3-1-8.4,4.4-16.4,4.9-25.2,0-.6,0-1.2,0-1.8Z"/>
  <path class="st1" d="M2358.8,809.3c1.7,4.3.9,5.3,5.3,7.4,6.6-5,9.9-16.7,14.4-23.8,13.6-21.5,39.6-43.7,62.4-54.9,36.7-17.9,73.4-7.3,109.3,6.2,15.6,5.8,60.9,38.2,67.7,52.8l-3.1,3.4c-34.3-32.2-74.5-52.3-122.4-51.2-38.9.9-73.4,16.9-99.9,45.2-6.6,7.1-12.6,14.8-18,22.8-5.4,8.1-10.1,16.6-14.1,25.4-2.3-2-4.4-4.2-6.6-6.3-1-8.4,4.4-16.4,4.9-25.2,0-.6,0-1.2,0-1.8Z"/>
  <path class="st8" d="M2478.9,817.4l1.6-2.2c28.3,1.3,50.6,11.3,69.8,32.6,20.7,22.9,33,55.9,31.5,86.8-1.3,26.7-13.8,53.4-33.9,71.2-1,.8-1.9,1.7-2.9,2.4-1,.8-2,1.5-3,2.3-1,.7-2.1,1.4-3.2,2.1-1.1.7-2.2,1.3-3.3,2-1.1.6-2.2,1.2-3.4,1.8-1.1.6-2.3,1.1-3.4,1.6-1.2.5-2.3,1-3.5,1.4-1.2.4-2.4.9-3.6,1.2-1.2.4-2.4.7-3.7,1.1-1.2.3-2.5.6-3.7.9-1.2.3-2.5.5-3.7.7-1.3.2-2.5.3-3.8.5-1.3.1-2.5.2-3.8.3-1.3,0-2.5,0-3.8,0-1.3,0-2.5,0-3.8-.1-1.3,0-2.5-.2-3.8-.3-23.3-2.4-43.9-15.5-58-33.9-14.8-19.5-23-46.1-19-70.5,1.7-10.2,4.7-22.2,11.4-30.3-3.6-8.5-7.7-17.6-7.4-27,.4-11.7,5-22.9,13.7-30.8,12.8-11.7,29.9-14.5,46.7-13.6Z"/>
  <path class="st5" d="M2425.9,888.9c-3.6-8.5-7.7-17.6-7.4-27,.4-11.7,5-22.9,13.7-30.8,12.8-11.7,29.9-14.5,46.7-13.6,13.9,5.7,24.8,13.2,30.4,27.7,4.8,12.4,3.6,26.9-2.3,38.7-6,12-16.4,21.3-29.3,25.2-11.8,3.5-24,1.7-34.6-4.3-7-4-12-9.7-17.1-15.8Z"/>
  <path class="st14" d="M2796.6,505.1c82.4-20.7,169.8-22.2,254.1-15.3,51.7,7.2,109.6,8.6,159,26.4,16.1,4.5,48,9.5,61.5,17.1l.8,2.6c19.6,1.6,36.5,10.3,53.5,19.6,36.5,21.7,70.7,46.9,98.7,79-14.1,7.5-27.9,15.3-40.9,24.5-101.9,71.6-154.8,199.4-175.8,318.1-40.1-24-82.6-42-128.2-52.3-104.1-23.4-214.7-8.5-305.5,48.7-2.9-15.9-6.4-31.7-10.5-47.3-26.3-96.3-81.2-188.3-160.8-249.7-20-15.5-41.6-28-63.4-40.6,44-46.6,75.3-70.6,134.4-96.5,6.3-2.4,11.9-4,18.5-5l.7-1.7c23-11.1,77.7-21.4,104.2-27.4Z"/>
  <path class="st11" d="M2796.6,505.1c82.4-20.7,169.8-22.2,254.1-15.3,51.7,7.2,109.6,8.6,159,26.4,16.1,4.5,48,9.5,61.5,17.1l.8,2.6c-75.8,24.3-113.7,144.3-191,177.3-28.6,12.2-59.9,12-90.4,12-24,0-48.3-.3-71.5-7.2-91.3-26.8-132.8-145.1-227.3-183.8l.7-1.7c23-11.1,77.7-21.4,104.2-27.4Z"/>
  <path class="st10" d="M2595.3,2572.5c26.9-117.6,78.4-232.2,142.2-334.3,75.5-120.8,209.1-275.8,353.4-308.2,80.6-18.1,165.2.4,235.1,42.6,23.3,14,44.2,31.2,67.1,45.8l2.6-2.3c5.7,26,8,52.9,10.7,79.3,1.8,18.6,3.2,37.3,4.1,56,.9,18.7,1.4,37.4,1.4,56.1,0,18.7-.4,37.4-1.4,56.1-.9,18.7-2.3,37.4-4.1,56-1.8,18.6-4.1,37.2-6.8,55.7-2.7,18.5-5.9,36.9-9.5,55.3-3.6,18.4-7.7,36.6-12.2,54.8-4.5,18.2-9.5,36.2-14.9,54.1-11.7,38.8-32.1,74.7-43.4,113.2-71,131.7-151,218.5-258.4,321.7-38.2,36.6-75.8,73.3-117.1,106.4-20.3,15.8-40.8,31.3-61.5,46.6-81.5-6.8-150.9-30.2-220.4-73.4-18.9-11.8-38.5-24.3-55.1-39.1,13.9-27.6,27.3-90.3,33.2-122.2,15.1-81.9,19.1-184-12.1-262.2-8.4-21-20.1-39.3-32.9-57.8Z"/>
</svg>