<?xml version="1.0" encoding="UTF-8"?>
<svg id="_x2014_ÎÓÈ_x5F_1" xmlns="http://www.w3.org/2000/svg" version="1.1" viewBox="0 0 4000 4000">
  <!-- Generator: Adobe Illustrator 29.2.1, SVG Export Plug-In . SVG Version: 2.1.0 Build 116)  -->
  <defs>
    <style>
      .st0 {
        display: none;
      }

      .st0, .st1 {
        fill: #fefefe;
      }

      .st2 {
        fill: #44190e;
      }

      .st3 {
        fill: #fd7703;
      }

      .st4 {
        fill: #233c42;
      }

      .st5 {
        fill: #febf04;
      }

      .st6 {
        fill: #fc5f00;
      }

      .st7 {
        fill: #241e1d;
      }
    </style>
  </defs>
  <path class="st0" d="M0,0h4000v4000H0V0Z"/>
  <path d="M1383.5,2753.8c5.4,8.5,6.4,10.5,16.6,12.7,27.3,6,78,3.7,100.4,15.7-63,38.8-116.3,115.3-155.6,176.4-6.2-72.9,11.8-137.9,38.6-204.8Z"/>
  <path class="st6" d="M2344,3392.4l4.2.7c55.4,33.3,134.3,34.2,166.9,99.3-198.1,9-376.2,48.6-555.6,134.3-54.2,25.9-106,55-158.6,83.7,0-2.2,0-3.6.8-5.8,5.4-15.3,42.9-42.2,56-52.6,23.6-18.9,47.8-37.1,72.7-54.4,24.8-17.4,50.2-33.9,76.1-49.6,25.9-15.7,52.3-30.5,79.1-44.5,26.9-14,54.2-27.1,81.9-39.3,58.1-25.7,118.2-46.8,176.6-71.8Z"/>
  <path class="st3" d="M1753.6,3739.7c1.3-3.5,2.8-6.9,4.3-10.2,89.1-195.2,354-383.3,550.3-457.8-7.2,29.6-11.6,63.3,4.9,90.9,7.7,12.9,18.6,21.6,30.9,29.9-58.4,25-118.5,46.1-176.6,71.8-27.7,12.2-55,25.3-81.9,39.3-26.9,14-53.2,28.8-79.1,44.5-25.9,15.7-51.2,32.2-76.1,49.6-24.8,17.4-49,35.5-72.7,54.4-13.1,10.4-50.6,37.3-56,52.6-.8,2.2-.7,3.6-.8,5.8-13.1,11.2-32.4,20.2-47.3,29.3Z"/>
  <path d="M2215,2723.8c3.5-1.3,3.7-1.2,7.3-.2,14.5,4.1,29.6,3.4,44.5,2.3,87.1-6.6,219.4-31.4,270.3-111.9,9.5-15,20-58.4,25.1-63.8.8-.8,1.6-1.5,2.4-2.3,14,62.3,20.4,124.6-4.6,185.1,56.7,54.5,92.9,82.9,113,163.4-65.5-35.7-133.7-61.9-209.5-60.1-51.3,50.3-72.6,128.9-77,198.6-46.4-69.4-68.4-126.5-56.9-211.2-98.1,9.5-167.3,16.1-238.3,93.7,12-70.6,38.5-135.4,98.7-178.6,8-5.6,16.3-10.7,25-15.2Z"/>
  <path class="st7" d="M2449.8,2025.2c29.5-15.9,69.3-17.8,101.2-8.3,34.4,10.3,61.6,36.3,78.2,67.7,25.3,47.8,29.8,134.7,14.5,185.3-1.1,3.8-.9,3-2,5.8-4.4,2.9-33.2,60.1-36.8,69.2.6,4.8-.4,3,2.4,5.7-18.2,39.1-50.8,69.3-74.8,104.6,11.4,30.7,25.2,60.7,32,92.8-.8.8-1.6,1.5-2.4,2.3-5.2,5.3-15.6,48.8-25.1,63.8-50.9,80.4-183.2,105.2-270.3,111.9-14.9,1.1-30,1.8-44.5-2.3-3.6-1-3.8-1.2-7.3.2-65.5-31-127.6-30.7-195.8-10,35.8-70.2,111.3-90,184.9-89.4,51.7.4,99.4,9.9,149-10.8-39.3-33.3-82.1-69.3-107.6-114.8-7.8-13.9-15.6-42.8-24.5-52.9l3.4-.8c2.9-4.8,1.2-12.6.9-18.1-1.3-26.6-.3-53.8,6.2-79.8,17.3-68.4,104-212.5,152.5-264.2,10.7-11.5,22.5-23.4,35.1-32.9,10.1-7.6,24.2-13.6,32.6-22.9l-1.8-1.9Z"/>
  <path class="st5" d="M1945.6,971.9c26.9,103,26.7,217.7-23.6,314.2,48.4-52.4,96-113.1,132.1-174.7,16.5,85.4,16.4,172-33.9,247-14.7,22-33.1,39.9-54.1,55.8,33.4-11,67.7-19.4,100.7-31.5,42.1-15.5,80.1-37,118-60.7-12.7,68.1-18,89.9-72.7,133.8,109.4-6.5,242.3-27.6,319-113,2.7-3,5.4-6.2,7.9-9.4.8,77.3-15.7,126.8-70.4,183-9.3,9.6-19.4,18.5-29.6,27.1,120.9-35.1,228.8-99.2,290.9-212.8,13.5-24.8,21.7-49.9,30.6-76.5,5.3,90.1,5.6,185.3-37.1,267.6-13,25.2-29.8,47.9-46.6,70.6,76.3-22,150.8-64.5,200.7-127.2-4.3,90.3-24.4,131.8-77.9,203.9,45.8-7.3,115.2-23,151.7-50.8-9.1,39-23.4,79.3-59.2,101.6-6.9,4.3-14.6,7.3-22.2,10.4,54.4,6.5,112.7,8.1,166.7-2.1-27.6,24.2-59.4,49.5-95.3,59.4,30.8,6.1,62.3,10.1,93.4,14.7-26.8,30.3-55.4,51-94.8,61.2,32.7,11.3,65.5,20.6,99.1,28.8-15.3,3.4-39.9,5.4-53.1,12.8-32.3-9.2-64.7-18-96.6-28.5-26.1-8.6-51.9-19-78.2-26.5l-25.8-10.2-14.9-19.1c-19.3-32.1-57.3-60.6-87.4-81.8-148.1-104.6-326-146.9-500.2-185.6-63.8-14.2-127.4-27.1-190.2-45.7-17.6-5.2-35-10.9-52.2-17.1-17.2-6.2-34.3-12.9-51.2-20-16.9-7.1-33.5-14.7-50-22.8-16.4-8.1-32.7-16.6-48.6-25.5,8-7.9,19.9-14.3,29.2-20.8,17.5-12.4,34.4-25.7,49.7-40.7,5.1-5.1,10.1-10.2,15-15.5,4.9-5.2,9.7-10.6,14.4-16,4.7-5.4,9.3-10.9,13.8-16.5,4.5-5.6,8.9-11.3,13.2-17,4.3-5.7,8.5-11.6,12.6-17.5,4.1-5.9,8.1-11.9,11.9-17.9,3.9-6,7.6-12.2,11.3-18.3,3.6-6.2,7.2-12.4,10.6-18.7,3.4-6.3,6.7-12.7,9.9-19.1,3.2-6.4,6.2-12.9,9.2-19.5,2.9-6.5,5.8-13.1,8.5-19.8,2.7-6.6,5.3-13.3,7.8-20.1,2.5-6.7,4.8-13.5,7-20.3,2.2-6.8,4.3-13.7,6.3-20.6,2-6.9,3.8-13.8,5.5-20.8,1.7-7,3.3-14,4.8-21,6.4-29.8,7.7-60.6,14.1-90.4Z"/>
  <path d="M894.7,1857.5c-17.5-43.9-42.5-111.2-23.7-157.5,11.4-28,34.7-46.3,62.2-57,56.1-21.9,124-6.6,177.1,16.9,102.1,45.2,185.5,148,224.7,250.8,30.4,79.9,39.1,168.7,2.7,248.1-3.2,7-6.9,13.9-10.5,20.7,67.9,35.4,111.3,45.9,186,57.5-30.9-58.6-58.8-118.8-89.7-177.5,52,49.1,122.3,148.8,148.9,214.7,7.1,17.7,12,38.7,12.6,57.8.6,17.1-.5,35.8-5,52.3l-2.2,1.5-2-1.8c-27.3-16.3-60.9-24.6-89.6-39.1-72.3-36.6-140.6-77.6-208.8-121.2-37.2-16.1-169-124.4-199.7-156.8-40.4,119.9-121.4,196.2-194.1,294.3-10.1,13.6-22.3,29.4-26.6,46-13.7,52.7,11.6,171.2,20,226.9-28.1-41.4-66.2-98.9-116-115.3-17.1-5.6-34.3-2.1-50,5.7-58.9,29.1-101.4,103.4-121.7,163-21-79.8-9.7-140.3,16.9-216.4-1.4-.4-2.8-.9-4.3-1.2-77.3-20.5-162.8,4.5-230.1,43.3,8.6-15.8,18.1-30.4,29.3-44.5,52.5-66.1,116.6-98.8,199.4-108.6-25.7-41.1-70.3-78-112-101.9,87.8,1.2,136.7,15.2,216.6,50.3,16.1-24.4,33.1-48.8,47.6-74.2,56.4-99.1,79.7-205.2,84.7-318.2,1.6-35.9-.5-72,1.6-107.9l.7-3.2c.9-4.3,1.2-8.6,1.6-13l2.7-.7c19.6,16.4,33.5,46.4,50.9,66.1Z"/>
  <path class="st6" d="M1077.6,2066.9c-.5-.8-1-1.6-1.6-2.3-12-17.4-46.4-45.3-62.9-62.4-64-66.2-158.2-183.9-141-282.3,4.4-25.3,18-46.5,39.4-60.8,38.6-25.8,90.7-24.6,134.3-15.1,104.3,22.7,185.4,96.7,241.3,184.8,49.6,78.3,82.5,179.9,61.5,272.8-9.2,40.7-34.6,99-71.3,122.2-37.2-16.1-169-124.4-199.7-156.8Z"/>
  <path class="st7" d="M2711.4,1850.4c26.4,7.5,52.1,17.9,78.2,26.5,31.9,10.4,64.4,19.3,96.6,28.5,77.3,27.5,155.9,49,232.2,79.9,23.6,9.6,47,19.9,70.1,30.7,23.1,10.8,45.9,22.2,68.5,34.1,22.5,11.9,44.8,24.4,66.7,37.5,21.9,13,43.5,26.6,64.8,40.8,34.6,22.7,69.3,45.2,102.1,70.6,6.8,5.3,13.6,10.6,20.3,16.1,6.7,5.5,13.3,11,19.8,16.7,6.5,5.7,13,11.4,19.3,17.2,6.4,5.8,12.6,11.8,18.8,17.8,6.2,6,12.3,12.1,18.3,18.3,6,6.2,11.9,12.5,17.7,18.9,5.8,6.4,11.5,12.8,17.1,19.4,5.6,6.5,11.1,13.2,16.6,19.9,5.4,6.7,10.8,13.5,16,20.4,5.2,6.9,10.4,13.8,15.4,20.8,5,7,9.9,14.1,14.8,21.3,4.8,7.2,9.5,14.4,14.1,21.7,4.6,7.3,9.1,14.7,13.5,22.1,4.4,7.4,8.7,14.9,12.8,22.5,4.2,7.6,8.2,15.2,12.2,22.8,3.9,7.7,7.8,15.4,11.5,23.2,77.1,162.3,101.1,358.7,39.8,529.9-59.5,166.1-194,284.2-350.5,357.6-191.7,89.8-394.7,108.3-603.6,100.1-39.6-1.5-101.5-1.9-138.6-8.8-4.4-11-7.8-23.2-9.3-35-3.8-32.1,6.5-57.4,25.5-82.3,2.7-3,5.5-5.9,8.4-8.8,61.9-59.2,146.6-11.4,219.2-11.4,65.2,0,93.6-38.7,149.1-54.8,31.4-9.1,65.2-8.9,97.6-11.7,8.6-.8,17.2-1.9,25.7-3.2,8.5-1.4,17-3.1,25.4-5.1,8.4-2,16.7-4.3,25-6.9,8.2-2.6,16.4-5.5,24.4-8.6,58-22.7,81.9-66.5,131.4-93.1,63.5-34.2,110.4-7.8,172.2-70.4,4.6-4.6,9.1-9.5,13.2-14.6,4.2-5.1,8.1-10.3,11.8-15.8,3.7-5.4,7.1-11.1,10.2-16.8,3.1-5.8,6-11.7,8.5-17.7,15-35.9,15.4-74.2,25.7-111.2,17.3-62,54.6-114.6,53.9-181.4-.6-55.6-25-90.3-61.8-129.2-13-13.7-25.7-26.8-35.6-43-35.9-58.6-27.1-128.9-63.6-186.5-32.1-50.7-89.9-88.1-144.9-109.5-30.5-11.8-61.8-21.3-89.7-38.8-33.6-21.1-55.7-51.5-83.9-78.5-75.7-72.5-147.2-54.1-239.2-71.2-46-8.5-91.2-26.2-133.5-46.1-23.9-11.2-48.2-24.1-69.9-39.3-16.1-11.3-31-24.4-47.8-34.6-4.9-3-7.2-5-13-4.8-.3-37.3-29.8-79.9-38.9-114.9l3.5-1.8c4.5,1.2,7.6,1.9,12.3,1.3,1.2-.2,2.5-.4,3.7-.6Z"/>
  <path class="st5" d="M2730.8,1966.4c5.9-.2,8.2,1.8,13,4.8,16.8,10.2,31.7,23.4,47.8,34.6,21.7,15.2,45.9,28,69.9,39.3,42.3,19.9,87.4,37.6,133.5,46.1,92,17.1,163.5-1.3,239.2,71.2,28.2,27,50.3,57.4,83.9,78.5,27.9,17.5,59.2,27,89.7,38.8,55,21.3,112.8,58.8,144.9,109.5,36.5,57.5,27.6,127.9,63.6,186.5,9.9,16.2,22.6,29.3,35.6,43,36.8,38.9,61.2,73.6,61.8,129.2.7,66.8-36.6,119.4-53.9,181.4-10.3,36.9-10.7,75.3-25.7,111.2-2.6,6-5.4,12-8.5,17.7-3.1,5.8-6.5,11.4-10.2,16.8-3.7,5.4-7.6,10.7-11.8,15.8-4.2,5.1-8.6,9.9-13.2,14.6-61.7,62.6-108.7,36.2-172.2,70.4-49.5,26.7-73.4,70.4-131.4,93.1-8,3.2-16.2,6-24.4,8.6-8.3,2.6-16.6,4.9-25,6.9-8.4,2-16.9,3.7-25.4,5.1-8.5,1.4-17.1,2.5-25.7,3.2-32.4,2.8-66.2,2.6-97.6,11.7-55.6,16.1-83.9,54.8-149.1,54.8-72.6,0-157.3-47.8-219.2,11.4-2.9,2.8-5.7,5.7-8.4,8.8-18.9,24.9-29.3,50.2-25.5,82.3,1.4,11.8,4.8,23.9,9.3,35-60.1-4.5-120.3-5.9-180.6-4.2-32.6-65.1-111.5-66-166.9-99.3l-4.2-.7c-12.3-8.3-23.1-16.9-30.9-29.9-16.5-27.5-12.1-61.3-4.9-90.9,18.2-8.1,39.3-13.2,58.4-18.9,68-20.3,134.5-33.5,204.6-44.1,134.2-16.9,258.2-20.4,391.5-53.8,31.4-10.2,63.8-17.2,95.2-27.7,119.8-39.9,252.2-111.5,310-228.9,2.1-4.3,4.1-8.7,5.9-13.1,1.9-4.4,3.6-8.9,5.3-13.4,1.7-4.5,3.2-9,4.6-13.6,1.4-4.6,2.8-9.2,4-13.8,1.2-4.6,2.3-9.3,3.3-14,1-4.7,1.9-9.4,2.6-14.1.8-4.7,1.4-9.5,1.9-14.2.5-4.8.9-9.5,1.2-14.3.3-4.8.5-9.6.5-14.4,0-4.8,0-9.6-.2-14.4-.2-4.8-.5-9.6-.9-14.3-.4-4.8-.9-9.5-1.6-14.3-.6-4.8-1.4-9.5-2.3-14.2-.9-4.7-1.9-9.4-3-14.1-1.1-4.7-2.3-9.3-3.6-13.9-1.3-4.6-2.8-9.2-4.3-13.7-22.3-45.7-51.8-85.6-89.8-119.4-133.9-118.9-321.1-171.2-494.8-194.3-61.8-8.2-127.3-13.9-189.7-10.3-2.9-2.7-1.8-.9-2.4-5.7,3.6-9.2,32.4-66.3,36.8-69.2l1.8,4.3c12.4-8.6,30.3-57.9,37.1-74.7,42.5-11.9,44.2-176.5,54.8-187.8.3,6,.9,11.9,1.4,17.9,2.9-21.1-.3-45.9-5.8-66.5v-2.4Z"/>
  <path class="st3" d="M3512,2498.3c4.5,19.2,2.9,34.5-7.8,51.4-4.8,7.6-10.7,14.2-16.6,20.9,14,28.9,31.1,56.9,44.2,86.1-10.5-5-34.8-57-40.6-70l-1.2-2.8c-.2,4.1-.6,2.9.5,6.2,1,3,0,3.9-1,6.9-6.1-13.3-11.7-26.8-17.5-40.2,19.4-18.4,29.6-34,40.1-58.5Z"/>
  <path class="st3" d="M2348.2,3393.1c120.8-36.9,241.1-63,363.6-13.8-18.9,24.9-29.3,50.2-25.5,82.3,1.4,11.8,4.8,23.9,9.3,35-60.1-4.5-120.3-5.9-180.6-4.2-32.6-65.1-111.5-66-166.9-99.3Z"/>
  <path class="st6" d="M3471.1,2557.2l.7-.4c5.8,13.4,11.4,26.9,17.5,40.2,1-3,2-3.9,1-6.9-1-3.2-.7-2.1-.5-6.2l1.2,2.8c5.8,13,30.1,65,40.6,70,48.2,83.3,78.4,176.8,52.2,273.2-16.7,61.7-59.1,107-113.9,138.2-22.2,12.6-46,23-67.6,36.7-50.6,32.3-91.5,70.4-149.4,90.9-87,30.8-187.7,16.7-279.1,31.5-38.1,6.2-76.2,15.9-113,27.6-60.8,19.2-126.6,55.4-191.6,37.3-33.1-9.2-73.3-31.5-90.9-62.1-3.7-6.4-6-14.1-7.3-21.4,134.2-16.9,258.2-20.4,391.5-53.8,31.4-10.2,63.8-17.2,95.2-27.7,119.8-39.9,252.2-111.5,310-228.9,2.1-4.3,4.1-8.7,5.9-13.1,1.9-4.4,3.6-8.9,5.3-13.4,1.7-4.5,3.2-9,4.6-13.6,1.4-4.6,2.8-9.2,4-13.8,1.2-4.6,2.3-9.3,3.3-14,1-4.7,1.9-9.4,2.6-14.1.8-4.7,1.4-9.5,1.9-14.2.5-4.8.9-9.5,1.2-14.3.3-4.8.5-9.6.5-14.4,0-4.8,0-9.6-.2-14.4-.2-4.8-.5-9.6-.9-14.3-.4-4.8-.9-9.5-1.6-14.3-.6-4.8-1.4-9.5-2.3-14.2-.9-4.7-1.9-9.4-3-14.1-1.1-4.7-2.3-9.3-3.6-13.9-1.3-4.6-2.8-9.2-4.3-13.7,10.3-17.3.7-45,4.7-64.4,8.6-42.2,56.8-32.4,83.4-51.5.6-.4,1-.9,1.6-1.4Z"/>
  <path class="st7" d="M3471.1,2557.2l.7-.4c5.8,13.4,11.4,26.9,17.5,40.2,29.9,89.4,52.7,192,8,280.8-21.2,42.2-57.2,74-88.1,108.9-18.7,21.1-33.5,45.3-51.1,67.2-42.4,52.5-105.7,89.3-169.2,110-65.3,21.3-154.3,30.2-217.2-3.3-3.2-1.7-6.1-3.6-9-5.8,31.4-10.2,63.8-17.2,95.2-27.7,119.8-39.9,252.2-111.5,310-228.9,2.1-4.3,4.1-8.7,5.9-13.1,1.9-4.4,3.6-8.9,5.3-13.4,1.7-4.5,3.2-9,4.6-13.6,1.4-4.6,2.8-9.2,4-13.8,1.2-4.6,2.3-9.3,3.3-14,1-4.7,1.9-9.4,2.6-14.1.8-4.7,1.4-9.5,1.9-14.2.5-4.8.9-9.5,1.2-14.3.3-4.8.5-9.6.5-14.4,0-4.8,0-9.6-.2-14.4-.2-4.8-.5-9.6-.9-14.3-.4-4.8-.9-9.5-1.6-14.3-.6-4.8-1.4-9.5-2.3-14.2-.9-4.7-1.9-9.4-3-14.1-1.1-4.7-2.3-9.3-3.6-13.9-1.3-4.6-2.8-9.2-4.3-13.7,10.3-17.3.7-45,4.7-64.4,8.6-42.2,56.8-32.4,83.4-51.5.6-.4,1-.9,1.6-1.4Z"/>
  <path d="M2680.4,2205.2c42.5-11.9,44.2-176.5,54.8-187.8.3,6,.9,11.9,1.4,17.9-.3,7.3-.5,14.6-1.3,21.8,4.5,15.5,45.4,36.9,59.6,44.8,63.6,35.1,139.5,49.5,209.3,67.4,153.3,39.4,293.6,103.7,412.8,209,37.2,32.9,80.5,70.9,95,119.9-10.6,24.5-20.7,40.1-40.1,58.5l-.7.4c-.5.5-1,1-1.6,1.4-26.6,19.2-74.8,9.3-83.4,51.5-4,19.4,5.6,47.1-4.7,64.4-22.3-45.7-51.8-85.6-89.8-119.4-133.9-118.9-321.1-171.2-494.8-194.3-61.8-8.2-127.3-13.9-189.7-10.3-2.9-2.7-1.8-.9-2.4-5.7,3.6-9.2,32.4-66.3,36.8-69.2l1.8,4.3c12.4-8.6,30.3-57.9,37.1-74.7Z"/>
  <path class="st6" d="M2711.4,2171.2c11.6-37.9,16.1-75.4,23.9-114,4.5,15.5,45.4,36.9,59.6,44.8,63.6,35.1,139.5,49.5,209.3,67.4,153.3,39.4,293.6,103.7,412.8,209,37.2,32.9,80.5,70.9,95,119.9-10.6,24.5-20.7,40.1-40.1,58.5l-.7.4c-8.5-26.6-28.4-55-45.3-76.9-60.4-78.5-142.5-123.5-236.6-149.2-42.8-11.7-85.6-22-125.2-42.9-55.9-29.4-94.5-82.2-157-100.4-62.9-18.2-131.2-8.3-195.7-16.7Z"/>
  <path class="st7" d="M1556.9,1240c.4.9.9,1.7,1.3,2.6,6.5,14.1,6.1,33.8,11.9,49.2,18,47.3,76.2,108.4,121,130.7,16,9,32.2,17.5,48.6,25.5,16.4,8.1,33.1,15.7,50,22.8,16.9,7.1,33.9,13.8,51.2,20,17.2,6.2,34.6,11.9,52.2,17.1,62.7,18.6,126.4,31.5,190.2,45.7,174.2,38.7,352.2,81.1,500.2,185.6,30.1,21.2,68,49.7,87.4,81.8l14.9,19.1,25.8,10.2c-1.2.2-2.5.4-3.7.6-4.6.6-7.8,0-12.3-1.3l-3.5,1.8c9.1,35.1,38.6,77.6,38.9,114.9v2.4c5.5,20.5,8.7,45.4,5.8,66.5-.6-6-1.2-11.9-1.4-17.9-10.6,11.4-12.2,176-54.8,187.8-6.8,16.8-24.7,66.1-37.1,74.7l-1.8-4.3c1.2-2.9.9-2.1,2-5.8,15.3-50.6,10.8-137.5-14.5-185.3-16.6-31.3-43.8-57.4-78.2-67.7-31.8-9.5-71.7-7.6-101.2,8.3l1.8,1.9c-8.3,9.2-22.5,15.2-32.6,22.9-12.6,9.5-24.4,21.5-35.1,32.9-48.4,51.7-135.2,195.8-152.5,264.2-6.6,25.9-7.5,53.2-6.2,79.8.3,5.5,2,13.3-.9,18.1l-3.4.8c-30.6,9.9-63.8,13.5-95.6,17.2-122.3,14.1-240.7,8-361.3-15.6-2.7,27.6-18.8,59.3-29.1,85.3-13.6,33.7-27.9,67-43.1,100-10.5,23.4-22.9,47.2-29.3,72.1-15,57.7,3.7,142.8,15.5,201-29.5-31-113.2-128.3-154.4-130.4-7.9-.4-16,3.8-23.1,6.9-22.4-12-73.1-9.7-100.4-15.7-10.1-2.2-11.2-4.3-16.6-12.7,2.3-6.7,5.7-15.2,3.8-22.3-1.7-6.3-6.5-11.2-12.1-14.3-12.9-7.3-30.8-7-45.3-7-67.6-.3-130,16.5-193.9,36.5,4.8-8.1,10-15.9,15.5-23.4,60.5-82.4,156.4-107.4,252.1-122-35.9-54.4-98.8-76.4-157.5-97.6,88.3-20,178.1,5.6,253.8,51.9,18.9-36.9,38.1-74.1,54.1-112.3,7.9-18.9,11.9-41.4,21.7-59.1l2,1.8,2.2-1.5c4.4-16.5,5.5-35.2,5-52.3-.6-19.1-5.5-40.1-12.6-57.8-26.5-65.9-96.9-165.7-148.9-214.7,30.9,58.7,58.7,118.9,89.7,177.5-74.7-11.6-118.1-22-186-57.5,3.6-6.8,7.3-13.7,10.5-20.7,36.5-79.4,27.7-168.3-2.7-248.1-39.2-102.8-122.6-205.7-224.7-250.8-53.1-23.5-121-38.8-177.1-16.9-27.5,10.7-50.8,29-62.2,57-18.8,46.3,6.2,113.6,23.7,157.5-17.4-19.8-31.2-49.8-50.9-66.1l-2.7.7c-.3,4.4-.6,8.7-1.6,13l-.7,3.2c-.2-6.2,0-13.1-1.7-19.1-4.9-17.4-16.8-35.2-25.2-51.2-10.5-20.1-20.6-40.8-29.1-61.7-33.9-83.7-58.8-176.5-75.2-265.1.6.2,1.2.3,1.8.5,16.5,4.5,32,13.4,47.9,19.7,27.2,10.9,56,19.4,84.4,26.1,168.4,40.1,355.4-1.6,514.7-59.9-16.2,93.7-5.3,187.6,50.3,266.8,5,7.1,9.8,13.6,17.2,18.3h2.9c-9.9-15.5-21.6-29.4-30.7-45.7-40-71.9-52.5-166.7-29.6-246,45.4-12.8,112.3-65.2,147.1-99.2,13.5-13.2,24.7-28.1,37.9-41.3l1.2-1.2c.8-3,2.7-6.3,4-9.2Z"/>
  <path d="M1817,1986.4l2-7.9,3.9-1.8c1.6,6,3.9,12.4,4.8,18.5,7,24.4,8.9,49.4,15.1,73.7,4.6-1.6,8.2-3.7,12.4-6.3l-.5,3.8c-4.1,6.2-10.7,9.5-16.9,13.3-5.2-22.4-8.1-45.2-14-67.5-2.3-8.6-4.6-17.3-6.8-25.9Z"/>
  <path d="M2670.7,1821.1l14.9,19.1,25.8,10.2c-1.2.2-2.5.4-3.7.6-4.6.6-7.8,0-12.3-1.3l-3.5,1.8c9.1,35.1,38.6,77.6,38.9,114.9v2.4c-2.5.6-.9.6-4.6-1.1-12-43.7-27.9-83.2-47.2-124.2-3.4-7.3-7.8-14.3-8.2-22.5Z"/>
  <path class="st5" d="M2447.7,2025.5c-35.7-44-65.4-118.9-58.6-176.5,2.5-20.6,11.8-41.1,28.3-54.1,14.9-11.7,35.4-16.2,54-13.6,42.1,5.9,77.8,43.7,101.4,76.4,25.4,35.2,44,74.4,65.4,112.1,35.4,62.3,73.6,88.6,60.6,168-3.8,23.1-11.1,45.3-18.5,67.5-6.8,16.8-24.7,66.1-37.1,74.7l-1.8-4.3c1.2-2.9.9-2.1,2-5.8,15.3-50.6,10.8-137.5-14.5-185.3-16.6-31.3-43.8-57.4-78.2-67.7-31.8-9.5-71.7-7.6-101.2,8.3l-2,.4Z"/>
  <path class="st5" d="M2170.6,1691.8c6.1-.7,12.7-.8,18.9-.6,36.2,1.5,71.5,21.4,95.4,47.9,33.5,37.2,46.1,88.2,42.9,137.3-5.1,78.7-55.5,161.7-114,212.7-16.7,12.9-33,23.9-52.2,32.7-8.1-31.1-15.9-62.3-26.1-92.9-16.4-49.2-36-98-46.5-148.9-10.3-49.9-9.8-104.1,19.7-147.9,15.5-23,35.2-35,62-40.3Z"/>
  <path class="st5" d="M1749.4,1752.8c-4.1-37.2-5.1-77.7,19.7-108.7,15.8-19.8,40-30.8,64.9-33.1,42.4-3.8,84.3,15.4,116.2,42.3,40.6,34.2,66.3,81.4,70.5,134.5,6,75.2-33.8,144.5-81.4,199.4-14.1,16.1-29.1,31.2-45.1,45.4-9.5,8.3-33.1,21.3-39.2,30.2-4.2,2.5-7.8,4.7-12.4,6.3-6.1-24.4-8.1-49.3-15.1-73.7-.9-6.1-3.2-12.5-4.8-18.5-5.1-25.6-15.6-52.5-24.5-77-17.8-48.7-36.9-96.3-48.9-146.9Z"/>
  <path d="M1763.9,2447.4c-3.4-5.8,18.2-111,20.3-130.4,16.9-156.2-52.8-285.8-147.4-403.5l.6-.7c57,50.5,127.9,164.9,156.9,235.2,15,36.6,25.9,74.5,30.7,113.8,45.6,26,94.4,44.6,146.7,51.1,126.4,15.8,190.1-24.5,277.6-109.8l104.7-102.4c20.5-19.7,41.7-38.4,64.6-55.2,9.5-7,19.9-12.6,29.1-19.7l2-.4,1.8,1.9c-8.3,9.2-22.5,15.2-32.6,22.9-12.6,9.5-24.4,21.5-35.1,32.9-48.4,51.7-135.2,195.8-152.5,264.2-6.6,25.9-7.5,53.2-6.2,79.8.3,5.5,2,13.3-.9,18.1l-3.4.8c-30.6,9.9-63.8,13.5-95.6,17.2-122.3,14.1-240.7,8-361.3-15.6Z"/>
  <path class="st5" d="M1366.7,1390.9c45.4-12.8,112.3-65.2,147.1-99.2,13.5-13.2,24.7-28.1,37.9-41.3l1.2-1.2c5.5,45.5,12,86.9,28.9,129.9,37.6,95.8,102.7,169.7,95.9,280-1.7,27.3-8.9,55.6-26.1,77.5-14.6,18.6-33.3,30.4-57.1,32.6-46.7,4.4-96.5-23.3-130.6-52.7-11.8-10.2-24-25.5-36.8-33.8-9.9-15.6-21.6-29.5-30.7-45.8-40-71.9-52.5-166.7-29.6-246Z"/>
  <path class="st5" d="M808.7,281.1c169.1-30.8,343.3,20.2,484.5,113.1,21.3,13.1,40.9,30.3,59.6,46.8,88.8,78.7,170.2,185.1,202.9,300.2,3.7,12.6,7.1,25.3,10.1,38,3,12.8,5.8,25.6,8.2,38.5,2.4,12.9,4.4,25.9,6.2,38.9,1.7,13,3.1,26.1,4.2,39.1,1.1,13.1,1.8,26.2,2.2,39.3.4,13.1.4,26.2.2,39.4-.3,13.1-.9,26.2-1.9,39.3-1,13.1-2.2,26.2-3.9,39.2-7.5,61.4-19.2,122.1-16.3,184.2,1.7,12,1.4,29.8,11.3,37.7,35.7,6.3,99.2-25.6,129.3-43.5,85.7-51.2,163.5-140.8,204-232.5,11.1-25.2,18.5-51.1,25.2-77.7,4.5,16.7,7.7,33.8,11.3,50.7-6.4,29.8-7.6,60.6-14.1,90.4-1.5,7-3,14-4.8,21-1.7,7-3.5,13.9-5.5,20.8-2,6.9-4.1,13.8-6.3,20.6-2.2,6.8-4.6,13.6-7,20.3-2.5,6.7-5,13.4-7.8,20.1-2.7,6.6-5.5,13.2-8.5,19.8-2.9,6.5-6,13-9.2,19.5-3.2,6.4-6.5,12.8-9.9,19.1-3.4,6.3-6.9,12.6-10.6,18.7-3.6,6.2-7.4,12.3-11.3,18.3-3.9,6-7.8,12-11.9,17.9-4.1,5.9-8.3,11.7-12.6,17.5-4.3,5.7-8.7,11.4-13.2,17-4.5,5.6-9.1,11.1-13.8,16.5-4.7,5.4-9.5,10.8-14.4,16-4.9,5.2-9.9,10.4-15,15.5-15.3,15-32.2,28.3-49.7,40.7-9.2,6.5-21.2,12.9-29.2,20.8-44.8-22.3-103-83.4-121-130.7-5.8-15.4-5.4-35.1-11.9-49.2-.4-.9-.9-1.7-1.3-2.6-1.3,2.9-3.2,6.2-4,9.2l-1.2,1.2c-13.2,13.3-24.4,28.2-37.9,41.3-34.7,33.9-101.7,86.4-147.1,99.2-22.9,79.3-10.4,174.2,29.6,246,9.1,16.3,20.8,30.2,30.7,45.8h-2.9c-7.4-4.8-12.2-11.3-17.2-18.4-55.6-79.2-66.5-173.1-50.3-266.8-159.3,58.3-346.3,99.9-514.7,59.9-28.5-6.8-57.2-15.3-84.4-26.1-15.9-6.3-31.4-15.2-47.9-19.7-.6-.2-1.2-.3-1.8-.5l-5-22.7c-13.3,1.1-30.3-4.6-43.3-8.1-9.5-2.6-19-5.4-28.5-8.4-9.4-3-18.8-6.2-28.1-9.6-9.3-3.4-18.5-7-27.7-10.7-9.2-3.8-18.2-7.7-27.2-11.8-9-4.1-17.9-8.4-26.7-12.9-8.8-4.5-17.5-9.2-26.2-14-8.6-4.9-17.1-9.9-25.6-15.1-8.4-5.2-16.7-10.6-24.9-16.1-96.1-64.1-246.9-189.6-269.1-306.1-9.7-50.6,9.8-109.6,37.9-151.3,7.5-22.8,69.4-93.6,88.5-105.5-.4-30.1-5.9-59.6,1-89.7.8-7.3,2.1-14.5,3.9-21.6,1.8-7.1,4.1-14.1,6.8-20.9,18.9-47.1,52.1-79.8,98.3-99.7,38.6-20,66.6-56.5,101.4-82.1,14.3-13,32.6-23.3,49.1-33.3,76.8-46.5,157.6-76.2,246.3-90.3Z"/>
  <path class="st2" d="M392.7,905.1c3.7.2,7.9.5,11.1,2.4,14.5,8.8,27.5,69.5,33.8,87.6l-2.7-.4c-16.6-17.4-45.3-41.9-49.6-66-1.8-10.2,1.5-15.8,7.4-23.7Z"/>
  <path class="st2" d="M691.6,1006c8.6-.5,18.4-.8,26.1,3.7,5.3,3.1,11,10,11.6,16.3.5,4.6-1.8,8.3-5.2,11.2-20.2,17.5-70.3,12.2-95.8,11.6l-37.9-1.6c33.1-14.9,66.1-31.2,101.1-41.1Z"/>
  <path class="st6" d="M513.3,404.7c-3,14.7-8.7,29.1-10.7,43.9-2.7,19.9-2.8,40.8-4.1,60.9-4.5,70.4-13,135-47.7,197.8-14.8,26.8-32,51.4-57.9,68.5-14.9,9.8-31.7,17.7-50,14.3-10.1-1.9-19-7.7-24.4-16.4-3.5-5.7-5.8-11.3-6.2-18,1,1.3,2.1,2.5,3.2,3.7,9.9,10.7,22.1,18.1,37.1,18.3,23.6.4,49-15.5,65-31.9,28.6-29.2,31.4-64.3,30.5-103-1.1-47,0-121.7-36.1-155.9,38.6-20,66.6-56.5,101.4-82.1Z"/>
  <path d="M411.9,486.8c36.1,34.2,35,108.9,36.1,155.9.9,38.7-1.9,73.8-30.5,103-16,16.4-41.4,32.3-65,31.9-15-.2-27.1-7.6-37.1-18.3-1.1-1.2-2.2-2.4-3.2-3.7-3.4-9.6-6-18.8-8.2-28.7l-2.2-8.3c-.4-30.1-5.9-59.6,1-89.7.8-7.3,2.1-14.5,3.9-21.6,1.8-7.1,4.1-14.1,6.8-20.9,18.9-47.1,52.1-79.8,98.3-99.7Z"/>
  <path class="st1" d="M398.7,548.6c3.2,0,7.4-.3,10.4.6,5.3,1.6,9.7,6.7,12.5,11.3,5.9,10,5.9,22.1,3.2,33.1-2.9,11.4-8.9,17.2-18.7,23.1-3,0-6,.2-9-.1-5.7-.6-10.6-3.9-14-8.5-5.6-7.7-6.1-17.5-4.6-26.6,2.5-15.4,8.1-23.8,20.3-33Z"/>
  <path class="st4" d="M354.9,712.4c29-8.4,48.9-23.5,63.4-50.3,7.3-13.6,12.7-28.4,18.3-42.7,3.4,43.4,8.7,84.8-22.2,120.6-14.5,16.8-34.5,29.7-57,32.1-6.1.6-12.5-.2-18.5-1-20.3-13.3-22.8-25-33.4-45l-1.4.8-2.2-8.3c-.4-30.1-5.9-59.6,1-89.7,3.8,5.7,4.3,11.3,5.5,18,6.4,35.4,9.3,53,46.5,65.5Z"/>
  <path d="M987.2,775.7c39.6-41.1,91.5-77.5,150.8-78.2,31.9-.4,61.6,11.5,84,34.1,13.8,13.8,23.1,33,32.3,50,20.2,47,24.3,96.5,4.8,144.6-14.5,35.8-41.1,64-76.8,78.9-54.2,22.7-116.1,7.2-167.9-14.7-38.1-16.1-86.6-40.1-104.8-79.7.2-16.2,2.7-27.6,9.7-42.3,16.4-33.2,42.4-65.8,67.8-92.9Z"/>
  <path class="st1" d="M1080.4,744.4c8.9-.5,18.1-1.1,26.8,1.3,12.7,3.4,24.8,12.1,31,23.8,4.2,8,5.5,17.3,2.5,25.9-4.4,12.7-15.9,20.9-27.4,26.8-7.9.5-15.6.7-23.3-1.8-14.4-4.6-29.3-14.8-36.2-28.6-3.9-7.9-4.8-16.3-1.5-24.6,5-12.1,16.7-18,28-22.8Z"/>
  <path class="st4" d="M1149.2,730.3c35.5,5.2,62.5,17.7,84.3,46.9,25.2,33.9,32.7,74.2,26.3,115.6-5.8,37.8-25.1,70-56.3,92.2-35.4,25.2-75.9,27-117.4,19.5-48.8-8.8-135-40.1-163.3-83.5-14.6-22.3-1.1-32.3-3.4-52.5,16.4-33.2,42.4-65.8,67.8-92.9.3.7.8,1.4,1,2.1,2.3,7.8-3.4,21.1-4,29.7-2.6,42.1,16.3,93.7,51.9,118,19.3,13.2,43.2,17.4,66.1,12.8,1.6-.3,3.2-.7,4.8-1.1,1.6-.4,3.2-.9,4.8-1.4,1.6-.5,3.2-1,4.7-1.6,1.6-.6,3.1-1.2,4.6-1.8,1.5-.7,3-1.3,4.5-2.1,1.5-.7,3-1.5,4.4-2.3,1.5-.8,2.9-1.6,4.3-2.5,1.4-.9,2.8-1.8,4.2-2.7,1.4-.9,2.7-1.9,4-2.9,1.3-1,2.6-2.1,3.9-3.1,1.3-1.1,2.5-2.2,3.7-3.3,1.2-1.1,2.4-2.3,3.5-3.5,1.1-1.2,2.3-2.4,3.3-3.7,1.1-1.3,2.1-2.5,3.2-3.9,1-1.3,2-2.6,3-4,1-1.4,1.9-2.7,2.8-4.1,18.3-29,24.5-68.1,16.7-101.4-5.4-22.7-21.2-42.9-33.3-62.5Z"/>
  <path class="st7" d="M808.7,281.1c169.1-30.8,343.3,20.2,484.5,113.1-13.4.3-26.7,1.3-40,2.8-13.3,1.5-26.5,3.6-39.6,6.2-13.1,2.7-26.1,5.9-38.9,9.7-12.8,3.8-25.5,8.1-37.9,13-102,39.4-193.9,105.5-285.5,164.3-32.3,20.7-64.8,43.5-99.4,60.2-20.7,10-44.5,18.2-67.8,17.8-14-.3-27.3-4.6-37.1-15-13.3-14.2-16.7-34.8-15.6-53.6,4-73.7,76.8-201.6,123.2-261.4,16.3-21,34.3-39.4,54.1-57.1Z"/>
  <path class="st6" d="M909.7,910.8c-6.6-7.4-11.6-14.6-15.1-24-9.7-25.9-2.9-53.6,8-77.9,2-4.5,4.2-8.9,6.4-13.3,2.3-4.4,4.6-8.7,7.1-13,2.5-4.3,5-8.5,7.7-12.6,2.7-4.1,5.4-8.2,8.3-12.2,2.9-4,5.8-7.9,8.9-11.8,3.1-3.9,6.2-7.6,9.5-11.3,3.3-3.7,6.6-7.3,10-10.8,3.4-3.5,6.9-7,10.5-10.3,3.6-3.4,7.3-6.6,11-9.8,3.8-3.2,7.6-6.3,11.5-9.3,3.9-3,7.9-5.9,12-8.7,4.1-2.8,8.2-5.5,12.4-8.1,4.2-2.6,8.4-5.1,12.8-7.5s8.7-4.7,13.1-6.8c4.4-2.2,8.9-4.2,13.4-6.2,4.5-1.9,9.1-3.8,13.7-5.5,133.4-49.7,287.5-13.2,411.5,46.5,25,12,46.7,30.9,71.7,42.2.5.2,1,.4,1.5.7,3.7,12.6,7.1,25.3,10.1,38,3,12.8,5.8,25.6,8.2,38.5,2.4,12.9,4.4,25.9,6.2,38.9,1.7,13,3.1,26.1,4.2,39.1,1.1,13.1,1.8,26.2,2.2,39.3.4,13.1.4,26.2.2,39.4-.3,13.1-.9,26.2-1.9,39.3-1,13.1-2.2,26.2-3.9,39.2-7.5,61.4-19.2,122.1-16.3,184.2,1.7,12,1.4,29.8,11.3,37.7,35.7,6.3,99.2-25.6,129.3-43.5,85.7-51.2,163.5-140.8,204-232.5,11.1-25.2,18.5-51.1,25.2-77.7,4.5,16.7,7.7,33.8,11.3,50.7-6.4,29.8-7.6,60.6-14.1,90.4-1.5,7-3,14-4.8,21-1.7,7-3.5,13.9-5.5,20.8-2,6.9-4.1,13.8-6.3,20.6-2.2,6.8-4.6,13.6-7,20.3-2.5,6.7-5,13.4-7.8,20.1-2.7,6.6-5.5,13.2-8.5,19.8-2.9,6.5-6,13-9.2,19.5-3.2,6.4-6.5,12.8-9.9,19.1-3.4,6.3-6.9,12.6-10.6,18.7-3.6,6.2-7.4,12.3-11.3,18.3-3.9,6-7.8,12-11.9,17.9-4.1,5.9-8.3,11.7-12.6,17.5-4.3,5.7-8.7,11.4-13.2,17-4.5,5.6-9.1,11.1-13.8,16.5-4.7,5.4-9.5,10.8-14.4,16-4.9,5.2-9.9,10.4-15,15.5-15.3,15-32.2,28.3-49.7,40.7-9.2,6.5-21.2,12.9-29.2,20.8-44.8-22.3-103-83.4-121-130.7-5.8-15.4-5.4-35.1-11.9-49.2-.4-.9-.9-1.7-1.3-2.6-1.3,2.9-3.2,6.2-4,9.2l-1.2,1.2c-13.2,13.3-24.4,28.2-37.9,41.3-34.7,33.9-101.7,86.4-147.1,99.2,12.4-37.3,27.3-73.7,44.5-109.1,12.4-6.8,25-13.6,36.7-21.5,53.5-35.9,80.4-100.6,92.4-161.8,13.7-70.2.4-146.3-39.9-205.7-6.1-12-17.9-25.6-28.3-34.1-1-1.2-2-2.4-3.1-3.6-8.7-9.1-22.2-22.1-35.3-22.7-4.6,3.1-4,4.1-5.4,9.6-11.2-2.3-25.6-15.4-36.5-20.8-42.1-20.6-90.6-35.9-137.5-39.6-9.2-17-18.6-36.2-32.3-50-22.5-22.6-52.1-34.5-84-34.1-59.4.7-111.2,37-150.8,78.2-25.4,27-51.4,59.6-67.8,92.9-6.9,14.7-9.5,26.1-9.7,42.3Z"/>
  <path class="st7" d="M702.7,1388.3c-13.3,1.1-30.3-4.6-43.3-8.1-9.5-2.6-19-5.4-28.5-8.4-9.4-3-18.8-6.2-28.1-9.6-9.3-3.4-18.5-7-27.7-10.7-9.2-3.8-18.2-7.7-27.2-11.8-9-4.1-17.9-8.4-26.7-12.9-8.8-4.5-17.5-9.2-26.2-14-8.6-4.9-17.1-9.9-25.6-15.1-8.4-5.2-16.7-10.6-24.9-16.1-96.1-64.1-246.9-189.6-269.1-306.1-9.7-50.6,9.8-109.6,37.9-151.3-1.7,6.5-3.8,12.6-6.4,18.7l.2,2.2c1.9,21.1,0,41.8,3.5,62.9,13.3,80.8,68,152.8,129.4,204.1,72,60.1,179.3,117.7,271.8,135.1,47.1,8.9,95.4,9,142.9,4.6,84-7.9,164.9-32,243.5-61.7,43.5-16.4,86.7-35.6,131.8-47,71.6-18.1,149.8-14.7,219.3-40.7,3.8-1.4,7.6-3,11.3-4.6,3.7-1.7,7.4-3.5,11-5.4,3.6-1.9,7.1-3.9,10.6-6,3.5-2.1,6.9-4.4,10.2-6.7,3.3-2.3,6.6-4.8,9.7-7.4,3.2-2.6,6.2-5.2,9.2-8,3-2.8,5.9-5.6,8.7-8.5,2.8-2.9,5.5-6,8.1-9.1,12.6-15.1,21.9-31.6,30.9-49.1,6.6-58.2-3.3-104.1-30.7-155.7,1.3-5.5.8-6.4,5.4-9.6,13,.6,26.5,13.6,35.3,22.7,1.1,1.1,2.1,2.4,3.1,3.6,10.4,8.5,22.2,22.2,28.3,34.1,40.3,59.4,53.6,135.5,39.9,205.7-12,61.3-38.8,125.9-92.4,161.8-11.8,7.9-24.3,14.7-36.7,21.5-17.2,35.4-32,71.8-44.5,109.1-22.9,79.3-10.4,174.2,29.6,246,9.1,16.3,20.8,30.2,30.7,45.8h-2.9c-7.4-4.8-12.2-11.3-17.2-18.4-55.6-79.2-66.5-173.1-50.3-266.8-159.3,58.3-346.3,99.9-514.7,59.9-28.5-6.8-57.2-15.3-84.4-26.1-15.9-6.3-31.4-15.2-47.9-19.7-.6-.2-1.2-.3-1.8-.5l-5-22.7Z"/>
  <path d="M1428.4,842c1.3-5.5.8-6.4,5.4-9.6,13,.6,26.5,13.6,35.3,22.7,1.1,1.1,2.1,2.4,3.1,3.6-10.7-.9-26-17.3-36.7-22.8,28.9,67.9,48.4,139.1,19.5,211.1-18.6,46.3-54.5,77.4-100,96.3-71.5,29.7-153.4,27.9-228.2,47.4-61,15.9-117,44.5-176.2,65.5-137.6,48.8-293.6,40.2-427.7-15.8-29.5-12.3-59.6-26-87.5-41.6-28.7-16.1-155.4-98.4-166.5-124.5-.7-1.6-.6-2.4-.7-4.1,105.1,99.2,261.9,186.2,405.8,205.4,63,8.4,131.2,8.5,193.8-2.8,88.8-16,167.1-62.4,253.4-86.8,85.3-24,205.6-19.1,275.8-74,37.4-29.2,56.3-67.9,62.1-114.4,6.6-58.2-3.3-104.1-30.7-155.7Z"/>
  <path class="st6" d="M206.9,842.9l.2,2.2c1.9,21.1,0,41.8,3.5,62.9,13.3,80.8,68,152.8,129.4,204.1,72,60.1,179.3,117.7,271.8,135.1,47.1,8.9,95.4,9,142.9,4.6,84-7.9,164.9-32,243.5-61.7,43.5-16.4,86.7-35.6,131.8-47,71.6-18.1,149.8-14.7,219.3-40.7,3.8-1.4,7.6-3,11.3-4.6,3.7-1.7,7.4-3.5,11-5.4,3.6-1.9,7.1-3.9,10.6-6,3.5-2.1,6.9-4.4,10.2-6.7,3.3-2.3,6.6-4.8,9.7-7.4,3.2-2.6,6.2-5.2,9.2-8,3-2.8,5.9-5.6,8.7-8.5,2.8-2.9,5.5-6,8.1-9.1,12.6-15.1,21.9-31.6,30.9-49.1-5.8,46.4-24.7,85.2-62.1,114.4-70.2,54.8-190.5,49.9-275.8,74-86.3,24.3-164.6,70.8-253.4,86.8-62.6,11.3-130.7,11.2-193.8,2.8-143.9-19.2-300.7-106.2-405.8-205.4-30.7-31.9-60.8-67.6-74.6-110.4-13-40.4-6.1-79.8,13.3-117Z"/>
  <path d="M1500.4,892.8c40.3,59.4,53.6,135.5,39.9,205.7-12,61.3-38.8,125.9-92.4,161.8-11.8,7.9-24.3,14.7-36.7,21.5-17.2,35.4-32,71.8-44.5,109.1-22.9,79.3-10.4,174.2,29.6,246,9.1,16.3,20.8,30.2,30.7,45.8h-2.9c-7.4-4.8-12.2-11.3-17.2-18.4-55.6-79.2-66.5-173.1-50.3-266.8-159.3,58.3-346.3,99.9-514.7,59.9-28.5-6.8-57.2-15.3-84.4-26.1-15.9-6.3-31.4-15.2-47.9-19.7-.6-.2-1.2-.3-1.8-.5l-5-22.7c3.2-1.7,6.6-1.8,10.2-1.6,17.5,1,35.2,4.6,52.7,6.5,29.3,3.1,59,4.4,88.4,5.1,49.5,1.2,100.2-2.9,149.5-7.9,118.4-11.9,228.3-46,338.5-89.3,49.6-19.5,105.2-37,139.9-80.1,14.6-18.2,24.9-40.6,33.3-62.3,25.1-64.9,31.7-130.8,11.4-198-3.7-12.3-25.5-59.2-25.9-65.2,0-.9,0-1.8-.1-2.7Z"/>
</svg>