<?xml version="1.0" encoding="UTF-8"?>
<svg id="Layer_1" xmlns="http://www.w3.org/2000/svg" version="1.1" viewBox="0 0 3000 3000">
  <!-- Generator: Adobe Illustrator 29.2.1, SVG Export Plug-In . SVG Version: 2.1.0 Build 116)  -->
  <defs>
    <style>
      .st0 {
        fill: #f0810d;
      }

      .st1 {
        fill: #cf5b01;
      }

      .st2 {
        fill: #271f1d;
      }

      .st3 {
        opacity: 0;
      }

      .st3, .st4 {
        display: none;
      }

      .st5 {
        fill: #fbac22;
      }

      .st4 {
        fill: #fff;
      }

      .st6 {
        fill: #fefefe;
      }

      .st7 {
        fill: #080807;
      }

      .st8 {
        fill: #483c37;
      }
    </style>
  </defs>
  <rect class="st4" width="3000" height="3000"/>
  <g>
    <ellipse class="st3" cx="1437.3" cy="1782.8" rx="847.6" ry="134.6"/>
    <g>
      <path class="st2" d="M2609.8,1649.5c11.2,5.2,48.6,40.2,51.1,53.1-2.6.8-15.7-5.8-19.8-6.6l-.7-1c-3.3-13.5-26.9-31.3-32.1-44.8l1.6-.7Z"/>
      <path class="st2" d="M1203.9,1161.3c-1.2-11-3.5-21.6-5.4-32.4,11.6,12.8,21.2,22.9,37.9,28.8-1,5.6-2.1,11.3-2.9,17-10.8-3.4-20.2-6.9-29.7-13.3Z"/>
      <path class="st2" d="M2460.7,1555.1c9,2.3,63.5,31.5,67.8,37.7,0,0,0,.2.1.2-4.2,3.6-20.9,7.2-26.7,7.8-.5-2.7-1.3-3.5-3.4-5.4-14.8-12.7-33.4-21.7-48.5-34.3,3.9-1.7,7.7-3.1,10.8-6.1Z"/>
      <path class="st1" d="M2641,1696c4.2.8,17.3,7.3,19.8,6.6,10.9,7.8,25.2,51.3,27.3,65.1.4,2.7.4,4.5-.6,7-4.5-7.1-17.3-13.5-25.2-15.9-.9-.8-2.2-1.1-3.4-1.6,1.4-.6,2-1.3,2.9-2.6.9-16.7-10.9-45.4-20.9-58.7Z"/>
      <path class="st2" d="M2269.2,1507.7c3.4-9.3,1.6-19.6,4.2-29.1,9.1,3,103.7,41.1,105.6,42.6-2.1,2-3.1,1.7-5.9,2.1-31-8.9-71.6-15.6-103.9-15.6Z"/>
      <path class="st5" d="M2150.7,1945.3c7.8-1.7,16.5-1.7,24.5-2.2,20.1-1.3,40.9-1.8,60.7-5.2,20.3,12.2,29.6,25,27.6,49.6-12.7,3.4-57.4,3-73.1,3.4.2-14.2-28.5-37.9-39.7-45.6Z"/>
      <path class="st8" d="M2235.9,1937.9c33.8-4.7,66.7-11.3,99.9-19.1,16.1,7.5,29.2,26.4,35.3,42.7,1.6,4.3,3.5,9,2.6,13.6-18.9,2.1-37.7,5.3-56.6,7.4-14.1,1.6-41.1,2-53.1,6l-.4-1c2-24.6-7.3-37.4-27.6-49.6Z"/>
      <path class="st8" d="M2269.2,1507.7c32.3,0,72.8,6.6,103.9,15.6-.3.3-.7.6-1,.9-5.3,4.7-12.5,7.4-18,12-18.8,15.6-34,39.7-39.5,63.5l-.9.3c-20.9-6.1-42.2-11.5-63.3-16.8,9.3-10.1,21.6-62.8,18.9-75.4Z"/>
      <path class="st8" d="M2442.1,1873.2c27.2,13.7,44.6,38.8,53,67.7l-.2,1.2c-4.4.5-57,17.7-61.3,20l-.9-1.1c-12.8,6.3-43.9,11.4-59.1,14,.9-4.6-1-9.3-2.6-13.6-6-16.3-19.1-35.2-35.3-42.7,18.1-5,35.9-10.1,53.1-17.6,19.5-6.7,36.4-16,53.2-27.9Z"/>
      <path class="st5" d="M2335.8,1918.8c18.1-5,35.9-10.1,53.1-17.6,18,7.8,32.3,20.9,39.7,39.4,2.4,5.9,5.2,14.2,4.1,20.6-12.8,6.3-43.9,11.4-59.1,14,.9-4.6-1-9.3-2.6-13.6-6-16.3-19.1-35.2-35.3-42.7Z"/>
      <path class="st5" d="M2379,1521.2c10.8,2,77,27.2,81.7,33.9-3.1,3-6.9,4.4-10.8,6.1,15.2,12.7,33.7,21.7,48.5,34.3,2.1,1.8,2.8,2.7,3.4,5.4-7.6,6.1-19.9,9.2-28.7,14.1-16.2,9.1-29.9,20.5-44.1,32.4l-1.8,1.1c-7.6-8.3-33.3-21.5-43.9-24.3-18.5-12-48-16.1-68.7-24.5,5.5-23.8,20.7-47.9,39.5-63.5,5.5-4.6,12.7-7.3,18-12,.3-.3.7-.6,1-.9,2.8-.4,3.8-.1,5.9-2.1Z"/>
      <path class="st8" d="M2449.9,1561.1c15.2,12.7,33.7,21.7,48.5,34.3,2.1,1.8,2.8,2.7,3.4,5.4-7.6,6.1-19.9,9.2-28.7,14.1-16.2,9.1-29.9,20.5-44.1,32.4l-1.8,1.1c-7.6-8.3-33.3-21.5-43.9-24.3,9.6-8,16.1-21.8,24.8-31.2,12-13,27.7-21.4,41.8-31.8Z"/>
      <path class="st5" d="M2528.6,1593c11.5,4.8,74.8,45.9,80.3,55.5l.9,1-1.6.7c5.2,13.5,28.8,31.2,32.1,44.8-47.1-11.2-97.7-9.5-138.4,19.9h-.8c-3.9-13-21.4-26.4-31.3-35.6h-1.4c-7.1-12.5-27.4-23.7-39.5-32.1,14.2-11.8,27.9-23.3,44.1-32.4,8.8-4.9,21.1-8,28.7-14.1,5.8-.6,22.5-4.2,26.7-7.8Z"/>
      <path class="st8" d="M2469.9,1679.4c44.1-30.6,87.1-34.7,139-30.9l.9,1-1.6.7c5.2,13.5,28.8,31.2,32.1,44.8-47.1-11.2-97.7-9.5-138.4,19.9h-.8c-3.9-13-21.4-26.4-31.3-35.6Z"/>
      <path class="st2" d="M1614.8,1697.6c11.2-4.6,27.3-4.7,39.3-6.4l75.9-11.1c20.3-3.2,41-8.5,61.4-10.8,3.4,18.7,1.9,33.6-9.1,49.6-11.9,18-68,64.6-89.1,60.7-3.1-3.9-3.1-9.2-2.6-14,.7-6.3,2.1-12.6,3.3-18.8-14.7,8.6-77.9,35.5-92.5,34.9-11.4-7.5,16.3-38.1,22.3-44.7-11,2.8-50.8,18.7-56.8,5.7.1-15.1,35.8-36.6,47.9-45.1Z"/>
      <path class="st5" d="M2115.9,1399c5.3,1.5,49.9,25.5,52.5,28.8l.3,1.2c11.1,1.9,42.3,20.8,54.8,26.6,10.8,5.1,43.1,16.9,49.9,23-2.6,9.5-.9,19.8-4.2,29.1,2.8,12.5-9.6,65.4-18.9,75.4-12.3-7.6-41.6-14.8-56.4-20l-.3-1.1c-27.7-11.5-51.3-27.7-77.3-42.1l-.3-1.3c8.6-23.6,11-97.5-.2-119.6Z"/>
      <path class="st8" d="M2115.9,1399c5.3,1.5,49.9,25.5,52.5,28.8l.3,1.2c17.8,22.2,28.6,104.3,25.1,132.3,0,.3,0,.6-.1.8-27.7-11.5-51.3-27.7-77.3-42.1l-.3-1.3c8.6-23.6,11-97.5-.2-119.6Z"/>
      <path class="st2" d="M2141.8,1429.6c12.4-3.5,25,5.3,29.9,16.5,4.7,10.1-.6,20.1-10.6,23.9-1.4,1.1-3.1,1.1-4.9,1.2-5.5,0-11.2-3.4-15.1-7.1-5.2-5.1-8.3-12-8.2-19.3.2-6.9,4.1-10.8,8.8-15.1Z"/>
      <path class="st0" d="M1826.2,1628.3c7.5,8.6,15.1,16.8,24,24-19.1,7.1-40.4,9.2-58.9,17-20.3,2.3-41,7.6-61.4,10.8l-75.9,11.1c-12,1.7-28.1,1.9-39.3,6.4-71.3,10.7-147.6,16.4-219.5,8.3,8-19.3,13-39.8,14.7-60.7,132,30.5,286.3,17.3,416.3-17Z"/>
      <path class="st2" d="M897.7,1500.2c29.1,32.3,58.1,61.2,94.3,85.8,14.8,10,31.4,18,45.8,28.4-12.1,34.7-34.4,70.7-54.4,101.6,15.2,20,20.4,38,17.9,62.8-19.6-11.2-38.8-21.9-60.1-29.6-9.1,6.8-17.6,14.5-25.3,22.8-4.6,5-16.7,24.6-21,26.6-2.1-1.6-3.5-3.5-4.9-5.7-9.7-15-10.7-30.9-7.1-48-28.4,3.6-55.3,11.3-81.5,22.9l-2.2-2c-5.6-16.7,20.6-40.8,32-50.7-18.5-1.4-36.4,0-54.9,1.4,15.4-35.5,69.2-40.6,102.7-46,5.8-22.3,3.1-47.8,4.3-70.8,1.6-33.5,6.4-66.9,14.4-99.5Z"/>
      <path class="st5" d="M2502,1715c40.6-29.4,91.3-31.2,138.4-19.9l.7,1c10,13.3,21.8,42,20.9,58.7-.9,1.3-1.4,1.9-2.9,2.6,1.1.5,2.4.9,3.4,1.6-1.5,6.3-1.2,13.1-1.8,19.5-1.2,13.6-3.9,25.7-8.4,38.5h-.9c-3.1,10.2-25.3,48.8-34.1,54v1c-5.4,4.1-10.2,8.9-15.6,13.1-13.2,10.2-26.9,19.6-41.3,28.1h-.9c-13.7,10.3-47.4,23.1-64.4,27.7-8.4-28.8-25.7-53.9-53-67.7,4.4-2.4,8.5-5.8,12.4-8.8,4.5-3.5,12.1-9.8,12.8-15.7l3.3-1.1c5.2-4.4,13.5-14.7,15.8-21.1,8.9-8.3,23.6-38.1,23.1-49.5,2-5,4.1-10.2,2-15.5l2.5-2c.5-17.4-2.5-29.8-12.1-44.5Z"/>
      <path class="st8" d="M2514.1,1759.5c13.1-3.9,25.9-8.5,39.3-11.3,33.5-6.9,73.8-3.3,105.6,9.1,1.1.5,2.4.9,3.4,1.6-1.5,6.3-1.2,13.1-1.8,19.5-1.2,13.6-3.9,25.7-8.4,38.5h-.9c-37.8-33.7-91.7-52.6-141.8-40,2-5,4.1-10.2,2-15.5l2.5-2Z"/>
      <path class="st5" d="M2502,1715c40.6-29.4,91.3-31.2,138.4-19.9l.7,1c10,13.3,21.8,42,20.9,58.7-.9,1.3-1.4,1.9-2.9,2.6-31.8-12.4-72.1-16.1-105.6-9.1-13.4,2.8-26.2,7.5-39.3,11.3.5-17.4-2.5-29.8-12.1-44.5Z"/>
      <path class="st8" d="M2486.5,1826.4c9.8-.6,19.2-3.4,29-4.2,39.6-3.1,78.6,17.1,101.8,48.8v1c-5.4,4.1-10.2,8.9-15.6,13.1-13.2,10.2-26.9,19.6-41.3,28.1h-.9c-13.7,10.3-47.4,23.1-64.4,27.7-8.4-28.8-25.7-53.9-53-67.7,4.4-2.4,8.5-5.8,12.4-8.8,4.5-3.5,12.1-9.8,12.8-15.7l3.3-1.1c5.2-4.4,13.5-14.7,15.8-21.1Z"/>
      <path class="st5" d="M2470.6,1847.6c34-3.6,81.2,32.7,88.9,65.5-13.7,10.5-47.4,23.3-64.4,27.9-8.4-28.8-25.7-53.9-53-67.7,4.4-2.4,8.5-5.8,12.4-8.8,4.5-3.5,12.1-9.8,12.8-15.7l3.3-1.1Z"/>
      <path class="st2" d="M2662.4,1758.9c7.9,2.4,20.7,8.8,25.2,15.9,5.6,6.1,4.3,25.3,3.9,33.3-19.8,222.2-326,249.4-501.2,243.3-78.1-4.2-153.3-21.5-230.1-34.8-63.5-10.4-127.8-17.6-192.2-17.8-8.6,0-33.8,3.3-40.4-.4-.4-2.2-.2-2.2,1-4.1,48.1-37.1,191.5-40.5,254.4-42.9,18.4-1.5,37.5-1.5,55.9-1.5,18-2,36.8-1.5,55-2.1,18.9-.7,37.8-2.3,56.7-2.5,11.2,7.7,39.9,31.4,39.7,45.6,15.7-.4,60.4,0,73.1-3.4l.4,1c12-4,39-4.4,53.1-6,18.9-2.1,37.7-5.3,56.6-7.4,15.2-2.7,46.3-7.7,59.1-14l.9,1.1c4.3-2.3,56.8-19.5,61.3-20l.2-1.2c17-4.6,50.7-17.4,64.4-27.9h.9c14.3-8.3,28.1-17.7,41.3-27.9,5.3-4.2,10.1-9,15.5-13.1v-1c8.9-5.2,31.1-43.8,34.2-54h.9c4.5-12.9,7.3-25,8.4-38.6.5-6.4.3-13.3,1.8-19.5Z"/>
      <path class="st1" d="M2014.2,1982.9c8.4-.3,52.3,3.1,55.5,1.4,1.6,4.2,1.2,13.8,1.2,13.8-4,11.5-34.7,5.2-43.3,2.2-8-2.8-9.9-10.4-13.4-17.4Z"/>
      <path class="st1" d="M2263.5,1987.5l.4,1c0,5.3.5,10.4-3.5,14.6-9.4,9.8-29,10-41.7,9.7-5.1-.1-17.4-.6-20.9-5-4-4.9-2.7-12.4-7.4-16.9,15.7-.4,60.4,0,73.1-3.4Z"/>
      <path class="st1" d="M2432.7,1961.1l.9,1.1c4.9,19.6.2,33-21.5,35.4-8.9,1-22.6,1.2-30-4.8-5.7-4.5-4.2-12.5-8.5-17.7,15.2-2.7,46.3-7.7,59.1-14Z"/>
      <path class="st5" d="M1983.1,1951.5c18.4-1.5,37.5-1.5,55.9-1.5,11.3,6.6,27.6,16.8,31.1,30.3.4,1.4,0,2.6-.4,3.9-3.2,1.7-47.1-1.7-55.5-1.4l-1.1-1.1c-.6-13.2-20.1-24.3-30-30.3Z"/>
      <path class="st1" d="M2559.5,1913h.9c2.6,9.3,4.8,18.6,5.4,28.2-5.6,12.1-46.6,36.1-60,31.9-9.3-7.7-7-20.8-10.9-31.1l.2-1.2c17-4.6,50.7-17.4,64.4-27.9Z"/>
      <path class="st1" d="M2652.2,1817c8.4,8.3,27.6,30.8,23.4,43.4-.6,9-20.3,34.2-27.5,40.5-2.8,2.4-5.3,4.1-9,4.6-9.9-4-12.9-26.2-21.9-33.5v-1c8.9-5.2,31.1-43.8,34.2-54h.9Z"/>
      <path class="st8" d="M2039,1950c18-2,36.8-1.5,55-2.1,18.9-.7,37.8-2.3,56.7-2.5,11.2,7.7,39.9,31.4,39.7,45.6-15.3-.5-119.1-2.4-120.7-6.6.4-1.4.8-2.5.4-3.9-3.5-13.5-19.8-23.7-31.1-30.3Z"/>
      <path class="st8" d="M1728.7,1994.4c48.1-37.1,191.5-40.5,254.4-42.9,10,6,29.4,17.1,30,30.3-15.1.7-30.5-1.2-45.6-1.7-27.8-1-56.2-1.3-84,0-36.5,1.7-72.9,4.9-109.2,9.6-10.5,1.4-36.3,7.2-45.6,4.7Z"/>
      <path class="st8" d="M1826.2,1628.3c-12.3-16.3-19.3-33.7-16.9-54.4,8.4-69.1,127.8-84.8,182.8-76.1,11.9,15.4,21.5,34.7,31.2,51.7,3.4,5.9,6.5,12.9,10.8,18.2,11.5,18.3,20,37.7,30.3,56.5,6.6,19.1,17.1,37.9,22.2,57.4,4.5,24,7.7,47,1.6,71.1-3.1,12.5-9.4,26.9-20.9,33.7,9.9,7.1,19.6,34.9,14.4,46.4-11.9,21.6-49-19.3-61.8-26.1-.3,2.4-1.7,4.6-3,6.6-22.8,36.2-54.5,62.1-58.4-1-15.9,7.5-68.1,29.9-83.9,25.5-.8-.8-1.8-1.4-1.9-2.5-1.5-12.5,16.1-32,23.5-41.4-7.8,1.3-53.5,9.8-55.1-.5,4.7-20.3,66.1-43.8,82.5-54,10.1-6.3,18.6-13.9,26.2-23-9.2-5.9-19.6-10.4-29.1-15.8-34.2-20-68.6-42-94.6-72.4Z"/>
      <path class="st2" d="M2058.3,1474.3c17.7,7,38.5,35.3,57.8,44.4l.3,1.3c26,14.3,49.6,30.6,77.3,42.1l.3,1.1c14.8,5.2,44.1,12.4,56.4,20,21.1,5.3,42.4,10.7,63.3,16.8l.9-.3c20.8,8.3,50.2,12.5,68.7,24.5,10.6,2.7,36.3,16,43.9,24.3l1.8-1.1c12.1,8.3,32.3,19.6,39.5,32.2h1.4c9.9,9.1,27.4,22.5,31.3,35.5h.8c9.7,14.7,12.6,27.1,12.1,44.5l-2.5,2c2.1,5.3,0,10.5-2,15.5.5,11.4-14.1,41.2-23.1,49.5-2.4,6.5-10.6,16.7-15.8,21.1l-3.3,1.1c5.1-7.7,4.1-19.4.3-27.4-4.9-10-14.1-17.6-22.8-24.1-66.3-49.6-176.1-59.2-256-80.4-22.6-6-45.3-13.4-67.2-21.6-11.7-4.3-23.2-9.6-35-13.6-5-19.6-15.5-38.3-22.2-57.4-10.3-18.9-18.8-38.2-30.3-56.5,12.4-11.2,24.6-75.6,24.2-93.4Z"/>
      <path class="st1" d="M2501.2,1715h.8c9.7,14.7,12.6,27.1,12.1,44.5l-2.5,2c-.5.5-29.2,20.6-30.5,21.3-2.3-9.5-5.8-16.2-5.3-26.4.9-17.3,13.2-30.4,25.4-41.4Z"/>
      <path class="st1" d="M2427.2,1648.4l1.8-1.1c12.1,8.3,32.3,19.6,39.5,32.2-9.2,10.8-19.4,22.9-25.5,35.9-3.4,7.3-6.3,21.3-10.6,26.8-10.6-8.5-25.8-15.7-38.3-21.1,3.6-8.6,4.4-19.5,7.5-28.7,5.9-16.8,16.3-29.1,25.5-44Z"/>
      <path class="st1" d="M2194,1563.1c14.8,5.2,44.1,12.4,56.4,20-1.3,17.4-38.3,69.8-53.3,78-3.8-3.6-13.1-5.9-18.1-7.8,8.6-11.2,14.9-73.9,15-90.1Z"/>
      <path class="st1" d="M2314.6,1599.7c20.8,8.3,50.2,12.5,68.7,24.5.6,4.6-7.8,17.9-9.9,22.4-2.9,6-5.3,11.8-6.8,18.4-2.1,9.3-3.8,36.1-7.4,41.9-8.1-6.2-36.7-10.9-47.8-12.2,2.1-6.6-3-27.1-3.4-35.3-1.1-20.3,3.8-39.4,5.7-59.4l.9-.3Z"/>
      <path class="st1" d="M2058.3,1474.3c17.7,7,38.5,35.3,57.8,44.4l.3,1.3c-7.6,32.3-21.2,64.2-40.7,91.2-3.2,4.4-6.7,10-11.2,13-10.3-18.9-18.8-38.2-30.3-56.5,12.4-11.2,24.6-75.6,24.2-93.4Z"/>
      <path class="st8" d="M1173.2,1133.3c-1.2-11.9-3.5-23.7-4.2-35.7-69.1-99-162.9-150.7-284.2-149.8-66.1,1.5-131.4,21-186.2,58.3-11.2,7.7-21.5,17.9-33.4,24.3-23.5-11.9-52.7,10-58.1,33.4,0,5.2.3,8.8,5.2,11.8-1.1,18.4-20.4,12.9-11.5,56.4-50.4,36.5-84.6,113.9-6.4,140.6l.8.9c28,47.8,106,67.9,157.1,77.4,9.7,1.7,19.7,2.1,29.3,4.3,2.7.6,4.8,1.7,7.1,3.4,2.4-1.1,63.4,4.4,72.5,4.5,104.6,5,216.1-30,265.8-129l-.8-1.4c2.3-10,7.7-19.5,10.9-29.3,3.6-10.3,6.5-20.8,9.6-31.2,1.8,3.7,3.6,7.4,5.4,11.2,0,.1.1.2.2.3.2.4.3.7.5,1.1,3.2,7,6.2,14,8.7,21.3,1.4,4,2.7,8,3.8,12.1,3.5,11.5,3.7,24.3,6.8,35.8,8.7-36.5,5.3-83.2,1.5-120.6ZM656.1,1098.6c2.8,6.6,2.9,14.4.2,21.1-3.6,8.8-9.8,12.8-18.2,16.4-3.7.3-7.6.5-11.2-.5,3.4-7.3,5.9-14.4,6.7-21.6,2.5-7,5.3-14.3,5.6-21.9-.8-2.9-1.9-5.9-3.2-8.7,8.8,1,16.6,7,20.1,15.2Z"/>
      <path class="st2" d="M601.9,1190.8c2.8-.1,6-.4,8.6.9,4.4,2.3,7.9,7.3,9.5,12,1.1,3.2,2.3,7.7.8,10.7l-2.7-1.5c-4.1-4-8.2-10.7-13.2-13.4-2.8-1.5-4.4-1.2-7.4-.3l-1.3.4-.6-1.5c1.2-3.2,3.8-5,6.2-7.3Z"/>
      <path class="st2" d="M705.6,1204.4c6.2-.2,12.6-.1,17.4,4.2l-.8,1.8c-6.5,3.8-16.6,4.7-24,6.5-5.7,1.4-11.3,3.7-16.9,5.7,7.5-8.7,13.4-14.1,24.3-18.2Z"/>
      <path class="st2" d="M639.2,1092.2c-.2,7.6-3,14.9-5.6,21.9-.6,9-10.4,36.6-21,36.6-8.1-1.6-9.9-12-12-18.7-8.9-43.5,10.4-38.1,11.5-56.4,1.1-2.9,2.4-4.3,4.7-6.3,3.4-.7,5.7-.6,8.8,1.5,7.3,4.9,11.2,13.2,13.5,21.4Z"/>
      <path class="st5" d="M679.3,1063.3c.2,14.7-5.1,38.5-21.1,43.6-.8-11.8-10.4-22.2-22.2-23.5-2.4-5-5.7-9.5-10.4-12.7-3.1-2.1-5.4-2.2-8.8-1.5-2.3,2.1-3.6,3.4-4.7,6.3-4.9-3-5.1-6.6-5.2-11.8,5.4-23.4,34.5-45.3,58.1-33.4,9.8,9.7,14,18.9,14.2,32.9Z"/>
      <path class="st0" d="M644.5,1086.1c-2.6-1.4-5.6-2.4-8.5-2.6-2.4-5-5.7-9.5-10.4-12.7-3.1-2.1-5.4-2.2-8.8-1.5-2.3,2.1-3.6,3.4-4.7,6.3-4.9-3-5.1-6.6-5.2-11.8,22.5-17.5,34.8-1.4,37.5,22.3Z"/>
      <path class="st5" d="M781.8,965.3c34.2-11.2,67.1-16.3,102.9-17.4.2,14.3-5.3,23.4-15.2,33.6-20.5,21.2-69.2,52.4-99,52.9-10.5.2-17.6-4-16.2-15.5,1.5-19,17-38.1,27.4-53.6Z"/>
      <path class="st2" d="M900.6,1114.4c11.2-.7,20.7.3,30.5,6.2,9.2,5.6,16.3,14.6,19.6,25,9.2,27.7-9.2,60.8-38.5,65.5-15.7,1-31.8-3.2-42.8-15-14.5-15-17.6-39.9-7.1-58,8.6-14.6,22.9-19.9,38.4-23.7Z"/>
      <path class="st7" d="M897.2,1133.2c17.3-2.1,31.1,11.2,29.7,28.4-1,12.2-9.1,20-20.1,24.3-20.1,2.7-33.6-13.1-28.5-32.5,2.9-10.4,9.7-15.2,18.8-20.2Z"/>
      <path class="st5" d="M834.1,1146c-5.9,6.2-14.4,11.4-22.2,14.8-6.2,2.7-13.1,3.9-19.5,1.1-15.9-7.1-11.2-29-4.7-41.3,24.1-48.7,86.2-41.2,131.3-51.4,20.8-4.3,40.7-12,61.3-16.9,56.4-13.6,107.3.1,158,25.8,12.1,29.4,18.8,65.2,8.7,96.1-30.1-31.3-71.3-56.3-116-54.6-13.7.5-27.4,3.5-41,5.2-13.5,1.1-25.5-3.7-38-8-33-11.1-63-12-92.4,8.9-8.9,6.3-16.7,13.9-25.5,20.2Z"/>
      <path class="st0" d="M834.1,1146l-.5-1.7c-1.3,1-4.3,4-5.8,3.9,25-53.7,88.7-65.5,137.7-36.9,7.7,4.4,15.6,12.8,24.6,13.6-13.5,1.1-25.5-3.7-38-8-33-11.1-63-12-92.4,8.9-8.9,6.3-16.7,13.9-25.5,20.2Z"/>
      <path class="st5" d="M879.2,1258c28.8-1.3,55.9,10.5,84.7,4.6,22.4-4.6,37.6-18.6,56.5-29.9,31.7-18.1,76.1-27.1,105.6-.1l.8,1.4c-49.7,99-161.1,133.9-265.8,129-9.1-.1-70.1-5.6-72.5-4.5-2.3-1.7-4.3-2.8-7.1-3.4-9.6-2.1-19.6-2.6-29.3-4.3-51.2-9.5-129-29.6-157.1-77.4l-.8-.9,2-1.5c10.7.4,21.5,3.4,32.1,4.8,32.5,4.5,65.6,5.9,98.3,2.8,9.2-.9,18.3-2.1,27.4-3.7,23.4-3.9,108-27.3,125.2-17Z"/>
      <path class="st2" d="M594.2,1272.6l2-1.5c10.7.4,21.5,3.4,32.1,4.8,32.5,4.5,65.6,5.9,98.3,2.8,9.2-.9,18.3-2.1,27.4-3.7,23.4-3.9,108-27.3,125.2-17-24.6,5.3-48.7,13.6-73,20.1-72.4,19.5-140.4,23.4-211.2-4.7l-.8-.9Z"/>
      <path class="st8" d="M1169,1097.6c9.5,10.7,18.8,21.8,29.6,31.3,1.9,10.9,4.1,21.5,5.4,32.4,9.5,6.4,18.9,9.9,29.7,13.3.8-5.7,1.9-11.3,2.9-17,4.5.8,8.6,1,13.2.8,6.7-.1,13.4-.3,20.1-.6,19.9.2,40.2-1.6,60.1-2.8,11.9-1.9,24.5-2.1,36.5-2.8,23.6-1.4,47.3-2.7,70.9-3.7,18.6-1.2,78.7-2.3,95.7,2.2,38.3,3.4,76.1,10.3,113.7,17.9,36.7,6,90.6,22.9,125.4,37,28.9,10.1,70.1,24,95.3,41.1,27.6,12.2,56.2,26.7,80.8,44.3,10.5,6.5,89.9,54.1,91.5,59.6,4.6,1.6,75,46.6,76.1,48.3,11.2,22.2,8.8,96,.2,119.6-19.2-9.1-40.1-37.4-57.8-44.4.4,17.7-11.8,82.2-24.2,93.4-4.3-5.2-7.4-12.3-10.8-18.2-9.7-17-19.3-36.3-31.2-51.7-54.9-8.7-174.5,7.1-182.8,76.1-2.3,20.6,4.6,38.1,16.9,54.4-129.9,34.3-284.3,47.5-416.3,17-1.7,20.8-6.7,41.4-14.7,60.7-17.8,38.9-42.7,77.4-78.8,101.5,4.9,9.2,8.7,18.8,9.5,29.4.5,6.8-.4,24.7-5.3,29.8-7.9,8.3-40.6-29.1-47.4-35.4-8.3,6.1-53.5,44.9-56.6,45.8-2.6-.6-3.9-.8-5.5-3.3-7.6-11.6-4.5-32.5-2.2-45.5-30.8,6.2-60.9,14.8-91.6,21.6,6.1-21.8,18.7-35.6,35.8-49.6-18-3.3-36.1-4.5-54.3-6.8,16.5-17,40.2-28.5,63.4-31.6,12.3-1.7,24.3-2.4,35.9-7.4,10.7-4.6,48.5-56.4,53.1-68.8.4-1-.3-1.7-.7-2.6-64.1-11.1-156.9-35.2-212.8-68.5-14.3-10.4-31-18.4-45.8-28.4-36.2-24.6-65.2-53.4-94.3-85.8-39.1-45.2-66.6-99.7-109.2-141.8,2.3-1.1,63.4,4.4,72.5,4.5,104.6,5,216.1-30,265.8-129l-.8-1.4c1.9-8.5,6.3-16.7,9.3-24.9,4.3-11.7,7.6-23.7,11.1-35.6,8.7,17.6,16.5,34.9,20.5,54.2,1.9,9,2.3,18.9,4.8,27.6,11.3-49.5,2.8-106.3-2.7-156.3Z"/>
      <path class="st5" d="M1410.6,1513c2.2,1.1,4.4,1.6,5.1,4.1,2.8,10.1-4.7,27-8.6,36.3-1-1.9-2.1-3.9-2.1-6.1,0-7.7,4.8-24.1,5.7-34.4Z"/>
      <path class="st2" d="M1893.7,1376c17.1-1.6,26.3,6.9,30.6,22.9-2.2,9.5-4.5,14.7-13,20.1-10.4,1.6-21-6.1-26.3-14.5-6.7-11.3-3.1-22.9,8.7-28.5Z"/>
      <path class="st2" d="M1597,1287.7c-4.6,3.1-7.9,3.7-13.4,3.7-30.9-.1-48.8-30.4-25.2-53.9,14.2,16.2,27.3,31.9,38.6,50.2Z"/>
      <path class="st2" d="M1297.8,1263.1c4.4-.4,8.4-1,12.7.2,19.9,5.6,30.3,29.1,7.7,39.6-27.2,7.3-46.2-23.4-20.4-39.8Z"/>
      <path class="st2" d="M1531.4,1285.1c4.5-.3,8.5.4,12.6,2.3,10.6,4.5,16.4,16.8,10.7,27.3-4,7.5-10.7,10.1-18.3,12.2-5,.3-10.5-.5-15-2.8-10.2-4.9-14.3-17.4-8.4-27.1,4.2-7.2,10.9-9.7,18.4-11.9Z"/>
      <path class="st2" d="M2050.1,1381.5c-1.7,7.2-2.6,13.8-7.7,19.6-7.2,8.8-17.8,8.1-25.8.7-9.9-9-16.4-31.4-5.9-41.9,15-14.5,24.5,4.7,33.6,5.1,3.7,3.5,7.4,11.4,5.8,16.5Z"/>
      <path class="st2" d="M1293.2,1350.5c5.6-.5,11.7-1.1,17.2.2,10.9,2.2,24.4,12.2,20.5,24.8-2.6,7.4-9.9,11.6-16.6,14.6-8.8.6-16.7,1-24.8-3.2-6.4-3.4-12.3-9.1-14.2-16.3-3.2-11.7,8.1-18,17.8-20Z"/>
      <path class="st2" d="M1304.5,1418.1c10.4-16.1,34-25.6,50.8-13.4,14.9,12,18.1,34.3,15.5,52.2-20-18.3-40.3-30.7-66.3-38.8Z"/>
      <path class="st2" d="M1217.1,1370.3c4.8-.3,10.1-.8,14.8.5,24.3,7.2,31.9,34.5,7.1,47.2-13.1,1.4-26.4-8.7-32.5-19.7-6.4-12.4-2-22.7,10.6-28Z"/>
      <path class="st2" d="M1616.6,1231.1c9.9-7.9,19.7-13.5,32.8-11.9,10.4,1.2,22.1,6.8,28.5,15.2,3.4,4.5,4.9,9.9,3.9,15.5-4.6,20.9-32.2,18.5-48.7,16.9-5.1-12.1-10.7-23.9-16.4-35.7Z"/>
      <path class="st2" d="M1775.9,1271.3c.1,21.8-15.9,39.6-38.6,35.5-9-1.6-18.1-6.7-23.3-14.3-8.4-11.6-3.5-28.1,8.1-35.5,13.6-8.6,27.9-3.1,42.1,0,3.9,4.8,8,9.4,11.8,14.4Z"/>
      <path class="st2" d="M1329.9,1155.1c11.9-1.9,24.5-2.1,36.5-2.8,23.6-1.4,47.3-2.7,70.9-3.7,17.9,8.5,36.4,16.8,52.5,28.5-10.6,2.5-25.3.3-36.3-.2-22.3-1-59.8-3.1-81,.2-13.7-8.4-27.8-15.8-42.6-22.1Z"/>
      <path class="st2" d="M1533,1150.8c38.3,3.4,76.1,10.3,113.7,17.9,19.8,10.9,40.4,21.7,58,36-12.3,2.7-53.6-11.5-69.1-14.5-17.5-3.4-36.2-6.3-54.1-6.2-15-13.2-31.4-23-48.5-33.2Z"/>
      <path class="st2" d="M1622.5,1521.6c-.1-18.5-3.9-44.1,11.8-57.6,5.6-4.8,13.2-7.1,20.5-6.2,19.2,1.8,31.7,19.8,30.9,38.4-.2,5.2-.7,10.5-1.4,15.7l-.6.4c-20.3,3.7-40.7,6.9-61.1,9.4Z"/>
      <path class="st8" d="M658.3,1109.2c0,13.4-8.2,22.3-20.2,27-3.7.3-7.6.5-11.2-.5,2.8-5.8,5-12.2,6.1-17.5,8.8.6,12-10.9,4.3-14.9,1-3.6,1.6-7.1,1.9-11.1.3,5.9,2.1,8,6,12.1,3.7,2.8,8.5,3.8,13,2.6,0,.7.1,1.5.1,2.2Z"/>
      <path class="st5" d="M658.2,1106.9c-4.5,1.2-9.3.2-13-2.6,0-5.5,0-11.9-.7-18.2,7.8,3.9,13,12.1,13.7,20.8Z"/>
      <path class="st0" d="M645.2,1104.3c-3.9-4.1-5.7-6.3-6-12.1-.8-2.9-1.9-5.9-3.2-8.7,2.9.3,5.9,1.2,8.5,2.6.7,6.3.8,12.7.7,18.2Z"/>
      <path class="st7" d="M639.2,1092.2c-.2,7.6-3,14.9-5.6,21.9-.8,7.2-3.3,14.2-6.7,21.6-14.7-3.6-21.1-18-17.2-32.1,2.9-10.4,9.7-15.2,18.8-20.2,2.6-.2,5.1-.2,7.5,0,1.3,2.8,2.4,5.8,3.2,8.7Z"/>
      <path class="st8" d="M641.7,1110.3c0,4.6-4.1,8.3-8.7,7.9.3-1.5.5-2.9.6-4.1.8-2.4,3.1-8.5,3.7-10.8,2.6,1.3,4.3,4,4.3,7Z"/>
      <path class="st6" d="M637.3,1103.3c-.6,2.3-2.9,8.5-3.7,10.8-.1,1.2-.3,2.6-.6,4.1-4.1-.3-7.3-3.7-7.3-7.9-.1-5.8,6.5-9.8,11.6-7Z"/>
      <path class="st2" d="M1506.8,1521c-4.4-19.6-7.9-45.2,12.4-57.4,9.1-5.5,20.8-5.8,30.5-1.6,13.1,5.5,20.4,18.7,22.4,32.2,1.3,7.7,3.5,22.9.5,30.1-22-.7-43.9-1.2-65.7-3.4Z"/>
      <path class="st2" d="M1741.1,1499.6c-1.6-22.9-13.8-49.9,3.6-69.5,8.2-8.8,21.6-11.5,32.9-7.8,23.6,8.2,25.3,34.4,24.7,55.7l-.3.7c-15.5,7-44.1,19.4-60.9,20.9Z"/>
      <path class="st5" d="M1867.4,1246.8c27.6,12.2,56.2,26.7,80.8,44.3,6.6,10.2,16.5,19,23.9,28.7,16.2,21.3,32,51.5,27.8,79-.5,3.2-1.2,5.2-3.8,7.1-3.9-.2-6.2-1-8.6-4.4-7.7-10.4-12.5-24.1-19.4-35.3-18.6-30-53.5-76-79.5-99.7-6.4-7.1-14.4-13-21.1-19.8Z"/>
      <path class="st2" d="M1417,1515.7c2.1-24.7-11.5-61.6,8.6-80.5,4-3.3,8.9-4.4,14-3.7,10.8,1.6,21,11,27.1,19.6,14.4,20.3,12.3,43.9,8.3,67.1l-.5.4c-5.9-1-12.8-.6-18.9-.8-12.9-.4-25.7-.8-38.5-2.2Z"/>
      <path class="st2" d="M1417.9,1218.8c14.1-14.3,25.8-18,45.7-18.1,17.9,0,40.2,2,53.7,15.1,10.1,9.5,10.9,24.2.8,34.1-20.8,18.9-53.1,13.5-77.9,6.8-6.7-13.2-13.7-25.9-22.3-38Z"/>
      <path class="st2" d="M1840.2,1300.7c-9.4-23.1-22.5-48.1-39.2-66.7-6.9-7.7-25.3-21-28.9-28.4,28.9,10.1,70.1,24,95.3,41.1,6.8,6.8,14.8,12.7,21.1,19.8,4.3,13.8,14.1,24.4,6.2,39.9-2.6,5.1-6.7,8.8-12.2,10.6-7.8,2.4-17.1,0-24-3.7-6.4-3.5-12.1-8.6-18.3-12.6Z"/>
      <path class="st2" d="M1955.4,1451.3c3.4-9.2,6.6-22.7,14.3-29.2,5.7-1.9,12.2,1.5,17.2,4.1,25.8,13.2,48.1,28.8,71.2,46.1l.3,1.9c.4,17.7-11.8,82.2-24.2,93.4-4.3-5.2-7.4-12.3-10.8-18.2-9.7-17-19.3-36.3-31.2-51.7-8.2-17.3-23.1-33.3-36.7-46.5Z"/>
      <path class="st5" d="M1236.5,1157.6c4.5.8,8.6,1,13.2.8,4.8,5.4,8.5,11.1,12.3,17.3,4.8,10.6,9.5,21.2,12,32.7,8.2,42.5,6.2,93.3-25.4,126.3-12.8,13.1-28.7,17.5-46.4,12.6l-3.5-1.3c21.6-30.4,42-60,32-98.8,1.5-24.2,2.5-48.4,2.9-72.6.8-5.7,1.9-11.3,2.9-17Z"/>
      <path class="st5" d="M2039.7,1350.7c4.6,1.6,75,46.6,76.1,48.3,11.2,22.2,8.8,96,.2,119.6-19.2-9.1-40.1-37.4-57.8-44.4l-.3-1.9c1.9-4.5,1.8-9.4,2-14.3.4-15.2.1-65.9-10-76.6,1.6-5.1-2-13.1-5.8-16.5,1.7-4.5-2.5-10.4-4.6-14.3Z"/>
      <path class="st5" d="M1646.7,1168.7c36.7,6,90.6,22.9,125.4,37,3.6,7.4,22,20.7,28.9,28.4,16.7,18.6,29.8,43.6,39.2,66.7,5.2,14.7,14.1,49.9,4.2,63-2.8,1.6-3.3,1.6-6.6,1.5-11.9-10.3-25.4-40-34.5-54.6-25.6-40.8-57.4-80.1-98.7-106-17.6-14.3-38.2-25.1-58-36Z"/>
      <path class="st5" d="M1437.3,1148.6c18.6-1.2,78.7-2.3,95.7,2.2,17.1,10.1,33.5,19.9,48.5,33.2,13.6,14.8,25.3,29.5,35,47.1,5.8,11.8,11.3,23.6,16.4,35.7,5.7,17.3,16.6,51.6,9.2,69-1.2,2.8-2,3.2-4.8,4.2-15.5-3.4-30-39.4-40.4-52.3-11.3-18.4-24.4-34.1-38.6-50.2-14.2-19.6-47.4-47.8-68.7-60.4-16.1-11.7-34.6-20-52.5-28.5Z"/>
      <path class="st5" d="M1269.8,1157.9c19.9.2,40.2-1.6,60.1-2.8,14.9,6.3,28.9,13.7,42.6,22.1,17.5,12.3,31.4,25.6,45.4,41.7,8.6,12.1,15.6,24.7,22.3,38,12.3,27.9,25.8,64.6,21.1,95.7-.6,4.1-1.4,7-4.9,9.5-4.1-.7-6.2-3.9-8.5-7.2-8.3-12-14.3-25.9-22-38.4-14.7-23.5-31.5-45.5-48.6-67.3-2.2,8.8-5.1,13.2-14.4,15.3-18,3.5-38.4-9.9-52.9-19.2-9.8,1.6-18.9,6.3-29,5.4-2.8-2-2.4-3.4-3-6.7-.1-11.7-2.1-23.9-4.2-35.4-2.5-11.5-7.2-22-12-32.7-3.8-6.2-7.5-11.8-12.3-17.3,6.7-.1,13.4-.3,20.1-.6Z"/>
      <path class="st8" d="M1249.7,1158.5c6.7-.1,13.4-.3,20.1-.6,8.3,5.6,16.8,11,24.8,16.9,17.4,11.8,33.7,25.1,48.8,39.8-27-7.8-40.9-13.6-69.5-6.1-2.5-11.5-7.2-22-12-32.7-3.8-6.2-7.5-11.8-12.3-17.3Z"/>
      <path class="st2" d="M1249.7,1158.5c6.7-.1,13.4-.3,20.1-.6,8.3,5.6,16.8,11,24.8,16.9-10.8,1.2-21.8.9-32.7,1-3.8-6.2-7.5-11.8-12.3-17.3Z"/>
      <path class="st2" d="M1273.9,1208.4c28.6-7.5,42.5-1.6,69.5,6.1,12.2,10.4,24.1,21.8,33.9,34.5-2.2,8.8-5.1,13.2-14.4,15.3-18,3.5-38.4-9.9-52.9-19.2-9.8,1.6-18.9,6.3-29,5.4-2.8-2-2.4-3.4-3-6.7-.1-11.7-2.1-23.9-4.2-35.4Z"/>
      <path class="st5" d="M1187.4,1457.6c26.9-37.2,74.2-46.7,117.1-39.5,25.9,8.1,46.3,20.5,66.3,38.8,9.3,10.1,17.9,20.5,25.4,31.9,4.1,6.3,9.7,19.6,14.4,24.2-.8,10.3-5.7,26.7-5.7,34.4,0,2.2,1.1,4.2,2.1,6.1,2.5,7.9,2.9,16.4,3.4,24.6-14.6-6.1-27.2-13.6-39.7-23.4-34.8-27.1-69.6-71.3-118.7-68.1-30.2,2-50.1,22.2-68.9,43.5-5.5-22.6-6.4-51.4,4.3-72.5Z"/>
      <path class="st5" d="M1802.4,1478c9.8-7.5,18.4-16.5,28-24.2,18-14.6,41.7-22.8,64.7-24.9,25.1-2.3,41.7,7,60.4,22.4,13.6,13.1,28.5,29.2,36.7,46.5-54.9-8.7-174.5,7.1-182.8,76.1-2.3,20.6,4.6,38.1,16.9,54.4-129.9,34.3-284.3,47.5-416.3,17,.6-11.7,1.1-23.2.2-34.9,40.5-7.3,55.7-57.1,64.4-91.7l.5-.4c10.6.8,21.3,1.4,31.9,2.8,7.6,43.1-10.7,71.7-34.3,105.2.7,2.6.8,2.3,3.1,3.7,49.4.5,94.6-58.4,97.1-104.8,10.3-2.3,37.4-2.2,50.1-3.3-1.1,22.6-6.5,46.3-12.9,68-2.7,9-6.3,18.1-8.5,27.2-.6,2.6-.1,4.7,1.5,6.9,1.6,2.1,4.5,3.4,7,3.9,45.4,2.4,66-81,73.8-115.5l.6-.4c19-2.9,37.6-7.2,56.3-11.4,5.3,30.5-28.3,82.8-18.8,97.3,6.8,8.7,22.6-3.6,28.3-8.7,28.7-25.8,49.9-72,51.9-110.3l.3-.7Z"/>
      <path class="st5" d="M1169,1097.6c9.5,10.7,18.8,21.8,29.6,31.3,1.9,10.9,4.1,21.5,5.4,32.4,9.5,6.4,18.9,9.9,29.7,13.3-.5,24.2-1.4,48.4-2.9,72.6,10,38.7-10.5,68.5-32,98.8l3.5,1.3c-5.5,18.4-8.8,36.7-10,55.8-23,21.9-50.6,41-81.8,48.7-10.4,2.6-22.7,2.9-32.5,7.4-7.6,3.1-12.9,12.7-5.9,19.2,8.5,8,29,8.7,39.9,7.9,35.5-2.6,46.8-20.1,75.6-28.8-10.6,21-9.8,49.9-4.3,72.5,12.2,55.1,28,110.5,67.5,152.8-64.1-11.1-156.9-35.2-212.8-68.5-14.3-10.4-31-18.4-45.8-28.4-36.2-24.6-65.2-53.4-94.3-85.8-39.1-45.2-66.6-99.7-109.2-141.8,2.3-1.1,63.4,4.4,72.5,4.5,104.6,5,216.1-30,265.8-129l-.8-1.4c1.9-8.5,6.3-16.7,9.3-24.9,4.3-11.7,7.6-23.7,11.1-35.6,8.7,17.6,16.5,34.9,20.5,54.2,1.9,9,2.3,18.9,4.8,27.6,11.3-49.5,2.8-106.3-2.7-156.3Z"/>
      <path class="st8" d="M1203.9,1161.3c9.5,6.4,18.9,9.9,29.7,13.3-.5,24.2-1.4,48.4-2.9,72.6-11.2-12.5-23.1-12.5-37.6-6,8.9-26.4,12.6-52,10.9-79.9Z"/>
      <path class="st2" d="M1193,1241.2c14.5-6.5,26.4-6.5,37.6,6,10,38.7-10.5,68.5-32,98.8-36,41.1-85.6,85.6-143.8,83.1-8.4-.6-18.7-2.2-24.5-8.9-.7-2.4-1.3-3.5-.6-6,3.1-11.5,44.4-19.4,57.2-26.4,52.1-28.5,89.8-90.9,106.1-146.5Z"/>
      <path class="st0" d="M1146.4,1172.1c8.7,17.6,16.5,34.9,20.5,54.2,1.9,9,2.3,18.9,4.8,27.6-6.3,55.8-51,94.7-101.6,112.5-5.5,5.8-14.5,9.3-21.7,12.5-43.8,19.1-92.1,24.2-139.5,25.8,35.7,94.8,108.6,162.9,204.6,195.4,32.1,11.7,65.3,20.2,99,25.3,10.7,21.7,21.9,39.5,38.1,57.5-64.1-11.1-156.9-35.2-212.8-68.5-14.3-10.4-31-18.4-45.8-28.4-36.2-24.6-65.2-53.4-94.3-85.8-39.1-45.2-66.6-99.7-109.2-141.8,2.3-1.1,63.4,4.4,72.5,4.5,104.6,5,216.1-30,265.8-129l-.8-1.4c1.9-8.5,6.3-16.7,9.3-24.9,4.3-11.7,7.6-23.7,11.1-35.6Z"/>
      <path class="st2" d="M1146.4,1172.1c8.7,17.6,16.5,34.9,20.5,54.2,1.9,9,2.3,18.9,4.8,27.6-6.3,55.8-51,94.7-101.6,112.5-12.7,2.7-40,10.8-50.7,1.9-1-2.6-.9-3.1-.5-5.8,1.3-2.4,2.9-3.7,5.3-5,7-3.8,15.3-5.9,22.7-9.1,32.9-15.1,78.4-40,86.8-78.1,2.6-13.3.7-25-6.9-36.3l-.8-1.4c1.9-8.5,6.3-16.7,9.3-24.9,4.3-11.7,7.6-23.7,11.1-35.6Z"/>
      <path class="st6" d="M910.3,1160.1c0,4.4-3.6,7.9-8,7.9-10.6-.4-10.6-15.4,0-15.8,4.4,0,8,3.5,8,7.9Z"/>
    </g>
  </g>
</svg>