<?xml version="1.0" encoding="UTF-8"?>
<svg id="svg1" xmlns="http://www.w3.org/2000/svg" xmlns:svg="http://www.w3.org/2000/svg" xmlns:sodipodi="http://sodipodi.sourceforge.net/DTD/sodipodi-0.dtd" xmlns:inkscape="http://www.inkscape.org/namespaces/inkscape" version="1.1" viewBox="0 0 4000 4000">
  <!-- Generator: Adobe Illustrator 29.2.1, SVG Export Plug-In . SVG Version: 2.1.0 Build 116)  -->
  <defs>
    <style>
      .st0 {
        fill: #7b291f;
      }

      .st1 {
        fill: #e7e7e6;
      }

      .st1, .st2 {
        display: none;
      }

      .st3 {
        fill: #cfada6;
      }

      .st2, .st4 {
        fill: #fff;
      }

      .st5 {
        fill: #88342d;
      }

      .st6 {
        fill: #df753a;
      }

      .st7 {
        fill: #551c16;
      }

      .st8 {
        fill: #100f0d;
      }

      .st9 {
        fill: #9c4539;
      }
    </style>
  </defs>
  <sodipodi:namedview id="namedview1" bordercolor="#000000" borderopacity="0.25" inkscape:deskcolor="#d1d1d1" inkscape:pagecheckerboard="0" inkscape:pageopacity="0.0" inkscape:showpageshadow="2" pagecolor="#ffffff">
    <inkscape:page id="page1" x="0" y="0" width="4000" height="4000" bleed="0" inkscape:label="1" margin="0"/>
  </sodipodi:namedview>
  <g id="g1" inkscape:groupmode="layer" inkscape:label="1">
    <g id="group-R5">
      <path id="path2" class="st2" d="M0,4000h4000V0H0v4000Z"/>
      <path id="path3" class="st1" d="M2325.2,2838.1c-120.3,0-246.4-3.1-376.2-9.5-825.9-41-1489-202.9-1481.1-361.4,6.6-133.7,487.9-222.4,1133.5-222.4s246.4,3.1,376.2,9.5c825.9,41,1489,202.9,1481.1,361.4-6.6,133.7-487.9,222.4-1133.5,222.4"/>
      <path id="path4" class="st4" d="M2998.9,2311.1s569.3-150.1,595.7-388.6c-282.4,47.1-696.9,188.4-779.1,337.7-82.2,149.3,183.3,50.9,183.3,50.9"/>
      <path id="path5" class="st5" d="M1561,2542.9c-9.4-3-19.3-3.9-28.8-7,28.8-6,59.6,1.9,88.6-2.9-23.4-9.3-48.8-10.5-73.7-7.8-11.5,1.2-25.4,4-36.7,1.1-12.2-3.1-31.8-8.1-41.1-16.7,13,.4,28.4,2.3,41.2,0,14.8-2.7,30-10.7,44.1-16.1,43.9-17,84.5-17.1,123.6,10.8-18.6,5.6-36.2,11.1-53.8,19.6,24,12,51.7,23,61.1,50.7,2.5,7.5,3.7,17.3,1.2,24.9l-2.2,1.8c-13.2-7.6-27.2-16.3-41.8-20.5-11.1-3.3-23.3-3.9-34.8-4.9-14.1-13.9-27.5-26.8-46.9-32.9"/>
      <path id="path6" class="st3" d="M2263.8,2428.5l-21.7,39.5c4.4,13,12.3,28.8,14.2,42.2-49.6-5.2-98.7-18.1-146.4-32.2-41.9-12.4-83.5-25.6-124.1-41.8,87.7-24.6,181.7-13.1,271.5-10.1l6.5,2.3"/>
      <path id="path7" class="st5" d="M2946.6,2350.2c22.1,51.2,42.5,99.5,76,144.6,32.9-10.4,67.7-19.4,100.3-2.5,10,5.2,18,12.2,24,21.7l-.4,2.7c-10.8,3.4-23,2.8-34.1,4.3-11.7,1.6-23.3,5.1-34.5,8.6,21.2,3.7,42.3,12.2,55.1,30.3,9.2,13,11.4,32.9,8.3,48.3-.8,3.9-1.4,7.3-4.5,9.8-8-4.9-14.6-11.5-22.4-16.7-20.3-13.5-45.2-22-69.7-23.1,8.8,17.7,15.8,34.9,9.1,54.6-4,11.8-11.6,21.9-20.1,30.8-15.9-30.1-35.9-52.8-64.7-71.1-28.5,18.9-53.1,43-85.7,55,3.8-24.6,8.8-48,17.3-71.4,1.6-4.4,13.2-29.4,12.7-31.7-.5-2.1-4.4-6.7-5.7-8.6-10.2-14.2-23.4-26.9-35.3-39.8l-64.5-69.9,138.7-76"/>
      <path id="path8" class="st3" d="M2869.6,2282.3c41.9,16.2,84.8,24,129.3,28.7l-52.3,39.1-138.7,76-70,26.2c-82.1,27.5-168.7,49-254.9,58.1-25.7,2.7-51.9,3.2-77.7,4.1-1.4-1.9-1-1.8-.8-4l98.6-89.1c34.2-9.8,66.8-19.8,99.7-33.6,73.3-30.8,139.9-72.4,203.4-119.9l9.5-7.8,1.1-.4c18,6.6,35,15.7,52.9,22.6"/>
      <path id="path9" class="st9" d="M2369.7,1995.1c-46,8.8-93.1,10.3-139.5,4l-319.2-58.1c-103-14.5-211.2-11.9-313.9,3.8-104.4,16-206.4,44.2-309.3,67.3l-141,28.1c-25.9,4.3-53.7,9.2-79.9,10-14.5.4-30.4,1.2-44.8-.4-6.1-.7-12.5-3.4-18.3-3.7-9.1-.4-28.9,3.8-36.1-.6,63,1,125.1-13.2,185.4-30.5l234.9-76.3c79.5-24.3,158.4-40.5,241-49.9,133.2-15.2,267.6-3.2,398.5,23.5l228.5,51.2c48.8,9.6,98.6,15.9,148.1,20.6-9.7,7.4-22.7,8.8-34.4,11"/>
      <path id="path10" class="st9" d="M1588.1,2313.1c1.9,19.7-.6,38.8-2.1,58.2l-22.7,3.7-.5.9c-14.2,25.6-23.5,51-41.5,74.8-7.8,10.3-16.3,20.3-25.5,29.3-8.3,8.1-21.9,18.2-27.1,28.3l.8,1.4c9.3,8.7,28.9,13.6,41.1,16.7,11.3,2.8,25.2.1,36.7-1.1,24.9-2.7,50.3-1.5,73.7,7.8-29,4.7-59.8-3.1-88.6,2.9,9.5,3.1,19.4,4,28.8,7,19.4,6.1,32.7,19.1,46.9,32.9,12.4,17.9,25.5,34.8,26.6,57.4.4,7.5,1,16.8-4.3,22.7-11.7-8.6-22.4-18-34.9-25.7-20-12.4-41.7-20.2-64.1-26.4,7.2,13.2,14.1,25.5,13.4,41-.5,13.7-7.9,22.6-17.5,31.5-14-20.3-28.7-39.8-48.2-55.3-26-20.6-57.3-31.6-88-42.9-16.3-6-33.6-11.7-47.1-23.1-34.6-29.4-24-90.9-27-131.5-2.2-12.6-2.2-26.5-2.9-39.3-2.8-53.3,3.2-112.6,33.6-158.1,19.7-29.4,47.7-48.7,82.3-55.7l-2.1-5.8c40.3-.6,73,.9,103.6,30.7,12.5,12.2,23.3,25.2,31.3,40.9,11,24.1,22.9,50.3,25.4,77"/>
      <path id="path11" class="st7" d="M1588.1,2313.1c1.9,19.7-.6,38.8-2.1,58.2l-22.7,3.7c.3-12.2,3.7-23.1,5.1-35,1.4-11.3.9-23.7.5-35.1-1.3-36.2-15.3-78.4-42.5-103.4-29.3-26.9-58-33.1-96.5-31.1l-2.1-5.8c40.3-.6,73,.9,103.6,30.7,12.5,12.2,23.3,25.2,31.3,40.9,11,24.1,22.9,50.3,25.4,77"/>
      <path id="path12" class="st9" d="M1098.4,1567.1c-18,41.8-30.1,84-52.7,124-15.5,27.4-32.7,53.9-50.8,79.7-21,30-125.8,160.4-113.8,194-5.7,9.8-3.8,25-1.1,35.6,2.4,9.3,5.3,20.1,13.1,26.2,9.5,11.9,45.7,16.2,60.7,17.9l13.9,1c7.1,4.4,27,.1,36.1.6,5.8.3,12.3,3,18.3,3.7,14.4,1.6,30.3.8,44.8.4,26.2-.8,54-5.7,79.9-10l141-28.1c102.9-23.1,204.8-51.3,309.3-67.3,102.7-15.7,210.9-18.4,313.9-3.8l319.2,58.1c46.4,6.3,93.5,4.8,139.5-4,11.7-2.2,24.7-3.6,34.4-11l73.6-1.9c12.7-1.7,25.9,0,38.6-1.9,8.6-1.3,19.1-6,26.9-10,46.6-23.9,74.7-77.8,106.6-117.2,46.3-57.2,100.8-110.3,166.5-144.7,89.5-46.7,190.7-70.7,291.7-69.3,23.6.3,47.9,1.9,71.2,6.2l27.4,5.4c2.5.5,8.7,2.6,11,2.2,6-1,15.9-8.6,22.3-11.2,34-14.1,72.7-5.9,105.3,7.5,26,14.3,44.5,32.4,52.8,61.4,2.2,7.8,3.5,16,4.2,24.1,5.8,6.8,16,11.1,23.8,15.5,54.1,30.5,120.4,46.3,149.5,107.3,5.5,11.6,9.5,23.7,11.9,36.3,1.2,6.2,1.2,14.1,3.2,19.9l4.1,8.5c3.5,31.1-6.4,54-25.7,78.4-39.9,50.3-104.9,75.6-162.5,99.1-31.1,12.7-61.6,27.3-93.4,38.1-118,40.3-242.9,62.9-364.3,90.4l-95.2,21.6c-11.2,2.6-26.7,4.2-36.7,9.6l-1.1.4-9.5,7.8c-63.5,47.5-130.2,89.1-203.4,119.9-32.9,13.8-65.5,23.8-99.7,33.6l-98.6,89.1c-.2,2.2-.6,2.1.8,4-1.6,5.5,49.8,109.9,57,125.3,28.5-7.9,58.2-18.1,88.1-17.7,18.5.3,41.3,5.1,54.5,19.2,2.2,2.4,5.6,5.6,5.5,8.9l-63.7,27.3c15.7,3.8,29.3,9,41.6,19.9,22.1,19.5,25.1,47.1,27.1,74.6-32.7-23.6-70.3-34.9-109.8-41,8.6,12.2,17,25.1,18.9,40.2,3.6,28-5.5,44.5-21.9,65.6l-4.1-14.9c-11.4-33.5-43.8-54.6-74.3-69.4-.9-.4-8.3-4.3-8.8-4.2-.9.2-4.8,5-5.9,6.2-5.9,6.1-12,11.7-18.6,16.9-17.9,14.2-36.3,21.9-57.6,29.2-1-35.7,3-58.6,27.6-85.6-17.3-45.1-44.3-87.7-67.1-130.3-12.8-24-23.4-49.8-36.9-73.3l-.7-1.2c-1.9-13.3-9.8-29.2-14.2-42.2l21.7-39.5-6.5-2.3c-89.7-3-183.8-14.5-271.5,10.1l-93.3-33c-61.3-20-126.6-35-191.2-37.8-38.6-1.7-77.1,1.7-115.4,5.7,1.5-19.4,4.1-38.5,2.1-58.2-2.6-26.6-14.4-52.9-25.4-77-7.9-15.7-18.7-28.8-31.3-40.9-30.6-29.8-63.3-31.3-103.6-30.7l2.1,5.8c-34.6,7.1-62.6,26.3-82.3,55.7-30.4,45.5-36.4,104.9-33.6,158.1.7,12.8.7,26.7,2.9,39.3l-184.8,36.1c-154.1,16.3-320.7-12.7-459.5-82-32.4-16.2-65.4-34.5-93.7-57.4-79.5-64.5-121.7-165.3-131.8-265.3-1.9-19.2-5.8-59.4,6.4-74.3l-.6-1.6c-5.1-13.8,6.4-39.4,11.1-53,39.2-113.4,129.1-198.4,217-275.6,43.9-38.6,89.2-76,128.3-119.7,33-36.8,54.8-74,74.4-119.2-2.3-.7-4.6-1.8-6.2-3.6-4.9-5.5-8.5-13.3-12.8-19.5-8.8-12.5-18.2-24.5-28.4-35.9-19.5-21.9-40.6-40.7-64-58.3-38.3-28.8-81.1-51.1-124.4-71.3-114.7-53.4-243.3-90-370.3-94-46.9-1.5-93.1,3.8-139.5,10.5,7-4.4,13.7-8.7,21.5-11.5,2.6-6,10.6-10.1,16-13.8,25.1-17.2,53-30.4,81.3-41.4,38.2-14.8,78.6-24.5,118.7-31.7,152.3-27.6,316.3-8.9,457.9,53.8,106,46.9,211.1,131,253.8,242,20.9,54.4,27.9,113.2,20.7,171.1-2.3,18.7-9.6,39.3-9,57.9l-.6,1.3"/>
      <path id="path13" class="st8" d="M3511.9,1888.3c-1.2,4.9-2.7,5.3-7,7.9l-.5.2c-9.5-5.6-19-11-22.4-22.2-.9-2.9-1.1-5.8-1.1-8.8,2.4-1.7,2.5-2.4,5.5-2.4,10.7,6.6,21.8,12.4,25.6,25.3"/>
      <path id="path14" class="st7" d="M2274,2410.3c0-6,5.5-13.2,8.4-18.2,7.5-13,15.1-26,24.9-37.5,17.1-20.2,37.9-36.9,56.6-55.6,12.9-9.2,25.2-18.8,39.9-24.9-32,28.2-62.5,55.9-90.1,88.7-13.8,16.4-25.3,34.7-39.4,50.9l-.3-3.3"/>
      <path id="path15" class="st7" d="M2806.1,2268c-10-6.3-20.7-12.2-29.9-19.6-23.9-19.2-41.2-43.1-58.3-68.2-14.7-28.6-23.2-57.1-31.3-88.1,9.1,18.7,16.4,38.1,26.1,56.5,16.1,30.6,37.1,56.2,62.2,79.9,12.5,11.7,29.1,19.7,40.8,31.7l-9.5,7.8"/>
      <path id="path16" class="st7" d="M3398,1710.7c2.2,7.8,3.5,16,4.2,24.1-14.4-1.1-53.5-29.1-66.4-38.6-11.4-1.8-14.2-4-21.3-13-5.1.9-17.1-6.7-22.3-9.2,16.6-18.6,28.2-23,53-24.7,26,14.3,44.5,32.4,52.8,61.4"/>
      <path id="path17" class="st4" d="M3314.5,1683.1c4.1-4.6,7.3-9,13.6-10.3,5.8,1.1,6.3,1,10.1,5.4,2.4,6.3-.4,12-2.5,18-11.4-1.8-14.2-4-21.3-13"/>
      <path id="path18" class="st7" d="M3594.7,1922.5l-5,6.4c-12.4,14.2-29.7,24.9-45.7,34.6-36.7,22.4-78,38.4-118.7,51.7-57.7,18.9-113.1,31.9-173.8,36.7-21.8,1.7-48.3,4.7-68.5-5.4-7.9-4-14.5-10-21.2-15.7,79.9,11.8,159.2,1,236.2-21.6,47.7-14,93.6-31.8,136.7-56.7,19.6-11.4,37.6-25.2,55.9-38.6l4.1,8.5"/>
      <path id="path19" class="st0" d="M1787.6,2060.5c3.9,5.5,5.1,12.6,3.4,19.2-2.3,9-14.7,19.8-22.8,24-25.4,13.2-61.2,20.2-89.3,11.9-11.8-3-27.4-8.3-34-19.4-2.5-4.2-3.8-9.4-2.4-14.1,3.4-10.8,13.4-17.8,23.2-22.4,26-12,57.2-15.4,85.6-14.2,11.7,1.6,28.9,4.7,36.3,15.1"/>
      <path id="path20" class="st0" d="M1968.4,2090.4c4.2,7,4.7,13,2.5,20.7-4.5,15.8-16.1,28.6-30.4,36.3-28.5,15.3-59.6,20.4-91.6,16.6-12.6-2.7-27.5-5.5-34.9-17.4-3.3-5.3-4.2-11.9-2.6-17.9,4.4-16.4,29.5-31.3,43.8-38.1,24.9-12,54.5-17.8,82-15,10.3,2.4,25.3,5.1,31.2,14.9"/>
      <path id="path21" class="st0" d="M1098.4,1567.1c-18,41.8-30.1,84-52.7,124-15.5,27.4-32.7,53.9-50.8,79.7-21,30-125.8,160.4-113.8,194-2.1-2.1-4.9-4.7-5.6-7.7-2.9-12.1,1.6-37.4,4.2-49.7,22.3-107.1,100.8-176.8,163.5-260.3,19.4-25.8,33.2-54.2,50.3-81.3h5.6s-.6,1.4-.6,1.4"/>
      <path id="path22" class="st0" d="M2178.2,2115.1c2.9,6.2,1.2,16.5-1.6,22.5-11.8,25.5-41.1,43.1-66.7,52.2-24.1,8.5-46.3,11.9-71.7,9.9-10.3-2.1-21.1-3.9-27.5-13.2-4.2-6-5.4-15.6-3.6-22.7,4.6-19.1,28-36.9,44.5-45.9,27.8-15.1,64.1-26.1,96.1-21.2,10.8,3.2,25.3,7,30.5,18.3"/>
      <path id="path23" class="st7" d="M3078.7,1842.8c12,21.5,17.1,45.2,10.1,69.3-6.5,22.5-22.2,41.2-42.7,52.4-16.8,9.2-35,10-53.6,8.3-23.9-7.2-45.7-18.5-57.7-41.6-11.9-22.8-15.3-47.6-7-72.2,6.9-20.4,21.1-38.7,40.8-48.1,17.1-8.2,34.3-8.5,52.8-8,23.2,6.4,45.3,18,57.4,39.7"/>
      <path id="path24" class="st4" d="M3031.5,1866.2l-1.5-.5c-1.5-.5-2.9-1.1-4.3-2-5.5-3.9-8.8-9.7-9.7-16.3,2.3-7.8,3.8-12.8,10.3-18.2,5.8-2.2,11.1-3.5,17-.8,5.8,2.6,10.9,9.2,12.8,15.2,1.5,5,.5,9.4-2.1,13.8l-5,7.8c-5.6,1.1-11.8,2.9-17.5,1.1"/>
      <path id="path25" class="st8" d="M3025.7,1863.6c1.3.9,2.8,1.5,4.3,2l1.5.5c5.6,1.8,11.8,0,17.5-1.1.8,6.7,1.5,13.5,1.1,20.3-.6,13-4.7,19.8-14.3,28.4-7.8,7-17.1,9.1-27.3,8.5-12.9-.7-24-4.1-32.6-14-8.6-9.9-11.2-21.4-9.9-34.3,1-9.7,7.2-18.3,14.7-24.1,7.3-5.7,17.2-10.8,26.7-9.1,5.1.9,5.7,2.7,8.6,6.6.8,6.6,4.2,12.4,9.7,16.3"/>
      <path id="path26" class="st4" d="M3007.9,1878.8c-2.9,6-8.3,8.4-13.8,11.5-2.8-5.9-5.8-10.8-4.5-17.7,4.8-4.6,6.2-5.5,12.6-7.3,3.6,4.6,5.5,7.4,5.7,13.4"/>
      <path id="path27" class="st0" d="M877.4,1407.7c-4.9-5.5-8.5-13.3-12.8-19.5-8.8-12.5-18.2-24.5-28.4-35.9-19.5-21.9-40.6-40.7-64-58.3-38.3-28.8-81.1-51.1-124.4-71.3-114.7-53.4-243.3-90-370.3-94-46.9-1.5-93.1,3.8-139.5,10.5,7-4.4,13.7-8.7,21.5-11.5,17.5-1.2,33.8-6.9,51-9.8,29.6-5,60.6-7.4,90.5-7.8,49.1-.7,96.5,4.8,144.9,12.3,105.2,16.4,206.3,45.3,301.3,93.9,29,14.9,59.8,31.7,84.4,53.3,29,25.4,54.2,53.9,56.9,94,.7,10-.5,20.3-2.2,30.1-.9,5.5-3.1,11.9-2.8,17.4-2.3-.7-4.6-1.8-6.2-3.6"/>
      <path id="path28" class="st0" d="M2776.2,2248.3c9.2,7.4,19.9,13.3,29.9,19.6-63.5,47.5-130.2,89.1-203.4,119.9-32.9,13.8-65.5,23.8-99.7,33.6,10-20,27.7-35.5,31.6-58.4,6.7-38.8-15-66.4-35.9-96.2l13.8,12.1c78.6-3.7,147.1-49.7,205.4-98.8,17,25.1,34.4,49,58.3,68.2"/>
      <path id="path29" class="st0" d="M1429.9,2170.3c-34.6,7.1-62.6,26.3-82.3,55.7-30.4,45.5-36.4,104.9-33.6,158.1.7,12.8.7,26.7,2.9,39.3l-184.8,36.1c-154.1,16.3-320.7-12.7-459.5-82-32.4-16.2-65.4-34.5-93.7-57.4-79.5-64.5-121.7-165.3-131.8-265.3-1.9-19.2-5.8-59.4,6.4-74.3,8,26.2,11.3,53,20.6,79.1,37.1,104.8,115,182.7,212,234.4,142.8,76.1,310.2,96.9,469.4,75.2,33.1-4.5,67.1-9.1,99-19.2l22.9-8.4c15.8-63.6,43.9-126.1,102.2-161,13.3-7.9,32.2-17.3,48.2-16.2l2.1,5.8"/>
      <path id="path30" class="st0" d="M2307.2,2354.5c-9.8,11.5-17.3,24.5-24.9,37.5-2.9,5-8.5,12.3-8.4,18.2l.3,3.3c-3,4.1-5.9,8.3-9.5,12l-7.4.7c-89.7-3-183.8-14.5-271.5,10.1l-93.3-33c-61.3-20-126.6-35-191.2-37.8-38.6-1.7-77.1,1.7-115.4,5.7,1.5-19.4,4.1-38.5,2.1-58.2-2.6-26.6-14.4-52.9-25.4-77,104.5-2.6,203.6,16.7,306.3,31.9,162.2,23.9,330.8,44.5,494.8,30.9-18.7,18.7-39.5,35.4-56.6,55.6"/>
      <path id="path31" class="st6" d="M953.8,2044.6l13.9,1c7.1,4.4,27,.1,36.1.6,5.8.3,12.3,3,18.3,3.7,14.4,1.6,30.3.8,44.8.4,26.2-.8,54-5.7,79.9-10l141-28.1c102.9-23.1,204.8-51.3,309.3-67.3,102.7-15.7,210.9-18.4,313.9-3.8l319.2,58.1c46.4,6.3,93.5,4.8,139.5-4,11.7-2.2,24.7-3.6,34.4-11l73.6-1.9h30.4c-74.4,60.3-165.3,80.3-259.7,70.3-57.1-6.1-113.3-20.1-169.3-32.5-102.6-22.9-211.6-45.8-317.2-40.7-79,3.8-160.4,17.8-237.3,36.1l-165.7,42.1c-100.7,27.3-201,54.3-304.8,67.2-105.9,13.3-213.4,11.3-312.2-33.6-35.9-16.3-71-35-96.1-66.3-17.7-22.1-26.1-42.6-31.6-70.1-12.2-60.5,26.3-128.3,58.8-176.2,55-81.1,130.8-146.2,188.9-225,27.6-37.5,52.7-79.1,64.7-124.5,6.4-24.5,9.8-52.2,5.1-77.3-13.5-72.8-65.2-125.8-124.7-165.9-115.4-77.6-265.4-121.2-403.9-124.3v-2c147.4-6.4,303.7,17.5,432.9,92.3,28.4,16.4,56.7,34.7,81,57,53.7,49.3,100.6,118.7,103.6,193.7,2.6,64.1-15.9,125.9-47.6,181.3-12.9,22.6-27.6,44.2-43.5,64.7-72,93.2-211.2,237.2-91,350.1,12,11.3,34.1,29.1,51.5,28.3l3.2-.2c9.5,11.9,45.7,16.2,60.7,17.9"/>
    </g>
  </g>
</svg>