<?xml version="1.0" encoding="UTF-8"?>
<svg id="_x2014_ÎÓÈ_x5F_1" xmlns="http://www.w3.org/2000/svg" version="1.1" viewBox="0 0 4000 4000">
  <!-- Generator: Adobe Illustrator 29.2.1, SVG Export Plug-In . SVG Version: 2.1.0 Build 116)  -->
  <defs>
    <style>
      .st0 {
        fill: #2f2828;
      }

      .st1 {
        fill: #1a1211;
      }

      .st2 {
        fill: #f4c721;
      }

      .st3 {
        fill: #010000;
      }

      .st4 {
        fill: #b40412;
      }

      .st5 {
        fill: #f8af12;
      }

      .st6 {
        display: none;
      }

      .st6, .st7 {
        fill: #fefefe;
      }

      .st8 {
        fill: #e66213;
      }
    </style>
  </defs>
  <path class="st6" d="M0,0h4000v4000H0V0Z"/>
  <path class="st8" d="M2976.7,863.4c55.4-89.9,126.8-151.1,216.1-204.9,32.9-19.8,65.9-38.3,101.1-53.8,37.8-16.6,76.9-30.1,115.8-43.9-97.2,93.9-183.4,201.9-223,333.4-8.8,29.1-14,58.8-19.1,88.7,65.7-49.6,124-76.7,202.9-98.3l-6.6,9.4c-85.3,121.6-111.1,275.1-85.6,419.7,45.7-43.2,94.8-72.1,150.1-100.7-16.7,27.5-27.9,56.7-35.7,87.9-41.9,167.4,34.2,323.7,123.8,460.3,24.2,37,51.9,72.3,74.5,110.3-7.8-4.7-96.9-86.7-105.2-95.9-6.2-22.1-33.5-50.8-46.8-71-71.8-109.8-119.8-224.3-109-358.3-16.7,38.3-32.1,75.4-34,117.7-68-108.6-111.7-263-82.7-389.3,5.2-21.8,12.3-42.9,21.3-63.4-5.4,2.9-10.7,5.9-15.9,9.1-5.2,3.2-10.4,6.5-15.4,9.9-5,3.4-10,7-14.9,10.7-4.9,3.7-9.6,7.5-14.3,11.5-4.7,4-9.2,8-13.7,12.2-4.4,4.2-8.8,8.5-13,12.9-4.2,4.4-8.3,9-12.3,13.6-4,4.6-7.8,9.4-11.6,14.2-16.8-121.9-.3-243.8,59.7-352.4-111.9,82.4-188.9,168.3-227.8,306-22.1-41.8-34-83.2-37.4-130.3-67.1,110.3-96.9,249.1-66.1,376,6.8,28.1,18.3,53.9,29.6,80.4-24.1-13.5-48.4-26.8-71.5-41.9-19.4-12.6-37.8-27.1-57.5-39.2,41.9,103.3,107.6,212.4,195.2,283,30.4,24.5,65.6,44,97.6,66.5l186.5,133.4c17,12.5,33.3,26,48.7,40.4,14.1,12.9,45.4,47.4,60.5,54.7.7.3,1.4.5,2,.8,4.5,8,8.7,16.2,12.9,24.4,4.1,8.2,8,16.6,11.8,25,3.7,8.4,7.3,16.9,10.7,25.4,3.4,8.6,6.5,17.2,9.5,25.9,3,8.7,5.8,17.5,8.4,26.3,2.6,8.8,5,17.7,7.2,26.6,2.2,8.9,4.2,17.9,6,26.9,1.8,9,3.4,18.1,4.9,27.2,2.4,15.9,5.5,32.5,3.6,48.6-31.1-155.2-143.8-272.7-273.6-355.2-60.3-38.3-124.2-70.9-182.5-112.3-81-57.5-155.7-131.6-206.9-217.2-61.4-102.7-105-240.3-75.2-358.9,22.5,56.2,60.4,98.4,96.8,145.6-10.6-39.1-12.7-78.8-10.8-119,6.3-129.5,65.8-255.6,156.8-347.5,35.6-36,75.8-66.6,113.1-100.6-31.9,60.7-49.6,121.7-58.9,189.4Z"/>
  <path class="st5" d="M3183.2,752.9c-60,108.6-76.5,230.5-59.7,352.4,3.7-4.8,7.6-9.6,11.6-14.2,4-4.6,8.1-9.2,12.3-13.6,4.2-4.4,8.5-8.7,13-12.9,4.4-4.2,9-8.3,13.7-12.2,4.7-4,9.4-7.8,14.3-11.5,4.9-3.7,9.8-7.3,14.9-10.7,5.1-3.4,10.2-6.8,15.4-9.9,5.2-3.2,10.5-6.2,15.9-9.1-9,20.5-16.1,41.6-21.3,63.4-29,126.2,14.7,280.7,82.7,389.3,2-42.3,17.3-79.4,34-117.7-10.8,134,37.2,248.5,109,358.3,13.2,20.2,40.5,48.9,46.8,71-36.8-27.5-71.5-58.5-107-87.7-125.9-103.4-220.8-187.3-292.6-336.5,34.2,123.9,60.9,209.6,128.9,319.4,40.7,65.7,96.9,143.2,128,212.1-.7-.3-1.4-.5-2-.8-15.1-7.3-46.4-41.8-60.5-54.7-15.4-14.4-31.6-27.9-48.7-40.4l-186.5-133.4c-32-22.5-67.2-42-97.6-66.5-87.6-70.6-153.3-179.7-195.2-283,19.7,12.1,38.1,26.5,57.5,39.2,23.1,15.1,47.5,28.4,71.5,41.9-11.2-26.5-22.7-52.3-29.6-80.4-30.8-126.9-1.1-265.7,66.1-376,3.4,47.1,15.3,88.5,37.4,130.3,38.8-137.7,115.9-223.6,227.8-306Z"/>
  <path class="st3" d="M442.1,692.1c33.1-43.6,66.5-85.9,105-125,144.6-147.1,332.4-236.2,536.1-264.1,7.3-1,14.7-1.9,22-2.8,7.4-.8,14.7-1.6,22.1-2.2,7.4-.7,14.8-1.2,22.2-1.7,7.4-.5,14.8-.9,22.2-1.1,7.4-.3,14.8-.5,22.2-.6,7.4-.1,14.8-.1,22.2,0,7.4,0,14.8.2,22.2.5,7.4.3,14.8.6,22.2,1,7.4.4,14.8,1,22.2,1.6,7.4.6,14.7,1.3,22.1,2.1,7.4.8,14.7,1.7,22.1,2.7,7.3,1,14.7,2,22,3.2,7.3,1.2,14.6,2.4,21.9,3.7,7.3,1.3,14.5,2.8,21.8,4.3,7.2,1.5,14.5,3.1,21.7,4.8,7.2,1.7,14.4,3.5,21.6,5.3,7.2,1.9,14.3,3.8,21.4,5.9,7.1,2,14.2,4.2,21.3,6.4,7.1,2.2,14.1,4.5,21.1,6.9,7,2.4,14,4.9,20.9,7.4,6.9,2.6,13.9,5.2,20.7,7.9s13.7,5.5,20.5,8.4c6.8,2.9,13.6,5.9,20.3,8.9,6.7,3.1,13.4,6.2,20.1,9.4,6.7,3.2,13.3,6.5,19.9,9.9,6.6,3.4,13.1,6.9,19.6,10.4,6.5,3.6,12.9,7.2,19.4,10.9,6.4,3.7,12.8,7.5,19.1,11.4,6.3,3.9,12.6,7.8,18.8,11.8,6.2,4,12.4,8.1,18.5,12.3,6.1,4.2,12.2,8.4,18.2,12.7,6,4.3,12,8.7,17.9,13.2,170.8,129.7,297.9,337.8,326.7,551.4,20.5,152,5.1,306.5-91.7,431.7-4.7,6-9.5,11.9-14.4,17.7,14,26.6,31.3,51.2,53.3,71.7,35.7,33.1,82.4,57.3,123.8,82.7,36.1,22.4,71.8,45.6,106.9,69.6,310.1,211.7,533.8,541.9,570.4,919.9,123.9,29.2,263.8-3.7,371.1-69.7,103.1-63.4,181-154.6,209.2-273.9,10.9-46.3,13.7-92.4,9.1-139.8,1.9-16.1-1.2-32.7-3.6-48.6-1.4-9.1-3-18.1-4.9-27.2-1.8-9-3.8-18-6.1-26.9-2.2-8.9-4.6-17.8-7.2-26.6-2.6-8.8-5.4-17.6-8.4-26.3-3-8.7-6.2-17.3-9.5-25.9-3.4-8.6-6.9-17-10.7-25.4-3.7-8.4-7.7-16.7-11.8-25-4.1-8.2-8.4-16.4-12.9-24.4-31.2-68.9-87.3-146.4-128-212.1-68-109.8-94.7-195.5-128.9-319.4,71.8,149.1,166.7,233.1,292.6,336.5,35.5,29.2,70.3,60.2,107,87.7,8.3,9.2,97.4,91.2,105.2,95.9,140.4,179.5,227.2,357.7,198.7,592-26.8,220.7-146.4,441.5-322,578.9-6.7,5.2-13.5,10.4-20.3,15.5-6.8,5.1-13.7,10.1-20.6,15.1-6.9,5-13.9,9.9-20.9,14.7-7,4.8-14.1,9.6-21.2,14.3-7.1,4.7-14.3,9.3-21.5,13.9-7.2,4.6-14.5,9-21.7,13.4-7.3,4.4-14.6,8.8-22,13-7.4,4.3-14.8,8.5-22.2,12.6-7.5,4.1-15,8.2-22.5,12.2-7.5,4-15.1,7.9-22.7,11.7-7.6,3.8-15.3,7.6-22.9,11.3-7.7,3.7-15.4,7.3-23.2,10.8-7.8,3.5-15.5,7-23.4,10.4-7.8,3.4-15.7,6.7-23.6,9.9-7.9,3.2-15.8,6.4-23.8,9.5-7.9,3.1-15.9,6.1-23.9,9-8,2.9-16,5.8-24.1,8.5-8.1,2.8-16.1,5.5-24.3,8.1-8.1,2.6-16.3,5.1-24.4,7.6-8.2,2.5-16.3,4.8-24.6,7.1-8.2,2.3-16.4,4.5-24.7,6.6-8.3,2.1-16.5,4.2-24.8,6.2-8.3,2-16.6,3.9-24.9,5.7-8.3,1.8-16.7,3.5-25,5.2-8.4,1.6-16.7,3.2-25.1,4.7s-16.8,2.9-25.2,4.2-16.9,2.6-25.3,3.7c-8.4,1.2-16.9,2.2-25.4,3.2-8.5,1-16.9,1.9-25.4,2.7-8.5.8-17,1.6-25.5,2.2-8.5.7-17,1.3-25.5,1.8-8.5.5-17,.9-25.5,1.3-28.9,77.3-64.6,150.1-113.1,217-3,72-23.9,134.7-74.3,187.7-15.6-48.3-40-89.5-67.4-131.8-82.7,45.9-144,57.8-219,125.4-.8-3.4-1.5-6.8-2.2-10.2-.7-3.4-1.3-6.9-1.8-10.3-.5-3.4-1-6.9-1.4-10.4-.4-3.5-.8-6.9-1.1-10.4-.3-3.5-.5-7-.7-10.4-.2-3.5-.3-7-.3-10.5,0-3.5,0-7,0-10.5,0-3.5.2-7,.5-10.5.2-3.5.5-7,.8-10.4.3-3.5.8-6.9,1.2-10.4.5-3.5,1-6.9,1.6-10.3.6-3.4,1.3-6.9,2-10.3.7-3.4,1.5-6.8,2.3-10.2.8-3.4,1.7-6.8,2.7-10.1,1-3.4,2-6.7,3.1-10,1.1-3.3,2.2-6.6,3.4-9.9-64.4,2.7-128.9-7.9-193.1.6,20.4-61.7,72.9-98.2,127.2-128.3,18.6-10.3,39.2-19.7,55.1-34,33.7-30.4,67.6-102.6,81.7-146.6-203.9,35.5-411.1-36-592.4-123.5-33.3,91.1-79.3,179.4-142.9,253.3-23.1,26.8-49.5,49.9-73.5,75.6-30.5,32.7-50.6,68.6-69.1,108.8-28.1-34-54-68.3-79.2-104.5-82.4,27.4-168.3,41.4-249.2,73.4,10.2-47.6,24.5-89.3,50.5-130.8-58.7-12.7-113.7-19.1-173.7-18.8,32.9-46.9,77-80.2,130.8-100.2,56-20.8,122.5-22,156.8-79.4,28.5-47.7,34.6-121.4,47.6-175.7,10.6-44.4,24.9-86.2,44.3-127.5-144-128.9-234.6-266-338.9-425.3-63.5,54.4-118,133.6-125,219.1-3.6,44.8,7.9,90.5,37.3,125.1,34.2,40.2,87.5,58.4,138.9,62,10.2.7,20.4,1,30.6.2-13.9,37.6-42.2,64.6-78.3,81.3-44.8,20.6-93.4,21.9-140.3,8.3-19.8,61.1-26.5,121.1-2,182.1-56.3-7.8-98.2-31.9-132.5-77.7-13.1-17.4-22.2-36.4-30.8-56.3-42.9,34.5-88,73.9-102.2,129.2-36.3-36.7-54.2-72.8-53.9-125.3.3-55.7,20.9-103.1,50.2-149.3-25.2-279.8,8-484.3,191.9-705.3,21.8-25.7,43.9-51.1,66.2-76.2-32-115.9-48.5-237.6-63-356.8-195.1-34-434.6-120-552.9-288-44.6-63.3-66-137-52.6-214,12.9-74.1,51.6-132.8,80.6-200.2-21.6-78.5-16.6-161.4,23.8-233,24.2-42.8,61.3-85.1,110.3-98.6,5.2-1.5,10.5-2.6,15.9-3.4Z"/>
  <path class="st1" d="M2041.5,1155.4c11.1,56.9-15.9,164.4-46.3,213.3-8.4-17.7-16.6-35.3-27-51.9,35-50.8,55.4-102.8,73.3-161.4Z"/>
  <path class="st7" d="M431.9,810.7c5.1-.2,10.4-.1,15.4,1.4,10.3,3.1,17.3,11,21.6,20.6,7.6,16.9,6.8,43.6-.3,60.5-5.8,13.9-14,19.9-27.6,25.4-4.2.1-8.7.4-12.7-.8-8.7-2.7-16.2-10.2-20.5-18.1-8.6-15.9-8.8-38.1-3.4-55,5.1-16,12.6-26.2,27.5-33.9Z"/>
  <path class="st4" d="M417.6,730.1c2.3.3.8,0,4.1,1.9-4.3,18.8-36.7,48.8-48.6,66.8-7,10.6-13.1,21.7-18.5,33.2-5.4,11.5-10,23.3-13.8,35.4-20.4,63.7-16.1,129.6,14.1,189.2,4.4,8.6,11.1,14.9,15.5,23.5l-1.8,1.6-4.7-1.6c-5.6-5.7-10.8-11.8-15.6-18.2-4.8-6.4-9.1-13.2-12.9-20.2-30.4-55-32.9-121-15.6-180.7,15.5-53.4,48.5-103.8,97.8-130.9Z"/>
  <path class="st1" d="M826.2,2660.7c11.1,7.8,22,17.8,34.8,22.3,4.2-2.6,3.4-4.6,4.5-9.2-4.5,58.9,10.1,119,49.4,164.3,37.5,43.2,78.2,60.4,133.7,67.9-35.4,26.7-78.4,34.4-121.9,28.1-20.7-3-43.6-8.6-61.9-19,1.1-.7,2.2-1.3,3.3-2,19.5-10.9,48.4-1.5,68.3,4.3-8.6-25.2-24.7-46-40.5-67-50.3-67.3-61.6-106.6-69.9-189.8Z"/>
  <path class="st4" d="M899,2393.2h.7c20.1,29.9,39.3,60.4,57.6,91.5-38.7,41-92,129.2-91.8,187,0,.7,0,1.4.1,2.1-1.1,4.6-.3,6.6-4.5,9.2-12.8-4.5-23.7-14.5-34.8-22.3l-2.3-2.7c5.3-13.1,5-41.3,7-56.5,3.3-24.3,8-49,14.3-72.7,7.7-28.8,19-57.2,31.3-84.2,7.4-16.3,16.3-32.6,22-49.6.2-.6.4-1.1.5-1.7Z"/>
  <path class="st1" d="M1679,3103.4c.8,2.3,2.2,4.5,2.3,6.9.8,14.1-23.3,60.2-30.6,74.9-5,9.9-9.8,21.7-16.1,30.8-31.3,57.6-63,109.6-108.9,157.1-2.2-22,1.9-44.9,1.5-67.1-.9-48.6-12.1-95-24.8-141.5,23.4-1.3,46.4-6.4,69.1-11.5,38.5-12.2,72.6-29.7,107.5-49.5Z"/>
  <path class="st0" d="M889.6,2135.1c15.8,51.8,36.2,132.5,62,178.8-19.1,25.2-36.4,51.6-51.9,79.1h-.7c-30-44.5-68.9-91.6-116.7-118.1,31.8-49.6,70-94.4,107.3-139.8Z"/>
  <path class="st4" d="M1404,2921.6c42.4,34.1,86.6,65.6,132.8,94.4,24.3,15.1,48.8,29.8,73.6,44.1,15.7,9,60.6,29.2,70.4,39.8-.6,1.2-1,2.5-1.9,3.5-34.9,19.8-69.1,37.3-107.5,49.5-6.2-13-33.8-32.3-44.9-43.4-22.9-22.9-44.1-47.6-66.8-70.7-24.1-24.6-49.9-47.5-75.4-70.6,6.4-15.6,12.3-31.5,19.7-46.6Z"/>
  <path class="st8" d="M1384.3,2968.2c25.5,23.1,51.3,46,75.4,70.6,22.7,23.2,43.9,47.8,66.8,70.7,11.1,11.1,38.7,30.4,44.9,43.4-22.8,5.1-45.8,10.2-69.1,11.5-53.6.2-109.7-7.2-156.1-36.1,14.2-53,22.9-107.1,38.1-160Z"/>
  <path class="st8" d="M2324,1813h5.9c28.9,13.5,88.3,77.1,112.1,102.3-27,38.8-60.8,86.4-105.1,105.6-3.9,1.3-7.9,2.4-12,3.3-21.7,4.8-47.6-.7-66-13-19.6-13.1-32.6-33.8-37-56.9-5.8-30.8,3.6-64.2,21-89.9,19.9-29.1,46.7-44.8,80.9-51.4Z"/>
  <path class="st8" d="M2008.6,1592.5c19.5,10.6,39.7,21,57.8,33.9,44.9,27.6,89.3,55.9,133.2,85.2-32.1,52.2-72.1,126.2-136.2,142.2-3,.7-6.1,1.4-9.1,2-4.7.5-9.5,1-14.3,1-1.9,0-3.7,0-5.6,0-1.9,0-3.7-.2-5.6-.4-1.9-.2-3.7-.4-5.5-.6-1.8-.3-3.7-.6-5.5-.9-1.8-.4-3.6-.8-5.4-1.2-1.8-.4-3.6-.9-5.4-1.5-1.8-.5-3.6-1.1-5.3-1.7-1.8-.6-3.5-1.3-5.2-2-1.7-.7-3.4-1.5-5.1-2.3-1.7-.8-3.3-1.6-5-2.5-1.6-.9-3.3-1.8-4.9-2.7-1.6-1-3.2-2-4.7-3-1.5-1-3.1-2.1-4.6-3.2-1.5-1.1-3-2.3-4.4-3.4-1.4-1.2-2.8-2.4-4.2-3.7-1.4-1.3-2.7-2.5-4-3.9-27.9-27.6-41.6-66.3-41.8-105.1,2.1-18.7,4.9-35.7,13.2-52.8,14.6-30.2,45.4-62.4,77.6-73.4Z"/>
  <path class="st4" d="M2008.6,1592.5c19.5,10.6,39.7,21,57.8,33.9-38.2,29.8-103.9,75.1-148.6,92.2,2.1-18.7,4.9-35.7,13.2-52.8,14.6-30.2,45.4-62.4,77.6-73.4Z"/>
  <path class="st8" d="M782.3,2275c47.8,26.4,86.7,73.5,116.7,118.2-.2.6-.4,1.1-.5,1.7-5.6,17-14.5,33.3-22,49.6-12.4,27.1-23.6,55.5-31.3,84.2-6.3,23.7-11,48.5-14.3,72.7-2,15.3-1.7,43.5-7,56.5-34.7-24.7-82-56.2-124.4-62.6-11.3-1.7-28.8,2.8-38.6-1.3,20.8-112.5,54-224.9,121.5-319.1Z"/>
  <path class="st8" d="M2654.6,2635.3l-.2-2.5c-6.9-73.4-46.6-180.8,7.8-244.3,16.5-19.3,38.1-27.3,61.6-33.9,34.3,86.3,67.3,250.6,58.8,342.6-2.9,31.3-14.4,70.3-26.8,98.9-6.7,15.6-18,35.4-34.4,42.2-5.7,2.4-10.7,2-16.2-.7-15.6-7.5-25.3-34.8-29.4-50.9-6.7-26.2-8.1-53.6-12.4-80.2,1.3-14.7-4-57-8.8-71.1Z"/>
  <path class="st0" d="M1080.7,3340.4c56.7-33.2,121.4-32.4,173.5-64.2,52.9-32.2,78-90,92-147.9,46.3,29,102.4,36.4,156.1,36.1,12.7,46.5,24,92.9,24.8,141.5.4,22.2-3.7,45-1.5,67.1-37.9,39.6-67.7,53.8-98.8,104.6-20.3-26-41.9-59.1-49-91.5-1.3,3.7-2.6,7.6-4.4,11.1-15.2,28.6-116.3,43.9-149.4,51.9-20.5,4.9-40.7,10.7-60.6,17.5,17.2-43.2,36.8-84.9,70.8-117.3-16,6.8-31.9,12.5-48.5,17.5-35.1-10.9-68.7-20.8-105-26.5Z"/>
  <path class="st8" d="M2455.7,3016.8c30.1-29,63.4-58.6,107.9-58.4,21.7.1,39.7,9.1,54.7,24.6,53.8,55.7,62.5,180.8,59.7,255.3-1.6,44.3-22.5,98.1-40.6,138.4-31.7-52-63.9-97.5-125.3-116.2-52.8-19.9-99.7-15.4-153.7-3.6,11.9-33.1,22.3-66.7,31-100.7,7.2-28.9,10.8-62.4,23-89.4,3.3-7.2,9.4-13.2,14.8-18.9,10.3-8.9,20-20.4,28.4-31.1Z"/>
  <path class="st0" d="M619.5,3061.6c-14.9-62.4-3.2-119.6,28.7-174.9,7-12.1,17.6-22.4,23.6-34.8l-11.9,2.4c-4.7-6.9-3.2-30.1-3.5-39.3-2.8-75.3-.9-145.8,4.3-220.9,9.8,4.1,27.3-.4,38.6,1.3,42.4,6.4,89.8,37.9,124.4,62.6l2.3,2.7c8.3,83.2,19.6,122.4,69.9,189.8,15.7,21.1,31.9,41.9,40.5,67-20-5.8-48.8-15.2-68.3-4.3-1.1.6-2.2,1.3-3.3,2-9-9.9-16.4-21.2-25.6-31.1,5.6,14.4,11.8,27.8,19.9,41-11.9,59.6-35.4,99.3-27.1,164.1-56-40.7-81.2-97.9-103.9-161.1.7,13.4,1.8,26.9,2.8,40.3-43.5,22.9-77.6,58.4-111.5,93.3Z"/>
  <path class="st1" d="M1480.5,1719c124.4-30.1,253.3-77.9,363.6-143.4,33.8-20.1,65.7-43.2,97.5-66.2,9.4,17.6,20.3,33.7,33.9,48.3,9.9,10.6,26.6,22,33.1,34.7-32.2,11-63.1,43.1-77.6,73.4-8.2,17.1-11.1,34.1-13.2,52.8.1,38.8,13.8,77.4,41.8,105.1,1.3,1.3,2.7,2.6,4,3.9,1.4,1.3,2.8,2.5,4.2,3.7,1.4,1.2,2.9,2.3,4.4,3.4,1.5,1.1,3,2.2,4.6,3.2,1.5,1,3.1,2,4.7,3,1.6,1,3.2,1.9,4.9,2.7,1.6.9,3.3,1.7,5,2.5,1.7.8,3.4,1.5,5.1,2.3,1.7.7,3.5,1.4,5.2,2,1.8.6,3.5,1.2,5.3,1.7,1.8.5,3.6,1,5.4,1.5,1.8.4,3.6.8,5.4,1.2,1.8.4,3.7.7,5.5.9,1.8.3,3.7.5,5.5.6,1.9.2,3.7.3,5.6.4,1.9,0,3.7.1,5.6,0,4.8,0,9.5-.6,14.3-1l-1.8,4.5c-1.8.2-3.7.4-5.6.5-1.9.1-3.7.2-5.6.3-1.9,0-3.7,0-5.6,0-1.9,0-3.7-.1-5.6-.3-1.9-.1-3.7-.3-5.6-.5-1.8-.2-3.7-.5-5.5-.8-1.8-.3-3.7-.7-5.5-1.1-1.8-.4-3.6-.9-5.4-1.4-1.8-.5-3.6-1-5.3-1.6-1.8-.6-3.5-1.2-5.3-1.9-1.7-.7-3.5-1.4-5.2-2.1-1.7-.8-3.4-1.5-5.1-2.4-1.7-.8-3.3-1.7-4.9-2.6-1.6-.9-3.2-1.9-4.8-2.9-1.6-1-3.1-2-4.6-3.1-1.5-1.1-3-2.2-4.5-3.3-34.3-26.9-53.1-71.3-58.1-113.7-81.7,46.1-165.4,88.2-251.3,126-22.6,10-108.9,40.3-120.6,48.8l-1.3,5.9-3.6-5.9c-6.7-15.6-13.5-31-19-47.1.3-.4.6-.8.8-1.3,5.7-13.7-28.3-109.4-35-131Z"/>
  <path class="st4" d="M1955.5,1337.4c9.5,21.8,18.3,44.1,24.9,66.9-23.6,34.6-49.4,67.6-80.6,95.7-138.6,125.3-368.2,184.9-547.8,218.5-239,44.8-567.5,5-788.6-96.3-46.4-21.3-89.4-48.2-131.4-77.1-18.7-12.8-42.2-27.5-56.6-44.8,19.3,4.9,62.3,39.6,83.3,51.8,27.9,16.2,58.2,30.2,88.1,42,209.2,82.3,494.1,90.9,715.5,66.2,201.6-22.5,447.9-100.3,605.8-231.9,32.8-27.3,60.9-57.9,87.5-91.2Z"/>
  <path class="st1" d="M3740.9,2266.7c2-7.8-1.4-9,4-14.7l-4.1.4,4.8,4.3c0,.5-.2,1.1-.2,1.6-1.5,15.4,7.2,41.8,8.7,59.2,3.4,37.6,3.3,75.9,1.1,113.6-11.4,198.9-127.3,424-278.3,554.2-40.3,34.8-84.5,64.1-129.8,92-11.6,7.2-23.3,14.3-35.1,21.1-11.8,6.9-23.7,13.5-35.7,20-12,6.5-24.1,12.8-36.3,18.9-12.2,6.1-24.5,12-36.9,17.7-12.4,5.7-24.9,11.2-37.5,16.6-12.6,5.3-25.2,10.4-38,15.4-12.7,4.9-25.5,9.6-38.4,14.2-12.9,4.5-25.8,8.8-38.9,12.9-13,4.1-26.1,8-39.2,11.7-13.1,3.7-26.3,7.2-39.6,10.5-13.3,3.3-26.6,6.4-39.9,9.2-13.3,2.9-26.7,5.5-40.2,7.9-13.4,2.4-26.9,4.7-40.4,6.7-13.5,2-27,3.8-40.6,5.4-13.6,1.6-27.1,3-40.8,4.1-13.6,1.2-27.2,2.1-40.9,2.8,8.1-37.1,21.2-73.4,31.6-109.9,53.4-1.3,109.8-11.6,162.3-20.8,194-33.9,388-94.4,537.6-227.9,146.5-130.7,249.9-315.9,275.5-511.3,3.3-25.5,6.5-52.4,6.4-78.1,0-18-2.9-36.9-1.6-54.7l.2-2.9Z"/>
  <path class="st0" d="M2357,3261.3c29.6-7.1,71.4-14.3,101.4-10.4,17.7,2.3,35.9,11.1,53.8,9.7,61.4,18.6,93.6,64.1,125.3,116.2-10.9,33.4-50.7,104.8-72.2,132.2-6.5-4.9-12.7-10.5-18.9-15.8,12.5,63.7,12.2,101.7-15.1,160.9-17.7-37.1-37.4-74.7-62.5-107.2-13.7-17.8-29.5-34-43.9-51.3,3.4,15,11.1,38,7.3,53-1.7,6.6-5.2,8.9-10.5,12.6-20.5,14.4-46,24.2-68.7,34.9-30.1,14.2-59.3,28.8-88,45.7,7.2-54.1,19.3-105,58-145.9-26,5.7-51.6,12.7-78.1,15.8-37.8,4.4-77,2.1-115.1,1.7,33.1-28.9,70.6-48.2,108.5-69.6,58.1-32.8,93.6-122.6,118.8-182.3Z"/>
  <path class="st4" d="M1475.2,1719.5c10.3,44.3,23.1,89.3,39.5,131.8,5.5,16,12.3,31.5,19,47.1-44.4,16.2-89.1,28.3-135.3,38.1-135.1,28.6-289.7,31.6-418.4-23.4-38.3-16.4-72.8-39.4-107.5-62-6.2-38.7-10.7-77.7-15.6-116.6,216,40.3,405,37.8,618.3-15Z"/>
  <path class="st4" d="M2338.7,2869.3h.7s1.5,3.7,1.5,3.7c11.1,39.5,28.7,80,34.3,120.6,5.4,39.1-28.5,160.5-42.6,204.6-75,15.9-153.1,15.5-228.8,3.9-180.3-27.6-403.7-132-557.1-231.5-6.7-4.3-13.8-8.6-19.6-14.1,32.8,8.6,65,19.4,97.9,27.6,96.3,24,197.2,33,295.7,18,25.4-3.9,50.2-11.6,75.4-16.7,6.9,4.9,14.5,3.6,22.6,2.2,3.6-.6,7.1-1.3,10.7-2.1,27.1-9.6,63.6-11.9,92.8-18.7,64.8-15.2,123.5-40.3,181.3-73.1,10.7-6.1,28.7-14,35.1-24.4Z"/>
  <path class="st8" d="M1883.2,1260.2c.8.4,1.7.7,2.5,1.1,32.8,14.8,56.8,42.9,69.8,76.1-26.6,33.2-54.7,63.8-87.5,91.2-157.9,131.6-404.2,209.5-605.8,231.9-221.4,24.7-506.3,16.1-715.5-66.2-30-11.8-60.2-25.8-88.1-42-21.1-12.3-64-46.9-83.3-51.8-67.6-53.6-110.2-124-130.7-207.1,12.2,30.4,28.1,56.6,51,80.2,38.4,39.5,86.4,68.4,134.7,94,259.7,137.4,590.6,114.3,858.1,12.5,42.9-16.7,84.9-35.3,126.2-55.7,80.5-39.6,180.5-102.5,272.1-99.9,39.7,1.1,38.2,54.6,62.1,78.3,10.1,10,23.3,15.3,37.5,15.1,21-.2,39.9-12.7,53.8-27.6,32.8-35.3,45.3-82.9,43.2-130Z"/>
  <path class="st8" d="M3361.3,1845.3c.6.3,1.2.6,1.8,1,17.5,10.8,38.9,36.6,53.6,51.7,86.8,89.4,152.9,187.9,176.8,312.7,27.7,144.7-14.8,287-96.4,406.6-98.7,144.7-255.5,247.5-420.5,301.2-47.7,15.5-96.3,26.1-145.5,35.3-41.3,6.9-82.3,11-124.1,14.4,18.5-101.8,28.5-201.8,24.6-305.2,127.9,19.9,234.6,4.7,350.3-55.2,112.7-58.3,213.4-154.5,252-277.9,38.4-122.5,24.9-258.2-21.3-376.9-14.5-37.3-32.8-72.4-51.4-107.8Z"/>
  <path class="st0" d="M3166.7,1516.6c42.4,45,82.5,92.7,128.3,134.4,62.8,57.2,129.5,110.5,191.4,168.8,129,121.5,231,267.4,254.6,446.9l-.2,2.9c-1.2,17.8,1.5,36.7,1.6,54.7,0,25.7-3,52.6-6.4,78.1-25.6,195.4-129,380.6-275.5,511.3-149.6,133.5-343.6,194-537.6,227.9-52.6,9.2-108.9,19.5-162.3,20.8,19.1-61.5,33.8-125.4,45.3-188.8,93.6-7.7,191.3-20.1,280.8-49.9,193.9-64.7,372-194.9,464.1-380.9,102.1-206.2,70.3-416.4-76-590.8-22.5-26.9-46.9-54.3-72.9-77.9-14.7-13.3-33.1-24.7-46-39.7-20.7-24-35.2-55.7-52.2-82.5-38.2-60.1-78.4-116.8-111.4-180.2-8.8-17-18.5-34.1-24.5-52.4l-.9-2.7Z"/>
  <path class="st5" d="M872.5,1851.1c34.7,22.6,69.3,45.6,107.5,62,128.7,55,283.4,52,418.4,23.4,46.2-9.8,90.9-21.9,135.3-38.1l3.6,5.9c7,16,14.4,31.8,22.2,47.4,7.8,15.6,16.1,31,24.7,46.1,8.6,15.2,17.7,30.1,27.1,44.8,9.4,14.7,19.2,29.1,29.4,43.3,4.9,6.6,11.7,17.9,18.4,22.5,50.5,73.9,142.1,157.4,222.6,196.9,17.4,74.3,20.7,175.5-21.2,242.8-9.1,14.6-20.2,26.3-34.1,36.5-61.2-29.7-125.9-55.3-193.8-31.3-36.1,12.8-69.6,38.2-85.4,73.9-2.4,5.4-3.3,9.6-3.2,15.5l2.5,3.7c20.4,1,40.7-2.1,61.1-2.2,51.2-.3,98.4,19.9,139.2,49.5-22.9,9.7-43.2,19.7-63.7,34-12.5,12.5-23.7,25.5-34.9,39.2-17.5,30.2-32.1,65.7-23,101.3,1.3,5,3.1,8.4,7.4,11.4,6.7.8,11.2-1.6,16.3-5.6,11.2-8.9,20.6-19.8,32.1-28.4,37.6-28.3,83-35,129-30.9,22.6,2,46.4,5.5,62.1,23.7,19.5,22.7,27.8,53.8,47.4,77.4,24.1,28.9,56.7,46.6,76.8,69.9-25.2,5.1-50,12.8-75.4,16.7-98.5,15-199.4,6-295.7-18-33-8.2-65.1-19-97.9-27.6-91.8-50.2-187.4-137.3-253.9-217.8-54.6-61.3-103.3-130-148.7-198.4-159.9-241-205.4-406.1-252.1-689.2Z"/>
  <path class="st8" d="M1278,2736.5c20.2,6.1,40,13.8,60.4,18.9,5.4,1.4,10.8,2.7,16.2,3.9,5.4,1.2,10.9,2.3,16.3,3.3,5.5,1,10.9,2,16.4,2.8,5.5.9,11,1.6,16.5,2.3,5.5.7,11,1.3,16.6,1.8,5.5.5,11.1.9,16.6,1.3,5.5.3,11.1.6,16.7.8,5.6.2,11.1.2,16.7.2,5.6,0,11.1,0,16.7-.3,5.6-.2,11.1-.4,16.7-.8,5.5-.4,11.1-.8,16.6-1.3,5.5-.5,11.1-1.1,16.6-1.8,5.5-.7,11-1.5,16.5-2.4,5.5-.9,11-1.8,16.4-2.9,5.5-1,10.9-2.2,16.3-3.4,5.4-1.2,10.8-2.5,16.2-3.9,27-6.9,52-20.8,78.9-27.3.6-.1,1.1-.3,1.7-.4-12.5,12.5-23.7,25.5-34.9,39.2-19.8,6.7-37.9,15.6-58.6,19.9-80.2,16.7-185.7-2.3-261.7-28.8-16.7-5.8-34.9-11.7-49.8-21.3Z"/>
  <path class="st8" d="M1562.1,2093.9l.9.5-.9,2.2c-22.7,13.7-46.1,26.1-70.2,37.2-24.1,11.1-48.8,20.8-74,29.1-143.2,46.2-300.3,44.9-435.9-24.5l-10.5-5.4-1.4-2.7-.7-.3c11.5,4.1,22.9,8.6,34.3,13,35.9,13.6,75.6,18.6,113.6,22.7,9.4,1,18.9,1.9,28.4,2.7,9.5.7,19,1.3,28.4,1.7,9.5.4,19,.6,28.5.7,9.5,0,19,0,28.5-.2,9.5-.2,19-.6,28.5-1.2,9.5-.6,19-1.3,28.4-2.2,9.5-.9,18.9-1.9,28.3-3.1,9.4-1.2,18.8-2.6,28.2-4.1,9.4-1.5,18.7-3.2,28.1-5,9.3-1.8,18.6-3.8,27.9-6,9.3-2.1,18.5-4.4,27.7-6.9,9.2-2.5,18.3-5.1,27.4-7.8,9.1-2.8,18.1-5.7,27.1-8.7,9-3.1,17.9-6.3,26.8-9.7,8.9-3.4,17.7-6.9,26.5-10.6,8.8-3.7,17.5-7.5,26.1-11.4Z"/>
  <path class="st8" d="M1767.1,2293.1l1.1.7c-6,11.3-17.6,22.1-26.4,31.4-6.4,6.7-12.9,13.2-19.5,19.6-6.7,6.4-13.5,12.6-20.4,18.7-6.9,6.1-14,12-21.2,17.8-7.2,5.8-14.6,11.3-22,16.8-7.5,5.4-15.1,10.7-22.8,15.7-7.7,5.1-15.5,10-23.5,14.7-7.9,4.7-16,9.2-24.1,13.6-8.2,4.3-16.4,8.5-24.7,12.4-130.5,62.1-277.2,64.6-412.5,16.7l-23.5-10c20.4,3,40.9,9.8,61.2,14,29.8,6.1,60,7.8,90.3,8.1,180.2,2,359-63.5,488.2-190.2Z"/>
  <path class="st0" d="M2203.4,1714.1c41.9,28.4,84.1,58.9,122.2,92.2-41,12-72.2,29.6-93.2,68.3-14.8,27.4-21.2,60.3-11.8,90.6.4,1.5.9,2.9,1.4,4.4.5,1.4,1.1,2.9,1.7,4.3s1.2,2.8,1.9,4.2c.7,1.4,1.4,2.7,2.1,4.1.7,1.3,1.5,2.7,2.3,4,.8,1.3,1.6,2.6,2.5,3.9.9,1.3,1.7,2.5,2.7,3.7.9,1.2,1.9,2.4,2.9,3.6s2,2.3,3,3.5c1,1.1,2.1,2.2,3.2,3.3,1.1,1.1,2.2,2.1,3.4,3.1,1.1,1,2.3,2,3.5,3,1.2,1,2.4,1.9,3.7,2.8,1.2.9,2.5,1.8,3.8,2.6,1.3.8,2.6,1.6,3.9,2.4,1.3.8,2.7,1.5,4,2.2,20.6,10.5,44.1,13.6,66.3,6.4,50.1-16.2,83.6-67.9,112.9-108.9,30.6,30.3,57.1,62.8,84,96.4-5.2,2.4-9.9,3.5-13.4,8.1,5.5-1.3,11.2-3.6,16.6-1.1,35.4,36.4,86.5,117.5,110.2,163.6l-11.1,23.8c.7-.2,1.4-.4,2.1-.7,5.8-2.8,7.2-9.5,13.5-11.3,20.4,17.3,63.2,121.1,73.5,151.7-34.4,12.4-61.9,25.2-78.3,60.3-22.7,48.7-10.5,104.9-3.4,155.7,2.8,20.1,4.2,43,10.9,62.2,1.2,3.3,2.5,6.1,4.3,9,4.8,14.1,10.1,56.4,8.8,71.1-4.3,34.1,2.6,95.6,25,122.9,6.5,7.9,15.1,13.1,25.4,13.5,12.3.5,22.2-6.8,30.5-15.1,22.9-23.1,28.1-66.9,38.7-96.6,1.3,137.8-26,269.1-64.2,400.9-9.8,33.8-18.3,70.5-33.6,102.2-1.4-25-.2-50.2-2.2-75.2-4.4-55.8-21.8-147.2-66.6-185.9-16.5-14.2-40-21.9-61.7-19.7-33.3,3.3-75.9,29.4-96,55.9-2.5,3.4-2.5,2.9-3,7.5-8.5,10.7-18.1,22.2-28.4,31.1l-12.1,6.3-1-2.2c14.8-130.4,106-289.3,159-410.4-15.7,17.2-29.4,36.5-44.2,54.5-18.2,22-37.5,43.2-54.9,65.8-20.4,16-37.6,35.7-57.3,52.4-24.2,20.5-51.2,37.1-77.3,55.1h-.7c-6.5,10.5-24.4,18.4-35.1,24.5-57.8,32.8-116.6,57.9-181.3,73.1-29.2,6.8-65.7,9.1-92.8,18.7-3.6.8-7.1,1.5-10.7,2.1-8.1,1.4-15.7,2.7-22.6-2.2-20.2-23.3-52.8-41-76.8-69.9-19.7-23.6-27.9-54.7-47.4-77.4-15.7-18.2-39.5-21.7-62.1-23.7-45.9-4.1-91.4,2.6-129,30.9-11.4,8.6-20.9,19.5-32.1,28.4-5.1,4.1-9.6,6.5-16.3,5.6-4.4-3-6.1-6.4-7.4-11.4-9.1-35.6,5.4-71.1,23-101.3,11.2-13.6,22.4-26.7,34.9-39.2,20.5-14.3,40.8-24.3,63.7-34-40.8-29.6-88-49.8-139.2-49.5-20.4.1-40.7,3.2-61.1,2.2l-2.5-3.7c0-5.9.8-10.1,3.2-15.5,15.8-35.7,49.3-61.1,85.4-73.9,67.9-24,132.6,1.7,193.8,31.3,13.9-10.2,25-21.9,34.1-36.5,41.9-67.2,38.6-168.5,21.2-242.8-80.5-39.5-172.1-123-222.6-196.9-6.6-4.6-13.5-15.9-18.4-22.5-10.2-14.2-20-28.6-29.4-43.3-9.4-14.7-18.5-29.6-27.1-44.8-8.6-15.2-16.9-30.5-24.7-46.1-7.8-15.6-15.2-31.4-22.2-47.4l1.3-5.9c11.7-8.5,98-38.9,120.6-48.8,85.8-37.9,169.6-79.9,251.3-126,5,42.4,23.8,86.8,58.1,113.7,1.5,1.1,3,2.3,4.5,3.3,1.5,1.1,3.1,2.1,4.6,3.1,1.6,1,3.2,1.9,4.8,2.9,1.6.9,3.3,1.8,4.9,2.6,1.7.8,3.3,1.6,5.1,2.4,1.7.8,3.4,1.5,5.2,2.1,1.7.7,3.5,1.3,5.3,1.9,1.8.6,3.5,1.1,5.3,1.6,1.8.5,3.6.9,5.4,1.4,1.8.4,3.6.8,5.5,1.1,1.8.3,3.7.6,5.5.8,1.8.2,3.7.4,5.6.5,1.9.1,3.7.2,5.6.3,1.9,0,3.7,0,5.6,0,1.9,0,3.7-.1,5.6-.3,1.9-.1,3.7-.3,5.6-.5,70.5-17,102.6-67.8,138.6-126.6,4-6.6,7.8-13.5,12.3-19.7Z"/>
  <path class="st2" d="M2516.3,2022.1c5.5-1.3,11.2-3.6,16.6-1.1,35.4,36.4,86.5,117.5,110.2,163.6l-11.1,23.8c-12.6,18.9-26.2,42.4-46.2,54.2-20,11.8-42.2,15.7-64.6,9.3-27.5-7.8-50.4-27.2-64.4-51.9-18.6-32.9-21.7-73.6-11.4-109.7,11.2-39.1,35.2-68.8,70.9-88.2Z"/>
  <path class="st3" d="M2063.3,2044.2c81.2,65,131.1,167.3,142.3,269.8,10.4,95-18.4,177.6-59.7,261.6,10.7,8.4,36.9,29.4,38.9,43.3,0,.7,0,1.4,0,2.1,55,66.8,127,166.1,154,248.3-6.5,10.5-24.4,18.4-35.1,24.4-57.8,32.8-116.6,57.9-181.3,73.1-29.2,6.8-65.7,9.1-92.8,18.7-3.6.8-7.1,1.5-10.7,2.1-8.1,1.4-15.7,2.7-22.6-2.2-20.2-23.3-52.8-41-76.8-69.9-19.7-23.6-27.9-54.7-47.4-77.4-15.7-18.2-39.5-21.7-62.1-23.7-45.9-4.1-91.4,2.6-129,30.9-11.4,8.6-20.9,19.5-32.1,28.4-5.1,4.1-9.6,6.5-16.3,5.6-4.4-3-6.1-6.4-7.4-11.4-9.1-35.6,5.4-71.1,23-101.3,11.2-13.6,22.4-26.7,34.9-39.2,20.5-14.3,40.8-24.3,63.7-34-40.8-29.6-88-49.8-139.2-49.5-20.4.1-40.7,3.2-61.1,2.2l-2.5-3.7c0-5.9.8-10.1,3.2-15.5,15.8-35.7,49.3-61.1,85.4-73.9,67.9-24,132.6,1.7,193.8,31.3,13.9-10.2,25-21.9,34.1-36.5,41.9-67.2,38.6-168.5,21.2-242.8-80.5-39.5-172.1-123-222.6-196.9,10.6,2.8,61.1,67.4,74.8,81.1,44.3,44.3,92.4,76.3,145.4,108.7-14.1-57.4-64.7-96.8-85.8-155.3,19,24.8,43.9,43.7,62.4,68.3-.4-26.3-.7-52.5,0-78.8,22.5,69.1,46.2,156.3,56.2,228.6l1.7-1.1c20.9-14.4,40.3-32.2,60.1-48.2,56.8-45.9,115.2-77,188.3-86.3-23.3-70.3-54.6-122.8-99-181.1Z"/>
  <path class="st1" d="M1976.5,2775.3c8,57.6,21.2,116,22,174.1-41.7-34.5-75.4-74-102.4-121,28.3-16.3,54.6-33.2,80.4-53.1Z"/>
  <path class="st1" d="M1802.8,2684.7c42.3,41.3,46.6,57.7,59.2,113.8-11.9-7-28.7-8.1-42.3-10.1-66.3-9.7-112.8.6-166.3,40.2,21.6-59.4,40.4-87.4,97.8-114.9,17-8.1,34.2-15.4,49.2-27l2.4-1.9Z"/>
  <path class="st1" d="M1583.3,2618.5c4.1-4,8.3-7.9,12.8-11.5,4.5-3.6,9.1-7,13.8-10.2,4.8-3.2,9.7-6.1,14.8-8.9,5.1-2.7,10.2-5.2,15.5-7.4,35.9-14.7,81.7-18.4,117.9-2.9,13.9,20.2,66.1,27.5,60.4,60.5-14.3,18.3-20.1,38.7-38,55.4-3-3.6-6.1-7.1-9.3-10.4-51.8-53.6-116.9-63.5-187.9-64.5Z"/>
  <path class="st8" d="M2160.3,2231.2c3.9,1.6,3.7,1.6,5.2,5.4,4.4,11.6,6.2,26,8.4,38.2,18.2,101.6-17.9,200-62,290-27.9-52.1-45-74-102.8-92.9-35.9-7.3-65.1-3.4-99.7,7.6,6.5-37.1,7-72,4.2-109.3,65.4-67.8,151.5-128.3,246.8-139.1Z"/>
  <path class="st0" d="M1908.1,2485.6c35.5-16.8,78.3-16.9,114.9-3.7,43.8,15.8,66.4,47.1,86,87.7-14,22.8-27.6,46.1-42.9,68.1-21.9,31.6-87.5,103.1-89.6,137.5-25.9,19.9-52.1,36.8-80.4,53.1-5.4-6.7-11.4-12.9-17.2-19.2,15.5-13.8,28.2-25.3,38.1-43.7-12.5,12.9-27.3,33.6-44.9,38.6-5.4-1.3-6.1-1.7-10.1-5.6-12.6-56.1-16.9-72.5-59.2-113.8,10.3-14.3,14.1-29.4,15.7-46.8,5.7-33-46.5-40.3-60.4-60.5,22.7,7.7,46.8,18.9,70.1,23.9,39.3-20.8,60.1-50.1,73.2-92.2,2.4-7.8,4.6-15.7,6.7-23.5Z"/>
  <path class="st5" d="M2143.9,2577.8c15,12.7,27.7,28.5,40.8,43.2,55,66.8,127,166.1,154,248.3-6.5,10.5-24.4,18.4-35.1,24.4-57.8,32.8-116.6,57.9-181.3,73.1-29.2,6.8-65.7,9.1-92.8,18.7-3.5-17.4-6.1-34.6-8.1-52.1v-21.5c.1-45.2-18-85.1-19.2-127.9-.8-30.1,44.4-68.7,62.9-89.3,10.3-11.6,20-23.7,29.1-36.2,18.7-25.6,34.1-53.1,49.9-80.6Z"/>
  <path class="st4" d="M2208.1,2795.3c-40.9,58.5-116,121.4-186.8,138.1v-21.5c72.8-15.8,135.1-65.3,186.8-116.6Z"/>
  <path class="st0" d="M921.3,385.8c164-49.7,333.5-62.6,500.4-17.7,31.6,8.5,64.9,17.5,94.5,31.7,24.8,7.2,49.1,19.2,72.3,30.6,102.5,50.2,187.2,118.2,262.7,203.5,11.7,12.4,21.8,27.4,32.1,40.9,5.1,6.7,10.1,13.4,15,20.3,4.9,6.8,9.7,13.8,14.3,20.7,4.7,7,9.2,14.1,13.7,21.2,4.4,7.1,8.8,14.4,13,21.6,4.2,7.3,8.3,14.6,12.3,22s7.8,14.9,11.5,22.4c3.7,7.5,7.3,15.1,10.8,22.8,3.5,7.7,6.8,15.4,10,23.1,3.2,7.8,6.3,15.6,9.3,23.4,3,7.9,5.8,15.8,8.5,23.7,2.7,8,5.3,16,7.7,24,2.5,8,4.8,16.1,7,24.2,2.2,8.1,4.2,16.3,6.2,24.5,1.9,8.2,3.7,16.4,5.4,24.6,1.7,8.2,3.2,16.5,4.6,24.8,1.4,8.3,2.6,16.6,3.8,24.9,4.1,30.3,7.7,61.2,6.7,91.9-.2,6.8-.6,13.5-1.5,20.2-17.9,58.6-38.3,110.6-73.3,161.4-4.9-8.8-9.9-17.6-15.4-26-22-33.4-49.6-46-87.4-54.1-.6,42.3-7.1,87.9-29.7,124.7-10.8,17.6-24,29.3-44.5,33.7-51.3,11-38.7-63.4-71.6-82.9-13.5-8-30.8-7.9-46-7.1-86.5,4.4-166.9,51.1-242.8,88.7-32,15.8-63.9,31.5-96.5,45.9-28.3,12.3-56.9,23.6-86,33.9-29.1,10.3-58.5,19.6-88.2,27.8-238.9,65.7-523.2,62.4-742.8-62.9-65.5-37.4-144.5-92.4-164.5-170.1-14-54.5,22.9-156.8,50.3-203.4,10.2,14.2,23.2,30.5,39.8,37.3,13.1,5.3,27.4,3.4,39.9-2.3,38.5-17.6,63.5-67.1,78.2-104.4,32.9-83.6,35.6-173.4-.5-256.4,44.4-81.4,122.4-146.4,189.1-208.6,63.5-55.5,191.3-118.5,271.7-144.8Z"/>
  <path class="st3" d="M450.8,1226.9c12.8-.6,24.3-.3,35.6,6.3,13.5,7.9,22.1,20.8,25.4,35.9,2.5,11.4,2,21.9-4.2,31.9-4.2,2-4.1,1.7-8.6.5-20.1-13.9-38.9-29.3-56.6-46.1-4.4-4.3-9.4-8.6-9.5-14.9,5.1-6.3,10.9-9.5,17.9-13.5Z"/>
  <path class="st3" d="M864.3,1273.6c13.4-1.3,27.3-1.6,39,6,5.6,3.7,9.5,7.6,10.8,14.1-6.9,15.3-42.5,27.8-58,35.3-10.1,4.5-19.9,9.4-30.7,11.9-5.1-1.4-4.8-1.3-7.7-5.8-.7-10.2,2.5-19.3,7.3-28.3,9.2-17.4,20.7-27.5,39.4-33.3Z"/>
  <path class="st3" d="M1474.7,760.5c1.9-.2,3.8-.5,5.6-.6,41.9-2.5,80.5,14.5,111.6,41.8,45,39.5,73,100.8,76.5,160.2,3.1,53.4-6.8,113.1-43.5,153.8-55.2,61.3-104.1,97.3-189.3,101.9-43.3,2.2-89-11.5-123.1-38.2-41.2-32.2-62.2-82.1-68.5-133-8.2-66.9,13.1-133.9,54.9-186.3,44.6-56.1,104.6-91.5,175.8-99.5Z"/>
  <path class="st7" d="M1358.2,865.3c10.7-.4,19.4-.8,29,4.8,13.5,7.9,21.7,21.8,25.4,36.6,5.7,22.9,3.8,51-9.1,71.2-9.2,14.5-20.3,21.3-36.7,25.2-7.2,0-14.4-.1-21.3-2.7-14.5-5.3-25.1-17.1-31.1-31.1-.5-1.3-1-2.6-1.5-3.9-.5-1.3-.9-2.6-1.3-3.9-.4-1.3-.8-2.7-1.1-4-.3-1.3-.6-2.7-.9-4.1-.3-1.4-.5-2.7-.7-4.1-.2-1.4-.4-2.7-.5-4.1-.1-1.4-.2-2.8-.3-4.1,0-1.4,0-2.8,0-4.1,0-1.4,0-2.8.1-4.1,0-1.4.2-2.8.4-4.1.2-1.4.3-2.7.6-4.1.2-1.4.5-2.7.8-4.1.3-1.4.6-2.7,1-4,.4-1.3.7-2.7,1.2-4,.4-1.3.9-2.6,1.4-3.9.5-1.3,1-2.6,1.6-3.8,9-20.2,22.9-31.7,43.2-39.4Z"/>
  <path class="st4" d="M1461.9,784.1c10-.8,19.9-1.6,30-.8,42,3,79.3,26.6,106.2,58.2,36.8,43.1,52,103.6,47.6,159.4-5.7,70.8-36.2,106.5-88.7,151-9.5,7.1-19.7,13.2-29.8,19.5,16.8-19.4,31.5-39.5,43.1-62.5,29.4-58.3,37.8-131,17.1-193.5-12.7-38.3-37.8-76-71.1-99.4-17.3-12.1-37.4-20.2-56.2-29.7l1.8-2.1Z"/>
  <path class="st5" d="M921.3,385.8c164-49.7,333.5-62.6,500.4-17.7,31.6,8.5,64.9,17.5,94.5,31.7,24.8,7.2,49.1,19.2,72.3,30.6,102.5,50.2,187.2,118.2,262.7,203.5-13.4-1.1-36.3-17.1-48.8-23.6-72.9-38.3-163.8-57.6-245.8-56.1-165.8,3.1-307.8,89.7-433.8,189.7-76.8,60.9-155,127.1-250.5,156.1-54.2,16.4-122.3,24.7-174.2-3.6-130.4-71.1-16.2-257.7-48.5-365.6,63.5-55.5,191.3-118.5,271.7-144.8Z"/>
  <path class="st0" d="M921.3,385.8c164-49.7,333.5-62.6,500.4-17.7,31.6,8.5,64.9,17.5,94.5,31.7-135.1,8.3-271.1,64.2-387.2,130.7-53.8,30.8-106.5,65.4-162,93-35.3,17.5-84.2,37.3-123.5,23.2-14.8-5.3-27.3-15.7-33.8-30.1-26.6-58.6,49.6-149.7,84.1-192.3,7.2-8.9,24.5-26.2,27.3-36.6.2-.6.2-1.3.3-1.9Z"/>
</svg>