<?xml version="1.0" encoding="UTF-8"?>
<svg id="_x2014_ÎÓÈ_x5F_1" xmlns="http://www.w3.org/2000/svg" version="1.1" viewBox="0 0 4000 4000">
  <!-- Generator: Adobe Illustrator 29.2.1, SVG Export Plug-In . SVG Version: 2.1.0 Build 116)  -->
  <defs>
    <style>
      .st0 {
        fill: #09090b;
      }

      .st1 {
        display: none;
      }

      .st1, .st2 {
        fill: #fefefe;
      }

      .st3 {
        fill: #fdd118;
      }

      .st4 {
        fill: #2e2a31;
      }

      .st5 {
        fill: #c38310;
      }

      .st6 {
        fill: #e23d21;
      }

      .st7 {
        fill: #ee940a;
      }

      .st8 {
        fill: #f46e10;
      }

      .st9 {
        fill: #171318;
      }
    </style>
  </defs>
  <path class="st1" d="M0,0h4000v4000H0V0Z"/>
  <path class="st4" d="M1627.4,3528.9c.4.3.8.6,1.2.9,9.3,7,30.5,2.7,41.7,1.6,29.7-2.8,60.2-8.4,87.2-21.8,65.3-32.5,95.7-102.6,178.1-123.4,102-25.7,164.9,63.9,253.3,89.8,28.8,8.4,58.6,8.6,88.3,5.5l1.9-.2c4.7,2.2,2.3,2.1,7.1.5,4,3,5.3,2.9,6.8,7.8-17.5,15.9-137.5,15.1-152.7,29.3-2.8,2.7-3.7,7.1-3.7,10.8,0,13.5,5.1,29.6,7.6,42.9,4.6,24.5,24.8,130.2,20.4,147.6l-2.9,1.9c-17-6.3-32.5-18.3-47.4-28.5-24.8-16.8-49.9-33.3-74.3-50.7-22.8-16.2-46.4-36.7-72.2-47.8-20.4,15-36.5,36-52.9,55.1-29,33.6-57.1,69.2-88.8,100.3-12.8-37.6-21.8-77.3-31.1-115.9-4.2-17.4-7.5-35.8-13.5-52.7-1.9-5.2-4.8-13.4-10.1-15.9-16.6-8-148.2-3.7-176.5-3.8,10.2-10.6,21-24.6,32.5-33.5Z"/>
  <path class="st4" d="M767.9,3340.8l3.5,1.4c72.8-15,142-10.2,205,31.2,53,34.9,89.2,88.5,142.5,123.2,16.7,10.9,35.3,19.7,53.8,26.9,22,8.6,50.9,14.2,68.6,29.5-34.7.1-117.4-5.2-146.6,1.2-15.2,10.9-47.4,153.3-55.5,180.2-30.8-33.7-57.5-72.7-85.8-108.7-13.5-17.2-27.2-36-43.8-50.3-24,6.7-47.5,21-70.1,31.6-48.8,22.9-97.8,46.4-148,66,12.8-63,49-118.9,67.1-179.9,2.4-8,4.1-15.8,2.4-24-7.9-6.3-161.2-17.7-183.5-19,42.2-28,85.8-53.8,130.7-77.2,17-8.8,47.7-18,59.6-32Z"/>
  <path class="st9" d="M3469.9,2716.3c5.7-12.6,11.2-25.2,16.4-38,5.2-12.8,10.2-25.7,14.9-38.6,4.7-13,9.2-26,13.5-39.2,4.2-13.1,8.2-26.4,12-39.6,3.7-13.3,7.2-26.6,10.5-40.1,3.2-13.4,6.2-26.9,8.9-40.4,2.7-13.5,5.2-27.1,7.4-40.7,2.2-13.6,4.2-27.3,5.8-41,4.3-34.1,4.2-68.7,8.9-102.6l.3-1.9c6.8,306.8-142.4,614.5-351.5,833.2-5.3,5.6-10.7,11-16.1,16.5-5.4,5.4-10.9,10.8-16.5,16.1-5.6,5.3-11.2,10.5-16.9,15.7-5.7,5.2-11.4,10.2-17.3,15.2-5.8,5-11.7,9.9-17.6,14.8-5.9,4.9-11.9,9.7-18,14.4-6.1,4.7-12.2,9.4-18.3,13.9-6.2,4.6-12.4,9.1-18.7,13.5-6.3,4.4-12.6,8.8-19,13-6.4,4.3-12.8,8.4-19.3,12.6-6.5,4.1-13,8.1-19.6,12.1-6.6,3.9-13.2,7.8-19.9,11.6-6.7,3.8-13.4,7.5-20.2,11.1s-13.6,7.1-20.4,10.6c-6.9,3.5-13.8,6.8-20.7,10.1-6.9,3.3-13.9,6.5-20.9,9.6-7,3.1-14.1,6.1-21.2,9.1-7.1,2.9-14.2,5.8-21.4,8.5-7.2,2.8-14.4,5.4-21.6,8-7.2,2.6-14.5,5.1-21.8,7.5-7.3,2.4-14.6,4.7-22,7s-14.7,4.4-22.1,6.4c-7.4,2-14.8,4-22.3,5.9-7.4,1.9-14.9,3.6-22.4,5.3-7.5,1.7-15,3.3-22.5,4.8-7.5,1.5-15.1,2.9-22.6,4.2-7.6,1.3-15.1,2.5-22.7,3.7-7.6,1.1-15.2,2.2-22.8,3.1-7.6.9-15.3,1.8-22.9,2.5-7.6.8-15.3,1.4-22.9,2-7.7.6-15.3,1-23,1.4-7.7.4-15.3.7-23,.9-8,.1-16,.1-24,0-8-.1-16-.3-24-.6-8-.3-16-.7-23.9-1.3-8-.5-15.9-1.2-23.9-1.9-8-.8-15.9-1.6-23.8-2.6-7.9-1-15.9-2.1-23.8-3.3-7.9-1.2-15.8-2.5-23.7-3.9-7.9-1.4-15.7-2.9-23.6-4.5-7.8-1.6-15.6-3.4-23.4-5.2-7.8-1.8-15.5-3.8-23.3-5.8-7.7-2-15.4-4.2-23.1-6.5-7.7-2.3-15.3-4.6-22.9-7.1-7.6-2.5-15.2-5-22.7-7.7-7.5-2.7-15-5.5-22.5-8.3-7.5-2.9-14.9-5.9-22.3-9-7.4-3.1-14.7-6.3-22-9.6-26.9-12-53.1-25.5-78.5-40.4-10.6-6.2-22.8-16.9-33.8-21.1-4-1.6-7.5.5-9.9,3.8-4.6,6.4-3.6,14.6-1.7,21.7,4.3,16.4,13.7,32.2,21.6,47,57.4,29.1,157.8,83.6,201.1,130.1-4.8,1.6-2.5,1.7-7.1-.5l-1.9.2c-29.7,3.2-59.5,3-88.3-5.5-88.4-25.9-151.3-115.5-253.3-89.8-82.4,20.8-112.8,90.8-178.1,123.4-26.9,13.4-57.5,19-87.2,21.8-11.2,1.1-32.4,5.4-41.7-1.6-.4-.3-.8-.6-1.2-.9,28.8-31.9,96.2-92.8,114.9-124.5,11.3-19,11.7-56.1,3-76.3-4.1-9.4-12.5-19.3-14.6-29.2-.2-.8-.3-1.7-.5-2.5.8-.4,1.8-.6,2.5-1.2,8.9-6.5,39.9-54.2,47.9-65.4,71.9-101.7,120.6-226.8,135.7-350.5,5.8-47.3,6.3-94.8,8.5-142.3,29.5-31.8,59.9-61.3,84-97.8,16.9-25.6,29.8-56.5,48.4-80.4-1.2,24-12.5,45.7-16.5,69.1-3.8,22.3-3.1,45.7-5.9,68.2-3.9,31.4-22.1,99.2-18.1,125.5,0,.3,0,.7.1,1,57.3-107.7,136.6-196.4,178-312.9,26.9,102.3,43.3,216.4,37,322.4-.7,11.6-.6,30.9-5.4,41.4-3.5,90.3-33.7,183.3-68.7,266.1-7.2,17-18.3,32.1-24.9,49.3-9.3,24.4-48.8,61.5-53.8,78.6,36.6-27.5,75.6-98.3,92.2-141.3,7.4-19.2,14.1-45.8,25.9-62.2,14.9-44,24.7-89.9,34.1-135.3,64.7-14.5,138.7,1.1,200,23.6,17.9,6.6,35.1,14.8,52.8,21.7l11.7,5.8c1.4,3.3,3.1,5.8,5.3,8.6,68.1,88.2,184.4,146.3,293.8,159.6,203.8,24.9,454.2-137.7,576.6-292.1,23.1-28.9,44.6-58.9,64.6-90,6.9-11,22-41.5,31.3-47.9.8-.6,1.7-1.1,2.6-1.6Z"/>
  <path class="st8" d="M2194.9,2509.6c26.9,102.3,43.3,216.4,37,322.4-.7,11.6-.6,30.9-5.4,41.4-53.2,28.2-87.7,83.7-142.1,110.1-20,9.7-45,15.2-66.4,6.9-11.3-4.3-19.8-12.7-24.4-23.9-18.5-44.2,5.4-103.4,23.4-144.1,57.3-107.7,136.6-196.4,178-312.9Z"/>
  <path class="st6" d="M2495.8,2979.5c1.4,3.3,3.1,5.8,5.3,8.6,68.1,88.2,184.4,146.3,293.8,159.6,203.8,24.9,454.2-137.7,576.6-292.1,23.1-28.9,44.6-58.9,64.6-90,6.9-11,22-41.5,31.3-47.9.8-.6,1.7-1.1,2.6-1.6-19.7,52.5-48.3,106.2-80.5,152.1-88,125.3-235.2,250.7-375.1,314.1-163.8,74.3-336.6,52.6-499.7-9.4-99.9-37.9-209.6-101.9-317.4-109.4,14.9-44,24.7-89.9,34.1-135.3,64.7-14.5,138.7,1.1,200,23.6,17.9,6.6,35.1,14.8,52.8,21.7l11.7,5.8Z"/>
  <path class="st3" d="M3121.7,229c-46.2,79-84.2,162.8-108.5,251.2-50.1,183-31.7,442.3,63.1,608.7,89.6-105.5,192.2-167.6,317.4-223.1-42,69.1-79.9,140.6-102.5,218.7-48.3,167-41.2,344.3,43.7,498.3,52.6-60.2,94.2-95.4,164.3-133.1-98.8,169.6-43.5,313.3,6.7,483.9,24.7,83.9,46.5,167.1,56.6,254.2,4,34.4,8.8,71.8,5.9,106.3l-.3,1.9c-4.7,33.9-4.6,68.6-8.9,102.6-1.7,13.7-3.6,27.4-5.8,41-2.2,13.6-4.7,27.2-7.4,40.7-2.7,13.5-5.7,27-8.9,40.4-3.2,13.4-6.7,26.8-10.5,40.1-3.7,13.3-7.7,26.5-12,39.6-4.2,13.1-8.7,26.2-13.5,39.2-4.7,13-9.7,25.8-14.9,38.6-5.2,12.8-10.7,25.5-16.4,38-.9.5-1.7,1-2.6,1.6-9.2,6.4-24.4,36.9-31.3,47.9-20,31.1-41.5,61.1-64.6,90-122.4,154.4-372.7,317-576.6,292.1-109.3-13.3-225.6-71.4-293.8-159.6-2.2-2.8-3.8-5.3-5.3-8.6l-11.7-5.8c-1.3-7.4-10.7-18.7-14.9-25.2-14.6-22.6-73.9-103.6-74.7-122.8l-.2-1.1.8-6.5c-7.5-20.7-24.1-36.6-37.7-53.5-4.4-5.5-6.8-8.6-6.1-15.7,47.9,11.2,93.8,19.1,143,22.5-18.4-12.8-47.5-14.8-69-21.1,79-1.7,117.9-23,179.9-68,.5.4,1,.8,1.4,1.2,6.4,7.5,5.3,27.2,5.8,36.8,69.3-20.4,126-45.2,162-110.7,1.9,16.3,2.9,32.1,3,48.5,6.7-2.5,13.4-5.2,20.1-7.9,3.2-1.3,6.4-2.7,9.5-4.2,3.1-1.5,6.2-3,9.3-4.7,3-1.6,6.1-3.4,9-5.1,3-1.8,5.9-3.6,8.8-5.6,2.9-1.9,5.7-3.9,8.5-6,2.8-2.1,5.5-4.2,8.2-6.4,2.7-2.2,5.3-4.5,7.8-6.8,2.6-2.3,5-4.7,7.5-7.2,2.4-2.5,4.8-5,7.1-7.6,2.3-2.6,4.5-5.2,6.7-7.9,2.2-2.7,4.3-5.4,6.3-8.2,2-2.8,4-5.6,5.9-8.5,1.9-2.9,3.7-5.8,5.5-8.8,1.8-3,3.4-6,5-9.1,1.6-3.1,3.1-6.2,4.6-9.3,1.4-3.1,2.8-6.3,4.1-9.5,33.9-83.1,29.7-189.5-4.9-271.6-30.8-73.2-89.7-139.1-163.5-169.7,86.3.4,156.4,13.3,235.6,49.7-18.4-48.3-45.5-89.6-79.1-128.7-30.7-35.7-66.7-66.7-102.1-97.6-68.1-59.5-139.1-115.3-207.4-174.6-42.4-36.9-87.6-75.1-118.2-122.7-18.8-29.2-29.4-60.6-38-94,84.7,26.1,170.3,49.4,255.3,74.8-73.3-56.5-135.9-133.5-179.6-215-93.2-173.7-127.3-392.1-91.5-586,5.4-29,13.8-57,22.4-85.2,27.3,80.1,59.2,150.8,114,216.7,3.8-48.2,14.3-97.7,29.1-143.7,87.1-270.5,295-433.4,538.7-558.4Z"/>
  <path class="st4" d="M2799.3,1156.4c7.8,34.9,15.7,69.6,27.5,103.4,76.7,219.5,257.2,364.7,406.1,534.1,157.3,179,233.1,360.9,217.7,600.5-10,44.2-17,86.8-31.7,130-54.1,159.2-169.1,297.7-310.9,386.8-172.1,108.1-363.7,128.5-559.2,82.8-17.8-4.3-35.5-9.1-53-14.4l-11.7-5.8c-1.3-7.4-10.7-18.7-14.9-25.2-14.6-22.6-73.9-103.6-74.7-122.8,56.1,24.5,109.6,35.7,170.6,38.8,168.3,8.6,346.8-42.3,472.9-156.7,93.3-84.6,163.1-201.4,195.5-323.1,52.7-198.3,6.5-381.2-114.6-543.2-46.7-62.5-100.5-119.1-146.9-181.7-105.7-142.5-181.7-323.5-172.8-503.5Z"/>
  <path class="st8" d="M3121.7,229c-46.2,79-84.2,162.8-108.5,251.2-50.1,183-31.7,442.3,63.1,608.7,89.6-105.5,192.2-167.6,317.4-223.1-42,69.1-79.9,140.6-102.5,218.7-48.3,167-41.2,344.3,43.7,498.3,52.6-60.2,94.2-95.4,164.3-133.1-98.8,169.6-43.5,313.3,6.7,483.9,24.7,83.9,46.5,167.1,56.6,254.2,4,34.4,8.8,71.8,5.9,106.3l-.3,1.9c-4.7,33.9-4.6,68.6-8.9,102.6-1.7,13.7-3.6,27.4-5.8,41-2.2,13.6-4.7,27.2-7.4,40.7-2.7,13.5-5.7,27-8.9,40.4-3.2,13.4-6.7,26.8-10.5,40.1-3.7,13.3-7.7,26.5-12,39.6-4.2,13.1-8.7,26.2-13.5,39.2-4.7,13-9.7,25.8-14.9,38.6-5.2,12.8-10.7,25.5-16.4,38-.9.5-1.7,1-2.6,1.6-9.2,6.4-24.4,36.9-31.3,47.9-20,31.1-41.5,61.1-64.6,90-122.4,154.4-372.7,317-576.6,292.1-109.3-13.3-225.6-71.4-293.8-159.6-2.2-2.8-3.8-5.3-5.3-8.6,17.5,5.3,35.2,10.1,53,14.4,195.5,45.8,387.1,25.3,559.2-82.8,141.8-89.1,256.8-227.5,310.9-386.8,14.7-43.2,21.7-85.8,31.7-130,12.3-7.4,32.3-85.5,36.6-102.7,31.6-126.6,22.9-254.3-30.9-373.8-33.5-74.3-72.5-144.3-99-221.8-15.8,35.3-14,83.6-10.3,121.4-19-31.6-38.5-62.8-58.5-93.7-75-113.6-151.1-224.8-155.1-366.4-1.5-51.4,6.3-102.4,16.8-152.6-12,15.1-21.3,33.3-29.9,50.5-31.6,63.5-42.3,123.2-43.1,193.7-13-29-21.9-60.5-31.7-90.7-29.7-92.6-53.8-185.8-68.6-282.1-19,54.3-21,107.4-18,164.3-53.6-164-71.1-308.8-42.8-480.4-37.4,51.6-66.5,103.6-85.9,164.5-.3-149,16.7-302.8,74-441.4-76.9,82.3-130.2,201.8-154.8,311.1-11.3,50.2-17,100.5-23.4,151.4-19.3-55.4-25.3-157.6-24.5-217.5-79.8,166-72.7,389.6-12.4,560.7,5.8,16,11.8,31.8,18.1,47.6-49.4-58.9-95-128.7-117.1-202.8-10.9,176.3,82.1,329.3,194.3,456.2,33.3,37.7,68.5,73.3,104.4,108.6,36.1,35.6,72.3,69.7,103.3,110.1-91.3-45.4-181.4-71.6-284.6-67.7,117.2,40.7,270.5,134.3,350,230.8,20.8,25.3,37.1,53.8,51.4,83.2,24.9,51.1,41,107.2,54.6,162.4-41.8-79-81-138.5-167.4-174.4,97.5,116.4,134.1,245.7,130.6,396.1-35.9-86.6-74.3-134.6-161.7-173.5,56.1,56.7,79.5,126.4,79.4,205.7,0,82.2-25.7,144.1-81.1,203.8,14.3-47.3,17.9-90.6,16.7-139.7-27.3,86.6-67.6,151.1-150.2,194.4-15,7.9-30.5,14.8-46.4,20.7-15.9,5.9-32.1,10.8-48.6,14.6-64.3,15.2-175.2,22-240.5,6.3-18.4-12.8-47.5-14.8-69-21.1,79-1.7,117.9-23,179.9-68,.5.4,1,.8,1.4,1.2,6.4,7.5,5.3,27.2,5.8,36.8,69.3-20.4,126-45.2,162-110.7,1.9,16.3,2.9,32.1,3,48.5,6.7-2.5,13.4-5.2,20.1-7.9,3.2-1.3,6.4-2.7,9.5-4.2,3.1-1.5,6.2-3,9.3-4.7,3-1.6,6.1-3.4,9-5.1,3-1.8,5.9-3.6,8.8-5.6,2.9-1.9,5.7-3.9,8.5-6,2.8-2.1,5.5-4.2,8.2-6.4,2.7-2.2,5.3-4.5,7.8-6.8,2.6-2.3,5-4.7,7.5-7.2,2.4-2.5,4.8-5,7.1-7.6,2.3-2.6,4.5-5.2,6.7-7.9,2.2-2.7,4.3-5.4,6.3-8.2,2-2.8,4-5.6,5.9-8.5,1.9-2.9,3.7-5.8,5.5-8.8,1.8-3,3.4-6,5-9.1,1.6-3.1,3.1-6.2,4.6-9.3,1.4-3.1,2.8-6.3,4.1-9.5,33.9-83.1,29.7-189.5-4.9-271.6-30.8-73.2-89.7-139.1-163.5-169.7,86.3.4,156.4,13.3,235.6,49.7-18.4-48.3-45.5-89.6-79.1-128.7-30.7-35.7-66.7-66.7-102.1-97.6-68.1-59.5-139.1-115.3-207.4-174.6-42.4-36.9-87.6-75.1-118.2-122.7-18.8-29.2-29.4-60.6-38-94,84.7,26.1,170.3,49.4,255.3,74.8-73.3-56.5-135.9-133.5-179.6-215-93.2-173.7-127.3-392.1-91.5-586,5.4-29,13.8-57,22.4-85.2,27.3,80.1,59.2,150.8,114,216.7,3.8-48.2,14.3-97.7,29.1-143.7,87.1-270.5,295-433.4,538.7-558.4Z"/>
  <path class="st0" d="M880.1,2016.3c-26-12.3-53.8-21.5-80.3-33-76.4-33.3-156-75.9-219.2-130.7-73-63.2-132.4-142.8-138.7-242.2-2.9-46.4,4.1-92.9,25.2-134.7,7.1-14.1,17.6-28.6,21.8-43.8,3.9-14.1,4.2-30.5,5.8-45,2.9-25.3,6.7-50.5,11.5-75.6,27.1-135.3,87.3-266.9,179.5-370.1,165.3-185,420.7-295,666.7-308.3,270.6-14.6,537.7,63.2,741.1,246.2,161.1,144.9,237.3,353.8,248.7,566.4,15,13.3,26.3,31.5,34.6,49.6,29.3,63.9,22.3,140.8-2.1,205-55.8,146.8-242.8,248.2-378.6,309.8,24.2,45.4,51.8,88.6,75.2,134.7,65,128.4,117,268,147,408.9,9.6,45,14.8,90.7,22.6,136,18.4,7.2,36.2,16.8,54.4,24.6,10.4,4.4,20.9,8.5,31.6,12.2,10.7,3.7,21.4,7.1,32.3,10.1,10.9,3,21.8,5.7,32.9,8s22.2,4.2,33.3,5.8c21.5,6.4,50.7,8.4,69,21.1-49.1-3.4-95.1-11.3-143-22.5-.8,7,1.7,10.2,6.1,15.7,13.6,16.9,30.2,32.8,37.7,53.5l-.8,6.5.2,1.1c.8,19.2,60,100.2,74.7,122.8,4.2,6.5,13.6,17.8,14.9,25.2-17.7-7-34.9-15.2-52.8-21.7-61.3-22.5-135.3-38.2-200-23.6-9.4,45.4-19.1,91.3-34.1,135.3-11.9,16.4-18.5,43-25.9,62.2-16.7,43-55.6,113.8-92.2,141.3,5-17.1,44.5-54.1,53.8-78.6,6.5-17.1,17.7-32.3,24.9-49.3,35-82.8,65.1-175.8,68.7-266.1,4.8-10.5,4.7-29.9,5.4-41.4,6.4-106-10-220.1-37-322.4-41.4,116.5-120.7,205.2-178,312.9,0-.3,0-.7-.1-1-4-26.3,14.2-94.1,18.1-125.5,2.8-22.5,2.1-45.9,5.9-68.2,4-23.4,15.3-45.1,16.5-69.1-18.6,23.9-31.5,54.8-48.4,80.4-24.1,36.5-54.5,66-84,97.8-2.2,47.5-2.7,95-8.5,142.3-15.1,123.7-63.8,248.8-135.7,350.5-7.9,11.2-39,59-47.9,65.4-.8.5-1.7.8-2.5,1.2-.9-.7-2.3-1.9-3.3-2.3-6.9-3-56.3,18.9-66.1,22.3-134.8,46.8-279.8,39.5-414.7-1.8-24.1-7.4-50.5-14.4-73.2-25.4-15.1,27.7-28.4,63.7-19.4,95.3,7.5,26.1,109.3,138.2,133,169.9-15.1-.3-30.2-.7-45.3-1.4-17.6-15.3-46.6-20.9-68.6-29.5-18.5-7.2-37.1-16.1-53.8-26.9-53.2-34.6-89.4-88.3-142.5-123.2-63-41.4-132.3-46.2-205-31.2l-3.5-1.4c16.5-27.6,37.5-53.3,56.9-78.9-89.8-103.9-150.2-223.1-172.4-359.4-32.6-199.5,16-457.5,92.3-642.3,8.8-21.6,18.2-42.9,28.2-64,10.1-21,20.7-41.7,32.1-62.1,11.3-20.4,23.2-40.4,35.8-60.1,12.5-19.7,25.6-38.9,39.3-57.8Z"/>
  <path class="st9" d="M2242.5,2706.2c36,15.6,71.2,31.7,108.9,42.7-.8,7,1.7,10.2,6.1,15.7,13.6,16.9,30.2,32.8,37.7,53.5l-.8,6.5.2,1.1c.8,19.2,60,100.2,74.7,122.8,4.2,6.5,13.6,17.8,14.9,25.2-17.7-7-34.9-15.2-52.8-21.7-61.3-22.5-135.3-38.2-200-23.6.2-.5.4-1.1.6-1.6,12.9-34.3,21.8-152,12.4-187.7-.3-11-.5-22-1.9-32.9Z"/>
  <path class="st7" d="M2242.5,2706.2c36,15.6,71.2,31.7,108.9,42.7-.8,7,1.7,10.2,6.1,15.7,13.6,16.9,30.2,32.8,37.7,53.5l-.8,6.5c-52.5-23-96.8-64.1-150-85.5-.3-11-.5-22-1.9-32.9Z"/>
  <path class="st6" d="M690.5,2485.9c7,7.6,13.7,48.9,17.2,61.3,8.7,30.9,18.7,61.7,31,91.4,29.6,70.9,83.5,121.4,124.3,184.2,20.2,31.1,33.3,69.7,24.7,107-5,21.6-17.6,35.8-36,47.2-15.8,6.5-32.9,8.1-49.7,5.1-42.1-7.5-78.5-44.2-101.2-78.4-75-112.8-35.6-293.2-10.4-417.7Z"/>
  <path class="st7" d="M1068.7,2080.7c14.7,3.7,29.5,7.3,44.4,10.6,14.8,3.3,29.7,6.3,44.7,9.2,14.9,2.8,29.9,5.4,44.9,7.8,15,2.4,30.1,4.5,45.1,6.4,15.1,1.9,30.2,3.6,45.3,5,15.1,1.4,30.3,2.6,45.4,3.6,15.2,1,30.3,1.7,45.5,2.2,15.2.5,30.4.7,45.6.8,15.2,0,30.4-.2,45.6-.6,15.2-.5,30.4-1.1,45.5-2.1,15.2-.9,30.3-2.1,45.5-3.5,15.1-1.4,30.2-3,45.3-4.9,15.1-1.9,30.1-3.9,45.2-6.3,15-2.3,30-4.9,44.9-7.7,14.9-2.8,29.8-5.8,44.7-9,14.8-3.2,29.6-6.7,44.4-10.4-27,38.8-44.1,79.4-53.7,125.7l-.4,2.2c-152.7,48.2-349,42-505.6,17.3-40.5-6.4-79.6-17.8-119.7-24.9l-.7-4.4c-8.3-41.3-23-79.6-42-117Z"/>
  <path class="st7" d="M957.7,2807.4c16.8,65.2,44.9,128.1,91.2,177.7,14.1,15.1,31.9,28,45.2,43.4.7.3,1.4.5,2.1.8,10.4,4.8,20.3,13.1,30.1,19.2,17.9,11.2,36.4,21.2,55.6,30,96.8,44.6,215.8,58.2,321.1,49.8,25.4-2,50.8-9.8,75.9-11.4,91.2-24.2,170.5-62.1,246.8-117.5,22.4-16.2,42.6-39,66-53.1.9-.6,1.9-1.1,2.8-1.7-11.1,59.8-35.2,119.4-61.6,173.9-19.5,40.1-69.7,133-103.7,156.9-20.3,14.2-51.4,22.1-74.9,30.2-130,44.8-266.8,36.3-396.8-2.3-22.5-6.7-48.3-11.8-69.3-22.3-19.2-9.6-36.5-34.9-50.4-51.2-87.3-102.4-123.8-177.6-166.5-304.3-7.3-40.3-14.5-76.8-13.5-118.2Z"/>
  <path class="st5" d="M1094.1,3028.6c.7.3,1.4.5,2.1.8,10.4,4.8,20.3,13.1,30.1,19.2,17.9,11.2,36.4,21.2,55.6,30,96.8,44.6,215.8,58.2,321.1,49.8,25.4-2,50.8-9.8,75.9-11.4.2,1-.9,1.7-1.5,2.5-107.8,29-299.2,19.7-396.6-34.3-16-8.9-83.1-44.5-86.6-56.6Z"/>
  <path class="st4" d="M865.8,2061.5c5.7-11.9,13.8-26.8,24.3-35,20.5,3.8,41.3,13.3,61,20.2,31.5,11.4,63.4,21.2,95.8,29.5,6.3,1.6,15.6,5.2,21.9,4.5,19,37.4,33.7,75.7,42,117l.7,4.4c10.2,88.6,3.8,185.6-38.9,266,40.6,48.6,87.5,101.1,112.2,160.1,16.6,24.2,27.5,56.3,39.1,83.2,42.8,4.7,87.3,21.6,114.5,56.7,8.5,11,16.6,29.1,14.9,43.3-.1.9-.3,1.9-.5,2.8l-2.5-2.3c-3.2,2.8-4.7,5.4-6.7,9-3.7,6.4-7.6,11.6-15.3,13.3-16.2,3.7-31.4-10.2-47.1-7-8.4-3.8-16.9-7.5-25.4-11.2,8.4,13.3,16.8,26.3,20.9,41.7-.4.8-.8,1.6-1.1,2.4-8.9,20.9,3.8,56.9-24,68.6-10,4.2-20.4,3.9-30.2-.7-14.2-6.7-38.1-38-48.6-38.6-7.9-7-12.8-22.9-21.9-26.9-2.7,4.7-1.4,9.6-.8,14.8-4,.8-12.5,47.5-31.6,63-9,7.4-19.8,9.7-31.2,8.4-11-1.2-20.7-5.6-27.5-14.5-20-26-11.2-66.9-6.4-96.8-26.5-47.5-112.2-120.5-155.4-157.4-15.2-13-41.1-30.1-51.3-46.7-19.1-31-44.2-122.1-54.3-160.8-2.5-23.3-10-47-13.7-70.3-5.3-33.4-6.2-67.9-8.4-101.6-6.3-5.3-11.4-11.1-16.6-17.4,15.2-60.1,53.1-124.3,84.1-177.5,9.2-14.9,19.4-29.2,28.1-44.4Z"/>
  <path class="st0" d="M1184.7,2628.2c-8.5-3.2-49.2-70.1-59.1-83.7-26.5-36.3-60.3-69.2-91.6-101.4-23-23.8-45.6-48.1-67.8-72.7-16.7-18.3-35.9-36.8-49.2-57.7,51.9,45.5,112.1,101.5,155.4,155.3,40.6,48.6,87.5,101.1,112.2,160.1Z"/>
  <path class="st8" d="M837.7,2105.9c22.8,4.4,45.4,12,67.7,18.5l1.4,2.1c11.7,48.5,5.4,91.2-20.7,134.1-13.4,22-32.4,43-58.5,48.8-19.5,4.4-39.6-.4-57.4-8.6-6.3-5.3-11.4-11.1-16.6-17.4,15.2-60.1,53.1-124.3,84.1-177.5Z"/>
  <path class="st9" d="M865.8,2061.5c5.7-11.9,13.8-26.8,24.3-35,20.5,3.8,41.3,13.3,61,20.2,31.5,11.4,63.4,21.2,95.8,29.5,6.3,1.6,15.6,5.2,21.9,4.5,19,37.4,33.7,75.7,42,117-5.5,2.6-10.6.9-16.2-.6-23.6-6.2-46.3-16.8-68.8-26-39.1-16-78.4-32.4-118.9-44.6l-1.4-2.1c-22.3-6.5-44.9-14.1-67.7-18.5,9.2-14.9,19.4-29.2,28.1-44.4Z"/>
  <path class="st6" d="M865.8,2061.5c17.4,19,29.7,39.2,39.7,62.9-22.3-6.5-44.9-14.1-67.7-18.5,9.2-14.9,19.4-29.2,28.1-44.4Z"/>
  <path class="st4" d="M1737.1,2207.4c35.7,10.7,191.5-83,237.4-94.8,14.4-3.7,36.9-7.4,50.2.4,5.6-.5,11.3-2.7,15.6,1.8,15.3,16,57.2,113.9,64.6,137.6,37.2,81.5,71,169.4,90.1,257.1-41.4,116.5-120.7,205.2-178,312.9,0-.3,0-.7-.1-1-4-26.3,14.2-94.1,18.1-125.5,2.8-22.5,2.1-45.9,5.9-68.2,4-23.4,15.3-45.1,16.5-69.1,7.8-38.2,8.5-72.1,3.2-110.7-2.6,29.1-4.7,58.3-12.4,86.6-23.3,86.1-91,159.9-158,216-27.4,22.9-62.4,43.3-85.2,70.7-32,38.6-16.6,95.3-36.6,119.2-6.9,8.3-16.6,12.6-27.4,11.9-12-.8-21.5-8.3-28.7-17.4-13.8-17.4-20.3-38.8-25.8-59.9-1-3.7-.3-2.4-2.8-5.2l-2.4,1.2c-.2,1.7-.7,4.5-.5,6.2-4.3,2.3-7.6,5.2-11.2,8.5-8.3,0-52.7,30.2-71.7,34.2-10,2.1-21,2.8-29.7-3.3-24.2-17.1-10-35-13.8-54.6-.2-1.1-.5-2.1-.7-3.1,3.6-10.8,12.3-20.8,13.9-32.1l-3.6-.3c-12.9-3.6-38,15.3-56,12-9.4-1.7-18.2-11.6-23.2-19-.4-.6-.8-1.2-1.2-1.8l-3.8.3c-1.1-3-1.3-7-1.2-10.2.6-22.3,10.8-40.2,26.5-55.4,29.2-28.3,71.9-40,111.7-39.3,13.4-38.8,29.1-83.2,53.8-116.2,24.9-47.7,65.6-85.2,99.1-126.5-36.2-82.1-43.8-172.4-32.7-260.7l.4-2.2Z"/>
  <path class="st0" d="M1769.4,2470.3c28.2-30.3,53.9-62.6,79.8-94.8,20.8-25.8,42.2-54,67.4-75.6-36,51.3-71.5,102.2-112.8,149.4-28.2,32.3-60.1,61.3-88,93.7-9,10.4-34.7,50.8-45.4,53.8,24.9-47.7,65.6-85.2,99.1-126.5Z"/>
  <path class="st8" d="M2024.7,2113c5.6-.5,11.3-2.7,15.6,1.8,15.3,16,57.2,113.9,64.6,137.6-1.5,16.3-3.7,31.9-9.6,47.3-5.2,13.6-13.1,27.4-27.3,33-8.9,3.5-18.5,1.1-26.8-2.8-35.8-16.8-67.4-62.9-79.9-99.4-8.4-24.3-10.3-51.7,1.7-75.2,12.9-25.2,36.4-34.6,61.7-42.3Z"/>
  <path class="st3" d="M1111.4,2202c40.2,7,79.2,18.5,119.7,24.9,156.6,24.7,352.8,30.9,505.6-17.3-11.1,88.3-3.5,178.6,32.7,260.7-33.5,41.4-74.2,78.8-99.1,126.5-24.7,33-40.4,77.4-53.8,116.2-39.8-.7-82.5,11-111.7,39.3-15.7,15.2-25.9,33.1-26.5,55.4,0,3.2,0,7.2,1.2,10.2l3.8-.3c.4.6.8,1.2,1.2,1.8,5,7.4,13.9,17.3,23.2,19,17.9,3.3,43.1-15.5,56-12l3.6.3c-1.6,11.3-10.3,21.3-13.9,32.1.2,1,.5,2.1.7,3.1,3.8,19.6-10.4,37.4,13.8,54.6,8.7,6.2,19.8,5.5,29.7,3.3,19-4,63.4-34.3,71.7-34.2,3.6-3.3,6.9-6.1,11.2-8.5,7.5,30.8,16.2,60.6,44.7,78.6,8.2,5.2,18.3,9.6,28.1,6.7,11.7-3.4,20.3-15.8,25.4-26.2,10.1-20.8,8.1-43,12.5-65,1.9-9.9,5.6-22.4,10.9-31.1,17.3-28.7,83.2-73,111.3-94.7.8,65.1-2.1,136.1-19.1,199.3-.9.6-1.9,1.1-2.8,1.7-23.3,14.1-43.6,36.9-66,53.1-76.3,55.3-155.6,93.3-246.8,117.5-25.1,1.7-50.5,9.4-75.9,11.4-105.2,8.4-224.3-5.1-321.1-49.8-19.2-8.9-37.7-18.9-55.6-30-9.8-6.1-19.6-14.4-30.1-19.2-.7-.3-1.4-.6-2.1-.8-13.3-15.4-31-28.3-45.2-43.4-46.4-49.6-74.4-112.5-91.2-177.7-2.8-18.2-1.3-38.4-.5-56.8,31.8,29,59.9,58.6,86,93-5,31.6-11.3,65.7,8.5,93.9,8.4,12,20.9,20.6,35.6,22.5,13.1,1.7,26.4-2.4,36.7-10.5,15.2-11.9,24-31.2,26-50.1.8-7.3.7-14.8,0-22.1-.6-5.2-1.9-10.1.8-14.8,9.1,4.1,14,19.9,21.9,26.9,10.6.6,34.4,31.9,48.6,38.6,9.8,4.6,20.2,4.9,30.2.7,27.8-11.7,15.1-47.7,24-68.6.3-.8.7-1.6,1.1-2.4-4.1-15.4-12.4-28.4-20.9-41.7,8.5,3.6,17,7.4,25.4,11.2,15.6-3.2,30.9,10.7,47.1,7,7.7-1.7,11.5-6.9,15.3-13.3,2.1-3.6,3.6-6.2,6.7-9l2.5,2.3c.2-.9.3-1.9.5-2.8,1.8-14.2-6.4-32.3-14.9-43.3-27.2-35-71.7-52-114.5-56.7-11.6-26.9-22.5-59-39.1-83.2-24.7-59-71.6-111.6-112.2-160.1,42.7-80.4,49.1-177.4,38.9-266Z"/>
  <path class="st0" d="M1281.1,2827.1c15.6-3.2,30.9,10.7,47.1,7,7.7-1.7,11.5-6.9,15.3-13.3,2.1-3.6,3.6-6.2,6.7-9l2.5,2.3c-1.9,10-3.8,18.7-12.8,24.6-8.4,5.6-21.1,3.1-30,.3-9.8-3.1-19.7-7.3-28.8-11.9Z"/>
  <path class="st0" d="M1479.5,2817.9l3.8-.3c.4.6.8,1.2,1.2,1.8,5,7.4,13.9,17.3,23.2,19,17.9,3.3,43.1-15.5,56-12-8.6,7.4-20.9,14-31.6,17.5-11.4,3.7-24.7,5-35.5-1.1-9.8-5.5-14.3-14.5-17.1-24.9Z"/>
  <path class="st0" d="M1276.6,2857.6c5.4,18.8,6.5,44.1-3.7,61.3-5.4,9.1-14.1,16.1-24.5,18.5-14.8,3.4-29.7-2.5-41.9-10.8-13.7-9.3-25.4-23.1-33.9-37.3,10.6.6,34.4,31.9,48.6,38.6,9.8,4.6,20.2,4.9,30.2.7,27.8-11.7,15.1-47.7,24-68.6.3-.8.7-1.6,1.1-2.4Z"/>
  <path class="st0" d="M1553.4,2858.8c.2,1,.5,2.1.7,3.1,3.8,19.6-10.4,37.4,13.8,54.6,8.7,6.2,19.8,5.5,29.7,3.3,19-4,63.4-34.3,71.7-34.2-11.7,12.6-27.6,24.1-42.7,32.2-17.1,9.1-36.6,15-55.7,8.6-8.9-3-16.6-8.5-20.7-17.1-7.6-15.7-2.4-35,3.2-50.5Z"/>
  <path class="st4" d="M1180.9,671.6c15.9-3.5,31.9-6.6,47.9-9.4,16-2.8,32.1-5.2,48.3-7.3,16.1-2.1,32.3-3.8,48.6-5.2,16.2-1.4,32.5-2.4,48.7-3.1,16.3-.7,32.5-1,48.8-1,16.3,0,32.6.4,48.8,1.1,16.3.7,32.5,1.8,48.7,3.2,16.2,1.4,32.4,3.2,48.5,5.3,28.3,3.6,58.3,7.4,85.6,15.8,119.3,21.4,301.7,101.2,386.9,185.9,52.1,28,129,121.8,160.4,173.6,12.8,15.4,23.1,35,32.7,52.7,60.2,110.6,89.5,240.6,95.9,365.6,5.6,6.2,12.3,12.4,16.8,19.4,35.4,54.6,42.6,114.7,29.2,178-2,9.4-4.5,18.8-8,27.6-4.8,19.8-13.7,39.8-23.5,57.7-81.4,149.6-329.6,264.7-486.1,310.3-286.7,83.5-578.6,78.6-864.6-4.1-95.9-27.7-192-63.8-279.6-112.1-107.5-59.3-215.7-141.3-250.7-264.8-3.9-13.7-12.7-44.7-5.6-57.6-4-45.7,6.4-85.2,24.8-126.7,5.7-15.5,17.3-28.2,21.9-44.3,8.4-29.3,5.9-64.5,11.2-95,2.1-12.7,4.5-25.3,7.2-37.9,2.7-12.6,5.7-25.1,9-37.5,3.3-12.4,6.9-24.8,10.8-37,3.9-12.3,8-24.4,12.5-36.5,4.5-12.1,9.2-24,14.2-35.8,5-11.8,10.3-23.5,15.9-35.1,5.6-11.6,11.4-23,17.5-34.3,6.1-11.3,12.5-22.5,19.1-33.5,36.6-62.8,84.8-116.8,138.6-165.2,13.3-11.9,27.3-25.5,43.1-33.8,8.6-11.9,29.2-24.2,41.6-32.6,99.7-68.1,217.7-118.2,334.9-146.5Z"/>
  <path class="st0" d="M1645.1,1619.2c3.3,0,6.2-.2,9.4.6,5.1,1.2,11.7,3.9,14.1,8.8,2.4,5,1.6,9.4-.3,14.4-9.9,26.4-37.3,45.9-62.1,57-4.7,1.4-10.9,2-15.7.9-4.6-1.1-5.1-1.8-7.2-5.6,0-5.9.8-10.4,3-15.9,10.8-26.1,33.1-48.8,58.7-60.2Z"/>
  <path class="st0" d="M1167.5,1618.8c.9-.1,1.7-.2,2.6-.3,19.6-1.6,39.6,10.9,54,23.3,11,9.5,23.7,22.6,24.3,38,.3,7.4-2.9,10.3-7.6,15.3-17.2.6-30.6-5.4-44.8-14.6-14.3-9.3-32.2-24-35.2-41.6-1.4-8.7,1.7-13.5,6.8-20.1Z"/>
  <path class="st6" d="M483.3,1476.6c14.3,13.4,29.1,23.9,46.1,33.7,46.5,26.8,175.3,77.4,178.8,137.6.7,12.5-4.7,23.7-13.1,32.7-20.1,21.2-49.5,26.7-77.5,26.7-44.1,0-95.1-12.8-126.8-45.3-16.6-17.1-24.5-36.5-32.2-58.6-4-45.7,6.4-85.2,24.8-126.7Z"/>
  <path class="st6" d="M2347.6,1468.4c35.4,54.6,42.6,114.7,29.2,178-2,9.4-4.5,18.8-8,27.6-8.7,5-17.7,9.5-26.9,13.5-42.8,18.7-128.7,46.8-174.1,27.5-14.6-6.2-24.6-17.9-30-32.7-6.4-17.2-7.7-37.9.8-54.7,5-9.9,13.5-18.5,21.6-25.9,19.9-18.3,43.1-33.5,64.4-50.2,24.6-19.2,48-40,74-57.3,15.2-10.1,31.8-20.1,49.2-26Z"/>
  <path class="st0" d="M2009.3,1717.4c3.6.7,6.7,1.7,9.9,3.3,31.4,15.3,60.8,51.8,71.5,84.5-19.5-12.1-36-26.5-52.7-42.1-2.7,7-5.7,13.4-10.2,19.4-50.7,68.5-223,99.8-305.1,113.3-248.9,40.9-595.9,51.2-826.2-69.3-24.8-13-47.3-28.7-70-45l-19.8,16.8c-16.3,14.4-31.3,29.4-46.4,45.2,3.3-13.1,6.8-25.2,14-36.8,20.9-34.1,58-53.4,95.8-62.4-12.8,9.5-25.6,19-37.7,29.3,79.3,42.3,174.2,63,262.2,76.7,73.7,11.9,147.8,19.3,222.3,22.5,176.1,6.4,574-13.6,716-117.2-10.5-12-18.3-22.8-23.8-38.1Z"/>
  <path class="st7" d="M2041.8,857c52.1,28,129,121.8,160.4,173.6-21.1,10.8-44.7,19-66.6,28.1-52.3,21.7-104.7,43-154.2,70.7-59.7,33.5-118.2,87.5-186.7,101.5-16.9,3.4-38.5,4.8-53.2-5.8-9.5-6.9-13.4-17.9-14.5-29.2-6.7-67,46.4-143.3,86.6-191.7,56.9-68.4,136.2-139,228.2-147.3Z"/>
  <path class="st7" d="M804.3,850.7c91.4,9.7,165.7,79,221.2,147.7,38.9,48.1,94.9,134.9,89,198.7-.9,10.1-4.2,20.1-12.3,26.6-9.4,7.6-22.5,8.3-34.1,6.8-73-9.5-146.9-71.1-212.4-103.7-72.2-35.9-153.6-63.5-233.1-77.1,36.6-62.8,84.8-116.8,138.6-165.2,13.3-11.9,27.3-25.5,43.1-33.8Z"/>
  <path class="st0" d="M2001.2,1213.8l-.7-3.9c22-20.3,66.9-30.7,96.4-29.4,41.4,1.9,79.9,22.7,107.3,53.3,36.4,40.6,53,95.6,49.7,149.6-3.3,53.9-26.8,108.6-68,144.3-34,29.5-77,42.5-121.6,38.9-43.7-3.6-83.5-28.7-111.4-61.9-32.1-38.2-46.8-94.3-42.1-143.4,3.5-36.9,19.8-97,49.5-121.6,2.5-2,5-3.3,7.9-4.6l3.6,1.3c9.3-9.1,18.2-16.1,29.3-22.7Z"/>
  <path class="st2" d="M2001.2,1213.8c18.2-4,34.9-4.3,51.2,5.9,17.9,11.2,27.1,30.6,31,50.7,4.4,22.5,1.6,48.3-11.2,67.7-1.2,1.8-2.4,3.5-3.8,5.2-1.3,1.7-2.8,3.3-4.3,4.8-1.5,1.5-3.1,3-4.7,4.3-1.7,1.4-3.4,2.6-5.2,3.8s-3.6,2.3-5.5,3.3c-1.9,1-3.8,1.9-5.8,2.7-2,.8-4,1.5-6.1,2.1-2.1.6-4.1,1.1-6.2,1.5-2.1.4-4.1.6-6.2.8-2.1.2-4.2.2-6.3.1-2.1,0-4.2-.2-6.3-.5-2.1-.3-4.1-.7-6.2-1.2-2-.5-4-1.1-6-1.8-2-.7-3.9-1.5-5.8-2.4-1.9-.9-3.7-1.9-5.5-3-1.8-1.1-3.5-2.3-5.2-3.6-15.7-11.9-24.1-29.6-26.5-48.9-3.2-25,3.2-47.4,15.3-69,9.3-9.1,18.2-16.1,29.3-22.7Z"/>
  <path class="st0" d="M731.2,1172.6c39.4-4.1,81.6,5.6,114,28.5,42.1,29.8,71.9,80.1,80.2,130.8,9.5,57.5-4.1,119.7-38.3,167-28.2,39-65.8,61.4-113.1,68.9-44.5,3.1-83.3-7.8-118.5-35.8-42.9-34.2-71.1-87-76.8-141.4-5.9-56.1,9.1-116.7,45-160.8,27.7-33.9,64.2-52.9,107.5-57.2Z"/>
  <path class="st2" d="M690.5,1203.5c12.1-1.3,22.7-.6,33.8,4.9,15.8,7.8,26.3,22.4,31.5,39,7.9,24.9,4.9,54.4-7.2,77.5-10.6,20.3-25.6,32.2-47.1,39.3-10.2.9-18.9.4-28.5-3.5-17.7-7.1-29.7-22-36.4-39.5-9.3-24.6-7.5-52.9,4.1-76.4,10.9-21.9,26.9-34,49.7-41.3Z"/>
  <path class="st7" d="M1180.9,671.6c15.9-3.5,31.9-6.6,47.9-9.4,16-2.8,32.1-5.2,48.3-7.3,16.1-2.1,32.3-3.8,48.6-5.2,16.2-1.4,32.5-2.4,48.7-3.1,16.3-.7,32.5-1,48.8-1,16.3,0,32.6.4,48.8,1.1,16.3.7,32.5,1.8,48.7,3.2,16.2,1.4,32.4,3.2,48.5,5.3,28.3,3.6,58.3,7.4,85.6,15.8-12.3,96.1-84.6,265.6-162.6,325.7-24,18.5-53.6,29.2-84.1,25.1-41.6-5.6-73.7-34.3-97.7-67-45.4-62-123.7-207.9-129.6-283.3Z"/>
</svg>