<?xml version="1.0" encoding="UTF-8"?>
<svg id="_x2014_ÎÓÈ_x5F_1" xmlns="http://www.w3.org/2000/svg" xmlns:xlink="http://www.w3.org/1999/xlink" version="1.1" viewBox="0 0 4000 4000">
  <!-- Generator: Adobe Illustrator 29.2.1, SVG Export Plug-In . SVG Version: 2.1.0 Build 116)  -->
  <defs>
    <style>
      .st0 {
        fill: #e0574c;
      }

      .st1 {
        fill: #2a2526;
      }

      .st2 {
        fill: #f5bb2f;
      }

      .st3 {
        fill: url(#_ÂÁ_Ï_ÌÌ_È_ËÂÌÚ_3);
      }

      .st4 {
        fill: url(#_ÂÁ_Ï_ÌÌ_È_ËÂÌÚ_2);
      }

      .st5 {
        fill: url(#_ÂÁ_Ï_ÌÌ_È_ËÂÌÚ_4);
      }

      .st6 {
        display: none;
      }

      .st6, .st7 {
        fill: #fefefe;
      }

      .st8 {
        fill: #f18d1c;
      }

      .st9 {
        fill: #eee4c4;
      }

      .st10 {
        fill: url(#_ÂÁ_Ï_ÌÌ_È_ËÂÌÚ);
      }

      .st11 {
        fill: #ea6307;
      }

      .st12 {
        fill: #e68f7a;
      }

      .st13 {
        fill: #5b1814;
      }
    </style>
    <linearGradient id="_ÂÁ_Ï_ÌÌ_È_ËÂÌÚ" data-name="¡ÂÁ˚ÏˇÌÌ˚È „‡‰ËÂÌÚ" x1="1629.6" y1="2454.4" x2="1650" y2="2677.7" gradientTransform="translate(-3830.1 10933.1) scale(3.9 -3.9)" gradientUnits="userSpaceOnUse">
      <stop offset="0" stop-color="#1e1c1e"/>
      <stop offset="1" stop-color="#4a3f3e"/>
    </linearGradient>
    <linearGradient id="_ÂÁ_Ï_ÌÌ_È_ËÂÌÚ_2" data-name="¡ÂÁ˚ÏˇÌÌ˚È „‡‰ËÂÌÚ 2" x1="1606.6" y1="1919.4" x2="1574.9" y2="2273.6" gradientTransform="translate(-3830.1 10933.1) scale(3.9 -3.9)" gradientUnits="userSpaceOnUse">
      <stop offset="0" stop-color="#161315"/>
      <stop offset="1" stop-color="#322b2c"/>
    </linearGradient>
    <linearGradient id="_ÂÁ_Ï_ÌÌ_È_ËÂÌÚ_3" data-name="¡ÂÁ˚ÏˇÌÌ˚È „‡‰ËÂÌÚ 3" x1="1566.1" y1="1944.3" x2="1759.9" y2="2362.7" gradientTransform="translate(-3830.1 10933.1) scale(3.9 -3.9)" gradientUnits="userSpaceOnUse">
      <stop offset="0" stop-color="#de9318"/>
      <stop offset="1" stop-color="#fdf3d9"/>
    </linearGradient>
    <linearGradient id="_ÂÁ_Ï_ÌÌ_È_ËÂÌÚ_4" data-name="¡ÂÁ˚ÏˇÌÌ˚È „‡‰ËÂÌÚ 4" x1="1549.3" y1="1995.7" x2="1714.1" y2="2369.3" gradientTransform="translate(-3830.1 10933.1) scale(3.9 -3.9)" gradientUnits="userSpaceOnUse">
      <stop offset="0" stop-color="#e77516"/>
      <stop offset="1" stop-color="#fff514"/>
    </linearGradient>
  </defs>
  <path class="st6" d="M0,0h4000v4000H0V0Z"/>
  <path class="st1" d="M880,2607.5c72.8-.5,142.3,10,212.8,27.4,14.1,66.8,28.6,121.2,56.3,184.2-16.7-6.3-31.7-20.4-47.5-29.3-40-22.5-80.3-40.7-124-54.8-19.7-48.3-55.9-96.3-97.6-127.6Z"/>
  <path class="st8" d="M372.4,2806.5c.4-.5.9-.9,1.3-1.4,13.5-13.3,29.1-25.2,44-37.1,4.1-3.2,8.2-6.4,12.3-9.6,4.1-3.2,8.3-6.3,12.5-9.3,4.2-3.1,8.4-6.1,12.7-9.1,4.3-3,8.6-5.9,12.9-8.8,4.3-2.9,8.7-5.7,13.1-8.5,4.4-2.8,8.8-5.5,13.2-8.2,4.4-2.7,8.9-5.3,13.4-7.9,4.5-2.6,9-5.2,13.6-7.7,4.6-2.5,9.1-5,13.7-7.4,4.6-2.4,9.2-4.8,13.9-7.1,4.7-2.3,9.3-4.6,14-6.8,4.7-2.2,9.4-4.4,14.2-6.5,4.7-2.1,9.5-4.2,14.3-6.2,4.8-2,9.6-4,14.4-5.9,4.8-1.9,9.7-3.8,14.6-5.6,4.9-1.8,9.8-3.6,14.7-5.3,4.9-1.7,9.8-3.4,14.8-5,4.9-1.6,9.9-3.1,14.9-4.6,5-1.5,10-2.9,15-4.3,5-1.4,10-2.7,15.1-4,5-1.3,10.1-2.5,15.1-3.7,5.1-1.2,10.1-2.3,15.2-3.4,5.1-1.1,10.2-2.1,15.3-3.1,5.1-1,10.2-1.9,15.3-2.7s10.3-1.7,15.4-2.4c5.1-.7,10.3-1.4,15.4-2.1,5.2-.6,10.3-1.2,15.5-1.8,5.2-.5,10.3-1,15.5-1.4,5.2-.4,10.4-.8,15.6-1.1,5.2-.3,10.4-.6,15.6-.8,5.2-.2,10.4-.3,15.6-.4,5.2,0,10.4-.1,15.6-.1,41.7,31.3,77.9,79.3,97.6,127.6-9.6-2.4-19.2-4.6-28.9-6.6-9.7-2-19.4-3.8-29.1-5.5-9.7-1.6-19.5-3.1-29.3-4.4-9.8-1.3-19.6-2.3-29.4-3.2-9.8-.9-19.7-1.6-29.5-2.1-9.9-.5-19.7-.8-29.6-1-9.9-.1-19.7,0-29.6.1-9.9.2-19.7.7-29.6,1.3-9.9.6-19.7,1.4-29.5,2.4-9.8,1-19.6,2.2-29.4,3.5-9.8,1.4-19.5,2.9-29.2,4.6-9.7,1.7-19.4,3.6-29,5.7-9.6,2.1-19.2,4.4-28.8,6.8-9.6,2.5-19.1,5.1-28.5,7.9-9.5,2.8-18.9,5.8-28.2,9-9.3,3.2-18.6,6.5-27.8,10.1-28.6,10.8-55.3,25.1-83.1,37.7-16,7.2-41.3,17.8-56.6,5Z"/>
  <path class="st8" d="M1092.7,2634.8c114.4,26.2,207.2,93.7,314.4,134.5-50.1,59.3-76.7,121.7-84.2,198.9-34.8-24.6-69.5-53.9-101.3-82.4-21-18.8-43.3-47.5-68.3-60.4l-4.3-6.4c-27.6-63.1-42.2-117.5-56.3-184.2Z"/>
  <path d="M2919.6,3147.8c131.6,21.5,330.4,69.7,418.5,176.7-31.4-2.6-107.8-7.3-132.5,13.4-5.9,5-9.2,12.1-9.3,19.8-.4,21.1,18.8,42.3,31.2,57.9-64.7-8.4-184-27.9-237.6,15.7-11.3,9.2-17.7,21.7-19,36.2-.3,3.8-.2,7.6-.1,11.4-3.3.7-2,1-4.3-.5-22.8-15.2-43.6-35.7-65.5-52.4-60.3-46.1-123.5-88.3-192.6-120.1,9.8-8.4,22.1-15.3,32.8-22.6,21.4-14.6,42.8-29.3,63.6-44.8,17.3-12.9,101.5-88.7,114.9-90.7Z"/>
  <path d="M3338,2129.9l7.8-5.6c-.3,6.8-1.2,14.8.5,21.4,4.2,15.8,31.7,64.3,40.5,82.3,38.6,78,75.7,157.3,116.6,234.1,5.1,9.7,10.7,20.8,18.1,29,17.8,19.5,53.1,20.5,77.8,21.2,73.9,2.1,145.3-18,217.9-27.6-13.4,12.2-31.8,21.4-47.3,30.9-39,23.7-81.5,46.4-118.1,73.6,68,35.1,138.8,64.7,206.2,101.1-80.3-11-162.2-11.7-241.9-26.6,31.5,54.4,67.7,107.7,95.2,164.2-37.1-20.5-73.1-43.7-108.8-66.5-17.2-11.1-34.4-23.4-52.3-33.3-8.2,52.5-17.8,104.8-26.3,157.2-8.2-15.4-15.8-31.1-22.8-47.1-7-16-13.4-32.2-19.2-48.6-5.8-16.5-11-33.1-15.5-49.9-4.5-16.8-8.5-33.8-11.7-51-65.3-46.3-126.8-96-182.6-153.6,2.4-23.9,11.6-48.3,16.3-72.1,15.2-78.9,28.1-158.1,38.7-237.7,4.3-30.3,12.7-64.7,10.9-95.2Z"/>
  <path d="M3369.8,1432c8.9-11.3,17.4-23.1,25.3-35.2,7.8-12,24.9-47.7,34-54.9,1.7-1.3,4-1.6,6-2.4,3.2,29.2,7.3,58.7,8.9,88.1,5.8,115.5,5.9,232.9-10.6,347.6-8.1,53.8-14.2,119.7-32,170.6-18.6,22.7-37.1,45.6-57.5,66.7-21.4,22.1-45.2,43.1-64.9,66.7-27.1-35.2-78.1-93.1-119.9-108.6-13.9-84.5-33.2-165.8-61.6-246.5-5.4-9.4-9.2-20.9-13.6-30.9,91-60.2,164.8-115.3,236.7-198.6,17.3-20,35.1-40.1,49.1-62.6Z"/>
  <path class="st8" d="M3444.1,1427.6c5.8,115.5,5.9,232.9-10.6,347.6-22.6,29.2-45.3,57.5-69.9,85-22.4,25.1-88.4,104.6-122.2,105.3-7.7.2-14.7-3-20.2-8.4-15.3-15.1-9.1-38-1.5-55.5,9.9-22.8,26.4-42.7,40.8-62.8,14.7-20.6,29-41.5,43-62.6,7-10.6,13.8-21.4,20.4-32.2,6.6-10.9,13-21.9,19.2-33,6.2-11.1,12.1-22.4,17.9-33.7,5.7-11.4,11.3-22.8,16.6-34.4,5.3-11.6,10.4-23.2,15.2-35,4.8-11.8,9.5-23.6,13.8-35.6,4.4-11.9,8.5-24,12.5-36.1,3.9-12.1,7.6-24.3,11.1-36.5,6.6-23.5,13.9-47.6,13.9-72.2Z"/>
  <path d="M372.4,2806.5c15.3,12.8,40.6,2.3,56.6-5,27.8-12.6,54.4-26.8,83.1-37.7,9.2-3.5,18.5-6.9,27.8-10.1,9.3-3.2,18.7-6.2,28.2-9,9.5-2.8,19-5.5,28.5-7.9,9.6-2.5,19.2-4.7,28.8-6.8,9.6-2.1,19.3-4,29-5.7,9.7-1.7,19.5-3.3,29.2-4.6,9.8-1.4,19.6-2.5,29.4-3.5,9.8-1,19.7-1.8,29.5-2.4,9.9-.6,19.7-1,29.6-1.3,9.9-.2,19.7-.3,29.6-.1,9.9.1,19.7.5,29.6,1,9.9.5,19.7,1.2,29.5,2.1,9.8.9,19.6,2,29.4,3.2,9.8,1.3,19.6,2.7,29.3,4.4,9.7,1.6,19.4,3.5,29.1,5.5,9.7,2,19.3,4.2,28.9,6.6,43.7,14.1,84,32.3,124,54.8,15.8,8.9,30.8,22.9,47.5,29.3l4.3,6.4c25,12.9,47.4,41.6,68.3,60.4,31.8,28.5,66.4,57.7,101.3,82.4-1.1,20.1-1.9,40.1-2.4,60.2,16.6,16.3,37.7,29.6,57.1,42.3,22.7,14.7,46,28.7,69.7,41.8,23.7,13.1,47.9,25.3,72.5,36.7,24.6,11.4,49.6,21.9,74.9,31.5,25.4,9.6,51,18.3,77,26.1,24.1,7.2,103.7,25.1,119.5,34.2,38.7-6.1,75.8.4,108,23.8,43.6,31.6,89.2,115.8,111.9,165.3,5.8,12.7,9.2,31.5,18.7,41.7l-1.8,3c18.8,48.8,34.3,96.5,47.9,147-36.4-27.3-83.6-52.2-129.8-54.7-68.8-3.6-114.6,42.3-162.4,84.8-29-26.3-57.3-56.1-93-73.3-57.5-27.7-113.8-17.1-171.4,3.5,28.2-72.4,74-137.2,120.7-198.6-151.8-44.9-312.2-156.8-428.5-262.1-118.7-107.4-215.8-240.9-379.1-283-133.7-34.4-295.4,6.9-419.7,60.1-85.6,36.6-167.1,83.2-247,130.8,64.9-76.6,128.5-159.3,206.8-222.9Z"/>
  <path class="st1" d="M1791.2,3241.1c38.7-6.1,75.8.4,108,23.8,43.6,31.6,89.2,115.8,111.9,165.3,5.8,12.7,9.2,31.5,18.7,41.7l-1.8,3c-13.3-13.1-23.4-39.1-32.4-55.8-20.9-38.9-40.9-80-68-115-24-31-54.4-51.6-93.9-56.1-97.7-11.1-132.2,89.4-196.9,139.1-.5.4-1,.8-1.6,1.2,26.8-40,74.2-99.3,113.5-126.5,13.6-9.4,27.1-15.3,42.7-20.6Z"/>
  <path class="st11" d="M1153.3,2825.5c25,12.9,47.4,41.6,68.3,60.4,31.8,28.5,66.4,57.7,101.3,82.4-1.1,20.1-1.9,40.1-2.4,60.2-68.7-54.9-129.5-123-167.2-203Z"/>
  <path class="st10" d="M2216.8,560c209.2-96.9,445.1-118.1,663.7-38,6.1,2.3,12.1,4.6,18.1,7,6,2.4,12,4.9,17.9,7.4,5.9,2.5,11.9,5.2,17.7,7.9,5.9,2.7,11.7,5.5,17.5,8.3,5.8,2.8,11.6,5.8,17.3,8.7,5.7,3,11.4,6,17.1,9.2,5.7,3.1,11.3,6.3,16.9,9.6,5.6,3.3,11.1,6.6,16.6,10,5.5,3.4,11,6.9,16.4,10.4,5.4,3.5,10.8,7.1,16.1,10.8,5.3,3.7,10.6,7.4,15.9,11.2,5.2,3.8,10.4,7.7,15.6,11.6,5.1,3.9,10.2,7.9,15.3,11.9,5,4,10,8.2,15,12.3,4.9,4.2,9.8,8.4,14.7,12.7,4.8,4.3,9.6,8.6,14.4,13,4.7,4.4,9.4,8.9,14,13.4,4.6,4.5,9.2,9.1,13.7,13.7,4.5,4.6,9,9.3,13.4,14.1,4.4,4.7,8.7,9.5,13,14.4,4.3,4.9,8.5,9.8,12.7,14.7,4.2,5,8.3,10,12.3,15,4,5.1,8,10.2,11.9,15.3,3.9,5.2,7.8,10.4,11.5,15.6,3.8,5.2,7.5,10.5,11.2,15.9,3.7,5.3,7.2,10.7,10.8,16.1,3.5,5.4,7,10.9,10.4,16.4,3.4,5.5,6.7,11.1,10,16.7,3.3,5.6,6.4,11.2,9.5,16.9,3.1,5.7,6.1,11.4,9.1,17.1,3,5.7,5.9,11.5,8.7,17.3,2.8,5.8,5.6,11.7,8.3,17.6,19.1,41.3,38.1,84.3,51.2,127.9,25,70.8,45.3,154.1,54.1,228.8,3.3,15.7,6.2,32.6,6.5,48.7-2,.8-4.3,1.1-6,2.4-9.1,7.2-26.2,42.9-34,54.9-7.9,12.1-16.3,23.8-25.3,35.2-14,22.5-31.8,42.6-49.1,62.6-72,83.3-145.7,138.4-236.7,198.6,4.4,10,8.2,21.5,13.6,30.9-11,12.1-24,23.8-34,36.6-100.3,94.7-251.9,158.8-384.4,191.3-30.5,7.5-63,14.9-94.3,16.8-4.9.3-13.5.2-16.6,4.6-.4.5-.5,1.1-.7,1.7l-.9-2.6c-1.4-31.5-8.9-65.5-18.5-95.4-65,6.9-142.2,1.3-206.9-7.3-25.7-3.4-55-12.8-80.6-12.2-11.8-3.7-25.8-5.3-38-8.5-67.2-17.6-139.4-36.1-194.6-80.2-95.8-76.5-362-443.2-375.1-558.1-4.4-10.1-2.4-22.6-.9-33.2,7.6-52.4,36-102.3,78.4-133.9-7-18-13.1-35.3-15.9-54.5-.5-3.3-.9-6.7-1.2-10-.3-3.3-.6-6.7-.8-10.1-.2-3.4-.3-6.7-.3-10.1,0-3.4,0-6.7.2-10.1.2-3.4.4-6.7.7-10.1.3-3.3.7-6.7,1.2-10,.5-3.3,1-6.6,1.7-9.9.6-3.3,1.4-6.6,2.2-9.9.8-3.3,1.7-6.5,2.7-9.7,1-3.2,2-6.4,3.1-9.6,1.1-3.2,2.3-6.3,3.6-9.4,1.3-3.1,2.6-6.2,4.1-9.2,1.4-3,2.9-6.1,4.5-9,1.6-3,3.2-5.9,4.9-8.8,1.7-2.9,3.5-5.7,5.4-8.6,1.9-2.8,3.8-5.6,5.8-8.3,35.5-47.8,94.8-78.5,153.9-82.7,16.3-1.1,37.2,2.3,52.4-.2.9-.1,1.8-.3,2.6-.5,40-42.8,83.8-79.1,129-116.1,38.7-30.2,83.1-54.3,126.5-76.9Z"/>
  <path d="M2092.5,1082.9c20.6,2.3,71.5,78.1,86.5,96.5l-18.3-5.3c-35.2-12.2-71.9-27.1-91.4-60.7,6.4-11.8,13.5-21.2,23.3-30.4Z"/>
  <path d="M2511.5,1099.8c4.5-.3,9.4-.4,13.5,1.8,9.9,5.3,16.8,17,19.3,27.7,1.6,7.1,1,14.1-3.4,20.1-17.5,24.2-91.1,34.6-121.1,39.4-13.3,1.5-26.4,2.4-39.8,2.8,35.8-41.6,79-74.7,131.6-91.9Z"/>
  <path class="st8" d="M2216.8,560c23.9,33.1,48.1,75.4,41.5,118-3.2,20.5-14.2,39.6-31.6,51.2-1,.6-1.9,1.2-2.9,1.8-1,.6-2,1.1-3,1.7-1,.5-2,1-3.1,1.5-1,.5-2.1.9-3.1,1.4-1.1.4-2.1.8-3.2,1.2-1.1.4-2.2.7-3.3,1-1.1.3-2.2.6-3.3.9-1.1.3-2.2.5-3.4.7-1.1.2-2.3.4-3.4.5-1.1.1-2.3.3-3.4.3-1.1,0-2.3.1-3.4.2-1.1,0-2.3,0-3.4,0-1.1,0-2.3-.1-3.4-.2-1.1,0-2.3-.2-3.4-.4-1.1-.2-2.3-.3-3.4-.5-1.1-.2-2.2-.4-3.4-.7-28.4-6.7-49.3-30.3-63.3-54.6-8.7-15-14.4-30.8-20.5-47,38.7-30.2,83.1-54.3,126.5-76.9Z"/>
  <path class="st8" d="M2747.1,569.1c45.9-7.3,98.4,1.9,142,16.1-35.8,24.2-75.1,40.6-110,67.2-39.2,29.8-71.7,68.7-112.5,95.9-9.9,5-20,8.9-30.9,11-24.4,4.8-54.9,3-75.5-11.9-12.1-8.7-20.3-21.8-21.9-36.6-2.1-20,8.2-39.7,20.4-54.9,43.6-54.4,121.7-79.8,188.5-86.8Z"/>
  <path class="st8" d="M3198.3,943.4c39.8,19.8,76.6,42.8,112.7,68.7,12.2,8.7,53.7,47.7,63.6,49.9,25,70.8,45.3,154.1,54.1,228.8-22.1-16.1-42.2-34.6-64.7-50.3-64.6-45.2-134.9-77.4-207.9-106.2,44.3-62.9,53.8-115.9,42.3-190.9Z"/>
  <path d="M1664.6,1219.2c7.4-2.3,11.4.2,18.3,3.8,119.5,62.6,242.4,34.5,368.6,17.9,37-4.8,74.9-7.2,112.2-8.2,21.3-.5,42.6-.3,63.9.4,21.3.7,42.6,2.1,63.8,4,21.2,1.9,42.4,4.4,63.4,7.5,21.1,3.1,42,6.8,62.9,11.1,176.2,35.3,348,99.5,528.7,108.9,94.3,4.9,158.6-30.2,247.1-43.5,41.4-6.2,89-9,124.4,17.5,6.4,4.8,13.9,11.5,15.8,19.8.4,1.9.3,3.1.1,5-37.6-28.9-75.4-31.8-121.4-25.8-49.3,6.5-91.7,27.4-138.4,41.9-21.3,6.6-45.1,8.8-65.7,16.6-27.4,7.5-60.5,6.4-88.7,5.1-152.8-6.9-292.6-57.6-439.7-93.3-64.2-15.6-128.3-27.1-194.2-32.7-78.3-6.7-155.8-2.8-233.7,7-56.2,7-111.7,17.1-168.3,20.4-82.8,1-153.4-35.7-219-83.3Z"/>
  <path d="M1961.3,753c23,5.1,41.8,19.1,54.2,39.1,20.2,32.6,29.9,86.3,22.9,123.8,2.6,53-22.4,110-54.6,150.8-6.5,15.7-29.8,30.5-44.4,38.1-39.4,20.4-82.5,22.7-124.4,9-36.3-11.9-67.2-35.6-84.4-70.1-7-18-13.1-35.3-15.9-54.5-.5-3.3-.9-6.7-1.2-10-.3-3.3-.6-6.7-.8-10.1-.2-3.4-.3-6.7-.3-10.1,0-3.4,0-6.7.2-10.1.2-3.4.4-6.7.7-10.1.3-3.3.7-6.7,1.2-10,.5-3.3,1-6.6,1.7-9.9.6-3.3,1.4-6.6,2.2-9.9.8-3.3,1.7-6.5,2.7-9.7,1-3.2,2-6.4,3.1-9.6,1.1-3.2,2.3-6.3,3.6-9.4,1.3-3.1,2.6-6.2,4.1-9.2,1.4-3,2.9-6.1,4.5-9,1.6-3,3.2-5.9,4.9-8.8,1.7-2.9,3.5-5.7,5.4-8.6,1.9-2.8,3.8-5.6,5.8-8.3,35.5-47.8,94.8-78.5,153.9-82.7,16.3-1.1,37.2,2.3,52.4-.2.9-.1,1.8-.3,2.6-.5Z"/>
  <path class="st7" d="M1826.8,849.9c10.1-.6,20.7-1,30.2,3.1,12.5,5.3,22.2,14.6,26.9,27.4.6,1.6,1.1,3.2,1.5,4.8.4,1.6.8,3.3,1,5,.3,1.7.4,3.4.5,5,0,1.7.1,3.4,0,5.1,0,1.7-.2,3.4-.5,5-.2,1.7-.6,3.3-1,5-.4,1.6-.9,3.3-1.4,4.9-.6,1.6-1.2,3.2-1.9,4.7-7.6,16.1-20.8,23.6-37,29.2-10.3,1.5-19.9,1.1-29.7-2.7-12.5-4.8-22.6-14.4-27.5-26.9-5.1-12.9-4.2-27.3,1.9-39.8,7.7-15.8,21-24,37-29.7Z"/>
  <path class="st2" d="M1961.3,753c23,5.1,41.8,19.1,54.2,39.1,20.2,32.6,29.9,86.3,22.9,123.8-15.7-38.3-44.6-71.7-83.3-88.2-34.2-14.5-76.4-13.9-110.5.5-35.2,14.8-61.4,45.2-75.3,80.4-.9,2.3-1.8,4.7-2.6,7.1-.8,2.4-1.6,4.8-2.3,7.2-.7,2.4-1.4,4.9-1.9,7.3-.6,2.5-1.1,4.9-1.6,7.4s-.9,5-1.2,7.5c-.3,2.5-.6,5-.8,7.5s-.4,5-.5,7.5c0,2.5-.1,5,0,7.6,0,2.5.1,5,.3,7.6.2,2.5.4,5,.7,7.5.3,2.5.6,5,1.1,7.5.4,2.5.9,5,1.4,7.4.5,2.5,1.1,4.9,1.8,7.4.7,2.4,1.4,4.9,2.1,7.2.8,2.4,1.6,4.8,2.5,7.1.9,2.4,1.8,4.7,2.9,7,14.4,32.8,38.8,58.9,72.7,71.6,32.3,12.1,66.4,10.1,97.5-4.3,15.5-7.2,29-16.8,42.6-27-6.5,15.7-29.8,30.5-44.4,38.1-39.4,20.4-82.5,22.7-124.4,9-36.3-11.9-67.2-35.6-84.4-70.1-7-18-13.1-35.3-15.9-54.5-.5-3.3-.9-6.7-1.2-10-.3-3.3-.6-6.7-.8-10.1-.2-3.4-.3-6.7-.3-10.1,0-3.4,0-6.7.2-10.1.2-3.4.4-6.7.7-10.1.3-3.3.7-6.7,1.2-10,.5-3.3,1-6.6,1.7-9.9.6-3.3,1.4-6.6,2.2-9.9.8-3.3,1.7-6.5,2.7-9.7,1-3.2,2-6.4,3.1-9.6,1.1-3.2,2.3-6.3,3.6-9.4,1.3-3.1,2.6-6.2,4.1-9.2,1.4-3,2.9-6.1,4.5-9,1.6-3,3.2-5.9,4.9-8.8,1.7-2.9,3.5-5.7,5.4-8.6,1.9-2.8,3.8-5.6,5.8-8.3,35.5-47.8,94.8-78.5,153.9-82.7,16.3-1.1,37.2,2.3,52.4-.2.9-.1,1.8-.3,2.6-.5Z"/>
  <path class="st2" d="M3156.1,1134.4c-23.8,21.6-48,44.5-77.7,57.8-3.4,1.5-6.9,2.9-10.4,4.2-3.5,1.3-7,2.6-10.6,3.7-3.6,1.2-7.2,2.2-10.8,3.2-3.6,1-7.3,1.9-10.9,2.7-3.7.8-7.3,1.5-11,2.1-3.7.6-7.4,1.1-11.1,1.6-3.7.4-7.5.8-11.2,1-3.7.2-7.5.4-11.2.5-3.7,0-7.5,0-11.2,0-3.7-.1-7.5-.3-11.2-.6-3.7-.3-7.5-.7-11.2-1.2-3.7-.5-7.4-1.1-11.1-1.7-3.7-.7-7.4-1.4-11-2.3s-7.3-1.8-10.9-2.8c-3.6-1-7.2-2.2-10.7-3.4-3.5-1.2-7.1-2.5-10.5-3.9-56.1-22.4-102-65-125.8-120.8-1.3-3.1-2.5-6.3-3.7-9.5-1.1-3.2-2.2-6.4-3.2-9.6-1-3.2-1.9-6.5-2.7-9.8-.8-3.3-1.6-6.6-2.2-9.9-.7-3.3-1.3-6.7-1.8-10-.5-3.4-.9-6.7-1.3-10.1-.3-3.4-.6-6.8-.8-10.1-.2-3.4-.3-6.8-.3-10.2,0-3.4,0-6.8.2-10.2.2-3.4.4-6.8.7-10.1.3-3.4.7-6.7,1.2-10.1.5-3.4,1.1-6.7,1.7-10,.7-3.3,1.4-6.6,2.2-9.9.8-3.3,1.7-6.6,2.7-9.8,1-3.2,2-6.5,3.2-9.7,1.1-3.2,2.3-6.4,3.6-9.5,1.4-3.3,2.8-6.5,4.4-9.8,1.5-3.2,3.1-6.4,4.8-9.5,1.7-3.1,3.4-6.2,5.3-9.3,1.8-3.1,3.7-6.1,5.7-9,2-3,4-5.9,6.2-8.7,2.1-2.9,4.3-5.7,6.6-8.4,2.3-2.8,4.6-5.5,7-8.1,2.4-2.6,4.8-5.2,7.4-7.8,2.5-2.5,5.1-5,7.7-7.4,2.6-2.4,5.3-4.7,8.1-7,2.7-2.3,5.5-4.5,8.4-6.6,2.9-2.1,5.8-4.2,8.7-6.2,3-2,6-3.9,9-5.8,3-1.9,6.1-3.6,9.3-5.3,3.1-1.7,6.3-3.3,9.5-4.9,3.2-1.5,6.5-3,9.7-4.4,3.4-1.4,6.8-2.8,10.2-4.1,3.4-1.3,6.9-2.5,10.4-3.6,3.5-1.1,7-2.1,10.6-3,3.5-.9,7.1-1.8,10.7-2.5,3.6-.8,7.2-1.4,10.8-2,3.6-.6,7.2-1,10.9-1.4,3.6-.4,7.3-.7,10.9-.9,3.7-.2,7.3-.3,11-.3,3.7,0,7.3,0,11,.2,3.7.2,7.3.4,11,.8s7.3.8,10.9,1.3c3.6.5,7.2,1.1,10.8,1.8,3.6.7,7.2,1.5,10.7,2.4,3.6.9,7.1,1.9,10.6,2.9,3.5,1.1,7,2.2,10.4,3.4,3.4,1.2,6.9,2.5,10.2,4,69.6,29.1,105.3,79.5,132.5,147.1,11.5,75,2,128-42.3,190.9Z"/>
  <path d="M2932.7,858c36.8-4.5,73.4,4.6,104.7,24.1,35.6,22.1,58.3,54.8,67.5,95.5.6,2.6,1.1,5.1,1.6,7.7.5,2.6.9,5.2,1.2,7.8.3,2.6.6,5.2.8,7.9.2,2.6.3,5.3.4,7.9,0,2.6,0,5.3,0,7.9,0,2.6-.2,5.3-.4,7.9s-.5,5.2-.8,7.9c-.3,2.6-.7,5.2-1.2,7.8-.5,2.6-1,5.2-1.6,7.7-.6,2.6-1.2,5.1-2,7.7-.7,2.5-1.5,5.1-2.3,7.5-.8,2.5-1.7,5-2.7,7.4-1,2.5-2,4.9-3.1,7.3-1.1,2.4-2.2,4.8-3.4,7.1-1.2,2.3-2.5,4.7-3.8,6.9-1.3,2.3-2.7,4.5-4.1,6.7-24.8,38.6-63.3,62.4-107.4,72.3-40.8,7.3-81.6-.4-115.8-24.4-35-24.6-56.6-60.1-63.4-102.2-.4-2.7-.8-5.5-1.1-8.2-.3-2.7-.5-5.5-.7-8.2-.2-2.8-.2-5.5-.3-8.3,0-2.8,0-5.5.2-8.3.1-2.8.3-5.5.6-8.3.3-2.8.6-5.5,1-8.2.4-2.7.8-5.5,1.4-8.2.5-2.7,1.1-5.4,1.8-8.1.7-2.7,1.4-5.3,2.2-8,.8-2.6,1.6-5.3,2.6-7.9.9-2.6,1.9-5.2,2.9-7.7,1-2.6,2.1-5.1,3.3-7.6,1.2-2.5,2.4-5,3.7-7.4,1.3-2.4,2.6-4.8,4-7.2,1.4-2.4,2.9-4.7,4.4-7,1.5-2.3,3.1-4.6,4.7-6.8,25.8-34.7,63-54.6,105.3-61.1Z"/>
  <path class="st7" d="M2874.3,892.8c10-.8,19.9-1.4,29.5,2.1,1.6.6,3.1,1.2,4.6,1.9,1.5.7,3,1.5,4.4,2.4,1.4.9,2.8,1.8,4.1,2.8,1.3,1,2.6,2.1,3.8,3.3,1.2,1.2,2.4,2.4,3.4,3.6,1.1,1.3,2.1,2.6,3,4,.9,1.4,1.8,2.8,2.6,4.3.8,1.5,1.5,3,2.1,4.5.7,1.7,1.3,3.5,1.8,5.2.5,1.8,1,3.6,1.3,5.4.3,1.8.6,3.7.8,5.5.2,1.8.2,3.7.2,5.6,0,1.9-.1,3.7-.3,5.6-.2,1.8-.5,3.7-.9,5.5-.4,1.8-.9,3.6-1.4,5.4-.6,1.8-1.2,3.5-1.9,5.2-8,18.5-22.5,27.2-40.5,33.9-11.6,1.8-23.1,1.5-34.1-3.1-1.5-.6-3-1.3-4.4-2.1-1.4-.8-2.8-1.6-4.2-2.5-1.3-.9-2.6-1.9-3.9-3-1.2-1.1-2.4-2.2-3.5-3.4-1.1-1.2-2.2-2.4-3.2-3.7-1-1.3-1.9-2.6-2.8-4-.9-1.4-1.6-2.8-2.3-4.3-.7-1.5-1.3-3-1.9-4.5-5.4-15-3.8-32.3,3.8-46.3,9.1-16.8,22.4-23.6,39.7-29.3Z"/>
  <path class="st13" d="M1653,1210.8l11.6,8.4c65.6,47.6,136.3,84.3,219,83.3,56.6-3.3,112.1-13.4,168.3-20.4,77.9-9.7,155.4-13.6,233.7-7,65.9,5.6,130,17.1,194.2,32.7,147.1,35.7,286.9,86.5,439.7,93.3,28.2,1.3,61.3,2.3,88.7-5.1,20.6-7.7,44.4-10,65.7-16.6,46.8-14.4,89.2-35.4,138.4-41.9,46-6.1,83.8-3.1,121.4,25.8,17.4,21.9,28.2,41.8,36.2,68.6-14,22.5-31.8,42.6-49.1,62.6-72,83.3-145.7,138.4-236.7,198.6,4.4,10,8.2,21.5,13.6,30.9-11,12.1-24,23.8-34,36.6-100.3,94.7-251.9,158.8-384.4,191.3-30.5,7.5-63,14.9-94.3,16.8-4.9.3-13.5.2-16.6,4.6-.4.5-.5,1.1-.7,1.7l-.9-2.6c-1.4-31.5-8.9-65.5-18.5-95.4-65,6.9-142.2,1.3-206.9-7.3-25.7-3.4-55-12.8-80.6-12.2-11.8-3.7-25.8-5.3-38-8.5-67.2-17.6-139.4-36.1-194.6-80.2-95.8-76.5-362-443.2-375.1-558.1Z"/>
  <path class="st12" d="M2067.9,1647.9c18.3-53.6,49-100.1,93.2-136,86.6-70.6,200-71.1,305.7-60.5,22.4,2.1,46.3,3.7,68.3,8.4,81.3,9.7,237.9,50,289,114.7,10.1,12.8,18,27.9,21.2,43.9-109.7,107.3-261.3,162.8-413.9,160.9-117.9-1.4-278.8-39.2-360.8-128.2-1.5-1.6-1.6-1.8-2.7-3.3Z"/>
  <path class="st0" d="M2466.8,1451.4c22.4,2.1,46.3,3.7,68.3,8.4-16.7,7-34.1,12.1-50.6,19.7-53.7,24.7-94.4,66-126,115.3,14.5-71.2,49.9-103.2,108.2-143.4Z"/>
  <path class="st9" d="M1653,1210.8l11.6,8.4c65.6,47.6,136.3,84.3,219,83.3,40.4,103.8,106.2,267.1,184.3,345.4,1.2,1.5,1.2,1.7,2.7,3.3,81.9,88.9,242.9,126.8,360.8,128.2,152.6,1.8,304.2-53.6,413.9-160.9,68.6-65.4,117.2-139.5,162.7-222.3,20.6-7.7,44.4-10,65.7-16.6,46.8-14.4,89.2-35.4,138.4-41.9,46-6.1,83.8-3.1,121.4,25.8,17.4,21.9,28.2,41.8,36.2,68.6-14,22.5-31.8,42.6-49.1,62.6-72,83.3-145.7,138.4-236.7,198.6,4.4,10,8.2,21.5,13.6,30.9-11,12.1-24,23.8-34,36.6-100.3,94.7-251.9,158.8-384.4,191.3-30.5,7.5-63,14.9-94.3,16.8-4.9.3-13.5.2-16.6,4.6-.4.5-.5,1.1-.7,1.7l-.9-2.6c-1.4-31.5-8.9-65.5-18.5-95.4-65,6.9-142.2,1.3-206.9-7.3-25.7-3.4-55-12.8-80.6-12.2-11.8-3.7-25.8-5.3-38-8.5-67.2-17.6-139.4-36.1-194.6-80.2-95.8-76.5-362-443.2-375.1-558.1Z"/>
  <path class="st8" d="M2548.2,1877.1c184.6-4.5,379.6-90.5,535.8-183.9,4.4,10,8.2,21.5,13.6,30.9-11,12.1-24,23.8-34,36.6-100.3,94.7-251.9,158.8-384.4,191.3-30.5,7.5-63,14.9-94.3,16.8-4.9.3-13.5.2-16.6,4.6-.4.5-.5,1.1-.7,1.7l-.9-2.6c-1.4-31.5-8.9-65.5-18.5-95.4Z"/>
  <path class="st4" d="M3063.6,1760.7c10-12.8,23-24.5,34-36.6,28.4,80.8,47.8,162,61.6,246.5,41.9,15.6,92.8,73.4,119.9,108.6,19.6-23.6,43.5-44.6,64.9-66.7,20.4-21.2,38.9-44,57.5-66.7-3.3,23.4-43.4,158.6-55.6,178.5l-7.8,5.6c1.8,30.4-6.6,64.8-10.9,95.2-10.6,79.6-23.5,158.8-38.7,237.7-4.7,23.8-13.9,48.3-16.3,72.1-14.7,43.3-25.5,87.6-41.3,130.7-41.8,113.9-106.4,224.1-178.2,321.5-37.4,50.7-78.1,100.9-122.8,145.3-3.5,3.5-12.5,10.3-10.3,15.3-13.4,1.9-97.6,77.8-114.9,90.7-20.8,15.5-42.2,30.2-63.6,44.8-10.8,7.3-23,14.1-32.8,22.6-.8.2-1.6.4-2.4.6-17,4.9-49.9,27.1-67.5,36.4-34.1,17.8-69.1,33.7-105,47.7-96.3,36.5-197.1,51.9-298.7,64.9-40.6,5.2-81.6,11-122.4,13.9-27.5,2-55.1.8-82.5,2.5-9.4-10.2-12.9-29-18.7-41.7-22.7-49.5-68.3-133.7-111.9-165.3-32.2-23.3-69.2-29.8-108-23.8-15.8-9.1-95.4-27-119.5-34.2-26-7.8-51.6-16.5-77-26.1-25.3-9.6-50.3-20.1-74.9-31.5-24.6-11.4-48.8-23.6-72.5-36.7-23.7-13.1-47-27-69.7-41.8-19.4-12.7-40.5-26.1-57.1-42.3.5-20.1,1.3-40.2,2.4-60.2,7.5-77.1,34.1-139.6,84.2-198.9,48.3,19.2,96.1,31,146.2,44.2,43.2,6.9,85,12.5,128.9,12.7,15.2-51.2,37.6-99.8,59.7-148.3,35.8-81.7,100.7-182.2,155.7-251.7,24.1-37.2,54.7-73.2,82.5-107.9,24-29.9,47.3-61.3,73.3-89.5l97.4-115.5c39.2-51,47.5-57.3,68.8-119.8,10.1-42.5,22.6-87.6,38.8-128.1l2.1-7.8c25.6-.7,54.9,8.7,80.6,12.2,64.7,8.6,142,14.3,206.9,7.3,9.6,29.9,17.1,63.9,18.5,95.4l.9,2.6c.2-.6.4-1.2.7-1.7,3.1-4.3,11.7-4.3,16.6-4.6,31.3-1.9,63.8-9.4,94.3-16.8,132.5-32.5,284.1-96.6,384.4-191.3Z"/>
  <path class="st8" d="M3401.5,1945.8c-3.3,23.4-43.4,158.6-55.6,178.5l-7.8,5.6c-15.3,16.8-34.5,45.9-57.9,50.9-7.6,1.6-15,.4-21.4-4.1-7.2-5.1-11.7-12-12.8-20.8-3.3-26.3,18-56.8,33.1-76.6,19.6-23.6,43.5-44.6,64.9-66.7,20.4-21.2,38.9-44,57.5-66.7Z"/>
  <path class="st11" d="M2053.5,2228.8l97.4-115.5c-.8,41.6,12,78.6,41,108.8,1.8,1.8,3.6,3.7,5.4,5.5-27.4,18-49.8,39.9-57,73.3-13.7,63.8,23,131.3,48.4,187.6-7.7,2.5-18,.7-25.8-.9-2.4-.5-4.8-1.1-7.2-1.8-2.4-.7-4.7-1.4-7.1-2.1-2.3-.8-4.7-1.6-7-2.5-2.3-.9-4.6-1.8-6.8-2.8-2.3-1-4.5-2.1-6.7-3.2-2.2-1.1-4.4-2.3-6.5-3.5-2.1-1.2-4.3-2.5-6.3-3.8-2.1-1.3-4.1-2.7-6.1-4.1-2-1.4-4-2.9-5.9-4.4-1.9-1.5-3.8-3.1-5.7-4.7-1.9-1.6-3.7-3.3-5.5-5-1.8-1.7-3.5-3.5-5.2-5.2-1.7-1.8-3.3-3.6-4.9-5.5-1.6-1.9-3.1-3.8-4.6-5.7-1.5-2-3-3.9-4.4-6-1.4-2-2.8-4.1-4.1-6.2-34.8-55.8-30.1-131-15.5-192.3Z"/>
  <path class="st11" d="M1553.4,2813.5c43.2,6.9,85,12.5,128.9,12.7-33,90.4-46.4,202.6-47.5,298.3-34.7-12.7-63.4-31.1-82.1-64-41.1-72.3-20-171.7.8-247Z"/>
  <path class="st11" d="M1897.7,2426.1l.5,2.5c2.4,11.1,5.2,22.2,8.4,33.1,3.3,10.9,7,21.7,11.1,32.3,4.1,10.6,8.7,21,13.7,31.2,5,10.2,10.4,20.2,16.2,30,25.7,43.7,79.9,95.4,97.6,138.2,4.6,11.2,7.3,24.8.3,35.7-7.7,12.1-24.1,16.6-37.4,19-92.1,16.8-186.1-30.3-266.2-70.3,35.8-81.7,100.7-182.2,155.7-251.7Z"/>
  <path class="st3" d="M3063.6,1760.7c10-12.8,23-24.5,34-36.6,28.4,80.8,47.8,162,61.6,246.5,44.1,304.3-11.8,664.1-199,914.8-4.6,6.2-9.3,12.4-14.1,18.5-145.4,185.6-352.6,328.5-590.4,357.1-122.2,14.7-287.2-1.4-386-79-23.5-18.4-44.3-42.7-48.2-73.4-.3-2.4-.5-4.9-.5-7.3,0-2.4,0-4.9.2-7.3.2-2.4.5-4.9.9-7.3s.9-4.8,1.6-7.1c.6-2.4,1.4-4.7,2.3-7,.9-2.3,1.9-4.5,3-6.7,1.1-2.2,2.3-4.3,3.6-6.4,1.3-2.1,2.7-4.1,4.2-6,37.8-47.9,159.6-112.7,216.4-144.3,86.3-54.8,163.2-106.6,226.4-188.7,28.1,46,47.3,102.1,48.9,156.3-54,63.4-160.2,98-229.1,151.8-.8,2.1-.3,1.1-2.1,3.1-14.5,15.8-24.6,28.2-29.9,49.3,3.4,13.4,7.9,24.3,17.9,34.2,30.6,30.5,92.7,32.5,132.9,31.9,179.9-2.4,349.5-112.4,471.3-237.8,12-13.4,24.4-26.5,35.3-40.9,9.9-10.9,19.1-22.7,28.1-34.4,183.5-238.7,243.4-585.6,230.9-880-2.8-64.9-11.5-129.1-20-193.4Z"/>
  <path class="st2" d="M2153,2909.3c86.3-54.8,163.2-106.6,226.4-188.7,28.1,46,47.3,102.1,48.9,156.3-54,63.4-160.2,98-229.1,151.8-4.5,1.3-8.4,4.6-11.7,7.7-27.7,27.1-20.2,33.3-20.3,65.4l-2.3,1.1c-10.6-.8-20-9-30.1-12.5-13.8-4.9-24.5-14.5-37.2-21.5-23.7-13-49.7-23-72.4-37.7-7.8-5-20.7-13.9-22.1-23.9-1.7-12.6,139.6-80.6,148.4-95.5.5-.8.9-1.7,1.4-2.6Z"/>
  <path class="st5" d="M3063.6,1760.7c8.5,64.3,17.2,128.5,20,193.4,12.5,294.4-47.4,641.3-230.9,880-9,11.7-18.2,23.5-28.1,34.4-10.8,14.3-23.3,27.5-35.3,40.9-121.8,125.4-291.4,235.4-471.3,237.8-40.2.5-102.4-1.5-132.9-31.9-10-9.9-14.5-20.8-17.9-34.2,5.3-21.1,15.5-33.5,29.9-49.3,1.8-1.9,1.2-1,2.1-3.1,68.9-53.8,175-88.4,229.1-151.8-1.6-54.2-20.8-110.3-48.9-156.3-21.2-24.8-49.4-45.4-72.3-69.1-48.3-50-82.6-103.9-118.4-163.1-25.4-56.3-62.1-123.8-48.4-187.6,7.2-33.4,29.6-55.3,57-73.3-1.8-1.8-3.6-3.6-5.4-5.5-29-30.2-41.8-67.3-41-108.8,39.2-51,47.5-57.3,68.8-119.8,10.1-42.5,22.6-87.6,38.8-128.1l2.1-7.8c25.6-.7,54.9,8.7,80.6,12.2,64.7,8.6,142,14.3,206.9,7.3,9.6,29.9,17.1,63.9,18.5,95.4l.9,2.6c.2-.6.4-1.2.7-1.7,3.1-4.3,11.7-4.3,16.6-4.6,31.3-1.9,63.8-9.4,94.3-16.8,132.5-32.5,284.1-96.6,384.4-191.3Z"/>
  <path class="st1" d="M2260.7,1857.6c25.6-.7,54.9,8.7,80.6,12.2,64.7,8.6,142,14.3,206.9,7.3,9.6,29.9,17.1,63.9,18.5,95.4l.9,2.6c4.1,120.9-13.5,259.9-99.4,351.6-13.2,14.1-27.8,27.3-41.8,40.7-4.4-15.1-11.4-30.9-17.5-45.4-19-44.4-49.6-81-95.3-99.2-39.6-15.8-77.9-12.1-116.3,4.7-1.8-1.8-3.6-3.6-5.4-5.5-29-30.2-41.8-67.3-41-108.8,39.2-51,47.5-57.3,68.8-119.8,10.1-42.5,22.6-87.6,38.8-128.1l2.1-7.8Z"/>
  <path class="st8" d="M2258.5,1865.4c10.5,37.5,29.3,72.8,51.9,104.4,22.8,33.7,47.7,65.1,73.4,96.5,16.3,20,35.5,40.2,48.3,62.7,4.3,7.5,8.9,16.3,7.2,25.3-1.4,7.6-6.5,13.8-13,17.8-10.6,6.5-23,6.6-34.7,3.5-47.6-12.7-111.6-84.4-137.8-124.3-11.9-18.1-20.4-41.6-34.2-57.8,10.1-42.5,22.6-87.6,38.8-128.1Z"/>
  <path d="M2260.7,1857.6c25.6-.7,54.9,8.7,80.6,12.2,64.7,8.6,142,14.3,206.9,7.3,9.6,29.9,17.1,63.9,18.5,95.4-67.1,11.8-189.9,12.4-256.2-2.8-22.6-31.6-41.4-66.9-51.9-104.4l2.1-7.8Z"/>
  <path d="M2197.3,2227.6c38.4-16.8,76.7-20.4,116.3-4.7,45.7,18.2,76.3,54.8,95.3,99.2,6.2,14.5,13.1,30.3,17.5,45.4,10.9,34.6,21.5,69.3,31.8,104.1,5.3,17.5,9.4,36.5,16.7,53.2,2.6,5.8,5.7,12.4,11.2,15.9,3.3,2.1,7.4,1.1,10.9,0,19.9-6.9,38.3-20,57.5-29,51.7-24.2,112.4-45.1,168.5-54.7-25.2,20.6-132,98.9-133.8,125.4-.2,3.5.4,6.1,2.6,9,3.1,4.1,9.5,6.6,14.2,8.3,12.7,4.5,26.8,6.6,39.9,9.8,21.1,5.1,41.8,11.4,62.2,19,24.2,9,47.6,19.7,69.5,33.5-31.3,1.1-186.9,1.6-202.9,20.4-3.1,3.7-3.2,6.9-1.9,11.4,2.1,7.8,112.4,118.6,130.2,144.7-41.8-15.2-82.5-33.9-122.9-52.5-17.1-7.8-34.3-17.6-52-23.9-7.6-2.7-17.7-6.3-25.7-3.8-7,6.5-11.2,14.9-14.2,23.9-6.9,20.9-8.4,44.1-13.4,65.7-3.8,16.6-11,34.3-13.4,50.8-12.8,32-25.7,62-42.4,92.1,6.9-38.1,11.4-74.7,9.2-113.6-1.6-54.2-20.8-110.3-48.9-156.3-21.2-24.8-49.4-45.4-72.3-69.1-48.3-50-82.6-103.9-118.4-163.1-25.4-56.3-62.1-123.8-48.4-187.6,7.2-33.4,29.6-55.3,57-73.3Z"/>
</svg>