<?xml version="1.0" encoding="UTF-8"?>
<svg id="_x2014_ÎÓÈ_x5F_1" xmlns="http://www.w3.org/2000/svg" xmlns:xlink="http://www.w3.org/1999/xlink" version="1.1" viewBox="0 0 4000 4000">
  <!-- Generator: Adobe Illustrator 29.2.1, SVG Export Plug-In . SVG Version: 2.1.0 Build 116)  -->
  <defs>
    <style>
      .st0 {
        fill: #2f0f0a;
      }

      .st1 {
        fill: #c82a0f;
      }

      .st2 {
        fill: #171717;
      }

      .st3 {
        fill: #f5cf5e;
      }

      .st4 {
        display: none;
      }

      .st4, .st5 {
        fill: #fefefe;
      }

      .st6 {
        fill: #060504;
      }

      .st7 {
        fill: url(#_ÂÁ_Ï_ÌÌ_È_ËÂÌÚ);
      }

      .st8 {
        fill: #203d4e;
      }

      .st9 {
        fill: #ec8976;
      }

      .st10 {
        fill: #f56b00;
      }

      .st11 {
        fill: #e65500;
      }
    </style>
    <linearGradient id="_ÂÁ_Ï_ÌÌ_È_ËÂÌÚ" data-name="¡ÂÁ˚ÏˇÌÌ˚È „‡‰ËÂÌÚ" x1="1374.2" y1="2462.5" x2="1395.5" y2="2196.1" gradientTransform="translate(-3830.1 10933.1) scale(3.9 -3.9)" gradientUnits="userSpaceOnUse">
      <stop offset="0" stop-color="#fba103"/>
      <stop offset="1" stop-color="#f6cb02"/>
    </linearGradient>
  </defs>
  <path class="st4" d="M0,0h4000v4000H0V0Z"/>
  <path class="st1" d="M2847.3,2756.5l7.4-3.8c1.7,10.1-.8,20.1-2.3,30.1-4.9,31.5-11.4,64.9.5,95.7-11.5,2.8-37.3,12-47.6,6.8,4.1-48.2,20.2-86.1,41.9-128.7Z"/>
  <path class="st11" d="M2847.3,2756.5c9.3-16,18.8-31.6,29-47.1,29.8,43.9,51.4,88.9,68.6,139.1-30.2,11.2-60.7,22-91.9,30-12-30.7-5.4-64.1-.5-95.7,1.5-10,4-20,2.3-30.1l-7.4,3.8Z"/>
  <path class="st3" d="M335.4,1667.7c-16.3-37.1-19.8-83.8-11.7-123.3,12.1-59.7,49.9-114.8,100.6-148.4-.8,29.8-1,60.6,6.1,89.8-47.1,33.9-80.1,83.5-89.9,141.1-2.3,13.5-3.8,27.2-5.2,40.9Z"/>
  <path class="st1" d="M2971.9,2044.3l2.4-3c8.6,3.6,21.5,32.5,26.3,41.1,29.6,52.3,65.2,93.7,112.5,130.7-.6,32.7.3,65.3,1.4,98-13.7-9-26.7-19-38.9-29.9-68.7-61.7-98.4-146.4-103.7-236.8Z"/>
  <path class="st10" d="M2970.3,2012c36.7,17.1,72.9,36.1,108.9,54.7,15.3,7.9,30.5,17.2,46.3,24-4.2,41.1-11.2,81-12.2,122.4-47.4-36.9-83-78.4-112.5-130.7-4.9-8.7-17.7-37.5-26.3-41.1l-2.4,3c-1.7-10.7-1.5-21.5-1.7-32.3Z"/>
  <path class="st1" d="M2982.3,2475.9c18.1,16.1,33.9,61.6,47.1,84.1,25.8,44,56.5,87.3,92.8,123.1-9.9,23.7-22.3,46.7-35,69-3.2-3-6.4-6-9.5-9.1-71-70.3-95-170.1-95.4-267.1Z"/>
  <path class="st11" d="M2982.7,2438.7c54,36.6,108.5,72.4,163.6,107.3,1.3,46.6-5.6,94.2-24.1,137.2-36.3-35.8-67-79.1-92.8-123.1-13.2-22.5-29-68.1-47.1-84.1,0-12.4,0-24.8.4-37.3Z"/>
  <path class="st3" d="M2725.4,1392.6l1.2,1.8c14.8,21.7,33.8,40.2,48.6,61.9,46.7,68,61.1,149.3,46.3,230.2-7.5,40.9-23.1,79.8-39.7,117.7-12.2-31.1-20.2-65-30.7-96.8-29.4-90-58.6-178.6-97.9-264.9l1.8-3.5c23.6-13.5,45.5-35.8,70.2-46.3Z"/>
  <path class="st1" d="M430.4,1485.8c5.4,28.1,8.9,44.1,34,61.3,36.1,24.8,80.9,37.1,124,41.2-27.4,46.4-62,87.7-100.7,125-34.9,33.7-92.5,67.8-113.6,111.1-24.8-51.6-34.3-100.1-38.7-156.7,1.4-13.6,2.9-27.3,5.2-40.9,9.7-57.6,42.8-107.2,89.9-141.1Z"/>
  <path class="st11" d="M2533.7,2585.3c6.9.7,14.7,2.4,21.6,2.1,94.5,11.9,191.5,27.5,282.4,56.3-8.7,20.1-20.9,56.3-33.4,73.2-28.7,64.9-64.1,130.3-120.2,175.4-22.4,1.6-45.5-8.3-67.7-10.7l-2.3,2.7c-7.5-35.3-12.4-72.1-24.1-106.3l-5.4-20.7c-15.2-57.9-32.2-115.2-51-172Z"/>
  <path class="st1" d="M2533.7,2585.3c6.9.7,14.7,2.4,21.6,2.1,28.8,55.5,49.1,113.1,69.6,172.1,46.9,1.3,96.1-1.7,139.1-22.7,12.7-6.2,26.1-18.5,40.3-19.9-28.7,64.9-64.1,130.3-120.2,175.4-22.4,1.6-45.5-8.3-67.7-10.7l-2.3,2.7c-7.5-35.3-12.4-72.1-24.1-106.3l-5.4-20.7c-15.2-57.9-32.2-115.2-51-172Z"/>
  <path class="st1" d="M2457.7,2136.5c80.2,18.7,142.4,58.1,208.2,105.5,26.6,19.2,53.4,38.4,78.5,59.5-3.9,3.7-8.2,8.4-12.5,11.5-76.8,71-148.3,112.4-245.6,149.3-1.7-1.3-93-169.9-101.3-184.6-14.1-26.2-30.3-51.1-43.5-77.8,39.3-18.9,76.3-42,115.2-61.4l1-2.1Z"/>
  <path class="st11" d="M2457.7,2136.5c80.2,18.7,142.4,58.1,208.2,105.5,26.6,19.2,53.4,38.4,78.5,59.5-3.9,3.7-8.2,8.4-12.5,11.5-6.7-3.7-75.6,7-88.9,7.4-17.9.5-35.8-.1-53.6-1.9-17.8-1.7-35.5-4.6-52.9-8.6-38.8-8.8-92.9-24.4-114.6-61.1-1.6-2.6-2.9-5.4-4.2-8.2-1.2-2.8-2.3-5.7-3.1-8.6-.9-2.9-1.5-5.9-2-9-.5-3-.8-6.1-.9-9.1-2.4-49.4,39.1-51.4,45.1-75.5l1-2.1Z"/>
  <path class="st0" d="M830.8,3331.8c162.3,23.4,407.6,118.6,507.8,253.3,5.4,7.3,10.4,14.9,15.3,22.5,9.5,22.9,14.6,44.8,9.3,69.6-13.6,63.2-73.1,103-123.8,135.6-14.2-28.3-24.7-55.1-30.5-86.4-50.9,29.7-106.3,49.7-160.8,71.8-9.1-33.7-4.9-66.4,4.7-99.4l-183.9,8.7c31.9-68.5,122.9-114.5,190.1-139.3-94.8-55.9-177.4-138.5-228.2-236.5Z"/>
  <path class="st0" d="M2064.9,3693.4c-9-17.1-13.8-35.3-13.7-54.6.3-55.6,43.5-107,81.6-143.1,112.4-106.5,286-167.8,439.4-163.1-57.2,98.1-110.5,156.1-188.5,237.9,66.8,23.9,101.2,42.9,154.8,90.3,14,17.2,24.8,34.2,34.3,54.2-55.1-.2-127.3,2.1-180.7-6.2,11.8,36.1,22.2,70.5,19.1,109-57.9-28.7-112.9-46.2-174.8-63.6-3.1,19.7-6.1,39.3-12.3,58.4-63.9-23.8-121-62.3-159.2-119.2Z"/>
  <path class="st11" d="M2627.2,3103.5h5.4c.1.5.3,1.2.4,1.8,4.3,21,4.1,43.9,5.7,65.4,6.4,87.3,14.3,181.3,93.3,235.1,83.4,56.9,202.7,45.7,297.3,27.2,139.7-27.4,266.7-79.9,383.1-161.9,29.6-20.7,58.5-42.4,86.5-65.1,13.8-11.2,27.5-28,43-36.4,3.9-2.1,6-3.1,10-.9,1,.5,1.8,1.3,2.7,1.9-181.5,266.8-513.3,402.3-819.5,460.4-65.1,12.4-130.6,22.3-196.5,29.7-53.6-47.4-88-66.4-154.8-90.3,78-81.8,131.4-139.8,188.5-237.9,35-87.9,45.4-135.8,54.9-229Z"/>
  <path class="st10" d="M2104.2,2289.8c26.1-8.9,53-15.6,79.2-24.6,54.1-18.6,106.4-41,158.1-65.2,13.2,26.7,29.3,51.6,43.5,77.8,8.3,14.7,99.6,183.3,101.3,184.6,15.4,40.3,28.7,84.2,47.4,122.9,18.8,56.8,35.8,114.1,51,172l5.4,20.7c11.7,34.2,16.6,71,24.1,106.3,6.8,44,12.5,89.3,13,133.8.5,28.4-.9,57.1,0,85.4-9.6,93.2-20,141.1-54.9,229-153.4-4.7-327,56.6-439.4,163.1-38.1,36.1-81.3,87.5-81.6,143.1,0,19.4,4.7,37.6,13.7,54.6-72.2.7-144.5-4.5-216.4-10.1-99.9-7.7-198.9-17.5-297.8-34.1-35.2-6-70.1-13.1-104.9-21.3-29.8-7.3-61.3-18-92-20.4-4.9-7.6-9.9-15.2-15.3-22.5-100.2-134.8-345.5-229.9-507.8-253.3-47.1-76.6-72-207.7-80.1-297-9.5-79.2-7.2-179.4,4.1-258.1,17.9-143.9,52.3-284.7,110.7-417.8,17.4-43.8,41.7-86.4,64.9-127.4,35.8,13.5,72,25.5,108.8,36.1,36.7,10.6,73.8,19.7,111.3,27.3l-22.5,57c-2.7,7.6-5.3,15.3-8.2,22.9,43.6,45.4,93.8,121.2,123.5,176.9-63.3,10.9-161.4,83.8-198.5,136.1-14.5,20.4-26.7,46.5-21.8,72.1,3.5,18.2,14.5,34,25.2,48.7,23.8,25.2,48.1,46,76.9,65.2-22.3-2.3-50.4-19-70.1-29.4-4.8,17.2,2.6,56,4.9,74.5,15.9,127.9,42.7,261.4,106.6,374.8,70.4,124.9,182.6,197.5,318.4,234.8,176,48.3,365.5,44.1,526.9-48.9,115.7-66.6,185-174.7,218.6-302,27.1-102.4,34-211.8,31.6-317.3-2.7-20.4-3-41-6.6-61.2,4.7-5.6,9.6-10.8,12.7-17.4-11.5-28.8-24.1-56.4-41.2-82.4-49.4-74.8-117.2-126.1-205.6-143.8,28-58.4,73.8-121.1,113.2-172.5-14-30.4-23.2-60.5-30.2-93.1Z"/>
  <path class="st11" d="M1055,2844.2c-17.9-16.3-41.6-27.7-60.7-43.2-81.5-66-120-120.4-131.1-224.9,32.7,75.7,100.6,179.6,169.9,226.8,5.4,3.7,8.6,6.6,15.1,5.5,23.8,25.2,48.1,46,76.9,65.2-22.3-2.3-50.4-19-70.1-29.4Z"/>
  <path class="st11" d="M2409.4,2598.2c-21.2,78.3-64.5,153-111.8,218.3-10.7,14.7-22.2,31.7-35.7,43.7-2.7-20.4-3-41-6.6-61.2,4.7-5.6,9.6-10.8,12.7-17.4,21.1-32.9,47.3-63.2,71.5-93.9,23.3-29.7,45.5-60.6,69.9-89.4Z"/>
  <path class="st11" d="M2104.2,2289.8c26.1-8.9,53-15.6,79.2-24.6,54.1-18.6,106.4-41,158.1-65.2,13.2,26.7,29.3,51.6,43.5,77.8-65.6,7.3-146,9.5-198.7,54.2-17.5,14.9-34.6,38-51.9,50.8-14-30.4-23.2-60.5-30.2-93.1Z"/>
  <path class="st11" d="M930.4,2231.4c35.8,13.5,72,25.5,108.8,36.1,36.7,10.6,73.8,19.7,111.3,27.3l-22.5,57c-74.2-15.3-125.4-28.1-202.7-10.4-20.3,4.6-39.6,12.6-59.7,17.4,17.4-43.8,41.7-86.4,64.9-127.4Z"/>
  <path class="st2" d="M754.8,2776.7c46.1,61.4,90.3,123.1,140,181.9l92.6,107.4c18.6,21.5,38.2,42.9,55,65.9-69.8-19.4-139.6-42.3-208.1-65.9-27.9-9.6-55.3-23.1-83.6-31.1-9.5-79.2-7.2-179.4,4.1-258.1Z"/>
  <path class="st0" d="M2590,2778c11.7,34.2,16.6,71,24.1,106.3,6.8,44,12.5,89.3,13,133.8-113.8,50.2-234.4,84.7-351.1,127.8,103.9-123,201.4-252.4,313.9-367.9Z"/>
  <path class="st10" d="M3125.4,2090.7c8.6-23.2,11.6-50.9,18.7-75,32.2-109.1,81.9-177.4,174.6-243.6,93.9-67,198.5-104.9,312.1-120.5,18.7-2.6,43.1-8.5,61.6-5.4l.5,2.3-5.7,4.1c-110,82.9-233.7,184.5-254.2,329.4-31.6,223.1,132,411.9,195.2,614.6,3.9,12.4,7.4,24.9,10.5,37.5,3.2,12.6,6,25.2,8.4,38,2.5,12.7,4.6,25.5,6.3,38.4,1.7,12.9,3.1,25.8,4.1,38.7,1,12.9,1.7,25.9,2,38.9.3,13,.2,25.9-.2,38.9-.4,13-1.2,25.9-2.4,38.8-1.2,12.9-2.7,25.8-4.5,38.6-1.6,11.8-3.5,23.6-5.7,35.3-2.2,11.7-4.7,23.4-7.6,34.9-2.9,11.6-6,23.1-9.5,34.5-3.5,11.4-7.3,22.7-11.4,33.9-4.1,11.2-8.5,22.3-13.2,33.2-4.7,10.9-9.7,21.8-15.1,32.4-5.3,10.7-10.9,21.2-16.8,31.5-5.9,10.4-12.1,20.5-18.5,30.6-.9-.6-1.8-1.4-2.7-1.9-4-2.2-6.1-1.2-10,.9-15.5,8.4-29.2,25.2-43,36.4-28.1,22.7-56.9,44.4-86.5,65.1-116.4,82-243.4,134.5-383.1,161.9-94.6,18.5-213.9,29.7-297.3-27.2-79-53.9-86.9-147.9-93.3-235.1-1.6-21.5-1.4-44.4-5.7-65.4-.1-.6-.3-1.3-.4-1.9h-5.4c-.9-28.3.5-56.9,0-85.4-.6-44.5-6.3-89.9-13-133.8l2.3-2.7c22.2,2.5,45.3,12.4,67.7,10.7,24.1,7,68.1,3.3,93.4.6,8.4-.9,22.5-.8,27.9-7.6,10.2,5.3,36-3.9,47.6-6.8,31.2-8,61.7-18.8,91.9-30,48.4-13.8,111.9-55.6,142.3-96.4,12.7-22.3,25.1-45.3,35-69,18.5-43,25.4-90.7,24.1-137.2-.5-46.4-11.4-94.5-19-140.2-5.2-31.5-8.4-63.1-12.7-94.7-1-32.7-1.9-65.2-1.4-98,1-41.4,8-81.3,12.2-122.4Z"/>
  <path class="st3" d="M3125.4,2090.7c8.6-23.2,11.6-50.9,18.7-75,32.2-109.1,81.9-177.4,174.6-243.6,93.9-67,198.5-104.9,312.1-120.5,18.7-2.6,43.1-8.5,61.6-5.4l.5,2.3-5.7,4.1c-30.7,4.8-60.3,17.1-88.4,30-91.8,42.1-175.1,102.6-235.1,184.8-70.1,95.9-92.4,207.9-73.8,324.3,35.8,223.2,178.6,376.8,19.5,598.6-128.7,179.4-334,262.2-545.6,296.3-43.6,7-87.7,10.1-131.2,16.9h-5.4c-.9-28.3.5-56.9,0-85.4-.6-44.5-6.3-89.9-13-133.8l2.3-2.7c22.2,2.5,45.3,12.4,67.7,10.7,24.1,7,68.1,3.3,93.4.6,8.4-.9,22.5-.8,27.9-7.6,10.2,5.3,36-3.9,47.6-6.8,31.2-8,61.7-18.8,91.9-30,48.4-13.8,111.9-55.6,142.3-96.4,12.7-22.3,25.1-45.3,35-69,18.5-43,25.4-90.7,24.1-137.2-.5-46.4-11.4-94.5-19-140.2-5.2-31.5-8.4-63.1-12.7-94.7-1-32.7-1.9-65.2-1.4-98,1-41.4,8-81.3,12.2-122.4Z"/>
  <path class="st3" d="M1150.4,2294.8c41.5,13.7,103.3,22,147.2,29,255.5,40.8,557.5,42.7,806.6-34.1,7,32.6,16.2,62.7,30.2,93.1-39.4,51.4-85.2,114.1-113.2,172.5,88.4,17.7,156.3,69,205.6,143.8,17.1,26,29.7,53.6,41.2,82.4-3.1,6.6-8,11.9-12.7,17.4,3.7,20.3,4,40.9,6.6,61.2,2.4,105.5-4.6,215-31.6,317.3-33.6,127.2-102.9,235.3-218.6,302-161.4,93-350.9,97.2-526.9,48.9-135.8-37.3-248-109.8-318.4-234.8-63.9-113.4-90.7-246.9-106.6-374.8-2.3-18.5-9.7-57.3-4.9-74.5,19.7,10.4,47.8,27.1,70.1,29.4-28.8-19.2-53.2-40-76.9-65.2-10.8-14.7-21.7-30.5-25.2-48.7-4.9-25.6,7.3-51.6,21.8-72.1,37.1-52.2,135.2-125.2,198.5-136.1-29.7-55.7-79.9-131.5-123.5-176.9,3-7.5,5.5-15.2,8.2-22.9l22.5-57Z"/>
  <path class="st0" d="M1048.1,2808.4c-10.8-14.7-21.7-30.5-25.2-48.7-4.9-25.6,7.3-51.6,21.8-72.1,37.1-52.2,135.2-125.2,198.5-136.1,32.2,43.6,57.6,91.7,83.2,139.4,48.3,7.2,97.2,9.9,145.5,17.1-34,28.2-72.6,50.7-106.5,78.7,35.4,35.8,73.1,69,107.7,105.6-50.3,1-100.6,3.1-150.8,6.4-.6,26.3-1.6,52.6-2.8,78.9-30.2-18.8-59.9-46.5-91.1-61.9-16.8-8.3-35.4-12.6-53-18.9-17.5-6.2-33.9-14.7-50.4-23.3-28.8-19.2-53.2-40-76.9-65.2Z"/>
  <path class="st0" d="M2021.2,2555.3c88.4,17.7,156.3,69,205.6,143.8,17.1,26,29.7,53.6,41.2,82.4-3.1,6.6-8,11.9-12.7,17.4-63.5,67-135.7,93.3-215.5,133.4-37,18.6-71.8,39.9-106.8,61.9l26.2-108c-50,3.9-100.3,8.9-150.4,10.6,31.5-37.2,70.1-69.8,103.9-105-35.9-30.7-75.1-58-110.1-89.6,51.5-2.3,103.1-7.2,154.5-11.5,8.1-23.7,17.5-46.9,28.3-69.5,10.7-22.6,22.7-44.6,35.9-65.9Z"/>
  <path class="st6" d="M889.3,1449.3c.9-.5,1.9-.9,2.8-1.4,21.7-12.3,36.9-65.4,54.3-85.4.4.3.8.6,1.2.9,11.3,8.1,30.6,19.4,43.9,23.3,6.5,1.9,15.1,1.6,22,2.8,32.3,5.8,64.5,10.4,96.9,15.4,28.6,4.5,57.1,11.7,85.2,18.5,17.8,4.3,37.4,7.2,53.1,16.8,6.5,4,14.2,6.1,18.3,12.9.7,5.7-1.3,14.7,2.2,18.4,4.4.9,10.2.7,12.9,4.3-1.2-.3-2.3-.8-3.5-1-3.6-.7-3-.3-6.2-.4-9.5-.5-20.8-3.8-30.8-4.7-53.7-4.9-142.8-11.3-188.6,21.9-2.4,1.7-3.8,3.8-5.5,6.1,19.4-9.1,38.2-17.3,59.2-22.1,96.7-22.1,204.9,11.8,300.8,25.8,64.6,9.5,128.2,14.2,193.5,12.9,44.1-1,87.8-5,131.3-12.2,99.6-15.9,214.6-51.6,312.9-16.5,20.6,7.4,46.2,23.7,63.9,29-.3-2.2-1.2-3.4-2.4-5.2-30.7-18.6-90.9-41.1-126.3-41.7-4,0-6.6.2-10.3-1.6,4.2,0,6.4.2,10-2.1.3-4.3-.9-4.5-3.5-7.8,20.4-40.6,107.5-32.5,146.4-39.7,12.2-2.3,23.8-9.3,35.3-13.9.7-.3,10.6-3.8,10.7-3.7,4,2.5,9.4,12.5,12.5,16.7,13.5,18.6,43.7,61.4,65.3,69,1.2.4,2.4.7,3.5,1.1l2.5,1.6c14,9,26.4,20.6,40.8,29.1,61.5,36.4,137.7,54.4,208.4,40.2,6.3-1.3,12.6-2.8,18.8-4.5,62.3-17.6,101.2-54.5,132.5-109.6,39.3,86.3,68.4,174.9,97.9,264.9,10.4,31.9,18.5,65.7,30.7,96.8l-3.5,5.4c-55,107.1-138,192.4-233.3,264.6-27.9,21.1-62.2,38.4-87.4,62.3l-1,2.1c-38.9,19.4-75.9,42.5-115.2,61.4-51.8,24.2-104.1,46.6-158.1,65.2-26.1,9-53.1,15.6-79.2,24.6-249.1,76.8-551.1,74.9-806.6,34.1-43.9-7-105.7-15.3-147.2-29-37.5-7.6-74.6-16.7-111.3-27.3-36.7-10.6-73-22.6-108.8-36.1-176.6-61.2-374.4-165.4-494.6-312.6-23.8-29.1-43.8-61.4-61.8-94.4,21.2-43.3,78.7-77.4,113.6-111.1,38.7-37.4,73.3-78.6,100.7-125,20.9,2.9,43.1,2.1,64,.2,104.3-9.6,171.8-61.1,236.9-139.3Z"/>
  <path class="st8" d="M950,2062.6c-47.5-23.3-107.5-50.4-135.4-97.5-16.1-27.2-15.9-54.7-8.1-84.4,30-113.6,152.8-294.1,254.3-351.7,3.9-2.2,8-4.4,12-6.4,97.3-48.2,265.6,4.5,369,17.4,69.9,8.7,141.7,12.2,212,6.2,110.2-9.5,269.7-60.4,373.2-30.8,117.9,33.8,223.1,162.8,281,267.4,20.3,36.7,71.5,132.2,59.1,171.2-14.1,44.2-76.5,70.8-114.9,89.2-105.3-171.3-285.7-291.9-479.8-338.5-193.6-46.4-411.2-17.4-581.7,87.3-111.5,68.4-187.3,151-240.8,270.5Z"/>
  <path class="st1" d="M950,2062.6c53.5-119.5,129.3-202.1,240.8-270.5,170.5-104.6,388.2-133.7,581.7-87.3,194.1,46.5,374.5,167.2,479.8,338.5-81,40.1-167.9,67-255.5,88.6-48.5,11.4-97,23.2-146.1,31.8-151.9,26.5-312.3,32.9-465.5,13.6-57.2-7.2-112.8-20.9-169.5-30.4-92.1-19.5-177.9-51.1-265.7-84.3Z"/>
  <path class="st9" d="M1215.6,2146.9c6.2-32,18.1-64.2,35.5-91.8,50.7-80.5,145.1-128.6,235.6-148.5,124.7-27.5,276.5-9.3,385.1,60.7,60.8,39.2,109.1,92.6,124.9,164.6-48.5,11.4-97,23.2-146.1,31.8-151.9,26.5-312.3,32.9-465.5,13.6-57.2-7.2-112.8-20.9-169.5-30.4Z"/>
  <path class="st7" d="M889.3,1449.3c.9-.5,1.9-.9,2.8-1.4,21.7-12.3,36.9-65.4,54.3-85.4.4.3.8.6,1.2.9,11.3,8.1,30.6,19.4,43.9,23.3,6.5,1.9,15.1,1.6,22,2.8,32.3,5.8,64.5,10.4,96.9,15.4,28.6,4.5,57.1,11.7,85.2,18.5,17.8,4.3,37.4,7.2,53.1,16.8,6.5,4,14.2,6.1,18.3,12.9.7,5.7-1.3,14.7,2.2,18.4,4.4.9,10.2.7,12.9,4.3-1.2-.3-2.3-.8-3.5-1-3.6-.7-3-.3-6.2-.4-9.5-.5-20.8-3.8-30.8-4.7-53.7-4.9-142.8-11.3-188.6,21.9-2.4,1.7-3.8,3.8-5.5,6.1-27.4,18.6-54.4,37.3-78.2,60.5-75.7,74.2-178.1,231.3-198.2,335.9-6.4,33.3,1,62.7,20.1,90.3,82,118.4,374.8,187.2,511.4,210.9,262.7,45.5,534.9,18.1,789.5-56.5,85.3-25,176.7-56.2,249.7-108.2,28-20,55.4-47.6,60.6-83.3,10.1-69.9-85.9-223.8-130-280.3-46-58.9-100.6-112-163.5-152.5-.3-2.2-1.2-3.4-2.4-5.2-30.7-18.6-90.9-41.1-126.3-41.7-4,0-6.6.2-10.3-1.6,4.2,0,6.4.2,10-2.1.3-4.3-.9-4.5-3.5-7.8,20.4-40.6,107.5-32.5,146.4-39.7,12.2-2.3,23.8-9.3,35.3-13.9.7-.3,10.6-3.8,10.7-3.7,4,2.5,9.4,12.5,12.5,16.7,13.5,18.6,43.7,61.4,65.3,69,1.2.4,2.4.7,3.5,1.1l2.5,1.6c14,9,26.4,20.6,40.8,29.1,61.5,36.4,137.7,54.4,208.4,40.2,6.3-1.3,12.6-2.8,18.8-4.5,62.3-17.6,101.2-54.5,132.5-109.6,39.3,86.3,68.4,174.9,97.9,264.9,10.4,31.9,18.5,65.7,30.7,96.8l-3.5,5.4c-55,107.1-138,192.4-233.3,264.6-27.9,21.1-62.2,38.4-87.4,62.3l-1,2.1c-38.9,19.4-75.9,42.5-115.2,61.4-51.8,24.2-104.1,46.6-158.1,65.2-26.1,9-53.1,15.6-79.2,24.6-249.1,76.8-551.1,74.9-806.6,34.1-43.9-7-105.7-15.3-147.2-29-37.5-7.6-74.6-16.7-111.3-27.3-36.7-10.6-73-22.6-108.8-36.1-176.6-61.2-374.4-165.4-494.6-312.6-23.8-29.1-43.8-61.4-61.8-94.4,21.2-43.3,78.7-77.4,113.6-111.1,38.7-37.4,73.3-78.6,100.7-125,20.9,2.9,43.1,2.1,64,.2,104.3-9.6,171.8-61.1,236.9-139.3Z"/>
  <path class="st1" d="M2653.4,1442.4c39.3,86.3,68.4,174.9,97.9,264.9,10.4,31.9,18.5,65.7,30.7,96.8l-3.5,5.4c-18.9-4.8-38.1-13.5-56.3-20.7-62.2-24.3-126.1-49.7-171.3-101-35.8-40.7-52.2-76.8-48.7-131.4,6.3-1.3,12.6-2.8,18.8-4.5,62.3-17.6,101.2-54.5,132.5-109.6Z"/>
  <path class="st10" d="M1648.3,158.6c5.9-3.3,11.6-6.3,17.8-8.9-1.1,101.9,14.6,197.5,62.2,289,12.9,2.5,25.9,5.1,38.9,7.1,73.2-60.9,165.2-94.6,256.7-117.1,60.4-17.7,127.2-25,189.7-31.9-39.2,81-83.4,184.6-87.3,275.5,57.6,30.5,115.7,61.9,169.4,98.9,5.7,3.9,11.3,7.8,17,11.7,5.6,4,11.2,8,16.7,12.1,5.5,4.1,11,8.2,16.4,12.5,5.4,4.2,10.8,8.5,16.2,12.8,5.3,4.3,10.6,8.7,15.9,13.1,5.3,4.4,10.5,8.9,15.6,13.5,5.2,4.5,10.3,9.1,15.3,13.8,5.1,4.7,10.1,9.4,15,14.1,5,4.8,9.9,9.6,14.7,14.4,4.9,4.9,9.7,9.8,14.4,14.8,4.8,5,9.5,10,14.1,15.1,4.6,5.1,9.2,10.2,13.8,15.3,4.5,5.2,9,10.4,13.4,15.6,4.4,5.3,8.8,10.6,13.1,15.9,4.3,5.4,8.6,10.7,12.8,16.2,4.2,5.4,8.3,10.9,12.4,16.5,4.1,5.5,8.1,11.1,12.1,16.7,4,5.6,7.9,11.3,11.7,17,3.8,5.7,7.6,11.4,11.4,17.2,3.7,5.8,7.4,11.6,11,17.5,3.6,5.9,7.1,11.7,10.6,17.7,3.5,5.9,6.9,11.9,10.2,17.9,3.4,6,6.6,12,9.9,18.1,3.2,6.1,6.4,12.2,9.5,18.3,3.1,6.1,6.1,12.3,9.1,18.5,3,6.2,5.9,12.4,8.7,18.7,2.8,6.3,5.6,12.6,8.3,18.9,2.7,6.3,5.3,12.7,7.9,19.1,2.6,6.4,5.1,12.8,7.5,19.2,2.4,6.4,4.8,12.9,7.1,19.4,2.3,6.5,4.5,13,6.7,19.5,2.2,6.5,4.2,13.1,6.2,19.7,11.7,37.6,21.4,75.8,29,114.4,5.4,28.4,8.7,58.2,15.9,86.1-24.8,10.5-46.6,32.8-70.2,46.3l-1.8,3.5c-31.2,55.1-70.2,92-132.5,109.6-6.2,1.7-12.5,3.2-18.8,4.5-70.8,14.2-147-3.9-208.4-40.2-14.4-8.5-26.8-20.2-40.8-29.1l-2.5-1.6c-1.2-.4-2.4-.7-3.5-1.1-21.6-7.6-51.7-50.4-65.3-69-3.1-4.3-8.6-14.2-12.5-16.7,0,0-10,3.5-10.7,3.7-11.5,4.5-23.1,11.6-35.3,13.9-38.9,7.2-126-.9-146.4,39.7,2.5,3.3,3.8,3.5,3.5,7.8-3.6,2.3-5.8,2.2-10,2.1,3.7,1.8,6.3,1.6,10.3,1.6,35.4.5,95.6,23,126.3,41.7,1.1,1.9,2,3,2.4,5.2-17.7-5.4-43.2-21.7-63.9-29-98.3-35.1-213.3.6-312.9,16.5-43.5,7.2-87.3,11.2-131.3,12.2-65.3,1.2-128.9-3.5-193.5-12.9-95.9-14.1-204.1-47.9-300.8-25.8-21,4.8-39.8,13-59.2,22.1,1.7-2.3,3.2-4.4,5.5-6.1,45.7-33.2,134.9-26.8,188.6-21.9,10.1.9,21.3,4.3,30.8,4.7,3.1.2,2.6-.3,6.2.4,1.2.2,2.3.7,3.5,1-2.7-3.6-8.5-3.4-12.9-4.3-3.6-3.8-1.6-12.8-2.2-18.4-4.1-6.9-11.8-9-18.3-12.9-15.7-9.6-35.4-12.5-53.1-16.8-28.1-6.8-56.6-14-85.2-18.5-32.4-5.1-64.5-9.6-96.9-15.4-6.9-1.2-15.5-.9-22-2.8-13.3-3.9-32.6-15.2-43.9-23.3-.4-.3-.8-.6-1.2-.9-17.4,20-32.6,73.2-54.3,85.4-.9.5-1.9.9-2.8,1.4-65.1,78.1-132.6,129.7-236.9,139.3-20.9,1.9-43.1,2.7-64-.2-43.2-4.1-87.9-16.4-124-41.2-25.1-17.2-28.6-33.2-34-61.3-7.1-29.2-6.9-59.9-6.1-89.8,2-8.5,1.6-18,2-26.7-.1-63.9,6.9-125.5,24-187.2,85.8-309.6,335.7-530.7,625.6-650.3,39.6-16.4,79.9-30.9,120.9-43.7,18.9-5.9,88.1-20.9,99.9-28.2.7-.5,1.5-.9,2.2-1.4,78.3-132.9,212.6-233.6,349.4-299.9Z"/>
  <path class="st6" d="M1751.5,1185.2c4.7.5,9.3,1.5,13,4.8,3.7,3.4,4.1,6.9,3.4,11.6-2.7,18.9-46.9,52.4-62.3,62.4-2.6,0-3.6,0-6.4-.6-4.7-1.2-8.6-4.6-10.9-8.8-.3-4,0-7,1.4-10.7,10.4-26.6,36.6-47,61.7-58.7Z"/>
  <path class="st6" d="M1331.6,1185.3c18.3,1.6,33.7,11.8,46.9,24,11.1,10.2,24,24.8,23.9,40.7,0,7.4-3.8,10.8-8.7,15.5-20.3-6.5-41-23.7-55.9-38.7-6.9-6.9-16.1-17.8-15-28.4.6-5.9,4.8-9.3,8.9-13Z"/>
  <path class="st6" d="M758,913c98.5-53.4,193.7-63.9,256.5-169.6-10.3,43.9-31.1,84.8-70.3,109.6-20.1,5.2-39.6,17.9-58.9,25.9-18.6,7.7-112.3,41.6-127.3,34.1Z"/>
  <path class="st6" d="M2038.4,717.8c14,20.8,24.3,42.2,42.4,60.2,52,51.6,135.3,83.7,201,115.3,46,22.1,92.3,45.1,136.2,71.1-4.1,1.1-6.8.8-10.8-.4-24.9-7.2-49.9-20.3-74.2-29.9-67.4-26.8-134.2-53.7-199.9-84.6-54.7-32.2-78.5-71.4-94.7-131.8Z"/>
  <path class="st1" d="M1767.2,445.8c73.2-60.9,165.2-94.6,256.7-117.1l2.3,2.6c-3.3,7.9-44.3,50.2-53.2,62.1-21.7,28.9-38.9,60.5-54.6,93-50.3-15.7-100.1-27.9-151.2-40.7Z"/>
  <path class="st1" d="M1648.3,158.6c-1.4,12.9-43.7,52.4-55.4,66.1-52.2,60.9-107.9,133.8-138.8,208.4-27.3,3.6-142,27.6-155.1,25.5,78.3-132.9,212.6-233.6,349.4-299.9Z"/>
  <path class="st3" d="M1546.3,582.9c28.3-1.6,56.2.5,83.4,8.9,35.1,10.9,62.1,27.2,79.1,60.4,8.8,17.1,13.4,37.3,12.3,56.4-5,90.4-122,99.2-152.6,163.9-18.5,39.1,24.6,69.5,10.7,109.2-6.4,18.4-23.9,28.7-40.5,36.8l-1.1.2c-8.9,2-16.5,3.3-25.5.9-6.2-1.7-11.3-5.1-14.2-11-9.2-18.1,2.7-43.9,8.6-61.7-13.6-39.7-58.4-56.2-88.5-81.8-34.8-29.5-59.8-68.4-63.4-114.7-2.8-36,10.9-69.9,34.2-96.9,39.4-45.5,98.7-66.4,157.3-70.8Z"/>
  <path class="st2" d="M2133.1,849.6c65.6,30.9,132.5,57.8,199.9,84.6,24.2,9.6,49.3,22.7,74.2,29.9,4,1.2,6.7,1.5,10.8.4,117.2,63.8,189.9,145.4,228.4,274.2,19.5,65.1,24.4,133.9,8.7,200.2l-1.8,3.5c-31.2,55.1-70.2,92-132.5,109.6-6.2,1.7-12.5,3.2-18.8,4.5-70.8,14.2-147-3.9-208.4-40.2-14.4-8.5-26.8-20.2-40.8-29.1l-2.5-1.6c-84.2-78.6-131-172.6-156.6-283.8-27-117.8-26.4-247.1,39.4-352.2Z"/>
  <path class="st5" d="M2509.9,1309c7.7-.4,14.6-.4,22,2.3,19.1,7,32.9,23.5,40.6,41.9,7.9,19.1,9.2,41.1.9,60.3-7.6,17.4-19.3,26.3-36.5,33.3-8.8.5-16.5.6-24.9-2.3-17.8-6.3-31.1-20.6-38.4-37.7-8.4-19.4-9.7-42.2-1.8-62,7.5-18.7,20-28.5,38.2-35.8Z"/>
  <path class="st5" d="M2227.4,947.6c20.3-1.7,37.7-.2,56.6,7.9,50.6,21.5,85,70.8,104.6,120.4,15.3,38.6,24.9,86.8,6.9,126.2-10.4,22.9-27.3,35.9-50.1,45-20,3-38.2,1-57-6.8-48.5-20.2-86.1-69-105.1-116.6-15.9-39.7-24-91.8-5.7-132.2,10.3-22.7,27.1-35.3,49.7-44Z"/>
  <path class="st2" d="M758,913c15,7.6,108.7-26.4,127.3-34.1,19.3-8,38.8-20.7,58.9-25.9,13.1,21.8,25.4,43.3,34.2,67.2,35.5,96,31.7,213.7,7.1,312.4-19.6,78.5-50.5,149.6-96.2,216.6-65.1,78.1-132.6,129.7-236.9,139.3-20.9,1.9-43.1,2.7-64-.2-43.2-4.1-87.9-16.4-124-41.2-25.1-17.2-28.6-33.2-34-61.3-7.1-29.2-6.9-59.9-6.1-89.8,2-8.5,1.6-18,2-26.7,1.3-13,3.1-26,5.3-38.9,2.2-12.9,4.8-25.7,7.9-38.4,3.1-12.7,6.6-25.3,10.5-37.8,3.9-12.5,8.3-24.8,13.1-37,1.7-4.2,3.4-8.4,5.1-12.6s3.6-8.3,5.4-12.5c1.9-4.1,3.8-8.2,5.7-12.3,2-4.1,4-8.1,6-12.2,2.1-4,4.2-8,6.3-12,2.2-4,4.4-7.9,6.6-11.9,2.3-3.9,4.6-7.8,6.9-11.7,2.4-3.9,4.8-7.7,7.2-11.5,2.5-3.8,5-7.6,7.5-11.3,2.5-3.7,5.1-7.5,7.8-11.2,2.6-3.7,5.3-7.3,8-11,2.7-3.6,5.5-7.2,8.3-10.8,2.8-3.5,5.7-7.1,8.6-10.5,2.9-3.5,5.9-6.9,8.8-10.3,3-3.4,6-6.8,9.1-10.1,3.1-3.3,6.2-6.6,9.3-9.9,3.2-3.3,6.4-6.5,9.6-9.6,3.2-3.2,6.5-6.3,9.8-9.4,3.3-3.1,6.7-6.1,10.1-9.2,3.4-3,6.8-6,10.3-8.9,3.5-2.9,7-5.8,10.5-8.6,3.5-2.8,7.1-5.6,10.7-8.4,3.6-2.8,7.2-5.5,10.9-8.1,3.7-2.7,7.4-5.3,11.1-7.8,3.7-2.6,7.5-5.1,11.3-7.6,3.8-2.5,7.6-4.9,11.5-7.3,3.9-2.4,7.7-4.7,11.7-7,3.9-2.3,7.9-4.5,11.8-6.7,4-2.2,8-4.3,12-6.4s8.1-4.1,12.1-6.1c4.1-2,8.2-3.9,12.3-5.8,4.1-1.9,8.3-3.7,12.4-5.5Z"/>
  <path class="st5" d="M538.4,1349.9c9.2-.6,17.4-.6,25.8,3.8,7.3,3.8,12.6,9.6,15.1,17.5,6.1,19.4-1.7,45.1-10.7,62.8-13,25.4-31.6,42.5-58.8,51.2-9.3,1-16.9,1.1-25.6-2.8-8.5-3.8-14.7-9.6-17.7-18.6-6.1-18.2-.6-40.4,7.6-57.1,13.6-27.7,35-46.9,64.2-56.8Z"/>
  <path class="st5" d="M841,953.8c17-2,36.9,1.7,51.4,11,18.1,11.6,27.3,31.6,31.1,52.1,9.3,49.4-8.3,100.8-36,141.4-27.8,40.9-67.5,73-116.8,82.4-21.2.6-40-1.3-57.7-14.5-19.2-14.3-28.5-37.4-31.4-60.6-6.3-49.8,11.7-100.5,42.1-139.7,29.3-37.9,69.1-66,117.3-72.1Z"/>
</svg>