<?xml version="1.0" encoding="UTF-8"?>
<svg id="Layer_1" xmlns="http://www.w3.org/2000/svg" version="1.1" viewBox="0 0 3000 3000">
  <!-- Generator: Adobe Illustrator 29.2.1, SVG Export Plug-In . SVG Version: 2.1.0 Build 116)  -->
  <defs>
    <style>
      .st0 {
        fill: #e9a27d;
      }

      .st1 {
        fill: #f4e5df;
      }

      .st2 {
        fill: #d75531;
      }

      .st3 {
        fill: #f3e7db;
      }

      .st4 {
        fill: #f2e6e0;
      }

      .st5 {
        fill: #f7e4aa;
      }

      .st6 {
        fill: #c27f5b;
      }

      .st7 {
        fill: #db9f7d;
      }

      .st8 {
        fill: #a8491f;
      }

      .st9 {
        fill: #eaa27b;
      }

      .st10 {
        fill: #fff;
      }

      .st11 {
        fill: #cb6f3c;
      }

      .st12 {
        display: none;
      }
    </style>
  </defs>
  <g class="st12">
    <path class="st10" d="M478.1,478.1v2043.8h2043.8V478.1H478.1Z"/>
  </g>
  <g>
    <path class="st11" d="M1093.1,1532.2c21.2,20.6,45.8,37.7,71.9,52.1,25,13.7,51.5,25,78,34.2,24,8.4,48.6,15.3,73.7,20,12.9,2.4,26,4.3,39.1,4.7,4.1.1,8.3.2,12.9,0,13.1-.5,26.2-2.3,39.1-4.7,25-4.7,49.6-11.6,73.7-20,26.5-9.2,53-20.4,78-34.2,26.1-14.4,50.6-31.5,71.9-52.1,22.2-21.6,36.6-48.8,43.4-78.9,3.3-14.8,4.8-30.4,2.8-45.5-.2-1.3-.4-2.6-.6-3.9-1.5-8.4-4.2-16.7-6.6-24.9-3.3-11.6-6.3-23.2-8.8-35-3.7-16.9-6.1-34.1-9.9-51.1-6.3-28.2-16.3-55.7-33.5-79.1-7.6-10.4-17.2-20-27.5-28-5.6-4.4-11.6-8.3-17.8-11.9-50-28.6-74.4,18.3-79.2,15.4s4.5-20.6,12.5-27.5c-37.5-29.4-90.2-36.8-137.2-37.3-2.8,0-9.8,0-13.5,0-47.1.1-99.7,7.9-137.2,37.3,8,6.9,17.5,24.5,12.5,27.5s-29.2-44-79.2-15.4c-6.2,3.5-12.1,7.5-17.8,11.9-10.3,8-19.8,17.6-27.5,28-17.2,23.4-27.2,50.9-33.5,79.1-3.8,16.9-6.2,34.1-9.9,51.1-2.5,11.8-5.5,23.4-8.8,35-2.3,8.2-5,16.5-6.6,24.9-.2,1.3-.5,2.6-.6,3.9-2,15.1-.6,30.7,2.8,45.5,6.8,30.2,21.2,57.4,43.4,78.9Z"/>
    <path class="st8" d="M1664.4,1402.9c0-.8-7.6-20.3-13.3-49.3-5.2-26.4-10.7-59.4-22.3-89-22.9-73.5-86.1-94.8-99-98.4,2.2-.6,4.4-1,6.8-1.3,10.2-1.2,22.3.9,36.5,9,6.2,3.5,12.1,7.5,17.8,11.9,10.3,8,19.8,17.6,27.5,28,17.2,23.4,27.2,50.9,33.5,79.1,3.8,16.9,6.2,34.1,9.9,51.1,2.5,11.8,5.5,23.4,8.8,35,1.5,5.1,3.1,10.3,4.4,15.5.8,3.1,1.6,6.3,2.1,9.4.2,1.3.5,2.6.6,3.9.2,1.2.3,2.5.4,3.7-7.4-4.2-13.6-7.9-13.6-8.6Z"/>
    <path class="st8" d="M1060.1,1402.9c0-.8,7.6-20.3,13.3-49.3,5.2-26.4,10.7-59.4,22.3-89,22.9-73.5,86.1-94.8,99-98.4-2.2-.6-4.4-1-6.8-1.3-10.2-1.2-22.3.9-36.5,9-6.2,3.5-12.1,7.5-17.8,11.9-10.3,8-19.8,17.6-27.5,28-17.2,23.4-27.2,50.9-33.5,79.1-3.8,16.9-6.2,34.1-9.9,51.1-2.5,11.8-5.5,23.4-8.8,35-1.5,5.1-3.1,10.3-4.4,15.5-.8,3.1-1.6,6.3-2.1,9.4-.2,1.3-.5,2.6-.6,3.9-.2,1.2-.3,2.5-.4,3.7,7.4-4.2,13.6-7.9,13.6-8.6Z"/>
    <path class="st7" d="M1677.6,1407.8c-.2-1.3-.4-2.6-.6-3.9-4.6-6.7-10.4-12.9-17.9-14.3-14.1-2.6-30.5,8.8-41.8,17.7-21.6,17-68.6,35.6-98.2,39.6,1.4.8,2.2,2.3,1.7,3.5-1.2,3-12.1,0-19-3-1.9-.2-3.4-.4-4.7-.5-5.4,5.1-11.2,9.7-17.4,13.7-20.9,16.8-29.8,41.1-40.6,64.6-7.1,15.5-19.1,27.7-34.8,34.5-11.7,5.1-24.4,7.3-37.1,8-.4.1-9.2.1-9.6,0-12.7-.7-25.4-2.9-37.1-8-15.7-6.8-27.7-19-34.8-34.5-10.8-23.5-19.7-47.8-40.6-64.6-6.2-4.1-12-8.6-17.4-13.7-1.4,0-2.9.3-4.7.5-6.9,2.9-17.8,6-19,3-.5-1.2.3-2.7,1.7-3.5-29.6-4-76.6-22.6-98.2-39.6-11.3-8.9-27.7-20.3-41.8-17.7-7.6,1.4-13.4,7.5-17.9,14.3-.2,1.3-.5,2.6-.6,3.9-2,15.1-.6,30.7,2.8,45.5,6.8,30.2,21.2,57.4,43.4,78.9,41.6,40.3,95.6,67.4,149.9,86.3,24,8.4,48.6,15.3,73.7,20,12.9,2.4,26,4.3,39.1,4.7,4.1.1,8.3.2,12.9,0,13.1-.5,26.2-2.3,39.1-4.7,25-4.7,49.6-11.6,73.7-20,54.3-18.9,108.3-46,149.9-86.3,22.2-21.6,36.6-48.8,43.4-78.9,3.3-14.8,4.8-30.4,2.8-45.5Z"/>
    <path class="st11" d="M1746.5,1799.9c-14.9-9.6-33.3-11.9-50.5-8.3-4.9,1-11.4-1.4-12.3-7-2.4-14.5,4.5-25.3,14.2-35.3,8.6-9,16.8-18.2,23.6-28.6,12.9-19.8,19.9-42.2,19.4-66-.3-16.6-3.1-35.4-18.6-43.8-3.8-2-8.1-2.4-11.9-4.2-3-1.4-5.6-3.4-8.1-5.6-5.2-4.5-9.6-9.9-14.1-15-13.7-15.3-28.3-28.4-47.9-34.4-13.4,12.4-28.3,23.3-43.2,33.1-1.7,1.1-3.4,2.2-5.1,3.3-9.6,6.1-19.4,11.8-29.4,17.1-1.1.5-2.9,1.4-5.2,2.6-11.6,5.6-36,17-44.5,20.4-17.5,7.1-35.3,13.3-53.4,18.5-9.1,2.7-18.3,5.1-27.5,7.3-11.2,2.6-22.7,5-34.2,6.8-9.6,1.4-19.2,2.4-28.8,2.6-2.2,0-4.5,0-6.7,0-2.2,0-4.5.1-6.7,0-9.6-.2-19.2-1.2-28.8-2.6-11.5-1.7-23-4.1-34.2-6.8-9.2-2.2-18.4-4.6-27.5-7.3-18.1-5.3-35.9-11.5-53.4-18.5-8.5-3.5-32.9-14.8-44.5-20.4-2.3-1.1-4.2-2-5.2-2.6-10-5.3-19.8-11-29.4-17.1-1.7-1.1-3.4-2.2-5.1-3.3-14.9-9.8-29.8-20.7-43.2-33.1-19.6,6-34.2,19.1-47.9,34.4-4.6,5.1-8.9,10.6-14.1,15-2.5,2.1-5.1,4.2-8.1,5.6-3.9,1.8-8.2,2.2-11.9,4.2-15.5,8.4-18.3,27.2-18.6,43.8-.5,23.7,6.5,46.1,19.4,66,6.8,10.5,15,19.7,23.6,28.6,9.7,10.1,16.6,20.9,14.2,35.3-.9,5.6-7.4,8-12.3,7-17.2-3.6-35.6-1.2-50.5,8.3-6.3,4.1-12.2,9.4-17.3,14.8-4.2,4.5-8.7,10.1-8.4,15.7.3,5.4,3,11.4,6.8,15.5,1.7,1.8,4.2,3.5,5.5,4.1,3.6,1.6,6.6,1.5,9.5-1.4,3.5-3.4,5.8-7.8,8.3-11.9,5.2-8.5,11.9-17.1,21.1-21.7,18-20.7,60.1-18.3,59.7-13-.4,5-32,7.2-45.8,25-7.3,9.4-10,24.9-5.3,36,3,7,10,11.8,17.6,12.1,8.4.3,15-4.8,18.3-12.3,2.1-4.8,4.5-9.5,7.2-14.1,6.7-11.5,15.4-21.6,26.6-28.8,6.6-10.2,33.3-21.1,36.3-16,2.5,4.3-14,12.5-21.5,30.7-3.5,8.6-6.2,21.9-.6,30.2,2.5,3.7,6.8,6.1,11.3,6.5,6.4.5,11.9-2.9,14.9-8.3,2.3-4,3.6-8.6,4.9-13,4.1-14.1,7.4-30.5,24.2-34.1,8.5-1.8,17.6-.4,25.7,2.3,7.9,2.6,19.6,10.1,26.9,9.1,5.4-.7,10.2-5.6,11-11.8,1.2-9.1-5.8-17.2-12.4-22.4-7.5-5.9-16.4-7.4-25.6-8.5-10.6-1.3-20.7-2.7-30.5-7-9-4-18.3-10.2-22.9-19.2-4.3-8.5-6.1-17.9-7.3-27.3-.8-6.3-2.1-12.8-3.8-19.2-5.2-20-13.9-40-21.9-56.4-10.4-21.5-19.5-36.8-17.3-37.8,9.2-4.2,23.9,17,30.2,27,1.1,1.7,3.4,5.9,6,10.7,4.7,8.6,10.3,19.2,11.2,21.4.2.4.3.8.5,1.2,32.9,6.4,66.8-1.1,96.7-14.9,5.1-2.4,10.4-5.7,16-2.4,2.3,1.3,4.3,3.5,6.3,5.3,33.3,28.4,79.3,38.3,122.1,38.5,42.8-.2,88.8-10,122.1-38.5,2-1.7,4.1-3.9,6.3-5.3,5.6-3.2,10.9,0,16,2.4,29.8,13.8,63.8,21.3,96.7,14.9.2-.4.3-.8.5-1.2,1-2.2,6.6-12.8,11.2-21.4,2.6-4.8,4.9-8.9,6-10.7,6.3-10,20.9-31.2,30.2-27,2.2,1-6.9,16.3-17.3,37.8-8,16.4-16.7,36.3-21.9,56.4-1.7,6.4-3,12.9-3.8,19.2-1.2,9.4-2.9,18.7-7.3,27.3-4.6,9.1-13.8,15.2-22.9,19.2-9.8,4.4-19.9,5.7-30.5,7-9.3,1.1-18.1,2.6-25.6,8.5-6.7,5.2-13.6,13.3-12.4,22.4.8,6.1,5.6,11,11,11.8,7.3,1,19-6.5,26.9-9.1,8.1-2.7,17.2-4.1,25.7-2.3,16.8,3.6,20.1,20,24.2,34.1,1.3,4.4,2.6,9,4.9,13,3.1,5.4,8.6,8.8,14.9,8.3,4.5-.3,8.8-2.7,11.3-6.5,5.6-8.3,2.9-21.6-.6-30.2-7.5-18.2-24-26.4-21.5-30.7,3-5.1,29.8,5.8,36.3,16,11.1,7.3,19.9,17.3,26.6,28.8,2.6,4.5,5,9.3,7.2,14.1,3.3,7.5,9.8,12.6,18.3,12.3,7.6-.3,14.6-5.1,17.6-12.1,4.7-11.1,1.9-26.6-5.3-36-13.8-17.9-45.5-20-45.8-25-.4-5.3,41.7-7.7,59.7,13,9.2,4.7,15.9,13.2,21.1,21.7,2.5,4.1,4.9,8.5,8.3,11.9,2.9,2.9,6,3,9.5,1.4,1.3-.6,3.8-2.3,5.5-4.1,3.8-4.1,6.5-10.1,6.8-15.5.3-5.6-4.1-11.2-8.4-15.7-5.1-5.5-11-10.8-17.3-14.8Z"/>
    <path class="st8" d="M1167.4,1628.2c6.5-1,12.4-5.8,17.6-12.2-6.8-3.2-13.4-6.3-17.9-8.5-2.3-1.1-4.2-2-5.2-2.6-10-5.3-19.8-11-29.4-17.1-1.7-1.1-3.4-2.2-5.1-3.3-14.9-9.8-29.8-20.7-43.2-33.1-2.8.9-5.5,1.9-8.2,3,10.6,11.9,42.9,45.6,91.5,73.6Z"/>
    <path class="st8" d="M1557.1,1628.2c-6.5-1-12.4-5.8-17.6-12.2,6.8-3.2,13.4-6.3,17.9-8.5,2.3-1.1,4.2-2,5.2-2.6,10-5.3,19.8-11,29.4-17.1,1.7-1.1,3.4-2.2,5.1-3.3,14.9-9.8,29.8-20.7,43.2-33.1,2.8.9,5.5,1.9,8.2,3-10.6,11.9-42.9,45.6-91.5,73.6Z"/>
    <path class="st7" d="M1557.4,1607.6c-11.6,5.6-36,17-44.5,20.4-17.5,7.1-35.3,13.3-53.4,18.5-9.1,2.7-18.3,5.1-27.5,7.3-11.2,2.6-22.7,5-34.2,6.8-9.6,1.4-19.2,2.4-28.8,2.6-2.2,0-4.5,0-6.7,0-2.2,0-4.5.1-6.7,0-9.6-.2-19.2-1.2-28.8-2.6-11.5-1.7-23-4.1-34.2-6.8-9.2-2.2-18.4-4.6-27.5-7.3-18.1-5.3-35.9-11.5-53.4-18.5-8.5-3.5-32.9-14.8-44.5-20.4-2.2,36-33.6,45.8-57.7,47.8,4.7,8.6,10.3,19.2,11.2,21.4.2.4.3.8.5,1.2,32.9,6.4,66.8-1.1,96.7-14.9,5.1-2.4,10.4-5.7,16-2.4,2.3,1.3,4.3,3.5,6.3,5.3,33.3,28.4,79.3,38.3,122.1,38.5,42.8-.2,88.8-10,122.1-38.5,2-1.7,4.1-3.9,6.3-5.3,5.6-3.2,10.9,0,16,2.4,29.8,13.8,63.8,21.3,96.7,14.9.2-.4.3-.8.5-1.2,1-2.2,6.6-12.8,11.2-21.4-24.1-2-55.5-11.8-57.7-47.8Z"/>
    <path class="st6" d="M1677.6,1407.8c-.2-1.3-.4-2.6-.6-3.9-2.6-3.9-5.7-7.6-9.2-10.3,1.1,9.6,7.7,72.7-44.6,118.5-53.4,46-124.9,71.5-152.4,80.5-23.4,7.6-70.6,22.3-96.2,26.1-5.6.8-14.5.8-19.5.5-23.9-1.6-76.3-18.3-101.3-26.5-27.5-9-99-34.5-152.4-80.5-52.3-45.9-45.7-109-44.6-118.5-3.6,2.7-6.6,6.4-9.2,10.3-.2,1.3-.5,2.6-.6,3.9-2,15.1-.6,30.7,2.8,45.5,6.8,30.2,21.2,57.4,43.4,78.9,18.7,18.1,39.7,33.5,62.1,46.6,0,0,0,0,0,0,1.6.9,3.2,1.8,4.8,2.8,0,0,0,0,0,0,1.6.9,3.2,1.8,4.9,2.7,46.9,25.8,99.1,44.2,151.7,54.2,12.9,2.4,26,4.3,39.1,4.7,1.9,0,3.8.1,5.6.1.3,0,.6,0,.9,0,.3,0,.6,0,.9,0,1.8,0,3.7,0,5.6-.1,13.1-.4,26.2-2.3,39.1-4.7,52.6-10,104.8-28.4,151.7-54.2,1.6-.9,3.3-1.8,4.9-2.7,0,0,0,0,0,0,1.6-.9,3.2-1.8,4.8-2.8,0,0,0,0,0,0,22.4-13.1,43.5-28.5,62.1-46.6,22.2-21.6,36.6-48.8,43.4-78.9,3.3-14.8,4.8-30.4,2.8-45.5Z"/>
    <path class="st6" d="M1346,1672c2.2-.2,4.3-.4,6.4-.6.1,0,6.7-.4,9.9-.4,3.1,0,9.7.5,9.8.4,2.1.2,4.2.4,6.4.6,79.9,8.9,167.9-47.5,179.6-58.5-.3-1.9-.5-3.9-.7-5.9-8.5,4.1-17.1,8.2-25.7,12.1,0,0,0,0,0,0-.6.3-1.2.5-1.8.8,0,0-.1,0-.2,0-12.2,5.6-24.6,10.7-37.3,15.3-10.8,3.9-21.8,7.5-32.9,10.7-4.6,1.3-9.1,2.6-13.7,3.8-4.6,1.2-9.2,2.4-13.8,3.4-11.2,2.6-22.7,5-34.2,6.8-.4,0-.7.1-1.1.2-8.3,1.2-17,1.4-25.4,1.7-14.6.5-29,.4-43.4-1.7-.4,0-.7-.1-1.1-.2-11.5-1.7-23-4.1-34.2-6.8-9.2-2.2-18.4-4.6-27.5-7.3-19.2-5.6-38.2-12.1-56.7-19.9-7.1-3-14-6.2-21-9.4-6.7-3.1-13.3-7-20.2-9.5-.1.6-.7,5.9-.7,5.9,11.7,11,99.7,67.3,179.6,58.5Z"/>
    <g>
      <path class="st11" d="M1018.5,1770.3c-1.2-1.6-2.5-3.1-3.7-4.3-4.9-5.3-10-10.3-14.6-15.8-9.5-11.2-18-23.4-24.2-36.8-11.3-24.4-14.8-51-10.8-77.5,3-19.8,14.7-38.3,34-45.3,2.5-.9,5.3-1.3,7.6-2.6,2.1-1.2,3.7-3.2,5.3-4.8,5.7-5.9,10.9-12.2,16.5-18.1,11.6-12.2,24.9-22.6,40.3-29-4-4.6-7.8-9.5-11.3-14.5-2.5-3.6-4.9-7.3-7.1-11.2-21.3,6.1-41.8,14.7-61,25.8-17.9,10.3-37,22.3-48,40.3-10.6,17.4-14.5,37.6-12.6,57.8,1.7,17.8,8.3,36.1,16,52.2,8.1,16.8,18.8,32.1,29.3,47.5,4.2,6.1-1.3,15.5-8.6,15-10.1-.6-21,.2-29.4,4.8-10.8,5.9-19.9,21.9-11.3,33.2,5.6,7.4,14.7,12.1,23.9,11.6.4-.4.8-.8,1.2-1.1,7.2-6.9,15.2-13.6,24.1-18.1,13.9-7,29.2-9.7,44.5-8.9Z"/>
      <path class="st11" d="M1767.9,1420.5c-13.1-7.7-27.3-13.6-42-17.6-6.5-1.8-13.4-3.3-20.2-4-2.8,3.2-5.5,6.5-8.2,9.8.6,5.2,1,10.5.9,15.8-.4,22.8-5.8,46.1-15.1,67.4,19.3,5.8,38.1,13.6,55.8,23.2,20.6,11.2,42.4,24.8,56.6,43.9,8.8,11.8,14.7,25.6,17.8,40,7.5-1.5,14.9-3.4,22.1-5.7,5.6-27.2,7.1-55.6.7-82.8-9.1-38.6-34.4-70.3-68.4-90.2Z"/>
      <path class="st9" d="M1795.7,1559.2c8.8,11.8,14.7,25.6,17.8,40,5.4-1.1,10.7-2.3,15.9-3.8,2.1-.6,4.1-1.2,6.2-1.9,5.6-27.2,7.1-55.6.7-82.8-.8-3.4-1.7-6.7-2.8-10-2.5-8-5.8-15.6-9.6-22.8-16.8,14.8-38.3,31.1-64.3,49.5,13.7,8.8,26.6,19.1,36,31.9Z"/>
      <path class="st11" d="M1735.2,1536c-19.2-11.1-39.7-19.7-61-25.8-2.2,3.8-4.6,7.6-7.1,11.2-3.5,5-7.3,9.9-11.3,14.5,15.3,6.5,28.7,16.9,40.3,29,5.6,5.9,10.8,12.3,16.5,18.1,1.6,1.6,3.3,3.6,5.3,4.8,2.3,1.4,5.1,1.7,7.6,2.6,19.3,7,31,25.5,34,45.3,4,26.5.4,53.1-10.8,77.5-6.2,13.4-14.7,25.6-24.2,36.8-4.7,5.5-9.8,10.5-14.6,15.8-1.2,1.3-2.5,2.7-3.7,4.3,15.3-.8,30.6,1.9,44.5,8.9,8.9,4.5,16.9,11.2,24.1,18.1.4.4.8.8,1.2,1.1,9.2.4,18.3-4.3,23.9-11.6,8.7-11.3-.5-27.3-11.3-33.2-8.4-4.6-19.4-5.4-29.4-4.8-7.3.4-12.8-8.9-8.6-15,10.5-15.3,21.3-30.7,29.3-47.5,7.7-16.1,14.4-34.4,16-52.2,1.9-20.2-2-40.4-12.6-57.8-11-18-30.1-30-48-40.3Z"/>
      <path class="st7" d="M1916.8,1305.9c-24-.7-45.9,1.8-68.9,7.3-18.3,4.3-35.9,10.5-52.6,18.3,17.5,2.3,34.4,8,49.4,17.8,27.5,17.7,46.6,46,58,76.2,6.4,17,9.6,35,11,53.1,1.9,24.7-.2,49.7-6.7,73.5,6.3-5.7,12.3-11.9,17.9-18.6,10.2-12.1,18.8-25.5,26-39.5,6-11.7,10.6-24,17.7-35.1,6.2-25.7,10.3-52.7,4.6-78.9-7-32.9-28.9-57.2-56.5-74.1Z"/>
      <path class="st11" d="M1907.9,1469.9c-3.4-29.9-13.5-58.3-31.1-82.8-10.7-14.9-24.2-27.9-40.2-37-15.4-8.7-32.3-13.2-49.7-14.5-28.9,14.7-54.9,34.5-77,58.7,7.8,1,15.6,3.1,22.9,5.4,33.7,10.4,64.9,30.6,85.6,59.3,27.9,38.7,31.3,87.1,22.6,132.6,21.4-7.6,41.4-18.9,59-33.5,8.9-28.4,11.2-58.6,7.8-88.2Z"/>
      <path class="st9" d="M1841.1,1591.7c4.3-1.5,8.5-3.2,12.7-5,16.6-7.2,32.2-16.8,46.3-28.5,8.9-28.4,11.2-58.6,7.8-88.2-1.7-14.6-5-28.9-9.9-42.6-.2-.5-.4-1.1-.6-1.6-4.8-12.7-11-24.8-18.9-36.1-.6-.8-1.1-1.6-1.7-2.5-10.7-14.9-24.2-27.9-40.2-37-15.4-8.7-32.3-13.2-49.7-14.5-8.6,4.4-16.9,9.2-25,14.5,22.7-4.8,63.4-7.7,91.5,22.8,28.5,30.9,19.8,60.4-25.5,101.4,19.1,35.7,20.7,77.6,13.1,117.3Z"/>
      <path class="st7" d="M2030.4,1339.1c.8,4,1.3,8,1.7,11.6,2.3,19.9,0,40.1-4.3,59.7,6.3-2.8,12.6-5.4,18.9-8.3,5.9-2.7,11.8-5.6,17.5-8.8,2.5-1.4,5-2.8,7.3-4.5,1.6-1.2,5.5-3.3,6.3-5.1,1.6-3.4-5.1-11.2-7.1-13.5-10.9-12.6-25.2-22.7-40.4-31Z"/>
      <path class="st7" d="M2027.4,1352.7c-.5-4.7-1.3-11-2.8-16.6-8.8-4.4-17.8-8.3-26.6-11.8-1.4-.5-2.7-1-4.1-1.6-21.4-8-43.9-14.2-66.7-16.3,12.4,8.4,23.7,18.6,32.6,30.8,18.8,25.8,23.6,57.8,20,88.9-.9,7.5-2.2,15-3.7,22.4,7.6-9.5,16.6-17.8,26.7-24.7,6.2-4.3,12.7-7.7,19.4-10.8,4.6-19.7,7.3-40.1,5.3-60.3Z"/>
      <path class="st8" d="M1739.1,1515.3c20.6,11.2,42.4,24.8,56.6,43.9,8.8,11.8,14.7,25.6,17.8,40,5.4-1.1,10.7-2.3,15.9-3.8,2.1-.6,4.1-1.2,6.2-1.9,5.6-27.2,7.1-55.6.7-82.8-.8-3.4-1.7-6.7-2.8-10,10.7,59.6-7,90.1-11.5,88.9-10.7-60.2-64.8-84-101.3-106.7-13.2-8.2-20.7-20.2-24.9-32.2-2.5,14.1-6.7,28.1-12.5,41.3,19.3,5.8,38.1,13.6,55.8,23.2Z"/>
      <path class="st6" d="M1836.4,1510.7c-.8-3.4-1.7-6.7-2.8-10,10.7,59.6-7,90.1-11.5,88.9-5.9-33.5-25.3-55.7-47.7-72.8-4.7,3.4-9.6,6.9-14.7,10.5,1.5,1,3.1,2,4.6,3,.2.2.5.3.7.5,14.7,10.1,28.2,22.5,37.1,38.1,5.4,9.4,9.2,19.7,11.5,30.3,5.4-1.1,10.7-2.3,15.9-3.8,2.1-.6,4.1-1.2,6.2-1.9,5.6-27.2,7.1-55.6.7-82.8Z"/>
      <g>
        <path class="st8" d="M1014.8,1765.9c-4.9-5.3-10-10.3-14.6-15.8-6.3-7.5-12.2-15.4-17.3-23.8,0,2,0,4-.2,6-18-21.8-44.9-66.3-47.3-68.5,2.7,7.8,5.9,15.4,9.3,22.5,8.1,16.8,18.8,32.1,29.3,47.5,2.5,3.6,1.6,8.4-1.1,11.6,3.3,2.6,11.1,6.3,13.9,10.5-16.1,2.9-33.1,9.5-45.1,20.5-7,7-14.3,4.8-20.4-.6-.2,3.8.8,7.7,3.4,11.1,5.6,7.4,14.7,12.1,23.9,11.6.4-.4.8-.8,1.2-1.1,7.2-6.9,15.2-13.6,24.1-18.1,13.9-7,29.2-9.7,44.5-8.9-1.2-1.6-2.5-3.1-3.7-4.3Z"/>
        <path class="st8" d="M1057.4,1521.4c-2.5-3.6-4.9-7.3-7.1-11.2-.2,0-.3.1-.5.2,0,32.8-29.2,55.4-48.9,79.5,2-.6,4-1,5.7-2.1,2.1-1.2,3.7-3.2,5.3-4.8,5.7-5.9,10.9-12.2,16.5-18.1,11.6-12.2,24.9-22.6,40.3-29-4-4.6-7.8-9.5-11.3-14.5Z"/>
        <path class="st0" d="M1306.3,1176.5c20.6-5.7,40.7-10.4,61.6-10.2,21.2.1,40.9,5.1,61.3,11.4,15.4,4.8,22.6-19.2,7.2-23.9-22-6.8-44.8-12.3-67.9-12.4-23.2-.2-46.1,4.8-68.3,11-15.5,4.3-9.5,28.6,6.1,24.3h0Z"/>
        <path class="st2" d="M1395.3,1512.6c-8.5.5-17.4,2.6-24.4,7.6-4.6,3.3-6.6,8.1-7.9,12.8,0,0-5.6-10.9-8.4-12.9-7-5-16.9-7-25.4-7.5-11.1-.6-28,1.8-36.2,10.9,2.6,5.3,5.7,10.3,9.7,14.7,15.1,16.7,37.9,22.2,59.6,22.2s44.5-5.5,59.6-22.2c4-4.4,7-9.4,9.7-14.7-8.1-9.1-25-11.5-36.2-10.9Z"/>
        <path d="M1077.8,1318.3c0,54.3,31,89,74,89s76-42.4,76-96.7-21.7-102-69.3-102-80.7,55.4-80.7,109.7Z"/>
        <path class="st5" d="M1187.3,1267.3c0,12.7-7.7,23-17.2,23s-17.2-12.8-17.2-25.5,7.7-18.5,17.2-18.5,17.2,8.3,17.2,21Z"/>
        <ellipse cx="1306.9" cy="1194.3" rx="27.6" ry="20.7" transform="translate(-445.3 940.8) rotate(-34.2)"/>
        <path d="M1404.3,1263.4c0,20.5-11.5,39.1-38.5,39.1s-38-18.6-38-39.1,19.7-37.2,38.3-37.2,38.2,16.6,38.2,37.2Z"/>
        <path d="M1312.3,1321.3c.4,11.4-9.2,20.6-20.5,20.6s-21.2-10.1-21.2-21.5,9.8-19.7,21.2-19.7,20,7.2,20.5,20.6Z"/>
        <ellipse cx="1365.8" cy="1390.9" rx="19.9" ry="18.4"/>
        <path class="st2" d="M1178.6,1461.6c-2.1,14.8-26.3,25.9-54.2,22-27.9-4-49.8-21.7-46.9-36.3,3.9-18.8,22.6-24,50.5-20,27.9,4,52.7,19.6,50.6,34.4Z"/>
        <path d="M1160,1169.3c.1,0,.4-.2.6-.3,0,0,0,0,0,0-.2,0-.4.2-.6.3Z"/>
        <path d="M1027.8,1645.4c0,9.3-4.1,16.8-12.6,16.8s-12.6-7.5-12.6-16.8,7.1-16.7,14-16.7,11.2,7.4,11.2,16.7Z"/>
        <path d="M1029.6,1694.7c3.2,7.4,2.5,16-2.9,18.4s-13.3-2.4-16.6-9.9-1.5-15.3,3.8-17.7,12.3,1.8,15.6,9.2Z"/>
        <path d="M1051.1,1672.9c.6,5.1-2.7,8.8-7.2,9.3-4.5.5-8.7-3.2-9.2-8.4-.6-5.1,2.6-9.7,7.2-10.2s8.7,4.2,9.3,9.3Z"/>
        <ellipse cx="954.9" cy="1598.1" rx="7.3" ry="9.4"/>
        <path d="M980.8,1556.1c-8.3,5-12.3,16-9.2,20.5,3.2,4.6,12.4,5.7,20.7.7,8.3-5,13.4-15.8,9.8-21.7-3.6-6-13.1-4.4-21.3.6Z"/>
        <path d="M1203.8,1450.4c1.2,3,12.1,0,19-3,1.4-.6,2.6-1.2,3.5-1.7,0,0,0,.1.1.2.4.3.7.7,1.1,1,5.4,5.1,11.2,9.7,17.4,13.7,20.9,16.8,29.8,41.1,40.6,64.6,7.1,15.5,19.1,27.7,34.8,34.5,11.7,5.1,24.4,7.3,37.1,8,.4.1,9.2.1,9.6,0,12.7-.7,25.4-2.9,37.1-8,15.7-6.8,27.7-19,34.8-34.5,10.8-23.5,19.7-47.8,40.6-64.6,6.2-4.1,12-8.6,17.4-13.7.4-.3.7-.7,1.1-1,0,0,0-.1.1-.2.9.5,2.2,1.1,3.5,1.7,6.9,2.9,17.8,6,19,3,.5-1.2-.3-2.7-1.7-3.5-.3-.2-.6-.3-.9-.4-13.1-4.5-25-11.5-35.2-20.7-1.5-1.4-3.7-1.6-4.7-.3-2,2.7,4,10.9,13.3,16.3-5.7,5.3-11.8,10-18.3,14.1-32.3,20.4-73.7,27-110.9,29-37.2-2-78.6-8.6-110.9-29-6.5-4.1-12.7-8.8-18.3-14.1,9.3-5.3,15.3-13.6,13.3-16.3-1-1.3-3.2-1-4.7.3-10.3,9.2-22.2,16.2-35.2,20.7-.3.1-.6.3-.9.4-1.4.8-2.2,2.3-1.7,3.5ZM1421.8,1538.3c-15.1,16.7-37.9,22.2-59.6,22.2s-44.5-5.5-59.6-22.2c-4-4.4-7-9.4-9.7-14.7,8.1-9.1,25-11.5,36.2-10.9,8.5.5,16.9,3.1,23.9,8.1.9.6,1.7,1.3,2.4,2,4.9,4.9,6.2,26.7,8.5,26.8,2.4,0,1.8-25.3,7.4-28.8,7.3-4.5,15.4-7.6,23.9-8.1,11.1-.6,28,1.8,36.2,10.9-2.6,5.3-5.7,10.3-9.7,14.7Z"/>
        <path d="M1646.7,1318.3c0,54.3-31,89-74,89s-76-42.4-76-96.7,21.7-102,69.3-102,80.7,55.4,80.7,109.7Z"/>
        <path class="st5" d="M1537.2,1267.3c0,12.7,7.7,23,17.2,23s17.2-12.8,17.2-25.5-7.7-18.5-17.2-18.5-17.2,8.3-17.2,21Z"/>
        <ellipse cx="1417.6" cy="1194.3" rx="20.7" ry="27.6" transform="translate(-366.9 1695.8) rotate(-55.8)"/>
        <path d="M1412.2,1321.3c-.4,11.4,9.2,20.6,20.5,20.6s21.2-10.1,21.2-21.5-9.8-19.7-21.2-19.7-20,7.2-20.5,20.6Z"/>
        <path class="st2" d="M1545.9,1461.6c2.1,14.8,26.3,25.9,54.2,22,27.9-4,49.8-21.7,46.9-36.3-3.9-18.8-22.6-24-50.5-20-27.9,4-52.7,19.6-50.6,34.4Z"/>
        <path d="M1564.5,1169.3c-.1,0-.4-.2-.6-.3,0,0,0,0,0,0,.2,0,.4.2.6.3Z"/>
        <path d="M1696.7,1645.4c0,9.3,4.1,16.8,12.6,16.8s12.6-7.5,12.6-16.8-7.1-16.7-14-16.7-11.2,7.4-11.2,16.7Z"/>
        <path d="M1694.9,1694.7c-3.2,7.4-2.5,16,2.9,18.4s13.3-2.4,16.6-9.9,1.5-15.3-3.8-17.7-12.3,1.8-15.6,9.2Z"/>
        <path d="M1673.4,1672.9c-.6,5.1,2.7,8.8,7.2,9.3,4.5.5,8.7-3.2,9.2-8.4.6-5.1-2.6-9.7-7.2-10.2s-8.7,4.2-9.3,9.3Z"/>
        <ellipse cx="1769.6" cy="1598.1" rx="7.3" ry="9.4"/>
        <path d="M1743.7,1556.1c8.3,5,12.3,16,9.2,20.5-3.2,4.6-12.4,5.7-20.7.7-8.3-5-13.4-15.8-9.8-21.7,3.6-6,13.1-4.4,21.3.6Z"/>
        <path d="M1769.4,1459.1c-2.4,7.4-11.9,11.4-22,8.1-10.1-3.3-16.4-12.1-13.9-19.5,2.4-7.4,12.7-10.7,22.8-7.4,10.1,3.3,15.6,11.4,13.1,18.8Z"/>
        <ellipse cx="1780.1" cy="1485.9" rx="10.6" ry="10.3"/>
        <g>
          <ellipse cx="1929.3" cy="1409.7" rx="10.5" ry="10.2"/>
          <path d="M1929.3,1420.4c-6.1,0-11-4.8-11-10.7s5-10.7,11-10.7,11,4.8,11,10.7-5,10.7-11,10.7ZM1929.3,1399.9c-5.5,0-10,4.4-10,9.7s4.5,9.7,10,9.7,10-4.4,10-9.7-4.5-9.7-10-9.7Z"/>
        </g>
        <path class="st9" d="M1771.3,1369.3c-36.1,10.3-68.5,69.8-54.3,75.3,9.5,3.8,16.2-32.1,63-62,4.4-2.8,4.5-17.1-8.7-13.4Z"/>
        <path class="st9" d="M1841.1,1591.7c4.3-1.5,8.5-3.2,12.7-5,16.6-7.2,32.2-16.8,46.3-28.5,8.9-28.4,11.2-58.6,7.8-88.2-1.7-14.6-5-28.9-9.9-42.6-.2-.5-.4-1.1-.6-1.6-4.8-12.7-11-24.8-18.9-36.1-.6-.8-1.1-1.6-1.7-2.5-10.7-14.9-24.2-27.9-40.2-37-15.4-8.7-32.3-13.2-49.7-14.5-8.6,4.4-16.9,9.2-25,14.5,22.7-4.8,63.4-7.7,91.5,22.8,28.5,30.9,19.8,60.4-25.5,101.4,19.1,35.7,20.7,77.6,13.1,117.3Z"/>
        <path class="st4" d="M1995.4,1342.1c6.3,11.7,8.2,23.7,2.7,26.3-8,3.8-14.1-3.3-20.3-15-6.3-11.7-14-29.4-5.5-32.8,5.7-2.3,16.9,9.8,23.2,21.4Z"/>
        <path class="st8" d="M1369,1124.5c-.5,0-1,0-1.6,0h0c-1.4,0-3.3,0-5.2,0-1.9,0-3.7,0-5.2,0h0c-.6,0-1.1,0-1.6,0-47.1.1-99.7,7.9-137.2,37.3,3.9,3.4,8.2,9.3,11,14.9.3-1.1.8-2.1,1.5-3.2,35.6-51.7,223.2-52.2,263,0,.8,1,1.3,2.1,1.5,3.2,2.8-5.5,7-11.5,11-14.9-37.5-29.4-90.2-37.2-137.2-37.3Z"/>
        <path class="st8" d="M1017.6,1716.3c-31.6-49.3-20.2-88.1-10-107.5-1.9.5-3.7,1.1-5.5,2.1-15.5,8.4-18.3,27.2-18.6,43.8-.5,23.7,6.5,46.1,19.4,66,6.8,10.5,15,19.7,23.6,28.6,9,9.3,15.5,19.2,14.6,32,9.5-6.7-4.4-35.2-23.5-65Z"/>
        <path class="st8" d="M974.1,1834.1c-8.8,6.8-18.4-2.8-20-10.7-1.2,2.3-1.9,4.7-1.8,7.1.3,5.4,3,11.4,6.8,15.5,1.7,1.8,4.2,3.5,5.5,4.1,3.6,1.6,6.6,1.5,9.5-1.4,3.5-3.4,5.8-7.8,8.3-11.9,5.2-8.5,11.9-17.1,21.1-21.7,8.3-9.6,21.8-14.2,33.9-15.9-28.4-2.5-51.4,25.6-63.3,34.9Z"/>
        <path class="st8" d="M1044.2,1858.8c-19.1,10.2-27.7-11.9-31-24.2-1.5,3.4-2.5,7.1-3,10.9-.8,6.1-.3,12.3,2,17.6,3,7,10,11.8,17.6,12.1,8.4.3,15-4.8,18.3-12.3,2.1-4.8,4.5-9.5,7.2-14.1.5-.8.9-1.6,1.4-2.3-4.4,5-8.3,9.4-12.3,12.2Z"/>
        <path class="st8" d="M1107.1,1871.4c6.4.5,11.9-2.9,14.9-8.3,2.3-4,3.6-8.6,4.9-13,4.1-14.1,7.4-30.5,24.2-34.1,8.5-1.8,17.6-.4,25.7,2.3,7.9,2.6,19.6,10.1,26.9,9.1,4.2-.6,8-3.6,9.9-7.8-.5-.7-1-1-1.5-.8-3,1.7-38-15.8-57.2-15.8s-26.7,25-44.3,49.7c-6.6,9.3-13.1,3.9-18.1,1.8.2,3.9,1.1,7.5,3.2,10.6,2.5,3.7,6.8,6.1,11.3,6.5Z"/>
        <path class="st6" d="M2046.9,1386.9c-7.1-1.2-9.1-26.7-9.6-43.9-2.3-1.3-4.6-2.7-6.9-3.9.8,4,1.3,8,1.7,11.6,2.3,19.9,0,40.1-4.3,59.7,6.3-2.8,12.6-5.4,18.9-8.3,5.9-2.7,11.8-5.6,17.5-8.8,2.5-1.4,5-2.8,7.3-4.5,1.6-1.2,5.5-3.3,6.3-5.1.2-.3.2-.7.2-1.1-8.7,3.6-23.3,5.8-31.3,4.4Z"/>
        <path class="st6" d="M2027.6,1355.1c-5.2,24.9-18.2,70.7-41.7,65.9-1.8-.4-3.4-5.1-5-11.2,0,5.5-.4,11-1.1,16.5-.9,7.5-2.2,15-3.7,22.4,7.6-9.5,16.6-17.8,26.7-24.7,3.1-2.1,6.2-4,9.4-5.8,3.3-1.8,6.6-3.5,9.9-5,4.5-18.9,7.1-38.5,5.5-57.9Z"/>
        <path class="st6" d="M1907.9,1469.9c-1.7-14.6-5-28.9-9.9-42.6-.2-.5-.4-1.1-.6-1.6-4.8-12.7-11-24.8-18.9-36.1,18,61.7,15.7,133.6-9.2,159.9-6-22.5-24.9-63.3-34.1-82.4l-7.5,7c19.2,35.8,20.9,77.8,13.3,117.7,21.4-7.6,41.4-18.9,59-33.5,8.9-28.4,11.2-58.6,7.8-88.2Z"/>
        <path class="st6" d="M1907.1,1552.1c6.3-5.7,12.2-11.9,17.8-18.5,0,0,0,0,0,0,1.2-1.4,2.3-2.8,3.4-4.2,8.7-11,16.2-22.9,22.6-35.4,2-3.9,3.8-7.8,5.7-11.8,3.7-8,7.3-15.9,12-23.4,6-24.8,10-50.7,5.2-76.1-.2-1-.3-1.9-.5-2.9-5.4-25.2-19.6-45.5-38.4-61.1,13.8,38.9,32.7,118.2-20.6,176.9,0,19-2.4,38-7.3,56.3Z"/>
        <ellipse cx="1762.8" cy="1381.9" rx="9" ry="7.3"/>
        <path d="M1896.9,1327.4c-1.6,5.1-8.1,7.5-14.5,5.5-6.4-2-10.2-7.8-8.6-12.9,1.6-5.1,8.1-7.5,14.5-5.5,6.4,2,10.2,7.8,8.6,12.9Z"/>
        <path d="M2001.3,1361.9c-6.3.6-11.8-4.4-12.4-11-.6-6.7,4-12.5,10.2-13.1,6.3-.6,11.8,4.4,12.4,11,.6,6.7-4,12.5-10.2,13.1Z"/>
        <path d="M2003.4,1408.1c-5.1.5-9.6-4.3-10.2-10.6-.6-6.3,3.1-11.7,8.2-12.2,5.1-.5,9.6,4.3,10.2,10.6.6,6.3-3.1,11.7-8.2,12.2Z"/>
        <ellipse cx="1802.3" cy="1375.6" rx="16.3" ry="14.3"/>
        <path d="M1944.6,1353.1c5.7,8.8,5.6,19.4-1.8,24.2-7.5,4.8-17-1-22.7-9.8s-7.3-19.3.2-24.1c7.5-4.8,18.6,1,24.3,9.8Z"/>
        <path d="M1858.1,1412.6c5.7,8.8,3.3,20-3.7,23.5-7.9,4-17.5.9-23.2-7.9-5.7-8.8-7.3-19.3.2-24.1,7.5-4.8,21-.3,26.7,8.5Z"/>
        <path class="st3" d="M1489.4,1500c-9.9,7.3-15.8,20.9-10.4,28.2,5.4,7.3,19.3,2.7,29.2-4.6,9.9-7.3,14.2-17.7,8.8-25-5.4-7.3-17.8-5.9-27.7,1.4Z"/>
        <path class="st3" d="M1227.1,1502.9c21.8,9.8,26.3,21.3,21.5,30.5-4.8,9.2-22.4,8.1-33.2-4.8-11.2-13.2-26.1-25.6-20.1-33,6.6-8.1,15.9,0,31.9,7.2Z"/>
        <path class="st0" d="M1266.4,1196.7c18.7,0,18.7-29,0-29s-18.7,29,0,29h0Z"/>
        <path class="st1" d="M1189.8,1651.4c2,7.3-11.9,17.8-22.2,20.6-10.3,2.8-17.5,1.1-19.5-6.2-2-7.3,3.6-11.7,13.8-14.5,10.3-2.8,25.9-7.2,27.9.2Z"/>
        <path class="st0" d="M1104.9,1712.9c7,20.4,9.2,44.5-2,47-9,2-10.4-12.8-17.4-33.2-7-20.4-11.3-41-4.7-43.7,8.6-3.5,17.1,9.5,24.2,29.8Z"/>
        <circle class="st0" cx="1074.2" cy="1663.1" r="9.2"/>
        <path class="st0" d="M1056.2,1590.1c-8.8,8.7-13.5,19.9-10.3,23.2,3.3,3.3,12.1-1.5,20.9-10.1s18.5-16.6,12.7-23.1c-5.4-6-14.6,1.3-23.4,10Z"/>
        <path class="st8" d="M1706.9,1716.3c31.6-49.3,20.2-88.1,10-107.5,1.9.5,3.7,1.1,5.5,2.1,15.5,8.4,18.3,27.2,18.6,43.8.5,23.7-6.5,46.1-19.4,66-6.8,10.5-15,19.7-23.6,28.6-9,9.3-15.5,19.2-14.6,32-9.5-6.7,4.4-35.2,23.5-65Z"/>
        <path class="st8" d="M1750.4,1834.1c8.8,6.8,18.4-2.8,20-10.7,1.2,2.3,1.9,4.7,1.8,7.1-.3,5.4-3,11.4-6.8,15.5-1.7,1.8-4.2,3.5-5.5,4.1-3.6,1.6-6.6,1.5-9.5-1.4-3.5-3.4-5.8-7.8-8.3-11.9-5.2-8.5-11.9-17.1-21.1-21.7-8.3-9.6-21.8-14.2-33.9-15.9,28.4-2.5,51.4,25.6,63.3,34.9Z"/>
        <path class="st8" d="M1680.3,1858.8c19.1,10.2,27.7-11.9,31-24.2,1.5,3.4,2.5,7.1,3,10.9.8,6.1.3,12.3-2,17.6-3,7-10,11.8-17.6,12.1-8.4.3-15-4.8-18.3-12.3-2.1-4.8-4.5-9.5-7.2-14.1-.5-.8-.9-1.6-1.4-2.3,4.4,5,8.3,9.4,12.3,12.2Z"/>
        <path class="st8" d="M1617.4,1871.4c-6.4.5-11.9-2.9-14.9-8.3-2.3-4-3.6-8.6-4.9-13-4.1-14.1-7.4-30.5-24.2-34.1-8.5-1.8-17.6-.4-25.7,2.3-7.9,2.6-19.6,10.1-26.9,9.1-4.2-.6-8-3.6-9.9-7.8.5-.7,1-1,1.5-.8,3,1.7,38-15.8,57.2-15.8s26.7,25,44.3,49.7c6.6,9.3,13.1,3.9,18.1,1.8-.2,3.9-1.1,7.5-3.2,10.6-2.5,3.7-6.8,6.1-11.3,6.5Z"/>
        <path class="st1" d="M1534.7,1651.4c-2,7.3,11.6,15.8,21.8,18.6,10.3,2.8,17.8,3.1,19.8-4.2,2-7.3-3.6-11.7-13.8-14.5-10.3-2.8-25.9-7.2-27.9.2Z"/>
        <path class="st0" d="M1620.5,1715.3c-7,20.4-10.5,40.8-.2,42,9.2,1.1,12.7-13.1,19.8-33.5,7-20.4,10.4-38.1,3.7-40.7-6.7-2.6-16.2,11.8-23.2,32.2Z"/>
        <circle class="st0" cx="1650.3" cy="1663.1" r="9.2"/>
        <path class="st0" d="M1668.3,1590.1c8.8,8.7,13.5,19.9,10.3,23.2-3.3,3.3-12.1-1.5-20.9-10.1-8.8-8.7-18.5-16.6-12.7-23.1,5.4-6,14.6,1.3,23.4,10Z"/>
        <path class="st8" d="M1709.7,1765.9c4.9-5.3,10-10.3,14.6-15.8,6.3-7.5,12.2-15.4,17.3-23.8,0,2,0,4,.2,6,18-21.8,44.9-66.3,47.3-68.5-2.7,7.8-5.9,15.4-9.3,22.5-8.1,16.8-18.8,32.1-29.3,47.5-2.5,3.6-1.6,8.4,1.1,11.6-3.3,2.6-11.1,6.3-13.9,10.5,16.1,2.9,33.1,9.5,45.1,20.5,7,7,14.3,4.8,20.4-.6.2,3.8-.8,7.7-3.4,11.1-5.6,7.4-14.7,12.1-23.9,11.6-.4-.4-.8-.8-1.2-1.1-7.2-6.9-15.2-13.6-24.1-18.1-13.9-7-29.2-9.7-44.5-8.9,1.2-1.6,2.5-3.1,3.7-4.3Z"/>
        <path class="st8" d="M1667.1,1521.4c2.5-3.6,4.9-7.3,7.1-11.2.2,0,.3.1.5.2,0,32.8,29.2,55.4,48.9,79.5-2-.6-4-1-5.7-2.1-2.1-1.2-3.7-3.2-5.3-4.8-5.7-5.9-10.9-12.2-16.5-18.1-11.6-12.2-24.9-22.6-40.3-29,4-4.6,7.8-9.5,11.3-14.5Z"/>
        <path class="st4" d="M2058.3,1364.3c.6,5.3-1.4,10.9-5.9,10.9-3.6,0-7.5-3.6-8.1-8.9-.6-5.3.9-8.3,5.3-8.9s8,1.5,8.7,6.8Z"/>
        <path class="st4" d="M1890.7,1340.9c15.5,13.1,20.6,26.2,11.2,32.2-10,6.4-19.1-5.4-33.2-20-14.1-14.6-22.9-21.9-16.8-26.8,4.3-3.4,20-1.2,38.8,14.5Z"/>
        <path class="st4" d="M1820.9,1511.6c5.4,7.8,7.2,18.5,1.8,21.6-5.6,3.1-12-1.9-17.4-9.7-5.4-7.8-8.3-17.3-3-20.7,5.4-3.4,13.2,1,18.6,8.8Z"/>
        <path class="st4" d="M1875.3,1464.9c3.5,9.9,1.5,23.9-4.6,25.3-7.9,1.9-12-6.9-15.5-16.8-3.5-9.9-3.3-22.7,2.7-24.5,6.1-1.8,13.9,6.1,17.3,16Z"/>
      </g>
    </g>
    <path d="M2095,1370.8c-4.6-10.3-13.1-18.9-21.6-26.1-12-10.1-25.3-18.5-39.2-25.8-30.8-16-65-27.6-99.5-31.7-23.4-2.8-47.1-1.3-70.3,2.4-62.5,10-121.7,40.4-165.1,86.7-2.3,2.4-4.5,4.9-6.7,7.4-2.7-10.4-5.8-20.7-8.4-31.1-8.1-33.1-11.3-67.2-23-99.3-10.3-28.3-25.8-54.7-48.4-74.9-17.2-15.5-37.9-30.2-61.5-32.5-9.9-1-19.2.5-27.6,3.9-43.3-37.2-105.6-44.9-161.4-44.9s-.9,0-1.3,0c-55.4.1-117.1,8-160.1,44.9-5-2-10.3-3.3-15.9-3.9-3.1-.3-6.4-.4-9.7-.1-.7,0-1.4,0-2.1.2-23.6,2.3-44.3,17-61.5,32.5-22.5,20.3-38.1,46.6-48.4,74.9-11.7,32.1-14.9,66.2-23,99.3-3.9,16.1-9.3,31.8-12.2,48-1.3,7.3-2.1,14.7-2.1,22.3,0,.6,0,1.2,0,1.8.4,22.8,5.8,46.1,15.1,67.4-8.9,2.7-17.7,5.8-26.3,9.3-10.1,4.1-19.9,8.7-29.5,13.9-20.6,11.2-42.4,24.8-56.6,43.9-13.4,18.2-20.3,40.9-20.5,63.4-.2,21.7,6.1,43,14.4,62.9,6.6,15.7,15.3,30.1,24.6,44.2-19.9,3.2-38.2,14-43.9,35.2-3.5,13.1-1.6,25.6,7.2,36,6.2,7.3,15,13.2,24.5,15.9-.6,1.4-1.2,2.9-1.7,4.5-2.7,8.9-.8,19.3,3.8,28.1,4.1,7.9,10.4,14.6,17.7,18.1,12.9,6.3,26.1,4,35.4-6.8.2-.2.4-.4.6-.7.4,2,.8,3.9,1.4,5.8,4.8,15.5,17.1,27.4,34.5,29.2,12.9,1.3,24.8-4.1,32.7-13.4,2.3-2.7,4.3-5.8,5.9-9,2.4-5,4.9-10,7.8-14.7.5,5.7,1.9,11.2,4.6,16.1,1.8,3.3,4.1,6.3,7.1,8.8,12.9,11,33.8,11.3,46.6,0,11.7-10.2,13.8-26.3,18.4-40.2.2-.6,1.8-4.7,2.1-5.1,1.7-2.4,4.4-2.6,7.9-2.5,8.6.2,17.6,4.9,26,8.3,6.9,2.8,14.2,4.4,21.2,3.5,3.7-.5,7.4-1.6,11-3.7,9.5-5.5,15.5-15.4,16.6-26.2,2.5-23.7-19.7-44.8-41.3-49.7-10.7-2.4-21.8-2.3-32.4-5.3-8.2-2.3-17.7-7.1-20.9-15-2.8-6.9-4-14.6-5.2-22.2-.7-4.3-1.4-8.5-2.4-12.6-1.1-4.3-2.3-8.6-3.6-12.9,21.2,2.3,42.6.3,63.3-5.5,9.4-2.6,18.5-6,27.4-9.8,2.4-1,4.8-2.1,7.2-3.2,3.4,2.8,6.8,5.5,10.4,8.1,12.9,9.3,27.3,16.3,42.2,21.8,26.2,9.7,54.4,13.5,82.2,13.7,0,0,1,0,1.1,0,27.8-.2,56-4,82.2-13.7,14.9-5.5,29.3-12.5,42.2-21.8,3.6-2.6,7-5.3,10.4-8.1,2.4,1.1,4.8,2.2,7.2,3.2,9,3.8,18,7.2,27.4,9.8,20.6,5.7,42.1,7.8,63.3,5.5-1.3,4.3-2.5,8.5-3.6,12.9-1,4.1-1.7,8.3-2.4,12.6-1.2,7.6-2.4,15.2-5.2,22.2-3.1,7.9-12.6,12.6-20.9,15-10.6,3-21.7,2.9-32.4,5.3-21.6,4.9-43.8,26.1-41.3,49.7,1.2,10.8,7.2,20.7,16.6,26.2,10.2,5.9,21.6,4.4,32.2.2,8.4-3.4,17.4-8.1,26-8.3,3.4,0,6.1,0,7.9,2.5.3.4,1.9,4.4,2.1,5.1,4.6,13.9,6.8,30,18.4,40.2,12.9,11.3,33.7,10.9,46.6,0,7.5-6.4,10.8-15.4,11.7-24.9,2.8,4.7,5.4,9.7,7.8,14.7,7,14.6,22.1,24.2,38.7,22.5,19.5-2,32.6-16.7,35.9-35,9.3,11.4,22.8,13.8,36,7.5,15.5-7.5,26.4-29.4,21.4-46.2-.5-1.5-1-3-1.7-4.5,9.5-2.7,18.3-8.6,24.5-15.9,8.8-10.5,10.8-22.9,7.2-36-5.7-21.2-23.9-32-43.9-35.2,9.3-14.1,18-28.5,24.6-44.2,2.9-7,5.6-14.1,7.8-21.4,1.3-4.4,2.5-8.8,3.5-13.2,2-9.3,3.2-18.7,3.1-28.2,0-1.2,0-2.4-.1-3.6,5.5-1,10.9-2.2,16.2-3.7,5.1-1.4,10.2-3,15.2-4.7,19.4-6.8,37.7-16.5,54.4-28.5,7.9-5.7,15.4-11.9,22.4-18.6.6-.6,1.1-1.1,1.7-1.7.6-.6,1.3-1.3,1.9-1.9,10.2-10.2,19.3-21.5,27.3-33.6,2.6-4,5.1-8,7.3-12.2,5.7-10.4,10.6-21.2,15.9-31.9,2.1-4.2,4.3-8.2,6.8-12.1,4.8-7.6,10.5-14.4,17.2-20.6,6.6-6.1,13.9-10.8,21.7-15,5.4-2.9,11-5.5,16.7-8,1.7-.8,3.5-1.5,5.2-2.3,14.4-6.2,29.4-12.7,41.8-22.6,4.5-3.6,8.6-8.2,9.9-14,.2-.9.3-1.7.4-2.6.3-4.8-1.3-9.8-3.2-14.1ZM1046.4,1411.5c.1-1.2.3-2.5.4-3.7.2-1.3.4-2.6.6-3.9.6-3.2,1.3-6.3,2.1-9.4,1.4-5.2,3-10.4,4.4-15.5,3.3-11.6,6.3-23.2,8.8-35,3.7-16.9,6.1-34.1,9.9-51.1,6.3-28.2,16.3-55.7,33.5-79.1,7.6-10.4,17.2-20,27.5-28,5.6-4.4,11.6-8.3,17.8-11.9,14.2-8.1,26.3-10.2,36.5-9,2.4.3,4.6.7,6.8,1.3,11.9,3.2,20.7,10.5,26.7,16.1,4.8,4.5,7.9,7.8,9.3,7,2.5-1.5,1.3-6.9-1.5-12.6-2.8-5.5-7-11.5-11-14.9,37.5-29.4,90.2-37.2,137.2-37.3,3.2,0,8.6,0,11.9,0,.6,0,1.2,0,1.6,0,47.1.5,99.7,7.9,137.2,37.3-8,6.9-17.5,24.5-12.5,27.5s29.3-44,79.2-15.4c6.2,3.5,12.1,7.5,17.8,11.9,10.3,8,19.8,17.6,27.5,28,17.2,23.4,27.2,50.9,33.5,79.1,3.8,16.9,6.2,34.1,9.9,51.1,2.5,11.8,5.5,23.4,8.8,35,2.3,8.2,5,16.5,6.6,24.9.2,1.3.5,2.6.6,3.9,1.2,8.7,1.2,17.6.3,26.4-.6,6.5-1.7,12.9-3.1,19.2-3.7,16.5-9.8,32.2-18.1,46.5-6.9,11.8-15.3,22.7-25.3,32.4-21.2,20.6-45.8,37.7-71.9,52.1-25,13.7-51.5,25-78,34.2-24,8.4-48.6,15.3-73.7,20-12,2.3-24.1,3.9-36.3,4.6-5.2.3-10.5.3-15.8.1-13.1-.4-26.2-2.3-39.1-4.7-25-4.7-49.6-11.6-73.7-20-15.9-5.5-31.8-11.8-47.4-18.9-5.5-2.5-10.9-5.1-16.3-7.8-4.8-2.4-9.6-4.9-14.3-7.5-26-14.3-50.4-31.3-71.5-51.8-.1-.1-.2-.2-.4-.3-22.2-21.6-36.6-48.8-43.4-78.9-3.1-13.6-4.6-27.9-3.2-41.8ZM948.7,1798.4c-9.2.4-18.3-4.3-23.9-11.6-8.7-11.3.5-27.3,11.3-33.2,8.4-4.6,19.4-5.4,29.4-4.8,7.3.4,12.8-8.9,8.6-15-10.5-15.3-21.3-30.7-29.3-47.5-7.7-16.1-14.4-34.4-16-52.2-1.9-20.2,2-40.4,12.6-57.8,11-18,30.1-30,48-40.3,10.2-5.9,20.7-11,31.4-15.5,9.6-4,19.5-7.4,29.6-10.3,2.2,3.8,4.6,7.6,7.1,11.2,3.5,5,7.3,9.9,11.3,14.5-11.8,5-22.3,12.2-31.9,20.9-2.9,2.6-5.7,5.3-8.4,8.2-5.6,5.9-10.8,12.3-16.5,18.1-1.6,1.6-3.3,3.6-5.3,4.8-2.3,1.4-5.1,1.7-7.6,2.6-19,6.9-30.6,25-33.8,44.4,0,.3,0,.6-.1.9-4,26.5-.4,53.1,10.8,77.5,6.2,13.4,14.7,25.6,24.2,36.8,4.7,5.5,9.8,10.5,14.6,15.8,1.2,1.3,2.5,2.7,3.7,4.3-3-.2-6.1-.2-9.1,0-12.2.5-24.3,3.3-35.4,9-8.9,4.5-16.9,11.2-24.1,18.1-.4.4-.8.8-1.2,1.1ZM1765.4,1846c-1.7,1.8-4.2,3.5-5.5,4.1-3.6,1.6-6.6,1.5-9.5-1.4-3.5-3.4-5.8-7.8-8.3-11.9-5.2-8.5-11.9-17.1-21.1-21.7-18-20.7-60.1-18.3-59.7-13,.4,5,32,7.2,45.8,25,7.3,9.4,10,24.9,5.3,36-3,7-10,11.8-17.6,12.1-8.4.3-15-4.8-18.3-12.3-2.1-4.8-4.5-9.5-7.2-14.1-6.7-11.5-15.4-21.6-26.6-28.8-6.6-10.2-33.3-21.1-36.3-16-2.5,4.3,14,12.5,21.5,30.7,3.5,8.6,6.2,21.9.6,30.2-2.5,3.7-6.8,6.1-11.3,6.5-6.4.5-11.9-2.9-14.9-8.3-2.3-4-3.6-8.6-4.9-13-4.1-14.1-7.4-30.5-24.2-34.1-8.5-1.8-17.6-.4-25.7,2.3-7.9,2.6-19.6,10.1-26.9,9.1-5.4-.7-10.2-5.6-11-11.8-1.2-9.1,5.8-17.2,12.4-22.4,7.5-5.9,16.4-7.4,25.6-8.5,10.6-1.3,20.7-2.7,30.5-7,9-4,18.3-10.2,22.9-19.2,4.3-8.5,6.1-17.9,7.3-27.3.8-6.3,2.1-12.8,3.8-19.2,5.2-20,13.9-40,21.9-56.4,10.4-21.5,19.5-36.8,17.3-37.8-9.2-4.2-23.9,17-30.2,27-1.1,1.7-3.4,5.9-6,10.7-4.7,8.6-10.3,19.2-11.2,21.4-.2.4-.3.8-.5,1.2-32.9,6.4-66.8-1.1-96.7-14.9-5.1-2.4-10.4-5.7-16-2.4-2.3,1.3-4.3,3.5-6.3,5.3-33.3,28.4-79.3,38.3-122.1,38.5-42.8-.2-88.8-10-122.1-38.5-2-1.7-4.1-3.9-6.3-5.3-5.6-3.2-10.9,0-16,2.4-29.8,13.8-63.8,21.3-96.7,14.9-.2-.4-.3-.8-.5-1.2-1-2.2-6.6-12.8-11.2-21.4-2.6-4.8-4.9-8.9-6-10.7-6.3-10-20.9-31.2-30.2-27-2.2,1,6.9,16.3,17.3,37.8,8,16.4,16.7,36.3,21.9,56.4,1.7,6.4,3,12.9,3.8,19.2,1.2,9.4,2.9,18.7,7.3,27.3,4.6,9.1,13.8,15.2,22.9,19.2,9.8,4.4,19.9,5.7,30.5,7,9.3,1.1,18.1,2.6,25.6,8.5,6.7,5.2,13.6,13.3,12.4,22.4-.2,1.4-.6,2.7-1.1,3.9-1.9,4.2-5.7,7.3-9.9,7.8-7.3,1-19-6.5-26.9-9.1-8.1-2.7-17.2-4.1-25.7-2.3-16.8,3.6-20.1,20-24.2,34.1-1.3,4.4-2.6,9-4.9,13-3.1,5.4-8.6,8.8-14.9,8.3-4.5-.3-8.8-2.7-11.3-6.5-2-3-3-6.7-3.2-10.6-.4-6.8,1.5-14.2,3.8-19.6,7.5-18.2,24-26.4,21.5-30.7-3-5.1-29.8,5.8-36.3,16-10.4,6.8-18.7,16-25.2,26.5-.5.8-.9,1.5-1.4,2.3-2.6,4.5-5,9.3-7.2,14.1-3.3,7.5-9.8,12.6-18.3,12.3-7.6-.3-14.6-5.1-17.6-12.1-2.2-5.3-2.8-11.5-2-17.6.5-3.8,1.5-7.5,3-10.9,1.2-2.7,2.6-5.3,4.3-7.5,5.3-6.9,13.3-11.5,21.2-14.7,12.4-5.2,24.5-7.2,24.7-10.3.2-2.8-11.8-4.8-25.8-2.9-12,1.7-25.5,6.3-33.9,15.9-9.2,4.7-15.9,13.2-21.1,21.7-2.5,4.1-4.9,8.5-8.3,11.9-2.9,2.9-6,3-9.5,1.4-1.3-.6-3.8-2.3-5.5-4.1-3.8-4.1-6.5-10.1-6.8-15.5-.1-2.4.6-4.8,1.8-7.1,1.6-3.1,4.1-6.1,6.6-8.7,5.1-5.5,11-10.8,17.3-14.8,14.9-9.6,33.3-11.9,50.5-8.3,4.9,1,11.4-1.4,12.3-7,.2-1.1.3-2.2.4-3.3.9-12.8-5.6-22.7-14.6-32-8.6-9-16.8-18.2-23.6-28.6-12.9-19.8-19.9-42.2-19.4-66,.3-16.6,3.1-35.4,18.6-43.8,1.7-.9,3.6-1.5,5.5-2.1,2.2-.6,4.4-1.2,6.5-2.2,3-1.4,5.6-3.4,8.1-5.6,5.2-4.5,9.6-9.9,14.1-15,3.7-4.1,7.5-8.1,11.4-11.9,8.5-8,17.6-14.9,28.3-19.5,2.6-1.1,5.3-2.2,8.2-3,13.4,12.4,28.3,23.3,43.2,33.1,1.7,1.1,3.4,2.2,5.1,3.3,9.6,6.1,19.4,11.8,29.4,17.1.9.4,2.3,1.1,4,2,.4.2.8.4,1.2.6,4.6,2.2,11.1,5.3,17.9,8.5,10.4,4.9,21.4,9.9,26.6,12,17.5,7.1,35.3,13.3,53.4,18.5,9.1,2.7,18.3,5.1,27.5,7.3,11.2,2.6,22.7,5,34.2,6.8.4,0,.7.1,1.1.2,9.2,1.3,18.5,2.2,27.7,2.4,13.6.3,27.1-.4,40.6-2.4.5,0,1.1-.2,1.6-.2,11.5-1.7,23-4.1,34.2-6.8,9.2-2.2,18.4-4.6,27.5-7.3,18.1-5.3,35.9-11.5,53.4-18.5,8.5-3.5,32.9-14.8,44.5-20.4,2.3-1.1,4.2-2,5.2-2.6,10-5.3,19.8-11,29.4-17.1,1.7-1.1,3.4-2.2,5.1-3.3,14.9-9.8,29.8-20.7,43.2-33.1,19.6,6,34.2,19.1,47.9,34.4,4.6,5.1,8.9,10.6,14.1,15,2.5,2.1,5.1,4.2,8.1,5.6,3.9,1.8,8.2,2.2,11.9,4.2,15.5,8.4,18.3,27.2,18.6,43.8.5,23.7-6.5,46.1-19.4,66-6.8,10.5-15,19.7-23.6,28.6-9.7,10.1-16.6,20.9-14.2,35.3.9,5.6,7.4,8,12.3,7,17.2-3.6,35.6-1.2,50.5,8.3,6.3,4.1,12.2,9.4,17.3,14.8,4.2,4.5,8.7,10.1,8.4,15.7-.3,5.4-3,11.4-6.8,15.5ZM1795.8,1634c-.5,5.6-1.5,11.2-2.9,16.8-.9,3.6-1.9,7.1-3.1,10.6-2.8,8.6-6.3,17-10.1,24.8-8.1,16.8-18.8,32.1-29.3,47.5-4.2,6.1,1.3,15.5,8.6,15,10.1-.6,21,.2,29.4,4.8,10.8,5.9,19.9,21.9,11.3,33.2-5.6,7.4-14.7,12.1-23.9,11.6-.4-.4-.8-.8-1.2-1.1-7.2-6.9-15.2-13.6-24.1-18.1-13.9-7-29.2-9.7-44.5-8.9,1.2-1.6,2.5-3.1,3.7-4.3,4.9-5.3,10-10.3,14.6-15.8,9.5-11.2,18-23.4,24.2-36.8,10.8-23.4,14.5-49,11.2-74.5-.1-1-.3-2-.4-3,0-.5-.2-.9-.2-1.4-2.6-15.1-10.3-29.3-22.6-38.1-3.4-2.4-7.1-4.4-11.1-5.8-2.5-.9-5.3-1.3-7.6-2.6-2.1-1.2-3.7-3.2-5.3-4.8-5.7-5.9-10.9-12.2-16.5-18.1-3.9-4.1-8-7.9-12.2-11.5-8.5-7.2-17.8-13.2-28-17.5,3.4-4,6.7-8.1,9.8-12.3.5-.7,1.1-1.5,1.6-2.2,2.5-3.6,4.9-7.3,7.1-11.2,21.3,6.1,41.8,14.7,61,25.8,2.4,1.4,4.8,2.8,7.2,4.2,15.7,9.4,31.3,20.4,40.8,36.1,10.6,17.4,14.5,37.6,12.6,57.8ZM1835.6,1593.5c-2,.7-4.1,1.3-6.2,1.9-5.2,1.5-10.5,2.8-15.9,3.8-3.1-14.4-9.1-28.2-17.8-40-9.5-12.8-22.4-23.1-36-31.9-6.8-4.4-13.7-8.3-20.6-12.1-17.7-9.6-36.5-17.4-55.8-23.2,5.8-13.2,10-27.2,12.5-41.3,1.5-8.7,2.4-17.4,2.6-26.1.1-5.4-.2-10.6-.9-15.8,2.7-3.4,5.4-6.6,8.2-9.8,6.8.7,13.7,2.2,20.2,4,14.7,4,28.8,9.9,42,17.6,21.3,12.4,39.2,29.5,51.9,50.1,1.5,2.4,2.9,4.8,4.2,7.3,3.9,7.2,7.1,14.9,9.6,22.8,1,3.3,2,6.6,2.8,10,6.4,27.2,4.9,55.6-.7,82.8ZM1900.1,1558.1c-14.1,11.7-29.7,21.3-46.3,28.5-4.2,1.8-8.4,3.5-12.7,5,7.5-39.7,5.9-81.6-13.1-117.3-.4-.7-.7-1.4-1.1-2-1.2-2.1-2.4-4.2-3.7-6.2-1.5-2.4-3.1-4.7-4.7-7-20.7-28.7-51.9-49-85.6-59.3-7.3-2.3-15.1-4.3-22.9-5.4,15.5-17,33-31.8,52-44.2,8.1-5.3,16.4-10.1,25-14.5,17.4,1.3,34.4,5.8,49.7,14.5,16,9.1,29.6,22,40.2,37,.6.8,1.1,1.6,1.7,2.5,7.8,11.3,14.1,23.4,18.9,36.1.2.5.4,1.1.6,1.6,5,13.7,8.3,28,9.9,42.6,3.4,29.6,1,59.8-7.8,88.2ZM1968.7,1458.9c-4.7,7.4-8.4,15.4-12,23.4-1.8,3.9-3.7,7.9-5.7,11.8-6.4,12.4-13.9,24.4-22.6,35.4-1.1,1.4-2.2,2.8-3.4,4.2,0,0,0,0,0,0-5.6,6.6-11.6,12.8-17.8,18.5,5-18.3,7.3-37.3,7.3-56.3,0-5.7-.2-11.5-.7-17.2,0-.8-.1-1.6-.2-2.4-1.5-17.3-4.7-34.5-10.8-50.7-11.4-30.2-30.5-58.5-58-76.2-15.1-9.7-31.9-15.4-49.4-17.8,7.2-3.4,14.5-6.4,22-9.1,10-3.6,20.2-6.7,30.6-9.2,22.9-5.5,44.8-8,68.9-7.3,6.4,3.9,12.5,8.2,18.2,13,18.8,15.7,32.9,35.9,38.4,61.1.2,1,.4,1.9.5,2.9,4.8,25.3.8,51.2-5.2,76.1ZM2022.1,1413c-3.4,1.6-6.7,3.2-9.9,5-3.2,1.8-6.4,3.7-9.4,5.8-6.5,4.5-12.4,9.4-17.9,14.9-3.1,3.1-6,6.4-8.8,9.8,1.5-7.4,2.8-14.8,3.7-22.4.6-5.5,1-11,1.1-16.5.4-25.7-5.6-51.2-21.1-72.4-7.9-10.8-17.6-20-28.3-27.8-1.4-1-2.8-2-4.3-3,1.1,0,2.1.2,3.2.3,4.8.5,9.5,1.2,14.2,2,16.8,3,33.3,8,49.3,13.9,1.4.5,2.7,1,4.1,1.6,8.2,3.2,16.5,6.8,24.7,10.8.6.3,1.3.6,1.9.9,1.6,5.6,2.3,11.9,2.8,16.6,0,.8.1,1.6.2,2.4,1.6,19.4-1,39-5.5,57.9ZM2078,1383.6c-.8,1.7-4.7,3.9-6.3,5.1-2.3,1.7-4.8,3.1-7.3,4.5-5.7,3.2-11.6,6.1-17.5,8.8-2.8,1.3-5.6,2.5-8.4,3.7-3.5,1.5-7,3-10.5,4.6,3.6-16.3,5.8-33.1,5.1-49.7-.1-3.3-.4-6.7-.8-10-.4-3.6-.9-7.6-1.7-11.6,2.3,1.3,4.6,2.6,6.9,3.9,12.6,7.5,24.3,16.4,33.5,27.1,1.9,2.2,7.5,8.7,7.3,12.4,0,.4,0,.8-.2,1.1Z"/>
  </g>
</svg>