<?xml version="1.0" encoding="UTF-8"?>
<svg id="_x2014_ÎÓÈ_x5F_1" xmlns="http://www.w3.org/2000/svg" version="1.1" viewBox="0 0 4000 4000">
  <!-- Generator: Adobe Illustrator 29.2.1, SVG Export Plug-In . SVG Version: 2.1.0 Build 116)  -->
  <defs>
    <style>
      .st0 {
        fill: #fcc13c;
      }

      .st1 {
        display: none;
      }

      .st1, .st2 {
        fill: #fefefe;
      }

      .st3 {
        fill: #ee8713;
      }

      .st4 {
        fill: #d42f0f;
      }

      .st5 {
        fill: #f05415;
      }

      .st6 {
        fill: #322a27;
      }

      .st7 {
        fill: #901819;
      }

      .st8 {
        fill: #17100c;
      }
    </style>
  </defs>
  <path class="st1" d="M0,0h4000v4000H0V0Z"/>
  <path class="st8" d="M1272.5,2969.1c48.1-10.9,92.3-42.4,133.9-67.9-.4,41.2,2.6,137,20.4,170.8,2.5,14.7,7.6,28.9,12.1,43.1-6.8,2.4-13.8,4.6-20.5,7.4-78.7,28-160.7,50.2-245.2,47.2l-1,.3-2.7-1.7c-.7-.6-1.4-1.3-2.1-1.9-40.7-38.6-63.8-117.8-66-172.4,42.4.9,83.9-2.3,125.4-11.2,15.5-3.8,30.5-8.8,45.7-13.7Z"/>
  <path class="st6" d="M1101.4,2994c42.4.9,83.9-2.3,125.4-11.2-13.9,31.8-23,86.2-33.2,121.9-5.9,20.7-17.4,44.1-20.3,65l-1,.3-2.7-1.7c-.7-.6-1.4-1.3-2.1-1.9-40.7-38.6-63.8-117.8-66-172.4Z"/>
  <path class="st5" d="M1272.5,2969.1c48.1-10.9,92.3-42.4,133.9-67.9-.4,41.2,2.6,137,20.4,170.8,2.5,14.7,7.6,28.9,12.1,43.1-6.8,2.4-13.8,4.6-20.5,7.4-15.9-8.2-33-13.6-48.8-22.4-50.8-28.1-81.6-76.3-97.2-131Z"/>
  <path class="st6" d="M3152.5,2025.5c64.8-.6,146.8-10,194.7-59.1,26.3-27,33.9-65.8,32.8-102.3-1.4-43.9-19.4-127.6,3.5-166,3.3-2,2.8-2.6,7-1.8,14,2.9,24.2,20.3,31.1,31.8,17.7,29.7,46.5,116.9,79.6,124.4,19.6,4.5,43.5-6.6,59.5-17.6,12.8-8.7,24.1-19.5,34.7-30.8,17-18.1,75.6-94.2,96.9-92.6,5.4,4.9,5.8,12.4,6.1,19.2,2.1,54.5-23.9,112.6-51,158.6-11.5,19.5-25.1,39-35.1,59.2,18.2,6.5,35.6,11,54.9,12.8,40.1,3.8,89.6-5.7,124.9,17.2-33.7,50.1-115.8,86.8-173.2,97.6-17.2,3.3-34.4,4.3-51.8,1.9,3.6-37-31.4-97.8-50.9-128.1-13.4,40.3-27.6,77.6-52.4,112.5-61,85.9-161.9,150.1-266,167-37.8,6.2-92.8,4.8-124.7-19.6-7.3-5.6-12.9-13.3-13.6-22.7-2.9-39.3,33.4-92.2,56.9-120.9,11.5-14.1,24.7-26.8,36.2-40.9Z"/>
  <path class="st5" d="M431,1444.4c122.6-6.6,307.9,39.2,399.4,121.5,49,44.1,76.7,101.1,80,167,3.1,61.9-15.4,123-40.1,179-39.6,90.1-95.2,170.1-152,249.9-25.4,35.7-53,69.9-77.7,106.2-67,98.6-111,211-81.3,331.2,23.1,93.6,79.4,167.4,148.2,232.6-27,64.3-26.6,102.7,0,167.7,2.9,7.1,5.9,14.3,9,21.4-10.7-4.1-20.7-11.7-30.2-18.1-54-36.3-105.6-82.5-143.1-135.9-14.7-20.9-26.8-43.5-38.5-66.1-31.1-59.9-51.9-127.6-54.3-195.3-5.8-166.2,88.7-330.1,174.6-465.9,24-38,50.5-74.3,74.3-112.4,10.2-16.4,56.4-82.8,58.1-96.6.1-.9.2-1.7.2-2.6,44.5-63.8,86.1-141.6,84.7-221.4-.9-51.3-23.3-93.8-59.8-129-5.1-4.9-10.3-9.6-15.8-14.2-5.4-4.5-11-8.9-16.7-13-5.7-4.1-11.6-8.1-17.6-11.8-6-3.7-12.2-7.2-18.4-10.5-34.8-18.5-152.9-60.7-190.9-60.1-30.9-8.9-60.1-18.5-92.1-23.8Z"/>
  <path class="st8" d="M1426.8,3072c6.6,6.5,28,66.9,35.7,82.4,19.9,40,48,70.7,76.3,104.5-27.2,76.7-75.4,142.6-79.9,226.6,0,1.1-.2,2.1-.2,3.2-.4,11.7,9.5,30,6.4,39.1l-11.4,2.1c-26.1,6.3-58.6,4-85.4,4.3-157.1,2-309.6-16.3-462.7-51.1,11.2-15.4,65.4-39.6,84.1-53.3,29-21.3,54.2-47.3,77.1-74.9,6.6-8,13.5-16,19.3-24.6,9.3-13.6,29.2-52.2,39.4-61.2,1.4-1.3,3.5-1.7,5.2-2.5l-1.9-1.4c9.9-33,33.8-61.4,43.1-95.2l1-.3c84.4,3,166.4-19.2,245.2-47.2,6.7-2.8,13.6-5,20.5-7.4-4.5-14.2-9.6-28.4-12.1-43.1Z"/>
  <path class="st3" d="M1439,3115.1c14.8,38.7,33.6,74,55.2,109.2-114.6,31.9-243.9,52.9-363.2,42.3l-1.9-1.4c9.9-33,33.8-61.4,43.1-95.2l1-.3c84.4,3,166.4-19.2,245.2-47.2,6.7-2.8,13.6-5,20.5-7.4Z"/>
  <path class="st0" d="M757.7,1928.1c0,.9-.1,1.7-.2,2.6-1.7,13.8-47.9,80.2-58.1,96.6-23.8,38.1-50.3,74.4-74.3,112.4-85.9,135.8-180.4,299.7-174.6,465.9,2.4,67.7,23.2,135.4,54.3,195.3,11.8,22.7,23.8,45.2,38.5,66.1,37.4,53.3,89.1,99.6,143.1,135.9,9.5,6.4,19.5,14,30.2,18.1-3.1-7.1-6-14.2-9-21.4-26.5-65-26.9-103.4,0-167.7,50.6,45.2,103.4,80.9,164.6,110,71.1,31.4,151.5,51.7,229.3,52.1,2.2,54.6,25.3,133.8,66,172.4.7.7,1.4,1.3,2.1,1.9l2.7,1.7c-9.3,33.8-33.2,62.2-43.1,95.2-.9.1-1.8.2-2.7.3-23.7,2.4-61.4-6.3-85.5-10.2-156.6-25.5-310.6-85.3-434.3-186.2-122-99.4-214-246.7-229.1-405.3-24.8-260,134.7-445.3,292.4-629.2,30-35,58.5-71,87.8-106.6Z"/>
  <path class="st6" d="M707.6,2831.9c50.6,45.2,103.4,80.9,164.6,110-15.9,65.2-15.6,108.7,20.2,167.4,1.4,2.4,2.9,4.7,4.4,7-47.8-18.6-145-61.3-180.3-95.3-3.1-7.1-6-14.2-9-21.4-26.5-65-26.9-103.4,0-167.7Z"/>
  <path class="st5" d="M872.2,2941.9c71.1,31.4,151.5,51.7,229.3,52.1,2.2,54.6,25.3,133.8,66,172.4.7.7,1.4,1.3,2.1,1.9-91.8-.3-187.5-17.9-272.8-52.1-1.5-2.3-3-4.6-4.4-7-35.8-58.7-36.1-102.2-20.2-167.4Z"/>
  <path class="st6" d="M523.1,1468.1c38-.5,156.1,41.6,190.9,60.1,6.3,3.3,12.4,6.8,18.4,10.5,6,3.7,11.9,7.6,17.6,11.8,5.7,4.1,11.3,8.5,16.7,13,5.4,4.5,10.7,9.2,15.8,14.2,36.5,35.2,58.8,77.6,59.8,129,1.5,79.9-40.1,157.6-84.7,221.4-29.2,35.6-57.7,71.7-87.8,106.6-157.7,183.8-317.2,369.2-292.4,629.2,15.1,158.5,107.2,305.9,229.1,405.3,123.8,100.9,277.8,160.7,434.3,186.2,24.1,3.9,61.8,12.5,85.5,10.2.9,0,1.8-.2,2.7-.3l1.9,1.4c-1.7.8-3.8,1.2-5.2,2.5-10.2,8.9-30.2,47.6-39.4,61.2-5.9,8.6-12.7,16.6-19.3,24.6-22.9,27.6-48.1,53.6-77.1,74.9-18.7,13.7-72.9,37.9-84.1,53.3-75-19.4-148.7-43.7-218.9-76.6-193.8-90.8-355-243.5-428.3-447.5-30-83.7-42.5-171.9-41.6-260.6,2.3-236.8,97.3-435.4,257.3-606.5,74.5-79.7,211.8-198.9,256.3-293.7,20.6-43.9,25.2-92.2,8.4-138.1-34.6-94.2-129.6-151.6-215.9-191.9Z"/>
  <path class="st8" d="M2208.3,1482c32.3,20.8,65.1,42.4,98.7,61,94.6,52.1,223.9,104.2,332.8,101.9,126.6-2.7,252.3-61.8,364.9-114.3,75.4-35.2,149.8-71.9,219-118.2,15.5-10.3,30.7-21.1,45.6-32.2,14.9-11.2,29.5-22.7,43.8-34.6,14.3-11.9,28.2-24.3,41.9-36.9,13.6-12.7,26.9-25.7,39.8-39.1,51.4-53.4,99.7-116,101.1-193.3.4-19.7-5.2-39.1-4.9-58.5,0-5.8,1.4-5.9,5.5-9.6,38.3,52.7,71.7,112.8,60.7,180.2-19.5,119.2-179.1,229.6-269.8,299.8-34.5,26.7-71.9,51.7-98.3,86.9-98,131.1-134.8,283.9-178.7,438.4,47.1,7,94.5,11.1,142.1,12.2-11.5,14.1-24.7,26.8-36.2,40.9-23.5,28.7-59.8,81.6-56.9,120.9.7,9.4,6.3,17.1,13.6,22.7,31.9,24.3,86.8,25.7,124.7,19.6,104.1-16.9,205-81.1,266-167,24.8-34.9,39-72.3,52.4-112.5,19.5,30.2,54.5,91.1,50.9,128.1-87.2,127.1-240.1,222.3-391.2,250-73.9,13.5-143.5,9.5-215.1-12.9-33.1,168.3-107,324.3-198.7,468.1,62.7,107.1,91.1,217.5,58.8,340.2-1.3,4.8-2.6,9.5-4,14.3-1.4,4.7-2.9,9.4-4.5,14.1-1.6,4.7-3.2,9.3-5,14-1.7,4.6-3.5,9.2-5.4,13.8-1.9,4.6-3.8,9.1-5.9,13.6-2,4.5-4.2,9-6.3,13.4-2.2,4.4-4.5,8.8-6.8,13.2-2.3,4.4-4.7,8.7-7.2,12.9-2.5,4.3-5,8.5-7.7,12.7-2.6,4.2-5.3,8.3-8.1,12.4-2.8,4.1-5.6,8.1-8.5,12.1-2.9,4-5.9,8-8.9,11.9-3,3.9-6.1,7.8-9.3,11.6-3.2,3.8-6.4,7.5-9.7,11.2-3.3,3.7-6.6,7.3-10.1,10.9-3.4,3.6-6.9,7.1-10.4,10.6-17.1,16.5-36.2,30.4-53.6,46.3,93.9,12.5,182.7,46.9,245.7,120.4-43.3-6.7-89-9.4-132.8-5.1,28.8,31.9,46.7,58.1,61.2,98.6-76.8-30.2-153-52.6-236.5-49.5,17.5,29.8,28.9,60,36.8,93.6-48.2-24.7-305-140.1-315-180.5-9.4-38.1,58-151.5,79.7-186.6,12.2-19.7,26.5-38.4,38-58.4-37.4,18.8-72.7,41.6-109.7,61.1-67.3,34.7-136.4,65.3-207.3,91.8-55.9,20.9-112.5,40-169.7,57.2-35.7,11.1-73.8,19.8-107.8,35.3-20.3,6.6-49.4.9-71.1,1.6-22.4.7-44.9,2.5-67.3,4,72.6-37.4,136.3-94.8,175.7-166.6,39.3-71.6,52.5-158.9,28.9-237.7-18.9-63-64.5-118.7-119-154.8-22.6-15-47.8-27.3-71.8-40.1,52.9,14.5,96.9,38.2,142.4,68,47.1,23.7,87.1,87.4,103,135.9,1.9,5.9,3.6,11.8,5.1,17.8,1.5,6,2.7,12.1,3.7,18.2,1,6.1,1.8,12.2,2.3,18.4.5,6.2.8,12.3.9,18.5.9,55.7-11.7,105-29.8,157.1,102.4-17.4,214.3-51.8,309.9-92.8,90.6-38.8,182.6-88.3,260.4-149.2,199.1-155.6,334.7-392.4,406.8-631.7,20.6-68.4,35.8-140,47.8-210.4,27.5-161.4,36.1-326.3,81.6-484.3,10.7-37.3,24.5-73.3,39-109.3-82.2,41.1-283.9,102.6-374.4,107.5-39.4,2.1-76.9-3.6-115.3-11.4-118.6-33.2-226.2-89.3-322.9-165.8,0-.1-.1-.3-.2-.4-18.7-19.3-45.1-38.5-59.6-60.8Z"/>
  <path class="st4" d="M2787.7,2850.9c22.1,26.6,35.7,115.8,38.4,150.8-37.9,15-71.7,15.1-111.7,9.8-16.6-2.9-32.5-7.1-48.3-12.7,45.1-46,84.6-95.2,121.6-147.9Z"/>
  <path class="st6" d="M1903,1944.2c-15,96.8-72.9,262.2-7.6,348.2.3.4.8.8,1.2,1.2l4.4,7.6c30.7,35.8,64.1,65.3,104.5,89.9,38.8,25.1,80,44.2,125,55-9.8,10-16.8,32.6-23.5,45.6-9.7,18.7-20.2,37.9-32.2,55.3-30.4,44.1-67.4,82.7-102.9,122.5-68.9,77.3-100,155.7-122,255.1-45.5-29.8-89.5-53.5-142.4-68,23.9,12.9,49.2,25.1,71.8,40.1,54.4,36.1,100.1,91.8,119,154.8,23.6,78.8,10.4,166.2-28.9,237.7-39.5,71.8-103.1,129.3-175.7,166.6,22.4-1.5,44.8-3.3,67.3-4,21.8-.7,50.8,5,71.1-1.6,81.6,18.8,171.7,36.8,221.2,111.8-49.7-2.6-97.2,1.3-146.2,9.9,28.1,35.2,44.4,64,51.8,108.9-70.2-38.4-151.8-51.2-231.2-50.3,10.4,37.4,20,73.5,20.9,112.6-23.2-22-49.2-40.6-74.8-59.8-32-24-63.9-48.3-96.6-71.4-23.8-16.8-48.6-32.6-72-49.9-8.8-6.5-29-27.5-37.4-30.6-4.3-1.6-9.4-1.4-13.9-1.6l11.4-2.1c3-9.1-6.8-27.5-6.4-39.1,0-1.1.1-2.1.2-3.2,4.5-84,52.7-149.9,79.9-226.6-28.3-33.8-56.4-64.5-76.3-104.5-7.7-15.5-29.1-75.9-35.7-82.4-17.8-33.8-20.8-129.6-20.4-170.8,3.4-76.2,7.3-153.9,25.4-228.2,5.2-22.8,11.1-45.4,17.6-67.8,6.5-22.4,13.6-44.7,21.3-66.7,7.7-22,16.1-43.8,25-65.4,8.9-21.6,18.5-42.9,28.6-63.9,46.3-94.3,105.8-197.1,177.6-274.4,12.9-17.5,29.7-33.7,44.7-49.4,48.7-50.9,99.9-98.9,156.4-141.1Z"/>
  <path class="st5" d="M1524.4,2409.1c30.1,42.1,53.3,88.2,85.3,129.2,40.1,51.5,170.3,146.8,157.6,214.8-3.2,16.8-14.4,29.9-28.7,38.7-35.5,22-89.7,16.8-128.3,7-74.5-18.9-138-59.9-178.5-125.9,5.2-22.8,11.1-45.4,17.6-67.8,6.5-22.4,13.6-44.7,21.3-66.7,7.7-22,16.1-43.8,25-65.4,8.9-21.6,18.5-42.9,28.6-63.9Z"/>
  <path class="st5" d="M1903,1944.2c-15,96.8-72.9,262.2-7.6,348.2.3.4.8.8,1.2,1.2l4.4,7.6c30.7,35.8,64.1,65.3,104.5,89.9-2.2,14.2-.7,27.7,1,41.9,2.9,10.3,5,22.4,3.3,33-2.2,13.7-9.9,25.1-21,33.2-28,20.3-76.5,22.2-109.5,16.9-52.9-8.5-95.5-43.9-125.8-86.6-62.1-87.5-69.2-192.1-51.7-294.9,12.9-17.5,29.7-33.7,44.7-49.4,48.7-50.9,99.9-98.9,156.4-141.1Z"/>
  <path class="st4" d="M1901.1,2301.2c30.7,35.8,64.1,65.3,104.5,89.9-2.2,14.2-.7,27.7,1,41.9-14.3-12.1-29.2-24.1-42.7-37.1-19.7-18.8-62.2-66.1-62.7-94.7Z"/>
  <path class="st3" d="M2590.9,1708.9c38.4,7.8,75.9,13.5,115.3,11.4,90.6-4.9,292.2-66.4,374.4-107.5-14.4,36-28.2,72-39,109.3-45.5,158-54.1,322.9-81.6,484.3-12,70.4-27.2,142-47.8,210.4-72.1,239.3-207.7,476.1-406.8,631.7-77.8,60.8-169.8,110.3-260.4,149.2-95.6,40.9-207.5,75.3-309.9,92.8,18.1-52.1,30.7-101.3,29.8-157.1,0-6.2-.4-12.4-.9-18.5-.5-6.2-1.3-12.3-2.3-18.4-1-6.1-2.2-12.2-3.7-18.2-1.5-6-3.2-12-5.1-17.8-15.9-48.6-55.9-112.2-103-135.9,22-99.4,53.1-177.8,122-255.1,35.5-39.8,72.5-78.5,102.9-122.5,12-17.4,22.5-36.5,32.2-55.3,6.7-13,13.8-35.6,23.5-45.6,67.3,20.1,144.8,23.5,214.6,20.1,40.9-2,86.2-11.1,126.2-1,47.5,12,124.2,58.2,169.8,82,5,2.7,10.2,6.5,16.1,6.3,2.1-5,0-9.8-1.3-14.8-.3-4.4-1.8-8.9-2.8-13.2,8.9-13.1,14.5-36.8,20.2-51.9,33.7-88.8,67.5-177.4,80.2-272.1,19.7-146.9,2.6-289.9-88-412.2-11.9-16-24.9-31.9-39.2-45.7-10.6-10.2-25-20.5-33.6-32.2-.6-.9-1.2-1.7-1.8-2.6Z"/>
  <path class="st0" d="M1850,2924.5c22-99.4,53.1-177.8,122-255.1,35.5-39.8,72.5-78.5,102.9-122.5,12-17.4,22.5-36.5,32.2-55.3,6.7-13,13.8-35.6,23.5-45.6,67.3,20.1,144.8,23.5,214.6,20.1,40.9-2,86.2-11.1,126.2-1,47.5,12,124.2,58.2,169.8,82-19.3,43.7-48,84.9-75.8,123.6-135.1,187.4-354.1,376.8-571.2,461.4-7.7,3-18.5,9.2-26.3,7.7l-2.9-6.4c0-6.2-.4-12.4-.9-18.5-.5-6.2-1.3-12.3-2.3-18.4-1-6.1-2.2-12.2-3.7-18.2-1.5-6-3.2-12-5.1-17.8-15.9-48.6-55.9-112.2-103-135.9Z"/>
  <path class="st6" d="M2525.2,427.3c144.9-29.7,295.4-37.1,438.4,6.7,37.1,11.4,72.9,26.8,108.4,42.4,58.6,25.4,128.1,67.3,172.4,114.2,16.4,12.2,29.9,27.8,43.2,43.2,68.5,79,112.6,173.8,156.2,267.9,17.6,38,29,71.1,52.7,106.1-4.1,3.7-5.4,3.8-5.5,9.6-.3,19.3,5.3,38.7,4.9,58.5-1.5,77.3-49.7,139.9-101.1,193.3-12.9,13.4-26.2,26.5-39.8,39.1-13.6,12.7-27.6,25-41.9,36.9-14.3,11.9-28.9,23.5-43.8,34.6-14.9,11.2-30.1,21.9-45.6,32.2-69.3,46.4-143.6,83.1-219,118.2-112.6,52.6-238.4,111.7-364.9,114.3-108.9,2.3-238.2-49.7-332.8-101.9-33.7-18.6-66.4-40.2-98.7-61,14.4,22.3,40.9,41.5,59.6,60.8,0,.1.1.2.2.4,96.7,76.4,204.3,132.6,322.9,165.8.6.9,1.2,1.7,1.8,2.6,8.6,11.8,23,22,33.6,32.2,14.4,13.8,27.4,29.7,39.2,45.7,90.6,122.3,107.7,265.2,88,412.2-12.7,94.7-46.5,183.2-80.2,272.1-5.7,15.1-11.3,38.8-20.2,51.9,1.1,4.3,2.5,8.8,2.8,13.2,1.3,5,3.3,9.7,1.3,14.8-5.9.2-11.1-3.6-16.1-6.3-45.6-23.9-122.3-70-169.8-82-40-10.1-85.3-1-126.2,1-69.8,3.4-147.3,0-214.6-20.1-45-10.8-86.2-29.9-125-55-40.4-24.5-73.8-54.1-104.5-89.9l-4.4-7.6c-.4-.4-.9-.7-1.2-1.2-65.4-86-7.4-251.4,7.6-348.2,40.3-32.3,84.4-60,127.3-88.6,51.1-35.8,94.8-77.7,131.3-128.4,12.8-19.8,24.1-40,31.6-62.4,18.3-54,20.8-130,12.8-186.7-89.1-75.7-176.4-163.4-236.7-264.4-31.8-53.4-68.2-129.5-51.6-193.5,17.7-68.5,87.3-108.9,128.2-163,28.4-37.6,47.6-87.9,71.5-129,43.5-74.8,141.1-173.4,216.2-217.8,59.7-37.8,123.8-63.8,191.5-83.2Z"/>
  <path class="st2" d="M2224.9,917.5c-.6,0-1.1,0-1.7,0-13.4-.3-30.4-16.2-39.5-25.7-21.8-22.6-32.8-52.3-32.2-83.6,0-2.4.2-4.7.3-7.1.2-2.4.4-4.7.7-7.1.3-2.3.6-4.7,1-7,.4-2.3.9-4.6,1.4-7,.5-2.3,1.1-4.6,1.7-6.9.6-2.3,1.3-4.5,2.1-6.8.7-2.2,1.5-4.5,2.4-6.7.9-2.2,1.8-4.4,2.7-6.6s2-4.3,3-6.4c1.1-2.1,2.2-4.2,3.4-6.2,1.2-2.1,2.4-4.1,3.7-6.1,1.3-2,2.6-4,3.9-5.9,1.4-1.9,2.8-3.8,4.2-5.7,1.5-1.9,3-3.7,4.5-5.5,1.5-1.8,3.1-3.5,4.8-5.2,1.6-1.7,3.3-3.4,5-5,29.3-27.6,70.4-43.3,110.6-41.5,5,.2,11.9-.5,15.2,3.2-45.1,1.3-80.9,12.8-112.4,46.7-26.3,28.3-44.5,71.4-42.8,110.3,0,1.8.2,3.6.4,5.4.2,1.8.4,3.6.6,5.4.3,1.8.6,3.6.9,5.4.3,1.8.7,3.5,1.2,5.3s.9,3.5,1.4,5.2c.5,1.7,1.1,3.5,1.7,5.2.6,1.7,1.3,3.4,2,5.1.7,1.7,1.4,3.3,2.2,5,.8,1.6,1.6,3.2,2.5,4.8.9,1.6,1.8,3.2,2.7,4.7.9,1.5,1.9,3.1,2.9,4.6,1,1.5,2.1,3,3.2,4.4,1.1,1.4,2.2,2.9,3.4,4.2s2.4,2.7,3.6,4.1c1.2,1.3,2.5,2.6,3.8,3.9,1.3,1.3,2.6,2.5,4,3.7,6.7,5.9,13.7,10.6,21.4,15.1Z"/>
  <path class="st2" d="M3132.4,738.2c25.6-6,60.9,6.9,82.6,20.3,30.7,19,52.9,48.5,61,83.8.5,2.2,1,4.4,1.4,6.6.4,2.2.7,4.4,1,6.6.3,2.2.5,4.4.7,6.7.2,2.2.3,4.5.4,6.7,0,2.2,0,4.5,0,6.7,0,2.2-.1,4.5-.3,6.7-.2,2.2-.4,4.5-.6,6.7-.3,2.2-.6,4.4-1,6.6s-.8,4.4-1.3,6.6c-.5,2.2-1,4.4-1.6,6.5-.6,2.2-1.2,4.3-1.9,6.4-.7,2.1-1.4,4.2-2.2,6.3-.8,2.1-1.6,4.2-2.6,6.2-.9,2-1.8,4.1-2.8,6.1-1,2-2,4-3.1,5.9-1.1,1.9-2.2,3.9-3.4,5.8-14.1,22.1-45.2,53.8-71.8,59.4-2.1.4-3,.4-5.2.5,6.8-3.4,13.5-7.3,19.9-11.5,1.8-1.2,3.6-2.5,5.4-3.8,1.8-1.3,3.5-2.7,5.2-4.1,1.7-1.4,3.4-2.9,5-4.4,1.6-1.5,3.2-3,4.8-4.6,1.6-1.6,3.1-3.2,4.6-4.8,1.5-1.6,2.9-3.3,4.3-5,1.4-1.7,2.8-3.5,4.1-5.2,1.3-1.8,2.6-3.6,3.8-5.4,1.2-1.8,2.4-3.7,3.5-5.6,1.1-1.9,2.2-3.8,3.3-5.8,1-2,2-3.9,3-5.9.9-2,1.8-4,2.7-6.1.8-2,1.6-4.1,2.4-6.2.7-2.1,1.4-4.2,2.1-6.3.6-2.1,1.2-4.3,1.8-6.4.5-2.2,1-4.3,1.4-6.5.5-2.3.9-4.6,1.2-6.9.3-2.3.6-4.6.9-6.9.2-2.3.4-4.6.5-7,.1-2.3.2-4.7.2-7,0-2.3,0-4.7-.2-7-.1-2.3-.3-4.6-.5-7-.2-2.3-.5-4.6-.9-6.9-.4-2.3-.8-4.6-1.2-6.9-.5-2.3-1-4.5-1.6-6.8-.6-2.3-1.2-4.5-1.9-6.7-.7-2.2-1.4-4.4-2.2-6.6-.8-2.2-1.7-4.3-2.6-6.5-.9-2.1-1.9-4.3-2.9-6.4-1-2.1-2.1-4.2-3.2-6.2-1.1-2-2.3-4-3.5-6-1.2-2-2.5-3.9-3.8-5.8-24.9-36.1-62.2-55.3-104.6-62.8Z"/>
  <path class="st8" d="M2301.1,2179.2l2.5.4c33.4,5.7,67.8-.4,95.9-19.8,29.9-20.6,73.8-140.4,104.3-141.3,15.6,22.9,14.5,73.3,9.7,99.5-5.8,32.3-19.2,65.1-17.4,98.2l-3.3-1.9c-12.8-20.9,3.1-94.2,4.3-121.4.9-18.7-.3-36.9-2.6-55.4-23.5,23.7-38.9,54.4-55.6,83-19.3,32.9-38.9,56.2-77.6,65.9-89.1,22.4-251.8-56.3-329-103.3l-.2-1.5c25.2,6.8,71.3,32.2,98.9,43.7,59,24.6,108.5,38.3,170,53.9Z"/>
  <path class="st5" d="M2161.7,1727.2c33.8,33.7,54.4,77.4,54.9,125.5.3,30.2-7.6,63.2-29.3,85.3-17.8,18.1-45.5,29.8-70.9,29.8-21,0-39.1-8.5-53.3-23.8-23.7-25.5-25-56.5-32.7-88.4,51.1-35.8,94.8-77.7,131.3-128.4Z"/>
  <path class="st8" d="M1896.7,2293.6c17.5-.3,59.8,30.6,78.3,38.9,37.6,17.3,76.2,32,115.8,44.3,68.2,20.4,140.2,32.9,211.2,38.3,98.7,7.6,166.1-11.8,254.5,45.7,17.9,11.6,36.1,24.1,51.6,38.9,9.8,9.4,40,38,42.6,48.5l3.2-.9,2.2-8.6c1.3,5,3.3,9.7,1.3,14.8-5.9.2-11.1-3.6-16.1-6.3-45.6-23.9-122.3-70-169.8-82-40-10.1-85.3-1-126.2,1-69.8,3.4-147.3,0-214.6-20.1-45-10.8-86.2-29.9-125-55-40.4-24.5-73.8-54.1-104.5-89.9l-4.4-7.6Z"/>
  <path class="st8" d="M2224.9,917.5c-7.7-4.5-14.7-9.2-21.4-15.1-1.4-1.2-2.7-2.4-4-3.7-1.3-1.3-2.6-2.6-3.8-3.9-1.2-1.3-2.4-2.7-3.6-4.1s-2.3-2.8-3.4-4.2c-1.1-1.4-2.1-2.9-3.2-4.4-1-1.5-2-3-2.9-4.6-.9-1.5-1.8-3.1-2.7-4.7-.9-1.6-1.7-3.2-2.5-4.8-.8-1.6-1.5-3.3-2.2-5-.7-1.7-1.4-3.4-2-5.1-.6-1.7-1.2-3.4-1.7-5.2-.5-1.7-1-3.5-1.4-5.2s-.8-3.5-1.2-5.3c-.3-1.8-.6-3.6-.9-5.4-.3-1.8-.5-3.6-.6-5.4-.2-1.8-.3-3.6-.4-5.4-1.7-38.9,16.5-82,42.8-110.3,31.5-33.9,67.3-45.4,112.4-46.7.9.4,1.8.9,2.7,1.3,3.2,1.4,6.4,2.1,9.8,2.9,32.4,7.4,60.1,26.7,77.5,55.1,17.9,29.2,21.4,65,13,97.9-.6,2.3-1.2,4.6-1.9,6.9-.7,2.3-1.4,4.6-2.2,6.8-.8,2.2-1.7,4.5-2.6,6.7-.9,2.2-1.9,4.4-2.9,6.6-1,2.2-2.1,4.3-3.2,6.4-1.1,2.1-2.3,4.2-3.5,6.2-1.2,2-2.5,4.1-3.8,6-1.3,2-2.7,3.9-4.1,5.8-1.4,1.9-2.9,3.8-4.4,5.6-1.5,1.8-3.1,3.6-4.7,5.4-1.6,1.8-3.3,3.5-5,5.2-1.7,1.7-3.4,3.3-5.2,4.9-1.8,1.6-3.6,3.1-5.5,4.6-1.9,1.5-3.8,3-5.7,4.4-1.9,1.4-3.9,2.8-5.9,4.1-2,1.3-4,2.6-6.1,3.8-2,1.1-3.9,2.2-6,3.2-2,1-4,2-6.1,2.9-2.1.9-4.1,1.8-6.2,2.6-2.1.8-4.2,1.6-6.4,2.3-2.1.7-4.3,1.4-6.5,2-2.2.6-4.4,1.2-6.6,1.7-2.2.5-4.4.9-6.6,1.3-2.2.4-4.5.7-6.7,1-2.2.3-4.5.5-6.7.7-2.2.2-4.5.3-6.8.3-2.3,0-4.5,0-6.8,0-2.3,0-4.5-.2-6.8-.3-2.3-.2-4.5-.4-6.7-.7-2.2-.3-4.5-.6-6.7-1-2.2-.4-4.4-.8-6.6-1.3-2.2-.5-4.4-1-6.6-1.6-10.1-2.8-19.6-6.9-29.1-11.2Z"/>
  <path class="st2" d="M2288.6,682.4c16.5,1,31.4,3.3,45.2,13,1.8,1.3,3.5,2.6,5.2,4,1.7,1.4,3.2,2.9,4.7,4.5,1.5,1.6,2.9,3.2,4.3,5,1.3,1.7,2.6,3.5,3.8,5.4,1.2,1.9,2.2,3.8,3.2,5.7,1,2,1.9,4,2.6,6,.8,2,1.5,4.1,2,6.2.6,2.1,1,4.2,1.4,6.4.4,2.3.6,4.6.7,7,.1,2.3.1,4.7,0,7,0,2.3-.3,4.7-.6,7-.3,2.3-.8,4.6-1.3,6.9-.6,2.3-1.2,4.5-2,6.7-.8,2.2-1.6,4.4-2.6,6.5-1,2.1-2.1,4.2-3.3,6.2-1.2,2-2.5,4-3.9,5.8-11.7,15.9-27.6,24-46.6,27.3-18,0-32.9-2.9-47.7-13.7-15.1-11.1-26.3-28.1-29.1-46.7-.3-2.1-.5-4.3-.6-6.4-.1-2.1-.1-4.3,0-6.4.1-2.1.3-4.3.6-6.4.3-2.1.7-4.2,1.2-6.3.5-2.1,1.1-4.1,1.9-6.2.7-2,1.5-4,2.5-6,.9-1.9,1.9-3.8,3-5.7,1.1-1.8,2.3-3.6,3.6-5.4,13-17.6,30.9-24.4,51.7-27.3Z"/>
  <path class="st8" d="M3132.4,738.2c42.4,7.4,79.7,26.7,104.6,62.8,1.3,1.9,2.6,3.9,3.8,5.8,1.2,2,2.4,4,3.5,6,1.1,2,2.2,4.1,3.2,6.2,1,2.1,2,4.2,2.9,6.4.9,2.1,1.8,4.3,2.6,6.5.8,2.2,1.5,4.4,2.2,6.6.7,2.2,1.3,4.5,1.9,6.7.6,2.3,1.1,4.5,1.6,6.8.5,2.3.9,4.6,1.2,6.9.4,2.3.6,4.6.9,6.9.2,2.3.4,4.6.5,7,.1,2.3.2,4.7.2,7,0,2.3,0,4.7-.2,7-.1,2.3-.3,4.6-.5,7-.2,2.3-.5,4.6-.9,6.9-.3,2.3-.8,4.6-1.2,6.9-.4,2.2-.9,4.3-1.4,6.5-.5,2.2-1.1,4.3-1.8,6.4-.6,2.1-1.3,4.2-2.1,6.3-.7,2.1-1.5,4.2-2.4,6.2-.8,2-1.7,4.1-2.7,6.1-.9,2-1.9,4-3,5.9-1,2-2.1,3.9-3.3,5.8-1.1,1.9-2.3,3.8-3.5,5.6-1.2,1.8-2.5,3.7-3.8,5.4-1.3,1.8-2.7,3.5-4.1,5.2-1.4,1.7-2.8,3.4-4.3,5-1.5,1.6-3,3.3-4.6,4.8-1.6,1.6-3.2,3.1-4.8,4.6-1.6,1.5-3.3,2.9-5,4.4-1.7,1.4-3.5,2.8-5.2,4.1-1.8,1.3-3.6,2.6-5.4,3.8-6.4,4.2-13,8-19.9,11.5-5.4-.7-13.1,2.6-18.6,3.6-38.7,6.9-72.9,0-105.2-22.6-29.2-20.4-49.8-51-55.8-86.3-6.3-37.1,3.6-79,25.7-109.4,6.7-9.3,15-18.9,26.6-20.8,13.3-11,25.8-16.1,41.9-21.2.3-2.3,1.4-3.1,2.8-4.8,10.6-4.4,22.1-4.2,33.4-5.5Z"/>
  <path class="st2" d="M3096.2,748.5c23.7-1.1,47.5,1.1,66,17.9,12.8,11.7,19.1,28.7,19.4,45.8,0,2.4,0,4.8-.2,7.1-.2,2.4-.5,4.7-.9,7.1-.4,2.3-1,4.7-1.6,6.9-.7,2.3-1.4,4.5-2.3,6.8-.9,2.2-1.9,4.4-3,6.5-1.1,2.1-2.3,4.2-3.6,6.2-1.3,2-2.7,3.9-4.2,5.8-1.5,1.9-3.1,3.7-4.7,5.4-.9.9-1.8,1.8-2.7,2.7-.9.9-1.9,1.7-2.8,2.5-1,.8-2,1.6-3,2.4-1,.8-2,1.5-3.1,2.2-1.1.7-2.1,1.4-3.2,2.1-1.1.7-2.2,1.3-3.3,1.9-1.1.6-2.3,1.2-3.4,1.7-1.2.5-2.3,1.1-3.5,1.5-1.2.5-2.4.9-3.6,1.4-1.2.4-2.4.8-3.6,1.2-1.2.4-2.4.7-3.7,1-1.2.3-2.5.6-3.7.8-1.2.2-2.5.4-3.8.6-1.3.2-2.5.3-3.8.4-1.3,0-2.5.2-3.8.2-1.3,0-2.5,0-3.8,0-21.4-.6-39.8-11.1-53.8-26.9-1.4-1.6-2.7-3.3-4-5-1.2-1.7-2.4-3.5-3.4-5.4-1.1-1.9-2-3.8-2.9-5.7-.9-1.9-1.6-3.9-2.3-6-.7-2-1.2-4.1-1.7-6.2-.5-2.1-.8-4.2-1.1-6.3-.3-2.1-.4-4.2-.4-6.4,0-2.1,0-4.3.2-6.4,1.3-16.3,7.7-29.7,17.4-42.7,13.3-11,25.8-16.1,41.9-21.2Z"/>
  <path class="st0" d="M2268,1543.1c96.7,76.4,204.3,132.6,322.9,165.8.6.9,1.2,1.7,1.8,2.6,8.6,11.8,23,22,33.6,32.2,14.4,13.8,27.4,29.7,39.2,45.7,90.6,122.3,107.7,265.2,88,412.2-12.7,94.7-46.5,183.2-80.2,272.1-5.7,15.1-11.3,38.8-20.2,51.9-12.5-28.1-28.2-53.9-44.2-80.1-11.9-19.6-27-40.7-34-62.7-1.8-5.8-1.1-10,.1-15.8-.3-.5-.7-1.1-.9-1.6-14.6-39.8,121.9-112.7,141.8-147.1-54.5,5.4-111.4,31.8-166,27-22.9-2-39.5-11.4-54-28.8-1.8-33,11.6-65.9,17.4-98.2,4.7-26.2,5.9-76.7-9.7-99.5-30.6.9-74.4,120.6-104.3,141.3-28.1,19.4-62.6,25.5-95.9,19.8l-2.5-.4c65.6-190.6,50.8-326.9,3.8-517.8-6.2-25-14.3-49.5-22.7-73.8-4.6-13.2-11.7-28-13.8-41.6-.1-1-.3-1.9-.4-2.9Z"/>
  <path class="st8" d="M2716.1,2218.1c5.8-.4,9.2-2,13.8,1.8-.8,15.3-33.5,45-45,55.4-34,30.7-86.7,52.3-109.7,91.5-.3-.5-.7-1.1-.9-1.6-14.6-39.8,121.9-112.7,141.8-147.1Z"/>
  <path class="st0" d="M2525.2,427.3c144.9-29.7,295.4-37.1,438.4,6.7,37.1,11.4,72.9,26.8,108.4,42.4,58.6,25.4,128.1,67.3,172.4,114.2-1.3-.2-2.6-.3-3.9-.5-27.2-3.7-58.6,4.1-84.6,11.7-58,17-108.8,48.9-153.6,89.1-82.9,74.4-150.8,185.9-274.3,192.4-33.4,1.8-66.8-6.1-96.7-20.9-100.4-49.5-132-154.3-192.1-240.2-31.1-44.4-65.8-75.8-105.4-111.8,59.7-37.8,123.8-63.8,191.5-83.2Z"/>
  <path class="st5" d="M2525.2,427.3c144.9-29.7,295.4-37.1,438.4,6.7,37.1,11.4,72.9,26.8,108.4,42.4-30.5,18.1-65.3,27-95,47.5-60,41.6-105.7,105.1-174.5,133.4-33.3,13.7-69.9,15.2-103.3,1-83.4-35.4-141.2-150.3-174-231Z"/>
  <path class="st8" d="M2304.1,1079c15.1-.4,30.2,0,45.2,1,15.1,1.1,30,2.9,44.9,5.4,50.7,8.2,99.8,23.5,149.8,35,23.2,5.3,46.6,9.7,70.1,13,23.6,3.3,47.2,5.6,71,6.9,88,5.4,176.8-12.5,264.1-3.2,104.8,11.2,179.6,54.6,245.1,136.1-35.5-26.9-71.9-47.1-111.8-66.7-57.6,88.5-103.6,168.5-179.4,244.4-64.2,59.8-142,93.8-227.9,109.1-21.7,3.9-44.2,7-66.4,5.9-62.4-3.1-133.2-34.8-183.8-70.2-99.2-69.4-196.3-260-217.1-378.8-34,18.1-68.8,34.4-104.6,48.8,59.2-50.5,122-83,200.7-86.8Z"/>
  <path class="st7" d="M2317.1,1096.7c118.6,5.6,216.3,50.8,331,59.9,53.6,4.3,106.8,2.7,160.4-.1,47.1-2.5,103-10,149.6-1,23.2,4.4,46.2,9,68.9,16,13.1,5.2,26.3,10.2,38.9,16.6-38,68.7-81.4,142.8-133.3,201.9-5.7-7.3-12.4-14.2-19-20.7-82.8-82-198.7-120.8-314.1-120.2-97.5.5-201.8,30.4-272,100.9-48.1-68-80.9-158.7-103-238.4l21.5-6.9c23.5-4.5,47.2-7.2,71.2-7.9Z"/>
  <path class="st0" d="M2245.9,1104.6c23.5-4.5,47.2-7.2,71.2-7.9-4.4,21.5-14.2,61.2-34.2,73.5-4.1,2.5-8.4,3.9-13.2,2.3-8.3-2.9-12.6-12.9-15.3-20.4-5.3-14.7-7.9-31.8-8.4-47.4Z"/>
  <path class="st0" d="M2958.1,1155.4c23.2,4.4,46.2,9,68.9,16-5.2,15.6-11.4,31-19.5,45.3-5,8.7-14.7,23.7-25.9,24.9-4.8.5-9.1-1.4-12.3-4.9-14.7-15.4-12.7-61.4-11.1-81.3Z"/>
  <path class="st5" d="M2327.5,1349.9c70.2-70.5,174.4-100.3,272-100.9,115.4-.6,231.3,38.2,314.1,120.2,6.6,6.5,13.3,13.4,19,20.7-31.1,39.4-70.8,75.2-114.2,100.5-73.9,43-176.2,70-260.5,47.2-116.9-31.7-171.3-85.3-230.4-187.7Z"/>
</svg>