<?xml version="1.0" encoding="UTF-8"?>
<svg id="_x2014_ÎÓÈ_x5F_1" xmlns="http://www.w3.org/2000/svg" xmlns:xlink="http://www.w3.org/1999/xlink" version="1.1" viewBox="0 0 4000 4000">
  <!-- Generator: Adobe Illustrator 29.2.1, SVG Export Plug-In . SVG Version: 2.1.0 Build 116)  -->
  <defs>
    <style>
      .st0 {
        fill: #322e2e;
      }

      .st1 {
        fill: #f8aa0c;
      }

      .st2 {
        fill: url(#_ÂÁ_Ï_ÌÌ_È_ËÂÌÚ_2);
      }

      .st3 {
        display: none;
      }

      .st3, .st4 {
        fill: #fefefe;
      }

      .st5 {
        fill: #fcbe08;
      }

      .st6 {
        fill: #f6900e;
      }

      .st7 {
        fill: url(#_ÂÁ_Ï_ÌÌ_È_ËÂÌÚ);
      }

      .st8 {
        fill: #16100d;
      }

      .st9 {
        fill: #dc4704;
      }
    </style>
    <linearGradient id="_ÂÁ_Ï_ÌÌ_È_ËÂÌÚ" data-name="¡ÂÁ˚ÏˇÌÌ˚È „‡‰ËÂÌÚ" x1="1940.6" y1="2113.1" x2="1666.4" y2="2418.1" gradientTransform="translate(-3830.1 10933.1) scale(3.9 -3.9)" gradientUnits="userSpaceOnUse">
      <stop offset="0" stop-color="#cf3203"/>
      <stop offset="1" stop-color="#fe9107"/>
    </linearGradient>
    <linearGradient id="_ÂÁ_Ï_ÌÌ_È_ËÂÌÚ_2" data-name="¡ÂÁ˚ÏˇÌÌ˚È „‡‰ËÂÌÚ 2" x1="1635.3" y1="2205.6" x2="1709.4" y2="2731.3" gradientTransform="translate(-3830.1 10933.1) scale(3.9 -3.9)" gradientUnits="userSpaceOnUse">
      <stop offset="0" stop-color="#d11307"/>
      <stop offset="1" stop-color="#ffa60b"/>
    </linearGradient>
  </defs>
  <path class="st3" d="M0,0h4000v4000H0V0Z"/>
  <path class="st9" d="M900.5,1225c120-6.6,211.4-3.1,326.8,34.4-4.6,5.4-9.3,11.9-14.5,16.6-119.6-35.1-198.9-40.1-322.1-32.4,3.1-6.3,6.5-12.4,9.7-18.6Z"/>
  <path class="st6" d="M3332.2,1027.3c-1.5-71.8,10.1-126.8,61.7-180.1,17.7-18.3,37.8-32.2,59.4-45.6-25.8,77.9-29.8,147.7-11.1,227.6-1.9,5.8-1.3,8.2,1.2,13.8.5,1,1,2,1.4,3l-2.8,4.2,1-.6c-11.8-.9-24.3-2.8-36.1-2.8-15.3,0-30.7,2.7-46,3-8.6.2-20.5-.7-26.5-7.7-3.8-4.4-2.9-9.5-2.3-14.8Z"/>
  <path class="st8" d="M1862.3,1911.7c342.1,66.6,634.7,138.1,886.3,397.4,24.4,25.1,47.9,51.9,68.8,80,11.7,15.6,22.2,33.6,34.7,48.4,38,71,81.7,142.1,101.3,221.2,22.4,61.9,30.9,136.6,27.2,201.6-1.2,21-8.3,42.1-7.4,63-.6,24.4-3.9,48.9-7.4,73.1-11.8,68.6-21,121.4-45.5,187.1l-7.2,18.7c-21.6,51.1-73.4,148.5-49.7,203.1,7.4,17.2,19,33.2,28.5,49.4,25.3,42.8,36.1,85.5,37.3,134.9l-30-8.3c.3-2.6.6-4.3.6-7.1,0-31.9-85.1-127.9-111.1-155.6,5.6-32.8,12.9-64.2,23-95.9,18.6-58,111.8-287.9,101.4-331.2l14.6-20.2c-3.8-19,3.2-47.4,5.1-67.1,3.1-32.6.6-65.6,4-98l-9.7-15.7c-4.4-42.7-11.4-85.8-18.8-128.1-3.3-19.1-11.4-41.6-10.9-60.7,9.8,5,22.9,13.4,33.5,15-47.3-137.4-150.4-265.7-263.7-354.7-35.8-28.1-74.1-51.9-111.8-77.3-1-3.6-1.5-6.4-3.6-9.6-14.1-21.7-54.4-46.2-76.9-59.3-182.9-106.7-396.3-148.7-602-187.6l-10.4-16.7Z"/>
  <path class="st1" d="M2936.6,2806.3c15.4,28.4,36.5,74.9,26.3,107.6-6.2,19.9-22.2,41.4-35.4,57.5-3.8-19,3.2-47.4,5.1-67.1,3.1-32.6.6-65.6,4-98Z"/>
  <path class="st7" d="M3204.9,1043l-.6-2.9c-3.4-3.5-7.6-5.2-11.9-7.3l-.3-4.3,2.7-2.6c1.1,0,5.5,0,6.4-.2,11.6-3,20-6.5,32.6-7,21.6-.8,71.9,11.1,89.7,1.9-1-2.7-2.1-5-3.7-7.4l-1.9-3,1.1-3.4,13.1,20.5c-.5,5.3-1.4,10.4,2.3,14.8,6,7,18,7.9,26.5,7.7,15.3-.4,30.7-3,46-3,11.8,0,24.3,1.9,36.1,2.8l-1,.6,2.8-4.2c-.5-1-1-2-1.4-3-2.5-5.5-3-8-1.2-13.8,39.6,120.4,102.4,199.1,161.6,307.4,23.1-58.1,34.4-105.7,98.3-132.3,7.7-3.2,16-5.5,24-7.9-28,66.6-30.4,137.9-3,205.3,12.8,31.4,31,60.5,46.4,90.7,43.6,85.6,39.5,157.3,12.7,247.1,87.1,317.4,84.1,624.7-81.6,916.2-153.9,270.7-402.8,446.7-700.4,527.8-28.4,7.7-57.9,15.2-87.2,18.6l7.2-18.7c4.2.4,8.2.5,12.4,0,35-3.9,73-18.8,106.9-29.1,10.4-3.2,20.8-6.6,31.2-10.1,10.3-3.5,20.6-7.2,30.9-10.9,10.2-3.8,20.4-7.7,30.6-11.8,10.1-4.1,20.2-8.3,30.2-12.7,10-4.4,20-8.9,29.8-13.6,9.9-4.7,19.7-9.5,29.4-14.4,9.7-4.9,19.4-10,29-15.2,9.6-5.2,19.1-10.6,28.6-16.1,9.4-5.5,18.8-11.1,28.1-16.9,9.3-5.8,18.5-11.6,27.6-17.7,9.1-6,18.1-12.2,27.1-18.5,8.9-6.3,17.8-12.7,26.5-19.2,8.8-6.5,17.4-13.2,26-20,8.6-6.8,17-13.7,25.4-20.7,8.4-7,16.6-14.2,24.8-21.4,8.2-7.3,16.2-14.6,24.2-22.1,42.6-40.8,82.8-88,119.2-134.6,19-24.8,37-50.4,53.8-76.7,16.9-26.3,32.6-53.3,47.2-80.9,29.9-57.8,103.7-247.9,96-310.4,32.5-164.6,8-370.3-38.4-530-55.5-190.9-132.9-342.7-267.3-489.9-33.4-36.6-68.5-73-107-104.3-58.8-47.8-121.2-86.9-187.4-123.4Z"/>
  <path class="st6" d="M2638.5,410.1c17.8,130.4,96.2,240.3,199.8,318.5,23.8,18,49.1,33.6,74.9,48.5,10.6-73.5,40.1-141.8,92.4-194.8,1.4,110.3,43,218.8,122.3,296.4,12.5,12,25.1,24,37.8,35.8-.8-26.9,0-53.8,2.6-80.7,14.8,8.6,28.1,17.4,40.7,29.1,32.3,30,90,104.6,110,143.8l-1.1,3.4,1.9,3c1.5,2.4,2.7,4.7,3.7,7.4-17.7,9.2-68.1-2.7-89.7-1.9-12.6.5-21,4-32.6,7-.9.2-5.4.2-6.4.2l-2.7,2.6.3,4.3c4.3,2.1,8.5,3.8,11.9,7.3l.6,2.9c-33.1-14.2-64.9-32.2-97.9-46.8-35.1-15.5-70.9-29.5-105.6-45.8-144.7-68.3-218.2-131.4-330.1-243.8-1.2,52.8,15.3,95.5,43.8,139.2-20.6-8.4-34.4-68.4-48.5-88.8-6.2-9-17.9-27-17.5-38,.1-3.8,2.6-10.2,3.4-14.2-.8-2-1.1-4.3-2.4-6-2.4-3-10.6-2.9-14-4.5-7.4-3.5-17-18.5-21.5-25.4-4.7-7-8.8-14.3-12.4-21.9-3.6-7.6-6.6-15.4-9.1-23.5-2.8-9.1-2.9-21.4-8.3-29.2l-4.5-.3-4.2,4.7c10.1-72.5,16.2-127.5,62.3-188.7Z"/>
  <path class="st9" d="M2965.7,2996.4c19.9,7.4,91.2-13,114.7-19.5,265.8-74.3,477.5-284.1,623.8-509.9,36.7-56.7,67.8-117.5,100.9-176.3,7.7,62.4-66.1,252.6-96,310.4-14.6,27.6-30.3,54.6-47.2,80.9-16.9,26.3-34.8,51.9-53.8,76.7-36.3,46.5-76.5,93.7-119.2,134.6-8,7.5-16,14.9-24.2,22.1-8.2,7.3-16.4,14.4-24.8,21.4-8.4,7-16.8,13.9-25.4,20.7-8.6,6.8-17.2,13.4-26,20-8.8,6.5-17.6,12.9-26.5,19.2-8.9,6.3-18,12.4-27.1,18.5-9.1,6-18.3,11.9-27.6,17.7-9.3,5.8-18.7,11.4-28.1,16.9-9.4,5.5-19,10.8-28.6,16.1-9.6,5.2-19.3,10.3-29,15.2-9.7,4.9-19.6,9.7-29.4,14.4-9.9,4.7-19.8,9.2-29.8,13.6-10,4.4-20.1,8.6-30.2,12.7-10.1,4.1-20.3,8-30.6,11.8-10.2,3.8-20.5,7.4-30.9,10.9-10.3,3.5-20.7,6.9-31.2,10.1-33.9,10.2-71.9,25.2-106.9,29.1-4.2.5-8.2.4-12.4,0,24.5-65.7,33.7-118.5,45.5-187.1Z"/>
  <path class="st0" d="M2593.6,3191.6c6.8.7,13.6.9,20.4.6,103.4-4.8,232.6-126.2,298.9-200.6,10.4,43.3-82.8,273.2-101.4,331.2-10.2,31.7-17.4,63.1-23,95.9,26,27.7,111,123.7,111.1,155.6,0,2.7-.3,4.4-.6,7.1-26.5-6-128-42.8-144.5-65.4-47.5,30.4-61.8,93.9-78.6,144.5-4.1,12.2-5.7,30.3-16,39-4.2-1.2-2.3-.3-5.8-2.8-45.7-47.4-68.9-111.4-84.6-174.1-66.9,7.1-132.7,32-198.2,47.1,12.7-60.6,43-111.1,81.7-158.7-40.4-35.8-77.1-91.2-86.9-145.2-.9-5.1-1.9-8.5,1-13,18.3.7,37.6,5.8,55.7,8.9,30.8,5.4,59.4,6.8,90.6,4.9,29.2-17.3,52.6-50.3,73.1-76.9l7,1.9Z"/>
  <path class="st8" d="M2677.2,3456.6c14.7,10.7,71.2,46.7,77.4,59.4-47.5,30.4-61.8,93.9-78.6,144.5-4.1,12.2-5.7,30.3-16,39-4.2-1.2-2.3-.3-5.8-2.8,5.7-25-.3-57.5,0-83.6.8-53.4,8.9-105.1,22.9-156.6Z"/>
  <path class="st8" d="M915.1,2804.8c9.3,38.6,16.3,71.6,53.2,94.3,33.8,20.9,79.1,23.5,116.9,13.5,16.4-4.3,31.7-11.1,46.3-19.6,20.6,17.5,54.5,41.5,69.4,62.9-71.1,88-158.7,165.9-261,215.1-.6,59.3,2.1,143.4-17.4,199.1-53.1-27.1-86.6-83.4-115.5-133.3-73.6,38.6-111.2,75.1-158.1,143.4-2.4-4.6-4.9-9.2-6.9-13.9-26.5-61.8-5.6-145.3,18.4-204.5-68.9,5.7-142.3,13.7-211.2,6.6,1.3-2.8,2.7-5.6,4.1-8.4,31.8-62.2,95.4-112.8,161-134.2-8-10.2-16.1-20.5-22.9-31.6-24.2-39.6-26.5-79.3-15.7-123.4,52.6,30.6,116.4,83.6,180.9,73.2,60.9-9.8,123.6-90.6,158.5-139.2Z"/>
  <path class="st0" d="M1778.9,3192c.5,8.6,1.4,16.3,7,23.3,7.5,9.3,25.2,16.5,36.9,17.4,22.7,1.7,48.4-3.5,69.1-13.1,88.4-41,69.5-127,115.1-163.5,8.3-6.7,17.9-9.4,28.5-8.1,12.5,1.6,18.8,8.1,26.3,17.6,9,48.3,3.1,101.1-6,149.2-29.7,112.9-77.3,217.9-150.4,309.5,13.7,65.9,35.8,141.2,30.3,208.7-56.9-23.7-110.3-70.7-157.9-109.5-60.1,55.3-91.7,101.2-138.5,166.6-38-48.6-49.8-142.8-43.1-202.5.3-2.8.8-5.4,1.3-8.2-72.2.3-139.1-2.4-206.8,28.2,16.3-81.5,71.5-142.9,137.3-189.6-42.4-37.7-65.3-86.5-68.7-143.3-.2-2.7-.2-5.4-.3-8.1,67.1,23.6,138.8,46.6,210.9,42.9,32-28.3,60.2-58.9,84.2-94.4,4.5-4.9,8-10.9,11.8-16.4,4.1-2.9,8.6-4.9,13.1-7Z"/>
  <path class="st6" d="M1627.7,2265.4c-.7,16.2-2.9,32.2-6.6,48-30.6,31.5-62.7,59.9-95.5,89,.2,4.5-.5,2.5,2.3,6l4.5-.7c18.4,13.4,33.1,28.7,37.2,52.1,6.3,35.6-15,71.6-30,102.4-16.5,5.6-34.4,23.7-49.2,33.6-60.3,40.3-118.2,66-152.7,135-18.2,36.4-20.6,75.5-7.3,113.9,28.7,82.5,121.7,151.1,198.3,187.5,58.6,27.8,144.9,50.5,208.5,27.6,18.6-6.7,38.2-18.8,46.3-37.7,2-4.6,2.9-9.6,4-14.5-28.3-72.3-103.4-117.5-171.5-147.5-29.8-13.1-60.9-24.2-92-33.8-19.6-6.1-40-10.9-59.2-18,103.6,6.6,242,54.9,311.2,132.8,2,2.2,4,4.5,5.8,6.8,1.9,2.3,3.7,4.7,5.5,7.1,1.8,2.4,3.5,4.9,5.1,7.4,1.7,2.5,3.2,5,4.8,7.6,1.5,2.6,3,5.2,4.4,7.8,1.4,2.6,2.7,5.3,4,8,1.3,2.7,2.5,5.5,3.6,8.2,1.1,2.8,2.2,5.6,3.2,8.4,1,2.8,1.9,5.7,2.8,8.5.8,2.9,1.6,5.8,2.3,8.7.7,2.9,1.3,5.8,1.9,8.8.6,2.9,1,5.9,1.4,8.9.4,3,.7,5.9,1,8.9.3,3,.5,6,.6,9,.1,3,.2,6,.1,9,0,3-.1,6-.3,9-1.8,31.4-19.9,95.3-41.4,117.5-.6.6-1.3,1-1.9,1.4-4.6,2.2-9,4.1-13.1,7-3.7,5.5-7.2,11.5-11.8,16.4-169.3-15.5-329.9-100.2-467.4-195.5-28.3-19.6-61.4-39.6-85.8-64-14.9-21.4-48.8-45.4-69.4-62.9-14.6,8.5-29.9,15.3-46.3,19.6-37.8,9.9-83,7.4-116.9-13.5-36.9-22.8-43.8-55.7-53.2-94.3,5.6-15.3,16.3-31.1,23.6-46,10.2-21,17.9-43.1,25.7-65.1-31.6-44.6-57.2-92.7-84-140.3-9.6,0-19.2-.3-28.8-.9-171-10.6-373.4-77.4-507.4-185.4-26.7-21.5-50.1-46.1-72.7-71.8,5.9-1.6,7.8-.2,12.9,3.2,21.1,14.3,40.9,31.8,61.3,47.2,30.4,22.7,62.3,42.9,95.7,60.8,116,61.7,276.2,113.5,407.7,120.5,48.9,2.6,98.3-1.2,146.9-6.1,185-18.3,403.6-76.5,555.6-187.3,27.6-20.1,54.4-41.7,76.1-68.3Z"/>
  <path class="st9" d="M1627.7,2265.4c-.7,16.2-2.9,32.2-6.6,48-30.6,31.5-62.7,59.9-95.5,89,.2,4.5-.5,2.5,2.3,6-25.1,20.8-61.3,37-90.9,50.6-169.9,77.6-346,95.9-530.3,95.6,46.4,74.7,91.4,151.4,146.2,220.2,8.4,10.5,16.9,20.8,25.7,30.9,8.7,10.2,17.6,20.2,26.7,30,9.1,9.9,18.3,19.6,27.7,29.1,9.4,9.6,18.9,18.9,28.7,28.2,9.7,9.2,19.6,18.3,29.6,27.2,10,8.9,20.2,17.6,30.5,26.2,10.3,8.6,20.8,16.9,31.3,25.2,10.6,8.2,21.3,16.2,32.2,24.1,10.9,7.9,21.8,15.5,33,23,11.1,7.5,22.4,14.8,33.7,21.9,11.4,7.1,22.8,14,34.4,20.7,11.6,6.7,23.3,13.2,35.1,19.6,11.8,6.3,23.7,12.5,35.7,18.4,12,5.9,24.1,11.7,36.3,17.2,12.2,5.5,24.5,10.8,36.9,15.9,12.4,5.1,24.9,10,37.4,14.7,35.4,13.2,71.8,25.8,108.6,34.5,28.9,6.8,58.3,10.4,87.8,13.9,9.3-16.1,16.5-34.2,23-51.6,17.6-47.2,21.7-89.9.3-136.2-28.3-72.3-103.4-117.5-171.5-147.5-29.8-13.1-60.9-24.2-92-33.8-19.6-6.1-40-10.9-59.2-18,103.6,6.6,242,54.9,311.2,132.8,2,2.2,4,4.5,5.8,6.8,1.9,2.3,3.7,4.7,5.5,7.1,1.8,2.4,3.5,4.9,5.1,7.4,1.7,2.5,3.2,5,4.8,7.6,1.5,2.6,3,5.2,4.4,7.8,1.4,2.6,2.7,5.3,4,8,1.3,2.7,2.5,5.5,3.6,8.2,1.1,2.8,2.2,5.6,3.2,8.4,1,2.8,1.9,5.7,2.8,8.5.8,2.9,1.6,5.8,2.3,8.7.7,2.9,1.3,5.8,1.9,8.8.6,2.9,1,5.9,1.4,8.9.4,3,.7,5.9,1,8.9.3,3,.5,6,.6,9,.1,3,.2,6,.1,9,0,3-.1,6-.3,9-1.8,31.4-19.9,95.3-41.4,117.5-.6.6-1.3,1-1.9,1.4-4.6,2.2-9,4.1-13.1,7-3.7,5.5-7.2,11.5-11.8,16.4-169.3-15.5-329.9-100.2-467.4-195.5-28.3-19.6-61.4-39.6-85.8-64-14.9-21.4-48.8-45.4-69.4-62.9-14.6,8.5-29.9,15.3-46.3,19.6-37.8,9.9-83,7.4-116.9-13.5-36.9-22.8-43.8-55.7-53.2-94.3,5.6-15.3,16.3-31.1,23.6-46,10.2-21,17.9-43.1,25.7-65.1-31.6-44.6-57.2-92.7-84-140.3-9.6,0-19.2-.3-28.8-.9-171-10.6-373.4-77.4-507.4-185.4-26.7-21.5-50.1-46.1-72.7-71.8,5.9-1.6,7.8-.2,12.9,3.2,21.1,14.3,40.9,31.8,61.3,47.2,30.4,22.7,62.3,42.9,95.7,60.8,116,61.7,276.2,113.5,407.7,120.5,48.9,2.6,98.3-1.2,146.9-6.1,185-18.3,403.6-76.5,555.6-187.3,27.6-20.1,54.4-41.7,76.1-68.3Z"/>
  <path class="st2" d="M2464.9,197.4c-2.2,101.3,14.4,191.9,49.8,286.6,17.8,39.6,36.8,76.4,58.7,113.8l2.7,1,4.2-4.7,4.5.3c5.4,7.8,5.5,20.1,8.3,29.2,2.5,8,5.5,15.9,9.1,23.5,3.6,7.6,7.7,14.9,12.4,21.9,4.5,6.9,14.1,21.9,21.5,25.4,3.4,1.6,11.6,1.5,14,4.5,1.4,1.7,1.6,4,2.4,6-.7,4-3.3,10.3-3.4,14.2-.4,11,11.3,29,17.5,38,14.1,20.4,27.9,80.3,48.5,88.8,2.6,3.4,8.4,8.7,7.9,12.9l-6.3-1c-1.7-.3-3.4-.6-5-1.1-84.9-21.2-176.6-106.5-220.9-181.2-57.6-76.5-77.4-163.8-81.1-257.5l1.2-2.1-2.4-1.1.3-3.9c-3.3,2.9-5.5,7.8-7.7,11.6-7.4,18.7-13.8,37.2-19.6,56.4-45.8,189.3-1.4,386.5,99.2,550.9,12.1,19.3,24.9,38.2,38.4,56.5,13.5,18.4,27.7,36.2,42.5,53.5,14.9,17.3,30.4,34,46.5,50.1,16.1,16.1,32.9,31.6,50.2,46.4,29.5,25,61.4,47.5,90.4,72.9-17.7-4.5-35.2-9.8-52.4-16-17.2-6.2-34.1-13.1-50.7-20.9,43.7,70.4,113.9,112.1,193.5,131,13.1,3.1,68.6,9.6,76.3,17.5-4.7,6.5-34.7,10.2-44.5,11.8-9.6,1.6-19.2,2.6-28.8,3.1-9.7.5-19.3.5-29,0,27.6,16.3,54.6,29.1,85.4,38.4,65.4,19.8,132.2,24.6,193.4,57.7-33.1-.3-68.4-3-100.9,4.3,82.8,54.4,164.2,102.7,209.9,194.9-19.6-10.1-39.2-20.8-59.4-29.5,79.5,91,116.4,224.1,108.2,343.6-7.9,115.9-54.9,207.4-142.9,282.9-20.2,17.4-41.8,34.7-65.1,47.7-1.2,3.3-1.4,1.9-.5,4.1-16.7,3.8-33.7,7.8-50.8,9.3,78.7-48.6,154.6-104.4,197.8-188.9,2.1-4,4-8,5.9-12.1,1.9-4.1,3.6-8.2,5.3-12.4,1.7-4.2,3.2-8.4,4.6-12.6,1.4-4.2,2.8-8.5,4-12.8,1.2-4.3,2.4-8.6,3.4-13,1-4.4,1.9-8.7,2.7-13.2.8-4.4,1.5-8.8,2.1-13.3.6-4.4,1.1-8.9,1.4-13.4.4-4.5.6-8.9.8-13.4.1-4.5.2-9,.1-13.4,0-4.5-.3-9-.6-13.4-.3-4.5-.7-8.9-1.2-13.4-.5-4.4-1.1-8.9-1.9-13.3-.7-4.4-1.6-8.8-2.5-13.2-1-4.4-2-8.7-3.2-13.1-1.2-4.3-2.4-8.6-3.8-12.9-29.5-90.9-83.4-140.6-166.1-182.6l66-2.9c-84.8-102.3-205.8-129.1-329.8-150.8,24.7-9.7,48.3-24.2,72.4-35.4,33.7-15.6,68.9-27.9,103.9-40.1-81.1-20.8-161.4-38-240.1-67.2-9.7-3.7-19.3-7.5-28.8-11.6-9.5-4-19-8.3-28.4-12.6-9.4-4.4-18.7-9-27.9-13.7-9.2-4.7-18.3-9.6-27.4-14.7-9-5.1-18-10.3-26.8-15.7-8.8-5.4-17.6-11-26.2-16.7-8.6-5.7-17.1-11.6-25.6-17.7-8.4-6-16.7-12.3-24.9-18.6-8.2-6.4-16.2-12.9-24.2-19.5-7.9-6.7-15.7-13.5-23.4-20.4-7.7-6.9-15.2-14-22.7-21.3-7.4-7.2-14.7-14.6-21.8-22.1-7.1-7.5-14.1-15.1-21-22.9-6.9-7.8-13.6-15.7-20.1-23.7-6.6-8-13-16.1-19.2-24.4-6.3-8.2-12.4-16.6-18.3-25.1-16.8-24-35.2-49.6-47.4-76.3,73.4,54.8,143.5,65.9,232,71.7-27.4-15.3-55.3-29.4-81.8-46.3-73.7-47-130.6-109.9-177.7-182.8-78.2-121.2-129.4-269.8-98.3-414.6,7.9,15.1,14.3,30.7,23.1,45.5,28.2,47.6,72.1,82.9,116.5,114.6-18.5-86.7-12.2-217.1,26.3-296.4,28.9-86.4,83.4-165.7,147.4-229.7Z"/>
  <path class="st6" d="M2381.5,479c-1-20.2-1.9-41.2,10.9-58.7,2.2-2.9,3.7-6,7.4-6.6-1.9,4.3-3.3,8.3-4.5,12.8l5.8-3.9c-7.4,18.7-13.8,37.2-19.6,56.4Z"/>
  <path class="st6" d="M2490.9,675.4c.4.4.9.7,1.3,1.1,10.4,8.9,18.9,20.5,26.5,31.9,4,1,7.2.8,11.2.5,2.6,3.2,4.3,5.3,4,9.8-.1,1.8-1.3,4.8-1.9,6.6,37.8,44.9,80.3,83.8,133.6,109.5,12.9,6.2,41.4,14.1,51.2,22.8-1.7-.3-3.4-.6-5-1.1-84.9-21.2-176.6-106.5-220.9-181.2Z"/>
  <path class="st6" d="M2464.9,197.4c-2.2,101.3,14.4,191.9,49.8,286.6-10.5-3.3-15.5-42.7-25.7-51.2-4.5-3.8-9.6-6.7-13.8-10.9-8.3-8.1-9.6-28.3-14.3-39.2-13.3-31.1-42.6-54.1-14.9-87.3,4.8-5.8,12.9-13,14.8-20.3,4.1-16.1.1-49.5.1-68-42.8,35.9-94,119.5-118.9,170-8.2,16.5-14.1,34-22.1,50.5l-2.5-.3c28.9-86.4,83.4-165.7,147.4-229.7Z"/>
  <path class="st5" d="M1539.7,2562.1c-1,11.2-3,22.5,5.3,31.7,6,6.6,14.4,8.8,23.1,8.9,14.9,0,30.4-5.2,44.1-10.8,80.3-32.8,117.3-84.9,213.1-47.2,77.4,30.4,183.7,143.9,239.9,154.2,23.5,4.3,43.1-5.5,59-22.4,23.3-24.7,42.3-84.5,80.7-86.4,23.1-1.1,47.7,17.7,63.6,33,15.2,14.6,27.9,31.3,40,48.4,21.9,30.8,51,86.8,94.4,86.2,78.9-1.1,141.6-187.8,244.7-94.7,44.6,40.3,65.5,105.4,81.9,161.5,5.8,19.7,10.3,41.6,20.7,59.4,6,10.3,13.4,17.2,26,17,19.2-.4,41.2-14.6,54.3-28.4,21.3-22.4,41.9-86.9,76.8-88.5,7.6-.4,13.3,3,19.6,6.7l9.7,15.7c-3.4,32.4-.9,65.4-4,98-1.8,19.7-8.9,48.1-5.1,67.1l-14.6,20.2c-66.3,74.4-195.5,195.8-298.9,200.6-6.8.4-13.6.2-20.4-.6l-7-1.9c18.9-31.2,34.4-61.6,45.2-96.6-214.5-47.7-384.4,45-576,121.8,9.1-48.1,15-100.9,6-149.2-7.6-9.5-13.8-16-26.3-17.6-10.6-1.3-20.1,1.4-28.5,8.1-45.6,36.5-26.8,122.5-115.1,163.5-20.6,9.6-46.3,14.8-69.1,13.1-11.7-.9-29.4-8.1-36.9-17.4-5.6-7-6.6-14.7-7-23.3.6-.5,1.4-.9,1.9-1.4,21.5-22.2,39.6-86.1,41.4-117.5.2-3,.3-6,.3-9,0-3,0-6-.1-9-.1-3-.3-6-.6-9-.3-3-.6-6-1-8.9-.4-3-.9-5.9-1.4-8.9-.6-2.9-1.2-5.9-1.9-8.8-.7-2.9-1.5-5.8-2.3-8.7-.8-2.9-1.8-5.7-2.8-8.5-1-2.8-2-5.6-3.2-8.4-1.1-2.8-2.3-5.5-3.6-8.2-1.3-2.7-2.6-5.4-4-8-1.4-2.6-2.9-5.3-4.4-7.8-1.5-2.6-3.1-5.1-4.8-7.6-1.7-2.5-3.4-5-5.1-7.4-1.8-2.4-3.6-4.8-5.5-7.1-1.9-2.3-3.8-4.6-5.8-6.8-69.2-77.9-207.5-126.1-311.2-132.8,19.2,7.1,39.6,12,59.2,18,31.1,9.6,62.2,20.7,92,33.8,68.1,30,143.2,75.2,171.5,147.5-1,4.9-2,9.9-4,14.5-8.1,18.9-27.8,31-46.3,37.7-63.7,22.9-150,.2-208.5-27.6-76.7-36.4-169.7-105-198.3-187.5-13.4-38.5-10.9-77.5,7.3-113.9,34.5-69,92.5-94.7,152.7-135,14.8-9.9,32.7-28,49.2-33.6Z"/>
  <path class="st8" d="M1969,2754.5c29.9,35.1,51.1,71,69.6,113.1-5,1.2-9.2,1.8-14.4,2l-3-4.8c-9.3-37.5-32.9-65.7-51.2-98.3-2.8-5-2.7-6.8-.9-12.1Z"/>
  <path class="st0" d="M2021.2,2864.8c-17.1-9.3-35.8-11.8-54.9-8-3.9.8-7.8,1.9-11.6,3.2-3.8,1.3-7.5,2.9-11.1,4.7-3.6,1.8-7,3.8-10.4,6.1-3.3,2.3-6.5,4.7-9.4,7.4-6.6,5.8-15.1,14.3-19,22.2-14.8,29.3-1.5,95.5-19.1,115.8-3.7,4.3-5.2,4.5-10.5,5.3-8.6-2.9-13.3-10.3-17.9-17.8-8.5-14.1-14.2-29.9-22.6-44.1-27-46-68.4-79.4-116.1-101.9-16.9-8-39.8-16.1-52.5-30.1-8.6-9.5-10.2-25.4-8.9-37.6,4.1-38.7,32.3-82.1,62.1-106.2,26-21.1,54.9-27.3,87.7-23.3,60.1,7.2,124.7,46.7,161.9,94-1.8,5.2-1.9,7.1.9,12.1,18.4,32.6,41.9,60.8,51.2,98.3Z"/>
  <path class="st6" d="M2038.6,2867.6c9.3,23.3,18.9,46.4,28.8,69.4,24.7-13.2,61.1-17.7,88.6-23.3,106.3-21.8,211.2-24.8,318.3-7.4,37.9,6.2,75.2,16.2,113.3,21.3,19.2-.6,33.4,1.5,47.9,15.4,1.4,1.3,2.8,2.7,4.1,4.1,1.3,1.4,2.6,2.8,3.9,4.3,1.3,1.5,2.5,3,3.7,4.5,1.2,1.5,2.3,3.1,3.5,4.7,1.1,1.6,2.2,3.2,3.2,4.9,1,1.6,2,3.3,3,5,.9,1.7,1.8,3.4,2.7,5.2.9,1.7,1.7,3.5,2.4,5.3.8,1.8,1.5,3.6,2.2,5.4.7,1.8,1.3,3.7,1.9,5.5.6,1.9,1.1,3.7,1.6,5.6.5,1.9.9,3.8,1.3,5.7.4,1.9.7,3.8,1,5.7.3,1.9.5,3.8.7,5.8.2,1.9.3,3.9.4,5.8,0,1.9.1,3.9.1,5.8,0,54.5-41.8,125.9-77.6,165.4l-7-1.9c18.9-31.2,34.4-61.6,45.2-96.6-214.5-47.7-384.4,45-576,121.8,9.1-48.1,15-100.9,6-149.2,6.4-46.4-23.3-149-37.6-196.1,5.2-.2,9.4-.8,14.4-2Z"/>
  <path class="st9" d="M2038.6,2867.6c9.3,23.3,18.9,46.4,28.8,69.4,26.7,80.3,27.1,157.2,21.8,240.4,136-54.5,281.8-130.9,432.4-128,39.4.7,75.4,7.4,113.5,16.2,3.2-4.2,3.1-7.8,3.3-12.9,2.3-49-19-89.7-50.8-125,19.2-.6,33.4,1.5,47.9,15.4,1.4,1.3,2.8,2.7,4.1,4.1,1.3,1.4,2.6,2.8,3.9,4.3,1.3,1.5,2.5,3,3.7,4.5,1.2,1.5,2.3,3.1,3.5,4.7,1.1,1.6,2.2,3.2,3.2,4.9,1,1.6,2,3.3,3,5,.9,1.7,1.8,3.4,2.7,5.2.9,1.7,1.7,3.5,2.4,5.3.8,1.8,1.5,3.6,2.2,5.4.7,1.8,1.3,3.7,1.9,5.5.6,1.9,1.1,3.7,1.6,5.6.5,1.9.9,3.8,1.3,5.7.4,1.9.7,3.8,1,5.7.3,1.9.5,3.8.7,5.8.2,1.9.3,3.9.4,5.8,0,1.9.1,3.9.1,5.8,0,54.5-41.8,125.9-77.6,165.4l-7-1.9c18.9-31.2,34.4-61.6,45.2-96.6-214.5-47.7-384.4,45-576,121.8,9.1-48.1,15-100.9,6-149.2,6.4-46.4-23.3-149-37.6-196.1,5.2-.2,9.4-.8,14.4-2Z"/>
  <path class="st0" d="M1762.8,1887.4c29.9,7.9,69.2,22.2,99.5,24.4l10.4,16.7c205.7,38.9,419.1,80.9,602,187.6,22.5,13.1,62.8,37.6,76.9,59.3,2.1,3.2,2.6,6,3.6,9.6,37.7,25.4,76,49.2,111.8,77.3,113.2,89,216.3,217.3,263.7,354.7-10.7-1.6-23.7-10.1-33.5-15-.5,19.1,7.6,41.6,10.9,60.7,7.4,42.3,14.5,85.4,18.8,128.1-6.3-3.7-12-7.1-19.6-6.7-34.9,1.7-55.5,66.1-76.8,88.5-13.1,13.8-35,28-54.3,28.4-12.6.2-19.9-6.6-26-17-10.4-17.8-14.9-39.7-20.7-59.4-16.4-56.1-37.3-121.1-81.9-161.5-103-93.1-165.8,93.5-244.7,94.7-43.5.6-72.5-55.3-94.4-86.2-12.2-17.1-24.9-33.8-40-48.4-15.9-15.3-40.6-34.1-63.6-33-38.4,1.9-57.4,61.6-80.7,86.4-15.9,16.9-35.4,26.8-59,22.4-56.2-10.3-162.4-123.8-239.9-154.2-95.8-37.6-132.8,14.4-213.1,47.2-13.7,5.6-29.2,10.8-44.1,10.8-8.7,0-17.1-2.2-23.1-8.9-8.2-9.1-6.3-20.5-5.3-31.7,15-30.8,36.3-66.8,30-102.4-4.1-23.3-18.8-38.7-37.2-52.1l-4.5.7c-2.8-3.5-2.1-1.5-2.3-6,32.8-29.1,64.9-57.5,95.5-89,13.6-9.4,26.7-23.1,38-35.2,46.6-50,69.7-104.8,86.4-170.3,4.4-17.3,6.1-40.6,16-55.3-.6,14.4-2.3,29.8-.3,44,16.1-58.5,8.1-149.3,1.5-209.3Z"/>
  <path class="st8" d="M1761.6,2052.6c-.6,14.4-2.3,29.8-.3,44-1.1,12.3-1.9,24.6-4.8,36.6-3.9,19.6-7.5,40.5-14.5,59.3-31,83.4-107,146.9-179.1,195.1-10.1,6.7-20.3,13.4-30.5,20l-4.5.7c-2.8-3.5-2.1-1.5-2.3-6,32.8-29.1,64.9-57.5,95.5-89,13.6-9.4,26.7-23.1,38-35.2,46.6-50,69.7-104.8,86.4-170.3,4.4-17.3,6.1-40.6,16-55.3Z"/>
  <path class="st5" d="M1762.8,1887.4c29.9,7.9,69.2,22.2,99.5,24.4l10.4,16.7c205.7,38.9,419.1,80.9,602,187.6,22.5,13.1,62.8,37.6,76.9,59.3,2.1,3.2,2.6,6,3.6,9.6,37.7,25.4,76,49.2,111.8,77.3,113.2,89,216.3,217.3,263.7,354.7-10.7-1.6-23.7-10.1-33.5-15-.3-.3-.6-.6-.9-.8-30.5-18.4-64.1-32.7-95.1-50.9-67.6-39.7-182-129.1-262.9-118.2-60.6,8.2-61.7,57.3-90.8,95.6-7.5,9.9-16.9,17.2-29.6,18.6-59.2,6.6-101.7-92.9-131.4-132.8-22.6-30.4-49.2-58.7-79.3-81.7-24.7-18.8-66.3-46.9-99-41.5-11.2,1.9-20,8.4-26.6,17.5-32.1,44.5.8,115-26.4,149.5-3.9,5-9.1,8.2-15.6,8.6-11,.7-22.4-5.5-31.2-11.3-63-41.8-78.3-129.2-107.5-194.1-11-24.5-24.1-47.5-41.7-67.8-18.3-21.2-43.9-43.4-71.4-51.2-9.2-2.6-24.1-2.1-31.1-8.1,2.9-12,3.6-24.3,4.8-36.6,16.1-58.5,8.1-149.3,1.5-209.3Z"/>
  <path class="st0" d="M1872.7,1928.4c205.7,38.9,419.1,80.9,602,187.6,22.5,13.1,62.8,37.6,76.9,59.3,2.1,3.2,2.6,6,3.6,9.6-103.2-55-213-86.7-330.4-89.1-67-1.3-140,2.8-204.2-18.4-73-24.1-114.8-83.3-147.9-149Z"/>
  <path class="st1" d="M2401.1,422.6c2.2-3.8,4.3-8.8,7.7-11.6l-.3,3.9,2.4,1.1-1.2,2.1c3.7,93.7,23.5,181,81.1,257.5,44.3,74.7,136,160,220.9,181.2,1.7.4,3.4.7,5,1.1l6.3,1c.5-4.2-5.3-9.5-7.9-12.9-28.5-43.7-45-86.5-43.8-139.2,111.8,112.4,185.3,175.6,330.1,243.8,34.7,16.3,70.5,30.4,105.6,45.8,33,14.6,64.8,32.6,97.9,46.8,66.3,36.5,128.6,75.6,187.4,123.4,38.5,31.3,73.6,67.7,107,104.3,134.4,147.2,211.8,299,267.3,489.9,46.4,159.8,71,365.5,38.4,530-33.1,58.9-64.2,119.6-100.9,176.3-146.3,225.9-358,435.7-623.8,509.9-23.4,6.5-94.8,26.9-114.7,19.5,3.5-24.1,6.8-48.7,7.4-73.1-.9-20.9,6.2-42,7.4-63,3.7-65-4.8-139.8-27.2-201.6-19.6-79-63.3-150.1-101.3-221.2,47.7-10.6,93.4-29.4,138.3-48.3,17.1-1.5,34.1-5.5,50.8-9.3-.9-2.1-.6-.8.5-4.1,23.3-13,44.9-30.3,65.1-47.7,88-75.6,135-167,142.9-282.9,8.2-119.5-28.7-252.6-108.2-343.6,20.2,8.8,39.8,19.5,59.4,29.5-45.7-92.2-127.2-140.5-209.9-194.9,32.5-7.3,67.8-4.6,100.9-4.3-61.2-33-128-37.9-193.4-57.7-30.8-9.3-57.8-22.1-85.4-38.4,9.7.5,19.3.6,29,0,9.7-.5,19.3-1.5,28.8-3.1,9.7-1.6,39.8-5.3,44.5-11.8-7.7-7.8-63.1-14.4-76.3-17.5-79.6-18.9-149.8-60.6-193.5-131,16.6,7.8,33.4,14.8,50.7,20.9,17.2,6.2,34.7,11.5,52.4,16-29-25.5-60.9-47.9-90.4-72.9-17.3-14.8-34-30.3-50.2-46.4-16.1-16.1-31.6-32.8-46.5-50.1-14.9-17.3-29-35.1-42.5-53.5-13.5-18.4-26.3-37.2-38.4-56.5-100.6-164.4-145-361.6-99.2-550.9,5.8-19.2,12.2-37.8,19.6-56.4Z"/>
  <path class="st0" d="M2517.5,866.1c167.5,192.6,455.2,267.9,678.3,377.3,14.2,6.8,28.3,14,42.2,21.4,13.9,7.5,27.6,15.2,41.2,23.3,13.6,8.1,26.9,16.4,40.1,25.1,13.2,8.7,26.2,17.6,38.9,26.9,12.8,9.3,25.3,18.8,37.7,28.6,12.4,9.8,24.5,19.9,36.4,30.3,11.9,10.4,23.6,21,35,31.9,11.4,10.9,22.6,22,33.5,33.4,27.1,28.7,53.4,57.7,76.5,89.7,109.7,151.9,150.3,336.7,137.2,521.8-.6,7.8-1.3,15.5-2.1,23.3-.8,7.8-1.7,15.5-2.7,23.2-1,7.7-2.1,15.4-3.3,23.1-1.2,7.7-2.5,15.4-3.8,23.1-1.4,7.7-2.8,15.3-4.4,23-1.6,7.6-3.2,15.2-4.9,22.8-1.7,7.6-3.6,15.2-5.5,22.7-1.9,7.5-3.9,15.1-6.1,22.6-2.1,7.5-4.3,15-6.6,22.4-2.3,7.4-4.7,14.9-7.2,22.2-2.5,7.4-5,14.7-7.7,22.1-2.7,7.3-5.4,14.6-8.2,21.9-2.8,7.3-5.8,14.5-8.8,21.7-3,7.2-6.1,14.3-9.3,21.4-3.2,7.1-6.5,14.2-9.8,21.2-3.4,7-6.8,14-10.3,21-3.5,6.9-7.2,13.8-10.9,20.7-3.7,6.9-7.5,13.7-11.4,20.4-3.9,6.8-7.8,13.5-11.9,20.1-4,6.7-8.1,13.3-12.3,19.8-4.2,6.6-8.5,13.1-12.8,19.5-4.4,6.5-8.8,12.9-13.3,19.2-4.5,6.4-9.1,12.6-13.8,18.9-4.7,6.2-9.4,12.4-14.2,18.5-4.8,6.1-9.7,12.2-14.7,18.2-5,6-10,11.9-15.1,17.8-5.1,5.9-10.3,11.7-15.6,17.4-5.3,5.8-10.6,11.4-16,17.1-5.4,5.6-10.9,11.2-16.4,16.7-5.5,5.5-11.1,10.9-16.8,16.3-5.7,5.3-11.4,10.6-17.2,15.8-5.8,5.2-11.6,10.3-17.6,15.4-77.1,66.6-170.1,123.6-265.5,159.7-30.1,11.4-61.8,23-93.5,28.6-9.7,1.7-46.8,3.8-51.8,9.7-.9-20.9,6.2-42,7.4-63,3.7-65-4.8-139.8-27.2-201.6-19.6-79-63.3-150.1-101.3-221.2,47.7-10.6,93.4-29.4,138.3-48.3,17.1-1.5,34.1-5.5,50.8-9.3,122.4-18.9,196.7-43.7,273.2-148.7,74.9-102.8,106.4-226.7,86.1-352.3-22.9-142.2-97-288.9-196.6-393.1-33.1-34.7-71.1-64.7-110-92.6-56.5-40.6-116.3-76.4-173.9-115.3-158.8-107.3-316-236.1-402.4-411.6Z"/>
  <path class="st0" d="M341.2,1563.6c13.4-20.8,27.5-41,42.2-60.8,138.4-184.7,296.7-246.5,517-277.8-3.3,6.2-6.7,12.3-9.7,18.6,123.2-7.6,202.4-2.6,322.1,32.4,5.2-4.7,9.9-11.3,14.5-16.6,33.9,12.3,68.1,24.3,100.9,39.1,11.6,5.3,23.1,10.9,34.5,16.8,11.3,5.9,22.5,12,33.6,18.5,11,6.4,21.9,13.1,32.6,20.1,10.7,7,21.2,14.2,31.6,21.7,10.3,7.5,20.5,15.3,30.4,23.3,10,8,19.7,16.3,29.2,24.8,9.5,8.5,18.9,17.2,28,26.2,9.1,9,18,18.1,26.6,27.5,26.9,29.8,47.4,65.8,74.9,94.4,32.2,54.4,58.8,106.6,79.3,166.4,9.3,26.8,21.7,59.2,22.7,87.7,4.9,20.3,5.9,41.5,11.1,61.6,6.6,60,14.6,150.8-1.5,209.3-2-14.3-.3-29.6.3-44-9.9,14.7-11.6,38-16,55.3-16.7,65.5-39.9,120.2-86.4,170.3-11.3,12.1-24.3,25.8-38,35.2,3.6-15.8,5.8-31.8,6.6-48-21.7,26.5-48.5,48.1-76.1,68.3-151.9,110.8-370.6,169-555.6,187.3-48.7,4.8-98,8.7-146.9,6.1-131.4-7-291.6-58.8-407.7-120.5-33.4-17.9-65.3-38.1-95.7-60.8-20.4-15.4-40.2-32.9-61.3-47.2-5.1-3.4-7-4.8-12.9-3.2-10.2-6.8-20.3-20.2-28.3-29.6-3.8-3.6-7.5-7.3-11.1-11.1-3.6-3.8-7.1-7.7-10.5-11.7-3.4-4-6.7-8.1-9.9-12.2-3.2-4.2-6.3-8.4-9.3-12.7-3-4.3-5.8-8.7-8.6-13.2-2.7-4.5-5.4-9-7.9-13.6-2.5-4.6-4.9-9.3-7.2-14-2.3-4.7-4.4-9.5-6.4-14.3-35.1-84.6-24.1-177.1,18.8-256.7,12.8-23.7,32.2-45,42.7-69.5,6.3-14.8,9-31.4,12.9-47,7.2-28.8,14.7-57,26-84.5,18.6-49.8,41.2-96,68.5-141.5Z"/>
  <path class="st9" d="M1751.7,1825.7c4.9,20.3,5.9,41.5,11.1,61.6,6.6,60,14.6,150.8-1.5,209.3-2-14.3-.3-29.6.3-44,4.9-49.1.3-101.7-4.3-150.8-2.2-23.6-9.1-52.9-5.6-76.1Z"/>
  <path class="st8" d="M632.3,2148.1c21.8,3.1,36,17.9,49.5,34.1,8.4,10.1,35.5,38.8,34.4,51l-4-.6c-26.1-14.7-62.7-30.3-82.4-53.5-4.3-5-8.7-12.2-7.1-19.1,1.5-6.4,4.9-8.1,9.6-11.9Z"/>
  <path class="st8" d="M1005.5,2152.8c5.2.7,8.3.9,12.6,4.3,2,4.9,1.6,8.9,0,13.8-9.6,27.9-71.2,49.2-95.7,60.6-4.3,1.5-4.6,2.7-8.9.8.2-4.8,2.1-7.9,4.7-11.8,18.5-27.3,53.9-61.7,87.3-67.6Z"/>
  <path class="st5" d="M341.2,1563.6c51.1-2.8,106.2,15.4,144.3,50,46.8,42.4,70.1,107.5,72.5,169.6,1.8,47.9-11.7,126.6-45.9,162.6-1,1-2,2-3,2.9,4.1-14.8,6.9-30,7.2-45.3.9-43.2-14.5-92.4-45.3-123.6-18.6-18.8-45-32.6-71.8-32.3-26.2.2-47.9,13.3-66,31.1-33.2-18.3-48.7-37.3-60.5-73.4,18.6-49.8,41.2-96,68.5-141.5Z"/>
  <path class="st8" d="M333.2,1778.5c18.1-17.9,39.8-30.9,66-31.1,26.8-.2,53.2,13.5,71.8,32.3,30.8,31.2,46.2,80.4,45.3,123.6-.3,15.4-3.1,30.6-7.2,45.3-2.3,5.8-4.6,11.5-7.4,17.1-15.3,30.9-39.3,56.9-72.8,67.7-24.6,8-50,5.7-73-6.1-29.8-15.4-49.4-44.1-59.2-75.5-12.9-40.9-11.4-91.7,9.3-129.9,7.6-14.1,18.9-26.6,25.9-40.7.5-.9.9-1.9,1.4-2.8Z"/>
  <path class="st4" d="M358.1,1779.4c6.7-.3,13.6-.8,19.9,1.9,9.7,4.1,17,12.7,20.4,22.5,5,14.4,3.4,31.4-3.7,44.9-7,13.1-15.7,18.8-29.7,22.9-4.6-.3-9.1-1.2-13.4-2.7-10.4-3.4-19.9-11.9-24.8-21.7-.7-1.5-1.4-3-1.9-4.5s-1.1-3.1-1.5-4.7c-.4-1.6-.7-3.2-1-4.8-.2-1.6-.4-3.3-.5-4.9,0-1.6,0-3.3,0-4.9,0-1.6.3-3.3.5-4.9.3-1.6.6-3.2,1-4.8.4-1.6.9-3.1,1.5-4.7,6.4-16.3,17.5-23.1,32.9-29.5Z"/>
  <path class="st8" d="M1182.4,1985.9c-5.1-17-5.7-35.5-2.6-53,7.7-44.6,39-91.2,76-116.9,27.5-19.1,61.4-29,94.8-22.6,35,6.7,57.8,27.9,76.9,56.3,20.9,48.1,28.9,92.9,9.2,143.3-14.1,36-40.4,66.3-76.2,81.9-28.9,12.6-64.1,14.3-93.5,2.5-43.3-17.2-65.3-51.2-84.6-91.5Z"/>
  <path class="st4" d="M1262,1833.9c3.8,0,7.6.1,11.4.8,9.7,1.8,19,8.4,24.1,16.8,6.8,11.3,7.1,26.1,3.3,38.5-5.2,16.6-14.7,25.4-29.8,33-4.3.2-8.7.3-12.9-.6-8.8-2-16.8-7.6-21.4-15.4-6.7-11.3-7-26.5-3.4-38.8,4.9-16.5,14.1-26.1,28.9-34.3Z"/>
  <path class="st6" d="M1649.6,1571.7c32.2,54.4,58.8,106.6,79.3,166.4-5.4,5.5-10.7,11.3-16.4,16.7-70.6,63.5-168.7,101.9-264.2,96.9-7-.4-14.1-.7-20.9-2-19.1-28.4-41.9-49.6-76.9-56.3-33.4-6.4-67.3,3.5-94.8,22.6-37.1,25.7-68.3,72.3-76,116.9-3,17.5-2.5,36,2.6,53l-1.1.8c-5.9-3-10.8-11.1-14.6-16.4-32.2-45-41.3-100.2-32-154,7.8-44.8,27.7-84.2,58.4-117.6,130.9-142.3,292.2-5.1,441.1-111.1l15.4-15.9Z"/>
  <path class="st9" d="M1649.6,1571.7c32.2,54.4,58.8,106.6,79.3,166.4-5.4,5.5-10.7,11.3-16.4,16.7-17-56.6-48.9-115.9-78.3-167.1l15.4-15.9Z"/>
  <path class="st5" d="M890.7,1243.5c123.2-7.6,202.4-2.6,322.1,32.4-24.3,26.6-44.5,56.6-75.3,76.4-42.9,27.6-116,27.3-144.3,79.1-5.1,9.3-6.6,19.2-3.5,29.4,7.6,24.6,30,34.7,50.5,46.2,15.1,8.5,32.4,18.8,36.7,36.9,3.2,13.3,1.5,27.3-6.1,38.8-24.9,37.5-85,34.3-120.3,59.8-39,28.2-44.5,86.5-99.2,96.8-18.8,3.5-37.4-2.5-52.6-13.6-22.1-16-19.7-44.1-23.2-68.3-5-34.6-25.4-48.2-51-67.5-15.9-12-27.1-26.3-29.3-46.8-6.1-56.2,91.8-59.7,125.9-73.3,17.3-6.9,32.9-17.7,43.9-32.8,45.9-63.3-15.8-58.8-21.7-99.5-4.5-31,30.6-70.9,47.5-94.3Z"/>
  <path class="st6" d="M259.7,2159.5c10.2,37.1,31,74.5,61.3,99.1,7.2.4,57.5,39.2,69.4,46.3,18.8,11.2,39.1,22.5,59.2,31.1,93.6,40,276.7,87.1,377.4,91.2,38.8,1.6,78.5-2.6,117.1-5.7,143.7-11.5,285.4-34.2,421.1-84,45.4-16.6,91.4-35.6,133.8-58.8,13.8-7.6,48.9-35.7,60.4-37.7.8-.1,1.6,0,2.5-.1,20.7-15.7,38.7-33.7,57-52.1,10.5,25.9,16.5,48.6,8.8,76.5-21.7,26.5-48.5,48.1-76.1,68.3-151.9,110.8-370.6,169-555.6,187.3-48.7,4.8-98,8.7-146.9,6.1-131.4-7-291.6-58.8-407.7-120.5-33.4-17.9-65.3-38.1-95.7-60.8-20.4-15.4-40.2-32.9-61.3-47.2-5.1-3.4-7-4.8-12.9-3.2-10.2-6.8-20.3-20.2-28.3-29.6-1.5-4.1-2.9-8.2-4.1-12.4-8.8-32.9,3.5-66.1,20.6-93.8Z"/>
  <path class="st8" d="M321,2258.6c7.2.4,57.5,39.2,69.4,46.3,18.8,11.2,39.1,22.5,59.2,31.1,93.6,40,276.7,87.1,377.4,91.2,38.8,1.6,78.5-2.6,117.1-5.7,143.7-11.5,285.4-34.2,421.1-84,45.4-16.6,91.4-35.6,133.8-58.8,13.8-7.6,48.9-35.7,60.4-37.7.8-.1,1.6,0,2.5-.1-161.3,137-375.5,181.2-580.7,198.5-58,4.9-117.5,11.1-175.7,6.4-142.9-11.5-386.4-76.4-483.5-186-.4-.4-.7-.9-1.1-1.3Z"/>
</svg>