<?xml version="1.0" encoding="UTF-8"?>
<svg id="_x2014_ÎÓÈ_x5F_1" xmlns="http://www.w3.org/2000/svg" version="1.1" viewBox="0 0 2500 2500">
  <!-- Generator: Adobe Illustrator 29.2.1, SVG Export Plug-In . SVG Version: 2.1.0 Build 116)  -->
  <defs>
    <style>
      .st0 {
        fill: #02544c;
      }

      .st1 {
        fill: #05ad9d;
      }

      .st2 {
        display: none;
        fill: #fff;
      }

      .st3 {
        fill: #04897c;
      }

      .st4 {
        fill: #8c8f93;
      }

      .st5 {
        fill: #007b72;
      }

      .st6 {
        fill: #121314;
      }

      .st7 {
        fill: #dd8e2f;
      }
    </style>
  </defs>
  <rect class="st2" x="2.2" y="2.5" width="2495.5" height="2495"/>
  <g>
    <path class="st5" d="M566.9,1453.1c-8.4,10.2-16.1,3.9-26.1-.3-10.2-4.3-20.8-7.3-31.7-9.3-23-4.3-46.6-4.1-69.8-2.2-40.1,3.3-90.1,6.6-122.8,33.1-1.5,1.2-1,3.6.9,4.1,21.4,5.6,46.5-1.3,67.6-4.3l74.1-10.4c1.7-.2,3.1,1.3,2.6,3-3.6,12.5-30.1,19.7-39.4,24.1-10.2,4.9-27.4,12.2-27.8,25.6,0,1.4,1.3,2.6,2.7,2.4,29.7-4.5,58-14.9,87.4-20.6,28.6-5.6,58-5.6,86.7-10.9,56.3-10.3,90.8-49.1,124.3-92.4,13.3-17.2,35.6-39.8,30.5-63.8-4.6-21.2-31.4-30.3-49-18.7-9.6,6.3-16.1,17.2-22.8,26.2-10,13.4-19.9,26.8-30,40.1-18.8,25-37.8,49.9-57.6,74.1Z"/>
    <path class="st6" d="M462.8,1475.2c6.9,1.6,21.4-2.1,24.4-2.3,11.8-.8,23.5-.1,35.3,0,5.4,0,19.9,2.1,23.8-2.6,4.4-5.2.9-8-3.7-9.9-6.4-2.6-22.7.7-30,.6-10-.2-20-.6-29.9.4-5.9.6-17.9-.2-21.7,5.5-3.3,5-1.8,7.3,1.7,8.2Z"/>
    <path class="st7" d="M892.6,690.7c5.2,9.4-26.2,14-30.8,15.4-12.4,3.8-24.6,8.5-36.5,13.7-24,10.5-47,23.3-69.5,36.7-12.9,7.7-25.8,15.6-38.6,23.5-8.4,5.2-21,17.2-30.9,12.7-11.6-5.2-32.9-27.4-24.6-40.4,6.4-10,23.6-15.4,33.9-20,12.6-5.6,25.5-10.6,38.5-15,27-9.2,54.6-16.1,82.8-20.7,13.1-2.1,26.2-4.3,39.4-6,5.7-.7,32.7-6.5,36.4.1Z"/>
    <path class="st7" d="M823.7,808c24-10.3,47.4-21.9,72.5-29.5,13.5-4.1,63.9-21.4,76.2-12,12.4,9.5-31.7,21.8-40,25.6-41.5,19.1-80.1,38.3-102.4,79.8-2.1,3.9-4.9,8.5-9.4,8.5-2.6,0-4.8-1.6-6.8-3.2-13-9.9-26.8-17.1-40.8-25.7-2.3-1.4-4.8-3.3-4.8-6,0-1.8,1.3-3.3,2.5-4.7,13.9-15.5,30.5-23.4,49.2-31.2,1.3-.6,2.7-1.1,4-1.7Z"/>
    <path class="st7" d="M969.7,858.1c18.4-10.9,37.9-19.6,57.7-27.6,18.4-7.5,37.7-16.7,57.4-20,.4,19-20.6,27-34.9,33-16,6.8-31,15.4-44.5,26.5-26.6,21.8-47,51.5-56.9,84.6,2.8-9.1-42.8-17.9-48.5-26.2-17.5-25.7,54.1-61.1,69.7-70.3Z"/>
    <path class="st7" d="M1032.4,925.3c20.5-16.9,44.4-29.5,69-39.2,7.6-3,67.9-25.1,70.4-18.6,1.9,4.9-57.1,41.3-62.7,47.1-13.6,14.1-28.4,27.8-41.4,42.7-3.3,3.9-36.6,49.8-34.9,50.5-17.6-7.9-35.2-15.9-52.8-23.8,15.8-24.1,30.3-40.5,52.4-58.7Z"/>
    <path class="st7" d="M1128.2,989.5c16.1-22.1,48.2-40.4,71.6-53.5,11.4-6.4,23.1-13.4,35.7-17.3,3.8-1.2,40.3-8.2,42.5-3.6,2,4.3-52.4,45.5-57.7,50.1-21,18.5-41.1,38-58.3,60.1-12.8,16.4-21.7,21-41.5,8.4-21.8-13.8-3-29.3,7.7-44.3Z"/>
    <path class="st7" d="M1261.7,1013.7c9-6.4,121.3-69.5,126.9-54.3-.3-.9-70.6,55.6-76.8,62.4-11.9,13.1-22.6,27.3-31.8,42.4-10.4,16.9-7.4,16.7-24.5,10.8-11.7-4.1-45.7-5.6-42.7-21.9,3.1-16.7,36.3-30.6,48.9-39.4Z"/>
    <path class="st7" d="M1394,1028c19.2-11.2,39.3-20.4,59.8-26.2,8-2.3,54.2-14.8,57-8.1,3.1,7.7-26.9,19.6-31.2,21.6-15.5,7.3-29.3,13.7-43.3,23.3-11.3,7.8-25.3,13.9-34.5,24-7.6,8.4-13.6,18.1-19.6,27.7-4.3,6.9-14.5,15.9-15.9,23.9-8.8-2-17.6-4.7-25.9-8.3-2.9-1.3-28.3-14.2-29.6-12.9,24.2-23.7,52.6-47.1,83.3-65.1Z"/>
    <path class="st7" d="M1467.1,1075.9c24.9-11.8,50.2-23.3,76.9-30.3,8.6-2.3,69.9-15.4,73.4-3.4,3.4,11.7-64.6,34.4-72.7,37.7-37.4,14.8-71.3,33.1-92.7,69.2-17.8-4.8-35.2-10.9-52.1-18.2,7.4-16.8,20.9-24.7,35.4-35.3,10-7.5,20.5-14.4,31.8-19.7Z"/>
    <path class="st7" d="M1584,1108c22.6-6.6,45.9-9.9,68.9-14.9,9.6-2.1,23.9-5.3,33.4-1.4,11.5,4.8,1.5,8.2-6.2,10-52.9,12.6-103.1,33.8-135.5,79.7-3.1,4.4-6.7,9.4-12,10.1-3.3.4-6.5-1-9.6-2.3-14-6.2-28-12.5-42-18.7,16-19.2,28.4-35.1,51.6-45.4,16.6-7.3,34-12,51.4-17.1Z"/>
    <path class="st7" d="M1569.1,1213.4c34.1-28.5,76.6-43.1,119.7-51.3,19.7-3.8,39.8-7,59.9-6.5,6.2.2,56,5,53.7,15.6-1.2,5.6-43.7,2.8-50.8,3.4-16.9,1.4-33.1,5.8-49.2,11.2-37.7,12.5-74.5,28-110.2,45.5"/>
    <path class="st7" d="M1732.8,1222.1c9.2-2.3,103.9-16.8,104.8-3.6.2,2.9-72,26.6-79.8,30.4-19.9,9.8-41.8,35.1-64.8,32.4-12.5-1.5-36.5-11-32.5-26.6,5.1-19.4,57.5-28.4,72.3-32.6Z"/>
    <path class="st5" d="M2382.7,1581c-2.1-22.3-11.3-42.5-24.5-60.2-11.9-16-27.1-30.1-43.1-42-7.5-5.6-15.2-10.7-22.9-15.3-28.5-17.1-60.2-30.3-92.5-41.7-24.1-8.6-48.5-16.1-72.1-23.7-.2,0-.4-.1-.6-.2-32.8-10.5-65.8-20-98.9-29.3-27.1-7.6-54.2-15-81.2-22.7-30.5-8.6-61-17.5-91.2-27.1-8.8-2.8-17.6-5.6-26.3-8.5-22.1-7.2-44.1-14.5-66.1-22.1-8.6-3-17.2-6-25.7-9-29-10.3-59.1-20.1-86.1-35-44.4-24.5-83.9-56.8-128.6-81.1-52.6-28.6-108.2-51.4-164.5-71.5-112-39.9-226.3-72.7-337.5-115-55.5-21.1-106.6-47.2-155.1-81.5-52.9-37.3-104.9-75.9-157.3-113.9-48.2-35-96.5-78-152.7-99.6-54.4-20.9-115.1-20.5-171.5-8.8-45.3,9.4-87.5,27.6-131.3,41.5-14.2,4.5-31.7,8.6-43.5,18.2-14.8,12.1-7.4,34.8-1.1,49.9,8.2,19.6,20.8,37,31.9,55,20.6,33.6,36.8,63.4,70.3,86.7,17.6,12.3,18.6,25.7,19.5,45.9,2.1,46.4,14.4,91.7,17.7,137.9,2.7,37.5,3.4,74.6,9.9,111.8,10.7,61.4,40.8,129.4,107.6,144.6,30.3,6.9,65.3,3.2,93.7-9.4,26-11.6,64.4-36.4,68-68.1.1-1.2,1.6-1.8,2.5-1,77.1,65.8,150.1,138.9,248.2,171.7,45.8,15.3,93.2,23.6,139.9,35.3,21.1,5.3,111.5,10.4,135.4,12.6,44.5,3.9,86.8,11.9,131.9,10.8,47.1-1.1,93.4-2.3,140.5.7,84.7,5.4,169.6,8.5,254.5,10.8,12.8.3,25.5.6,38.2,1,7.3.2,14.6.4,22,.5,41.6,1,83.3,1.8,124.9,2.6,24.2.5,48.5,1,72.7,1.6,24.5.6,48.9,1.2,73.4,1.9,16.1.5,32.3,1.1,48.5,2.3,23.5,1.8,46.8,5.1,69.6,11.4,0,0,0,0,.1,0,18.6,5.2,41.1,13.5,59.6,26,11.4,7.7,21.2,17,27.7,28.2,2.1,3.7,3.9,7.6,5.2,11.8,1.5,4.6,2.4,9,2.8,13.1.7,7.1,0,13.5-1.9,19.2-5.4,16.3-20.3,27.4-38,34.8-9.1,3.8-18.9,6.6-28.6,8.6-10.9,2.3-21.7,3.6-31.1,4.3-19.9,1.4-40,1.7-60.1,1.2-18.1-.5-36.2-1.7-54.2-3.4-4.8-.4-9.6-.9-14.3-1.5-10.8-1.2-36.2-3.2-62.6-5-23.2-1.6-47.2-3.1-62.6-3.8-4.8-.2-8.8-.4-11.7-.4-16.7-.3-33.5.2-50.2,1.5-19.8,1.5-39.5,4-59,7.5-18.9,3.4-37.7,7.6-56.3,12.6-14.5,3.9-28.9,8.2-43.1,13-18.6,6.2-36.9,13.2-54.9,20.7-20.4,8.5-41.7,16-61.7,25.5-8.5,4.1-17.2,8-26.5,9.8-4.1.8-8.2,1-12.1,2-1.7.4-7.5.8-8.6,1.8-4.1,3.9,6.6,6.8,8.6,7.2,7,1.4,14.8,1.3,22,1.5,14.3.4,28.6-.3,42.7-2.4,29.3-4.4,56.9-15.3,85.1-24.1,6.6-2,13.2-3.9,19.8-5.6,14.6-3.8,29.4-6.7,44.2-8.9,17.3-2.6,34.7-4.3,52.1-5.2,19.7-1,39.5-1,59.2-.3.7,0,1.4,0,2.2,0,20.1.8,40.1,2.2,60.2,4.1,17.8,1.6,35.7,3.6,53.5,5.6,29.9,3.4,59.8,7,89.7,9.9,17.7,1.7,35.4,3.1,53.2,4,34.1,1.7,68.3,1.6,102.5-2,.9,0,1.7-.2,2.6-.3,16.5-1.8,33.6-5.1,50.5-9.7,35.6-9.8,70.5-26,97.5-49.1,6.9-5.9,13.3-12.3,19.1-19.1,0,0,0,0,0-.1,22.4-26.5,35.2-60,31.4-100.9Z"/>
    <path class="st1" d="M2213.5,1505.5c-43.4-28.9-96.7-35.6-147.6-38.3-62.1-3.3-124.3-4.4-186.4-5.5-123.5-2.1-246.6-5.9-370-11.4-120.4-5.4-240.7-5.1-361.1-10.5-105-4.7-214-38.2-309-81.8-47.6-21.8-95-44.3-142.2-66.9-11.8-5.6-63-39.8-73-22.8-10.4,17.6,71.3,78.4,82.8,88.1,42.1,35.7,88,68.2,139.2,89.4,97,40.3,208.1,56.4,312.2,64.8,103.3,8.4,206.5,2,310,7.1,139.3,6.9,278.3,11.5,417.7,14.4,65.9,1.4,133.5-.8,199,8,32.8,4.4,67,11.8,95.8,29,10.1,6,28,28.8,37,27.2,15.7-2.6,29.8-29.4,29.8-43.5,0-18.3-19.9-37.9-34.3-47.4Z"/>
    <path class="st6" d="M209.6,760.6c48.5,4.7,98.3,11.1,142.2,33.6,38.1,19.5,68.9,56.7,112.1,65.3,9.9,2,20.9,2.6,30.8.4,5.5-1.2,14.5-6.6,5.9-11.9-4.8-2.9-19.7,1.8-26,1.4-9.9-.7-19.6-3.5-28.7-7.5-37.2-16.2-64.7-48.2-102-64.6-26.9-11.8-55.8-18.4-84.8-22.7-14.5-2.2-29.2-4.3-43.8-5.3-4.3-.3-9.8-2-11.3,3.5-.9,3.5,2,7.3,5.5,7.7Z"/>
    <path class="st6" d="M513.3,733.7c0,42.3-65.7,42.4-65.7,0s65.7-42.4,65.7,0Z"/>
    <path class="st7" d="M576.7,1070.4c0,56.7-96.2,56.6-96.2,0s96.2-56.7,96.2,0Z"/>
    <path class="st3" d="M691.2,1125.3c28.1-.1,54.6,9.1,80.4,19.4,26,10.3,51.4,21.5,75.4,36.1,45.4,27.6,96.3,60.6,97.9,119.1.9,30.7-9.1,60.2-15.9,89.8-6.9,30.1-10.2,60.8-15.8,91.1-5.1,27.6-16.3,52.9-22.5,79.9-5,21.4-19.9,46.7-43.6,50.5-33.2,5.3-65.6,7-98.4,15.8-30.2,8.1-59.6,18.7-89.1,29-4.5,1.6-8.5-3.2-6.3-7.4,8.4-15.8,39-24.5,51.5-30.2,12.8-5.9,25.6-11.7,38.5-17.5,3.9-1.7,12.7-4.3,19.7-7.6,4.8-2.2,3.6-9.3-1.6-9.9-21-2.5-44.9.8-64.6,4-25.3,4.1-49.9,11.7-74.4,19.1l-20.8,6.4c-3.1.9-6.4-1.1-6.7-4.3-.2-1.9.8-3,4.6-6,4.4-3.5,9.2-6.6,14-9.5,9.3-5.4,19.2-9.7,29.4-13.2,20.6-7,42.2-10.8,63.6-14.6,43.8-7.8,87.5-9,130.8,1.7,3.2.8,6.3-1.5,6.4-4.8.5-13-3.7-25.9-5.7-38.6-2.2-14-3-28.2-2.6-42.4.7-30.7,6.5-61.1,13-91.1,3.5-16.2,7.2-32.4,10.8-48.5,1.7-7.4,12.3-34.2,8.4-40.6-4.2-6.8-30.1.3-37.6,0-14.3-.6-28.3-3.8-41.8-8.6-26.9-9.6-50.8-25.9-73.7-42.8-20.2-15-41.4-30.2-57.1-50.1-11.1-14.1-27.4-41-14.9-58.5,10-14,32.9-15.6,48.4-15.6Z"/>
    <path class="st6" d="M403.2,1124.5c6,46.7,37.9,105,82.7,124.3,21,9,44.8,10,66.7,4.2,11.1-3,21.7-7.6,31.3-13.8,4.1-2.7,23.2-16.1,8.1-18.4-6.7-1-21.6,13.2-28.5,16.2-10,4.3-20.7,7-31.5,7.7-22,1.6-44-4.8-61.2-18.6-19.1-15.2-31.8-37.6-42.2-59.2-5.7-11.9-9.8-24-12.8-36.9-1-4.4-.5-9.9-6.2-10.9-3.5-.7-6.9,1.6-6.4,5.5Z"/>
    <path class="st3" d="M1485.1,1541.3c69.5-9.4-6.9-115-23.1-141.5-15.3-25.1-30.7-49-52.7-68.9-21.8-19.7-46.9-36-72.5-50.1-26.1-14.4-53.8-26.5-82.3-35.4-26.3-8.2-57.7-13-80.8,5.9-47.4,38.9,14.4,111.4,38.4,145.5,41.2,58.7,90.4,111.4,137.2,165.6-96.1-44.2-214.2-10.1-299,43.9,36.9,18,80.1.2,117.1-7.9,44-9.7,89.1-14.3,134.2-13.5-25,2.8-47.1,18-68.3,30.2-25.3,14.6-50.6,29.3-75.9,43.9,4.1,14.5,59.4,4,69.9,2.2,25.1-4.3,49.6-11.5,74-18.5,45.1-13,87-21.1,134-19,32.7,1.4,8-36.1.4-51.6-6.8-13.7-18.6-31.7-16.9-47.6,9.9-1.1,19.1,8.7,27.6,12.4,11.8,5.1,26,6.2,38.7,4.4Z"/>
    <path class="st6" d="M1253.6,1306.7c23.2,13.1,44.9,24.8,62.3,45.5,16.9,20.2,31.4,43.1,44.5,65.9,13.3,23.2,24.4,47.5,33.3,72.7,2.8,7.8,5,29,10.9,34.1,7.1,6.1,10.8.5,9.9-7.2-2.9-24.2-16.8-51.3-27.1-73.2-11.4-24.3-25.3-47-40.2-69.3-14.3-21.3-29.4-42.5-50.8-57.2-10.1-7-21.1-13.6-32.2-18.9-3.3-1.6-6.7-4.9-10.5-2.4-3.6,2.3-3.9,7.8,0,10Z"/>
    <path class="st6" d="M1296.3,1596c16.2-5.2,33.2-7.8,50.3-7.3,4.7.1,13.9,3,16.5-2.3,2.2-4.5-1.6-7.2-5-8.7-12.8-5.7-37.3.2-50.4,3.2-4.5,1-16.3,1.9-18.2,7.6-1.4,4.3,2.3,9.1,6.9,7.7Z"/>
    <path class="st0" d="M1829.3,1310.3c-8.8,8.5-16.8,17.6-20.8,21.5-8.2,7.8-15.6,16.4-22.3,25.5-13.6,18.4-24,39.1-31.6,60.7-12.7,36.3-14.9,73.4-14.8,111.1-7.3-.1-14.6-.3-22-.5-12.8-.3-25.5-.6-38.2-1-3.2-20.2-6.5-38.9-5.7-60.2,1.1-31.4,11-61.7,24.4-89.8,12.9-27.3,28.3-53.2,49.9-74.6,4.4-4.4,9.5-9.7,15.1-14.7,21.9,7.6,44,14.9,66.1,22.1Z"/>
    <path class="st0" d="M2028.1,1368.5c-14.6,11-28.2,21.9-41.2,36.7-13.3,15.1-24.5,32.1-33.1,50.3-12,25.2-18.8,51.4-16.5,77.7-24.2-.6-48.5-1.1-72.7-1.6,0-8.8,0-17.6.2-26.5.7-22.4,3.3-44.6,11.3-65,8.4-21.3,22.4-39.2,35.7-57.6,5.2-7.2,11.4-12.6,17.4-19.3,5.5-6.3,11.5-11.9,17.7-17.4,27,7.6,54.2,15.1,81.2,22.7Z"/>
    <path class="st0" d="M2199.6,1421.7c-3.7,3-6.4,5.4-7.4,6.4-11.7,12.6-26.8,22.4-35.8,37-1.1,1.9-2.2,3.7-3.3,5.6-10.6,18.8-17.8,40-20.3,61.4-.2,1.8-2,8.7-3.9,16.7,0,0,0,0-.1,0-22.7-6.3-46.1-9.6-69.6-11.4,7.1-30.1,16.2-67.4,18.4-72.9,7.1-17.6,16.7-36.5,30.2-50.2,5.8-5.8,12.3-11.3,19.2-16.5.2,0,.4.1.6.2,23.6,7.5,48,15.1,72.1,23.7Z"/>
    <path class="st0" d="M1936.1,1748.3c-17.9-2-35.7-4-53.5-5.6-.1-12.3-2.3-24.5-5.4-36.6-.6-2.5-3.3-12.5-6.6-23.6,15.4.7,39.4,2.2,62.6,3.8,1.7,9.9.3,20,1.6,29.9,1.2,11.2,1.5,21.6,1.4,32.1Z"/>
    <path class="st0" d="M1708.9,1744c-14.9,2.2-29.6,5.2-44.2,8.9-1.1-2.3-2.4-4.6-3.7-6.8-6.2-10.3-8.9-19.8-10.7-29.6,14.2-4.8,28.6-9.1,43.1-13,.5,2.4.9,4.1,1.1,4.8,4.4,11.8,9.3,23.8,14.4,35.7Z"/>
    <path class="st0" d="M1820.2,1738.5c-19.8-.7-39.5-.7-59.2.3-2.3-7.6-4.6-15.2-7.1-22.7-2-8.3-3.2-16.7-4.2-25.2,19.6-3.5,39.3-6,59-7.5,0,0,0,.1,0,.2,1.9,14.7,3,31.1,7.9,45.2,1.1,3.3,2.4,6.5,3.6,9.6Z"/>
    <path class="st0" d="M2363.6,1663.5c-3.7,6.4-7.8,12.6-12.3,18.4,0,0,0,0,0,.1-5.6,7.2-11.8,13.8-18.5,19.9-.2-.3-.4-.5-.6-.8-12.4-17.9-28.3-34.6-47.6-44.9-8.5-4.5-17.7-7.9-27.3-9-11.4-1.3-23.2-.9-35,0,1.9-5.7,2.7-12.1,1.9-19.2,22.6-2.8,50.9-6.4,55.1-7.6,20.7-5.8,48.7-9.8,67.3,4.2,5.4,4,20.3,12.9,23.9,18.4,3.3,5-3.3,14.2-6.8,20.5Z"/>
    <path class="st0" d="M2358.2,1520.7c-9.3,2.2-19.7,5.2-21.9,5.7-14.6,3.3-28.2,8.9-40.5,17.6-19.9,14.1-38.5,29.9-58.2,44.1-7.1,5.1-14.5,9.7-21.5,14.9-6.4-11.2-16.3-20.5-27.7-28.2,24.4-27.9,50-54.1,82.9-72.9,8.4-4.8,16.9-9.2,25.5-13.8,0,0,0,0,0,0,6.1-3.3,12.2-6.3,18.2-9.5,16.1,11.9,31.2,26,43.1,42Z"/>
    <path class="st0" d="M2234.6,1750.1c-16.9,4.7-34,7.9-50.5,9.7-1.1-12.1-3.5-23.9-8.7-36.1-5-11.7-12-22.8-19.8-33.1,9.7-2,19.6-4.9,28.6-8.6,15.9,16.4,30.2,35.3,42.4,54.8,2.8,4.4,5.5,8.9,8.1,13.4Z"/>
    <path class="st0" d="M2079,1762.1c-17.7-.9-35.5-2.3-53.2-4h0c-.9-.9-1.1-2.4-.6-4.7-.3-.8-.6-1.6-.9-2.5l-6.2-30.3c-.1-.3-.2-.6-.3-.9-3.3-8.9-4.2-18.5-7.7-27.1,18,1.7,36.1,2.9,54.2,3.4.7,2.5,1.5,5,2.2,7.6,5.1,9.7,8.3,25,9.2,32.5.4,3.2,1,8,1,12.5.8,4.5,1.5,9,2.2,13.5Z"/>
    <path class="st4" d="M480.5,724.3c0,12.3-21.1,12.3-21.1,0s21.1-12.3,21.1,0Z"/>
  </g>
</svg>