<?xml version="1.0" encoding="UTF-8"?>
<svg id="Layer_1" xmlns="http://www.w3.org/2000/svg" version="1.1" viewBox="0 0 3894.8 2680.2">
  <!-- Generator: Adobe Illustrator 29.2.1, SVG Export Plug-In . SVG Version: 2.1.0 Build 116)  -->
  <defs>
    <style>
      .st0 {
        fill: #302b3a;
      }

      .st1 {
        fill: #fc8f34;
      }

      .st2 {
        fill: #97919d;
      }

      .st3 {
        fill: #fdad49;
      }

      .st4 {
        fill: #323140;
      }

      .st5 {
        fill: #2e2938;
      }

      .st6 {
        fill: #302d3b;
      }

      .st7 {
        fill: #eea853;
      }

      .st8 {
        fill: #31303e;
      }

      .st9 {
        fill: #1e1c29;
      }

      .st10 {
        fill: #191624;
      }

      .st11 {
        fill: #fefefe;
      }

      .st12 {
        fill: #2e2837;
      }

      .st13 {
        fill: #f49039;
      }

      .st14 {
        fill: #2f2a39;
      }
    </style>
  </defs>
  <path class="st8" d="M2713.2,369.7c.5-3.3,1.1-6.6,1.5-9.9,7-1.6,11-4,3.2-10.2.3-1.6.6-3.2.9-4.9,5.1-3.9,13.3-6.7,4.8-14.9,8.6-33.1,23-63.4,44.6-90.1,8.1-.6,10.3-5.6,9.3-12.8.5-3.5,1.7-6.3,5.6-7.2,7.7-.4,10.5-4.7,9.6-11.9,8.7-13.8,20.2-24.8,33.8-33.7,7.3.8,11.6-2.1,11.7-10,2.7-5.2,7.1-8.3,12.6-10.1,7.1.9,12.1-1.2,12.7-9.3h0c7.9.2,15.2-.2,14.7-11.1,7.3-5.9,13.9-13.1,23.9-14.3,7.3.4,15.2,1.9,16.5-8.9,3.2-2.2,6.4-4.4,9.5-6.6,6.8,8.5,9,3.8,10.5-3.5,48.6-25.2,101-38.3,154.4-48.2,1.4,13.9-10.4,15.9-18.9,19.7-18.6,8.2-33.8,19.5-46.2,36-24.8,32.8-47.4,67.8-93.7,75.9-13.5,2.4-32.9,10.4-29.2,31.1,3.3,18.5,20.5,17.5,35.2,18.4,2.5.1,4.8,1.1,7.3,1.6.7,8.4.7,18.2,13.3,15.1,10.1-2.4,18.6-9.4,20.2-19.6,1.9-13.3-9.8-9.7-17.3-10.6-.2-7.7.2-15.6,8.8-18.6,8.7-3,12.8,4.9,18.7,9,19.6,13.5,39.5,27.1,62.4,34.8-10.6,13.8-21.1,27.4-29.5,43-8.2,15.3-6.4,34.2-18.6,47.7-4-2.8-8.9-5-11.9-8.6q-25.6-30.4-64.3-17.9c-6.3,2.1-12.4,4.6-18.5,7.1-11.2,4.6-21.5,7.6-22.3-10.3-.2-5.2-1.7-11.2-8.2-9.6-10.1,2.5-3.6,9.4-1.4,13.6,7.7,14.8-2.8,17.3-12.8,19.6-30,6.7-28.3,5.9-18.5,36.9,5.6,17.9,21.7,39.7-.3,56.4-15.8,12-9,20.4-5,34.8,6.1,22.1,25.2,46.6-2.3,69.3-11.1,9.2-3.6,15.6,7.7,18,.2,10.4.8,20.6,15.4,19.8,9-.5,17.4-4,17.8-13.6.5-13.7-11-14.1-21-15.1-2.3-11.9,6.3-22.1,13.6-14.3,18.9,20.3,33.4,44.7,49.2,67.8,1.1,1.6-2.4,5.9-3.3,9.1-6.7,22.8-23.1,36.9-41.2,51-9.1,7.1-34.2,17.2-7.2,34.4,15.2,26.4,44.4,32.4,68.4,45.3,14.4,7.7,16,11.5,5.6,24.4-28.3,35.6-55.8,72.2-70,116.5-2,3.6-4.3,7.1-5.9,10.9-39.5,99.9-81.8,198.6-125.5,296.8-36.5,82.1-76.4,162.9-105.6,248.1-11.3,33-15.2,66.4-3.5,100.3,13.5,67.6,45.1,128.1,74.7,189.4,4.3,8.8,13.3,9.4,20.6,12.5,79.5,33.7,162.6,53.1,248.5,61.6,25.6,2.6,51.1,7.9,74.4,19.8,23.7,12.1,24.8,33.2,2.9,48.2-13.6,9.3-29.5,10.6-45.4,11-36.1,1-71.2-5.7-106.6-11.2-21.4-3.4-43-5-64.6-3.6-9.3.6-20.2,1.7-22.4,12.1-2,9.2,7.4,14.1,14.3,18.5,34.2,22.1,69.2,43.2,103,66,34.6,23.4,66.7,49.8,91.9,83.7,4.5,6,9,12.1,12.1,18.8,6.1,13.5,14.8,28.3.4,41.2-13.6,12.2-26.7,2.3-38.6-4.9-63.3-38.7-118.9-88.4-180.2-129.8-11.3-7.6-23.5-23-37.1-13.9-13.9,9.2-7,27.3-4.9,41.9,6.2,43.9,22.6,85.1,34.1,127.6,4.8,17.7,9.7,35.4,8.5,54-.9,13.8-3.8,27.3-18,33.1-13.2,5.4-24.4-2.5-34.1-10.2-16-12.7-26.1-30-34.5-48.3-22.6-49.4-33.9-102.4-49.4-154.1,34.2-39.9,39.5-81.9,9.2-126.6-7.4-10.9-13.8-22.7-22.2-32.7-7.9-9.3-12-15.4-1.8-27,8.6-9.7,3.9-23-8.7-26-22.1-5.1-48-33.7-39.7-52.9,8.9-20.5-6.2-34.7-6-52.1,0-4.1-4.4-6.7-8.8-7.6-3.8-8.4-9.9-14.7-17.1-20.2,1.2-12.1-2-24.2,4-36.4,10.9-22.6,10.1-44.3-9.9-62.4-3.6-3.2-9.8-7.8-6.9-12,17.1-24.5,1.3-51.3,6.4-76.4,1.5-7.6-.1-13.5-7.3-16.2-7.6-2.8-17.3-2.1-18.8,6.2-5,26.4-21.1,15.9-35.5,12.3-.4-1.7-.9-3.4-1.4-5.1,3.8-2.3,4.5-6.1,4.5-10.1,10.6-.2,23.2,2.3,24.5-13.6,1-13.5-8.2-16.5-19.6-16.2,4.3-30.4-8-58.1-12.6-87.6-9.2,4.6-17,8.7-24.9,12.6-2.6-4.6-5.2-9.2-7.8-13.8.2-9.8,2.5-21-9.5-25.7-28.3-11.2-38.2-31.2-30.2-60.4.2-6.6-1.2-14,1.1-19.8,18.9-47.1,13.1-96.4,13.9-145,.2-12.5.7-28.2-11.2-33.1-13.1-5.3-27.3-2.3-41.8,7-24.8,16-37.7,43.6-62.2,59.2,6.7,3.9,19.3,5.7,12.8,18.2-3.1,6.1-10.7,10.5-18.8,3.8-27.3-22.5-43.2-21.8-63.2,3.4-5.1,6.4-11.4,7.6-17.5,5.8-10.1-3-16.3,2.2-21,8.8-14.2,19.4-32.6,34.3-51.3,48.9-3.4,2.6-6.8,5.1-10.1,7.7-8,1.8-16.4,2.6-24,5.4-31.5,11.8-60.7,28.7-94,37.3-26.2,6.8-50.8,19.6-79,17.8-2.9-.2-7,1.6-8.8,3.8-22.1,27.2-54.4,26.1-84.6,30.8-7-11.1-5-29.6-25-30h-15c-3.4-4.9-8-4.6-13.2-3.4-45.2,9.9-87.9,28.5-127.3,50.9-20.2,11.4-51.7,20.7-51.5,57,0,9.5-15.5,20.2-25.6,28.2-7.1,5.7-16.4,1.7-22.8-4-6.9-6.2-4-12.6,1-19.5,7.6-10.6,6.5-18.8-9.1-19.1-1.6-12.6-10-15.3-20.9-14.8-18.4.9-32.1,9.8-42.2,24.8-5.3.5-12.7-.4-12.1,7.6.8,9.4,8.8,6.7,14.9,6.5l.6-.4c-3.8,11.3,1.4,20.8,5.3,31,8.4,22-2.6,52.5-17.4,49.5-14.1-2.8-28.3-5.4-42.2-8.4-8.8-1.9-14.8-4.9-16.2,4.8-1.3,9.5-7.5,25.9,6.6,27.8,29.6,4.2,22.4,18.3,15.3,36.7-5.1,13.3-4,28.8-16.7,39.3-3.8,3.2.7,9.3,3.7,13.4-1.5.8-3,1.5-4.5,2.3-12.6-1.6-21.8,6.8-19.1,16.3,5.4,18.6-8.8,28.5-13.6,42.3-1.8,5.1-4.3,11.4-11.9,10.4-7.9-1.1-10.5-6.9-11-14,5.7-3.4,11.8-7.1,6.5-14.8-3.6-5.2-9.4-6.6-14.8-2.9-6.9,4.9-9.2,11-1.8,17.6-.8,4.1-1.4,8.6-6.8,8.8-6.7.2-7.9-4.7-8-9.9-.4-14.4,2.6-27.9,12.6-39,6.6-7.4,15.4-14,10.9-25.5-4.8-12.4-16.2-9.4-25.6-9.3-17.9.2-28.8-6.3-27.8-26,3.2.3,6.5.6,9.7.9,9.3.7,18.2.4,21.8-10.7,1.8-5.6-.5-9.8-5.2-12.2-8.4-4.3-17.6-4.9-25.4.6-3.4,2.5-4.8,8-7,12.2-4.1.6-9.1,0-12,2.1-20.7,15.2-39.9,32-67.6,34.4-9.8.8-7.1,10.1-5.8,18,3.5,20,4.1,40.1-13.9,54.7-11.2,9.1-25.9,10.5-38.3,19.7-23.8,17.5-46.5,42-81.5,36-11.9-12.9-25.4-9-34.8.9-41.8,43.4-95.1,73.9-133.9,120.4-3.7,4.5-7.6,8.8-11.4,13.2-5.8,6.8-10.3,7-14.6-2-8.9-19-30-24.5-48.3-11.4-22.9,16.6-46.1,6.8-74.6,7.9,11.9-11.3,21.2-12.4,29.6-15.2,32.9-11.1,34.6-17.4,11-42.7-2.7-2.9-6.8-4.6-10.2-6.8-.6-16.2-12.1-15.4-22.9-13.8-13.9,2.1-15.6,12.4-13.9,24.1-32.5,17.9-68.6,27.3-103.1,39.6-26.2,9.3-57.9,23.2-86.2-2.7-16.9-15.5-16.2-34.7-17.1-54.3,138.4-9.2,245.6-82.9,344.5-170.4,92.8-82.1,181.4-169,273.1-252.4,75.8-68.9,157.7-130.4,241.5-189.2,8.8-6.1,16.6-13.6,24.8-20.4,9.8.6,16.9-5.4,24.8-10,127.4-74.6,257.4-143.6,396-195.7,32.1-12.1,67.7-16.6,95.7-39.1,21.3,3.1,41.1-4.3,61-9.6,124.4-33.3,252.3-53.1,374.5-94.9,58.3-19.9,114-45.4,164.6-81.7,61.1-43.7,93.8-101.1,95.5-177,.9-42.2.8-84.9,11.4-126.4,6.3-1.7,9.9-4.3,2.5-10ZM2783.3,379.9c-6.4-3.2-14.2-7.7-17.5,2.4-3.1,9.6,5.2,11.6,12.6,12.6,10.1,8.9,22.5,5.8,33.2,3.8,13.8-2.4,20.7-14.5,20.5-27.6-.2-10.8-11.7-16.4-19.8-14.2-11.8,3.2-27.1,5.7-29,22.9ZM1778.9,1080.1c-.6-14.8-6.2-25.8-21.6-25-15.3.8-19.4,13.1-19.6,26.5-.1,13.4,6.2,22.8,20.1,22.8,15.5,0,20.4-11.3,21.1-24.3ZM2745.6,844c-1.6-12.5-9.8-15.9-19.8-14.7-14.9,1.8-28.1,8.3-29.6,25-1,11.6,9.3,15.6,19,14.2,14.6-2.1,26.5-9.1,30.4-24.4ZM2198.6,1051.6c3.8,10.9,9.2,22.5,22.3,22.2,12.4-.2,21.8-8.9,21.2-22.5-.6-13.6-10.6-20.3-23.4-20.4-12.4,0-19.1,7.7-20.2,20.6ZM1628.5,1284.8c-8.8,1.2-21.4,3.6-20.7,18.7.8,13.8,11.8,19.2,24.5,18.7,12-.5,20.4-6.8,20.4-19.9,0-14-8.8-18.2-24.2-17.5ZM1241.7,1505.1c-.4-12.9-9.7-17-20-17.7-12.4-.8-24.1,3.7-26.8,17.3-2.5,12.6,7.4,17.9,17.9,19.2,14.2,1.9,23.8-5.3,28.8-18.8ZM2572.3,960.7c-1-10-7-15.5-16.6-14.5-12.9,1.3-25.4,5.4-27.2,20.8-1.5,12.2,7.8,16.4,17.6,15.9,13.5-.7,23.8-7.3,26.2-22.2ZM1630.4,1148.8c-1-12.9-9.2-17.9-20.2-17.5-11.6.4-21.3,5-21.7,18.9-.4,14.3,9.1,18.9,21,18.6,12.3-.3,19.6-7.7,20.9-20ZM2255.4,915.9c-2.3-11.4-9.9-16.5-21.3-15.6-12.3,1-20.5,7.7-20.1,20.6.4,12.7,10.6,16.3,21,16.3s18.4-9.2,20.4-21.4ZM2536.8,1090.9c-12.7,3.2-19.5,11.7-19.9,24.6-.3,11.1,6.7,17,17.4,15.9,12.8-1.3,17.5-11.1,18.7-22.5,1.3-11.5-6.1-15.9-16.3-18ZM2074,1124.4c-1.3-10.8-8-15.5-17.3-14.1-11.7,1.7-24.7,5.9-25.2,19.6-.4,12.3,11.2,15.4,21.8,14.6,12.5-.8,19.4-8.1,20.6-20.1ZM1915.4,1165.6c-9.3.9-16.6,4.3-17,14.7-.4,10.6,6.5,14.5,16.1,14.5,10.2,0,18.8-3.7,18.5-15.4-.2-10.3-9.2-12.4-17.6-13.8ZM2503.9,855.4c-9.7.9-18,4.5-19.9,15-1.6,9.4,4.8,13.8,13.3,13.5,9.5-.4,18.4-4.1,20.3-14.6,1.8-9.9-6-12.2-13.8-13.9ZM2699.2,756.1c-7.2,2.8-16.2,5-15.1,15.9.8,8.3,7.7,10.4,14.8,9.8,9.3-.8,16.2-5.7,15.8-15.7-.4-8.7-8.2-9.1-15.6-10.1ZM2403.6,967.3c.3-9.3-4.6-12.8-12.3-12.8-10,0-15.4,6.2-16.5,15.2-1,7.1,1.8,14.3,10.2,13.8,10-.5,16.5-6.8,18.6-16.2ZM1878.9,990.1c-7,.6-13.8,3.7-14.6,12.3-.9,9.3,5.4,12.8,13.9,12.8,8.6,0,14.1-4.9,14.5-13.2.4-7.8-5.6-10.9-13.8-11.9ZM954.2,1728.5c5.9-2.7,13.1-6.1,11.6-15-1-6.1-6.8-8.8-13-8.5-7.4.4-12.6,4.4-12.5,12,.2,7.5,4.8,11.6,13.9,11.5ZM1422,1258.9c.1-6.9-4.1-9.1-9.6-9-9.4.2-15.9,5.1-17.1,14.4-.9,6.6,3.9,11.6,10.4,10.8,9.2-1,13.6-8.4,16.2-16.2ZM2739.6,663.6c1.8-6.8-1.7-9-6-9.5-8-1-15.2,1.3-17.8,9.5-1.7,5.4,1.8,9.8,7.4,10.4,8.6.8,13.5-4.4,16.3-10.4ZM1042.5,1707.1c-1.1-6.3-5.8-7.4-10.9-6.9-7.3.7-12.5,4.5-12.2,12.3.2,6.3,5.7,7.3,10.8,6.8,7.2-.6,11.9-4.4,12.4-12.2ZM2627.2,1136.3c-5.6,2-12.2,5.7-12.3,14.5,0,4.3,3.6,7.8,8.3,7.1,8.2-1.3,13.5-6.7,14.2-14.8.5-4.6-3.6-6.9-10.2-6.8ZM2311.3,936c-1.2-6.3-6-7.5-11.2-7.1-7.8.6-12.1,5.1-11.7,13.1.4,5.9,3.8,9.4,9.9,7.7,6.8-1.8,11.2-6.7,13-13.7ZM1255,1350.9c-6.3,2.1-12.1,5.4-11.2,13.6.6,5.6,4.8,8.9,10.4,8.1,6.7-.9,9.5-5.9,9.8-12.3,0-5.7-2.1-9.6-9-9.4ZM2917,174.8c-.9-5.4-4.3-8.8-9.7-9.2-7.7-.6-12.7,3.4-13.1,11-.4,7.1,4.6,6.6,10,5.9,5.7-.6,11.7.3,12.8-7.6ZM1397.5,1433.1c-.9-7.1-6.7-9.3-12.1-10.7-5.4-1.4-10.1,1.4-10.4,7.3-.2,7.2,5.8,9.5,11.6,10.4,5.3.8,9.9-.5,10.8-7ZM2880,233.2c1.4,8.6,2.8,15.7,12.3,15.4,3.9-.1,5.8-3.6,5-6.8-2.2-9.2-9.9-7.4-17.3-8.7Z"/>
  <path class="st4" d="M2847.4,544.8c-11.2-2.4-18.8-8.8-7.7-18,27.6-22.7,8.4-47.3,2.3-69.3-4-14.4-10.9-22.8,5-34.8,22-16.7,6-38.4.3-56.4-9.8-31-11.5-30.2,18.5-36.9,10-2.2,20.5-4.8,12.8-19.6-2.1-4.1-8.6-11.1,1.4-13.6,6.4-1.6,8,4.3,8.2,9.6.8,17.9,11.1,14.9,22.3,10.3,6.1-2.5,12.2-5.1,18.5-7.1q38.9-12.6,64.3,17.9c3,3.6,7.9,5.8,11.9,8.6,0,7.5-1.8,15.4.1,22.3,20.2,72.8,67.8,117.6,140.5,136.8,110.7,29.2,192.6-45.8,171.5-157.6-18-95.5-95.5-147.8-188.2-127.9-23.3,5-43.3,16.3-64.2,26.2l-6.6,5,.2-.2c-1.8,1.6-3.6,3.2-5.4,4.8h0c-23-7.5-42.8-21.1-62.4-34.7-6-4.1-10-11.9-18.7-9-8.6,2.9-8.9,10.9-8.8,18.6-5.4,5.1-10.8,10.1-16.1,15.1-2.4-.6-4.8-1.5-7.3-1.6-14.6-.9-31.8.1-35.2-18.4-3.7-20.7,15.7-28.8,29.2-31.2,46.2-8.1,68.9-43.1,93.7-75.9,12.5-16.5,27.7-27.8,46.2-36,8.5-3.8,20.3-5.8,18.9-19.7,160.2-38.1,321.7-57.9,486.2-33.2,11.1,1.8,21.1.9,31.6-2.8,12.3-4.4,23.8-12.3,37.7-11.2,4.8,6.2,12,5.8,18.3,4.8,29.5-4.6,48.9,12.1,65.5,32.2,12.6,15.1,22.5,32.4,34,48.5,21.4,30,32.8,66.2,57.4,94.4,16.4,37.1,35.1,72.9,57.6,106.6,11,16.5,17.2,33.8,11.4,53.8-9.8.7-15,7.1-19.2,14.9h.1c-36.7,15.1-73.4,30.1-111,43.3-154.5,54.7-312.7,91.2-476.5,101.5-106.2,6.6-208.3,29.8-302.4,80.5-44.5,24-85.4,53.5-114.1,96.7.9.4,1.4,1.1,1.1,2.1-27-17.2-1.9-27.3,7.2-34.4,18.1-14.1,34.5-28.2,41.2-51,1-3.2,4.3-7.5,3.3-9.1-15.8-23.1-30.2-47.5-49.1-67.8-7.3-7.8-16,2.4-13.6,14.3l-.4-.5c-4.5-.6-8.5,0-10.7,4.8,0,1.5-.3,3-1,4.4ZM3612.6,334.5c-4.1-8.4-13.2-15.9-20.7-13.1-16.2,5.9-5.2,26.6-15.9,37.6-2.7,2.8,4.6,6.1,8.5,5.3,15.7-3.1,22.4-15.1,28.1-29.9ZM3453.2,361.1c-8.5,2.3-10.1,8.4-9.4,15.3,1,10.2,7.5,13.9,17,13,6.4-.7,12.3-4.4,10.5-10.7-2.4-8.6-9-15.1-18.1-17.6ZM2947.4,367.2c3.6-3.5,10-6.6,10.1-14.3,0-6.6-4.7-8.1-10.1-7.6-9.4.9-8.9,8.1-8.7,14.7.2,4.2,1.4,8.2,8.8,7.2ZM2918.2,522.9c-.6-4.4-2-10.4-8.9-11.1-7.2-.8-10.2,4.7-10.1,10.9.1,6.3,3.9,10.6,10.6,11.1,6.5.4,8.1-4,8.4-10.9ZM2935.7,414.1c7.3-.9,7.8-6.7,7.5-12.6-.2-4.8-.3-11.1-7.7-9-5.6,1.6-10.2,6-10.2,12.4,0,5.8,4.3,8.4,10.4,9.2Z"/>
  <path class="st5" d="M846.3,1754c3.4,2.3,7.5,3.9,10.2,6.9,23.5,25.3,21.8,31.5-11.1,42.6-8.4,2.9-17.7,3.9-29.6,15.2,28.6-1.1,51.7,8.7,74.6-7.9,18.3-13.2,39.3-7.6,48.3,11.4,4.2,9,8.7,8.8,14.6,2,3.8-4.4,7.6-8.8,11.3-13.2,38.9-46.5,92.1-77,133.9-120.4,9.4-9.8,22.9-13.8,34.8-.9-1.7,8.5-15.3,11-11.8,22.9,43.8-2.4,77.4-28.1,113.5-47.6,11.5-6.2,20.3-7,28.6,3,7.1,8.7,12.6,17.2,1.4,28-12.7,12.2-11.8,26.6-8.1,43.7,10.6,48.3,17.8,97.4,27.8,145.8,3.7,17.9-4.5,22.6-18.9,24.1-7.4.7-15,.1-22.5.2,7.8-6.2,15.4-12.4,23.2-18.4,7-5.4,7.2-9.1-.2-15.2-28.1-22.7-50.9-23.7-79.3-2-126.6,97-258.4,183.7-420.5,209.6-109.2,13.8-217.8,12.7-324.1-19.3-203.8-61.4-348.9-185.8-415.5-392.2-19.5-60.5-25.8-123.6-25-187.2,20.4.5,40.9,8,61.3-.4,4.1,15.6,13,25.3,30.3,25,5.6.4,13.4-.7,13.8,7.1,1,20.3,10.8,37.9,16.6,56.6,17.5,57.1,48.6,101.6,108,123.3,12.9,4.7,29.2,6.8,39.1,19.5,6.5,8.4,7.8,27.3,26,11.6,3.3-2.9,6.6,4.1,5,8.1-5,12.9,2.6,14.1,12.2,13.8,8-.2,15.2,1.6,18.7,9.6,5.9,13.7,18.5,16.1,30.7,17.9,54.1,7.8,107,20.7,159.5,35.9,13.4,3.9,31.6,9,43.1-8.2,4.1,2.5,8,5.5,12.4,7.4,6.8,2.7,14.9,5.4,19.1-3,3.7-7.3-3.2-11.7-8.3-15.4-3.2-2.2-7.3-3.1-11-4.7-1-14.9,15.2-26,9.4-42.1,5.1,0,10.2-.1,15.2-.2.8,19.6,0,38.8,17.1,54.3,28.4,26,60,12.1,86.2,2.7,34.4-12.3,70.6-21.6,103.1-39.5,15.2,7,27.5,3.5,36.9-10.3ZM619,1820.5c-12.6,2.3-28.6,5.8-27.7,23.2.8,16.4,15.8,21.5,30.9,21.6,13.9.2,28.9-2,29.2-19,.3-18.2-15-23.4-32.5-25.9ZM1192.7,1776.8c1.8-17.7-4.9-26.2-17.4-26.3-15.6,0-24.2,10.6-25,25.6-.7,12.9,5,23.2,19.9,23.2s20.7-13.4,22.5-22.5ZM128.5,1736.7c9.9,1.1,18.9-2,19.8-14.9,1-15.9-8.6-24.8-23.4-27-11.6-1.7-22.9,1.6-23.2,15.8-.3,15.8,10.8,23,26.8,26.1ZM873.2,1856.9c0-12.6-8.4-12.3-17-12.4-11.3,0-19.9,3.9-20,16.2-.1,11.8,8.6,14.2,18.6,14.4,12.8.2,16.5-8.2,18.4-18.1ZM747.6,1987.9c-1.1-7.6-6.4-11.8-14.6-12.5-8.5-.6-14.6,3-15.7,11.9-1.1,9.8,5.2,12.9,13.6,13.1,8.2.2,14.5-2.4,16.6-12.5ZM403.5,1954.2c-2.5-7.3-8.8-10.1-16.7-10-7,0-13.9,1.5-13,10.5.8,8.2,7.8,9.8,14.6,9.9,6.7.1,13.4-.5,15.1-10.5ZM306.5,1766.2c-.6-1.4-.8-3.5-1.8-4-1-.4-2.8.9-4.1,1.4.5,1.4.8,3.6,1.8,4,.9.5,2.7-.9,4.1-1.4Z"/>
  <path class="st8" d="M587.9,1747c5.8,16-10.4,27.1-9.4,42.1-8.4,1.9-14.6,5.4-12.2,15.7-11.5,17.2-29.6,12.1-43.1,8.2-52.5-15.1-105.4-28.1-159.5-35.9-12.2-1.8-24.8-4.2-30.7-17.9-3.5-8-10.7-9.8-18.7-9.6-9.6.3-17.1-.9-12.2-13.8,1.5-4.1-1.7-11-5-8.1-18.2,15.6-19.5-3.2-26-11.6-9.8-12.6-26.2-14.8-39.1-19.5-59.4-21.6-90.5-66.2-108-123.3-5.8-18.8-15.6-36.3-16.6-56.6-.4-7.7-8.2-6.6-13.8-7.1-.1-8.3-.2-16.5-.4-24.8-.4-7.3,6.2-13.5,2-21.6-14.5-27.2-4.8-55.1.6-81.8,4.3-21-2.7-25.1-19.6-19.9-15.3,4.8-22.4.8-22.9-15-.2-5.2-1.5-9.8-6.4-12.6,6.8-10.6,9.1-22.1,6.6-34.5-2.9-18.4-7.6-35.4-29.5-39.6,35.1-166,113.1-308.5,236.7-425,184.8-174,406.1-251.3,658.1-245.4,28.3.6,56.3,5.9,83.1,15.7,5.4,1.9,11.8,4,12.4,10.9.8,8.4-6.3,10.9-12.4,13.3-21.3,8.4-44.1,8.2-66.3,10.5-310.6,32.9-626,254.6-723.8,603.4-28.5,101.5-24.4,202.2,23.6,297,64.4,127.1,171.2,193.3,312.6,204.8,13.3,1,26.6,1.4,39.8,2.1ZM403.6,773.4c.5-7.1-3.3-10.8-10-11.6-10.5-1.3-33.4,19.1-33.5,29.7,0,6.8,3.2,11.1,10.1,12.1,10.1,1.4,32.8-19.1,33.4-30.1ZM817.2,600.5c-14.1.9-27.8,4.1-40.8,9.5-3.8,1.5-7.6,4.3-6.3,9.2,1.4,5.4,6.4,4.8,10.2,4.1,13-2.3,25.9-5.2,38.8-8,5.4-1.2,14-.2,13.8-7.5-.3-9.3-9.6-6.2-15.7-7.3Z"/>
  <path class="st0" d="M1243.4,1909.8c7.5,0,15.1.5,22.5-.2,14.3-1.4,22.6-6.1,18.9-24-10-48.5-17.2-97.5-27.9-145.8-3.8-17-4.6-31.5,8.1-43.7,11.2-10.8,5.7-19.4-1.4-28-8.2-10-17.1-9.2-28.6-3-36.1,19.5-69.7,45.3-113.5,47.6-3.5-11.8,10.1-14.3,11.8-22.9,34.9,6,57.7-18.5,81.5-36,12.4-9.1,27.1-10.7,38.3-19.7,18-14.5,17.4-34.7,14-54.7-1.4-8-4-17.2,5.8-18,27.6-2.4,46.9-19.1,67.6-34.4,3-2.1,8-1.5,12-2.1,2.1,3,4.1,6.1,6.2,9.2-1,19.6,9.8,26.2,27.8,26,9.4-.1,20.9-3.2,25.6,9.3,4.4,11.6-4.3,18.1-10.9,25.5-9.9,11-12.9,24.5-12.6,39,.2,5.2,1.4,10.2,8.1,9.9,5.4-.2,6-4.7,6.8-8.8,3.4,0,6.7,0,10,0,.5,7.2,3.1,13,11.1,14.1,7.6,1,10.1-5.2,11.8-10.4,4.9-13.8,19-23.7,13.6-42.3-2.7-9.5,6.5-18,19-16.3,0,8.4-3.9,18.9,10.4,19.6,5.6.2,13,.9,12.8-6.9-.3-11.1-9.5-13.7-18.8-15-2.9-4.1-7.4-10.1-3.7-13.4,12.7-10.6,11.6-26,16.7-39.3,7-18.4,14.3-32.6-15.3-36.7-14.1-2-7.9-18.2-6.6-27.8,1.3-9.7,7.4-6.7,16.1-4.8,13.9,3,28.1,5.5,42.2,8.4,14.8,3,25.8-27.5,17.4-49.5-3.9-10.2-9.1-19.7-5.4-31,29.3,11,45.1,4.7,59.7-23.7,15.7.3,16.7,8.5,9.1,19.1-4.9,7-7.9,13.3-1,19.5,6.3,5.7,15.6,9.8,22.8,4,10.1-8,25.7-18.7,25.6-28.2-.2-36.3,31.3-45.6,51.5-57,39.5-22.3,82-41,127.3-50.8,5.2-1.1,9.8-1.5,13.2,3.4-13.1,22.6-42.5,18.8-58.4,35-22.1,22.6-49.7,29.5-78.5,35.3-9.3,1.9-20.5,7.4-21.2,15.1-2.2,24.9-22.9,33.8-37.6,46.9-15.1,13.4-24.1,28.9-29.2,47.6-4.8,2-8.2,5.2-9.9,10.2-30.4,30.4-30.6,63.2-8.4,98.2,2.1,3.3,2.3,7.8,3.4,11.7-6.8,0-8.9-6-13.2-9.6-12.4-10.3-20.6,3.8-30.5,6.8-4.7,1.4-10.3,3.2-8.8,11.9,3.4,20.2,5.1,40.8,7.5,61.2-14.5-3.5-25.6.9-28,16.1-2.6,16.4,6.8,24.6,23,24.9,2,13.1-3.8,22.9-14.1,29.6-23.2,15.1-41.8,32.8-41.1,63.3,0,4.4-3,6.9-5.7,10.2-13.5,16.2-30.2,32.3-39.1,49.3-21.6,41.3-63,76.5-51.2,131.2.6,2.6-1.8,6.4-3.6,9.1-5.3,8-4,15.6.6,23.2,7.9,13,3.4,25-5.6,34.1-30.4,30.8-48.9,71.9-85.4,97.3-6.1,4.2-6.8,12.1-5.6,19.5,15.3-1.9,30.7-10.6,40.9,7.5-43.5,31.3-86.9,62.6-130.4,93.9-16.1-15.9-3.9-28,6-39.5,5.2-6.1,15.5-9.8,13-19.2-4.9-18.2-11.8-35.9-20.5-61.6-3.8,24.6-5.2,44.4-30.3,30.1,2.5-7.6,4.2-15.1-5.5-18.7-5-1.8-9.8,0-13.6,3.9-7.2,7.4-2,13.7,2.1,19.9-16.6,9.4-27,4-31-14-3.1-13.6-11.8-9.9-14.5-2.7-10.3,27.4-38.6,37.8-53.6,61.1-28.3,44-71.1,70.2-119.8,87.6-9.6,3.4-15,4.3-17.7-8.1-4.1-18.8-14-12.6-22.2-2.9-24.2,28.6-23.2,61.1-18.4,96.3,3,22.1,19.1,21.2,31.1,28.7,2.1,1.3,3.8,3.2,5.6,4.8-25.8,25.5-53.9,48.2-84.6,67.7-5.9-13.5,11.1-29.1-.2-39.5-10.6-9.8-26.2,6.2-39.8.1,20.4-41.8,43.4-82.5,60.6-125.6,25.9-64.6,68.7-113,127.7-148.2,22.2-3.7,60.7-41.6,65.8-64.6,3-3.5,6-7,9.1-10.5,8.2,0,10.9-4.6,10-12.2,9.9-15.8,21.9-29.9,35.3-42.6,9.3,0,16.4.6,12,13.9-3.2,9.7,3.6,18.2,13.1,14.8,19.3-7,40.8-6.5,58.7-17.7,5-3.2,9.3-6.2,11.2-12.3,10.6-33.9,4.8-51.1-25.4-73.9,19.2-21.9,42-39.2,66.3-54.5ZM1309,1670.2c-3.8.4-8.8-.2-8,5.5.2,1.7,4.9,2.7,7.6,4,13.4,29.1,20.1,29.9,39.3,5,11.4-.6,16.8-7,14.9-17.9-1.6-8.8-4.6-18.2-14.8-21-8.9-2.6-14.3,1.3-15.1,10.8-2.6-.3-5.2-.6-7.9-.9-19.3-10.5-16.5,3.4-16.2,14.6h.2ZM1473.5,1738c0-11.2-6.9-14.4-16.2-13.6-11.8,1-17.4,8.7-17.4,19.8,0,10.7,7.9,14,16.7,13.4,11.5-.9,17.2-8.1,16.9-19.5ZM1381.1,2011.9c-.9-5.3-2.2-11.2-9.8-11.2-9.5,0-13.1,6.4-12.6,14.9.3,5.3-.5,12.8,8.4,12.3,9.1-.6,12-7.5,13.9-15.9ZM1387.8,1932.3c-.4-5.5-3.2-10.1-9.6-11.4-5.9-1.1-9.2,2.1-9.3,8-.2,7,1.4,13.5,9.9,13.8,5.5.3,8-4.3,9.1-10.4ZM1286.3,2044.5c4.1-1.4,10.7-2.4,9.8-10-.7-5.4-6.6-7.4-11.1-8-6.8-.8-10.6,4-10.6,10.5s5.1,7.4,11.9,7.5ZM1174.2,2117.1c.5,8,5.2,11.8,12.8,12.4,4.2.3,9.6,0,9.2-5.5-.6-7.1-6.2-11.4-13.1-13.1-4.8-1.2-7.9,1.2-8.9,6.2ZM1258.8,2041c-2.2-1.7-3.8-2.9-5.4-4.1-1.1,1.6-3.3,3.5-2.9,4.8.5,1.8,2.9,3.1,4.4,4.6,1.1-1.6,2.3-3.1,3.9-5.3ZM1301.5,2102.1c-5.4-1.8-7.4-2.7-9.6-3.1-2.4-.4-7.8-3.1-5.4,2.6,1.9,4.6,7.7,3.8,15,.5Z"/>
  <path class="st3" d="M2634.1,1526.4c-11.7-33.9-7.8-67.2,3.5-100.3,29.2-85.2,69.1-166,105.6-248.2,43.6-98.1,86-196.9,125.5-296.8,1.5-3.8,3.9-7.3,5.9-10.9,6.7,4.7,13.7,8.5,21.7,11.3,49.8,17.1,102.1,22.5,153.5,21.8,58-.7,116.9-5.4,173.2-23.6-6.7,35.7-21.2,68.8-34.2,102.4-3.3,8.4-7.5,16.4-6.1,25.9-35.2,60.4-70.3,120.8-105.5,181.2-26.6,21.7-45.5,50.4-68.6,75.2-106,114.4-232.5,199.1-374.6,261.8Z"/>
  <path class="st1" d="M2403.6,1609.9c-160,53.2-324.4,87.6-490.5,114.2-86.4,13.8-171.4,33.2-254.8,59.7-1-12.4-1.9-24.8-2.9-37.2-4.3-54.2-23.1-105.1-37.1-157,11.9-3.7,23.8-7.5,35.6-11,94.9-28,193.2-41.5,288.5-68,183.2-50.9,354.6-123.6,491.6-261.3,1.2,14.6-4.4,27.7-9.3,40.9-38.7,104.5-63.2,209.9-21.2,319.7Z"/>
  <path class="st6" d="M3077.2,1189.3c35.2-60.4,70.3-120.8,105.5-181.2,16.1,16.8,31.4,34.6,48.5,50.2,69,63,134.2,129.4,188.8,205.7,24.9,34.8,56.2,51.6,100.4,45.9,76.5-9.8,155.1,3.5,230.7-19.2,9.8-2.9,22.9-3.8,28.4,8.8,5.4,12.3-1.3,22.6-9.8,31.3-12,12.4-27.7,18.3-43.6,23.3-19.8,6.2-40.2,10.6-59.9,17.3-8.6,2.9-23.4,3.6-22.4,15.5.8,9.8,14.7,8.7,23.2,10.3,26.1,4.9,52.7,7.9,78.8,13.2,34.2,7,68.6,14.2,99.3,32,17.9,10.3,35.6,23.2,26.5,47.2-8.8,23.1-30.2,23.3-50.9,20.4-16.7-2.3-31.7-10-46.7-17-55.7-26-115.5-36.8-175.3-47.5-11.6-2-28.6-8.2-34.9,2.2-6.7,10.9,7.3,22.3,14.8,31.5,30.9,38.2,62.7,75.6,93.8,113.6,14.8,18,28.5,37.1,36.4,59.3,5.3,14.9,12,31.9-3.5,43.7-14.3,10.9-30.2,4.1-44.5-4-19.5-11.2-32.3-28.3-43.2-47.4-20.6-36.2-42.7-71.5-71.4-102.1-10.2-10.9-20.8-21.7-32.3-31.2-43.8-36.4-65.5-29-79.1,26.8-5,21-7.2,42.6-11.4,63.8-2.3,11.3-5.2,22.7-9.3,33.5-4.7,12.5-13.2,22.3-28.1,19.8-16.7-2.9-16.4-17.4-15.6-29.6,2.1-34.9,8.6-69.5,3.5-104.6-1.6-10.7-3.3-21.4-4.4-32.1-5.2-53-33.6-87.7-81.3-110.7-88.1-42.4-158.3-106.2-211.1-188.9ZM3323.5,1232.3c-12.6,2.5-21.2,9-21.1,23.1.1,12.9,7,20.7,20.1,19.9,13.3-.8,21-9,21.5-22.7.5-13.8-8-18.9-20.5-20.4ZM3260.6,1167.2c1.6,8.6,5.2,17,15.2,16.4,10.4-.7,16.1-8.5,14.9-19.1-1-9-6.2-16.5-15.5-16.8-12.2-.4-13,10.3-14.6,19.6ZM3221.4,1117.8c1.2-6.1-2.2-8.1-6.6-8.5-7.7-.6-15.2,0-16.6,9.8-.7,4.5,1.6,8.4,6.2,8.9,8.3,1,13.6-3.8,17-10.3Z"/>
  <path class="st8" d="M924.1,2415.1c-1.9-1.6-3.6-3.5-5.7-4.8-11.9-7.6-28-6.6-31-28.7-4.8-35.2-5.9-67.8,18.4-96.3,8.1-9.6,18.1-15.9,22.2,3,2.7,12.4,8.1,11.5,17.7,8.1,48.8-17.4,91.5-43.6,119.8-87.6,15-23.3,43.4-33.8,53.7-61.1,2.7-7.1,11.4-10.9,14.5,2.7,4,17.9,14.4,23.3,31,14,6.4.8,11.7-2,16.9-5.1,25.1,14.3,26.5-5.4,30.3-30.1,8.7,25.8,15.6,43.4,20.4,61.6,2.5,9.4-7.8,13.1-13,19.3-9.9,11.5-22.1,23.7-6,39.5-11.3,12.8-6.9,17.2,8.5,20.4,80.3,16.6,157.6,42.1,229.7,81.8,24.8,13.7,48.4,29.6,67.7,50.7,9.1,9.9,17.2,20.5,20,34,2.3,11.1,1.2,21.8-7.8,30-8.8,8-19.1,6.2-28.2,1.7-26-13-52-26.3-77.4-40.4-44.6-24.6-90.6-46-139.7-59.9-10.9-3.1-23.9-8.9-32.5,2.3-8.9,11.5.6,22.7,7.1,31.6,31.8,43.8,64.6,86.8,96.7,130.4,13.4,18.1,25.6,37.1,33.2,58.5,6.4,18.2,9,36.8-9.5,49.6-18.7,13-36.9,6.4-52.8-6.5-15.9-12.8-24.9-31.1-35.4-48-32.5-52.4-65.5-104.5-107.6-150-11.4-12.4-23.1-30.3-43.2-23.6-19.7,6.5-19.9,27.8-22.1,44.5-7.2,54.5-10.4,109.5-21.4,163.4-3,14.6-7.1,29.2-12.2,43.1-3.6,9.5-10.4,17.3-22.2,17.1-11.4-.2-18.6-7.3-23.4-16.4-10.4-19.8-11.1-41.7-11-63.4.4-35.8,2.2-71.6,2.4-107.4.1-25.1-2.1-50.1-11.7-73.6-14-34.3-35.2-41.6-67.2-23.4-10,5.6-19.4,12.6-29,19Z"/>
  <path class="st14" d="M2403.6,1609.9c-42.1-109.8-17.6-215.2,21.2-319.8,4.9-13.2,10.5-26.2,9.3-40.8.9-5.2,4.9-7.6,9.2-9.6-8,29.2,1.9,49.1,30.2,60.4,12,4.8,9.7,15.9,9.5,25.7-30.5,0-41.5,14.1-40,50.9.5,12,1.7,24.7,16.1,27.1,14.3,2.3,11.8-13.1,17.4-20.1,7.3,3.2,15.8,9.1,20.1-2.7,3.4-9.3,4.8-19.9-10.1-21.8,1.5-6.5,2.9-13,4.3-19.5,7.8-4,15.7-8,24.9-12.6,4.6,29.5,16.8,57.2,12.6,87.6-6,9.2-5.1,19.6-4.9,29.9,0,4-.8,7.8-4.5,10.1-7.6-4.9-15.1-8-20.5,2.7-2.3,4.7-3.7,9.8,2.9,12.3,9.6,3.5,16.1,0,18.9-9.9,14.4,3.7,30.5,14.1,35.5-12.3,1.6-8.4,11.2-9.1,18.9-6.2,7.2,2.7,8.9,8.5,7.3,16.2-5.1,25.1,10.7,51.9-6.4,76.4-2.9,4.1,3.3,8.7,6.9,12,20.1,18.1,21,39.9,10,62.4-5.9,12.1-2.7,24.3-4,36.4-13.4-1.3-27.3,1.3-28,16.4-.7,14.9,10.5,26.2,25.8,28.4,18.5,2.7,17.5-12.7,19.3-24.6,4.4,1,8.9,3.5,8.8,7.6-.3,17.5,14.9,31.6,6,52.2-8.4,19.2,17.6,47.7,39.6,52.9,12.6,2.9,17.3,16.3,8.7,25.9-10.2,11.6-6,17.7,1.8,27,8.4,10,14.8,21.8,22.2,32.7,30.3,44.6,25.1,86.6-9.2,126.6-6.9-8.8-8.8-24.3-23.1-23.3-15.2,1.1-21.6,15-25.8,27.5-18.6,55.4-46.8,104.6-89.6,145-10.9,10.3-21.6,21-35.5,27.2-16.6,7.5-26.4.6-24.3-17.6,2.6-21.6,11-41.8,20.5-61.2,27.1-55.4,49.5-112.3,65.3-172.3,11.8-44.9,3-81.6-26.8-115.5-25.8-29.4-51-59.3-76.5-89-26.2-30.4-46.8-64.5-64.2-100.6ZM2442.8,1480.3c.4,19.7,17.6,36.2,34.1,35.1,15.7-1,17.9-12.1,17.7-24.5-.3-19.5-10.3-31.5-29.9-32.3-15.1-.5-21.4,10-21.9,21.6ZM2523.3,1561.7c0-11.8-7.1-16.7-19-16.8-9.3-.1-17.6,1.6-17,12.9.7,13.5,8.7,21.8,22.3,22,10.7.2,13.5-8,13.8-18.1ZM2569.8,1611.5c-2.4-1.3-4.2-2.9-6.2-3.4-3-.7-4.6,1.2-2.9,3.7,1.1,1.5,3.9,2,5.9,2.3.8.1,1.8-1.4,3.2-2.6Z"/>
  <path class="st1" d="M3222.9,879.7c-56.3,18.2-115.2,22.8-173.2,23.5-51.3.7-103.6-4.7-153.4-21.7-8-2.7-15-6.5-21.7-11.3,14.2-44.3,41.7-80.8,70-116.5,10.2-12.9,8.7-16.7-5.6-24.4-24-12.9-53.2-18.9-68.3-45.4.2-1-.2-1.7-1.1-2.1,4.6-.8,9.3-1.7,13.9-2.5,38.9-4,78-6.5,117.1-5.5,71.7,1.7,143.1-1.1,214.4-9.1,156.1-17.4,309.3-46.5,456.5-103.3,23.8-9.2,45.4-23.8,71.1-27.9-4.3,14.2-18.1,18.4-28.5,25.6-100.6,70.3-212.1,118.5-329.4,151.3-81,22.6-127.7,72.7-152.7,148.9-2.3,7.1-6,13.6-9.1,20.4Z"/>
  <path class="st0" d="M3742.5,533.6c-25.7,4.1-47.3,18.8-71.1,27.9-147.2,56.7-300.5,85.9-456.5,103.3-71.4,7.9-142.8,10.8-214.5,9.1-39.2-.9-78.2,1.5-117.1,5.6,11.4-17.3,28.6-27.3,45.8-37.5,42.5-25.1,89-39.9,135.5-55.4,89.5-29.8,182.3-41.1,275.1-51.2,61.7-6.8,123.3-13.9,183.6-28.4,97-23.4,191.4-55.4,282.2-96.8,25.4-11.6,53.9-22,67.7-50.5h-.1c5.3.1,10.6.2,15.9.2-14.5,69.6-60,115.8-116,154.1-4.8,3.2-9.8,6.2-14.7,9.2-4.5.5-9.1.9-10.4,6.6l.3-.2c-3.6-.5-6.4,0-5.8,4.6v-.6Z"/>
  <path class="st8" d="M1618.3,1589.6c14,52,32.8,102.8,37.1,157,1,12.4,1.9,24.8,2.9,37.2-6.8,21.2-12.7,42.6-20.5,63.4-34.5,91.1-95.9,162.1-170.1,222.7-34.6,28.2-72.1,53.1-108.2,79.5-4.8,3.5-9.6,6.5-15.8,6.1-10.2-18-25.6-9.4-40.9-7.5-1.3-7.4-.6-15.2,5.5-19.5,36.5-25.5,55-66.5,85.4-97.3,9.1-9.1,13.5-21.2,5.7-34.1-4.6-7.6-6-15.2-.7-23.2,1.8-2.7,4.2-6.4,3.6-9.1-11.8-54.8,29.6-89.9,51.2-131.2,8.8-17,25.5-33,39.1-49.2,2.7-3.3,5.8-5.8,5.6-10.1-.8-30.5,17.9-48.2,41.1-63.3,10.4-6.7,16.2-16.6,14.1-29.6,17.5-11.8,18.2-25.5,4.9-41-2.4-20.4-4.1-40.9-7.5-61.2-1.5-8.7,4.1-10.5,8.8-12,10-3,18.2-17,30.5-6.8,4.2,3.5,6.3,9.6,13.2,9.5,2.7,8.2,9,13.8,14.9,19.7ZM1549.3,1752.3c-10.9.8-19,6.8-20.1,17.7-1.5,15.8,10.9,21.4,23.4,23.5,11.3,2,15.7-6.2,16.4-16.8.9-14-6.3-21.4-19.7-24.5ZM1460.6,1899.1c6.5-.8,11-4,11.8-10.6.6-5.1-3-7.6-7.4-8-6.9-.6-11,2.9-11.3,10.1-.2,4.7,2.1,7.8,7,8.6Z"/>
  <path class="st9" d="M2003.5,869.4c-28,22.5-63.6,27-95.7,39.1-138.7,52.2-268.7,121.1-396,195.8-7.9,4.6-14.9,10.6-24.8,10.1,113-206.6,299.4-288.9,516.6-245Z"/>
  <path class="st1" d="M1243.4,1909.8c-24.3,15.4-47.1,32.6-66,54.6-24.8,16.8-41.4,42.3-63.9,61.4-79.2,17.5-157.3,40.3-238.1,50.6-36.2,4.6-72.4,8-108.9,7.5,162.1-26,293.9-112.6,420.5-209.6,28.4-21.8,51.1-20.7,79.4,2,7.4,5.9,7.2,9.8.2,15.1-7.8,6-15.4,12.3-23.2,18.4Z"/>
  <path class="st14" d="M46.9,1334c5,2.8,6.2,7.3,6.4,12.6.6,15.8,7.6,19.7,22.9,15,16.9-5.2,23.9-1,19.7,19.9-5.5,26.8-15.2,54.6-.7,81.8,4.3,8-2.3,14.3-2,21.6-9.9-4-19.8-22.8-29.9-.2-20.4,8.4-40.9.9-61.4.4-4.7-53.9-.4-107.2,9.5-160.2,17.1-4.1,17.1-11,3.2-20.1,3.1-15,6.2-29.9,9.4-44.9,22,4.2,26.6,21.2,29.5,39.6-18.5,8.4-21.5,19.8-6.5,34.5Z"/>
  <path class="st9" d="M3823.6,184.5c-24.5-28.1-35.9-64.3-57.4-94.4-11.5-16.1-21.5-33.4-34.1-48.5-16.7-20.1-36-36.8-65.5-32.2-6.3,1-13.4,1.5-18.3-4.8,43.9-11.8,82.8-1.1,114.8,29.8,42.1,40.6,62.5,91.1,60.5,150.1Z"/>
  <path class="st8" d="M1113.5,2025.8c22.6-19.1,39.1-44.6,63.9-61.4,30.2,22.8,36,40.1,25.4,73.9-1.9,6.2-6.2,9.1-11.2,12.3-17.9,11.3-39.4,10.7-58.7,17.7-9.5,3.5-16.3-5.1-13.1-14.8,4.4-13.2-2.7-13.9-12-14,1.9-4.6,3.7-9.2,5.6-13.8Z"/>
  <path class="st8" d="M799.5,2443.4c13.6,6,29.2-10,39.9-.1,11.2,10.3-5.8,26,.2,39.5-11.1,10.1-23.2,18.7-37.9,22.3-8.1,2-16.5,2.4-22.9-4.8-6.8-7.7-3.6-15.5.6-22.9,6.5-11.5,13.4-22.6,20.2-33.9Z"/>
  <path class="st8" d="M1053.5,2105c-5.1,23-43.6,60.9-65.8,64.6,21.9-21.5,43.8-43,65.8-64.6Z"/>
  <path class="st8" d="M14.6,1304.8c13.8,9.1,13.9,16-3.2,20.2,1.1-6.8,2.1-13.5,3.2-20.2Z"/>
  <path class="st10" d="M3889.1,359.9c-5.3,0-10.5-.1-15.8-.1,4.2-7.8,9.5-14.2,19.2-14.9.7,5.4.2,10.5-3.4,15Z"/>
  <path class="st4" d="M2723.6,329.8c8.6,8.2.4,11-4.8,14.9-.8-5.7,1.3-10.5,4.8-14.9Z"/>
  <path class="st4" d="M2877.9,133.6c.5,10.9-6.7,11.4-14.7,11.1,4.9-3.8,9.7-7.4,14.7-11.1Z"/>
  <path class="st4" d="M2918.4,110.3c-1.4,10.8-9.2,9.3-16.5,8.9,4.1-5.6,9.8-8.2,16.5-8.9Z"/>
  <path class="st4" d="M2838.1,164.1c-.1,7.8-4.4,10.7-11.7,9.9,2.6-4.9,6.4-8.4,11.7-9.9Z"/>
  <path class="st4" d="M2717.9,349.6c7.8,6.2,3.8,8.6-3.2,10.2,1.1-3.4,2.2-6.8,3.2-10.2Z"/>
  <path class="st8" d="M1072.6,2082.3c.9,7.5-1.8,12.1-10,12.2,3.3-4.1,6.6-8.2,10-12.2Z"/>
  <path class="st4" d="M2863.3,144.7c-.5,8-5.5,10.2-12.7,9.3,3.1-4.6,7.2-7.9,12.7-9.3Z"/>
  <path class="st4" d="M2713.2,369.7c7.5,5.7,3.9,8.3-2.8,10.1.9-3.3,1.8-6.7,2.8-10.1Z"/>
  <path class="st4" d="M2777.5,226.9c1,7.2-1.1,12.2-9.4,12.8,1.2-5.6,4.6-9.7,9.4-12.8Z"/>
  <path class="st4" d="M2938.4,100.2c-1.4,7.3-3.6,12.1-10.5,3.5,2.2-5.1,6.3-4.4,10.5-3.5Z"/>
  <path class="st4" d="M2792.7,207.7c.8,7.2-1.9,11.6-9.6,12,1.4-5.4,4.9-9.2,9.6-12Z"/>
  <path class="st1" d="M3748.2,529.8c1.3-5.6,5.8-6.1,10.4-6.6-2.1,4.4-4.9,7.6-10.4,6.6Z"/>
  <path class="st1" d="M3742.7,534.2c-.5-4.6,2.3-5.1,5.8-4.6,0,3.8-2.1,5.3-5.8,4.6Z"/>
  <path class="st12" d="M1618.3,1589.6c-6-5.9-12.3-11.5-15-19.8-1.1-4-1.3-8.4-3.3-11.7-22.1-34.9-22-67.9,8.4-98.1,5.2-1.5,16.9,3.1,9.9-10.2,5.1-18.7,14.2-34.2,29.2-47.6,14.8-13.2,35.5-22,37.6-46.9.6-7.7,12-13.2,21.2-15.1,28.8-5.9,56.3-12.7,78.5-35.3,15.9-16.2,45.3-12.4,58.4-35h15c3.2,14.2,7.9,27.4,25,30,30.2-4.7,62.5-3.5,84.6-30.8,1.8-2.2,5.9-3.9,8.8-3.8,28.2,1.8,52.8-11.1,79-17.8,33.3-8.6,62.6-25.4,94-37.3,7.6-2.8,15.9-3.7,24-5.4-1.3,13.8,4.2,22.8,18.6,23.2,7.1.2,13-4.8,13-12.3,0-13.6-9.7-17.8-21.5-18.6,18.6-14.7,37.1-29.4,51.3-48.9,4.8-6.6,11-11.8,21.1-8.8,6.1,1.8,12.4.6,17.5-5.8,20.1-25.2,35.9-25.9,63.2-3.4,8.1,6.8,15.7,2.4,18.8-3.8,6.5-12.5-6.1-14.3-12.8-18.2,24.5-15.5,37.3-43.2,62.2-59.2,14.5-9.3,28.7-12.4,41.7-7,12,4.9,11.5,20.6,11.2,33.1-.8,48.7,5.1,97.9-13.9,145-2.4,5.8-.8,13.1-1.1,19.8-4.3,1.9-8.3,4.3-9.2,9.5-137,137.7-308.3,210.5-491.6,261.3-95.3,26.4-193.6,40-288.5,67.9-11.8,3.4-23.7,7.2-35.6,10.9ZM2213.4,1303.2c-2-10.3-7.7-18.8-19.7-17.2-14.8,2.1-23.7,12.5-24.4,27.3-.5,11,7.9,16.3,18.2,16.2,16.3-.2,23.1-10.8,25.8-26.3ZM1700.8,1441c-.7-10.4-7.7-16-17.7-15.2-12.4,1-23.7,5.2-24.9,21-1.1,13.4,6.9,17.7,17.7,17.9,14.8.2,21.8-9.3,24.9-23.6ZM1928.2,1386.1c-1.1-10.5-8.6-14.9-17.1-14.5-11.4.5-18.2,8.2-17.7,19.9.4,9.8,7,15.1,16.7,14.4,11.7-.9,17.2-8.5,18.2-19.8ZM1806,1357.3c-2.9-6-5.8-11.6-13.9-11.4-7.9.2-15.4,1.2-16.9,10.4-1.3,8,4,12.1,11.2,13,9.6,1.2,15.1-4.6,19.5-12Z"/>
  <path class="st13" d="M3065.1,235.3c20.9-9.9,41-21.2,64.2-26.2,92.7-19.9,170.3,32.4,188.2,127.9,21,111.8-60.8,186.9-171.5,157.6-72.7-19.2-120.4-63.9-140.5-136.8-1.9-6.9-.2-14.9-.1-22.3,12.2-13.5,10.4-32.4,18.6-47.7,8.3-15.6,18.8-29.2,29.5-43h0c1.8-1.6,3.6-3.2,5.4-4.8l-.2.2c2.2-1.6,4.4-3.3,6.6-4.9ZM3279.5,387.4c.7-68.1-49-134.8-103.8-152.7-29.6-9.6-55.5-3.8-78.5,17.2-40.5,36.9-46,103.6-12.6,153,32.3,47.8,96.8,68.1,144.8,44.3,30.1-15,49.1-39,50-61.8Z"/>
  <path class="st2" d="M2476.6,1383.8c-5.6,7-3.1,22.4-17.4,20.1-14.4-2.4-15.6-15.1-16.1-27.1-1.6-36.7,9.5-50.8,40-50.8,2.6,4.6,5.2,9.2,7.8,13.8-1.4,6.5-2.9,13-4.3,19.5-5.7,7.2-8.2,15.7-10,24.5Z"/>
  <path class="st2" d="M1594.7,1359.8c-14.6,28.5-30.4,34.7-59.7,23.7l-.6.4c-.9-4.7-1.8-9.4-2.7-14.1,10.1-15.1,23.7-24,42.2-24.8,10.8-.5,19.3,2.2,20.8,14.8Z"/>
  <path class="st4" d="M2783.3,379.9c1.9-17.2,17.1-19.7,28.9-22.9,8.1-2.2,19.6,3.5,19.8,14.2.2,13.1-6.7,25.1-20.5,27.6-10.7,1.9-23.1,5.2-33.2-3.8,1.7-5.1,3.3-10.1,4.9-15.1Z"/>
  <path class="st2" d="M1778.9,1080.1c-.7,13-5.5,24.3-21.1,24.3-13.9,0-20.3-9.4-20.1-22.8s4.3-25.7,19.6-26.5c15.3-.8,21,10.2,21.6,25Z"/>
  <path class="st2" d="M2605.5,1664.8c-1.9,11.8-.8,27.4-19.3,24.6-15.2-2.2-26.4-13.6-25.8-28.5.6-15,14.5-17.6,28-16.3,7.1,5.4,13.3,11.8,17.1,20.2Z"/>
  <path class="st7" d="M2745.6,844c-3.8,15.3-15.7,22.3-30.4,24.3-9.7,1.3-20-2.6-19-14.2,1.4-16.6,14.6-23.1,29.6-24.9,9.9-1.1,18.1,2.3,19.8,14.8Z"/>
  <path class="st2" d="M2198.6,1051.6c1-12.9,7.8-20.7,20.2-20.5,12.7,0,22.7,6.8,23.3,20.4.7,13.5-8.8,22.2-21.2,22.4-13.2.2-18.6-11.4-22.4-22.3Z"/>
  <path class="st7" d="M1628.5,1284.8c15.4-.7,24.3,3.5,24.2,17.4,0,13.1-8.4,19.5-20.4,19.9-12.6.5-23.7-4.9-24.5-18.7-.8-15.1,11.8-17.4,20.7-18.7Z"/>
  <path class="st7" d="M1241.7,1505.1c-5,13.6-14.6,20.7-28.8,18.8-10.6-1.4-20.4-6.6-17.9-19.2,2.6-13.5,14.3-18,26.8-17.3,10.2.6,19.6,4.7,19.9,17.7Z"/>
  <path class="st7" d="M2572.3,960.7c-2.6,14.8-12.7,21.5-26.2,22.2-9.8.5-19-3.6-17.6-15.9,1.9-15.4,14.4-19.5,27.2-20.8,9.6-1,15.6,4.5,16.6,14.5Z"/>
  <path class="st7" d="M1630.4,1148.8c-1.3,12.3-8.5,19.7-20.9,20-11.9.3-21.4-4.3-21-18.6.4-13.9,10.1-18.5,21.7-18.9,11-.3,19.2,4.8,20.2,17.6Z"/>
  <path class="st7" d="M2255.4,915.9c-2,12.1-7.3,21.4-20.4,21.4s-20.5-3.6-21-16.4c-.4-12.9,7.7-19.6,20.1-20.6,11.3-.9,19,4.2,21.3,15.6Z"/>
  <path class="st7" d="M2536.8,1090.9c10.1,2,17.6,6.5,16.3,18-1.2,11.4-6,21.2-18.8,22.5-10.7,1-17.7-4.8-17.5-15.9.4-12.8,7.2-21.4,19.9-24.6Z"/>
  <path class="st2" d="M2074,1124.4c-1.2,12-8.1,19.3-20.6,20.1-10.6.7-22.2-2.3-21.8-14.6.4-13.8,13.5-17.9,25.2-19.6,9.3-1.4,15.9,3.3,17.3,14.1Z"/>
  <path class="st2" d="M846.3,1754c-9.4,13.8-21.7,17.4-36.9,10.3-1.6-11.7.1-22.1,14-24.1,10.7-1.6,22.2-2.4,22.9,13.8Z"/>
  <path class="st7" d="M1915.4,1165.6c8.4,1.4,17.4,3.4,17.6,13.9.3,11.6-8.2,15.3-18.5,15.3-9.5,0-16.4-3.8-16-14.5.4-10.4,7.6-13.8,17-14.8Z"/>
  <path class="st7" d="M2184,1197c11.8.9,21.5,5,21.6,18.6,0,7.5-5.9,12.5-13,12.3-14.5-.4-20-9.4-18.7-23.2,3.4-2.5,6.7-5.1,10.1-7.7Z"/>
  <path class="st7" d="M1358.7,1534c-2.1-3-4.1-6.1-6.2-9.2,2.3-4.1,3.5-9.7,7.1-12.2,7.8-5.6,17-5,25.4-.6,4.7,2.4,7,6.5,5.2,12.2-3.6,11.1-12.4,11.4-21.8,10.7-3.3-.2-6.4-.6-9.7-.9Z"/>
  <path class="st7" d="M2503.9,855.4c7.7,1.7,15.5,4,13.8,13.9-2,10.5-10.8,14.2-20.3,14.6-8.5.3-14.9-4.1-13.3-13.5,1.8-10.5,10.2-14.1,19.9-15Z"/>
  <path class="st7" d="M2847.4,544.8c.8-1.4,1.1-2.9,1.1-4.6,3.6-1.6,7.1-3.1,10.7-4.8l.4.5c10,1,21.5,1.4,21,15.1-.4,9.6-8.8,13.1-17.8,13.6-14.5.8-15.1-9.4-15.3-19.8Z"/>
  <path class="st2" d="M2947.2,234.8c5.4-5.1,10.8-10.1,16.1-15.1,7.5.9,19.2-2.8,17.3,10.6-1.4,10.2-10.1,17.2-20.2,19.7-12.5,3-12.5-6.8-13.2-15.2Z"/>
  <path class="st7" d="M2699.2,756.1c7.5,1,15.2,1.4,15.6,10,.4,10-6.6,14.9-15.8,15.7-7.1.6-14-1.5-14.8-9.8-1.1-10.9,7.8-13.1,15.1-15.9Z"/>
  <path class="st2" d="M2403.6,967.3c-2.1,9.3-8.6,15.7-18.6,16.2-8.4.4-11.2-6.8-10.2-13.8,1.2-9,6.5-15.3,16.5-15.2,7.6,0,12.5,3.5,12.2,12.8Z"/>
  <path class="st9" d="M2523.4,1444.6c-.1-10.2-1-20.7,4.9-29.9,11.3-.3,20.5,2.7,19.5,16.2-1.2,15.9-13.9,13.4-24.5,13.7Z"/>
  <path class="st2" d="M1878.9,990.1c8.2.9,14.2,4,13.8,11.9-.4,8.3-6,13.1-14.6,13.2-8.4,0-14.8-3.5-13.9-12.8.9-8.6,7.7-11.6,14.6-12.3Z"/>
  <path class="st2" d="M954.2,1728.5c-9,.1-13.7-4-13.9-11.5-.2-7.7,5.1-11.6,12.5-12,6.2-.4,12,2.3,13,8.5,1.4,8.9-5.8,12.2-11.6,15Z"/>
  <path class="st2" d="M1422,1258.9c-2.6,7.9-7.1,15.1-16.1,16.2-6.6.8-11.3-4.2-10.5-10.8,1.2-9.3,7.7-14.2,17.1-14.4,5.4-.1,9.6,2,9.5,9Z"/>
  <path class="st2" d="M2739.6,663.6c-2.8,5.9-7.7,11.2-16.2,10.4-5.6-.6-9.2-5-7.4-10.4,2.6-8.2,9.8-10.6,17.7-9.6,4.3.6,7.8,2.8,6,9.6Z"/>
  <path class="st2" d="M1473.4,1577.7c9.3,1.3,18.5,3.8,18.8,15,.2,7.8-7.3,7.1-12.9,6.8-14.3-.7-10.4-11.2-10.4-19.6,1.5-.8,2.9-1.5,4.4-2.2Z"/>
  <path class="st2" d="M2520.3,1459.8c-2.8,9.9-9.3,13.4-18.9,9.9-6.6-2.4-5.3-7.5-2.9-12.3,5.4-10.7,12.9-7.6,20.5-2.7.4,1.7.9,3.4,1.4,5.1Z"/>
  <path class="st9" d="M1042.5,1707.1c-.5,7.8-5.2,11.6-12.4,12.3-5.1.5-10.5-.5-10.8-6.8-.3-7.8,5-11.6,12.2-12.3,5.2-.5,9.8.6,10.9,6.9Z"/>
  <path class="st2" d="M2627.2,1136.3c6.7,0,10.8,2.2,10.3,6.8-.8,8.1-6.1,13.5-14.2,14.8-4.7.7-8.3-2.7-8.3-7.1,0-8.8,6.6-12.4,12.2-14.5Z"/>
  <path class="st2" d="M2311.3,936.1c-1.8,6.9-6.3,11.8-13.1,13.7-6,1.7-9.6-1.9-9.9-7.8-.4-8,3.9-12.5,11.7-13.1,5.2-.5,10,.8,11.3,7.1Z"/>
  <path class="st2" d="M1255,1350.9c6.9-.2,9.1,3.6,8.9,9.4-.2,6.4-3.1,11.4-9.7,12.3-5.6.7-9.8-2.6-10.4-8.1-.9-8.2,4.9-11.5,11.2-13.6Z"/>
  <path class="st9" d="M1413.4,1634.9c-3.3,0-6.7,0-10,0-7.5-6.6-5.2-12.8,1.8-17.7,5.4-3.8,11.2-2.3,14.8,2.9,5.3,7.7-.8,11.4-6.6,14.8Z"/>
  <path class="st0" d="M1883.4,1299.8c-17.1-2.6-21.8-15.8-25-30,20,.3,18,18.9,25,30Z"/>
  <path class="st4" d="M2917,174.8c-1.1,8-7.1,7-12.8,7.7-5.4.7-10.4,1.2-10-5.9.5-7.6,5.4-11.7,13.1-11,5.4.4,8.8,3.8,9.6,9.2Z"/>
  <path class="st2" d="M1397.5,1433.1c-.9,6.5-5.5,7.8-10.8,7-5.9-.9-11.9-3.2-11.6-10.4.2-5.9,4.9-8.8,10.4-7.3,5.4,1.4,11.2,3.7,12.1,10.7Z"/>
  <path class="st9" d="M2783.3,379.9c-1.7,5-3.3,10.1-4.9,15.1-7.4-1.1-15.7-3-12.6-12.6,3.3-10.1,11.1-5.7,17.5-2.4Z"/>
  <path class="st4" d="M2880,233.2c7.3,1.2,15.1-.6,17.3,8.7.8,3.1-1.2,6.6-5,6.8-9.5.2-10.9-6.8-12.3-15.4Z"/>
  <path class="st0" d="M1531.6,1369.8c.9,4.7,1.9,9.4,2.8,14.1-6,.2-14,2.9-14.9-6.5-.6-8,6.8-7.1,12.1-7.6Z"/>
  <path class="st10" d="M3873.4,359.7c-13.9,28.4-42.4,38.9-67.7,50.4-90.8,41.4-185.2,73.3-282.2,96.8-60.3,14.6-121.9,21.7-183.6,28.4-92.9,10.1-185.8,21.4-275.1,51.2-46.4,15.4-93,30.3-135.5,55.4-17.2,10.1-34.5,20.2-45.8,37.5-4.6.8-9.3,1.6-13.9,2.4,28.8-43.2,69.6-72.7,114.1-96.7,94.2-50.8,196.2-73.9,302.4-80.6,163.9-10.1,322-46.8,476.5-101.4,37.6-13.2,74.3-28.2,111-43.4Z"/>
  <path class="st10" d="M3612.6,334.5c-5.6,14.8-12.4,26.8-28.1,29.9-3.9.8-11.1-2.5-8.5-5.3,10.7-11.1-.4-31.7,15.9-37.6,7.5-2.8,16.6,4.6,20.7,13.1Z"/>
  <path class="st10" d="M3453.2,361.1c9,2.4,15.6,8.9,18.1,17.6,1.8,6.3-4.2,10.1-10.5,10.7-9.5.9-16.1-2.8-17-12.9-.6-6.8,1-13,9.4-15.3Z"/>
  <path class="st9" d="M2947.4,367.2c-7.4,1-8.6-3-8.8-7.2-.2-6.6-.7-13.8,8.7-14.7,5.4-.5,10.2,1,10.1,7.6,0,7.7-6.4,10.8-10.1,14.3Z"/>
  <path class="st9" d="M2918.2,522.9c-.2,6.9-1.9,11.3-8.3,10.9-6.7-.4-10.5-4.8-10.6-11.1-.1-6.2,2.9-11.6,10.1-10.9,6.9.7,8.3,6.7,8.9,11.1Z"/>
  <path class="st9" d="M2935.7,414.1c-6.1-.8-10.4-3.4-10.4-9.2s4.6-10.9,10.2-12.4c7.3-2.1,7.5,4.1,7.7,9,.2,5.9-.2,11.8-7.5,12.6Z"/>
  <path class="st8" d="M2859.1,535.5c-3.6,1.6-7.1,3.2-10.7,4.8,2.2-4.8,6.1-5.3,10.7-4.8Z"/>
  <path class="st8" d="M3065.1,235.3c-2.2,1.7-4.4,3.3-6.6,4.9,2.3-1.6,4.4-3.3,6.6-4.9Z"/>
  <path class="st8" d="M3058.8,240c-1.8,1.6-3.6,3.2-5.4,4.8,1.8-1.5,3.6-3.1,5.4-4.8Z"/>
  <path class="st2" d="M619,1820.5c17.6,2.4,32.8,7.6,32.5,25.9-.3,16.9-15.4,19.1-29.2,19-15.2-.2-30.1-5.2-30.9-21.6-.9-17.5,15.1-20.9,27.7-23.2Z"/>
  <path class="st7" d="M1192.7,1776.8c-1.7,9.1-4.8,22.6-22.5,22.6s-20.6-10.3-19.9-23.2c.8-15,9.4-25.6,25-25.6,12.5,0,19.1,8.6,17.4,26.3Z"/>
  <path class="st7" d="M128.5,1736.7c-15.9-3-27.1-10.2-26.8-26,.2-14.1,11.7-17.4,23.2-15.8,14.8,2.1,24.4,11,23.4,27-.9,12.8-9.8,15.9-19.8,14.8Z"/>
  <path class="st7" d="M873.2,1856.9c-1.9,9.9-5.6,18.3-18.4,18.1-10-.1-18.7-2.6-18.6-14.3.1-12.3,8.6-16.3,20-16.2,8.6,0,16.9-.1,17,12.4Z"/>
  <path class="st10" d="M63.3,1484.8c10.1-22.6,20-3.8,30,.2.1,8.3.2,16.5.4,24.8-17.3.3-26.2-9.5-30.3-25Z"/>
  <path class="st7" d="M747.6,1987.9c-2.1,10.2-8.5,12.7-16.6,12.5-8.4-.2-14.8-3.3-13.6-13.1,1.1-8.9,7.1-12.5,15.7-11.9,8.2.6,13.6,4.9,14.6,12.5Z"/>
  <path class="st2" d="M566.2,1804.8c-2.4-10.2,3.8-13.8,12.2-15.7,3.7,1.5,7.9,2.4,11,4.7,5.2,3.7,11.9,8.1,8.3,15.4-4.2,8.4-12.4,5.7-19.1,3-4.4-1.9-8.2-4.9-12.4-7.4Z"/>
  <path class="st2" d="M403.5,1954.2c-1.8,9.9-8.5,10.6-15.1,10.5-6.9,0-13.8-1.7-14.6-9.9-.9-9,6.1-10.5,13.1-10.5,7.8-.1,14.2,2.6,16.6,9.9Z"/>
  <path class="st8" d="M306.5,1766.2c-1.4.5-3.1,1.8-4.1,1.4-1-.4-1.2-2.6-1.8-4,1.4-.5,3.1-1.8,4.1-1.4.9.4,1.2,2.5,1.8,4Z"/>
  <path class="st2" d="M403.6,773.4c-.6,11-23.3,31.6-33.4,30.1-6.9-1-10.1-5.3-10.1-12.1,0-10.6,22.9-31.1,33.5-29.7,6.7.8,10.5,4.5,10,11.6Z"/>
  <path class="st2" d="M817.2,600.5c6.1,1.1,15.4-2,15.7,7.3.2,7.2-8.4,6.3-13.8,7.5-12.9,2.8-25.8,5.6-38.8,8-3.8.7-8.8,1.3-10.2-4.1-1.2-4.9,2.5-7.7,6.3-9.2,13.1-5.4,26.7-8.6,40.8-9.5Z"/>
  <path class="st2" d="M46.9,1334c-15-14.7-12-26.1,6.6-34.5,2.6,12.4.2,23.9-6.6,34.5Z"/>
  <path class="st2" d="M1325,1655.7c2.7.3,5.2.6,7.9.9,8.2,7.7,16.5,15.3,15,28.2-19.3,24.9-26,24-39.4-5,.1-3.2.4-6.4.5-9.6h-.2c5.4-4.8,10.8-9.6,16.2-14.5Z"/>
  <path class="st2" d="M1558.3,1640.1c13.4,15.5,12.6,29.2-4.9,41-16.3-.3-25.6-8.5-23-24.8,2.3-15.2,13.5-19.7,27.9-16.2Z"/>
  <path class="st7" d="M1473.5,1738c.2,11.4-5.4,18.6-16.9,19.5-8.9.7-16.8-2.7-16.7-13.4,0-11.1,5.7-18.8,17.4-19.8,9.3-.8,16.2,2.4,16.2,13.6Z"/>
  <path class="st8" d="M1347.9,1684.8c1.5-12.9-6.8-20.5-15-28.2.8-9.5,6.2-13.4,15.1-10.8,10.1,2.9,13.1,12.2,14.8,21,1.9,10.9-3.4,17.3-14.9,18Z"/>
  <path class="st2" d="M1381.1,2011.9c-1.9,8.5-4.9,15.3-14,15.9-8.9.6-8-6.9-8.4-12.2-.5-8.5,3.1-14.8,12.6-14.9,7.6,0,8.9,6,9.8,11.2Z"/>
  <path class="st2" d="M1181.5,2159.2c-5.2,3-10.6,5.9-16.9,5.1-4.2-6.2-9.4-12.4-2.1-19.9,3.8-3.9,8.6-5.7,13.6-3.9,9.6,3.6,8,11.2,5.4,18.7Z"/>
  <path class="st8" d="M1387.8,1932.3c-1,6.1-3.5,10.7-9.1,10.4-8.4-.4-10.1-6.9-9.8-13.8.1-5.8,3.4-9.1,9.3-8,6.4,1.2,9.2,5.8,9.6,11.3Z"/>
  <path class="st8" d="M1286.3,2044.5c-6.8,0-11.9-1-11.9-7.5,0-6.5,3.7-11.2,10.6-10.5,4.6.5,10.4,2.6,11.1,8,.9,7.5-5.7,8.6-9.8,10Z"/>
  <path class="st8" d="M1174.2,2117.1c1-4.9,4.2-7.4,8.9-6.2,6.8,1.6,12.4,5.9,13.1,13.1.4,5.4-5,5.7-9.2,5.5-7.6-.6-12.3-4.4-12.8-12.4Z"/>
  <path class="st8" d="M1325,1655.7c-5.4,4.9-10.8,9.8-16.2,14.6-.3-11.2-3.1-25.2,16.2-14.6Z"/>
  <path class="st8" d="M1618.4,1449.7c6.9,13.4-4.7,8.7-9.9,10.2,1.7-4.9,5.2-8.2,9.9-10.2Z"/>
  <path class="st8" d="M1258.8,2041c-1.7,2.1-2.8,3.7-4,5.2-1.6-1.5-3.9-2.8-4.4-4.6-.4-1.2,1.9-3.1,2.9-4.8,1.7,1.3,3.3,2.5,5.5,4.2Z"/>
  <path class="st8" d="M1301.5,2102.1c-7.3,3.4-13.1,4.1-15.1-.5-2.3-5.7,3-3,5.4-2.6,2.2.3,4.3,1.3,9.7,3Z"/>
  <path class="st8" d="M1309,1670.2c-.1,3.2-.4,6.4-.5,9.6-2.6-1.4-7.3-2.4-7.6-4-.8-5.8,4.3-5.2,8.1-5.6Z"/>
  <path class="st7" d="M3323.5,1232.3c12.4,1.4,21,6.6,20.5,20.4-.5,13.7-8.3,21.9-21.5,22.7-13,.8-20-7-20.1-19.9,0-14.1,8.6-20.6,21.1-23.1Z"/>
  <path class="st7" d="M3260.6,1167.2c1.6-9.2,2.4-19.9,14.6-19.6,9.2.3,14.5,7.9,15.5,16.8,1.1,10.6-4.5,18.4-15,19.1-9.9.6-13.5-7.7-15.1-16.4Z"/>
  <path class="st2" d="M3221.4,1117.8c-3.3,6.5-8.6,11.3-17,10.3-4.6-.5-6.9-4.4-6.2-8.9,1.4-9.9,8.9-10.4,16.6-9.8,4.4.4,7.8,2.4,6.6,8.5Z"/>
  <path class="st2" d="M2442.8,1480.3c.6-11.6,6.8-22.1,22-21.6,19.5.7,29.5,12.7,29.9,32.3.2,12.3-1.9,23.5-17.7,24.5-16.5,1-33.7-15.4-34.2-35.1Z"/>
  <path class="st2" d="M2523.3,1561.7c-.3,10.1-3,18.2-13.8,18.1-13.7-.2-21.7-8.5-22.3-22-.5-11.4,7.7-13,17-12.9,11.9.1,19,5,19,16.8Z"/>
  <path class="st8" d="M2476.6,1383.8c1.8-8.8,4.2-17.3,9.9-24.5,14.9,1.9,13.4,12.5,10.1,21.8-4.2,11.8-12.7,5.9-20,2.7Z"/>
  <path class="st8" d="M2569.8,1611.5c-1.4,1.2-2.4,2.6-3.1,2.6-2.1-.4-4.9-.8-5.9-2.3-1.8-2.4-.2-4.5,2.9-3.7,2,.6,3.8,2.1,6.2,3.4Z"/>
  <path class="st2" d="M1549.3,1752.3c13.5,3.1,20.6,10.4,19.8,24.5-.7,10.5-5.1,18.7-16.4,16.8-12.4-2.1-24.8-7.7-23.4-23.5,1.1-11,9.2-17,20-17.7Z"/>
  <path class="st2" d="M1460.6,1899.1c-4.9-.9-7.1-3.9-7-8.6.3-7.1,4.4-10.6,11.3-10.1,4.4.4,8.1,2.9,7.4,8-.8,6.7-5.4,9.9-11.8,10.6Z"/>
  <path class="st7" d="M2213.4,1303.2c-2.7,15.5-9.5,26.2-25.8,26.3-10.3.1-18.7-5.2-18.2-16.2.6-14.8,9.6-25.3,24.4-27.3,12-1.7,17.6,6.8,19.7,17.2Z"/>
  <path class="st7" d="M1700.8,1441c-3.1,14.2-10.2,23.8-24.9,23.5-10.9-.1-18.9-4.4-17.7-17.8,1.3-15.7,12.7-19.9,24.9-20.9,9.9-.8,17,4.8,17.7,15.3Z"/>
  <path class="st7" d="M1928.2,1386.1c-.9,11.2-6.4,18.8-18.2,19.8-9.7.7-16.3-4.6-16.7-14.4-.5-11.6,6.3-19.4,17.7-19.9,8.6-.3,16.1,3.9,17.2,14.5Z"/>
  <path class="st2" d="M1806,1357.4c-4.5,7.4-10,13.2-19.5,12-7.3-.9-12.6-4.9-11.2-13,1.6-9.2,9.1-10.2,16.9-10.4,8.1-.2,11,5.4,13.9,11.4Z"/>
  <path class="st10" d="M3279.5,387.4c-.9,22.8-19.8,46.8-50,61.8-48,23.8-112.5,3.5-144.8-44.3-33.4-49.4-27.8-116,12.6-153,22.9-20.9,48.8-26.8,78.5-17.2,54.8,17.9,104.5,84.7,103.8,152.7ZM3172.4,333.9c14.9-14.2,18.2-29.2,14.5-45.4-4-17.8-15.8-29.3-34.1-31.8-10.2-1.4-17.3,4.3-21.1,13.9-1.7,4.4-5.4,11.6,1.1,12.4,29.6,3.4,30.7,28.6,39.7,50.9Z"/>
  <path class="st11" d="M3172.4,333.9c-9-22.2-10.2-47.4-39.7-50.8-6.5-.8-2.9-7.9-1.1-12.4,3.8-9.6,11-15.4,21.1-14,18.4,2.5,30.1,14,34.2,31.8,3.7,16.1.4,31.1-14.5,45.4Z"/>
</svg>