<?xml version="1.0" encoding="UTF-8"?>
<svg id="Layer_1" xmlns="http://www.w3.org/2000/svg" version="1.1" viewBox="0 0 3000 3000">
  <!-- Generator: Adobe Illustrator 29.2.1, SVG Export Plug-In . SVG Version: 2.1.0 Build 116)  -->
  <defs>
    <style>
      .st0 {
        fill: #e9a27d;
      }

      .st1 {
        fill: #f3e7db;
      }

      .st2 {
        fill: #db9f7d;
      }

      .st3 {
        fill: #a8491f;
      }

      .st4 {
        fill: #f6e4ab;
      }

      .st5 {
        fill: #fff;
      }

      .st6 {
        fill: #c17f5c;
      }

      .st7 {
        fill: #cb6f3c;
      }

      .st8 {
        display: none;
      }
    </style>
  </defs>
  <g class="st8">
    <path class="st5" d="M478.1,478.1v2043.8h2043.8V478.1H478.1Z"/>
  </g>
  <g>
    <path class="st7" d="M1521.3,1854.2c-17.7-4.1-36.5-5-54.2-2.8-10.4,7.2-22.2,12.8-34.1,17.4-29.5,11.4-59.4,21.8-89.2,32.5,11.5,2.2,22.9,5.1,34,9.2,25,9.1,48,23.4,66.5,42.7,24.7,25.8,40.6,58.8,49.6,93.1,10,38.1,10.9,78.4.8,116.5-7.2,26.9-19.5,52-35.6,74.6,9.2-2.7,18.2-5.9,27.1-9.7,52.7-22.3,93.1-61.8,118.6-112.4,20.8-41.3,31.6-87.9,36.7-134.4-8.1-24.4-19-47.9-34.3-68.7-21.1-28.7-51-49.9-85.9-58.1Z"/>
    <path class="st7" d="M1948.9,1165c-2.5-3.6,36.5-29.3,33.8-62.5-3.8,7.2-8.1,14-13.3,20.4-8.4,10.4-16.5,15.6-27.2,23.6-6.5,4.9-12.4,1.7-9.3-4.3,6.5-12.9,9-29.8,8.7-44.4-.1-7.4,0-14.5.5-21.6-6.6,6.8-12.7,12.8-16.1,21.7-2.6,6.9-11.8,48.8-17.7,47.9-4.1-.7-2.7-13.6-2-19.2.2-11.3-3.4-19.9-7-30.6-1.8-5.2-3.4-10.5-4.4-15.9-1.1,1.9-2,3.9-2.7,5.7-3,7.5-3.7,14.9-2.6,22.9,2,14.6,5.4,33.6-6.2,45.3-5.9,5.9-12.8,10.9-18.9,16.6-9.8,9-19,18.8-26.7,29.7-10.6,14.9-18.5,31.3-23.8,48.6,5.9,6.7,13,27,9,29.6-4.3,2.8-38-35.3-75.3-54.9-13.6-7.1-26.7-15.3-38.5-25.1-8.8-7.3-16.4-15.7-23.1-24.9-3.8,6.8-18.4,24.8-21.6,22.9-3.2-1.9,2.9-20.1,5.7-25.1-8.9-1.2-21.1-7.1-10.5-10.5,18-5.9,45.9-24.2,60-35.7,14-11.3,24.7-23.8,33.5-38.9,16.8-28.7,23.7-62,24.1-95.2.6-46-10.1-94.8-34.8-134.4-11.3-18-24.4-34.9-38.4-50.8-17.1-19.3-35.7-37.8-56.3-53.4-9.4-7.1-19.2-13.6-29.6-19-10.8-5.6-21.6-8-33.9-8-.5,0-.9,0-1.3,0-.4,0-.9,0-1.3,0-12.2,0-23,2.4-33.9,8-10.4,5.4-20.2,12-29.6,19-20.6,15.6-39.2,34.1-56.3,53.4-14.1,15.9-27.2,32.8-38.4,50.8-24.7,39.6-35.4,88.4-34.8,134.4.4,33.2,7.3,66.5,24.1,95.2,8.8,15,19.5,27.5,33.5,38.9,14.1,11.4,42,29.8,60,35.7,10.6,3.5-1.6,9.3-10.5,10.5,2.8,5,8.9,23.2,5.7,25.1-3.2,1.9-17.9-16.1-21.6-22.9-6.6,9.2-14.3,17.7-23.1,24.9-11.9,9.8-24.9,18-38.5,25.1-37.3,19.5-71,57.7-75.3,54.9-4-2.6,3.1-22.9,9-29.6-5.3-17.4-13.2-33.7-23.8-48.6-7.7-10.9-16.8-20.7-26.7-29.7-6.2-5.6-13-10.6-18.9-16.6-11.6-11.7-8.3-30.7-6.2-45.3,1.1-8,.4-15.4-2.6-22.9-.7-1.8-1.6-3.8-2.7-5.7-1,5.4-2.6,10.6-4.4,15.9-3.6,10.7-7.2,19.3-7,30.6.7,5.6,2.1,18.6-2,19.2-5.8.9-15-41-17.7-47.9-3.4-8.9-9.4-14.9-16.1-21.7.5,7.1.6,14.3.5,21.6-.2,14.7,2.2,31.5,8.7,44.4,3,6-2.8,9.2-9.3,4.3-10.7-8-18.8-13.2-27.2-23.6-5.2-6.4-9.5-13.2-13.3-20.4-2.7,33.1,36.4,58.9,33.8,62.5-5.6,8-26.2,4.7-64.7-27.8.3,9.6,4.6,19.9,9.8,26.6,5.9,7.7,13.3,14.8,22,19.3,12.8,6.6,27.4,6.1,41.3,7.6,8.1.9,20.8,1.4,28.5,7.4.7-4.5-1.7-9.6,2.7-9.6s22.3,39.3,28.8,53.9c6.7,15.3,13.9,30.4,21.8,45,8.1,15.1,18.9,29.2,35,36.4,15.4,6.9,34.4,7.6,51,6.8,18.9-.9,39.1-5.5,53.9-18.1,9.7-17.7,21.3-25.1,25.7-22.5,4.2,2.6-25.9,66.7-31.9,83.6-16.5,46.4-19.9,96-11.4,144.6,13.8,79.1,76.3,161.4,70.1,167.1-7.7,7.1-47-50.6-62.2-82.4-9.1-10.2-22.1-18-35.5-23-10.1-3.8-27.9-8.6-37,.1-1.7,1.7-2.9,3.8-3.8,6.1-13.2,33.9,10.6,103.3,3.3,106.3-8.2,3.3-25-56.2-25.6-61.8-7-8.1-22.4-15.4-32.7-16.9,15,11.5,22.5,37.8,19,38.1-4,.3-16.2-24.6-34.7-30.4-6-1.9-12.1-3-18.4-2.8,0,0-.1,0-.2,0,1.8,1.5,3.7,3,5.4,4.5,7.8,7.1,14.2,15.5,18.1,25.2,4.4,4.1,10.4,17,7.4,19-3.3,2.1-7.8-12.3-35.4-17.7-8.2-1.6-16.7.3-24.1,4-7.8,4-14.6,9.6-20.3,16.4-.3.4-.6.8-.9,1.1,18-4.4,37.7-5,54.4,2.2,3.9-.6,19.4,3.7,19.4,7.5,0,3.7-40.4,2-52,35.4,10.7-5,22.8-7.9,33.8-5.2,12.5,3,23.8,11.3,32.3,20.7,6.1,6.8,11.3,14.4,15.5,22.5,3.2,6.1,5.8,11.5,11,16.1,12.7,11.3,29.6,9.5,44.5,4,13.8-5.1,25.2-14.7,34.1-26.2-11.5-12.6-26.1-51.4-21.7-53.9,4.3-2.5,21.8,39.7,56.5,57.4,8.9,4.5,15.7,7.8,25.8,10,6.3,1.3,19.1,2.4,19.1,2.4,8.4.7,9.8,7.4,10,10,1.1,16.6-2,33.3-10.2,47.9-3.9,6.9-8.7,13-14.2,18.4,2.2,0,4.4-.1,6.6-.1,31.9.1,63.6,9.5,89.7,28,31.2,22.2,52.4,54.5,66.7,89.6.2-2.3.3-4.7.5-7,1.8-29.9,1.7-59.9.3-89.8-.7-15.3-2.5-30.6-2.2-45.9.2-13.5,6.7-50.2,18-50.6,10.9-.4,20.5-.6,30.2-2.7,10.1-2.2,16.9-5.4,25.8-10,34.7-17.7,52.2-59.8,56.5-57.4,4.4,2.5-10.2,41.3-21.7,53.9,8.9,11.5,20.3,21.1,34.1,26.2,14.9,5.6,31.7,7.3,44.5-4,5.2-4.6,7.9-10,11-16.1,4.2-8.1,9.4-15.8,15.5-22.5,8.5-9.4,19.8-17.7,32.3-20.7,11.1-2.7,23.2.2,33.8,5.2-11.6-33.4-51.9-31.7-52-35.4,0-3.8,15.4-8.1,19.4-7.5,16.7-7.2,36.4-6.6,54.4-2.2-.3-.4-.6-.8-.9-1.1-5.6-6.7-12.4-12.4-20.3-16.4-7.3-3.7-15.9-5.6-24.1-4-27.6,5.4-32.2,19.8-35.4,17.7-3-1.9,3-14.9,7.4-19,4-9.8,10.3-18.1,18.1-25.2,1.7-1.6,3.6-3.1,5.4-4.5,0,0-.1,0-.2,0-6.3-.3-12.4.9-18.4,2.8-18.6,5.8-30.8,30.7-34.7,30.4-3.5-.3,4-26.6,19-38.1-10.3,1.5-25.7,8.8-32.7,16.9-.6,5.6-17.5,65.1-25.6,61.8-7.3-3,16.5-72.3,3.3-106.3-.9-2.2-2.1-4.4-3.8-6.1-9.1-8.7-26.9-3.9-37-.1-13.4,5-26.4,12.7-35.5,23-15.3,31.8-54.5,89.6-62.2,82.4-6.2-5.8,56.3-88,70.1-167.1,8.5-48.6,5-98.2-11.4-144.6-6-16.9-36.1-81-31.9-83.6,4.3-2.6,16,4.8,25.7,22.5,14.8,12.6,35,17.2,53.9,18.1,16.6.7,35.6,0,51-6.8,16.1-7.2,26.9-21.3,35-36.4,7.9-14.7,15.1-29.8,21.8-45,6.5-14.7,23-53.9,28.8-53.9s2,5.1,2.7,9.6c7.7-6,20.3-6.6,28.5-7.4,13.9-1.5,28.5-1,41.3-7.6,8.7-4.5,16-11.6,22-19.3,5.2-6.7,9.5-17,9.8-26.6-38.5,32.4-59.1,35.8-64.7,27.8Z"/>
    <path class="st2" d="M1306.1,2119.7c-1.4-33.9-15.3-67.2-38.7-91.8-18.4-19.3-42.6-31.2-68.9-34.9-18.3-2.6-36.9-1.4-55,1.7-12.2,8.6-23.9,17.9-35,28-20.9,19-40.5,40.5-57.5,63.8,19.9.9,40,5.1,57.1,15.6,28.8,17.7,40.8,50.1,42,82.6.7,19.9-1.7,41.1-7.9,60.5,17.6,1.3,35.1,3.8,52.6,6,19.8,2.5,39.6,4.7,59.5,5.9,13.9-14.3,24.4-33.1,32.7-50.7,12.7-26.9,20.4-56.8,19.2-86.7Z"/>
    <path class="st2" d="M1044,2096.3c-16,23.3-29.3,48.1-38.9,73.8-4.4,11.8-8,24-10.6,36.4-10.3,50.1,5.6,66.5,7.7,67.2.9.3,23.3-14,61.7-23.1,21.7-5.2,44.1-6.9,66.5-6.1.5,0,.9,0,1.4,0,.5-1.7,1-3.3,1.5-5,1.7-6,3.1-12.1,4.1-18.3,4.7-26.7,4.7-56.9-7.9-81.6-16.6-32.4-51.4-42.8-85.5-43.3Z"/>
    <path class="st7" d="M1479.3,2032.4c-10.3-30.6-26.8-59.2-51-80.8-29.2-26.1-66-38.2-103.9-43.3-4.3,1.6-8.7,3.2-13,4.8-51.3,19-103,39.8-149.4,69.1,16.3-1.3,32.6-.7,48.7,2.8,65,14.1,106.6,79,105.6,143.5-.5,31.5-10,62.4-24.3,90.3-6.8,13.2-14.9,27.1-24.8,38.9,2.1,0,4.1.2,6.2.2,35.9,1.1,71.9-1.1,107.6-5.5,21-2.6,42.1-5.8,62.6-10.8,21.9-27.6,37.7-59.9,44.6-94.6,7.6-38.2,3.6-77.8-8.8-114.6Z"/>
    <g>
      <path class="st3" d="M1808,1309.2c50-17.7,86.5-143,102-131,20.9,16.2,90.2-4.2,89.1-29.5,4.5-3.3,9.3-7.1,14.5-11.5-.3,9.6-4.6,19.9-9.8,26.6-5.9,7.7-13.3,14.8-22,19.3-12.8,6.6-27.4,6.1-41.3,7.6-8.1.9-20.8,1.4-28.5,7.4-.7-4.5,1.7-9.6-2.7-9.6s-22.3,39.3-28.8,53.9c-6.7,15.3-13.9,30.4-21.8,45-8.1,15.1-18.9,29.2-35,36.4-15.4,6.9-34.4,7.6-51,6.8-18.9-.9-39.1-5.5-53.9-18.1-8.7-16-19-23.5-24.1-23,1.8-10.9,58.7,38.8,113.5,19.5Z"/>
      <path class="st3" d="M1976,1113.9c2.5-3.7,4.7-7.5,6.8-11.4,2.4,29.5-28.2,53-33.3,60.5-1.3-9.6,19.1-25.7,26.5-49Z"/>
      <path class="st3" d="M1935.2,1083.4c2.2-2.4,4.5-4.8,6.9-7.3-.5,7.1-.6,14.3-.5,21.6.2,14.7-2.2,31.5-8.7,44.4-1.2,2.4,3.8-36.5,2.3-58.8Z"/>
      <path class="st3" d="M1889.8,1094.7c.5-3,1.3-6,2.5-8.9.7-1.8,1.6-3.8,2.7-5.7,1,5.4,2.6,10.6,4.4,15.9,3.6,10.7,7.2,19.3,7,30.6-.7,5.6,2,19.2,2,19.2-10,.4-5.6-29.3-18.6-51Z"/>
      <path class="st3" d="M1943,1670.1c.3.4.6.8.9,1.1-18-4.4-37.7-5-54.4,2.2-2.4-.4-12.4,2.8-17.2,4.9,19.9-19.6,54.5-22.3,55.7-21.5,5.6,3.6,10.7,8.1,15,13.3Z"/>
      <path class="st3" d="M1841,1620.5c6.4-3.4,13.4-5.8,18.9-6.6-15,11.5-15,36.9-19.3,37.9-1.9.4-2.6-20.6.4-31.2Z"/>
      <path class="st3" d="M1917.7,1707.1c-10.4-9.4-30-10.7-45.7-4.9-21,8-32.8,34-49.8,50-17,15-39.7,6.9-46-9.2-7.1-18.4,9.6-54.7.8-62-3.6-3-46.3,53.5-129,63.2-33.9,4-31.6,163.9-30.5,165.5,10.5,14.9,19.1,31.2,26,48.2.2-2.3.3-4.7.5-7,1.8-29.9,1.7-59.9.3-89.8-.7-15.3-2.5-30.6-2.2-45.9.2-13.5,6.7-50.2,18-50.6,3.6-.1,7.1-.3,10.4-.4-.3.1-.6.2-.9.3.5,0,1-.2,1.6-.2,0,0,12.8-.7,19.1-2,10.1-2.2,17.3-5.5,26.2-10.1,7.4-3.7,13.9-8.4,19.7-13.4,12.1-9.1,34.7-43.2,36.6-42.8-4.5,14.9-14.7,44.7-21.7,52.5,8.9,11.5,20.3,21.1,34.1,26.2,14.9,5.6,31.7,7.3,44.5-4,5.2-4.6,7.9-10,11-16.1,4.2-8.1,9.4-15.8,15.5-22.5,8.5-9.4,19.8-17.7,32.3-20.7,11.1-2.7,23.2.2,33.8,5.2-1.2-3.4-2.7-6.5-4.4-9.2Z"/>
      <path class="st3" d="M1875,1621.7c.2,0,.4-.1.6-.2,6-1.9,12.1-3,18.4-2.8,0,0,.1,0,.2,0-1.8,1.5-3.7,3-5.4,4.5-7.8,7.1-14.2,15.5-18.1,25.2-2.5,2.3-5.6,7.6-7.2,12.1,2.4-20.9,5.9-26.3,11.5-38.8Z"/>
      <path class="st0" d="M1789.4,1584c15.3,9,12,29.1,8.6,29.4-4,.5-4.7-14.3-14.5-19.2-9.9-4.9-24.8,5-25.7-.4-1.7-8.9,20.2-16.6,31.6-9.9Z"/>
      <path class="st0" d="M1696.6,1353.7c19.4,16.4,37.7,83.8,20,132-5.7,15.5-17.5,5.5-15.6-7.2,8.2-53-7.5-99.6-14.7-113.8-8.3-16.5,5.4-15,10.2-11Z"/>
      <path class="st0" d="M1870.2,1191.7c-6.8,6.2-13.9,15.2-18.2,23.2-2.8,5.2-7.2,6.5-10.5,4.6-3.8-2.2-3.3-7.6-1.6-11.2,4.8-10.6,12.9-21.1,22.8-27.3,9.3-5.8,13.7,5.1,7.5,10.8Z"/>
      <path class="st0" d="M1759.8,1256.4c-6.9-5.3-17.3-11.1-25.5-13.8-5.4-1.7-8.3-3.7-7.1-7.1,1.4-3.9,6.5-4.4,10.2-3.5,10.7,2.6,22,8.3,29.5,16.5,7.1,7.7-.7,12.7-7,7.9Z"/>
      <path class="st3" d="M1358.1,1309.2c-50-17.7-86.5-143-102-131-20.9,16.2-90.2-4.2-89.1-29.5-4.5-3.3-9.3-7.1-14.5-11.5.3,9.6,4.6,19.9,9.8,26.6,5.9,7.7,13.3,14.8,22,19.3,12.8,6.6,27.4,6.1,41.3,7.6,8.1.9,20.8,1.4,28.5,7.4.7-4.5-1.7-9.6,2.7-9.6s22.3,39.3,28.8,53.9c6.7,15.3,13.9,30.4,21.8,45,8.1,15.1,18.9,29.2,35,36.4,15.4,6.9,34.4,7.6,51,6.8,18.9-.9,39.1-5.5,53.9-18.1,8.7-16,19-23.5,24.1-23-1.8-10.9-58.7,38.8-113.5,19.5Z"/>
      <path class="st3" d="M1190.1,1113.9c-2.5-3.7-4.7-7.5-6.8-11.4-2.4,29.5,28.2,53,33.3,60.5,1.3-9.6-19.1-25.7-26.5-49Z"/>
      <path class="st3" d="M1230.9,1083.4c-2.2-2.4-4.5-4.8-6.9-7.3.5,7.1.6,14.3.5,21.6-.2,14.7,2.2,31.5,8.7,44.4,1.2,2.4-3.8-36.5-2.3-58.8Z"/>
      <path class="st3" d="M1276.3,1094.7c-.5-3-1.3-6-2.5-8.9-.7-1.8-1.6-3.8-2.7-5.7-1,5.4-2.6,10.6-4.4,15.9-3.6,10.7-7.2,19.3-7,30.6.7,5.6-2,19.2-2,19.2,10,.4,5.6-29.3,18.6-51Z"/>
      <path class="st7" d="M1394,1694.4c1,.1,2.6,1.9,4.7,4.8-1.1-2-2.7-4-4.7-6,0,.4,0,.8,0,1.2Z"/>
      <path class="st3" d="M1223.1,1670.1c-.3.4-.6.8-.9,1.1,18-4.4,37.7-5,54.4,2.2,2.4-.4,12.4,2.8,17.2,4.9-19.9-19.6-54.5-22.3-55.7-21.5-5.6,3.6-10.7,8.1-15,13.3Z"/>
      <path class="st3" d="M1325.1,1620.5c-6.4-3.4-13.4-5.8-18.9-6.6,15,11.5,15,36.9,19.3,37.9,1.9.4,2.6-20.6-.4-31.2Z"/>
      <g>
        <path class="st3" d="M1393.8,1694.4s0,0,.1,0c0,0,0,0,0,0,0,0,0,0-.1,0Z"/>
        <path class="st3" d="M1389.8,1742.9c-6.2,16.1-29,24.2-46,9.2-17-16-28.8-42-49.8-50-15.7-5.7-35.2-4.5-45.7,4.9-1.7,2.7-3.2,5.8-4.4,9.2,10.7-5,22.8-7.9,33.8-5.2,12.5,3,23.8,11.3,32.3,20.7,6.1,6.8,11.3,14.4,15.5,22.5,3.2,6.1,5.8,11.5,11,16.1,12.7,11.3,29.6,9.5,44.5,4,13.8-5.1,25.2-14.7,34.1-26.2-7-7.7-17.2-37.6-21.7-52.5,1.9-.4,4.6,2.1,5.3,3.3,8.2,11.2,24.7,39.1,51.3,52.6,8.9,4.5,15.7,7.8,25.8,10,6.3,1.3,19.1,2.4,19.1,2.4.6,0,1.1.1,1.6.2-66.4-22.7-97.8-91.5-107.4-83.5-8.8,7.3,7.9,43.6.8,62Z"/>
      </g>
      <path class="st3" d="M1291.1,1621.7c-.2,0-.4-.1-.6-.2-6-1.9-12.1-3-18.4-2.8,0,0-.1,0-.2,0,1.8,1.5,3.7,3,5.4,4.5,7.8,7.1,14.2,15.5,18.1,25.2,2.5,2.3,5.6,7.6,7.2,12.1-2.4-20.9-5.9-26.3-11.5-38.8Z"/>
      <path class="st3" d="M1450.7,819.2c-9.8,12-19,24.4-27.2,37.5-24.7,39.6-35.4,88.4-34.8,134.4.4,33.2,7.3,66.5,24.1,95.2,8.8,15,19.5,27.5,33.5,38.9,13.7,11.1,40.5,28.8,58.5,35.2-127.8-93.2-101.4-271.7-54.2-341.2Z"/>
      <path class="st3" d="M1715.4,819c9.8,12,19,24.4,27.2,37.5,24.7,39.6,35.4,88.4,34.8,134.4-.4,33.2-7.3,66.5-24.1,95.2-8.8,15-19.5,27.5-33.5,38.9-13.7,11.1-40.5,28.8-58.5,35.2,127.8-93.2,101.4-271.7,54.2-341.2Z"/>
      <g>
        <path class="st0" d="M1536.9,787.7c17.4-4.8,34.4-8.8,52.1-8.7,17.9.1,34.5,4.3,51.8,9.6,13,4,19.1-16.2,6.1-20.2-18.6-5.8-37.8-10.4-57.4-10.5-19.6-.1-38.9,4.1-57.7,9.3-13.1,3.6-8,24.1,5.1,20.5h0Z"/>
        <path class="st0" d="M1503.1,804.8c15.8,0,15.8-24.5,0-24.5s-15.8,24.5,0,24.5h0Z"/>
      </g>
      <ellipse cx="1533.3" cy="1083.2" rx="16.5" ry="16"/>
      <ellipse cx="1556.2" cy="907.4" rx="13.2" ry="12.8"/>
      <ellipse cx="1582.1" cy="983.6" rx="20.8" ry="20.1"/>
      <g>
        <path d="M1399.5,940.5c-8.5,41.1,4.5,71.9,33.6,78.2,30,6.5,53.8-16.4,62.4-57.5,8.5-41.1-4.1-86.6-30.4-92.1-26.3-5.5-57,30.3-65.5,71.4Z"/>
        <ellipse class="st4" cx="1466.1" cy="942.8" rx="19.6" ry="19.7"/>
      </g>
      <path d="M1474.8,1472.2c1.2,16,11.8,25.7,19.4,24.7,10.9-1.4,22.3-15.6,21.1-29.2-1.3-13.6-11-21.1-21.9-20.1s-19.7,11-18.6,24.6Z"/>
      <path d="M1605.4,1463c0,10.6-11.6,15.4-24,15.4s-22.4-5-22.4-15.4,10-15.4,22.4-15.4,24,3.7,24,15.4Z"/>
      <ellipse cx="1524.6" cy="1345.3" rx="25" ry="22.9" transform="translate(-258.6 2322.2) rotate(-70.1)"/>
      <ellipse cx="1545.9" cy="1579.9" rx="17.9" ry="17.5"/>
      <ellipse cx="1632.8" cy="1083.2" rx="16.5" ry="16"/>
      <ellipse cx="1609.9" cy="907.4" rx="13.2" ry="12.8"/>
      <g>
        <path d="M1766.6,940.5c8.5,41.1-4.5,71.9-33.6,78.2-30,6.5-53.8-16.4-62.4-57.5-8.5-41.1,4.1-86.6,30.4-92.1,26.3-5.5,57,30.3,65.5,71.4Z"/>
        <ellipse class="st4" cx="1700" cy="942.8" rx="19.6" ry="19.7"/>
      </g>
      <path d="M1691.3,1472.2c-1.2,16-11.8,25.7-19.4,24.7-10.9-1.4-22.3-15.6-21.1-29.2,1.3-13.6,11-21.1,21.9-20.1s19.7,11,18.6,24.6Z"/>
      <ellipse cx="1641.5" cy="1345.3" rx="22.9" ry="25" transform="translate(-359.4 637.6) rotate(-19.9)"/>
      <ellipse cx="1620.2" cy="1579.9" rx="17.9" ry="17.5"/>
      <path class="st6" d="M1200.6,2207.7c-17-4-31.5-14.5-37.5-30.5-14.1-39.5-31.2-89.2-84.9-87.1,10.5,2.5,20.7,6.3,29.9,12,28.8,17.7,40.8,50.1,42,82.6.7,19.9-1.7,41.1-7.9,60.5,17.6,1.3,35.1,3.8,52.6,6,19.8,2.5,39.6,4.7,59.5,5.9,13.2-13.5,23.2-31,31.3-47.8-31,5.4-56.5,5-85-1.6Z"/>
      <path class="st6" d="M1029.1,2219.7c-23.4,13.6-19.5-51.4-11.8-78-4.6,9.3-8.7,18.8-12.2,28.4-4.4,11.8-8,24-10.6,36.4-10.3,50.1,5.6,66.5,7.7,67.2.9.3,23.3-14,61.7-23.1,21.7-5.2,44.1-6.9,66.5-6.1.5,0,.9,0,1.4,0,.5-1.7,1-3.3,1.5-5,1.7-6,3.1-12.1,4.1-18.3,1.5-8.7,2.6-17.9,2.8-27-6.1.3-51.1-9.2-111.1,25.5Z"/>
      <path class="st0" d="M1438.8,1894c-23.9-8.7-90.4,8.8-107.3,39.2-8.1,14.5,4.7,18.5,14.1,9.7,30.5-28.7,72.9-33.7,88.8-34.5,18.5-1,10.3-12.2,4.4-14.3Z"/>
      <path class="st2" d="M1327,2177.2c49.1-193.5-130.7-214.6-132.2-213.9-11.2,5.9-22.1,12.2-32.8,18.9,16.3-1.3,32.6-.7,48.7,2.8,65,14.1,106.6,79,105.6,143.5-.5,31.5-10,62.4-24.3,90.3-6.8,13.2-14.9,27.1-24.8,38.9,2.1,0,4.1.2,6.2.2,35.9,1.1,71.9-1.1,107.6-5.5,21-2.6,42.1-5.8,62.6-10.8,21.9-27.6,37.7-59.9,44.6-94.6.8-4.2,1.5-8.4,2.1-12.6-31.1,37.8-169.4,67.2-163.2,42.8Z"/>
      <path class="st6" d="M1474.2,2148.1c-7.3,24.7-16.6,47.9-32.7,67-43,16-91,17.5-139,17.5,28.2-72.4,25.3-119,8.3-171-13.9-41.8-59.4-76.3-104.3-77.5,1.4.3,2.7.5,4,.8,65,14.1,106.6,79,105.6,143.5-.5,31.5-10,62.4-24.3,90.3-6.8,13.2-14.9,27.1-24.8,38.9,2.1,0,4.1.2,6.2.2,35.9,1.1,71.9-1.1,107.6-5.5,21-2.6,42.1-5.8,62.6-10.8,21.9-27.6,37.7-59.9,44.6-94.6.8-4.2,1.5-8.4,2.1-12.6-4,4.8-9.5,9.4-16,13.7Z"/>
      <path class="st2" d="M1615.5,1924.5c-.2,1.2-5.5,109.7-114.3,199.2-1,13.2-3.2,26.3-6.6,39.1-7.2,26.9-19.5,52-35.6,74.6,9.2-2.7,18.2-5.9,27.1-9.7,52.7-22.3,93.1-61.8,118.6-112.4,20.8-41.3,31.6-87.9,36.7-134.4-6.6-19.7-14.9-38.9-26-56.5Z"/>
      <path class="st6" d="M1615.5,1924.5c0,0,0,.5,0,1.2,34.6,62.1-21.9,218.5-107.4,262,13.5-38,10.5-52.5,13.5-81.9-6.3,6.1-13.1,12.1-20.3,18-1,13.2-3.2,26.3-6.6,39.1-7.2,26.9-19.5,52-35.6,74.6,9.2-2.7,18.2-5.9,27.1-9.7,52.7-22.3,93.1-61.8,118.6-112.4,20.8-41.3,31.6-87.9,36.7-134.4-6.6-19.7-14.9-38.9-26-56.5Z"/>
      <ellipse cx="1193.9" cy="2046.4" rx="25.8" ry="24.8"/>
      <ellipse cx="1357.4" cy="1983.7" rx="25.8" ry="27.6" transform="translate(-499.9 457.9) rotate(-16.2)"/>
      <ellipse cx="1381.4" cy="2050.9" rx="22.2" ry="21.6" transform="translate(-517.7 467.3) rotate(-16.2)"/>
      <ellipse cx="1535.1" cy="1905.3" rx="24.8" ry="24.2" transform="translate(-470.9 504.3) rotate(-16.2)"/>
      <ellipse cx="1275.8" cy="1974.9" rx="13.2" ry="12.8" transform="translate(-500.7 434.8) rotate(-16.2)"/>
      <ellipse cx="1487" cy="1945.9" rx="16.6" ry="16.2" transform="translate(-484.1 492.5) rotate(-16.2)"/>
      <path d="M1561.1,1968.7c2,6.9-.5,15.7-7.6,17.7-7.1,2.1-16-3.4-18-10.3-2-6.9,2.1-14.1,9.2-16.1,7.1-2.1,14.4,1.9,16.4,8.7Z"/>
      <path d="M1188.1,2094.2c.3,5.8-4.4,10.8-10.4,11.1-6,.3-11.2-4.2-11.5-10s4.4-10.8,10.4-11.1c6-.3,11.2,4.2,11.5,10Z"/>
      <path d="M1239.6,2107.3c.4,7.1-5.4,13.2-12.8,13.6-7.4.4-13.7-5.1-14.1-12.3-.4-7.1,5.4-13.2,12.8-13.6,7.4-.4,13.7,5.1,14.1,12.3Z"/>
      <path class="st1" d="M1072.5,2159.9c.4,7.1-11.9,25.9-18.9,28.3-9.1,3.1-13.4-10.1-7.9-26.9,2.2-6.8,5.4-13.2,12.8-13.6,7.4-.4,13.7,5.1,14.1,12.3Z"/>
      <path class="st1" d="M1562.7,2120.7c.4,7.1-9.4,26.9-18.9,28.3-9.5,1.3-11.5-12.9-7.9-26.9,1.8-6.9,5.4-13.2,12.8-13.6,7.4-.4,13.7,5.1,14.1,12.3Z"/>
      <path class="st1" d="M1343.3,2210.7c-1.8,5.4-14.3,18.7-20.5,13.9-6.1-4.6-6.7-11.1,0-20.6,3.3-4.7,7.8-8.4,13.5-6.5,5.7,1.8,8.8,7.8,7,13.2Z"/>
      <path class="st0" d="M1376.7,1584c-15.3,9-12,29.1-8.6,29.4,4,.5,4.7-14.3,14.5-19.2,9.9-4.9,24.8,5,25.7-.4,1.7-8.9-20.2-16.6-31.6-9.9Z"/>
      <path class="st0" d="M1469.5,1353.7c-19.4,16.4-37.7,83.8-20,132,5.7,15.5,17.5,5.5,15.6-7.2-8.2-53,7.5-99.6,14.7-113.8,8.3-16.5-5.4-15-10.2-11Z"/>
      <path class="st0" d="M1295.9,1191.7c6.8,6.2,13.9,15.2,18.2,23.2,2.8,5.2,7.2,6.5,10.5,4.6,3.8-2.2,3.3-7.6,1.6-11.2-4.8-10.6-12.9-21.1-22.8-27.3-9.3-5.8-13.7,5.1-7.5,10.8Z"/>
      <path class="st1" d="M1224.4,2034.6c11,10,22.4,24.6,29.4,37.5,4.6,8.5,11.7,10.5,17,7.5,6.2-3.5,5.4-12.2,2.7-18.2-7.8-17.1-20.9-34.2-37-44.3-15.1-9.4-22.1,8.3-12.1,17.4Z"/>
      <path class="st0" d="M1406.3,1256.4c6.9-5.3,17.3-11.1,25.5-13.8,5.4-1.7,8.3-3.7,7.1-7.1-1.4-3.9-6.5-4.4-10.2-3.5-10.7,2.6-22,8.3-29.5,16.5-7.1,7.7.7,12.7,7,7.9Z"/>
    </g>
    <path d="M2012.7,1116.9c-8.9,9.2-18.4,18.4-29,25.8,4.1-5.3,7.5-11.1,9.7-17.6,4.8-14.1,7.6-35.7-5.1-46.7-4.5-3.9-10.5-2.1-12.5,3.3-5.1,13.5-12.4,25.2-21.6,35.5,1.1-4.8,1.9-9.7,2.2-14.6.5-7.2-.4-14.4,0-21.6.3-7,1.4-14,2.7-20.9,1.1-5.8-5.2-12.7-11-8.5-13.9,10-26.4,22.4-33.5,38.2-.3.6-.5,1.3-.8,1.9-2.9-8.7-5.5-17.1-4.6-26.5.5-5.1-5.2-8.2-9.5-7.2-18.1,4.1-26.9,30-25.6,46.4.8,10.5,4.4,21.4,1.9,31.9-.5,2.1-1.2,5.4-4.5,8.3-7.3,6.3-14.7,12.4-21.7,19.1-21.4,20.6-37.7,45.4-47.6,73.2-12-11-25.7-20.3-39.8-28-12.7-6.9-25.6-13.8-37-22.8-9.5-7.5-17.5-16.2-24.4-26,31.9-15.9,58.3-40.9,74.5-73.1,16.6-33,22.7-70.4,21.7-107.1-1-33.7-7.5-67.9-20.2-99.2-15.8-39.1-43.3-73.4-72.3-103.6-17-17.7-35.4-34.3-55.7-48.2-8.6-6-17.6-11.4-27.2-15.8-11.9-5.5-24.5-7.5-37.5-7.6-.5,0-.9,0-1.3,0-.4,0-.9,0-1.3,0-13.1,0-25.6,2.1-37.5,7.6-9.5,4.4-18.5,9.8-27.2,15.8-20.2,14-38.6,30.5-55.7,48.2-29,30.2-56.5,64.4-72.3,103.6-12.7,31.3-19.2,65.5-20.2,99.2-1.1,36.7,5.1,74.1,21.7,107.1,16.2,32.2,42.5,57.2,74.5,73.1-6.8,9.8-14.9,18.5-24.4,26-11.4,9-24.3,15.8-37,22.8-14.1,7.7-27.8,17-39.8,28-9.9-27.8-26.2-52.7-47.6-73.2-7-6.7-14.4-12.8-21.7-19.1-3.3-2.9-4-6.3-4.5-8.3-2.5-10.5,1.1-21.4,1.9-31.9,1.3-16.4-7.5-42.3-25.6-46.4-4.3-1-10,2.1-9.5,7.2.9,9.4-1.7,17.8-4.6,26.5-.3-.6-.5-1.3-.8-1.9-7.1-15.8-19.6-28.2-33.5-38.2-5.8-4.2-12.1,2.7-11,8.5,1.3,6.9,2.3,13.8,2.7,20.9.3,7.2-.5,14.4,0,21.6.3,5,1.1,9.8,2.2,14.6-9.1-10.3-16.4-22-21.6-35.5-2.1-5.4-8-7.2-12.5-3.3-12.7,11-9.9,32.6-5.1,46.7,2.2,6.5,5.6,12.3,9.7,17.6-10.6-7.4-20.1-16.5-29-25.8-3.1-3.2-9.8-2.9-11.8,1.5-11.3,25.1,3.7,53.4,23.2,69.6,10.8,9,23.5,13.9,37.3,15.7,13.2,1.7,26.8,1.3,39.8,4.9,4.3,1.2,8.1,3.1,11.3,6.1,3.2,10.7,7.9,21.2,12.2,31.2,7.3,17.1,15.2,33.9,24,50.3,9.3,17.4,21.7,33.7,39.4,43.3,18.1,9.8,40.7,11.9,61,11.4,14.3-.3,28.7-2.4,42.1-7.2-12.7,28.7-21.5,59-25.3,90.4-5.4,45.3,1.2,90.8,16.3,133.5-2.7-1.4-5.5-2.7-8.2-3.9-17.8-7.8-39.1-12.2-57.2-2.7-13.1,6.9-17.4,22.3-19,35.9-.5,4.4-.8,8.9-.8,13.4-15.8-10.1-36.1-12.7-54.1-5.8-.9-.2-1.9-.3-2.8-.4-9-1.1-20.3-.7-27.5,5.8-8.5,7.7,0,13.6,6.2,18.1,2.7,2,5.5,4.2,8,6.6-9.9-1.3-19.8.7-29,4.8-9.7,4.4-18.6,11.3-25.5,19.3-5.5,6.3-11.3,14.3-12.5,22.8-.7,5,3.2,11.5,9.2,9.2,9.2-3.5,19-6,28.9-7.1,4.4-.5,8.9-.8,13.5-.6-15.4,10.5-25.6,28.1-26.2,48.1-.1,5.3,6.6,9.9,11.3,6.5,10.1-7.3,23.3-14.1,36.2-12.1,13.1,2,24.6,13.7,31.8,24.1,4.8,6.9,7.8,14.9,12.4,21.8,4.2,6.2,9.6,11.5,16,15.4,15.8,9.7,34.5,8.4,51.3,2.1,16.5-6.2,30-16.8,40.8-30.2,4.4,3.8,9,7.3,14,10.3,13.8,8.4,29.3,12.4,45.1,14.2-.5,12.3-3.9,23.7-10.9,34-6.8,9.9-16.4,17.3-27.2,23.5-2.4,1.4-4.9,2.7-7.5,3.9-1.2.6-2.4,1.1-3.6,1.7-.5.2-1,.5-1.6.7-.1,0-.2,0-.1,0-.1,0-.3.1-.5.2-9.2,3.7-18.5,7.1-27.8,10.6-20.6,7.6-41.2,15-61.9,22.3-40.3,14.4-80.5,29.2-119.5,46.8-35.5,16.1-70.3,33.9-101.3,57.6-51.8,39.5-95.7,91.1-124.3,149.8-11.5,23.7-21.1,48.9-25.1,75.1-3.3,21.2-3.5,43.3,5.1,63.3,3.2,7.3,9.1,19.3,17.5,21.4,4.8,1.2,10.1-.7,14.7-2.3,6.3-2.2,12.6-4.9,18.8-7.5,29.9-12.6,60.7-20.5,93.6-20.1,36.1.5,71.6,7.6,107.4,11,30.8,2.9,61.7,3.7,92.5,2.2,19.8-.9,39.6-2.8,59.3-5.2,21-2.7,42-5.6,62.6-10.4,60.8-14.3,115-46.8,152.6-97.1,34.5-46.2,52.2-103.2,60.6-159.7,4.5-30.2,6.6-60.7,6.9-91.2.2-15.2,0-30.4-.7-45.5-.6-15.5-2.2-30.9-2.5-46.3-.1-7.6-.1-15.6,1.2-22.9,1-5.5,2.6-11.1,5.1-14.9,20.2-.9,40.3-4.6,57.8-15.2,5-3,9.6-6.5,14-10.3,10.8,13.4,24.3,24,40.8,30.2,16.8,6.3,35.5,7.6,51.3-2.1,6.4-3.9,11.8-9.2,16-15.4,4.7-6.9,7.6-14.9,12.4-21.8,7.3-10.4,18.7-22.1,31.8-24.1,12.9-2,26.1,4.8,36.2,12.1,4.7,3.4,11.4-1.2,11.3-6.5-.5-20-10.8-37.6-26.2-48.1,4.5-.1,9.1.2,13.5.6,9.8,1,19.6,3.5,28.9,7.1,6,2.3,10-4.2,9.2-9.2-1.2-8.5-7-16.5-12.5-22.8-7-8.1-15.8-15-25.5-19.3-9.2-4.1-19.1-6.1-29-4.8,2.6-2.4,5.3-4.5,8-6.6,6.1-4.5,14.7-10.4,6.2-18.1-7.1-6.5-18.4-6.9-27.5-5.8-.9.1-1.9.2-2.8.4-18-6.9-38.3-4.3-54.1,5.8,0-4.5-.3-9-.8-13.4-1.6-13.6-5.9-29-19-35.9-18.1-9.6-39.4-5.1-57.2,2.7-2.7,1.2-5.5,2.5-8.2,3.9,15.1-42.7,21.7-88.2,16.3-133.5-3.8-31.4-12.6-61.7-25.3-90.4,13.4,4.7,27.8,6.9,42.1,7.2,20.3.4,42.9-1.7,61-11.4,17.7-9.6,30.1-25.9,39.4-43.3,8.7-16.4,16.7-33.2,24-50.3,4.3-10,9-20.5,12.2-31.2,3.3-3.1,7-4.9,11.3-6.1,13-3.5,26.6-3.1,39.8-4.9,13.9-1.8,26.6-6.7,37.3-15.7,19.5-16.2,34.5-44.5,23.2-69.6-2-4.4-8.7-4.7-11.8-1.5ZM1271.1,1725c-.2,0-.3,0,0,0h0ZM1137.4,2221.2c-1.1,6.2-2.4,12.3-4.1,18.3-.5,1.7-1,3.3-1.5,5-.5,0-.9,0-1.4,0-22.3-.9-44.7.9-66.5,6.1-38.3,9.1-60.8,23.5-61.7,23.1-2.1-.8-18-17.2-7.7-67.2,2.5-12.4,6.2-24.5,10.6-36.4,9.6-25.6,22.9-50.5,38.9-73.8,34.1.5,68.9,10.9,85.5,43.3,12.6,24.7,12.6,54.9,7.9,81.6ZM1194.7,2251.1c-17.5-2.2-35-4.7-52.6-6,6.2-19.4,8.6-40.6,7.9-60.5-1.1-32.5-13.2-64.9-42-82.6-17.1-10.5-37.1-14.7-57.1-15.6,17-23.3,36.6-44.8,57.5-63.8,11.1-10.1,22.9-19.4,35-28,18.2-3.1,36.8-4.3,55-1.7,26.3,3.7,50.5,15.6,68.9,34.9,23.4,24.6,37.4,57.9,38.7,91.8,1.2,29.9-6.5,59.8-19.2,86.7-8.3,17.6-18.8,36.3-32.7,50.7-19.9-1.2-39.7-3.4-59.5-5.9ZM1443.5,2241.6c-20.6,5-41.6,8.2-62.6,10.8-35.7,4.4-71.6,6.6-107.6,5.5-2.1,0-4.1-.2-6.2-.2,9.9-11.8,18-25.7,24.8-38.9,14.3-27.8,23.8-58.8,24.3-90.3,1-64.5-40.5-129.4-105.6-143.5-16-3.5-32.4-4.1-48.7-2.8,46.3-29.3,98.1-50.1,149.4-69.1,4.3-1.6,8.7-3.2,13-4.8,38,5.1,74.8,17.2,103.9,43.3,24.2,21.6,40.8,50.2,51,80.8,12.4,36.8,16.4,76.3,8.8,114.6-6.9,34.7-22.7,67-44.6,94.6ZM1604.8,2115.3c-25.6,50.6-65.9,90.1-118.6,112.4-8.9,3.7-17.9,6.9-27.1,9.7,16.1-22.6,28.5-47.7,35.6-74.6,10.1-38.2,9.3-78.4-.8-116.5-9-34.3-24.9-67.4-49.6-93.1-18.5-19.3-41.5-33.5-66.5-42.7-11.1-4-22.4-7-34-9.2,29.8-10.7,59.7-21.2,89.2-32.5,11.9-4.6,23.6-10.2,34.1-17.4,17.7-2.2,36.5-1.4,54.2,2.8,34.9,8.1,64.8,29.3,85.9,58.1,15.3,20.8,26.2,44.3,34.3,68.7-5.1,46.4-15.9,93.1-36.7,134.4ZM1895,1725c.3,0,.2,0,0,0h0ZM2003.8,1163.8c-5.9,7.7-13.3,14.8-22,19.3-12.8,6.6-27.4,6.1-41.3,7.6-8.1.9-20.8,1.4-28.5,7.4-.7-4.5,1.7-9.6-2.7-9.6s-22.3,39.3-28.8,53.9c-6.7,15.3-13.9,30.4-21.8,45-8.1,15.1-18.9,29.2-35,36.4-15.4,6.9-34.4,7.6-51,6.8-18.9-.9-39.1-5.5-53.9-18.1-9.7-17.7-21.3-25.1-25.7-22.5-4.2,2.6,25.9,66.7,31.9,83.6,16.5,46.4,19.9,96,11.4,144.6-13.8,79.1-76.3,161.4-70.1,167.1,7.7,7.1,47-50.6,62.2-82.4,9.1-10.2,22.1-18,35.5-23,10.1-3.8,27.9-8.6,37,.1,1.7,1.7,2.9,3.8,3.8,6.1,13.2,33.9-10.6,103.3-3.3,106.3,8.2,3.3,25-56.2,25.6-61.8,7-8.1,22.4-15.4,32.7-16.9-15,11.5-22.5,37.8-19,38.1,4,.3,16.2-24.6,34.7-30.4,6-1.9,12.1-3,18.4-2.8,0,0,.1,0,.2,0-1.8,1.5-3.7,3-5.4,4.5-7.8,7.1-14.2,15.5-18.1,25.2-4.4,4.1-10.4,17-7.4,19,3.3,2.1,7.8-12.3,35.4-17.7,8.2-1.6,16.7.3,24.1,4,7.8,4,14.6,9.6,20.3,16.4.3.4.6.8.9,1.1-18-4.4-37.7-5-54.4,2.2-3.9-.6-19.4,3.7-19.4,7.5,0,3.7,40.4,2,52,35.4-10.7-5-22.8-7.9-33.8-5.2-12.5,3-23.8,11.3-32.3,20.7-6.1,6.8-11.3,14.4-15.5,22.5-3.2,6.1-5.8,11.5-11,16.1-12.7,11.3-29.6,9.5-44.5,4-13.8-5.1-25.2-14.7-34.1-26.2,11.5-12.6,26.1-51.4,21.7-53.9-4.3-2.5-21.8,39.7-56.5,57.4-8.9,4.5-15.7,7.8-25.8,10-9.7,2.1-19.4,2.3-30.2,2.7-11.2.4-17.8,37.2-18,50.6-.2,15.3,1.5,30.6,2.2,45.9,1.4,29.9,1.5,59.9-.3,89.8-.1,2.3-.3,4.7-.5,7-14.4-35-35.5-67.4-66.7-89.6-26.1-18.5-57.8-27.9-89.7-28-2.2,0-4.4,0-6.6.1,5.5-5.4,10.3-11.5,14.2-18.4,8.2-14.6,11.3-31.3,10.2-47.9-.2-2.6-1.6-9.3-10-10,0,0-12.9-1-19.1-2.4-10.1-2.2-16.9-5.4-25.8-10-34.7-17.7-52.2-59.8-56.5-57.4-4.4,2.5,10.2,41.3,21.7,53.9-8.9,11.5-20.3,21.1-34.1,26.2-14.9,5.6-31.7,7.3-44.5-4-5.2-4.6-7.9-10-11-16.1-4.2-8.1-9.4-15.8-15.5-22.5-8.5-9.4-19.8-17.7-32.3-20.7-11.1-2.7-23.2.2-33.8,5.2,11.6-33.4,51.9-31.7,52-35.4,0-3.8-15.4-8.1-19.4-7.5-16.7-7.2-36.4-6.6-54.4-2.2.3-.4.6-.8.9-1.1,5.6-6.7,12.4-12.4,20.3-16.4,7.3-3.7,15.9-5.6,24.1-4,27.6,5.4,32.2,19.8,35.4,17.7,3-1.9-3-14.9-7.4-19-4-9.8-10.3-18.1-18.1-25.2-1.7-1.6-3.6-3.1-5.4-4.5,0,0,.1,0,.2,0,6.3-.3,12.4.9,18.4,2.8,18.6,5.8,30.8,30.7,34.7,30.4,3.5-.3-4-26.6-19-38.1,10.3,1.5,25.7,8.8,32.7,16.9.6,5.6,17.5,65.1,25.6,61.8,7.3-3-16.5-72.3-3.3-106.3.9-2.2,2.1-4.4,3.8-6.1,9.1-8.7,26.9-3.9,37-.1,13.4,5,26.4,12.7,35.5,23,15.3,31.8,54.5,89.6,62.2,82.4,6.2-5.8-56.3-88-70.1-167.1-8.5-48.6-5-98.2,11.4-144.6,6-16.9,36.1-81,31.9-83.6-4.3-2.6-16,4.8-25.7,22.5-14.8,12.6-35,17.2-53.9,18.1-16.6.7-35.6,0-51-6.8-16.1-7.2-26.9-21.3-35-36.4-7.9-14.7-15.1-29.8-21.8-45-6.5-14.7-23-53.9-28.8-53.9s-2,5.1-2.7,9.6c-7.7-6-20.3-6.6-28.5-7.4-13.9-1.5-28.5-1-41.3-7.6-8.7-4.5-16-11.6-22-19.3-5.2-6.7-9.5-17-9.8-26.6,38.5,32.4,59.1,35.8,64.7,27.8,2.5-3.6-36.5-29.3-33.8-62.5,3.8,7.2,8.1,14,13.3,20.4,8.4,10.4,16.5,15.6,27.2,23.6,6.5,4.9,12.4,1.7,9.3-4.3-6.5-12.9-9-29.8-8.7-44.4.1-7.4,0-14.5-.5-21.6,6.6,6.8,12.7,12.8,16.1,21.7,2.6,6.9,11.8,48.8,17.7,47.9,4.1-.7,2.7-13.6,2-19.2-.2-11.3,3.4-19.9,7-30.6,1.8-5.2,3.4-10.5,4.4-15.9,1.1,1.9,2,3.9,2.7,5.7,3,7.5,3.7,14.9,2.6,22.9-2,14.6-5.4,33.6,6.2,45.3,5.9,5.9,12.8,10.9,18.9,16.6,9.8,9,19,18.8,26.7,29.7,10.6,14.9,18.5,31.3,23.8,48.6-5.9,6.7-13,27-9,29.6,4.3,2.8,38-35.3,75.3-54.9,13.6-7.1,26.7-15.3,38.5-25.1,8.8-7.3,16.4-15.7,23.1-24.9,3.8,6.8,18.4,24.8,21.6,22.9,3.2-1.9-2.9-20.1-5.7-25.1,8.9-1.2,21.1-7.1,10.5-10.5-18-5.9-45.9-24.2-60-35.7-14-11.3-24.7-23.8-33.5-38.9-16.8-28.7-23.7-62-24.1-95.2-.6-46,10.1-94.8,34.8-134.4,11.3-18,24.4-34.9,38.4-50.8,17.1-19.3,35.7-37.8,56.3-53.4,9.4-7.1,19.2-13.6,29.6-19,10.8-5.6,21.6-8,33.9-8,.5,0,.9,0,1.3,0,.4,0,.9,0,1.3,0,12.2,0,23,2.4,33.9,8,10.4,5.4,20.2,12,29.6,19,20.6,15.6,39.2,34.1,56.3,53.4,14.1,15.9,27.2,32.8,38.4,50.8,24.7,39.6,35.4,88.4,34.8,134.4-.4,33.2-7.3,66.5-24.1,95.2-8.8,15-19.5,27.5-33.5,38.9-14.1,11.4-42,29.8-60,35.7-10.6,3.5,1.6,9.3,10.5,10.5-2.8,5-8.9,23.2-5.7,25.1,3.2,1.9,17.9-16.1,21.6-22.9,6.6,9.2,14.3,17.7,23.1,24.9,11.9,9.8,24.9,18,38.5,25.1,37.3,19.5,71,57.7,75.3,54.9,4-2.6-3.1-22.9-9-29.6,5.3-17.4,13.2-33.7,23.8-48.6,7.7-10.9,16.8-20.7,26.7-29.7,6.2-5.6,13-10.6,18.9-16.6,11.6-11.7,8.3-30.7,6.2-45.3-1.1-8-.4-15.4,2.6-22.9.7-1.8,1.6-3.8,2.7-5.7,1,5.4,2.6,10.6,4.4,15.9,3.6,10.7,7.2,19.3,7,30.6-.7,5.6-2.1,18.6,2,19.2,5.8.9,15-41,17.7-47.9,3.4-8.9,9.4-14.9,16.1-21.7-.5,7.1-.6,14.3-.5,21.6.2,14.7-2.2,31.5-8.7,44.4-3,6,2.8,9.2,9.3,4.3,10.7-8,18.8-13.2,27.2-23.6,5.2-6.4,9.5-13.2,13.3-20.4,2.7,33.1-36.4,58.9-33.8,62.5,5.6,8,26.2,4.7,64.7-27.8-.3,9.6-4.6,19.9-9.8,26.6Z"/>
  </g>
</svg>