<?xml version="1.0" encoding="UTF-8"?>
<svg id="_x2014_ÎÓÈ_x5F_1" xmlns="http://www.w3.org/2000/svg" version="1.1" viewBox="0 0 4000 4000">
  <!-- Generator: Adobe Illustrator 29.2.1, SVG Export Plug-In . SVG Version: 2.1.0 Build 116)  -->
  <defs>
    <style>
      .st0 {
        display: none;
      }

      .st0, .st1 {
        fill: #fefefe;
      }

      .st2 {
        fill: #222122;
      }

      .st3 {
        fill: #d8361e;
      }

      .st4 {
        fill: #e04319;
      }

      .st5 {
        fill: #eaffd2;
      }

      .st6 {
        fill: #f06d0b;
      }

      .st7 {
        fill: #fcbd1a;
      }
    </style>
  </defs>
  <path class="st0" d="M0,0h4000v4000H0V0Z"/>
  <path class="st3" d="M2848.9,508.8c117.3-110,287.9-203.2,441.3-249.5,30.6-9.2,61.5-15.6,92.8-21.9-123.8,120.8-203.2,327-230,495.6,67.3-42.8,154.2-61.3,232.7-64.5-74.2,68-135.7,176.6-161.5,273.8-18.7,70.2-18.5,132.8,18.7,196.3,26.6-26.9,48.3-58.3,75.8-84.8-8.3,14.9-14.4,31.2-20.1,47.2-78.1,215.3-43.9,335,48.1,532.4-40.4-23.2-83.1-48.7-120-77.2-35.4-21.5-68.7-49.5-98.9-77.8-139.8-130.8-193.3-274.7-199.8-462.1l-.3-45.2c-11.9,27.8-19.6,59.9-25.8,89.3-27,130.1-12.5,261.4,36.7,384.1,30.5,76,75.3,147.4,122.7,213.8,21.4,30,46.3,59.7,65.3,91.1,22.1,24.5,40.1,55,57.6,82.8,63.5,100.7,117.8,210.7,111.9,333.1-2.7,55.2-15,106.4-40.5,155.6-4.2,8-8.2,17.6-14.1,24.3,1.2-17,5.7-34,7.8-50.9,6.2-49.5,1.3-99.5-12.1-147.4-57.1-204.1-201.9-280.7-376-365.9-80.1-39.2-161.4-77.7-239-121.6,21.6,3.3,43.7,4.2,65.4,6.9,32.7,4,65.3,9.8,97.8,15.2-38.1-23.5-77.1-46.5-113.3-72.7-130.9-94.3-237-222.8-279.9-380.5-31.2-115-22.7-242.9,7.9-357,6.9-25.8,14.6-55.1,27.9-78.3-4.1,69.1,2.9,105.4,48,158.9-6.1-46.8-2.4-96,7-142.2,30.7-151.8,145.3-303.5,259.3-404.7,59.2-52.5,123.1-97,189-140.5-47.5,70.6-78,159.1-82.4,244Z"/>
  <path class="st7" d="M2758.2,850.6c3.1-6.4,6.3-12.7,9.5-19,43.7-85.1,110.3-172.3,192.8-222.2,41.3-25,86-41.6,131.8-56.3-54,136-48.5,255.6-8.1,392.8,17.9-37.6,41.1-70.1,70.4-99.8-17.1,70.7-24.8,141.2-32.5,213.4-8.3,78.9-18.8,160-6.2,239.1,14.2-46.3,18.7-74.4,42.9-118.6-6.1,99.7,5.5,191.7,35.4,287,8.9,28.4,25.1,56.9,31.7,85.6.3,1.2.5,2.4.8,3.5-35.4-21.5-68.7-49.5-98.9-77.8-139.8-130.8-193.3-274.7-199.8-462.1l-.3-45.2c-11.9,27.8-19.6,59.9-25.8,89.3-27,130.1-12.5,261.4,36.7,384.1,30.5,76,75.3,147.4,122.7,213.8,21.4,30,46.3,59.7,65.3,91.1-29.5-3.1-60.9-16.7-88.8-26.6-146.7-51.9-281.7-131.5-391.3-242.5,44.9,15.7,87.7,16.4,134.6,15.4-41.8-16.9-81.2-37.2-116.2-66-97.2-79.9-135.1-205.2-146.6-326.2l1.8,2.8c41.1,64.8,102,111.9,177.3,128.8-35.6-51.3-59-106.7-64.3-169.5-9.8-116.3,34.5-238.8,109-327.6,0,38.9,6,75.1,16.1,112.5Z"/>
  <path d="M442.4,1066.3c30.7-31.9,61-64,95-92.5,157.4-131.8,356.7-200.8,561.4-204.8,208.1-4.1,427.3,56.8,580.1,203.8,129.6,124.7,200.1,307.5,203.3,486,1.2,66.4-6.1,135.8-26.2,199.2,29.9,16.8,58.1,37.1,86.6,56.2,205.3,137.4,423.9,340.5,556.9,549.5,31,49.3,59.9,99.8,86.7,151.6,17,33.3,31.4,68.7,51.1,100.4,79,37.5,175.7,73.3,264.5,69.9,32.9-1.3,65-8.7,95.9-19.7,93.4-33.5,197.7-121.7,240.3-212.3,1.2-2.6,2.4-5.3,3.5-8,5.9-6.7,10-16.3,14.1-24.3,25.5-49.2,37.8-100.4,40.5-155.6,5.9-122.5-48.4-232.4-111.9-333.1-17.6-27.8-35.5-58.4-57.6-82.8-19-31.4-43.9-61.1-65.3-91.1-47.4-66.4-92.3-137.9-122.7-213.8-49.2-122.8-63.7-254.1-36.7-384.1,6.1-29.5,13.9-61.6,25.8-89.3l.3,45.2c6.5,187.4,60,331.3,199.8,462.1,30.2,28.3,63.5,56.3,98.9,77.8,36.9,28.5,79.6,54,120,77.2,11.4,18.7,19.9,39.2,28.1,59.5.6,1.2,1.2,2.3,1.9,3.5,10.1,17,64,57.9,82,74.5,23.7,21.8,45.9,45,66.6,69.6,171.5,201.4,302.2,525.4,247.3,792-11.2,54.4-32,108.4-55.8,158.4-84.7,177.7-222.9,315.9-386.3,422.8-202.7,132.6-532,189.2-771.2,176.4-34.9,106-135.7,188-228.7,244.1-10.4,25-42.7,114-67.6,124.3-5.8,2.4-12.1,1.8-17.8-.7-28.3-12.7-74-78.5-92.6-106.1-52,20.9-109.5,28.6-165.2,31.2-12.9.6-29.6,2.5-41.8-2-5.3-2-6.8-3.9-9.5-8.7-1.7-34,48.3-96.3,70.3-120.6,3.2-3.6,6.6-7.2,10-10.7-34.4-21.2-118-90.6-127.4-129.5-1-4.2-1.2-8.9,1-12.8,4.8-8.5,18.6-11.2,27.4-12.6,47.9-7.3,111.5-.4,158.7,9.4,51.5-30.8,114.1-36.6,153.6-86.9-138.5-7.3-286.1-42.3-412-101.1-71,91.2-167.3,193.9-288.4,208.6-6.1.7-12.3,1.3-18.5,1.8-20,24.1-101.1,129.1-129.6,130.6-5.1.3-8.7-1.3-12.1-5.1-19.3-21.6-36.2-99.9-43.4-129.9-32.1,3-167,18.7-185.9,5.5-4.2-3-6.2-9.5-6.2-14.4.3-32,47.4-80.6,69.4-100.5,9.9-9.1,20.4-17.5,31.4-25.2-44.9-28.9-82.3-83.6-92.6-136.2-1.9-9.7-2.2-16.7,2.8-25.3,9.7-5.5,24.6-3.1,35.3-1.5,33.2,5,65.6,16.4,98.4,23.4,110.1,23.6,175.6-20.1,250-95.6-26.1-20.8-53.1-40.4-78.5-62.1-19.4-16.8-38.3-34-56.8-51.9-18.4-17.8-36.4-36.1-53.8-55-17.4-18.8-34.3-38.1-50.6-57.9-16.3-19.8-32.1-40-47.3-60.6-20.3-28-39.8-56.7-58.4-85.9-11.5-17.7-22.2-37-35.4-53.4,10.9,28.5,54.2,105.3,38.8,133.2-3.5,6.3-8.5,9.8-15.6,11.2-27,5.4-60.8-12.8-84.7-23.7-7.2,24.3-30.3,93.1-54.1,105-5.5,2.7-10.5,2.7-16.3.7-35-12.6-72.2-74.9-87.8-107-16.8,18.2-39.2,40.5-65.6,41.8-7.5.4-15.3-1.6-21-6.8-9.7-8.9-10.9-24.1-10.9-36.4-.2-46.9,18.2-88.9,29.2-133.5,7.9-32.1,7-66.8,14-99.6,19.3-90.7,66.1-167.6,114.4-245.3-13.5-51.5-44.3-130.6-84.4-167.1-63-6.3-125.8-10.3-188.1-21.6-147.2-26.6-341.2-98.3-438.4-217.7-37.4-46-58.6-99.6-52.4-159.3,6.7-65.7,46.4-125.3,78.7-181-21.8-75.8-14.6-160.5,23.5-230.2,10.2-18.7,23.1-33.9,37.8-49.1-4.8-35.6-20.4-135.7.4-163.4,5.4-7.2,14.6-9.9,23.2-10.7,18-1.8,37.1,4.7,54.2,9.8Z"/>
  <path class="st3" d="M989.5,2285l3.8-6.5,2.4.3c10.2,19.3,15.5,42.6,22.6,63.3,9.7,27.7,20.4,55,32.1,81.9-12-4.1-24.1-8-35.8-12.9l-3.1-1.6c.2-.4.4-.8.5-1.2,3.2-12.2-15.4-110.6-22.5-123.3Z"/>
  <path class="st6" d="M989.5,2285c7.1,12.7,25.7,111.1,22.5,123.3-.1.4-.3.8-.5,1.2-24-9.9-46.6-24-69.1-36.9,13.3-30,31.1-58.9,47.1-87.5Z"/>
  <path class="st3" d="M1851.6,1671.8c7,4.1,13.4,8.9,20,13.8-11,22.9-21.2,45.9-34.5,67.7-38.2,62.6-96.5,120.7-154.1,166.3h-.6c0,.1-10.7-20.2-10.7-20.2,16.1-14.3,35.5-25.7,52.1-40,3.6-3.1,7.2-6.3,10.7-9.6,3.5-3.2,7-6.5,10.4-9.9,3.4-3.4,6.8-6.8,10.1-10.2,3.3-3.5,6.5-7,9.7-10.6,3.2-3.6,6.3-7.2,9.4-10.9,3.1-3.7,6.1-7.4,9-11.2,2.9-3.8,5.8-7.6,8.6-11.4,2.8-3.9,5.6-7.8,8.3-11.7,2.7-4,5.3-7.9,7.9-12,2.6-4,5.1-8.1,7.5-12.2,2.4-4.1,4.8-8.3,7.1-12.5,2.3-4.2,4.5-8.4,6.7-12.7,2.2-4.3,4.2-8.6,6.3-12.9,2-4.3,4-8.7,5.8-13.1,1.9-4.4,3.7-8.8,5.4-13.3,1.7-4.5,3.4-8.9,5-13.5Z"/>
  <path class="st1" d="M401.4,1255.9c5.8,0,11.3.2,16.7,2.6,12.3,5.4,20.9,17.1,25.4,29.4,6.9,19.1,7.6,43.2-1.2,61.8-6.2,13.2-14.5,19-28,23.5-5.6,0-12,.5-17.4-1.5-10.6-3.9-19.3-13.7-24-23.8-8.6-18.2-9.5-41.4-2.5-60.3,6.3-17.1,14.8-24.6,31-31.9Z"/>
  <path class="st3" d="M1607.5,3069.2c17.8-.3,49.7,18.8,67.8,25.6,58.5,22,118.6,42.4,178.1,61.5,109.6,35.1,224.3,55.4,339.6,51.4l9.2,24.5c-137.1,15.1-319.6-22.7-445.6-79.2-52.4-23.5-100.8-52.8-149-83.7Z"/>
  <path class="st6" d="M929.4,2090.8c18.1.6,36.1.8,54.2.7,18.1-.1,36.1-.6,54.2-1.4,18-.8,36.1-2,54.1-3.6,18-1.6,36-3.5,53.9-5.7,17.9-2.3,35.8-4.9,53.6-7.9,17.8-3,35.6-6.3,53.3-10,17.7-3.7,35.3-7.7,52.8-12.1,17.5-4.4,35-9.1,52.3-14.2,38.6-11.2,75.7-26.3,114-38.2,12.3,11.9,25,22.8,40.1,31.1l.2.9c-19.5,2.2-81,37.4-104.9,47.2-135.3,55.3-282.7,96.1-430.2,89.1-13.5-26.9-28.5-52.4-47.4-75.9Z"/>
  <path class="st2" d="M960.8,2661.2c-30.1,21.1-46.3,58.5-71.5,84.8-9.1,9.5-18.5,17.2-32,17.5-3.1-1.4-5.6-1.8-7.8-4.7-22.7-30.9,21.7-135.5,25.7-173.2,7.9-75.1,26.5-148.5,67.1-213.1,22.5,12.9,45.1,27,69.1,36.9l3.1,1.6c-2.5,122.6,9.6,173.7,48,288.5-15.3,44.3-28.6,88.6-40.7,133.9-41.7-41.7-55.4-68.1-81.9-120.4,7.6-17.1,14.8-34,20.8-51.8Z"/>
  <path class="st6" d="M1871.6,1685.6c74.1,51,170.3,114.6,234.2,176.6-3.9,39.9-7.1,72.6-26.9,108.2-12.1,16.1-25.9,33.5-43.5,43.9-58.8,35-146.4,33.4-210.4,16.5-65.2-17.3-108.5-53.2-141.9-111.1,57.5-45.6,115.8-103.7,154.1-166.3,13.3-21.8,23.5-44.8,34.5-67.7Z"/>
  <path class="st2" d="M1151.1,3130.4c120,.9,157.9,59,286.9,1.9,52.1,53.6,109.9,100,169.6,144.8-24,39.6-59.5,78.9-98.7,103.9-13.6,8.7-31.8,16.1-43.4,27.1-11.7,11.1-21,27.6-30.3,40.9-18.5,24.1-37.4,48.1-55.1,72.8-24.3-43-35.4-92.1-48.3-139.5-59.4,0-116.7,3.1-175.8,9,34.3-61.8,65.5-92.1,128.9-121.1-19.1-1.6-33-.7-51-10.5-43.9-23.9-68.9-84.4-82.9-129.4Z"/>
  <path class="st6" d="M2221.5,2089.4c32.1-16.3,61-25.6,97.1-26.7,99,103.4,176.6,223.2,243,349.4-15.9,36.6-39.8,74.8-78.6,90.3-13.8,5.5-28.2,7.7-43.1,7.6-37-2.3-76-16.5-101.4-44.4-34.6-38.1-53.1-110.8-79.6-158.2-8-14.4-16.6-28.9-26.7-41.9-16.5-21.4-37.4-42.4-49.5-66.7-6.2-12.5-9.9-25.2-8.8-39.3,1.9-25.8,19.5-46.5,38.5-62.5l9.1-7.7Z"/>
  <path class="st7" d="M790.5,850.5c3.1-2.2,1.4-1.5,5.3-2.2,18.7-3.3,38-11.8,56.2-17.4,33.8-10.2,68-18.7,102.6-25.6,86.6-16.5,182-17.4,269.5-9.1,20.7,2,41.4,5.1,61.9,8.3,7.2,1.1,15,3.9,22.2,4.2.7,0,1.4,0,2.1,0,183.7,43.2,345.9,128.8,447.8,293.7,4.1,6.7,8.2,13.5,12.2,20.3-54.9,56.6-150.5,118.8-224.9,146.8,4.9-7.8,10.3-15.5,14.5-23.7,18.8-27.3,47.8-88.8,44-121.9-1-9.1-5.3-17.2-12.5-22.9-26.7-21.1-86.2-12.5-117.8-8.5-138.7,17.7-274.4,80.7-381.5,169.7-23.5,19.5-46.9,40.1-68.1,62.1-60.3,62.6-117.3,140.7-209.7,153.6-27.9,3.9-58,2.8-85.5-3.1-108.8-23.2-110.8-140.7-143.6-225.7-25.9-67.3-67.4-127.4-125.1-171.1,91.6-102,200.8-180.8,330.3-227.6Z"/>
  <path class="st3" d="M846.2,1049.3c25.3-2.8,55.2-2.2,75.6,15.2,12,10.2,18.2,24.6,19.2,40.1,2.1,33.5-18.6,68.3-40.5,92.2-28.6,31.3-59.3,46.5-101.8,48.1-23-.5-44.6-4.2-64.5-16.6-15.8-9.9-27.5-23.7-31-42.4-3.9-20.9,3.6-40.8,15.3-57.9,29.2-42.6,77.7-69.4,127.7-78.8Z"/>
  <path class="st2" d="M790.5,850.5c3.1-2.2,1.4-1.5,5.3-2.2,18.7-3.3,38-11.8,56.2-17.4,33.8-10.2,68-18.7,102.6-25.6,86.6-16.5,182-17.4,269.5-9.1,20.7,2,41.4,5.1,61.9,8.3,7.2,1.1,15,3.9,22.2,4.2.7,0,1.4,0,2.1,0-2.6,10.7-4.9,21.5-10.1,31.3-15.5,29-53.3,54.1-80.6,70.6-95.2,57.6-285.3,98.1-394.8,70.9-21.1-5.2-45-15-56.6-34.4-8.8-14.8-7.9-32.6-3.1-48.6,5.6-18.9,17.1-30.2,26.3-46.7l-.8-1.5Z"/>
  <path class="st4" d="M1022.8,2284.8c22.7-12.3,45.4-23.7,70-31.6,110.5-35.5,236.6-18.5,346,13.8,94.3,27.8,201.4,75.6,278.1,137.7,49.1-33.8,133.8-70.7,194.7-58.6,15.1,3,27.1,10.8,35.3,23.8,28.8,45.4,23.9,140,12.1,189.8-.6,2.3-1.2,4.6-1.9,6.8-10.4,90.9-64.9,156.4-121.3,223.6-6.8,8.1-12.4,17-19.2,25.1,23.1,21.1,49.9,39.2,75.1,57.8,51.6,38.1,104.1,74.9,157.6,110.4,32.5,21.4,71.2,41.4,99.6,67.6,5.1,13.9,7,29.7,12.6,43.1,7.1,38.7,18.5,76.5,31.5,113.6-115.3,4.1-230-16.2-339.6-51.4-59.5-19.1-119.6-39.5-178.1-61.5-18.1-6.8-50-25.9-67.8-25.6-1.9-.9-4.1-2.3-6-3.3-237.8-134.9-418.1-393-524.2-639.5-19.6-45.4-41.5-93.9-54.6-141.5Z"/>
  <path class="st3" d="M1553.8,2913.9l1.6,1c23.7.2,75.5-39.7,92-57.2,4.3-4.6,12.6-17.8,17.9-19.2l3,4.9c-1.1,2.5-2.3,5-3.5,7.4-1.2,2.5-2.5,4.9-3.8,7.3-1.3,2.4-2.7,4.7-4.2,7.1-1.5,2.3-3,4.6-4.5,6.9-1.6,2.2-3.2,4.5-4.8,6.6-1.7,2.2-3.4,4.3-5.2,6.4-1.8,2.1-3.6,4.1-5.5,6.1-1.9,2-3.8,4-5.8,5.9-2,1.9-4,3.8-6,5.6-2.1,1.8-4.2,3.6-6.3,5.3-2.1,1.7-4.3,3.4-6.5,5-2.2,1.6-4.5,3.1-6.8,4.6-2.3,1.5-4.6,2.9-7,4.3-2.4,1.4-4.8,2.7-7.2,4-2.4,1.3-4.9,2.5-7.4,3.6-2.5,1.1-5,2.2-7.5,3.2-4.8,1.9-8.9,2.7-14,3-4.8-2.2-6.1-2.4-7.9-7.8-1.4-4.3-1.5-9.5-.6-13.9Z"/>
  <path class="st3" d="M1791,2794.2l23.9,20.3c-5.2,17.4-7.8,35.5-12.2,53.1-7.6,30.4-17.2,60.7-27.3,90.3-34.6-22-75-50.7-94.9-87.8l-.2-6.7c18.3,22.2,47.3,55.7,75.4,64.6,4.5-.7,5.8-.7,9-4.2,21.2-23.1,26.9-99.1,26.2-129.7Z"/>
  <path d="M1716.9,2404.7c49.1-33.8,133.8-70.7,194.7-58.6,15.1,3,27.1,10.8,35.3,23.8,28.8,45.4,23.9,140,12.1,189.8-.6,2.3-1.2,4.6-1.9,6.8-10.4,90.9-64.9,156.4-121.3,223.6-6.8,8.1-12.4,17-19.2,25.1l-1.7-.7-23.9-20.3c.6,30.5-5.1,106.6-26.2,129.7-3.2,3.5-4.5,3.5-9,4.2-28.1-9-57.1-42.4-75.4-64.6l-12.1-19.9-3-4.9c-5.3,1.4-13.6,14.6-17.9,19.2-16.5,17.5-68.3,57.4-92,57.2l-1.6-1c-14.1-42.8-20.3-79.3-16.1-124.4-11.1.6-22,5.1-32.7,7.9-11.8,3.1-23.8,5.4-36,6.8-12.2,1.4-24.4,2-36.6,1.6-9.6-.3-18.8-1.1-25.6-8.4-1.7-5.5-.6-8.3.9-13.6l.2-7.5c.8-44.8,29.2-82.6,58.9-113.7-9.3-10.3-41.2-4.9-55.8-9-8.2-2.3-15.2-5.4-19.3-13.1.2-4.6.5-9.2,1.3-13.7,3.1-17.8,11.6-35.1,22.8-49.2,45.5-57.6,119.9-52.8,180.2-84.6,44.2-23.3,80.2-60,121-88.5Z"/>
  <path class="st3" d="M1391.6,2640.6c35.5,3.4,68.9,3.7,104.4-1.3-10.3,7.4-20,14.9-29.3,23.4-9.3-10.3-41.2-4.9-55.8-9-8.2-2.3-15.2-5.4-19.3-13.1Z"/>
  <path class="st3" d="M1407.6,2783.8c45.4,13.9,93.5,2.1,135.3-16.9l-5.3,22.6c-11.1.6-22,5.1-32.7,7.9-11.8,3.1-23.8,5.4-36,6.8-12.2,1.4-24.4,2-36.6,1.6-9.6-.3-18.8-1.1-25.6-8.4-1.7-5.5-.6-8.3.9-13.6Z"/>
  <path class="st2" d="M1889,2354.3c13.3-1.3,26,.8,39.1,2.8,4,3.5,8.1,7,11.5,11.2,21.5,26.4,20.3,81.8,16.8,113.4-8.3,74.4-45.3,159.8-102.5,209.6-24.1,21-51.6,36.8-76.4,56.7l-1.9,1.5c-.6,40.8,7,96.6-14,133.3-2.6,4.5-4.6,5.2-9.4,6.7-4.5-.6-7.9-1.4-11.9-3.7-19.8-11.1-44.2-38-54.1-58.2-7.8-16-11.8-35.1-16.4-52.3-7.4,12.1-12.3,26-19.1,38.5-19.4,35.7-50.4,57.2-83.6,78.9-18.2-50.1-23.5-89.5-4.7-140.2,5.4-11.7,10.8-23.5,16-35.3-14.6,6.5-27.5,16.2-41.4,24-36.6,20.5-73.8,24.3-115.1,24.4,14.9-50.1,35.3-83.1,77.6-113.9,14.1-10.3,29-19.5,40-33.2-43.7,3.6-88.6,8.3-132.3,3.3,6.3-12.9,13.5-24.9,22.7-36,47.3-57.2,122.3-50.4,182.5-85.6,57.4-33.6,99.9-87.1,160.1-115.8,36.7-17.5,76.3-26.7,116.6-30.2Z"/>
  <path class="st2" d="M2927.9,1016.4c6.5,187.4,60,331.3,199.8,462.1,30.2,28.3,63.5,56.3,98.9,77.8,36.9,28.5,79.6,54,120,77.2,11.4,18.7,19.9,39.2,28.1,59.5-18.5-4-66.2-41.2-87.1-53.6-38.5-22.7-80.5-46.3-122.7-61.4l-4.8,3.4,1.6-3.8-1.7,1.9c3.8,1.8,7.4,3.6,10.9,6.1.7.5,1.3,1.1,2,1.6.2.6.3,1.3.5,1.9,5,12.2,52.2,57.1,63.8,70.3,18.7,21.2,36.7,43.2,54.8,65,136,163.8,251.1,360.5,243.6,580.1-1.7,50.9-9,101.4-25.4,149.8-50.6,149.5-158.7,255.1-298.1,323.3-169.7,83.1-365.8,80.6-541.9,19.8-146.7-50.6-277.6-150.7-384.6-261.1-41.8-43.2-80.2-89.6-121.8-133.1-14-14.7-28.4-29.1-43.2-43-14.8-13.9-30-27.4-45.6-40.5-15.6-13.1-31.5-25.7-47.8-37.8-16.3-12.2-32.9-23.9-49.9-35.1-85.9-57.7-182.6-112.4-279.9-148.3-62.6-23.1-126.9-34.4-185.5-68.2l-.2-.9c12.4-15.1,51.7-31.6,70.5-42.4,33.4-19.3,72.1-40.7,100.2-67.3h.6c33.4,57.8,76.7,93.7,141.9,111,64,17,151.7,18.5,210.4-16.5,17.5-10.4,31.4-27.8,43.5-43.9,8.8-3.1,12.3-10.5,16.2-18.6,12.8-26.6,14-58.1,16.8-87,28.2,18.6,52.7,43,77.3,66,43.8,40.8,87.5,82.5,126.7,127.9-26.5-.6-70.9,6.6-91.2,25.5-2.8,2.6-1.9,1.5-3.2,5.2l-9.1,7.7c-19,16-36.6,36.7-38.5,62.5-1,14.1,2.6,26.7,8.8,39.3,12.1,24.3,33,45.3,49.5,66.7,10.1,13.1,18.7,27.5,26.7,41.9,26.5,47.5,45,120.2,79.6,158.2,25.4,27.9,64.4,42.1,101.4,44.4,1.6,3.8.4,3,4,4.5,12.1,5.1,34.6-4,46-9.6,36.6-17.7,61-50.3,76.4-87.1,11.7,23.1,41.3,97,60.6,108.8,12.9,7.9,33.4,12.2,43.1,23.7,94.7,35.7,190.7,66.6,293,46.2,9.3,31.1,14.2,57.8-2.1,88-1.1,2.1-2.3,4.2-3.5,6.2,6.2-3,9.4-6.4,12.9-12.3,15.1-25.3,5.9-57.4-1.1-83.7,59.9-19.6,116.3-45.9,165.3-86.1,68.3-56.1,128.5-139,159-222.3,65.9-179.9-14.3-351.6-115.2-499.4-59.8-87.6-127.4-168.2-178.5-261.9-74-135.6-109.3-281.2-93.4-435.7,2.2-21.1,3.7-58.8,21.4-73.1Z"/>
  <path class="st6" d="M2670.1,2550.4c94.7,35.7,190.7,66.6,293,46.2,9.3,31.1,14.2,57.8-2.1,88-1.1,2.1-2.3,4.2-3.5,6.2-16.4,17.7-29.9,28.4-52.2,38.2-49.3,21.6-112.5,34-164.1,13.2-32.9-13.3-60.6-39.3-74.1-72.4-14.7-36.2-11.8-83.7,2.9-119.4Z"/>
  <path class="st2" d="M3539.6,1897.2c26.5,8,87.9,123.2,102.8,151,96.2,179.5,162.4,424.5,101.8,625.1-63,208.8-251.2,375.7-438.5,475.4-161.9,86.2-352.5,136.5-535.6,143.5-66.9,2.5-132.6-1.5-199.2-6.8-10.4-77.1-58.6-147.3-119.5-193.9-41.8-32-90.1-56.1-139.1-75.1,93.6,71,213.1,139.1,230.4,267.8,9.1,67.8-9.3,130.2-51,184.1-32.4,41.8-73.7,77.8-116.1,109.1-19.6,14.5-46.1,28.1-61.8,46.6-20.5,24.3-33,83.6-56.9,117.4-39-33.5-74.7-73.7-101.5-117.8-76.3,13.4-121.3,32.8-203.4,34,24.8-45.9,55-82.9,89.8-121.5-53.3-33.6-110.8-75.5-142.3-131.8,44.7-5.9,93-6,138-1.8,13.2,1.2,28.5,9.8,41.1,9.1,9.1-.5,24.7-10.6,33.4-14.4,48-20.5,94.2-33.4,127.8-76.5,10.3-13.2,16.6-26.9,20.1-43.2-14.6-43-49.7-77.2-70.2-117.7-7.3-14.4-19-58.5-27.3-66.5l-1.2.7c-5.6-13.3-7.4-29.1-12.6-43.1-28.4-26.2-67.1-46.3-99.6-67.6-53.4-35.5-106-72.3-157.6-110.4-25.2-18.5-52-36.7-75.1-57.8,6.8-8,12.3-17,19.2-25.1,56.4-67.2,110.9-132.7,121.3-223.6,60.9,45.2,122.3,88.8,181.3,136.6,49.7,40.1,97.6,82.5,147.9,122,106.4,83.5,222.8,150.9,352.2,191.5,224.5,70.6,463.5,54,672.7-55.4,163.1-85.3,294.6-223.3,349.5-401.2,69.4-224.8-16.7-464.2-121.1-662.7Z"/>
  <path class="st7" d="M3172.9,1587.2c136.2,75.2,280.3,178,366.8,310.1,104.4,198.6,190.5,437.9,121.1,662.7-54.9,177.9-186.4,315.9-349.5,401.2-209.2,109.4-448.2,126-672.7,55.4-129.4-40.7-245.8-108-352.2-191.5-50.3-39.5-98.2-81.9-147.9-122-59.1-47.7-120.4-91.3-181.3-136.6.7-2.3,1.3-4.5,1.9-6.8,11.8-49.8,16.7-144.4-12.1-189.8-8.3-13-20.2-20.8-35.3-23.8-61-12-145.6,24.9-194.7,58.6-76.6-62.1-183.8-109.9-278.1-137.7-109.4-32.2-235.5-49.3-346-13.8-24.6,7.9-47.4,19.3-70,31.6-16.9-38.7-28.3-79.5-46-118.1,147.5,7.1,294.9-33.8,430.2-89.1,23.9-9.8,85.4-45,104.9-47.2,58.6,33.8,122.9,45.2,185.5,68.2,97.3,35.9,194,90.5,279.9,148.3,16.9,11.2,33.6,22.9,49.9,35.1,16.3,12.2,32.2,24.8,47.8,37.8,15.6,13.1,30.8,26.5,45.6,40.5,14.8,13.9,29.2,28.2,43.2,43,41.6,43.5,80,89.9,121.8,133.1,107,110.5,237.9,210.5,384.6,261.1,176.1,60.8,372.2,63.2,541.9-19.8,139.4-68.2,247.5-173.8,298.1-323.3,16.4-48.4,23.6-98.9,25.4-149.8,7.5-219.6-107.6-416.3-243.6-580.1-18.1-21.8-36-43.8-54.8-65-11.6-13.2-58.8-58.1-63.8-70.3-.2-.6-.4-1.2-.5-1.9Z"/>
  <path class="st2" d="M382.3,1217c-2.6-24.8-14.5-120.6.3-138.4,2-2.4,4.1-3.3,7.2-3.7,33.7-4.3,86.7,37.6,108.8,60.7,39.2,41.1,66.5,95.1,84.8,148.4,36.5,106.5,44.7,199.4,180.3,203.9,42.8,1.4,95.2-10.8,133.2-30.2,56.5-28.9,93-76.5,137-120.1,6.7-6.7,13.5-13.3,20.5-19.7,6.9-6.4,14-12.8,21.2-19,7.2-6.2,14.4-12.3,21.8-18.2,7.4-5.9,14.9-11.7,22.5-17.4,7.6-5.7,15.3-11.2,23.1-16.6,7.8-5.4,15.7-10.6,23.7-15.8,8-5.1,16-10.1,24.2-14.9,8.2-4.8,16.4-9.5,24.7-14,8.3-4.5,16.7-8.9,25.2-13.1,8.5-4.2,17-8.3,25.7-12.2,8.6-3.9,17.3-7.7,26.1-11.3,8.8-3.6,17.6-7.1,26.5-10.4,8.9-3.3,17.8-6.4,26.8-9.4,9-3,18-5.8,27.1-8.4,9.1-2.6,18.2-5.1,27.4-7.5,9.2-2.3,18.4-4.5,27.7-6.5,40.9-9,105.7-23.2,145.6-10.8,6.4,2,10.2,4.4,13.6,10.5,4.3,32.4-29.7,96.5-49.4,122.3-8.7,11.4-18.3,22.2-27.6,33.1,17-7.7,34.5-28.5,49.8-32.4-4.2,8.2-9.6,15.9-14.5,23.7,74.4-28,170.1-90.2,224.9-146.8,46,58.6,81,219.7,85.9,294,2.5,37,.2,75-4.1,111.8-13.6,115.4-60.5,210.1-152.5,282.8-28.9,22.8-61.2,41.3-93.3,59.2-182.3,101.6-399.8,152-607.5,159.7-84.4,3.1-170-2.9-253.9-13.1-153.2-18.6-361.4-58.6-461.5-186.9-32.6-41.8-46.8-89.2-40-141.9,7.3-56.5,36.7-114.6,67.4-162.2,17.8,20.6,37.7,39.7,66.6,41.2,20.4,1.1,40.1-8.5,54.5-22.6,38.3-37.5,50.8-100.4,50.4-151.9-.4-51.4-13.8-118.2-51.4-156.1-14.3-14.4-28.8-19.9-48.8-19.9Z"/>
  <path d="M981.8,1644.4c0,1.3,0,2.7-.2,4-.9,4.5-6.2,11.2-8.9,15.3-22.8,34.5-56.7,56.5-93.9,72.7-.2-1.3.7-2.5,1.1-3.8,37-25.1,69.9-57.3,102-88.2Z"/>
  <path d="M322.6,1743.6c14.3,5.6,28,22.2,40.9,31.5,17.6,12.7,36.7,23.9,56.1,33.7,203.5,101.7,525.3,109.2,745,64.9,47.3-9.6,94.5-20.7,140.3-36,23.7-7.9,46.5-18,70.2-25.9l-21.6,12.2c-29.5,15.9-61.2,28.4-92.5,40.2-169.7,63.9-351.2,77-530.7,55.9-137.5-16.2-318.6-63.4-407.9-176.4Z"/>
  <path d="M1310,1238.9c35.9-4.1,71.4,2.9,102.2,22,42.6,26.4,71.6,72.5,82.6,120.9,13.3,58.9-.5,122.8-33.1,173.3-29.9,46.3-70.8,72.7-124.3,83.9-2.5.3-5.1.6-7.6.8-2.5.2-5.1.4-7.6.5-2.5,0-5.1.1-7.6,0-2.5,0-5.1-.1-7.6-.3-2.5-.2-5.1-.4-7.6-.6-2.5-.3-5.1-.6-7.6-1-2.5-.4-5-.8-7.5-1.4-2.5-.5-5-1.1-7.4-1.7-2.5-.6-4.9-1.3-7.4-2.1-2.4-.7-4.9-1.6-7.3-2.4-2.4-.9-4.8-1.8-7.1-2.8-2.4-1-4.7-2-7-3.1-2.3-1.1-4.6-2.2-6.8-3.4-2.2-1.2-4.5-2.4-6.7-3.8-2.2-1.3-4.3-2.7-6.5-4.1-2.1-1.4-4.2-2.9-6.3-4.4-41.3-30.2-68.2-77.6-75.9-127.9-.6-3.7-1.1-7.5-1.5-11.3-.4-3.8-.7-7.5-.9-11.3-.2-3.8-.3-7.6-.3-11.4,0-3.8,0-7.6.2-11.4.2-3.8.4-7.6.8-11.3.4-3.8.8-7.5,1.3-11.3.5-3.7,1.2-7.5,1.9-11.2s1.5-7.4,2.4-11.1c.9-3.7,1.9-7.3,3-11,1.1-3.6,2.3-7.2,3.5-10.8,1.3-3.6,2.6-7.1,4.1-10.6,1.4-3.5,3-7,4.6-10.4,1.6-3.4,3.3-6.8,5.1-10.2,1.8-3.3,3.6-6.6,5.6-9.9,1.9-3.3,4-6.5,6.1-9.6,2.1-3.2,4.3-6.3,6.5-9.3,29.6-40,72.8-63.5,121.7-70.6Z"/>
  <path class="st5" d="M1252,1289.7c12.2-1.5,22.7-2.3,34.3,3,13.9,6.3,23.1,18.4,28,32.6,8.2,23.5,5.4,51.6-5.5,73.8-9.6,19.6-23.4,31.6-44.1,38.2-8.7.7-17.5.9-25.9-1.7-14.3-4.4-25.2-14.6-31.6-27.9-10.3-21.6-9.6-48.2-1-70.3,9-23,23.4-37.9,45.8-47.6Z"/>
</svg>