<?xml version="1.0" encoding="utf-8"?>
<!-- Generator: Adobe Illustrator 27.9.0, SVG Export Plug-In . SVG Version: 6.00 Build 0)  -->
<svg version="1.1" id="Ebene_1" xmlns="http://www.w3.org/2000/svg" xmlns:xlink="http://www.w3.org/1999/xlink" x="0px" y="0px"
	 viewBox="0 0 288.6 51" style="enable-background:new 0 0 288.6 51;" xml:space="preserve">
<style type="text/css">
	.st0{fill:#E63312;}
</style>
<g>
	<path d="M263.1,24.7h2.2v6.1c0,2.4,1.8,3.5,3.3,3.5c0.6,0,1.3-0.1,2.3-0.7l-0.7-1.7c0,0-0.6,0.5-1.3,0.5c-1.1,0-1.6-0.6-1.6-1.7v-6
		h3.5v-1.8h-3.5v-3.4h-2v3.4h-2.2V24.7z M255.7,22.6c-2.4,0-3.3,2.1-3.3,2.1s-0.7-2.1-3.5-2.1c-2.3,0-3.1,1.9-3.1,1.9v-1.6H244V34h2
		v-7.7c0,0,0.7-1.8,2.4-1.8c1.4,0,2.4,0.9,2.4,2.7V34h2v-7.7c0,0,0.7-1.8,2.4-1.8c1.4,0,2.4,0.9,2.4,2.7V34h2v-7.1
		C259.6,24.1,258,22.6,255.7,22.6 M234.3,32.5c-1.2,0-2.5-0.6-2.5-2c0-1.2,1.1-2,2.8-2c1.8,0,2.9,0.8,2.9,0.8v1.6
		C237.5,30.8,236.3,32.5,234.3,32.5 M234.7,22.6c-2.4,0-4.2,1.1-4.2,1.1l0.8,1.7c0,0,1.6-0.9,3.3-0.9c0.9,0,2.8,0.3,2.8,2.6v0.6
		c0,0-1.3-0.9-3.3-0.9c-2.5,0-4.4,1.5-4.4,3.7c0,2.4,2.1,3.8,4.1,3.8c2.5,0,3.8-1.9,3.8-1.9V34h1.8v-7.3
		C239.5,24.6,237.9,22.6,234.7,22.6 M225.9,22.6c-2.1,0-3.1,2-3.1,2v-1.7H221V34h2v-7.6c0,0,0.8-1.9,2.5-1.9c0.8,0,1.3,0.2,1.3,0.2
		l0.7-1.8C227.5,22.9,226.8,22.6,225.9,22.6 M208.3,27.5c0.1-1.2,1.1-3,3.5-3c2.2,0,3.4,1.8,3.4,3H208.3z M211.8,22.6
		c-3.3,0-5.5,2.6-5.5,5.8c0,3.3,2.4,5.8,5.8,5.8c2.9,0,4.6-2.2,4.6-2.2l-1.3-1.3c0,0-1.2,1.6-3.3,1.6c-2.1,0-3.7-1.6-3.8-3.2h9
		c0-0.3,0-0.4,0-0.6C217.2,24.9,214.9,22.6,211.8,22.6 M200.1,34h2V15.8h-2V34z M186.5,22.9v1.9h6l-6.4,9.2h9.6v-1.9h-6.1l6.4-9.2
		H186.5z M178.2,22.6c-2.4,0-3.4,1.8-3.4,1.8v-1.6H173V34h2v-7.6c0,0,1-1.9,2.8-1.9c1.5,0,2.7,0.8,2.7,2.7V34h2v-7.1
		C182.4,24.1,180.5,22.6,178.2,22.6 M163.3,32.5c-1.2,0-2.5-0.6-2.5-2c0-1.2,1.1-2,2.8-2c1.8,0,2.9,0.8,2.9,0.8v1.6
		C166.4,30.8,165.2,32.5,163.3,32.5 M163.6,22.6c-2.4,0-4.2,1.1-4.2,1.1l0.8,1.7c0,0,1.6-0.9,3.3-0.9c0.9,0,2.8,0.3,2.8,2.6v0.6
		c0,0-1.3-0.9-3.3-0.9c-2.5,0-4.4,1.5-4.4,3.7c0,2.4,2.1,3.8,4.1,3.8c2.5,0,3.8-1.9,3.8-1.9V34h1.8v-7.3
		C168.5,24.6,166.9,22.6,163.6,22.6 M153.5,34h2.8l-5.6-5.9l5.2-5.2h-2.6l-4.8,4.9v-12h-2V34h2v-5.4L153.5,34z M133,32
		c0,0,1.6,2.3,4.8,2.3c2.1,0,4.4-1.1,4.4-3.2c0-2.3-1.8-3-3.9-3.5c-1.8-0.4-2.7-0.8-2.7-1.7c0-0.7,0.7-1.4,2.1-1.4
		c1.7,0,2.8,1.2,2.8,1.2l1.3-1.4c0,0-1.5-1.7-4.1-1.7c-2.5,0-4.1,1.6-4.1,3.2c0,2.1,1.7,3,4.1,3.5c1.7,0.3,2.5,0.8,2.5,1.8
		c0,0.9-1.3,1.4-2.4,1.4c-2.2,0-3.4-1.8-3.4-1.8L133,32z M121.1,27.5c0.1-1.2,1.1-3,3.5-3c2.2,0,3.4,1.8,3.4,3H121.1z M124.6,22.6
		c-3.3,0-5.5,2.6-5.5,5.8c0,3.3,2.4,5.8,5.8,5.8c2.9,0,4.6-2.2,4.6-2.2l-1.3-1.3c0,0-1.2,1.6-3.3,1.6c-2.1,0-3.7-1.6-3.8-3.2h9
		c0-0.3,0-0.4,0-0.6C130,24.9,127.7,22.6,124.6,22.6 M112.8,30.5c0,0-1.1,1.9-3.3,1.9c-2.3,0-3.7-1.8-3.7-4s1.5-4,3.7-4
		s3.3,1.9,3.3,1.9V30.5z M109.3,22.6c-3,0-5.4,2.6-5.4,5.8s2.4,5.8,5.4,5.8c2.7,0,3.7-1.9,3.7-1.9V34h1.8V15.8h-2v8.4
		C112.8,24.3,111.7,22.6,109.3,22.6 M96,22.6c-2.4,0-3.4,1.8-3.4,1.8v-1.6h-1.9V34h2v-7.6c0,0,1-1.9,2.8-1.9c1.5,0,2.7,0.8,2.7,2.7
		V34h2v-7.1C100.1,24.1,98.2,22.6,96,22.6 M80.9,34.3c2.4,0,3.4-2,3.4-2V34h1.9V22.9h-2v7.7c0,0-0.9,1.8-2.8,1.8
		c-1.5,0-2.7-0.8-2.7-2.7v-6.8h-2V30C76.7,32.8,78.7,34.3,80.9,34.3 M64.2,24.4v-5.3H67c1.9,0,3,1,3,2.7s-1.2,2.7-3,2.7H64.2z
		 M67.5,32.1h-3.2v-5.8h3.2c2.4,0,3.5,1.3,3.5,2.9S69.9,32.1,67.5,32.1 M62.2,34h5.3c3.3,0,5.5-1.9,5.5-4.8c0-3.3-2.6-4.1-2.8-4.1
		c0.2,0,1.9-1,1.9-3.3c0-2.8-1.9-4.6-5.4-4.6h-4.4V34z"/>
</g>
<polygon class="st0" points="43.2,22.7 43.2,17 17,17 19.7,22.7 "/>
<polygon class="st0" points="24.9,34 43.2,34 43.2,28.3 22.3,28.3 "/>
</svg>
