<svg width="87" height="88" viewBox="0 0 87 88" fill="none" xmlns="http://www.w3.org/2000/svg">
<rect width="28224" height="15124" transform="translate(-19523 -4774)" fill="white"/>
<rect width="5517" height="4626" transform="translate(-479 -3475)" fill="#D9D9D9"/>
<rect width="631" height="631" transform="translate(-369 -371)" fill="white"/>
<path d="M27.6606 3.38159L3.07812 27.982V62.7692L27.6606 87.3696H62.4223L87.0047 62.7692V27.982L62.4223 3.38159H27.6606Z" fill="#FFB400"/>
<path d="M24.5824 83.988L0 59.3876V24.5966L24.5824 0H59.3442L83.9266 24.5966V59.3876L59.3442 83.988H24.5824Z" fill="#FFB400"/>
<path d="M29.5447 72.0076L11.9766 54.4266V29.5622L29.5447 11.9812H54.3909L71.9591 29.5622V54.4266L54.3909 72.0076H29.5447Z" fill="#FFB400"/>
<path d="M33.5194 62.406L21.5703 50.4481V33.5365L33.5194 21.5825H50.4148L62.3639 33.5365V50.4481L50.4148 62.406H33.5194Z" fill="#FFB400"/>
<path opacity="0.3" d="M24.5859 83.9883L59.3477 0.000244141L83.9301 24.5968V59.3878L59.3477 83.9883H24.5859Z" fill="#AA8662"/>
<path d="M24.5824 83.988L0 59.3876V24.5966L24.5824 0H59.3442L83.9266 24.5966V59.3876L59.3442 83.988H24.5824Z" fill="#FFD966"/>
<path d="M29.5447 72.0076L11.9766 54.4266V29.5622L29.5447 11.9812H54.3909L71.9591 29.5622V54.4266L54.3909 72.0076H29.5447Z" fill="#FFB400"/>
<path d="M33.5194 62.406L21.5703 50.4481V33.5365L33.5194 21.5825H50.4148L62.3639 33.5365V50.4481L50.4148 62.406H33.5194Z" fill="#FFD966"/>
<path opacity="0.3" d="M24.5859 83.9883L59.3477 0.000244141L83.9301 24.5968V59.3878L59.3477 83.9883H24.5859Z" fill="#AA8662"/>
<path d="M44.2402 52.208H40.7334C40.8838 49.3232 40.959 46.3291 40.959 43.2256C40.959 39.6299 40.8838 36.9775 40.7334 35.2686L36.0576 37.6064L35.0938 35.8223L42.4766 30.3877H44.2402C44.1035 34.8037 44.0352 39.083 44.0352 43.2256C44.0352 46.1514 44.1035 49.1455 44.2402 52.208Z" fill="#AA8662"/>
</svg>
