<svg width="61" height="61" viewBox="0 0 61 61" fill="none" xmlns="http://www.w3.org/2000/svg">
<g clip-path="url(#clip0_719_8704)">
<path d="M58.9652 0H2.03477C0.911147 0 0 0.914694 0 2.03465V58.9689C0 60.0853 0.911147 61.0036 2.03477 61.0036H58.9688C60.0853 61.0036 61.0036 60.0889 61.0036 58.9689V2.03465C61.0036 0.918295 60.0889 0 58.9688 0H58.9652ZM44.7326 40.6679C46.9727 40.6679 48.7986 42.4973 48.7986 44.7336C48.7986 46.9699 46.9691 48.7993 44.7326 48.7993C42.4962 48.7993 40.6667 46.9663 40.6667 44.7336C40.6667 42.5009 42.4998 40.6679 44.7326 40.6679ZM26.4305 30.5018C26.4305 28.2691 28.2635 26.4361 30.4964 26.4361C32.7292 26.4361 34.5623 28.2691 34.5623 30.5018C34.5623 32.7345 32.7328 34.5675 30.4964 34.5675C28.2599 34.5675 26.4305 32.7381 26.4305 30.5018ZM16.2638 20.3321C14.0309 20.3321 12.2014 18.5027 12.2014 16.2664C12.2014 14.0301 14.0309 12.2007 16.2638 12.2007C18.4966 12.2007 20.3297 14.0337 20.3297 16.2664C20.3297 18.4991 18.5002 20.3321 16.2638 20.3321Z" fill="#FFFCEE"/>
<path d="M44.7325 40.668C46.9689 40.668 48.7984 42.4974 48.7984 44.7337C48.7984 46.97 46.9689 48.7994 44.7325 48.7994C42.496 48.7994 40.6665 46.97 40.6665 44.7337C40.6665 42.4974 42.496 40.668 44.7325 40.668Z" fill="#FCD836"/>
<path d="M30.5 26.436C32.7365 26.436 34.566 28.2654 34.566 30.5017C34.566 32.7381 32.7365 34.5674 30.5 34.5674C28.2636 34.5674 26.4341 32.7381 26.4341 30.5017C26.4341 28.2654 28.2636 26.436 30.5 26.436Z" fill="#F78004"/>
<path d="M16.2637 12.2007C18.5002 12.2007 20.3296 14.0301 20.3296 16.2664C20.3296 18.5027 18.5002 20.3321 16.2637 20.3321C14.0272 20.3321 12.1978 18.5027 12.1978 16.2664C12.1978 14.0301 14.0272 12.2007 16.2637 12.2007Z" fill="#E03102"/>
<path d="M48.7986 14.2318H22.0152C21.1797 11.8694 18.918 10.1661 16.2638 10.1661C12.9037 10.1661 10.1667 12.9065 10.1667 16.2664C10.1667 19.6263 12.9001 22.3668 16.2638 22.3668C18.918 22.3668 21.1797 20.667 22.0152 18.3011H48.7986C49.9186 18.3011 50.8333 17.3936 50.8333 16.2664C50.8333 15.1393 49.9222 14.2318 48.7986 14.2318ZM16.2638 18.3011C15.1474 18.3011 14.2362 17.39 14.2362 16.2664C14.2362 15.1429 15.1474 14.2318 16.2638 14.2318C17.3802 14.2318 18.2986 15.1429 18.2986 16.2664C18.2986 17.39 17.3874 18.3011 16.2638 18.3011ZM18.2986 28.4671H12.2014C11.0742 28.4671 10.1667 29.3782 10.1667 30.5018C10.1667 31.6254 11.0742 32.5365 12.2014 32.5365H18.2986C19.4258 32.5365 20.3333 31.6254 20.3333 30.5018C20.3333 29.3782 19.4258 28.4671 18.2986 28.4671ZM48.7986 28.4671H36.2478C35.4123 26.1048 33.1506 24.4014 30.4964 24.4014C27.1363 24.4014 24.3957 27.1419 24.3957 30.5018C24.3957 33.8617 27.1363 36.6022 30.4964 36.6022C33.1506 36.6022 35.4123 34.9024 36.2478 32.5365H48.7986C49.9186 32.5365 50.8333 31.6254 50.8333 30.5018C50.8333 29.3782 49.9222 28.4671 48.7986 28.4671ZM30.4964 32.5329C29.3764 32.5329 28.4616 31.6218 28.4616 30.4982C28.4616 29.3746 29.3728 28.4635 30.4964 28.4635C31.62 28.4635 32.5312 29.3746 32.5312 30.4982C32.5312 31.6218 31.62 32.5329 30.4964 32.5329ZM32.5312 42.6989H12.2014C11.0742 42.6989 10.1667 43.61 10.1667 44.7336C10.1667 45.8571 11.0742 46.7682 12.2014 46.7682H32.5312C33.6584 46.7682 34.5659 45.8571 34.5659 44.7336C34.5659 43.61 33.6584 42.6989 32.5312 42.6989ZM44.7326 38.6332C41.3725 38.6332 38.6319 41.3665 38.6319 44.7336C38.6319 48.1007 41.3725 50.8339 44.7326 50.8339C48.0927 50.8339 50.8333 48.1007 50.8333 44.7336C50.8333 41.3665 48.0999 38.6332 44.7326 38.6332ZM44.7326 46.7682C43.6126 46.7682 42.6978 45.8571 42.6978 44.7336C42.6978 43.61 43.609 42.6989 44.7326 42.6989C45.8562 42.6989 46.7674 43.61 46.7674 44.7336C46.7674 45.8571 45.8562 46.7682 44.7326 46.7682ZM16.2638 22.3668C18.918 22.3668 21.1797 20.667 22.0152 18.3011H48.7986C49.9186 18.3011 50.8333 17.3936 50.8333 16.2664C50.8333 15.1393 49.9222 14.2318 48.7986 14.2318H22.0152C21.1797 11.8694 18.918 10.1661 16.2638 10.1661C12.9037 10.1661 10.1667 12.9065 10.1667 16.2664C10.1667 19.6263 12.9001 22.3668 16.2638 22.3668ZM16.2638 14.2318C17.3838 14.2318 18.2986 15.1429 18.2986 16.2664C18.2986 17.39 17.3874 18.3011 16.2638 18.3011C15.1402 18.3011 14.2362 17.39 14.2362 16.2664C14.2362 15.1429 15.1474 14.2318 16.2638 14.2318ZM48.7986 28.4671H36.2478C35.4123 26.1048 33.1506 24.4014 30.4964 24.4014C27.1363 24.4014 24.3957 27.1419 24.3957 30.5018C24.3957 33.8617 27.1363 36.6022 30.4964 36.6022C33.1506 36.6022 35.4123 34.9024 36.2478 32.5365H48.7986C49.9186 32.5365 50.8333 31.6254 50.8333 30.5018C50.8333 29.3782 49.9222 28.4671 48.7986 28.4671ZM30.4964 32.5329C29.3764 32.5329 28.4616 31.6218 28.4616 30.4982C28.4616 29.3746 29.3728 28.4635 30.4964 28.4635C31.62 28.4635 32.5312 29.3746 32.5312 30.4982C32.5312 31.6218 31.62 32.5329 30.4964 32.5329ZM44.7326 38.6332C41.3725 38.6332 38.6319 41.3665 38.6319 44.7336C38.6319 48.1007 41.3725 50.8339 44.7326 50.8339C48.0927 50.8339 50.8333 48.1007 50.8333 44.7336C50.8333 41.3665 48.0999 38.6332 44.7326 38.6332ZM44.7326 46.7682C43.6126 46.7682 42.6978 45.8571 42.6978 44.7336C42.6978 43.61 43.609 42.6989 44.7326 42.6989C45.8562 42.6989 46.7674 43.61 46.7674 44.7336C46.7674 45.8571 45.8562 46.7682 44.7326 46.7682ZM32.5312 42.6989H12.2014C11.0742 42.6989 10.1667 43.61 10.1667 44.7336C10.1667 45.8571 11.0742 46.7682 12.2014 46.7682H32.5312C33.6584 46.7682 34.5659 45.8571 34.5659 44.7336C34.5659 43.61 33.6584 42.6989 32.5312 42.6989ZM12.2014 32.5329H18.2986C19.4258 32.5329 20.3333 31.6218 20.3333 30.4982C20.3333 29.3746 19.4258 28.4635 18.2986 28.4635H12.2014C11.0742 28.4635 10.1667 29.3746 10.1667 30.4982C10.1667 31.6218 11.0742 32.5329 12.2014 32.5329ZM58.9652 0H2.03477C0.911147 0 0 0.914694 0 2.03465V58.9689C0 60.0853 0.911147 61.0036 2.03477 61.0036H58.9688C60.0853 61.0036 61.0036 60.0889 61.0036 58.9689V2.03465C61.0036 0.918295 60.0889 0 58.9688 0H58.9652ZM58.9652 58.9689H2.03477V2.03465H58.9688V58.9689H58.9652ZM16.2638 22.3668C18.918 22.3668 21.1797 20.667 22.0152 18.3011H48.7986C49.9186 18.3011 50.8333 17.3936 50.8333 16.2664C50.8333 15.1393 49.9222 14.2318 48.7986 14.2318H22.0152C21.1797 11.8694 18.918 10.1661 16.2638 10.1661C12.9037 10.1661 10.1667 12.9065 10.1667 16.2664C10.1667 19.6263 12.9001 22.3668 16.2638 22.3668ZM16.2638 14.2318C17.3838 14.2318 18.2986 15.1429 18.2986 16.2664C18.2986 17.39 17.3874 18.3011 16.2638 18.3011C15.1402 18.3011 14.2362 17.39 14.2362 16.2664C14.2362 15.1429 15.1474 14.2318 16.2638 14.2318ZM48.7986 28.4671H36.2478C35.4123 26.1048 33.1506 24.4014 30.4964 24.4014C27.1363 24.4014 24.3957 27.1419 24.3957 30.5018C24.3957 33.8617 27.1363 36.6022 30.4964 36.6022C33.1506 36.6022 35.4123 34.9024 36.2478 32.5365H48.7986C49.9186 32.5365 50.8333 31.6254 50.8333 30.5018C50.8333 29.3782 49.9222 28.4671 48.7986 28.4671ZM30.4964 32.5329C29.3764 32.5329 28.4616 31.6218 28.4616 30.4982C28.4616 29.3746 29.3728 28.4635 30.4964 28.4635C31.62 28.4635 32.5312 29.3746 32.5312 30.4982C32.5312 31.6218 31.62 32.5329 30.4964 32.5329ZM44.7326 38.6332C41.3725 38.6332 38.6319 41.3665 38.6319 44.7336C38.6319 48.1007 41.3725 50.8339 44.7326 50.8339C48.0927 50.8339 50.8333 48.1007 50.8333 44.7336C50.8333 41.3665 48.0999 38.6332 44.7326 38.6332ZM44.7326 46.7682C43.6126 46.7682 42.6978 45.8571 42.6978 44.7336C42.6978 43.61 43.609 42.6989 44.7326 42.6989C45.8562 42.6989 46.7674 43.61 46.7674 44.7336C46.7674 45.8571 45.8562 46.7682 44.7326 46.7682ZM12.2014 46.7682H32.5312C33.6584 46.7682 34.5659 45.8571 34.5659 44.7336C34.5659 43.61 33.6584 42.6989 32.5312 42.6989H12.2014C11.0742 42.6989 10.1667 43.61 10.1667 44.7336C10.1667 45.8571 11.0742 46.7682 12.2014 46.7682ZM12.2014 32.5329H18.2986C19.4258 32.5329 20.3333 31.6218 20.3333 30.4982C20.3333 29.3746 19.4258 28.4635 18.2986 28.4635H12.2014C11.0742 28.4635 10.1667 29.3746 10.1667 30.4982C10.1667 31.6218 11.0742 32.5329 12.2014 32.5329Z" fill="#665251"/>
</g>
<defs>
<clipPath id="clip0_719_8704">
<rect width="61" height="61" fill="white"/>
</clipPath>
</defs>
</svg>
