<svg width="88" height="55" viewBox="0 0 88 55" fill="none" xmlns="http://www.w3.org/2000/svg">
<path d="M65.925 0.933594H4.33894C2.4442 0.933594 0.908203 2.51266 0.908203 4.46053V22.0429C0.908203 23.9908 2.4442 25.5698 4.33894 25.5698H65.925C67.8198 25.5698 69.3558 23.9908 69.3558 22.0429V4.46053C69.3558 2.51266 67.8198 0.933594 65.925 0.933594Z" fill="#FFB400"/>
<path d="M65.9254 26.5043H4.3393C1.94796 26.5043 0 24.5055 0 22.0433V4.46097C0 1.99884 1.94433 0 4.3393 0H65.929C68.3204 0 70.2683 1.99884 70.2683 4.46097V22.0471C70.2683 24.5055 68.324 26.508 65.929 26.508L65.9254 26.5043ZM4.3393 1.86808C2.95101 1.86808 1.81713 3.03003 1.81713 4.46097V22.0471C1.81713 23.4743 2.94738 24.64 4.3393 24.64H65.929C67.3173 24.64 68.4512 23.478 68.4512 22.0471V4.46097C68.4512 3.03376 67.3209 1.86808 65.929 1.86808H4.3393Z" fill="#665251"/>
<path d="M56.1161 54H16.0727C14.3834 54 13 52.3889 13 50.4215V32.5785C13 30.6111 14.3834 29 16.0727 29H56.103C57.6947 29 58.987 30.5011 58.987 32.3586L59 50.6376C59 52.4951 57.7078 54 56.1161 54Z" fill="#FCD836"/>
<path d="M56.2734 55H15.9169C13.7583 55 12 52.9641 12 50.4562V32.5438C12 30.0397 13.7551 28 15.9169 28H56.2603C58.3138 28 59.9869 29.937 59.9869 32.3192L60 50.6693C60 51.8262 59.6129 52.9108 58.9109 53.729C58.2056 54.5471 57.2706 54.9962 56.2734 54.9962V55ZM15.9169 29.9066C14.6638 29.9066 13.6402 31.0901 13.6402 32.5476V50.46C13.6402 51.9137 14.6605 53.1011 15.9169 53.1011H56.2734C56.8311 53.1011 57.3559 52.8499 57.7496 52.3894C58.1432 51.9328 58.3598 51.3239 58.3598 50.677L58.3466 32.3269C58.3466 30.9911 57.4084 29.9066 56.2603 29.9066H15.9169Z" fill="#665251"/>
<path d="M24.8725 44.9715H22.3649C22.6265 44.7249 22.9463 44.4783 23.3279 44.1869C24.6908 43.1371 26.577 41.6725 26.577 38.8255C26.577 35.9786 24.6508 34.4355 22.3067 34.4355C19.9626 34.4355 18.5562 36.2102 18.3962 36.4157C17.8148 37.1779 17.9347 38.2913 18.6579 38.889C19.3993 39.5093 20.4823 39.3635 21.0638 38.62C21.0638 38.62 21.6453 37.9587 22.2885 37.9587C22.9318 37.9587 23.1499 38.351 23.1499 38.8442C23.1499 39.8343 22.6083 40.3686 21.2637 41.3997C19.9008 42.4496 18.0146 43.9142 18.0146 46.7611C18.0146 48.5881 18.7778 48.5134 19.7191 48.5134H24.8543C25.7956 48.5134 26.5588 47.7288 26.5588 46.7611C26.5588 45.7935 25.7956 45.0089 24.8543 45.0089L24.8761 44.9678L24.8725 44.9715Z" fill="#665251"/>
<path d="M12.9011 16.7669V7.96453C12.9011 7.26213 12.4795 6.60457 11.8399 6.33556C11.1966 6.06656 10.4552 6.21227 9.97552 6.72786L8.27106 8.48012C7.60962 9.1601 7.60962 10.2735 8.27106 10.9759C8.61268 11.3271 9.03425 11.4915 9.474 11.4915V16.7707C8.53273 16.7707 7.76953 17.5553 7.76953 18.5229C7.76953 19.4906 8.53273 20.2752 9.474 20.2752H12.9047C13.846 20.2752 14.6092 19.4906 14.6092 18.5229C14.6092 17.5553 13.846 16.7707 12.9047 16.7707L12.9011 16.7669Z" fill="#665251"/>
<path d="M55.6767 11.4889H23.1683C22.2271 11.4889 21.4639 10.7043 21.4639 9.73663C21.4639 8.76897 22.2271 7.98438 23.1683 7.98438H55.6767C56.618 7.98438 57.3812 8.76897 57.3812 9.73663C57.3812 10.7043 56.618 11.4889 55.6767 11.4889Z" fill="#F78004"/>
<path d="M43.7055 18.5416H23.1683C22.2271 18.5416 21.4639 17.757 21.4639 16.7894C21.4639 15.8217 22.2271 15.0371 23.1683 15.0371H43.7055C44.6468 15.0371 45.41 15.8217 45.41 16.7894C45.41 17.757 44.6468 18.5416 43.7055 18.5416Z" fill="#F78004"/>
<path d="M48.8404 39.692H35.1429C34.2017 39.692 33.4385 38.9074 33.4385 37.9398C33.4385 36.9721 34.2017 36.1875 35.1429 36.1875H48.8404C49.7817 36.1875 50.5449 36.9721 50.5449 37.9398C50.5449 38.9074 49.7817 39.692 48.8404 39.692Z" fill="#F78004"/>
<path d="M45.4097 46.7252H35.1429C34.2017 46.7252 33.4385 45.9406 33.4385 44.973C33.4385 44.0053 34.2017 43.2207 35.1429 43.2207H45.4097C46.351 43.2207 47.1142 44.0053 47.1142 44.973C47.1142 45.9406 46.351 46.7252 45.4097 46.7252Z" fill="#F78004"/>
<path d="M86.833 33.593C86.6876 32.9653 86.1571 32.4833 85.5283 32.3862L83.5804 32.0537C83.2278 30.563 82.6464 29.1582 81.905 27.8655L83.0643 26.1954C83.4168 25.6649 83.4822 24.9699 83.1442 24.4095C82.8717 23.9313 82.4537 23.3335 81.8723 22.7208C81.2908 22.108 80.6984 21.6933 80.2296 21.4131C79.6808 21.0806 78.9903 21.1329 78.4924 21.514L76.8679 22.6909C75.6104 21.9287 74.2585 21.3346 72.7939 20.9685L72.4704 18.9659C72.3578 18.3196 71.9071 17.7741 71.2966 17.6246C70.7805 17.4752 70.0573 17.3594 69.236 17.3594C68.4146 17.3594 67.6914 17.4901 67.1753 17.6246C66.5648 17.7741 66.096 18.3196 66.0015 18.9659L65.678 20.9685C64.228 21.3309 62.8615 21.9287 61.604 22.6909L59.9795 21.514C59.4634 21.1329 58.7875 21.0843 58.2423 21.4131C57.7772 21.6933 57.1957 22.123 56.5996 22.7208C56.0036 23.3186 55.6002 23.9275 55.3277 24.4095C55.0042 24.9737 55.0551 25.6835 55.4076 26.1954L56.5669 27.8655C55.8256 29.1582 55.2477 30.548 54.8916 32.0537L52.9436 32.3862C52.3149 32.502 51.7843 32.9653 51.6389 33.593C51.4935 34.1235 51.3809 34.867 51.3809 35.7114C51.3809 36.5558 51.5081 37.2993 51.6389 37.8298C51.7843 38.4575 52.3149 38.9394 52.9436 39.0366L54.8916 39.3691C55.2441 40.8598 55.8256 42.2646 56.5669 43.5573L55.4076 45.2274C55.0551 45.7579 54.9897 46.4529 55.3277 47.0133C55.6002 47.4915 56.0182 48.0893 56.5996 48.702C57.1811 49.3148 57.7735 49.7295 58.2423 50.0097C58.7911 50.3422 59.4816 50.2899 59.9795 49.9088L61.604 48.7319C62.8615 49.4941 64.2134 50.0881 65.678 50.4543L66.0015 52.4569C66.1141 53.1032 66.5648 53.6487 67.1753 53.7981C67.6914 53.9476 68.4146 54.0634 69.236 54.0634C70.0573 54.0634 70.7805 53.9326 71.2966 53.7981C71.9071 53.6487 72.376 53.1032 72.4704 52.4569L72.7939 50.4543C74.244 50.0919 75.6104 49.4941 76.8679 48.7319L78.4924 49.9088C79.0085 50.2899 79.6844 50.3385 80.2296 50.0097C80.6948 49.7295 81.2762 49.2998 81.8723 48.702C82.4683 48.1042 82.8717 47.4952 83.1442 47.0133C83.4677 46.4491 83.4168 45.7392 83.0643 45.2274L81.905 43.5573C82.6464 42.2646 83.2242 40.8748 83.5804 39.3691L85.5283 39.0366C86.1571 38.9208 86.6876 38.4575 86.833 37.8298C86.9784 37.2993 87.091 36.5558 87.091 35.7114C87.091 34.867 86.9639 34.1235 86.833 33.593ZM69.236 44.185C64.6968 44.185 60.9935 40.3779 60.9935 35.7114C60.9935 31.0449 64.6968 27.2378 69.236 27.2378C73.7751 27.2378 77.4784 31.0449 77.4784 35.7114C77.4784 40.3779 73.7751 44.185 69.236 44.185Z" fill="#F78004"/>
<path d="M69.2366 55C68.4262 55 67.6121 54.8954 66.947 54.7049C66.0094 54.4657 65.2862 53.655 65.1081 52.6276L64.8791 51.2078C63.7852 50.8865 62.7058 50.427 61.6592 49.8404L60.5035 50.6773C59.7185 51.2788 58.6427 51.3386 57.7814 50.8193C57.0764 50.3933 56.4767 49.9151 55.9498 49.3584C55.2447 48.6112 54.7977 47.9312 54.5469 47.4903C54.049 46.6609 54.089 45.5587 54.6632 44.7032L55.4955 43.5039C54.9285 42.4353 54.4851 41.3257 54.169 40.1973L52.7989 39.9657C51.8103 39.8088 50.9854 39.0391 50.76 38.0528C50.6328 37.5297 50.4766 36.6891 50.4766 35.7177C50.4766 34.8808 50.5783 34.0476 50.7637 33.3639C50.9963 32.3963 51.7849 31.6565 52.7879 31.4734L54.169 31.238C54.4815 30.1135 54.9249 29.0076 55.4955 27.9315L54.6741 26.7434C54.0999 25.9103 54.0527 24.8118 54.5506 23.9413C54.9649 23.2165 55.4301 22.6 55.9716 22.0583C56.6984 21.3335 57.3598 20.8739 57.7887 20.6161C58.6318 20.1043 59.7039 20.1641 60.518 20.7618L61.6664 21.5913C62.7095 21.0084 63.7852 20.5526 64.8864 20.2276L65.1117 18.819C65.2643 17.8028 66.013 16.9547 66.9724 16.7231C67.4812 16.5923 68.2989 16.4316 69.2439 16.4316C70.0579 16.4316 70.8684 16.5363 71.5334 16.7268C72.4711 16.9659 73.1943 17.7767 73.3724 18.8078L73.6013 20.2276C74.6952 20.5489 75.7746 21.0084 76.8213 21.595L77.977 20.7581C78.762 20.1566 79.8377 20.0968 80.699 20.6161C81.4041 21.0421 82.0037 21.5203 82.5307 22.077C83.2357 22.8242 83.6828 23.5042 83.9335 23.9451C84.4314 24.7745 84.3914 25.8767 83.8172 26.7322L82.985 27.9315C83.5519 29.0001 83.9953 30.1097 84.3115 31.238L85.6816 31.4697C86.6665 31.6266 87.4915 32.3925 87.7204 33.3789C87.8512 33.9131 88.0039 34.75 88.0039 35.7177C88.0039 36.5546 87.9021 37.3878 87.7168 38.0715C87.4842 39.0354 86.6955 39.7789 85.6925 39.962L84.3115 40.1973C83.9989 41.3219 83.5556 42.4278 82.985 43.5039L83.8063 44.6919C84.3805 45.5251 84.4278 46.6235 83.9299 47.4941C83.5192 48.2189 83.0504 48.8354 82.5089 49.3771C81.782 50.1019 81.1206 50.5615 80.6918 50.8193C79.8486 51.3311 78.7765 51.2713 77.9624 50.6735L76.814 49.8441C75.771 50.427 74.6952 50.8828 73.5941 51.2078L73.3687 52.6163C73.2161 53.6326 72.4674 54.4807 71.508 54.7123C70.9992 54.8431 70.1815 55.0037 69.2366 55.0037V55ZM61.5647 47.6248L62.0698 47.9312C63.3091 48.6822 64.5956 49.2276 65.8931 49.549L66.4782 49.6947L66.8998 52.3062C66.9506 52.5902 67.1469 52.833 67.3868 52.8891L67.4231 52.9003C67.9283 53.046 68.5897 53.1319 69.2366 53.1319C69.9961 53.1319 70.6576 53.0049 71.0755 52.8966C71.3299 52.833 71.5298 52.5977 71.5734 52.3212L71.995 49.6984L72.5765 49.5527C73.8884 49.2239 75.175 48.6784 76.4033 47.9349L76.9085 47.6286L79.0127 49.1492C79.2526 49.3248 79.5397 49.3472 79.7687 49.209C80.1103 49.0035 80.6409 48.6336 81.2369 48.0358C81.6621 47.6099 82.0292 47.1242 82.3599 46.5451C82.4944 46.3134 82.4762 45.9959 82.3235 45.7717L80.8226 43.6085L81.1242 43.0854C81.8547 41.8114 82.3817 40.4888 82.6979 39.155L82.8396 38.5534L85.38 38.12C85.6562 38.0677 85.8924 37.866 85.9469 37.6194L85.9578 37.582C86.0995 37.0627 86.1831 36.3827 86.1831 35.7177C86.1831 34.9368 86.0596 34.2569 85.9542 33.8272V33.816C85.8924 33.5657 85.6634 33.3602 85.3945 33.3153L82.8432 32.882L82.7015 32.2842C82.3817 30.9354 81.8511 29.6128 81.1279 28.35L80.8262 27.8269L82.3272 25.66C82.4507 25.4769 82.5343 25.1705 82.3744 24.9053C82.1636 24.5354 81.8038 23.9899 81.226 23.3772C80.8117 22.94 80.3392 22.5627 79.7759 22.2227C79.547 22.0844 79.2526 22.1031 79.0382 22.2675L76.9158 23.8031L76.4106 23.4967C75.1713 22.7457 73.8848 22.2003 72.5874 21.879L72.0023 21.7333L71.5807 19.1217C71.5298 18.8377 71.3336 18.5949 71.0937 18.5388L71.0574 18.5276C70.5522 18.3819 69.8908 18.296 69.2439 18.296C68.4843 18.296 67.8229 18.423 67.4049 18.5314C67.1505 18.5949 66.9506 18.8303 66.907 19.1067L66.4855 21.7295L65.904 21.8752C64.592 22.204 63.3055 22.7495 62.0771 23.493L61.5719 23.7993L59.4677 22.2787C59.2278 22.1031 58.9407 22.0807 58.7118 22.219C58.3702 22.4244 57.8396 22.7943 57.2435 23.3921C56.8183 23.818 56.4513 24.3037 56.1206 24.8828C55.9861 25.1145 56.0043 25.432 56.1569 25.6562L57.6579 27.8195L57.3562 28.3425C56.6257 29.6128 56.0988 30.9391 55.7826 32.273L55.6408 32.8745L53.1005 33.3079C52.8243 33.3602 52.5881 33.5619 52.5336 33.8085L52.5226 33.8459C52.3809 34.3652 52.2973 35.0452 52.2973 35.7102C52.2973 36.4911 52.4209 37.1711 52.5263 37.6007C52.5881 37.8622 52.817 38.0677 53.086 38.1126L55.6372 38.546L55.7789 39.1438C56.0988 40.4925 56.6294 41.8188 57.3526 43.0779L57.6542 43.601L56.1533 45.768C56.0297 45.951 55.9461 46.2574 56.106 46.5227C56.3168 46.8925 56.6766 47.438 57.2545 48.0508C57.6688 48.4879 58.1412 48.8652 58.7045 49.2052C58.9335 49.3435 59.2279 49.3248 59.4423 49.1604L61.5683 47.6248H61.5647ZM69.2366 45.1179C64.1922 45.1179 60.0855 40.896 60.0855 35.7102C60.0855 30.5244 64.1922 26.3026 69.2366 26.3026C74.2809 26.3026 78.3876 30.5244 78.3876 35.7102C78.3876 40.896 74.2809 45.1179 69.2366 45.1179ZM69.2366 28.1707C65.1917 28.1707 61.9027 31.5519 61.9027 35.7102C61.9027 39.8686 65.1917 43.2498 69.2366 43.2498C73.2815 43.2498 76.5705 39.8686 76.5705 35.7102C76.5705 31.5519 73.2815 28.1707 69.2366 28.1707Z" fill="#665251"/>
</svg>
