<svg width="72" height="70" viewBox="0 0 72 70" fill="none" xmlns="http://www.w3.org/2000/svg">
<mask id="mask0_719_10828" style="mask-type:luminance" maskUnits="userSpaceOnUse" x="0" y="0" width="72" height="70">
<path d="M71.9964 0H0V70H71.9964V0Z" fill="white"/>
</mask>
<g mask="url(#mask0_719_10828)">
<path d="M71.0937 39.407V66.7893C71.0901 68.0643 70.0543 69.0951 68.7774 69.0987H40.4853C39.2084 69.0951 38.1725 68.0643 38.1689 66.7893V39.407C38.1689 38.132 39.2048 37.1012 40.4853 37.0977H68.7774C70.0543 37.1012 71.0901 38.132 71.0937 39.407Z" fill="#FCD836"/>
<path d="M71.0937 3.21173V30.594C71.0937 31.869 70.0543 32.8998 68.7774 32.9034H40.4853C39.2084 32.9034 38.1725 31.869 38.1689 30.594V3.21173C38.1689 1.93672 39.2048 0.905935 40.4853 0.902344H68.7774C70.0543 0.905935 71.0901 1.93672 71.0937 3.21173Z" fill="#E03102"/>
<path d="M33.8274 39.407V66.7893C33.8274 68.0643 32.7916 69.0951 31.5111 69.0987H3.22257C1.94571 69.0951 0.909847 68.0643 0.90625 66.7893V39.407C0.909847 38.132 1.94571 37.1012 3.22257 37.0977H31.5147C32.7916 37.1012 33.8274 38.132 33.831 39.407H33.8274Z" fill="#FFE77B"/>
<path d="M33.8274 3.21173V30.594C33.8274 31.869 32.7916 32.8998 31.5111 32.9034H3.22257C1.94571 32.8998 0.909847 31.869 0.90625 30.594V3.21173C0.909847 1.93672 1.94571 0.905935 3.22257 0.902344H31.5147C32.7916 0.905935 33.8274 1.93672 33.831 3.21173H33.8274Z" fill="#FFE77B"/>
<path d="M61.408 50.853C61.8288 50.914 62.1201 51.2983 62.059 51.7186C62.0338 51.8874 61.9547 52.0418 61.836 52.1603L59.0844 54.8289C58.901 55.0049 58.8183 55.2599 58.8614 55.5077L59.5125 59.2753C59.5844 59.6955 59.3003 60.0905 58.8794 60.1588C58.714 60.1875 58.5413 60.1588 58.3939 60.0834L54.9913 58.3055C54.7683 58.187 54.4986 58.187 54.2756 58.3055L50.873 60.0834C50.4954 60.2809 50.0314 60.1372 49.8336 59.7601C49.7544 59.6129 49.7293 59.4405 49.758 59.2753L50.4091 55.5077C50.4522 55.2599 50.3695 55.0049 50.1861 54.8289L47.4345 52.1603C47.1288 51.8658 47.1216 51.3809 47.4165 51.0793C47.5352 50.9571 47.6899 50.8781 47.8589 50.853L51.6643 50.3035C51.9161 50.2676 52.1319 50.1095 52.2434 49.8833L53.9447 46.4569C54.1317 46.0762 54.5957 45.9217 54.9769 46.1085C55.128 46.1839 55.2503 46.306 55.3258 46.4569L57.0271 49.8833C57.1386 50.1095 57.358 50.2676 57.6062 50.3035L61.4116 50.853H61.408Z" fill="#F9B438"/>
<path d="M61.1916 12.2181V21.5886C61.1916 22.5978 60.368 23.4167 59.3537 23.4203H49.9158C48.9015 23.4203 48.0778 22.5978 48.0742 21.5886V12.2181C48.0742 11.2089 48.9015 10.3864 49.9158 10.3828H59.3537C60.368 10.3828 61.188 11.2053 61.1916 12.2181Z" fill="#F9B438"/>
<path d="M17.3655 10.3789L9.78711 23.4235H24.9403L17.3619 10.3789H17.3655Z" fill="#F9B438"/>
<path d="M17.3684 46.375C21.0946 46.3858 24.1087 49.4027 24.0979 53.1164C24.0871 56.8301 21.0622 59.8327 17.336 59.8219C13.6169 59.8111 10.6064 56.805 10.6064 53.0985C10.61 49.3812 13.6385 46.3714 17.3684 46.375Z" fill="#E03102"/>
<path d="M5.42738 66.7893V39.407C5.43098 38.132 6.46685 37.1012 7.7437 37.0977H3.22257C1.94571 37.1012 0.909847 38.132 0.90625 39.407V66.7893C0.909847 68.0643 1.94571 69.0951 3.22257 69.0987H7.7437C6.46685 69.0951 5.43098 68.0643 5.42738 66.7893Z" fill="#FCD836"/>
<path d="M5.42738 30.5904V3.21173C5.43098 1.93672 6.46685 0.905935 7.7437 0.902344H3.22257C1.94571 0.905935 0.909847 1.93672 0.90625 3.21173V30.594C0.909847 31.869 1.94571 32.8998 3.22257 32.9034H7.7437C6.46685 32.8998 5.43098 31.869 5.42738 30.594V30.5904Z" fill="#FCD836"/>
<path d="M68.7775 36.1992H40.4854C38.7086 36.1992 37.2663 37.6359 37.2627 39.4101V66.7923C37.2627 68.5666 38.705 69.9996 40.4854 70.0032H68.7775C70.5543 70.0032 71.9966 68.5666 71.9966 66.7923V39.4101C71.9966 37.6359 70.5543 36.2028 68.7775 36.1992ZM70.1911 66.7888C70.1911 67.5645 69.558 68.1967 68.7775 68.1967H40.4854C39.7049 68.1967 39.0755 67.5645 39.0719 66.7888V39.4065C39.0719 38.6307 39.7049 38.0022 40.4854 37.9986H68.7775C69.558 37.9986 70.1875 38.6307 70.1911 39.4065V66.7888Z" fill="#665251"/>
<path d="M61.5371 49.9635L57.8037 49.4248L56.1348 46.063C55.7248 45.237 54.7177 44.8994 53.8904 45.3088C53.5631 45.4704 53.2969 45.7362 53.1351 46.063L51.4662 49.4248L47.7328 49.9635C46.8192 50.0928 46.1861 50.9404 46.3156 51.8491C46.3696 52.2154 46.5386 52.5494 46.8048 52.8045L49.506 55.4227L48.8693 59.1185C48.7147 60.0307 49.3297 60.8927 50.2433 61.0471C50.3368 61.0615 50.4267 61.0723 50.5202 61.0723C50.79 61.0723 51.0598 61.0076 51.3007 60.8819L54.6421 59.1364L57.9835 60.8819C58.8 61.3093 59.8143 60.9969 60.2459 60.1816C60.4149 59.8583 60.4761 59.4848 60.4149 59.1256L59.7783 55.4299L62.4795 52.8116C63.1413 52.1687 63.1593 51.1164 62.5154 50.4556C62.2565 50.1898 61.9184 50.021 61.5551 49.9671L61.5371 49.9635ZM58.4475 54.18C58.0519 54.5643 57.872 55.1174 57.9655 55.6562L58.5698 59.1544L55.4046 57.5022C54.9191 57.2472 54.3364 57.2472 53.8472 57.5022L50.6857 59.1544L51.29 55.6562C51.3835 55.1138 51.2036 54.5643 50.808 54.18L48.2543 51.7054L51.7863 51.1954C52.333 51.1164 52.8006 50.7752 53.0452 50.2867L54.6277 47.101L56.2103 50.2867C56.4549 50.7788 56.9261 51.12 57.4692 51.1954L61.0012 51.7054L58.4475 54.18Z" fill="#665251"/>
<path d="M3.2227 33.8004H31.5148C33.2916 33.8004 34.7339 32.3638 34.7375 30.5895V3.21088C34.7375 1.43663 33.2952 0.00359159 31.5148 0H3.2227C1.4423 0 0 1.43663 0 3.21088V30.5931C0 32.3674 1.4423 33.8004 3.2227 33.804V33.8004ZM1.80917 3.21088C1.80917 2.43509 2.4422 1.80657 3.2227 1.80298H31.5148C32.2953 1.80298 32.9248 2.43509 32.9284 3.21088V30.5931C32.9284 31.3689 32.2953 31.9974 31.5148 32.001H3.2227C2.4422 32.001 1.81277 31.3689 1.80917 30.5931V3.21088Z" fill="#665251"/>
<path d="M9.79029 24.3259H24.9434C25.4434 24.3259 25.8462 23.9201 25.8462 23.4244C25.8462 23.2664 25.8031 23.112 25.7239 22.9719L18.1456 9.92726C17.8938 9.49627 17.3435 9.34902 16.9083 9.59684C16.7716 9.67585 16.6565 9.79078 16.5774 9.92726L8.999 22.9719C8.74722 23.4029 8.89829 23.956 9.3299 24.2038C9.46658 24.2828 9.62483 24.3259 9.78309 24.3259H9.79029ZM17.3687 12.1756L23.3789 22.5194H11.3585L17.3687 12.1756Z" fill="#665251"/>
<path d="M3.2227 69.9993H31.5148C33.2916 69.9993 34.7339 68.5627 34.7375 66.7884V39.4062C34.7375 37.6319 33.2952 36.1989 31.5148 36.1953H3.2227C1.4459 36.1953 0.00359676 37.6319 0 39.4062V66.7884C0 68.5627 1.4423 69.9957 3.2227 69.9993ZM1.80917 39.4062C1.80917 38.6304 2.4422 38.0019 3.2227 37.9983H31.5148C32.2953 37.9983 32.9248 38.6304 32.9284 39.4062V66.7884C32.9284 67.5642 32.2953 68.1927 31.5148 68.1963H3.2227C2.4422 68.1963 1.81277 67.5642 1.80917 66.7884V39.4062Z" fill="#665251"/>
<path d="M17.3656 60.7226C21.5918 60.7154 25.0087 57.2926 24.9979 53.0797C24.9871 48.8703 21.5558 45.4619 17.3296 45.4727C13.1106 45.4835 9.69727 48.8919 9.69727 53.0976C9.70806 57.3105 13.1358 60.7226 17.3656 60.7226ZM17.3656 47.2757C20.5919 47.2864 23.1995 49.9011 23.1887 53.1156C23.1779 56.33 20.5559 58.9304 17.3296 58.9196C14.1105 58.9088 11.5064 56.3049 11.5064 53.0976C11.5172 49.8796 14.1357 47.2721 17.3656 47.2757Z" fill="#665251"/>
<path d="M68.7775 0H40.4854C38.7086 0 37.2663 1.43663 37.2627 3.21088V30.5931C37.2627 32.3638 38.705 33.8004 40.4854 33.804H68.7775C70.5543 33.804 71.9966 32.3674 71.9966 30.5931V3.21088C71.9966 1.44023 70.5543 0.00359159 68.7775 0ZM70.1911 30.5931C70.1911 31.3689 69.558 31.9974 68.7775 32.001H40.4854C39.7049 32.001 39.0755 31.3689 39.0719 30.5931V3.21088C39.0719 2.43509 39.7049 1.80657 40.4854 1.80298H68.7775C69.558 1.80298 70.1875 2.43509 70.1911 3.21088V30.5931Z" fill="#665251"/>
<path d="M59.3502 9.48242H49.9123C48.3981 9.48242 47.168 10.7072 47.168 12.2192V21.5897C47.168 23.0981 48.3981 24.3229 49.9123 24.3264H59.3502C60.8644 24.3264 62.0945 23.1017 62.0945 21.5897V12.2192C62.0945 10.7107 60.8644 9.48601 59.3502 9.48242ZM60.2854 21.5897C60.2854 22.1033 59.8645 22.5199 59.3502 22.5235H49.9123C49.3944 22.5235 48.9771 22.1068 48.9771 21.5897V12.2192C48.9771 11.7056 49.3944 11.289 49.9123 11.2854H59.3502C59.8681 11.2854 60.2854 11.702 60.2854 12.2192V21.5897Z" fill="#665251"/>
</g>
</svg>
