<svg width="89" height="61" viewBox="0 0 89 61" fill="none" xmlns="http://www.w3.org/2000/svg">
<g clip-path="url(#clip0_719_10922)">
<path d="M55.5323 1.125L57.542 11.3744C55.3371 12.3937 53.7906 14.4738 53.4308 16.8496C53.4576 16.9936 52.3283 24.6475 51.2909 31.6155C51.1263 32.6878 51.0192 33.6768 50.8392 34.6771L41.6407 36.4428C41.0971 35.5789 40.6224 34.7036 40.0635 33.7715C36.4691 27.6939 32.599 20.9986 32.4995 20.8698C31.0678 18.5433 28.4687 17.1792 25.7049 17.2664L23.7373 7.22917L55.5323 1.125Z" fill="#FFE77B"/>
<path d="M31.0753 13.1598C31.8893 13.1598 32.5491 12.5066 32.5491 11.701C32.5491 10.8953 31.8893 10.2422 31.0753 10.2422C30.2614 10.2422 29.6016 10.8953 29.6016 11.701C29.6016 12.5066 30.2614 13.1598 31.0753 13.1598Z" fill="#665251"/>
<path d="M51.3556 9.26328C52.1695 9.26328 52.8294 8.61015 52.8294 7.80449C52.8294 6.99882 52.1695 6.3457 51.3556 6.3457C50.5417 6.3457 49.8818 6.99882 49.8818 7.80449C49.8818 8.61015 50.5417 9.26328 51.3556 9.26328Z" fill="#665251"/>
<path d="M44.6297 41.2067L31.2204 18.4194C29.9878 16.3505 27.3006 15.6761 25.1952 16.8242L2.17388 30.0972C0.0838171 31.3173 -0.597559 33.9772 0.562312 36.0612L13.9716 58.8486C15.2042 60.9174 17.8915 61.5919 19.9968 60.4438L43.0182 47.1707C45.0776 46.1818 45.9466 43.7075 44.959 41.741C44.9168 41.525 44.7446 41.4114 44.6297 41.2105V41.2067ZM41.5444 44.6283L18.5231 57.9013C17.8532 58.3257 16.9 58.0643 16.544 57.3898L3.13087 34.5986C2.70214 33.9355 2.96627 32.9921 3.64764 32.6397L26.669 19.3666C27.3504 19.0142 28.292 19.2037 28.648 19.8782L42.0574 42.6655C42.4861 43.3286 42.2794 44.1849 41.6133 44.6093L41.5406 44.6245L41.5444 44.6283Z" fill="#665251"/>
<path d="M41.5444 44.6269L18.5231 57.9C17.8532 58.3244 16.9 58.0629 16.544 57.3885L3.13085 34.5973C2.70211 33.9342 2.96624 32.9907 3.64762 32.6383L26.669 19.3653C27.3503 19.0129 28.292 19.2024 28.648 19.8768L42.0573 42.6642C42.4861 43.3273 42.2794 44.1836 41.6133 44.608L41.5406 44.6231L41.5444 44.6269Z" fill="#F9B438"/>
<path d="M18.7033 54.5367C19.5172 54.5367 20.177 53.8836 20.177 53.0779C20.177 52.2723 19.5172 51.6191 18.7033 51.6191C17.8893 51.6191 17.2295 52.2723 17.2295 53.0779C17.2295 53.8836 17.8893 54.5367 18.7033 54.5367Z" fill="#665251"/>
<path d="M7.52943 35.8551C8.34336 35.8551 9.00319 35.202 9.00319 34.3963C9.00319 33.5906 8.34336 32.9375 7.52943 32.9375C6.71549 32.9375 6.05566 33.5906 6.05566 34.3963C6.05566 35.202 6.71549 35.8551 7.52943 35.8551Z" fill="#665251"/>
<path d="M26.4015 25.193C27.2154 25.193 27.8753 24.5398 27.8753 23.7342C27.8753 22.9285 27.2154 22.2754 26.4015 22.2754C25.5876 22.2754 24.9277 22.9285 24.9277 23.7342C24.9277 24.5398 25.5876 25.193 26.4015 25.193Z" fill="#665251"/>
<path d="M36.9933 44.3316C37.8072 44.3316 38.4671 43.6785 38.4671 42.8728C38.4671 42.0672 37.8072 41.4141 36.9933 41.4141C36.1794 41.4141 35.5195 42.0672 35.5195 42.8728C35.5195 43.6785 36.1794 44.3316 36.9933 44.3316Z" fill="#665251"/>
<path d="M85.2179 13.9855L58.8509 10.1964C56.4661 9.91222 54.2267 11.5301 53.8669 13.9059L50.039 40.0049C49.5643 42.1798 50.8964 44.3775 53.1664 44.8359C53.3961 44.8663 53.5568 44.9079 53.7865 44.9382L80.1535 48.7273C82.5383 49.0115 84.7777 47.3936 85.1375 45.0178L88.9654 18.9188C89.2525 16.5582 87.618 14.3416 85.2179 13.9855ZM86.0332 18.5134L82.2053 44.6124C82.056 45.3854 81.344 45.9689 80.5631 45.8211L54.1961 42.032C53.4305 41.9563 52.841 41.2515 52.9176 40.4937L56.7455 14.3947C56.8948 13.6217 57.6068 13.0382 58.3877 13.186L84.7547 16.975C85.5356 17.1228 86.1251 17.8276 85.9758 18.6005L86.0332 18.5134Z" fill="#665251"/>
<path d="M86.0335 18.4715L82.2055 44.5705C82.0562 45.3435 81.3442 45.927 80.5633 45.7792L54.1964 41.9902C53.4308 41.9144 52.8413 41.2096 52.9178 40.4518L56.7458 14.3528C56.8951 13.5798 57.6071 12.9963 58.388 13.1441L84.7549 16.9331C85.5359 17.0809 86.1254 17.7857 85.9761 18.5586L86.0335 18.4715Z" fill="#FCD836"/>
<path d="M78.6642 43.2906C79.4781 43.2906 80.138 42.6375 80.138 41.8318C80.138 41.0262 79.4781 40.373 78.6642 40.373C77.8503 40.373 77.1904 41.0262 77.1904 41.8318C77.1904 42.6375 77.8503 43.2906 78.6642 43.2906Z" fill="#665251"/>
<path d="M81.9718 21.8258C82.7857 21.8258 83.4456 21.1727 83.4456 20.367C83.4456 19.5613 82.7857 18.9082 81.9718 18.9082C81.1579 18.9082 80.498 19.5613 80.498 20.367C80.498 21.1727 81.1579 21.8258 81.9718 21.8258Z" fill="#665251"/>
<path d="M60.2902 18.5504C61.1041 18.5504 61.7639 17.8973 61.7639 17.0916C61.7639 16.2859 61.1041 15.6328 60.2902 15.6328C59.4762 15.6328 58.8164 16.2859 58.8164 17.0916C58.8164 17.8973 59.4762 18.5504 60.2902 18.5504Z" fill="#665251"/>
<path d="M57.8439 40.5914C58.6578 40.5914 59.3176 39.9383 59.3176 39.1326C59.3176 38.3269 58.6578 37.6738 57.8439 37.6738C57.0299 37.6738 56.3701 38.3269 56.3701 39.1326C56.3701 39.9383 57.0299 40.5914 57.8439 40.5914Z" fill="#665251"/>
<path d="M26.168 9.66613C26.0149 8.87801 26.5393 8.10883 27.3355 7.95348L53.4077 2.94435C54.2039 2.79278 54.981 3.31188 55.1379 4.10001L56.6538 11.841C57.5266 11.303 58.4262 10.9052 59.4367 10.7119L58.0319 3.54302C57.5687 1.17865 55.2337 -0.382444 52.845 0.0760318L26.7728 5.08516C24.3841 5.54364 22.807 7.85496 23.2702 10.2193L24.6751 17.3882C25.6895 17.195 26.6733 17.2291 27.6838 17.4072L26.168 9.66613Z" fill="#665251"/>
<path d="M42.4981 37.7688L50.6823 36.1963L51.134 33.1348L40.9248 35.0975L42.5019 37.7688H42.4981Z" fill="#665251"/>
<path d="M27.4048 44.2798C27.0947 44.4579 26.7693 44.6284 26.4286 44.7913C26.088 44.9542 25.7473 45.0907 25.4066 45.2005C25.2382 45.2536 25.0697 45.2574 24.9013 45.2081C24.7329 45.1589 24.5644 45.0755 24.4075 44.958C24.2467 44.8406 24.0936 44.7004 23.9481 44.5337C23.8027 44.3707 23.661 44.2002 23.5309 44.0297C23.4007 43.8554 23.2859 43.6887 23.1825 43.522C23.083 43.3591 22.9988 43.2189 22.9299 43.1014C22.4476 42.2754 21.9959 41.4342 21.5786 40.5817C21.1575 39.7291 20.7058 38.8842 20.2197 38.0506C20.0398 37.7437 19.879 37.4898 19.7412 37.2928C19.5996 37.0957 19.4465 36.9593 19.2857 36.8873C19.1211 36.8154 18.9335 36.804 18.7153 36.8532C18.4971 36.9025 18.2253 37.0238 17.8961 37.2132C17.6818 37.3345 17.4789 37.3913 17.2798 37.3799C17.0846 37.3686 16.9009 37.3117 16.7363 37.2094C16.5678 37.1071 16.4147 36.9745 16.2769 36.8116C16.1391 36.6486 16.0166 36.4781 15.9171 36.3038C15.8175 36.1295 15.7218 35.9211 15.63 35.6786C15.5381 35.4361 15.4769 35.1861 15.4386 34.9284C15.4003 34.6708 15.4041 34.4245 15.4462 34.1858C15.4883 33.947 15.5917 33.7462 15.7525 33.5757C16.0587 33.2574 16.4109 32.9619 16.8128 32.6967C17.2148 32.4314 17.6052 32.1851 17.988 31.9692C18.1105 31.8972 18.2713 31.81 18.4703 31.7077C18.6694 31.6016 18.8761 31.5031 19.0981 31.4084C19.3201 31.3136 19.5307 31.2303 19.7335 31.1659C19.9364 31.1015 20.1087 31.0749 20.2465 31.0901C20.5183 31.1128 20.8015 31.2265 21.0963 31.4273C21.3911 31.6281 21.6858 31.8782 21.9806 32.1776C22.2753 32.4769 22.5662 32.8141 22.8457 33.1892C23.1289 33.5606 23.3892 33.9281 23.6342 34.2881C23.8792 34.648 24.0974 34.989 24.2926 35.3073C24.4879 35.6294 24.6448 35.8908 24.7635 36.0954C24.8822 36.3 25.0468 36.5918 25.2496 36.9518C25.4487 37.3117 25.6669 37.7058 25.9004 38.1377C26.1339 38.5697 26.3712 39.013 26.6086 39.4753C26.8459 39.9375 27.0717 40.3809 27.2785 40.8052C27.4852 41.2296 27.6651 41.6161 27.8182 41.9647C27.9713 42.3133 28.067 42.5861 28.1129 42.7831C28.1972 43.1355 28.178 43.431 28.0555 43.6622C27.933 43.8933 27.7148 44.1017 27.4048 44.276V44.2798Z" fill="#665251"/>
<path d="M44.1519 26.2166C43.9298 26.2507 43.6734 26.2886 43.3824 26.3265C43.0915 26.3682 42.7853 26.4023 42.4752 26.4288C42.1613 26.4591 41.8589 26.4781 41.5642 26.4894C41.2694 26.5008 41.0168 26.4894 40.7986 26.4553C40.5421 26.4174 40.3239 26.3265 40.1363 26.1749C39.9488 26.0234 39.7918 25.8453 39.6578 25.6369C39.5239 25.4285 39.4167 25.2049 39.3363 24.9625C39.2559 24.7199 39.2023 24.4888 39.1679 24.2691C39.1411 24.0948 39.1219 23.9091 39.1181 23.7159C39.1104 23.5226 39.1181 23.3294 39.1487 23.1323C39.1793 22.9353 39.2176 22.7496 39.2789 22.5678C39.3363 22.3859 39.4167 22.223 39.5124 22.0714C39.7076 21.7721 39.9296 21.4841 40.1784 21.2113C40.4273 20.9385 40.6799 20.6657 40.9325 20.3966C41.1852 20.1276 41.4302 19.851 41.6599 19.5668C41.8934 19.2864 42.0924 18.9871 42.2609 18.6802C42.4293 18.3695 42.5479 18.0398 42.6245 17.6913C42.7011 17.3427 42.7049 16.9638 42.6398 16.5545C42.6245 16.4522 42.5977 16.3461 42.5556 16.2363C42.5173 16.1264 42.4637 16.0241 42.3948 15.9331C42.3259 15.8422 42.2455 15.7702 42.146 15.7172C42.0465 15.6641 41.9355 15.649 41.8092 15.6679C41.6828 15.6868 41.5718 15.7475 41.4761 15.8536C41.323 15.9975 41.2273 16.1491 41.189 16.312C41.1507 16.475 41.1239 16.6379 41.1125 16.8008C41.101 16.9638 41.0857 17.1267 41.0665 17.2858C41.0512 17.445 40.9861 17.5927 40.8751 17.7291C40.7641 17.8656 40.5919 17.9906 40.3584 18.1005C40.1249 18.2104 39.788 18.2975 39.3439 18.3657C39.0722 18.4074 38.808 18.415 38.5554 18.3884C38.3027 18.3619 38.0731 18.2975 37.8664 18.1952C37.6596 18.0929 37.4874 17.9413 37.3419 17.7481C37.1965 17.5511 37.1046 17.3086 37.0587 17.0168C36.9476 16.3082 36.9821 15.6376 37.162 15.001C37.3419 14.3683 37.6252 13.7999 38.0233 13.2997C38.4176 12.7996 38.9076 12.379 39.4856 12.0456C40.0636 11.7121 40.7067 11.4886 41.4072 11.3825C41.8819 11.3105 42.3489 11.2991 42.8082 11.3484C43.2714 11.3976 43.7116 11.5075 44.1289 11.678C44.55 11.8485 44.9366 12.0759 45.2964 12.3676C45.6562 12.6594 45.9663 13.0042 46.2343 13.4058C46.5022 13.8151 46.6898 14.2281 46.797 14.6524C46.9042 15.073 46.9922 15.5201 47.0649 15.9862C47.153 16.5507 47.1491 17.0585 47.0535 17.517C46.9578 17.9716 46.8161 18.3847 46.6247 18.7484C46.4372 19.1121 46.219 19.4418 45.9778 19.7336C45.7366 20.0253 45.5108 20.2868 45.3002 20.5141C45.0897 20.7452 44.9175 20.9498 44.7758 21.1317C44.638 21.3136 44.5806 21.4765 44.6036 21.6243C44.6227 21.7569 44.6801 21.8668 44.7682 21.9539C44.8562 22.0411 44.971 22.0752 45.1127 22.0525C45.2964 22.0259 45.4802 21.9767 45.6601 21.9123C45.84 21.8478 46.0161 21.7796 46.196 21.7039C46.3721 21.6281 46.552 21.5599 46.7357 21.4917C46.9195 21.4273 47.1032 21.3818 47.287 21.3515C47.5243 21.3174 47.731 21.3742 47.9147 21.5258C48.0985 21.6773 48.2516 21.8668 48.3779 22.0941C48.5042 22.3215 48.6038 22.564 48.6842 22.8178C48.7607 23.0717 48.8143 23.2877 48.8411 23.462C48.8641 23.6211 48.8794 23.7916 48.8794 23.9735C48.8794 24.1516 48.8602 24.3297 48.8258 24.5002C48.7875 24.6707 48.7224 24.826 48.6267 24.9625C48.531 25.0989 48.3971 25.2087 48.2286 25.2883C47.9951 25.3906 47.7004 25.4891 47.3482 25.5839C46.996 25.6786 46.6285 25.7657 46.2419 25.8453C45.8553 25.9249 45.4802 25.9969 45.1127 26.0613C44.7452 26.1257 44.4275 26.1749 44.1595 26.2166H44.1519Z" fill="#665251"/>
<path d="M67.6167 36.3551C67.1382 36.268 66.6712 36.1316 66.2118 35.9421C65.7525 35.7527 65.3543 35.5064 65.0213 35.1995C64.6845 34.8926 64.4356 34.5288 64.2672 34.1082C64.0988 33.6876 64.0643 33.2026 64.1638 32.657C64.2213 32.3501 64.3017 32.0659 64.4088 31.7969C64.516 31.5317 64.6577 31.3043 64.8299 31.1187C65.006 30.933 65.2204 30.7966 65.473 30.717C65.7257 30.6337 66.0281 30.6261 66.3726 30.6867C66.7477 30.7549 67.1037 30.8534 67.4406 30.9861C67.7774 31.1187 68.1334 31.2172 68.5086 31.2854C68.6349 31.3081 68.7574 31.3195 68.8837 31.3157C69.01 31.3157 69.1249 31.2892 69.2321 31.2475C69.3392 31.2058 69.4311 31.1414 69.5115 31.0543C69.5919 30.9671 69.6455 30.8496 69.6723 30.7057C69.6991 30.5541 69.6799 30.4177 69.6149 30.3002C69.5498 30.1828 69.4617 30.0805 69.3469 29.9933C69.2321 29.9062 69.1096 29.8342 68.9718 29.7773C68.834 29.7205 68.7038 29.6826 68.5775 29.6599C68.432 29.6334 68.2827 29.622 68.1334 29.6258C67.9842 29.6258 67.8387 29.6371 67.6894 29.6485C67.5439 29.6599 67.3946 29.6675 67.2454 29.6712C67.0961 29.6712 66.9468 29.6637 66.8013 29.6371C66.6023 29.5993 66.4338 29.5348 66.296 29.4401C66.1582 29.3454 66.0472 29.2241 65.963 29.0877C65.8788 28.9475 65.8252 28.7922 65.7984 28.6179C65.7716 28.4436 65.7792 28.2655 65.8099 28.0836C65.8405 27.9018 65.9171 27.7123 66.0242 27.5342C66.1314 27.3599 66.2654 27.2122 66.4223 27.0985C66.564 26.9962 66.7171 26.9393 66.8817 26.9318C67.0463 26.9242 67.2147 26.9318 67.3832 26.9659C67.5171 26.9886 67.6435 27.0189 67.7736 27.053C67.8999 27.0871 68.0224 27.1136 68.1411 27.1364C68.3555 27.1743 68.6043 27.1932 68.8876 27.1932C69.1746 27.1932 69.4503 27.1591 69.722 27.0909C69.9938 27.0227 70.2312 26.909 70.434 26.7537C70.6369 26.5945 70.7671 26.3823 70.8168 26.1133C70.8436 25.9693 70.8398 25.8254 70.8092 25.689C70.7786 25.5525 70.725 25.4237 70.6522 25.3063C70.5795 25.1888 70.4838 25.0865 70.3651 25.0069C70.2465 24.9236 70.1163 24.8705 69.967 24.844C69.7756 24.8099 69.6072 24.8213 69.4579 24.8819C69.3086 24.9425 69.167 25.0221 69.033 25.1206C68.8952 25.2191 68.7574 25.3328 68.6158 25.4578C68.4741 25.5829 68.3172 25.6927 68.1449 25.7837C67.9727 25.8746 67.7774 25.9466 67.5593 25.9921C67.3411 26.0375 67.0846 26.0375 66.7898 25.9807C66.5487 25.9352 66.319 25.8557 66.1046 25.7382C65.8903 25.6207 65.7103 25.473 65.5572 25.2987C65.4041 25.1244 65.3008 24.9236 65.2357 24.7C65.1706 24.4727 65.1629 24.234 65.2089 23.9801C65.3122 23.4269 65.5457 22.9608 65.9132 22.5857C66.2807 22.2068 66.7133 21.9151 67.2109 21.7029C67.7085 21.4907 68.2368 21.3619 68.7957 21.3088C69.3546 21.2558 69.8752 21.2747 70.3575 21.3619C70.9891 21.4755 71.5977 21.7067 72.1796 22.0552C72.7614 22.4001 73.2629 22.8282 73.6878 23.3322C74.1127 23.8361 74.4266 24.4045 74.6333 25.0259C74.84 25.6511 74.8821 26.2952 74.7596 26.9545C74.6831 27.3713 74.5338 27.7578 74.3118 28.1215C74.0897 28.4853 73.8103 28.7998 73.4811 29.0726C73.4543 29.0915 73.4084 29.1218 73.3433 29.1711C73.2782 29.2204 73.2055 29.2696 73.1328 29.3189C73.06 29.3681 72.9949 29.4174 72.9375 29.4591C72.8801 29.5007 72.8457 29.5311 72.8342 29.5538C72.8342 29.5765 72.861 29.622 72.9031 29.6826C72.9452 29.747 72.9911 29.8152 73.0409 29.8872C73.0906 29.9592 73.1404 30.0312 73.1902 30.0994C73.2399 30.1676 73.2706 30.2207 73.2859 30.251C73.5232 30.6564 73.6878 31.0808 73.7835 31.5317C73.8792 31.9826 73.883 32.4373 73.7988 32.8957C73.6725 33.574 73.3969 34.1537 72.9682 34.6425C72.5394 35.1275 72.0303 35.5178 71.4408 35.8095C70.8513 36.1013 70.2197 36.2945 69.546 36.3855C68.8722 36.4764 68.2253 36.4688 67.609 36.3551H67.6167Z" fill="#665251"/>
</g>
<defs>
<clipPath id="clip0_719_10922">
<rect width="89" height="61" fill="white"/>
</clipPath>
</defs>
</svg>
