<svg width="79" height="66" viewBox="0 0 79 66" fill="none" xmlns="http://www.w3.org/2000/svg">
<g clip-path="url(#clip0_719_10948)">
<path d="M76.2067 42.7283C76.2067 46.3128 75.108 49.6951 73.1522 52.6967C72.6089 53.5333 77.8527 65.064 77.8527 65.064C77.8527 65.064 65.0389 60.4089 63.0468 61.4121C58.4629 63.7198 52.9776 65.064 47.0858 65.064C31.0041 65.064 17.9648 55.0639 17.9648 42.7283C17.9648 30.3927 31.0041 20.3926 47.0858 20.3926C63.1675 20.3926 76.2067 30.3927 76.2067 42.7283Z" fill="#F9B438"/>
<path d="M18.6931 42.5891C18.6931 30.3249 31.8289 20.3842 48.0354 20.3842C52.5267 20.3842 56.7805 21.1495 60.5836 22.5135C60.2174 10.4911 47.2265 0.832031 31.2494 0.832031C15.2723 0.832031 1.91113 10.7687 1.91113 23.0329C1.91113 31.899 8.77685 39.5478 18.7052 43.1085C18.7011 42.934 18.6971 42.7596 18.6971 42.5851L18.6931 42.5891Z" fill="#FFE77B"/>
<path d="M78.7831 64.6595L74.1107 53.2597L74.4528 52.7045C76.3684 49.6276 77.3785 46.1938 77.3785 42.7798C77.3785 39.1794 76.3282 35.7337 74.2515 32.5338C73.99 32.1294 73.4426 32.0144 73.0362 32.2721C72.6257 32.5298 72.5049 33.0651 72.7665 33.4696C74.662 36.384 75.6199 39.5164 75.6199 42.7798C75.6199 46.2612 74.5292 49.58 72.3842 52.653C72.2192 52.8949 72.183 53.1962 72.2916 53.4698L76.5173 63.7634L63.0153 60.7142C62.8221 60.6705 62.6128 60.6943 62.4357 60.7776C57.872 62.9624 52.5879 64.1163 47.1589 64.1163C31.4676 64.1163 18.698 54.5483 18.698 42.7798C18.698 41.8519 18.7745 40.9201 18.9314 40.0121C20.7625 29.4251 32.8963 21.4393 47.1589 21.4393C51.445 21.4393 55.566 22.1372 59.4053 23.517C59.5019 23.5527 59.6106 23.5686 59.7233 23.5726C60.1981 23.5686 60.5925 23.184 60.5925 22.7002C60.5925 22.6685 60.5885 22.6447 60.5885 22.613L60.5805 22.5377C60.3551 16.5027 57.0993 10.8603 51.4208 6.66117C45.7544 2.46208 38.281 0.150391 30.3729 0.150391C22.4649 0.150391 14.7862 2.52155 9.08761 6.83564C3.32459 11.1933 0.15332 17.0142 0.15332 23.2236C0.15332 27.7161 1.83957 32.0659 5.03096 35.809C7.82795 39.0882 11.7035 41.7885 16.231 43.6204L16.9554 43.9138L17.0399 44.683C17.6235 50.2263 20.678 55.2383 25.8776 59.1717C31.5682 63.4858 39.1301 65.857 47.163 65.857C52.5758 65.857 57.8881 64.7507 62.5283 62.661L62.9348 62.4747L77.777 65.8332C78.0949 65.9006 78.4329 65.7896 78.6422 65.5517C78.8555 65.3018 78.9119 64.9648 78.7871 64.6635L78.7831 64.6595ZM17.1808 42.645L15.0679 41.6457C6.70513 37.6925 1.50956 30.6305 1.50956 23.2236C1.50956 11.237 14.4562 1.49061 30.3729 1.49061C37.9953 1.49061 45.1789 3.70713 50.6039 7.7278C54.8577 10.8761 57.6788 14.8611 58.7534 19.2505L59.4255 21.9825L56.6607 21.2767C53.6222 20.4956 50.4228 20.0991 47.1549 20.0991C39.2106 20.0991 31.7372 22.4425 26.1151 26.6971C25.946 26.828 25.781 26.9548 25.6201 27.0857L25.4591 27.2165C25.3464 27.3038 25.2418 27.395 25.1331 27.4822L24.9802 27.6131C24.8514 27.7201 24.7588 27.7994 24.6663 27.8827L24.4691 28.0532C24.3845 28.1285 24.292 28.2118 24.1994 28.2951L24.0103 28.4656C23.9459 28.525 23.8855 28.5806 23.8251 28.64L23.5756 28.8819C23.4629 28.985 23.3583 29.0921 23.2577 29.1951L23.141 29.3101C23.0082 29.445 22.8754 29.5877 22.7426 29.7304L22.6259 29.8573C22.5413 29.9485 22.4649 30.0358 22.3844 30.123L21.8129 30.7891C21.7606 30.8486 21.7204 30.9041 21.6761 30.9557L21.1086 31.6892C21.0322 31.7884 20.9597 31.8875 20.8913 31.9906L20.7786 32.1492C20.67 32.2999 20.5694 32.4466 20.4688 32.6012L20.4205 32.6726C20.336 32.8034 20.2514 32.9343 20.1709 33.0651L19.7926 33.6956C19.7202 33.8185 19.6679 33.9176 19.6156 34.0128L19.2172 34.7741C19.1809 34.8495 19.1447 34.9248 19.1085 35.0001L18.8228 35.6266C18.7302 35.8368 18.6618 35.9994 18.5974 36.1619L18.533 36.3166C18.5169 36.3602 18.4968 36.4197 18.4726 36.4752C18.4485 36.5346 18.4284 36.5902 18.4082 36.6496L18.1627 37.3634C18.1306 37.4665 18.0984 37.5656 18.0702 37.6687L18.0058 37.8749C17.9816 37.9502 17.9655 38.0216 17.9454 38.093L17.7442 38.8939C17.708 39.0644 17.6718 39.2349 17.6396 39.4054L17.4826 40.3571L17.1647 42.637L17.1808 42.645Z" fill="#665251" stroke="#665251" stroke-width="0.75" stroke-miterlimit="10"/>
<path d="M62.9101 36.7883C62.9101 37.2642 62.5157 37.6567 62.0247 37.6567H33.3706C32.8877 37.6567 32.4893 37.2681 32.4893 36.7883C32.4893 36.3086 32.8837 35.916 33.3706 35.916H62.0247C62.5117 35.916 62.9101 36.3046 62.9101 36.7883Z" fill="#665251"/>
<path d="M62.0291 37.705H33.375C32.8639 37.705 32.4453 37.2926 32.4453 36.7891C32.4453 36.2855 32.8639 35.8691 33.375 35.8691H62.0291C62.5442 35.8691 62.9627 36.2815 62.9627 36.7891C62.9627 37.2966 62.5442 37.705 62.0291 37.705ZM33.375 35.9643C32.9162 35.9643 32.5459 36.3331 32.5459 36.7851C32.5459 37.2371 32.9162 37.6019 33.375 37.6019H62.0291C62.4879 37.6019 62.8621 37.2371 62.8621 36.7851C62.8621 36.3331 62.4879 35.9643 62.0291 35.9643H33.375Z" fill="#665251"/>
<path d="M62.9101 42.9387C62.9101 43.4185 62.5157 43.811 62.0247 43.811H33.3706C32.8877 43.811 32.4893 43.4224 32.4893 42.9387C32.4893 42.4549 32.8837 42.0703 33.3706 42.0703H62.0247C62.5117 42.0703 62.9101 42.4589 62.9101 42.9387Z" fill="#665251"/>
<path d="M62.0291 43.8593H33.375C32.8639 43.8593 32.4453 43.4469 32.4453 42.9394C32.4453 42.4318 32.8639 42.0234 33.375 42.0234H62.0291C62.5442 42.0234 62.9627 42.4358 62.9627 42.9394C62.9627 43.443 62.5442 43.8593 62.0291 43.8593ZM33.375 42.1226C32.9162 42.1226 32.5459 42.4874 32.5459 42.9394C32.5459 43.3914 32.9162 43.7602 33.375 43.7602H62.0291C62.4879 43.7602 62.8621 43.3914 62.8621 42.9394C62.8621 42.4874 62.4879 42.1226 62.0291 42.1226H33.375Z" fill="#665251"/>
<path d="M62.9101 48.8938C62.9101 49.3735 62.5157 49.7661 62.0247 49.7661H33.3706C32.8877 49.7661 32.4893 49.3775 32.4893 48.8938C32.4893 48.41 32.8837 48.0254 33.3706 48.0254H62.0247C62.5117 48.0254 62.9101 48.414 62.9101 48.8938Z" fill="#665251"/>
<path d="M62.0291 49.8183H33.375C32.8639 49.8183 32.4453 49.4059 32.4453 48.8984C32.4453 48.3908 32.8639 47.9824 33.375 47.9824H62.0291C62.5442 47.9824 62.9627 48.3948 62.9627 48.8984C62.9627 49.4019 62.5442 49.8183 62.0291 49.8183ZM33.375 48.0776C32.9162 48.0776 32.5459 48.4424 32.5459 48.8944C32.5459 49.3464 32.9162 49.7152 33.375 49.7152H62.0291C62.4879 49.7152 62.8621 49.3464 62.8621 48.8944C62.8621 48.4424 62.4879 48.0776 62.0291 48.0776H33.375Z" fill="#665251"/>
<path d="M45.6054 15.9153C45.6054 16.3911 45.211 16.7837 44.72 16.7837H16.0659C15.583 16.7837 15.1846 16.3951 15.1846 15.9153C15.1846 15.4355 15.579 15.043 16.0659 15.043H44.72C45.207 15.043 45.6054 15.4316 45.6054 15.9153Z" fill="#665251"/>
<path d="M38.0676 22.0656C38.0676 22.5454 36.2727 22.938 35.9025 22.938H15.8446C15.4824 22.938 15.1846 22.5494 15.1846 22.0656C15.1846 21.5819 15.4824 21.1973 15.8446 21.1973H37.3995C37.7658 21.1973 38.0636 21.5859 38.0636 22.0656H38.0676Z" fill="#665251"/>
<path d="M25.8855 28.0266C25.8855 28.5064 24.984 28.8989 24.815 28.8989H15.4984C15.3293 28.8989 15.1885 28.5103 15.1885 28.0266C15.1885 27.5428 15.3293 27.1582 15.4984 27.1582H25.5756C25.7486 27.1582 25.8855 27.5468 25.8855 28.0266Z" fill="#665251"/>
</g>
<defs>
<clipPath id="clip0_719_10948">
<rect width="79" height="66" fill="white"/>
</clipPath>
</defs>
</svg>
