<svg width="66" height="69" viewBox="0 0 66 69" fill="none" xmlns="http://www.w3.org/2000/svg">
<g clip-path="url(#clip0_719_10913)">
<path d="M2.87956 66.2187C3.21767 66.2539 3.7149 66.2539 4.04904 66.2539H61.9502C62.2883 66.2539 62.7855 66.2539 63.1237 66.2187C63.1237 66.1991 63.1237 66.1756 63.1237 66.152C63.2271 63.2486 63.6209 48.2849 61.0234 38.5716C60.8404 37.8899 60.2716 37.1611 59.3686 36.4558L57.2922 34.8336L59.7226 33.7914C60.4187 33.4936 60.725 33.2585 60.8245 33.1723C63.0799 31.2054 61.6121 28.6624 61.4331 28.3803C60.9836 27.675 57.4553 26.9776 56.0153 27.4713C53.9269 28.1844 52.3796 28.9093 51.2817 29.6968L48.7558 31.5032V27.4595L49.4837 26.9972C52.6063 25.0067 54.8975 21.782 55.7726 18.1537C56.6358 14.5529 56.0392 10.8227 54.1258 7.91542C52.3994 5.2902 49.7502 3.527 46.6714 2.9471C42.1725 2.10077 37.4031 3.91882 34.2168 7.69208L32.9917 9.14182L31.7665 7.69208C28.5882 3.91882 23.8148 2.10077 19.3119 2.94318C16.2331 3.52308 13.5879 5.28628 11.8575 7.91542C9.94417 10.8227 9.34749 14.5529 10.2107 18.1537C10.9466 21.21 12.6809 23.988 15.0994 25.9745L21.8418 31.5188L13.5521 28.6585C11.8893 28.0825 10.7477 27.7025 10.0635 27.4909C8.54 27.0168 5.03156 27.6907 4.594 28.3803C4.41898 28.6664 2.94718 31.2093 5.20261 33.1762C5.34979 33.3055 5.66403 33.5328 6.3522 33.9089L8.42464 35.0413L6.57495 36.5028C5.69188 37.2003 5.15089 37.8977 4.96791 38.5756C2.36244 48.281 2.76022 63.2526 2.86763 66.152C2.86763 66.1756 2.86763 66.1991 2.86763 66.2187H2.87956ZM38.0435 35.1589L35.8 34.0147C34.9129 33.5602 33.8588 33.2037 32.6615 32.949L32.578 32.9294C32.5422 32.9176 32.5024 32.9098 32.4626 32.9059L32.399 32.8941C31.8779 32.7883 31.309 32.7021 30.6527 32.6277L29.2406 32.471V27.628L29.9367 27.1618C30.6129 26.7072 31.2534 26.1704 31.8301 25.567L32.9917 24.3524L34.1492 25.571C34.726 26.1783 35.3664 26.7151 36.0546 27.1735L36.7547 27.6398V29.5832C36.8939 29.6577 37.0053 29.7321 37.0928 29.8026C38.1827 30.6607 38.135 32.181 38.1191 32.6825L38.0395 35.1706L38.0435 35.1589Z" fill="#665251"/>
<path d="M28.76 13.3136C30.6853 5.30471 38.442 -0.0279979 46.0834 1.40999C53.7248 2.84798 58.3589 10.5081 56.4337 18.517C54.5084 26.5298 46.7517 31.8585 39.1103 30.4206C31.4689 28.9826 26.8347 21.3224 28.76 13.3136Z" fill="#F78004"/>
<path d="M14.7695 28.3125V31.2394C9.70971 32.2112 3.49238 34.6718 2.55361 38.1747C-0.385999 49.134 0.405587 66.1195 0.405587 66.3624V66.6093C0.405587 67.82 1.79385 67.82 3.16222 67.82H36.8981C38.2665 67.82 39.6547 67.82 39.6547 66.6093V38.1708C39.6547 34.9853 36.6952 31.7958 29.9489 31.0631V28.3086H14.7695V28.3125Z" fill="#FCD836"/>
<path d="M49.4604 25.7461V31.2395C54.5202 32.2112 60.7376 34.6718 61.6763 38.1747C64.612 49.1379 63.8243 66.1234 63.8243 66.3625V66.6093C63.8243 67.82 62.4361 67.82 61.0677 67.82H27.3318C25.9635 67.82 24.5752 67.82 24.5752 66.6093V38.1708C24.5752 34.9853 27.5347 31.7959 34.2811 31.0631V28.3086L49.4604 25.7422V25.7461Z" fill="#F78004"/>
<path d="M18.1349 1.40609C25.7763 -0.0319043 33.5331 5.30081 35.4583 13.3097C37.3836 21.3185 32.7494 28.9826 25.108 30.4166C17.4667 31.8546 9.70991 26.5219 7.78464 18.5131C5.85938 10.5042 10.4896 2.84408 18.1349 1.40609Z" fill="#FCD836"/>
<path d="M34.4044 30.9108C31.6597 31.6161 27.1926 31.9217 22.0453 30.2016C16.6116 28.3836 11.6115 26.5968 9.66234 25.9974C7.88823 25.4488 3.36545 25.9347 2.35508 27.5686C1.34472 29.2025 0.77589 32.1764 3.26998 34.351C5.76408 36.5256 18.8988 40.8239 22.6141 42.7556C24.5593 43.7665 24.4439 49.8437 24.5593 54.8042C24.7343 62.2997 40.033 29.4611 34.4044 30.9108Z" fill="#F78004"/>
<path d="M20.0279 47.9555C22.8163 48.5079 27.5818 49.4601 32.6018 47.4579C37.8963 45.3459 42.4787 42.3916 44.3801 41.6863C46.1105 41.0437 49.7701 40.4207 51.7828 42.8539C53.0279 44.3546 53.6842 47.3677 51.3492 49.6756C49.0143 51.9873 39.8295 56.94 33.0354 58.3936C27.2755 59.6239 18.4328 59.5064 15.6125 56.9243C11.2091 52.8924 16.2012 47.1992 20.0319 47.9594L20.0279 47.9555ZM46.7668 33.0349C46.7668 29.4144 50.3787 27.4435 54.6031 25.9938C56.3533 25.3943 60.9 25.9311 61.9104 27.565C62.9168 29.1989 63.4896 32.1728 60.9955 34.3475C58.5014 36.5221 46.7708 38.5987 46.7708 33.0309L46.7668 33.0349Z" fill="#FCD836"/>
<path d="M61.9547 68.9992H4.04959C2.66929 68.9992 0.0996147 68.9992 0.0996147 66.6091V66.2525C-0.0555203 62.0796 -0.349879 47.7036 2.28742 37.8767C2.51415 37.0382 2.9716 36.231 3.65579 35.467C3.54838 35.3886 3.45292 35.3103 3.36541 35.2319C0.561042 32.7869 0.771866 29.3154 2.22377 26.9605C3.48474 24.9152 7.83648 24.3431 10.2033 24.7193C8.94629 22.9365 8.02343 20.9186 7.51029 18.791C6.47208 14.4653 7.20798 9.95932 9.53103 6.429C11.6671 3.16511 14.9608 0.970907 18.7954 0.249953C23.875 -0.702176 29.1974 1.08454 32.9922 4.93615C36.795 1.08454 42.1213 -0.698258 47.193 0.253871C51.0277 0.974825 54.3173 3.16903 56.4614 6.429C58.7844 9.95932 59.5203 14.4614 58.4781 18.7871C57.965 20.9186 57.0381 22.9326 55.7851 24.7115C58.1519 24.2844 62.5355 24.8878 63.8163 26.9566C65.2682 29.3115 65.4751 32.783 62.6707 35.2319C62.5753 35.3142 62.4718 35.3965 62.3605 35.4787C63.0407 36.2389 63.4941 37.0421 63.7169 37.8767C66.3502 47.7114 66.0598 62.0835 65.9087 66.2564V66.613C65.9047 69.0031 63.335 69.0031 61.9547 69.0031V68.9992ZM2.48631 66.5464C2.80453 66.6482 3.57225 66.6483 4.04959 66.6483H61.9547C62.4321 66.6483 63.1958 66.6482 63.518 66.5464V66.3622C63.518 66.3622 63.518 66.2839 63.526 66.1702C63.6731 62.0796 63.9595 47.9975 61.4098 38.4762C61.2029 37.7004 60.5983 36.9207 59.6158 36.1566C58.9634 35.9685 58.7725 35.1496 59.2737 34.699L59.8783 34.1544C60.6062 33.8409 60.9483 33.5902 61.0876 33.4687C63.1162 31.7016 62.4758 29.3115 61.7757 28.1752C61.1711 27.1995 57.2927 26.6157 55.8846 27.1055C53.7167 27.85 52.1772 28.5748 51.0475 29.382C50.8168 29.5426 50.6219 29.6994 50.4429 29.8561L49.7707 29.8247C48.8597 29.7856 48.2193 28.9275 48.446 28.0576L49.0387 27.7167C49.2655 27.5874 49.4843 27.4542 49.703 27.3171C52.9052 25.2757 55.2601 21.9648 56.1551 18.2385C57.0461 14.5358 56.4255 10.6959 54.4565 7.70242C52.6705 4.98709 49.9298 3.15728 46.7435 2.55779C42.1014 1.68402 37.1848 3.55302 33.9111 7.4399L32.9922 8.52917L32.0733 7.43598C28.8036 3.55302 23.887 1.68011 19.2409 2.54995C16.0507 3.14944 13.3139 4.97534 11.5239 7.69459C9.55489 10.692 8.93435 14.5319 9.82539 18.2346C10.5772 21.3653 12.3593 24.2178 14.8454 26.267L19.8853 30.4242L13.6839 28.277C11.9893 27.6893 10.8795 27.321 10.1913 27.1055C8.4053 26.553 4.77753 27.3288 4.26042 28.1634C3.56032 29.2997 2.91989 31.6898 4.9446 33.4569C5.11167 33.6019 5.45774 33.8566 6.15784 34.2327L7.7251 35.0791L6.32888 36.1801C5.37818 36.9324 4.79344 37.7004 4.5866 38.4605C2.03284 47.974 2.32322 62.0639 2.4704 66.1545C2.47437 66.2682 2.47437 66.3348 2.47437 66.3505V66.5346L2.48631 66.5464Z" fill="#665251"/>
</g>
<defs>
<clipPath id="clip0_719_10913">
<rect width="66" height="69" fill="white"/>
</clipPath>
</defs>
</svg>
