<svg width="65" height="66" viewBox="0 0 65 66" fill="none" xmlns="http://www.w3.org/2000/svg">
<g clip-path="url(#clip0_719_10961)">
<path fill-rule="evenodd" clip-rule="evenodd" d="M49.2625 63.0782C49.699 62.9265 50.0212 62.5454 50.0947 62.0823C50.1722 61.6192 49.9886 61.1519 49.6215 60.8651C49.3727 60.6683 49.132 60.4552 48.9076 60.2257L5.69806 16.3282C5.47371 16.1028 5.26568 15.861 5.07396 15.6069C4.78842 15.238 4.33157 15.0536 3.87471 15.1274C3.41786 15.2052 3.04258 15.5331 2.89166 15.9757C2.26756 17.8446 1.94531 19.82 1.94531 21.8323C1.95347 26.6601 3.84616 31.2872 7.20731 34.7052C14.4191 42.029 23.6093 51.3651 30.8211 58.6888C34.1863 62.1069 38.7426 64.029 43.4947 64.0331C45.4772 64.0331 47.4229 63.7052 49.2625 63.0741V63.0782Z" fill="#F8AC3A"/>
<path fill-rule="evenodd" clip-rule="evenodd" d="M49.2625 63.0782C49.699 62.9265 50.0212 62.5454 50.0947 62.0823C50.1722 61.6192 49.9886 61.1519 49.6215 60.8651C49.3727 60.6683 49.132 60.4552 48.9076 60.2257L5.69806 16.3282C5.47371 16.1028 5.26568 15.861 5.07396 15.6069C4.78842 15.238 4.33157 15.0536 3.87471 15.1274C3.41786 15.2052 3.04258 15.5331 2.89166 15.9757C2.26756 17.8446 1.94531 19.82 1.94531 21.8323C1.95347 26.6601 3.84616 31.2872 7.20731 34.7052C14.4191 42.029 23.6093 51.3651 30.8211 58.6888C34.1863 62.1069 38.7426 64.029 43.4947 64.0331C45.4772 64.0331 47.4229 63.7052 49.2625 63.0741V63.0782Z" fill="#F8AC3A"/>
<path fill-rule="evenodd" clip-rule="evenodd" d="M49.2625 63.0782C49.699 62.9265 50.0212 62.5454 50.0947 62.0823C50.1722 61.6192 49.9886 61.1519 49.6215 60.8651C49.3727 60.6683 49.132 60.4552 48.9076 60.2257L5.69806 16.3282C5.47371 16.1028 5.26568 15.861 5.07396 15.6069C4.78842 15.238 4.33157 15.0536 3.87471 15.1274C3.41786 15.2052 3.04258 15.5331 2.89166 15.9757C2.26756 17.8446 1.94531 19.82 1.94531 21.8323C1.95347 26.6601 3.84616 31.2872 7.20731 34.7052C14.4191 42.029 23.6093 51.3651 30.8211 58.6888C34.1863 62.1069 38.7426 64.029 43.4947 64.0331C45.4772 64.0331 47.4229 63.7052 49.2625 63.0741V63.0782Z" fill="#F9B438"/>
<path fill-rule="evenodd" clip-rule="evenodd" d="M28.4795 56.3125L30.825 58.6937C34.1902 62.1117 38.7465 64.0338 43.4986 64.0379C45.4811 64.0379 47.4268 63.71 49.2664 63.0789C49.7029 62.9273 50.0251 62.5461 50.0986 62.083C50.1761 61.6199 49.9925 61.1527 49.6254 60.8658C49.3766 60.6691 49.1359 60.4559 48.9116 60.2264L47.647 58.9437C47.7572 59.1773 47.7939 59.4396 47.7531 59.7018C47.6756 60.165 47.3574 60.5461 46.921 60.6978C45.0813 61.333 43.1356 61.6609 41.1532 61.6568C36.401 61.6486 31.8447 59.7264 28.4795 56.3125Z" fill="#F78004"/>
<path fill-rule="evenodd" clip-rule="evenodd" d="M15.7413 2.92777C15.3048 3.07941 14.9826 3.46055 14.9091 3.92367C14.8316 4.38678 15.0152 4.854 15.3782 5.14088C15.6271 5.3376 15.8636 5.54662 16.0839 5.77613L59.3017 49.6696C59.526 49.8991 59.7381 50.1409 59.9298 50.395C60.2113 50.7679 60.6722 50.9524 61.1291 50.8745C61.5859 50.7966 61.9612 50.4728 62.1121 50.0261C62.7362 48.1573 63.0626 46.1778 63.0585 44.1696C63.0503 39.3458 61.1576 34.7147 57.7965 31.2966C50.5847 23.9728 41.3945 14.6368 34.1827 7.31301C30.8175 3.89498 26.2612 1.97285 21.5091 1.96875C19.5307 1.96875 17.585 2.29662 15.7453 2.92777H15.7413Z" fill="#F9B438"/>
<path fill-rule="evenodd" clip-rule="evenodd" d="M25.9424 2.54102C26.8316 3.16397 27.6678 3.86888 28.4388 4.65577C35.6506 11.9795 44.8407 21.3156 52.0525 28.6394C55.4137 32.0574 57.3104 36.6845 57.3145 41.5123C57.3145 43.3402 57.0494 45.1394 56.5313 46.8566L59.3051 49.6722C59.5295 49.9017 59.7416 50.1435 59.9333 50.3976C60.2147 50.7705 60.6757 50.955 61.1325 50.8771C61.5894 50.7992 61.9647 50.4754 62.1156 50.0287C62.7397 48.1599 63.066 46.1804 63.0619 44.1722C63.0538 39.3484 61.1611 34.7173 57.7999 31.2992C50.5881 23.9754 41.398 14.6394 34.1862 7.31561C31.8897 4.98364 29.0384 3.34839 25.9465 2.54102H25.9424Z" fill="#F78004"/>
<path fill-rule="evenodd" clip-rule="evenodd" d="M61.092 62.0416C62.9398 60.1646 63.98 57.6195 63.98 54.9637C63.98 52.308 62.9398 49.7629 61.092 47.8859C50.4334 37.0621 28.5043 14.7834 17.8457 3.95963C15.9979 2.08258 13.4893 1.0293 10.8746 1.0293C8.25988 1.0293 5.75533 2.08258 3.90751 3.95963C2.05969 5.83667 1.01953 8.38176 1.01953 11.0375C1.01953 13.6932 2.05969 16.2383 3.90751 18.1154C14.5661 28.9391 36.4993 51.2178 47.1579 62.0457C49.0057 63.9227 51.5103 64.976 54.125 64.976C56.7396 64.976 59.2442 63.9227 61.092 62.0457V62.0416Z" fill="#E03102"/>
<path fill-rule="evenodd" clip-rule="evenodd" d="M7.54558 12.4261L12.8484 13.1761C15.1367 13.4998 16.9274 15.3441 17.2089 17.6761C17.3149 18.5572 17.4292 19.4834 17.5352 20.3687C17.9635 23.8851 20.6924 26.6597 24.1556 27.0941L26.7294 27.4179C29.0504 27.7089 30.8819 29.5695 31.1675 31.9261C31.2735 32.7867 31.3837 33.6802 31.4856 34.5408C31.9139 38.0572 34.6428 40.8318 38.106 41.2662L40.6799 41.59C43.0009 41.881 44.8324 43.7375 45.1179 46.0982C45.2117 46.8646 45.3096 47.6638 45.4034 48.4343C45.8481 52.1023 48.7891 54.9384 52.4194 55.2007C55.0545 55.3892 57.7018 55.5818 57.7018 55.5818C58.3912 55.631 58.9908 55.1023 59.0398 54.4015C59.0887 53.7007 58.5666 53.09 57.8772 53.0408L52.5948 52.6597C50.1596 52.4834 48.1894 50.5859 47.8917 48.1228C47.7979 47.3482 47.7 46.5531 47.6061 45.7826C47.1778 42.2662 44.4489 39.4916 40.9858 39.0572L38.416 38.7375C36.0909 38.4466 34.2635 36.5859 33.9739 34.2252C33.8678 33.3646 33.7618 32.4752 33.6557 31.6146C33.2274 28.0941 30.4985 25.3236 27.0313 24.8851L24.4615 24.5654C22.1364 24.2744 20.309 22.4138 20.0194 20.0531C19.9133 19.1679 19.7991 18.2457 19.693 17.3605C19.2729 13.8851 16.6011 11.131 13.191 10.6515C10.5804 10.2826 7.88414 9.89738 7.88414 9.89738C7.19885 9.79902 6.5666 10.2867 6.4687 10.9834C6.3708 11.6802 6.85213 12.3236 7.53742 12.422L7.54558 12.4261Z" fill="#FFE77B"/>
<path d="M54.125 66C52.1222 66 50.1765 65.4467 48.4755 64.3934C46.8479 64.8402 45.1715 65.0574 43.495 65.0615C38.5103 65.0574 33.6277 63 30.1034 59.4139L27.2888 56.5574C20.6032 49.7705 12.7877 41.832 6.48963 35.4303C2.91228 31.7951 0.938013 26.9713 0.929855 21.8402C0.929855 20.1189 1.15013 18.4221 1.59066 16.7787C0.550502 15.0492 0.00390625 13.0738 0.00390625 11.041C0.00390625 9.59016 0.281283 8.17213 0.831958 6.82377C1.37855 5.48361 2.16989 4.28279 3.18558 3.2459C5.2088 1.18033 8.01112 0 10.8746 0C12.8775 0 14.8232 0.557377 16.5323 1.61066C18.1598 1.16393 19.8363 0.942623 21.5088 0.942623C26.5668 0.95082 31.3271 2.95492 34.9085 6.59016C39.1711 10.9262 44.1313 15.959 48.9609 20.8689L58.5223 30.5779C62.0955 34.209 64.0698 39.0369 64.0779 44.168C64.0779 45.877 63.8577 47.5738 63.4171 49.2295C64.4532 50.9549 64.9998 52.9262 64.9998 54.959C64.9998 57.9016 63.8699 60.6721 61.8181 62.7582C59.7908 64.8156 56.9885 65.9959 54.125 65.9959V66ZM48.81 62.1557L49.2138 62.4303C50.6741 63.4262 52.371 63.9508 54.1291 63.9508C56.4501 63.9508 58.7262 62.9918 60.3701 61.3197C62.0425 59.623 62.9644 57.3648 62.9644 54.9631C62.9644 53.1721 62.4463 51.4426 61.4673 49.959L61.2022 49.5615L61.3368 49.1025C61.81 47.4959 62.0466 45.8402 62.0425 44.1721C62.0343 39.5779 60.2722 35.2623 57.0742 32.0164L47.5128 22.3074C42.6791 17.4016 37.7231 12.3648 33.4564 8.02869C30.2625 4.78689 26.0161 2.9959 21.5006 2.9877H21.4598C19.8404 2.9877 18.2251 3.22951 16.6588 3.70082L16.1937 3.84016L15.794 3.56557C14.3255 2.56967 12.6246 2.04098 10.8706 2.04098C8.54956 2.04098 6.27344 3 4.62957 4.67213C3.80152 5.51639 3.15295 6.4959 2.71241 7.58607C2.26371 8.68853 2.03936 9.84426 2.03936 11.0287C2.03936 12.8197 2.5574 14.5533 3.54046 16.041L3.8056 16.4385L3.67099 16.8975C3.2019 18.4918 2.96531 20.1475 2.96531 21.8279C2.97347 26.4139 4.73971 30.7336 7.9377 33.9795C14.2358 40.3811 22.0513 48.3156 28.7369 55.1066L31.5514 57.9631C34.6964 61.1639 39.0528 63 43.495 63.0041H43.5317C45.1592 63.0041 46.7745 62.7623 48.3409 62.291L48.8059 62.1516L48.81 62.1557Z" fill="#665251"/>
</g>
<defs>
<clipPath id="clip0_719_10961">
<rect width="65" height="66" fill="white"/>
</clipPath>
</defs>
</svg>
