<?xml version="1.0" encoding="UTF-8"?>
<svg id="Layer_1" xmlns="http://www.w3.org/2000/svg" xmlns:vectornator="http://vectornator.io" version="1.1" viewBox="0 0 4696.4 4696.4">
  <!-- Generator: Adobe Illustrator 29.2.1, SVG Export Plug-In . SVG Version: 2.1.0 Build 116)  -->
  <defs>
    <style>
      .st0 {
        fill: #4c3631;
      }

      .st1 {
        display: none;
        fill: #fff;
      }

      .st2 {
        fill: #ffe0b5;
      }

      .st3 {
        fill: #e25e49;
      }

      .st4 {
        fill: #b44c29;
      }

      .st5 {
        fill: #ffbf5e;
      }
    </style>
  </defs>
  <rect class="st1" y="0" width="4696.4" height="4696.4"/>
  <g>
    <g>
      <path class="st3" d="M715.5,3507.7c37.5,27.4,42.1,39.4,57.8,82.5,8.6,20.9,20.2,39.9,36.9,55.5,12.5,8.8,21.4,28.2,1.2,33.9-20.5,5-38.7-1.1-54.8-13.9-40.8-33.6-48.6-132.4-119.8-107.8-26.5,52.5-1.5,110.2,23.4,158.3,9,27.4-23.6,30-40.3,17.3-57.7-29.4-72.8-94.6-62.7-154.6.8-5.4,3.1-10.9-.5-17.6-9.4-4.4-20-6-32.2-5.1-47.3,46.1-67.5,109.1-71.5,173.9-3,12.1.3,32.5-15.5,35.6-41-1.3-18.3-102.4-18.9-130.2,3.7-40.6,22-79,55.4-103.1.8-11-3.2-17.4-6-23.9-16.8-6.2-53.9,50.1-69,61.2-14.2,19.1-92.7,46.5-101.8,17.3-5.1-20.8,51-14.3,83-58.9,27.1-35.8,59-69.7,104.8-79,10.5-2.4,18.9-7.5,27.3-13.4,43.2-30.3,102.3-43.6,150.6-17.8,16.2,8.3,32.7,13.6,50.6,13.7,34.6.1,63.6,19.7,94.4,32.5,36.1,17.2,69.6,19.2,109,13.9,15.3,2.7,14.7,21.6,6.4,31.5-22.4,33.1-61.8,38-97.4,24.5-35-9.4-70.1-18.8-105.1-28.1-1.3-.3-3,1-5.1,1.8Z"/>
      <path class="st3" d="M1305.9,2966.1c-4.8,16-16.6,20-28.2,22.8-97.5,20.2-196.3,33.8-293.8,54.5-68,15-139.8,21.4-201.7,55.5-18,9.8-30.6,24.6-36.6,44.2-15.6,50.9-32.3,101.5-45.3,153.1-6.8,27-12.7,54.2-16.8,81.8-5.3,21.1-1.3,47-14.8,64.9-44.4,10-94.9,12.7-141.3,13-9.1.3-14.1-4.5-13.7-13.6,14.3-130,29.1-260.1,47.4-389.7,9-39.9,18.2-170.4,69.8-169.7,173.4-18.7,347.4-33,521.8-36.6,26.2-1.8,40.3,24.2,58.4,38.8,29,30.6,61.6,55,94.9,80.8Z"/>
      <path class="st4" d="M984,3043.5c6.5-23.3-1.3-48.5,2.9-72.2,4.9-17,23-23.5,37.7-13.8,22.5,15.9,24.2,48.3,26.6,72.9-22.4,4.3-44.8,8.7-67.3,13.1Z"/>
      <path class="st4" d="M701.1,2936.4c-9.4,21.1-33.7,14.3-45.9,0-16.1-17.4-37.3-23.2-59.9-26,12.1-35,54.3-27.1,83.8-32.5,13.1,13.6,31.5,37.5,22,58.5Z"/>
      <path class="st4" d="M716.1,3239.1c-5.6,19-11,38-15.8,57.2-19.1-8.8-39.9,1.2-60,2.2-14.1.8-22.1-18.1-13-28.5,22.5-23.2,58.2-30.5,88.8-30.9Z"/>
      <path class="st4" d="M622.9,3130.1c-1,18.5-24.5,25.2-34.5,10.4-8.7-15.3-16.6-31.8-34.7-36.9,2.3-17,4.7-34,7.3-50.9,34.6,6.6,65.5,41.8,61.8,77.3Z"/>
      <path class="st4" d="M974,2881.1c.3,15.2-15.8,29.4-30.5,19.3-14.2-9.8-20-27.5-25.6-42.9,16.9-1.2,33.8-2.3,50.6-3.4,3.3,9.5,5.5,19.3,5.5,27Z"/>
      <path class="st5" d="M1146.6,2952.4c23.6,3.6,19.1,35.9-3.5,35.4-23.7-3.5-18.8-35.9,3.5-35.4Z"/>
      <path class="st5" d="M1007.9,2964.8c23.4,1.3,20.4,35-1.9,35.1-22.6-.8-20.8-35.8,1.9-35.1Z"/>
      <path class="st5" d="M626,3167.8c-2,22.4-35.7,22-35.8-1,1.1-22,36.7-21.6,35.8,1Z"/>
      <path class="st5" d="M850.4,3018.3c-23.9-.7-19.3-36,3.1-33.9,20.7,2.2,18.4,35.3-3.1,33.9Z"/>
      <path class="st5" d="M1091.9,2869.1c1.3,22.3-32.3,25.7-34.9,3.1-2.4-23.1,33-24.6,34.9-3.1Z"/>
      <path class="st5" d="M918.4,2881.8c.7-22,36.5-20.8,35,1.6-1.1,22.9-35.9,20.3-35-1.6Z"/>
      <path class="st5" d="M798,2902.4c-.4,21.2-33.9,20.8-35.1.2.5-23.2,34.3-23.6,35.1-.2Z"/>
      <path class="st5" d="M641.8,2896.8c23.4,0,24.3,34,.3,34.1-21.7-.6-21.7-33.2-.3-34.1Z"/>
      <path class="st5" d="M713.2,3030.4c-24.1-.3-21.5-34.3,1.3-34.2,21.2,1.4,20.5,34-1.3,34.2Z"/>
      <path class="st5" d="M551.9,3409.9c22.4-.9,25.5,33.5,1.4,33.9-21.4.6-22.3-32.8-1.4-33.9Z"/>
      <path class="st5" d="M663.8,3300.8c-1.8,21.6-33.8,20.7-33.7-1.3,2.1-22.1,33.1-20.5,33.7,1.3Z"/>
    </g>
    <path class="st2" d="M3849.5,1513.8c-49,11-99-2.7-147.4,9.7-6.3,2.2-11.3,5-15.5,9h0c-2.1,2-4,4.4-5.8,7.2-1.9,3.2-7.4,10.8-14.8,20.2-23.1,29-65.1,75.2-76.4,60.2-12.5-11.8,8.6-24.6,16.2-32.9,1.6-1.5,3.1-2.9,4.7-4.4,1.9-1.8,3.9-3.7,5.8-5.6,11.2-11,21.9-22.4,31.7-34.7,32.3-37.1,39.4-78.3,25.5-114.1-9.7-24.9-29.5-47.1-58.3-63.6-1.2-.7-2.4-1.4-3.6-2-7.3-4.1-14.7-7.9-22.2-11.5-80.2-39-170-55-256.7-73.3-102.8-20.3-207.3-31.5-312.1-33-114.6.4-228.1,17.5-340.9,36.3-218.5,36.8-437.2,81.8-644.4,161.4-231.8,88.5-454,207.6-648.9,362-45.5,37.1-89.1,76.8-128.7,120.4-30.1,32.7-57,68.3-87.4,100.8-37.4,41.1-77.3,13.9-71-39.1,5.8-47.4,23.8-93.8,43.9-135.5,27.4-55,65.5-103.8,113-143.7,269.1-227.9,578.4-404.8,900.9-545.4,215.2-83,435.9-154.3,661-205.2,184.1-38,371.4-61.3,558.4-79.9,183.1-16.1,381.3,8.6,482.5,57.2,99.8,48,178.6,267.3,177.3,381.3,2,107.3-84.3,186.1-186.9,198.4Z"/>
    <path class="st4" d="M3658.3,909.2c-14.3,148.7-55.4,287.2-116.9,421.4-8.1-2.9-16.2-5.5-24.4-8.1,61-128.9,98.9-266.3,115.8-407.9.5-9.6,2.8-24.1,14.4-23.2,8.5-1.1,12.2,11.8,11.1,17.8Z"/>
    <path class="st4" d="M3415.7,1101.6c1.1,65.7-8.7,127.6-22.4,188.5-8.5-1.9-16.9-3.6-25.4-5.4,32.7-134.1,33-275.8-17.9-405.6,8.9-.8,17.7-1.5,26.6-2.2,26.2,70.1,41,151.1,39.1,224.7Z"/>
    <path class="st4" d="M3150.6,1177c-1.5,24.7-3.9,49.3-6.3,73.9-8.4-.7-16.8-1.4-25.2-2,15.1-114.1,6.2-231.2-45.2-335.5,8.8-1.2,17.5-2.4,26.3-3.6,38.5,84.6,56.3,173.5,50.5,267.2Z"/>
    <path class="st4" d="M2919.6,1249.1c-8.4.7-16.8,1.4-25.2,2.2-3.9-104.6-32.4-209-103.2-288.5,9-2,18-4,27-6,70,82,97.1,185.6,101.4,292.3Z"/>
    <path class="st4" d="M2500.4,1313.9c-8.5,1.7-16.9,3.4-25.4,5.1-20.4-85.9-55.4-173.5-130.5-225.4,9.7-3.3,19.5-6.5,29.3-9.7,70.4,57,106.1,144.1,126.6,230.1Z"/>
    <path class="st4" d="M2679.9,1281c-8.6,1.4-17.1,2.9-25.7,4.4-8.5-92.6-28.1-186.2-78.8-265.6,8.4-2.5,16.8-5,25.1-7.4,50,80.8,69.7,175.2,79.3,268.6Z"/>
    <path class="st4" d="M2292.2,1360.7c-8.3,2.2-16.6,4.4-24.8,6.6-11.3-79.1-43.4-158.1-110.2-205.4,9-3.7,18-7.3,27.1-10.9,63.9,51.1,95.9,130.2,107.9,209.6Z"/>
    <path class="st4" d="M2110.5,1415.5c-8.2,2.8-16.4,5.6-24.5,8.5-19-68.4-49.1-132.7-98.6-184.1,7.9-3.9,15.8-7.7,23.7-11.6,48.6,52.6,79.3,118.9,99.4,187.1Z"/>
    <path class="st4" d="M1942.4,1479.6c-7.8,3.3-15.6,6.6-23.4,10-24.7-60.1-60.2-120.1-119.1-151.9,8.7-4.8,17.4-9.5,26.1-14.3,55.8,36.4,91.2,96,116.5,156.2Z"/>
    <path class="st4" d="M1619.3,1644.1c-7.3,4.4-14.6,8.8-21.8,13.3-23.8-51.4-54.5-98.2-94.6-138.2,7-4.8,14-9.6,21-14.4,40.1,40,71,88.3,95.4,139.3Z"/>
    <path class="st4" d="M1766.3,1562.1c-7.7,3.9-15.3,7.9-22.9,12-21.1-56.1-54.4-109.5-105.5-142.7,7.6-4.6,15.2-9.3,22.8-13.9,51.2,33.7,82.8,89.2,105.6,144.6Z"/>
    <path class="st4" d="M1499.1,1720.9c-7.2,4.9-14.4,9.9-21.5,14.9-22.4-53-60.4-94.4-115.2-114.2,7.7-5.9,15.4-11.8,23.1-17.7,52,22.1,90.1,65.9,113.6,117Z"/>
    <path class="st4" d="M1386.6,1804.5c-6.5,5.3-12.9,10.6-19.3,16-37.2-40-77.6-78.2-130.4-95.8,6.8-6.4,13.9-12.7,21.2-18.8,52.1,19.2,90.8,59.5,128.5,98.6Z"/>
    <path class="st4" d="M1257.9,1924.8c-5.9,6.5-11.7,13.1-17.5,19.7-22.2-40-57-72.3-97-93.6,3.8-7.5,7.7-14.9,11.9-22.2,42,22.2,77.7,54.4,102.7,96.1Z"/>
    <path class="st4" d="M3403.6,1209.1c-26.5,20.1-55.7,38.6-70.7,68.6-30.1-5.8-60.2-11-90.5-15.4,30-37.1,66.1-71.8,112.5-87,17.3-4.7,45.9-12.1,55.4,8.5,3.7,9.8.9,18.5-6.6,25.2Z"/>
    <path class="st4" d="M3238.8,891.5c-22.6,37.7-25.7,80.8-34.4,122.6-2.8,9.7-8.8,16.7-19.5,17.1-39.9-2.8-33.9-101.8-27.2-129.2,27-3.6,54.1-7.1,81.1-10.5Z"/>
    <path class="st4" d="M2446.7,1150.5c-6.9,18.8-18.2,25.9-38.3,26.2-11.2.2-18.4-5.1-21.2-18-5.3-25.1-8.8-50.6-9.4-76.2,25.9-8.6,51.8-17.1,77.7-25.4.5,31.3,3.7,63.4-8.8,93.4Z"/>
    <path class="st4" d="M2664.7,1200.4c-8,28.8-21.9,56.4-19.9,86.6-22.4,3.9-44.7,7.9-67,12,3.4-30,8.9-60.1,24.5-86.4,8.2-14.3,19.3-28.3,35.1-34.2,14.7-4.9,28.8,6.5,27.2,21.9Z"/>
    <path class="st4" d="M2035.4,1442.5c-23.2,8.7-46.2,17.8-69.1,27.2-5.2-38.5-5.4-84,17.7-117.8,10.2-16,35.8-9.9,36.9,9.5.3,28,2.5,55.7,14.4,81.1Z"/>
    <path class="st4" d="M3613.8,1067.9c4.1-37.9,26.5-72.8,51.4-100.8,12.2-14,28.7-17,46.1-11.7,30.3,8.7,22.6,41.7.2,55.3-18.6,14.6-33,32.6-45,52.9-4.3,7.2-9,14.2-14.1,20.8-13.5,18.3-39.2,9.1-38.6-16.4Z"/>
    <path class="st4" d="M1736.1,1466.9c0,16.4-21.9,25.4-32.6,12.6-16.3-19.1-27.6-42.2-44.4-61,17-10.3,34.1-20.3,51.3-30.2,13,22.6,26.9,52,25.7,78.6Z"/>
    <path class="st4" d="M2875.2,1132.9c.4-24.5-.2-52.4,17.6-71.4,19.7-23.3,49.7-4.5,48.4,23.1,1.1,27.3-8.9,103.7-44.8,100.2-20.5-1.3-21-34.1-21.2-51.9Z"/>
    <path class="st4" d="M2253,1286.2c1.4,22.6-7,58.2-38.1,52.4-9.1-1.1-16.1-5.3-19.2-14-6.9-19.3-13.3-38.8-13.9-59.6-4.8-35.9,37.9-66.6,61.2-29.9,7,11.2,10,25.8,10,51Z"/>
    <path class="st4" d="M1401.9,1792.2c-14.8,11.7-29.4,23.7-43.7,36-8.7-31-14.5-61.3-7.2-94.6,4.1-21,35.9-19.5,36.5,1.6-.6,21.2,5.3,39.7,14.4,57Z"/>
    <path class="st4" d="M1205.2,1886.2c-9.1,4.9-18.3-1.1-24.6-7.8-10.7-11.9-22.5-22.3-35.1-31.7,8.2-16,17.4-31.6,27.4-46.6,21.5,15.7,35.9,39.7,42.6,66.6.5,9.5-3,15.8-10.3,19.5Z"/>
    <path class="st4" d="M1562.6,1634.9c0,11-3.8,20-13.6,25.8-26.4,14.4-54.7-26.9-71-43.4-11-13.1,1.3-39.7,17.9-41.7,29-3.6,66.4,29.7,66.7,59.3Z"/>
    <path class="st3" d="M3924.8,2222.4h0c-298.1,373.7-838,580.2-1178.5,678-176.9,50.8-299.9,72.4-307.1,72.8-.4,0-.7,0-1.1,0-11.6-9.7,2.2-24.2,12.7-27,16.3-4.6,31.3-11.6,45.7-19.7,29.2-19.7,62.8-33.9,88.9-57.6-2.6-2.8-4.5-5.4-5.9-7.8-6.3-11-.3-17.6,9.5-22.5,10.9-5.4,26.5-8.7,35-13.6-3.9-25.8-24.3-52.8-48.3-75-17.7-16.4-37.3-30.3-53.6-39.3-1.4-.6-2.7-1.1-4-1.6-10.1-4.1-20.2-8.2-30.3-12.2-227.3-89.7-468.7-147.3-699.2-230.5-106.9-37.2-212.8-77.6-315.8-124.7,168.1-187.1,401.7-292.6,643.6-348.4,496.9-138.2,1045.8-144.4,1497.5-412.8,76.3-70,99.1-156.3,1.4-215.9-14.7-9.1-30.6-13.7-43.6-25.8,111.9-122.7,208.5-258.6,287.5-404.7,24.2,11.2,51.4,26.6,80,46.1,28.5,19.4,58.2,42.9,87.5,70.3,52.3,49,103,110.5,142.1,184.2,9.6,18.1,18.6,37,26.6,56.5,12.7,30.9,23.3,63.5,31.2,98,1.8,7.7,3.4,15.6,4.9,23.5,2.7,14.4,5,29,6.7,44,23.4,203.1-47.7,460.1-313.3,765.7Z"/>
    <path class="st3" d="M1431.3,2227.9c4.2,10.2,4.4,17.8-3,24.6-19.8,18.2-39.2,36.7-58.2,54.5-8.8-2.2-15.8-4.3-19.8-11.5,15-19,57.6-54.7,81-67.7Z"/>
    <path class="st2" d="M3924.8,2222.4h0c-298.1,373.7-838,580.2-1178.5,678-41.7-7.8-82.9-15.4-121.5,2.1-3.1-3.8-5.8-6.8-10.7-12.5-33.4,16.8-61.5,33-94.7,46.8-11.1,4.6-20.2-1.8-23-10.4-2-6.4-.5-14,6.4-19.1,20.7-15.6,43.9-27.5,66.3-40.5,3.1-2.3,6.8-3.9,10.4-5.7,5-2.5,9.9-5.3,12.5-10.4-1.1-4.2-2.1-8.2-3-12.1-9.7-39.4-13.3-62.1-13.3-88.6,0-17.7,1.8-37.1,4.5-64.4-8.6-6.7-48.6,19.6-61.5,23.1-.2,0-.4.2-.6.3-11.7,4.9-34.1,16.3-35.2-4.4.7-3.2,2.5-5.7,4.9-7.8.7-.6,1.4-1.1,2.2-1.7,39.4-23.4,86.3-33.8,123.1-61.3,603.8-272.4,1211.6-646.1,1624.9-1177.2,23.4,203.1-47.7,460.1-313.3,765.7Z"/>
    <path class="st4" d="M3816.5,1344.6c-52,21.1-101.4,46.4-143,83.7-9.7-24.9-29.5-47.1-58.3-63.6,53.4-43.2,123-73.9,192.2-69.2,27.7,2.9,40.5,34,9.1,49.1Z"/>
    <path class="st4" d="M3414.3,2198.2c-24.7,16.2-49.5,32.3-74.4,48.1-22.6-33.9-43.2-69-75-95.9-8.8-8.2-17.8-16.5-25.2-26.1-24.9-28.9,1.4-66.3,37.4-62,61.5,16.2,107.7,81,137.2,135.9Z"/>
    <path class="st4" d="M4026.5,1050.5c-19.9,2-38.9,7.2-57.5,13.7-28.9,9.9-57.1,22.7-86.8,30.3-9.3,2.1-19.4,2.8-25.3-6.6-22.7-28.5,25.8-70.4,66.4-97.6,5.5-3.6,10.8-7,15.7-10.1,28.5,19.4,58.2,42.9,87.5,70.3Z"/>
    <path class="st4" d="M3265,1919.9c-1-1.5-2.1-3-3-4.5-4-6.1-7.6-12.5-11.2-18.9-7.8-13.9-15.3-28-25.8-40.1-21.4-25.6-47.7-44.1-79.1-55.3-9.7-3-22.9-6-25.1-17.7,25.1-6.6,50.2-13.4,75.2-20.5,55.4,12.5,112.8,62.3,114.3,120.4,3.4,31.6-17.6,64.6-45.1,36.5Z"/>
    <path class="st4" d="M1931.3,2203.4c-18.3,21.6-44.2-4.9-57-20.2-30.7-41.8-98.4-45.4-95.5-69.1,18.5-8.3,36.8-17.8,56.1-24.3,0-.2-.1-.4-.2-.5,15.1-6.3,30.4-12.3,45.7-18.1,31.5,25.6,86.2,92.9,50.8,132.2Z"/>
    <path class="st4" d="M3627.3,1775.6c43.7-.9,93.6,14,114.7,55.5,17.7,28.8.4,75.7-38.4,65.1-45.9-16-69.3-72-121.7-74.8-15.7,0-21.5-21.7-9.4-31.2,13.9-16.2,35.6-13.3,54.8-14.6Z"/>
    <path class="st4" d="M2420.9,2042.3c-9.2,30.4-36.4,18.8-50.7,0-24.5-27.5-52.9-49.7-86.2-65.5-6.3-3.1-14-6.8-16.5-13.5,37.7-8.5,75.5-16.6,113.3-24.4,23.5,23.9,49.9,69.4,40.1,103.6Z"/>
    <path class="st4" d="M2955.2,2469.6c-23.9,12.7-47.9,25.2-71.9,37.6-11.9-18.6-17.3-41.1-26-61.4-4.4-12.1-6.5-25.1-15.1-35.5-8.9-12.7,8-25.9,14.8-35.8,48.2-42.3,90.4,57.5,98.3,95.1Z"/>
    <path class="st4" d="M4083,1558.7c-32.9-5.7-66.9-14.9-100.9-12.2-15.4-.9-32.5,3.7-46.4-4.7-41.5-38.4,53.4-67.5,81.2-61.2,32.9,3.7,68.3,19.6,86.4,49.7,6.4,14.9-3.1,28.7-20.3,28.4Z"/>
    <path class="st4" d="M4195.3,1291.3c-29.4,2.8-55,11.6-90.4,19.9-8.1.5-14.4-3.2-18.6-10.1-12.8-27.9,33.3-54.6,55.6-61.3,8.7-3.1,17.7-4.5,26.8-5,9.6,18.1,18.6,37,26.6,56.5Z"/>
    <path class="st4" d="M3045.9,2242.2c4.4,26.5-25.2,60.9-49.6,40.3-31.2-24.8-72.4-93.1-25.9-122.8,44.5-16.3,73.4,46.3,75.5,82.5Z"/>
    <path class="st4" d="M2934.5,2045c3.1,22.5-17.3,48.1-37.5,26.8-4.6-5.7-8.1-12.4-11.5-18.9-13.2-29-35.3-48.9-61.1-66.7-21.4-45.5,69-36.4,89.7-.5,13.8,17.2,20.1,37.4,20.4,59.4Z"/>
    <path class="st4" d="M3765.9,1562.5c22,0,45.7,7.3,58.9,26,12.4,18.3,4.9,40.4-16.3,46.8-18.9,7.7-83-8.2-98.7-21-33.6-30.1,30.9-54.8,56-51.7Z"/>
    <path class="st4" d="M2136.4,2046.6c74.6-4.2,97.8,111.8,30.9,94.5-22.5-11.9-33.4-38.4-59.7-44.5-9.1-2.6-13.5-9.1-14.2-18.5-2.8-22.5,27.1-29.4,43-31.4Z"/>
    <path class="st4" d="M2604.3,1934.8c34,3.4,61.2,15.7,80.4,42.5,16.3,18.2,11.7,58.6-19.7,48-27.5-17.3-46.4-47.5-82.7-47.8-20-.7-26.2-26.5-8.5-35.1,10-5.8,21.5-5.2,30.4-7.5Z"/>
    <path class="st4" d="M4019.2,1202.1c-3.5,33-63.8,11.9-99.2,50.9-15.1,18.2-44.4,8.5-35.5-16.1,16.3-43,75.1-70.5,118.3-55.2,10.2,3.6,16.9,11.8,16.4,20.4Z"/>
    <path class="st4" d="M3497.2,1935.1c24.2,0,66.3,28.3,68.9,59.5,1.1,18.5-15.8,31.2-33.5,25.4-25.7-9.6-39.5-36.1-68.7-40-15.7-2.8-18.2-17.8-7.2-29.7,9.5-10.1,21.1-14.6,40.5-15.2Z"/>
    <path class="st3" d="M3974.5,2558.4c-35,22.9-70,45.8-104.9,68.8-24.6,16.2-50.2,18.5-77,6.5-16.2-5.3-36.2-30.4-12.9-40.2,89.1-10.6,106.5-78,178.7-108.1,12.9-4.7,25.3-11.3,35.2-22,37.1-40.2,83.8-49.2,135.7-40.6,16.7,2.5,31.9,11,49.2,8.6,36.8-3,70,7.7,100.7,27.4,70.1,55.2,116.4,20.5,120.6,45.2-2.5,30.3-85.7,28.2-105.6,13.4-26.8-11.6-49.6-35.4-79.9-37-3.7,7.8-3.4,15-1.4,23.5,38,17.3,69.8,43.4,86.3,82.4,13.7,38.4,42.2,76.5,35,118.9-1.5,12-19.3,16.5-25.6,5.9-32.1-67.7-62.6-131.8-134.6-165.7-10.9,2.9-20.4,8-28.6,13.9-2.3,8.7,2.9,13.9,5.4,19.5,7.8,17,14.4,34.4,18.5,52.7,9.9,43.4-1.3,81.2-31.6,113.4-9.3,9.3-23.1,21.9-35.9,11-23.4-16.2,31.1-105.4-32.7-172.3-64.2-10.5-59.7,78.1-72.6,119.4-6.6,25.8-27.8,46-54.7,49.4-14.9,2.1-21.5-11-15.4-24,37.7-51,2.4-123.5,53.2-166.7-1.7-1.1-3.4-2.2-5.1-3.3Z"/>
    <path class="st2" d="M2819.8,2595.6c-8.7,58.9-48.2,105.9-97.3,137.1-27.2,17.2-43.6,45.3-64.4,69-275.4,375.6-1207.7,392.3-1506.4,47.5-50.7-59.9-91-127.6-142-187.3-66-75.8-72.8-177.3,4.8-236.7-7.1-106.5,21.5-216.4,114.8-277,107.7-73.9,252.1-93.5,373.7-44.6,12.8,7.6,25,15.8,40,19.2,5.1,1.1,9.8,5.2,14,8.8,169.3,133.7,445.1,125.8,634.9,39.9,39.8-16.1,78-45.7,122.6-43,8.8.6,16.3-.9,24-5.1,97.3-52.9,217.9-34.1,309.4,22.1,102.4,58.9,124.7,191.1,76.3,293,2.3,6.7,8.1,7.7,13.2,9.3,61.6,19.4,93.7,85.8,82.4,147.8Z"/>
    <path class="st3" d="M2820.5,2538.8c-33.4,19.8-73.4,29.8-111.5,40.3-151.5,40.8-315.6,57.8-455.9-26.9-66.6-32.1-112.5-90.4-170.7-134.3-128-108.2-315.4-74.4-438.8,23.8-51.2,37.5-111.5,60.4-162.6,98.3-22,15.4-45.7,24.9-71.4,30.4-55,11.8-110.9,14-167,13.5-95.9-18.9-182.3-67.1-250.6-137.4,6.1-8.3,14.9-14.9,22.4-21.3-7.1-106.5,21.5-216.4,114.8-277,107.7-73.9,252.1-93.5,373.7-44.6,12.8,7.6,25,15.8,40,19.2,5.1,1.1,9.8,5.2,14,8.8,169.3,133.7,445.1,125.8,634.9,39.9,39.8-16.1,78-45.7,122.6-43,8.8.6,16.3-.9,24-5.1,97.3-52.9,217.9-34.1,309.4,22.1,102.4,58.9,124.7,191.1,76.3,293,2.3,6.7,8.1,7.7,13.2,9.3,38.1,12.1,73.3,30.6,83.1,91.1Z"/>
    <path class="st4" d="M2253.2,2276.5c-38.6,1.2-41.7-44.3-16-63.8,21.4-19.3,47.8-32,67.2-53.7,4.2-4.7,9.8-8.8,15.6-11.3,41.3-17.1,74.6,32.7,34.9,60.4-30.7,21.9-63.2,64.9-101.7,68.3Z"/>
    <path class="st4" d="M1974.2,2263.8c35.6.7,68.7,7,85.8,36.2,8,16.4-.5,32.7-18.6,35.2-6.3.9-13.1.7-19.4-.5-28.3-5.8-57.6-2.5-85.7-8.6-54.3-17.9,6-66.1,37.9-62.3Z"/>
    <path class="st4" d="M1613.3,2188.3c.7,38.1-47.3,43.6-65.2,16.4-6.4-9-12.2-18.6-17-28.5-8.2-16.6-15.3-33.7-28.7-47.2-4.4-4.7-5.8-12.5-.8-17.4,2.7-3.1,7.3-5.2,9.8-3.2,12.1,9.6,28.2,8,40.7,15.7,23.6,15.9,58.6,32.6,61.2,64.3Z"/>
    <path class="st4" d="M1245.3,2171.7c19,.4,36.6,5.8,52.4,16.3,11.1,7.4,15.9,21.7,11.7,34.3-6.1,20.5-29.8,21.2-47.1,16.9-25-7.6-50.7-10.7-76.3-14.9-18.7-7.1-7.3-26.5,4.9-34.2,16-12.1,34.3-18,54.4-18.4Z"/>
    <path class="st4" d="M2706.3,2464.3c-8.5,41.8-17.4,91.7-53.8,118.7-15,11.7-36.8-3.4-31.5-21.5,3.2-16.6,14-30.2,23.3-43.8,11.8-16.7,22.4-34.1,30.6-52.9,2.6-6,4.7-12.2,9.9-16.5,11.7-10.3,24,3.1,21.5,16.1Z"/>
    <path class="st4" d="M2284.1,2509.5c-6.9,46.3-76.5-4.1-95.4-18.2-15.2-3.3-16-20.8-6.8-30.9,26.5-38.2,95.6,17.4,102.2,49.1Z"/>
    <path class="st4" d="M1571.1,2452.4c-14,.6-23.2-13.6-17.4-25.2,18.8-28.6,43.5-59.3,81.3-60.1,48.4,18.2-38.9,83.2-63.9,85.3Z"/>
    <path class="st4" d="M1074.5,2320.6c14.9,1.1,30.9,7.4,42.1,22.9,9.8,10.8-.2,29.5-14.7,25.7-20.5-5.4-46-9.6-58.9-27.9-6.2-17.4,16.3-20.6,31.5-20.7Z"/>
    <path class="st4" d="M2590.2,2144.6c19.8-2.1,59.1,15.2,36.1,35.8-15.1,11.7-41.7-3.7-57.2-10.1-10.4-5.1-7.5-21.2,3.9-22.7,6.2-1.6,12.7-2.3,17.1-3.1Z"/>
    <path class="st0" d="M2451.5,2534.6c-57.3,1.4-225.8-50-189.5-127.8,54.8-127.7,208.9-172.2,337.2-148.5,19.3,3.6,38,9.7,55.2,19.4,18.7,10.6,21.3,17.5,16.7,38.7-10.3,55.9-30.8,111-70.5,152.7-40.1,43.2-89.3,66.3-149,65.5Z"/>
    <path class="st0" d="M1283.3,2256.8c105.4-2.8,218.9,56.1,238,166.5,4.2,18.1-2.4,36.8-15.2,51.7-35.3,39.3-90.4,55.4-141.7,55.1-116.9,3.3-239.3-68.7-243-195.3-11.5-68.6,114.8-76,162-77.9Z"/>
    <path class="st0" d="M1728.6,2508.1c-18.8-.6-19.8-21.6-9.3-32.1,10.9-12.8,54.6-56.9,71.1-45.3,23.3,25-39.1,72.7-61.8,77.4Z"/>
    <path class="st0" d="M2003.2,2502.9c-18.8-2.4-32.1-30.5-45.2-43.5-14-20.5,4.5-43.5,25.5-24.6,15.6,10.8,53.2,60.2,19.6,68.1Z"/>
    <path class="st2" d="M2498.1,2332.7c-2.2,5.5-5.7,9.5-11.8,9.4-32.4.5-61.5,12.2-90.2,25.8-9.3,4.6-31.8,15.4-27.5-4.6,27.6-42.2,103.2-70.3,129.5-30.6Z"/>
    <path class="st2" d="M1312,2349.8c-6.7.8-10.4,1.5-14,1.5-19.5-1.2-14.6-19.4,1.1-23.5,31-10.4,79.4-1.9,99.6,39.3,2.7,5.5,5.3,12.7.7,17.9-12.4,14.6-36.5-40.3-87.4-35.3Z"/>
    <path class="st2" d="M1530.5,2379.9c-.7-2.9-1.3-5.8-1.7-8.4-5.8-22.8-15-43.4-27-61.8-17.5-26.8-40.9-48.8-68-66.1-4.6-3-9.4-5.8-14.2-8.4-33.8-18.7-72.4-30.6-111.9-35.7-44.2-5.7-89.6-3-130.9,8.1-6.5,1.7-12.9,3.7-19.2,5.9-32.4,11.8-67.2,30.9-79.3,65.4-6.8,16.1,2.3,25.7,16.5,34.4.3,4.4.7,8.7,1.2,13,1.6,15,4.4,29.5,8.2,43.3,51.5,189.7,290.6,265.4,433.5,106.6,18.6-23.2-.2-66.2-7.2-96.3ZM1134.4,2335.7c101.3-108.4,339.1-18.9,375.1,115-102.6,136.4-345.9,80.7-375.1-115Z"/>
    <path class="st2" d="M2716.1,2262.6c-14.1-35.6-51.6-54.4-86-65.6-131.9-40.3-316,5.3-360.2,149.6-6,29.7-31.7,86.9-14.1,112.9,152.4,177.1,429.9,71.1,444.7-160,15.3-11.2,23.3-19.4,15.6-37ZM2585.6,2459c-88.5,70.3-233,72.9-299.9-21.4,32.9-133.5,273.4-222.1,373.7-118.5-.2,3.6-.5,7.1-.9,10.7-6,54.5-34,98.4-72.9,129.2Z"/>
    <path class="st4" d="M1360.2,2061.4c89.2-4.5,169.6,33.5,244.9,76.6,109.7,67.4,239.6,113.6,369.3,90.1,237.7-27.6,521.9-275.2,731.6-51.8,66.3,72.3,70.5,180.6,18.1,261.9-6.4,8.1-21.2-.8-18.6-10.1,32.2-68.3,44.1-153.9-4.7-217.7-160.3-209.2-428.5-37.2-621.7,22-245.3,69-360.9-3.7-568.8-115-143.5-61.5-339.6-36-430.9,100.6-67.6,77-38.9,200.6-69.9,191.3-21-2.8-.8-82.7.1-98.5,37.4-161.5,190.1-255.2,350.6-249.5Z"/>
    <path class="st0" d="M1124.1,2551.6c-12.5-6.3-22.6-1.1-34-7-8.8-3-7.4-16.5,0-19.9,14.5-4.3,29.3-4.7,43.8.4,13.4,6.8,16.7,24.5,24.7,36.4,137.4,240.7,529.8,279.3,781.7,283.3,239.9-8.1,509.9-54.3,671.4-248.7,6.8-7.8,15.1-10.6,25.1-8.3,10.9,2.6,21.5,6.1,30.9,12.4,8.9,6.4,2.9,23.2-8.8,21-9.2-.9-17.1-7.6-27.9-6.5-208.6,236-554.2,269.7-851,249-238.5-27.4-537.1-76-656-312.1Z"/>
    <path class="st3" d="M4204.2,2303.9c-1.1,18.1-9.4,134-43.9,137.8-36.9,4.4-73.6,12.9-110.7,14.8-10.8-.4-15.8-6.3-13.2-16.2,13.2-58.5-3.2-126.6-50.6-164.7-55.7-43.2-121.9-70.9-188.8-91.2-75.3-24.4-158.4-30.3-226.3-73.6-29-19.4-30.2-26.6-6.3-51.1,13-13.3,27.2-25.5,41.6-37.4,53.6-43.3,108.6-85.2,166.6-122.4,8.5-5.1,17.1-5.2,26.7-2.3,186.4,57.3,416.3,181.6,405,406.4Z"/>
    <path class="st4" d="M3916.1,2141c-20.5,23.7-54.9,32.1-73.1,58.7-15.2-5.6-30.6-10.6-46.1-15.3,17.8-38.7,48.8-77.9,96.4-78.9,18.1-.3,34.6,17.6,22.7,35.5Z"/>
    <path class="st4" d="M3714.1,2044.8c21.7-3.9,37.3,15.3,23.7,34.1-3.2,4.3-7.8,8.1-12.6,10.6-19,9.9-36.4,22.2-54.2,34-13.2,8.5-31.9,19.3-45.5,5.5-8-8.3-9.3-17.9-4.2-28.1,17.2-35.4,54.6-53.9,92.8-56.2Z"/>
    <path class="st4" d="M4198.2,2229.7c-27.8-1.1-46.7,21.2-71.5,29-19.2,5.2-33-15.8-22.2-30.8,19-27.6,47.9-33.6,83-39.7,4.5,13.2,8,27,10.7,41.4Z"/>
    <path class="st4" d="M3945.6,1955c-4.8,3.6-10.3,5.9-16,7.9-23.4,6.3-45,17.9-67.4,26.3-13.6,2.4-25.5-14.8-16.8-26.1,10.9-14.2,27.5-21.9,39.4-35.5,20.6,8.3,40.9,17.4,60.7,27.4Z"/>
    <path class="st4" d="M4119.8,2079.5c-16,20.1-35.9,40.6-60.9,49-16.1,4.8-32.4-13.6-24.6-28.8,10.8-22.2,33.3-42.7,57.8-47.1,9.6,8.6,18.8,17.6,27.7,26.9Z"/>
    <path class="st5" d="M3957.3,1353c-.5,24.7-35.2,24.7-35.8-.1,1.7-23.1,34.1-22.8,35.8.1Z"/>
    <path class="st5" d="M3810.3,1130.9c.6,22.8-33.5,24.7-36.4,2.3-2.4-25,34.5-26.4,36.4-2.3Z"/>
    <path class="st5" d="M3909.1,1023.7c-1.2,23.5-34.8,21.7-35.7-.9-.5-25,36.5-23.6,35.7.9Z"/>
    <path class="st5" d="M3739.3,1232.7c.4,24.6-36.8,24.1-36.3-.4,1.3-22.7,35.1-22.4,36.3.4Z"/>
    <path class="st5" d="M3513,1764.7c-23.6-2.2-21.3-35.1,1.5-36.1,23.6,2.2,21.3,35.2-1.5,36.1Z"/>
    <path class="st5" d="M4102,1364.6c-1.3,24.6-35.9,24.5-35.8-.5,2.4-22.8,34.6-22.6,35.8.5Z"/>
    <path class="st5" d="M3244.1,1895.4c23.4.2,24.3,32.6,1.4,35.8-23.5-.2-24-32.5-1.4-35.8Z"/>
    <path class="st5" d="M3836.5,1489.8c-24.3-2.1-21-37.8,2.6-36.5,22.3,2.8,19,36.7-2.6,36.5Z"/>
    <path class="st5" d="M3823.4,1245.7c-1.4,24.3-37.6,20.5-35.8-3.1,2.6-22.3,36.3-18.8,35.8,3.1Z"/>
    <path class="st5" d="M3810.7,2064.8c1.1,24.3-35,26.2-35.8,1.8.8-22.4,33.5-24.7,35.8-1.8Z"/>
    <path class="st5" d="M3657,1295.8c22.3-1.4,25.7,32.2,3.3,35.3-24.5,2.7-27.2-33-3.3-35.3Z"/>
    <path class="st5" d="M2730.1,1994.2c.8,22.2-34.8,24-35.9,1.6-.6-22,34.6-24,35.9-1.6Z"/>
    <path class="st5" d="M3835.4,1359.2c-.2,24.2-36.1,25.3-35.7.4,1.8-22.5,34.3-23.6,35.7-.4Z"/>
    <path class="st5" d="M3720.1,1452.7c-24.5-.7-22.2-36.3,2.2-35,23,2.1,20.3,34.4-2.2,35Z"/>
    <path class="st5" d="M3951.2,1583.8c-22.4,0-22.9-33.7-1.4-36.2,24-1.5,25.2,34.9,1.4,36.2Z"/>
    <path class="st5" d="M3911.4,2049c-23.4,1.5-26.2-35.7-1.9-36.4,21.9-.1,24.1,34.4,1.9,36.4Z"/>
    <path class="st5" d="M2765.9,1868.1c20.8-1.1,26.4,30.1,4.6,34.4-23.1,3.5-27.6-31.4-4.6-34.4Z"/>
    <path class="st5" d="M3602.7,1888.2c-24.1.4-23.3-33.4-.7-34.9,23.3-.1,24.1,33.5.7,34.9Z"/>
    <path class="st5" d="M3393.6,1868.3c1.3,22.5-32,27-34.4,3.5-1.4-22.8,32.2-26.7,34.4-3.5Z"/>
    <path class="st5" d="M3657,1687.9c.9,23-33,26.2-34.5,2.5-.9-23,33-26.1,34.5-2.5Z"/>
    <path class="st5" d="M3340.1,2040.1c-23.5-.4-22.9-33.8.2-34.6,23.7.4,22.7,33.6-.2,34.6Z"/>
    <path class="st5" d="M3904,1715.9c1,23-33.3,25.8-35,2.6-.8-22.5,33.3-26.2,35-2.6Z"/>
    <path class="st5" d="M2821.6,2075.2c-.4,22.2-34.4,24.7-35.1.9.6-23.1,33.9-24.1,35.1-.9Z"/>
    <path class="st5" d="M3285.2,1806.1c-24.2.4-23.6-33.1-.9-34.3,22.8,0,24.9,33.6.9,34.3Z"/>
    <path class="st5" d="M2875.7,1947.7c-24.1.4-24.8-32.7-1.1-34.3,21.6.4,23.1,32.3,1.1,34.3Z"/>
    <path class="st5" d="M1878.2,2219.7c-23.6-.3-21.6-34.9,1.1-34.8,21.1,1.5,20,34.3-1.1,34.8Z"/>
    <path class="st5" d="M2785.4,2229c-1.6,22.6-35.6,22.1-35.5-1,1.6-22.1,36-22.5,35.5,1Z"/>
    <path class="st5" d="M3054,2409.9c-4.1,22-35,17.1-34.6-3.7,2.1-22.8,37.5-19.6,34.6,3.7Z"/>
    <path class="st5" d="M3697.7,1549.2c-.5,22.3-36.9,21.5-35.5-1.2,1.5-22.5,36-22,35.5,1.2Z"/>
    <path class="st5" d="M3473.4,1961.8c22.4,1.9,19.9,36-3.2,34.4-23.4-1.3-18.8-36,3.2-34.4Z"/>
    <path class="st5" d="M2581,2055.8c-22.4.7-23.9-34.2-.7-34.1,23.7-.7,23.1,33.5.7,34.1Z"/>
    <path class="st5" d="M2230.9,2083.2c-23.1-1-23.8-34.3,0-34.7,21.3,1,20.9,34.1,0,34.7Z"/>
    <path class="st5" d="M2052.1,2189.9c-20.7-1.3-19.2-35.4,2-34.6,24.2.9,20.1,35.2-2,34.6Z"/>
    <path class="st5" d="M4036.5,1138.6c-22.5,1.3-23.7-34-1.1-34.5,22.9-.6,23.7,33.2,1.1,34.5Z"/>
    <path class="st5" d="M2917,2184.8c0,21.7-35,24-35,.7-.3-22.4,35-23.1,35-.7Z"/>
    <path class="st5" d="M3980.6,2215.1c-23,.3-21.1-36.6,1.1-35.3,23,.2,21.4,36.1-1.1,35.3Z"/>
    <path class="st5" d="M3947.1,1185.6c-1.3,20.4-34.7,20-33.7-1.5.7-23.5,34.9-21,33.7,1.5Z"/>
    <path class="st5" d="M3715.3,1377.5c-22.3-2.3-19.6-37.2,3-35.2,23.1,2.9,19.4,36.2-3,35.2Z"/>
    <path class="st5" d="M3129.5,2257.5c-20.3-.8-20.8-31.2-.5-32.5,22.3-.6,22.5,32.5.5,32.5Z"/>
    <path class="st5" d="M2757.4,2488c22.9-.6,25.1,33.5,1,34.1-21.7-.5-22.8-32.4-1-34.1Z"/>
    <path class="st5" d="M3746.9,1770.3c23.2-.2,21.5,35.2-1,34.6-23.1,0-21.8-35,1-34.6Z"/>
    <path class="st5" d="M3170.4,1831.3c2.4,22.5-33.8,24.7-34.9,2.8-2.3-22,34.1-25.1,34.9-2.8Z"/>
    <path class="st5" d="M2429.2,2104.9c-21.3-.3-14.5-27.5,1.8-29,15.6-4.4,32.2,23.4,10.1,27.2-4.5.6-9,1.4-11.9,1.8Z"/>
    <path class="st5" d="M2508.9,1984.6c-21.5.5-22.3-32.7-1.5-34,22.5-1.9,25,34.4,1.5,34Z"/>
    <path class="st5" d="M1979.3,2091.2c1.2,21-33.2,22.5-35,2.1-1.1-22.3,33.7-25.8,35-2.1Z"/>
    <path class="st5" d="M2837.1,2365.4c-22.5,1.2-23.6-30.9-2.4-33.3,21.2-1.4,24.5,32.1,2.4,33.3Z"/>
    <path class="st5" d="M3210.1,2077.4c-1.1,23.6-35.4,21.3-34.3-1.4,1.8-20,35.3-20.6,34.3,1.4Z"/>
    <path class="st5" d="M3007,1870.8c24.4,1.1,19.4,35.6-2.9,33.7-20.4-2.3-19.2-35.5,2.9-33.7Z"/>
    <path class="st5" d="M3425.5,2142.3c.6,21.2-32.2,24.1-33.3,1.9-1-22.6,31.2-22.9,33.3-1.9Z"/>
    <path class="st5" d="M2673,2101.6c22.5.4,21,35.5-1.5,34.7-23.5-.8-20.3-34.7,1.5-34.7Z"/>
    <path class="st5" d="M3079.1,2119.6c.9,20.6-31.6,25.4-34.2,3.5-2.3-23.6,31.9-26.6,34.2-3.5Z"/>
    <path class="st5" d="M4231.4,1412.7c-7.5,11.6-30.4,8.8-31.3-8.1-.6-15.8,16.3-21.7,26.4-15.4,1.8,7.7,3.4,15.6,4.9,23.5Z"/>
    <path class="st5" d="M3701.4,1940.3c21.2.7,22.3,33.6-.2,33.4-22.5,0-21-33.1.2-33.4Z"/>
    <path class="st5" d="M2967.8,1994.5c23.8,2,18.3,36.2-4.1,33.9-20.7-2.3-17.1-36.2,4.1-33.9Z"/>
    <path class="st5" d="M2967.8,2288.9c21.8.7,21.4,33.5-.5,33.3-22-.4-21.1-33.4.5-33.3Z"/>
    <path class="st5" d="M3097.6,1950.7c21.5-.8,22.5,32.3,1.6,34.1-23.8,1.6-24.3-32.6-1.6-34.1Z"/>
    <g>
      <path class="st3" d="M3164,3566.7c-32.2,36.4,38.8,33.1,52.9,122.9,2.1,28.5,30.3,128.8-9.6,134.9-15.8-.9-15.4-19.2-17.7-30.9-8.8-65.6-31.4-131.7-85.1-174.1-10.2,2.3-19.9,4.4-28.1,6.2-4.5,7.5-2.2,12.9-1.1,18.2,4.4,23,6,46.2,3.8,69.6-4.2,45-29.6,75.1-68.1,95.8-9.4,5.4-20.9,5.3-27.7-3.7-18.8-21.8,57.8-96,12.1-175.3-58.5-27.3-78.6,63-101.8,98.9-13.3,22.9-40,36.7-66.3,31.8-15.9-3.5-14.8-21.6-3.7-30.3,20.7-20.1,32.2-45.3,40.7-72.3,7.1-25.2,16.4-50.6,39.4-65.5,3.6-2.5,8.6-4,9.3-11.6-24.9,9.4-48.9,16.6-74.1,24.1-40.3,14-86.8,36.8-123.6,2.5-14.2-9.6-26.9-38.5-1.5-42,51.1,8.4,96.6-14.3,139.7-38.9,19.1-10.3,38.8-17.9,60.6-19.9,13.9-1.3,27.4-4.4,39.7-12.2,71.7-51,142.9,2,213.5,24.5,72.3,24.8,74.1,91,162.7,107.2,7.7,3.5,7.6,17.6-.7,20.4-5.1,2.1-10.6,3.6-16,4-30.1,2.3-57.4-5.5-80.7-24.9-23.5-19.5-40.9-44.3-68.3-59.2Z"/>
      <path class="st3" d="M3192.7,3183.3c-18.2,93.6-42.3,185.9-63.6,278.9-10.5,30.8-11.9,71.8-38,93.6-14.2,2.4-27.4-4.4-41.4-4.4-27.9-.9-55.9-3.5-83.7-5.8-13.6-1.3-17-6.9-14.7-20.7,13.1-76,30.5-151,48.6-225.9,3.4-21.5,21.5-72.2,14.6-89.5-129-46-256.2-99.7-387.7-139.5-65.8-21.1-131.7-41.6-197.3-63.4-11.1-3.7-23.7-5.6-31.9-15.9,26.2-21.8,163.1-81.5,311.4-136,6.7-.3,12.2,3.5,18,6.3,111.2,53.4,224.1,103.1,331.7,163.5,38.6,22.2,78.5,42.1,117.5,63.5,33.5,19.4,20,63.8,16.4,95.3Z"/>
      <path class="st4" d="M2765.2,3035.7c.7,12.5-11.5,18.5-21.1,23.2-20,8.6-38.9,19-57.2,30.6-20-6.6-40-13-60.1-19.5,20.5-23.6,127.1-88.7,138.4-34.3Z"/>
      <path class="st4" d="M3121.8,3059.1c-28.7,17.3-59.8,30-87.6,49.1-13.3,8.8-23.1,8.1-30,0-19.4-20.5,39-69.8,54.6-83.6,21,11.5,41.7,23.6,63,34.6Z"/>
      <path class="st4" d="M3074.1,3324.8c-.4,8.9-7.2,16.4-18.4,17.9-22.7,3-45.4,5.6-68.2,8.1,4-17.3,8.2-34.5,12.4-51.8,23.8-.5,71.8-4.5,74.2,25.7Z"/>
      <path class="st4" d="M2737.8,2893.1c.7,17.4-12.2,23.3-25,29.1-15.8,5.9-30.8,13.1-44.9,22.4-16.9,12.8-38.6-1.4-31.1-21.9,9.2-33.6,86.1-76.9,100.9-29.6Z"/>
      <path class="st4" d="M3142,3408c-4.2,18.1-8.5,36.2-12.9,54.2-10.5,8.8-25.3,11.7-39.1,6.9-53.4-25,.8-97.5,52-61.1Z"/>
      <path class="st5" d="M2823.1,3064.9c22.9,1.4,21.1,35.6-1.3,36-23.4-2-21.1-35.1,1.3-36Z"/>
      <path class="st5" d="M2940.5,3183.8c-23.6-1.5-20.6-35.3,1.8-35.2,23.5,2,21,34.9-1.8,35.2Z"/>
      <path class="st5" d="M3076.6,3091.2c.7,22.1-34.1,25.2-35.6,2.5-.2-22.2,33.5-25.4,35.6-2.5Z"/>
      <path class="st5" d="M2848.9,2952.3c1.5,21.9-35.5,23.6-34.7,1-.4-22.4,34.3-23.8,34.7-1Z"/>
      <path class="st5" d="M2645,2975.8c-.7,21.4-33.4,21-34.7,0,0-23.6,34.4-23.1,34.7,0Z"/>
      <path class="st5" d="M2956.9,3007.7c1.5,23.2-32.6,25.7-34.6,3-.9-22.2,32.7-26.6,34.6-3Z"/>
      <path class="st5" d="M2715.6,3009.1c22.4,1.5,20.3,36.1-2.8,34.7-23.1-1.2-19.4-35.8,2.8-34.7Z"/>
      <path class="st5" d="M3145.5,3349.7c-1.5,23.2-36.2,20.1-34.1-2.8,1.8-20.8,35.7-18.2,34.1,2.8Z"/>
      <path class="st5" d="M3053.4,3267.1c.2,21.1-34.4,21.3-33.3-.6.8-22.5,32.7-20.8,33.3.6Z"/>
      <path class="st5" d="M2762.2,2900.8c.7,21.7-31.1,23.7-34.6,2.8-2.1-22.7,32.9-26,34.6-2.8Z"/>
      <path class="st5" d="M3153.5,3176.3c21.6.1,22.8,32.4.9,33.5-22.1.3-22.3-32.4-.9-33.5Z"/>
      <path class="st5" d="M3016.1,3438.3c-2.7,23.2-36.2,19.9-34-3.4,2.5-21.2,35.6-17.3,34,3.4Z"/>
    </g>
    <path class="st5" d="M3539.9,2116.8c-21.4-1.1-22.5-32.7,0-33.2,22.2-.4,20.9,33.2,0,33.2Z"/>
    <path class="st5" d="M4092.8,2289.1c-1.9,21.9-33.6,21.4-33.5-1.2.3-22,34.5-20.4,33.5,1.2Z"/>
    <path class="st5" d="M4104.3,1429.1c22-.2,23.9,32,1.6,33.5-22.2,1.5-23.1-32.8-1.6-33.5Z"/>
    <path class="st5" d="M3277.3,2198.4c0,20.2-31.7,19.8-31.9,0,0-22.2,32-22.3,31.9,0Z"/>
    <path class="st5" d="M2291.8,2149.2c-8.4-12.3-9-17.8-2.9-24.3,18.5-17.8,52.8,9.8,2.9,24.3Z"/>
    <path class="st5" d="M3519.4,1643.1c8.3-7.6,13.3-12.7,21.3-11.3,3.1,6.9-4.2,11.5-21.3,11.3Z"/>
    <path class="st5" d="M3415.1,1691.9c-3.8,8.8-9.6,12.4-19.2,10q5.4-9.9,19.2-10Z"/>
    <path class="st5" d="M3916.3,2586.9c1-9.1,3.5-13.8,12.8-13-1.2,6.8-4.2,11-12.8,13Z"/>
    <path class="st5" d="M3828,1885.4c-1.8,5.5-5.9,8.4-11.2,10-2.3-9.6-2.2-9.9,11.2-10Z"/>
    <polygon class="st5" points="3724.5 2149.7 3722.4 2148.7 3724.6 2148 3724.5 2149.7"/>
  </g>
</svg>