<?xml version="1.0" encoding="UTF-8"?>
<svg id="svg1" xmlns="http://www.w3.org/2000/svg" xmlns:svg="http://www.w3.org/2000/svg" xmlns:sodipodi="http://sodipodi.sourceforge.net/DTD/sodipodi-0.dtd" xmlns:inkscape="http://www.inkscape.org/namespaces/inkscape" version="1.1" viewBox="0 0 2725.1 2725.1">
  <!-- Generator: Adobe Illustrator 29.2.1, SVG Export Plug-In . SVG Version: 2.1.0 Build 116)  -->
  <defs>
    <style>
      .st0 {
        fill: #eeb8ab;
      }

      .st1 {
        fill: #aa3b1e;
      }

      .st2 {
        fill: #bd5534;
      }

      .st3 {
        fill: #c84f36;
      }

      .st4 {
        fill: #e54628;
      }

      .st5 {
        display: none;
      }

      .st5, .st6 {
        fill: #fff;
      }

      .st7 {
        fill: #dc8b78;
      }

      .st8 {
        fill: #d86d53;
      }

      .st9 {
        fill: #e06b52;
      }

      .st10 {
        fill: #c46e5b;
      }
    </style>
  </defs>
  <sodipodi:namedview id="namedview1" bordercolor="#000000" borderopacity="0.25" inkscape:deskcolor="#d1d1d1" inkscape:pagecheckerboard="0" inkscape:pageopacity="0.0" inkscape:showpageshadow="2" pagecolor="#ffffff">
    <inkscape:page id="page1" x="0" y="0" width="2725.1201" height="2725.1201" bleed="0" inkscape:label="1" margin="0"/>
  </sodipodi:namedview>
  <g id="g1" inkscape:groupmode="layer" inkscape:label="1">
    <g id="group-R5">
      <path id="path2" class="st5" d="M0,0v2725.1h2725.1V0H0"/>
      <path id="path3" class="st7" d="M1802.7,475.6c-95.4-33.2-197.4-43-297.9-36.3-51.5,3.5-102.5,11.5-152.6,23.8-55.3,13.5-108.5,33-161,54.8-112.9,47-222.4,105.2-320.2,178.9-74.1,55.9-142.5,122.5-191.7,200.2-10.7,16.8-20.5,34.2-29.2,52.2-8.7,17.8-14,30.5-20.6,49.7-16.7,48.8-24.4,100.8-24.9,152.2-.5,46.3,5.3,92.4,20.8,136.2,4,11.4,7.8,24,14.1,34.3,7.7,12.6,25.8,20.1,56.3,11.9,164.5-44,184.1-69.3,190.6-62.7,10.4,10.6-62.3,68.3-177.4,96.4-1.1.3-2.3.4-3.4.5,36.2,18.1,78.1,26.1,118.3,28.4,20,1.1,40.1,1,60.1-.2,80.9-4.9,166.6-27.9,240.6-61.7,70.1-32,136.1-72.9,183.6-133.6.2-.3,2.2-2.9,2.6-3.5,1.2-1.7,2.5-3.4,3.7-5.1,40.3-57.5,38.8-120.8,17.7-185.7-15.7-48.3-38.6-94.3-65.6-137.2-30.6-48.6-82.3-102.4-76-110.1,4.9-5.9,46.2,9.2,73.1,44.1,31.2-53.4,59.9-107.8,85.1-164.3,17.5-39.3,34.1-79.1,50.6-118.9,5.1-12.4,10.2-24.7,15.3-37.1,1.8-4.5,3.2-8.6,6.6-12.1,5-5.2,12.3-7,19.2-5.3,12.5,3,21.5,15.4,27.9,25.6,10.1,16.1,16.8,34.7,21.4,53,13.9,55.3,9.2,114.8-9.4,168.4-1.5,4.2-3,8.3-4.6,12.5,36.5-39,71.2-79.8,105.9-120.2,19.7-22.9,39.2-45.9,59.5-68.3,10.4-11.5,21.8-26.6,35.9-34.1,27.1-14.4,37.4,36.2,40.6,52.8,5.9,30.9,4.8,60.8-1.1,91.5-19.7,102.7-92.8,182.4-171.7,248.9,27.3-8.9,54.8-17.7,82.3-26,18.5-5.6,37.2-11.3,56.1-15.1,5.4-1.1,11.1-2.3,16.7-2.1,12.1.6,16.8,10.7,17.9,21.7,3,28.5-18.2,58.5-34.2,80.1-20.3,27.5-43.8,53.8-70.9,74.9-34.2,26.7-77.3,42.4-118.6,53.8-36.1,9.9-73.1,16.2-110.3,21.1-.7,15.3-3.2,30.5-8.1,45.5-3.1,9.5-6.9,18.8-11.3,27.7,41.3-24.2,84.1-46.1,128.8-63.1,40.7-15.5,84.6-27.5,128.5-25-.7-4.9-1.9-27.7,4.3-29.6,6.5-2,22.9,24,22.1,65.3-.4,20.6-4.8,41.2-10,61.2-4,15.6-9,32.6-18.6,45.7-4.2,5.7-9.1,10.5-16,12.7-6.5,2.2-17.8,2.6-21.9,8.5-4.4,6.4-1.2,14.3,4.4,18.5,22.5,17.1,47.1,5.2,48.4,12.3,1.1,6.1-12.5,19.1-35.8,18.5-.9,0,2.3,10.8,2.7,11.7,2.4,5.5,6.8,8.8,12.9,9.3,46.2,4.4,60.9-33.4,66.7-29.9,5.6,3.4-11.5,41.1-23.5,47.8,5.2-.3,10.2-2.1,15.8-5.1,17.3-9.5,31.5-25.1,43-40.7,15.8-21.5,28.8-45.5,38.4-70.4,11.1-28.7,19-59.2,20.3-90.1,1.1-27-1.7-86.4,4.3-88.4,6.6-2.1,25,49.2,20.6,108.7-4.5,60.3-32.2,121.6-71.8,168,4,23-2.9,46-13.5,66.7-8.4,16.3-19.6,30.7-30.1,45.6-1.1,1.5-2,3.6-3.2,5.2,0,1.5-.2,3.7-.2,4.1.5,10.5,2.4,20.8,2.9,31.3,1.3,24,.1,51-16,70.2-13.3,15.8-33.4,23.9-53.5,20.9-6.6,7.9-15.4,13.9-27.3,16.6-11.2,2.5-23.4,1.4-33.1-5.1-2.7-1.8-4.9-3.8-6.9-6.1-5.3,7.5-11.1,14.7-17.3,21.5-15.4,16.8-33.2,31.1-51.7,44.4-.9.8-1.8,1.5-2.9,2.1-7.9,5.6-15.9,11.1-23.9,16.5-32.4,22-65.9,42.3-99.7,62.2-65.8,38.8-131.1,78-191.4,125.1-52.1,40.7-104.5,85.6-138.6,143-13.6,22.9-25.5,47.3-32.3,73.2-2.9,10.9-4,16.7-3.8,27.3.9-.9,1.8-1.8,2.7-2.7,8.3-8.7,15.9-18,23.2-27.6,15-19.8,27.7-41.1,42.2-61.1,21-29,48.3-52.1,77.6-72.5,35.2-24.6,73-45.2,110.9-65.2,47.3-25,95.2-48.9,142.6-73.7,124-65,375.1-225.7,377.2-227.5,1.6-1.4,1.9-3.8,2.2-5.7.6-3.3.8-6.6.9-10,0-6.6-.6-13.3-.4-19.9.5-25.6,6.6-51.2,15.4-75.2,16.6-45.5,42.6-92.9,80.7-123.9,34.9-28.4,84.2-41.7,128.6-31.5,6,1.4,11.6,3.2,16.7,5.5,16.2-27.9,31.3-56.5,44.7-85.9,47.9-104.5,76-220.1,68.2-335.4-5.9-87.7-33.7-170.3-87.7-240.6-57.8-75.1-139.8-128.3-228.6-159.2"/>
      <path id="path4" class="st2" d="M1353.4,958.3c9.2-2.7,18.4-5.7,27.6-8.7,27.3-8.8,54.6-18,81.8-27.1,3.3-1.1,6.7-2.2,10-3.3.2-.1.3-.3.5-.4,64.6-49.5,130-104.8,174.7-173.7,23-35.4,37.4-71.9,44.5-113.7,5-29.5,3.5-59.3-4.7-87.9-1.2-4.3-2.7-8.4-4.4-12.4-.5.5-1,.9-1.5,1.4-15.7,14.9-29.8,31.7-44,48-21.1,24.2-41.9,48.7-62.9,72.9-46,53.2-92.5,106.5-144,154.5-27.7,39.2-61.9,74-99.1,104.4,7.6,15.1,14.7,30.6,21,46.3.2,0,.4-.1.5-.2"/>
      <path id="path5" class="st2" d="M1376.9,978.9c-4.8,1.5-9.7,3.2-14.5,4.7,5.5,15.8,10.3,31.8,14.1,48,3.5,15.1,6.1,30.3,7.3,45.6,40.5-5.4,80.8-12.8,119.9-24.9,39.5-12.2,78-29.3,108.1-57.1,24-22.3,46.2-47.6,63.4-75.5,7-11.4,13.5-23.3,16.2-36.5,0-.2.2-1.7.3-3.4-.9.2-1.8.3-2.6.5-7.9,1.7-15.7,3.7-23.5,5.8-22.1,6-44.1,12.9-66,19.8-53.6,16.9-106.9,34.9-160.2,52.6-20.7,6.9-41.5,13.8-62.3,20.4"/>
      <path id="path6" class="st2" d="M1200.3,362.5c-6.1-11.1-12.5-18.8-22.5-27.7-5.5-4.9-5.1-4.5-10.9-8.4-2.2-1.5-4.5-2.9-6.7-4.3-4,7.8-7.4,15.9-10.8,24-14,33.1-27.9,69.5-41.9,103.7-11.6,28.4-22.9,57.6-37.7,84.7,39.9-19.8,80.7-38.5,122.1-55.3,17.7-36.6,28.4-80.4,8.5-116.7"/>
      <path id="path7" class="st2" d="M1444.7,503.1c-1-1.6-2.1-3.1-3.2-4.6,0,0,0,0,0-.1-.5-.6-2.7-3.1-2.7-3.2-3.2,8.7-7.5,17.3-11,25.9-9,21.9-18.1,43.8-27.3,65.6-13.7,32.5-27.7,65-42.6,96.9-22.9,49-48.9,96.1-76.5,142.5,12.6,18,23.9,37,34.4,55.6,1.2,2.1,2.4,4.3,3.6,6.5,33.5-28.1,64.6-59.9,89.8-95.5.4-.7.9-1.4,1.4-2,22.3-31.8,39.9-66.7,50.4-104.7,13.4-48.4,14.7-99.7.1-146.6-2.8-9.1-6.2-18.1-10.7-26.5-1.8-3.3-3.7-6.5-5.7-9.7"/>
      <path id="path8" class="st7" d="M1460.1,1156.7c-13.9,6.5-27.6,13.4-41,20.5-22.4,11.9-44.4,24.6-65.9,37.9,7.7,29.7,27,52.1,47.8,73.7,11.9,12.3,22.5,25.8,36.7,35.5,3.8,2.6,15.5,6.2,23.5,1.1-9.1-5.4-37.9-32.9-32.1-37.3,4.7-3.6,39.2,22.4,54.3,23.1,23.5,1,22.4-35.9,21.8-36-34-4.5-54.5-21.1-49.2-25.7,4.8-4.2,20.4,3.5,38.7,3.5s17.3-1.6,22.4-8.7c5.3-7.4,8.6-20.4,3.8-28.8-3.2-5.6-9.8-7.8-14.9-9.7-11.3-4.1-22.1-8.6-30.7-17.4-8.6-8.8-13.4-19.9-15.2-31.7"/>
      <path id="path9" class="st2" d="M1038.7,537.8c0-1.2.3-2.4.8-3.7,4.5-23.1,1.8-47.9-3.7-70.4-3.3-13.5-7.6-26.9-13.4-39.5-2.5-5.4-5.2-10.7-8.2-15.7-1.4-2.3-2.9-4.6-4.4-6.9-.2-.3-.3-.5-.5-.7-5.9,10.4-10.4,21.4-14.4,32.7-11.6,32.9-19.7,67-30.1,100.3-7.9,25.3-17,50.1-27.5,74.4,31.5-19.8,63.8-38.3,96.7-55.6,2-4.9,3.5-9.8,4.7-14.9"/>
      <path id="path10" class="st7" d="M2005.4,1327c-14.5-10.9-32.9-12.7-50.6-12-40.4,1.6-73.1,19.6-99,50.2-28.4,33.6-48.9,76-59.2,118.6-2.7,11.2-4.6,22.5-5.1,34-.5,10.1.7,20.3,0,30.4-1.3,17.2-7.3,27.9-22.4,35.6-1,.5-22.1,15.6-27.2,19.4-2.1,11.3,8.2,20.5,18.3,23.3,1.1-5.3,15.3-25.8,21.7-24,6.4,1.8-14.6,32.9,7.1,49.9,6.2,4.8,17.4,5.2,25.5,4.1-1.3-21.7,10.8-45.9,18.4-43.7,6.3,1.8-5.5,19.3,6.7,42.7,3.2,6.2,9.9,7.2,16.5,6.9,18.5-.7,32.5-13.1,41.6-29.3,5.7-10.2,6.2-20,6.8-31.4.5-9.6,1-20.7,6.3-29.1,4.4-7,12.1-12,18.7-16.9,39.3-29.2,80.3-61.8,95.7-112.4,8.6-28.2,9.8-61.4-.3-89.4-3.3-9.1-10.3-20.2-19.3-27"/>
      <path id="path11" class="st3" d="M1219.3,1911.2c-18.8,10.5-37.5,21.5-55.5,33.3-36.4,23.8-67.9,51.9-91.8,88.3-7.9,12-16.1,23.9-24.6,35.5-14.6,19.8-30.5,43.7-51.8,57.1-9.9,6.3-22.6,7.7-31.8-.8-7-6.5-11-16.3-12.5-25.6-4-24.9,3.5-50.8,12.5-73.8,11-28.1,25.3-54.9,42.6-79.5,41.4-59.2,100.7-106.4,158.4-149,55.7-41.2,115.2-75.9,174.6-111.3-26,3.6-52.4,5.3-78.6,6.2-38.9,1.4-75.3,1.1-108.9,22.5-15.8,10.1-27.1,20.9-36.2,36-10,16.6-17.6,34.6-26.1,52-8.5,17.5-17.9,34.5-30.7,49.3-12.2,14.2-28.4,23.5-45,31.7-37.5,18.6-77.9,31.8-113.3,54.4-14.9,9.5-29.9,22-35.8,39.6-6.1,18-3.7,37.5-3.4,56.5.4,23.8-2.7,47-12.5,68.8-7.9,17.5-20.6,32.7-33.8,46.4-25.9,27-59.3,50-76.2,83.9-3.2,6.5-5,15.6-6.9,23.8-2.6,11.4-5.7,22.6-8.9,33.9-5.1,18.1-10.5,35-20,51.5-9,15.6-19.3,30.3-29.1,45.5-1.5,2.4-3.1,4.8-4.6,7.3.4-.1.9-.2,1.3-.4,16.3-4.9,31.8-11.3,47.1-18.5,17.5-8.2,34.6-17.5,50.6-28.3,14.8-10,27.8-23.8,41.1-37.3,16.8-17,34.7-35.2,56.1-46.4,18.7-9.7,39.3-13.7,60.3-14.5,19.5-.7,39,.9,58.5-.6,22.7-1.7,45.2-8.4,64.9-19.8,32.5-18.8,45-56.6,60.3-88.9,18-38.1,42.9-69.9,81.7-88.3,37.7-17.9,79.9-23.2,117.7-40.7,17.2-8,35.3-19.1,45.3-35.7,11.6-19.4,12.1-43.9,20.9-64.7,8.7-20.4,22.7-34.5,42.1-44.9,18.4-9.8,35.3-19.2,47.3-37,11.7-17.2,19.3-37,28-55.8,1.3-2.9,2.7-5.7,4-8.6-46.2,26.1-93,51.1-140.3,75.3-45.8,23.6-92,46.6-137,71.7"/>
      <path id="path12" class="st7" d="M1518.3,1512.7c.9,9.1,7.2,15.4,15.1,16.9,23.4,4.6,31.8-35,38.3-36.7,6.4-1.7,17.1,26.4-7,57.9,3.7,7.8,11.7,9,20.3,5.7,26.9-10.4,33.6-57.9,40-56.2,6.4,1.8,6.3,32.3,3.6,40.2,4.6-.8,9-2.7,13.2-5.9,6.9-5.2,11.3-12.3,13-18.8,5.6-21.3,2.2-43.6.3-65.1-.7-7.5-1.3-15.1,2.2-22.1,2.1-4.3,5.2-8.1,8-12,14.2-19.5,32.5-43.2,36.8-68.4-25.1,19.1-57.2,29.8-80.1,2-3.7,0-7.5-.3-11.3-.9-12.2-1.9-23.5-8-30.6-18.3-.7-1.1-1.4-2.2-2-3.3-21.3,14.2-39.9,32.6-50,56.7-7.7,18.4-9.8,37-8.1,56.8.5,5.9,1.6,12.6,3.5,20.5,1.2,4.8,2.6,9.5,4.2,14.2,1.4,4.1,2.6,7.5,1.3,12.1-2.7,8.9-11.7,14.4-10.8,24.7"/>
      <path id="path13" class="st10" d="M1681.2,1293.3c-3.8,5.4-11.5,41.1-23.5,47.8,5.2-.3,10.2-2.1,15.8-5.1,17.3-9.5,31.5-25.1,43-40.7,15.8-21.5,28.8-45.5,38.4-70.4,11.1-28.7,19-59.2,20.3-90.1,1.1-27,4.3-88.4,4.3-88.4-52.8,5.4,0,107.2-98.3,247"/>
      <path id="path14" class="st10" d="M1119,1904.4c-93.1,68.9-128.1,132.9-133.3,152.7-2.9,10.9-.1,20,0,30.6.9-.9,1.8-1.8,2.7-2.7,8.3-8.7,15.9-18,23.2-27.6,15-19.8,27.7-41.1,42.2-61.1,21-29,48.3-52.1,77.6-72.5,35.2-24.6,73-45.2,110.9-65.2,47.3-25,95.2-48.9,142.6-73.7,124-65,375.1-225.7,377.2-227.5,1.6-1.4,1.9-3.8,2.2-5.7.6-3.3.8-6.6.9-10,0-6.6-.6-13.3-.4-19.9,0-.2,4.1-35.3,4.1-35.5-43.3,90.3-594.4,377.1-649.8,418.1"/>
      <path id="path15" class="st10" d="M1332.4,1006.3c-15.7-48.3-38.6-94.3-65.6-137.2-15.5-24.5-36.3-50.4-52.3-71,66.8,136.4,112.8,230.7,74.3,329.3-29.3,75-147.3,198.2-345.7,226-134.8,18.9-170-1.5-175.4-4.2-18,6.7-37.6,12.8-58.6,17.9-1.1.3-2.3.4-3.4.5,36.2,18.1,78.1,26.1,118.3,28.4,20,1.1,40.1,1,60.1-.2,80.9-4.9,166.6-27.9,240.6-61.7,70.1-32,136.1-72.9,183.6-133.6.2-.3,2.2-2.9,2.6-3.5,1.2-1.7,2.5-3.4,3.7-5.1,40.3-57.5,38.8-120.8,17.7-185.7"/>
      <path id="path16" class="st10" d="M625.5,1287.2c4,11.4,7.8,24,14.1,34.3,7.7,12.6,25.8,20.1,56.3,11.9,134.3-35.9,172-59.4,184.9-63.2-237.2,68.8-255.8,15.5-255.2,16.9"/>
      <path id="path17" class="st10" d="M2119.1,875.3c-5.9-87.7-33.7-170.3-87.7-240.6-1.6-2.1,144.3,287.8-104.9,656.6,20.8-4.5,42.4-4.9,63-.2,6,1.4,11.6,3.2,16.7,5.5,16.2-27.9,31.3-56.5,44.7-85.9,47.9-104.5,76-220.1,68.2-335.4"/>
      <path id="path18" class="st4" d="M1142.1,1142.7c20.6,21.7,12.3,65.1-23.9,99.5-36.2,34.3-87.2,37.8-107.8,16.1s-3.1-55.8,35-88.1c37.7-32,76.1-49.2,96.7-27.5"/>
      <path id="path19" class="st0" d="M911.5,749.8c-161.8,34.8-198.2,208.6-172.7,215.1,13,3.3,46.9-124.5,174.9-158.5,48.5-12.9,29.8-63.4-2.1-56.6"/>
      <path id="path20" class="st0" d="M697.7,991.9c11,4.6,16.2,17.3,11.6,28.3-4.6,11-17.3,16.2-28.3,11.5-11-4.6-16.2-17.3-11.6-28.3,4.6-11,17.3-16.2,28.3-11.5"/>
      <path id="path21" class="st0" d="M1679.4,1097.5c-7.1-14.8-12.8,1.7-15.4,21-2.7,19.9.3,19.7-6.3,43.8-11,39.9,12.2,35.3,20.2,19.5,7.5-14.9,13.2-60.1,1.5-84.3"/>
      <path id="path22" d="M1037.6,1083.1c0,57.6-46.7,92.3-97.3,92.3s-91.6-51.6-91.6-109.2,41.2-99.7,94.5-99.7,94.5,47.8,94.5,116.6"/>
      <path id="path23" class="st6" d="M949.3,1047.3c0,22.2-18.3,40-40,40s-36.3-17.9-36.3-40,12-42.4,38.2-42.4,38.2,20.2,38.2,42.4"/>
      <path id="path24" class="st7" d="M1455.3,523.3c.1.3,0,.2,0,0h0"/>
      <path id="path25" class="st1" d="M1687.6,543.5c-1.2-4.3-2.7-8.4-4.4-12.4-.5.5-1,.9-1.5,1.4-5.4,5.1-10.5,10.4-15.6,15.9-4.6,224.3-230.9,359-324.9,383.5,4.1,8.8,7.9,17.6,11.6,26.6.2,0,.4-.1.5-.2,9.2-2.7,18.4-5.7,27.6-8.7,27.3-8.8,54.6-18,81.8-27.1,3.3-1.1,6.7-2.2,10-3.3.2-.1.3-.3.5-.4,64.6-49.5,130-104.8,174.7-173.7,23-35.4,37.4-71.9,44.5-113.7,5-29.5,3.5-59.3-4.7-87.9"/>
      <path id="path26" class="st1" d="M1688.9,880.3c-7.9,1.7-15.7,3.7-23.5,5.8-2.2.6-4.3,1.2-6.5,1.8-60,107.5-216.2,166.7-285.8,130.3,1.2,4.4,2.3,8.9,3.4,13.4,3.5,15.1,6.1,30.3,7.3,45.6,40.5-5.4,80.8-12.8,119.9-24.9,39.5-12.2,78-29.3,108.1-57.1,24-22.3,46.2-47.6,63.4-75.5,7-11.4,13.5-23.3,16.2-36.5,0-.2.2-1.7.3-3.4-.9.2-1.8.3-2.6.5"/>
      <path id="path27" class="st1" d="M1200.3,362.5c-6.1-11.1-12.5-18.8-22.5-27.7-5.5-4.9-5.1-4.5-10.9-8.4-2.2-1.5-4.5-2.9-6.7-4.3-2,3.9-3.9,7.9-5.6,11.9,21.2,33,27.4,72.3,17.2,110-5.4,22.7-19.4,40.2-33.1,58,17.6-7.9,35.4-15.5,53.3-22.8,17.7-36.6,28.4-80.4,8.5-116.7"/>
      <path id="path28" class="st1" d="M1461,539.3c-2.8-9.1-6.2-18.1-10.7-26.5-1.8-3.3-3.7-6.5-5.7-9.7-1-1.6-2.1-3.1-3.2-4.6,0,0,0,0,0-.1-.5-.6-2.7-3.1-2.7-3.2-3.1,8.3-7,16.4-10.4,24.4,49.8,137.4-59,278.5-116.9,354.6,1.4,2.5,2.8,5,4.2,7.5,1.2,2.1,2.4,4.3,3.6,6.5,33.5-28.1,64.6-59.9,89.8-95.5.4-.7.9-1.4,1.4-2,22.3-31.8,39.9-66.7,50.4-104.7,13.4-48.4,14.7-99.7.1-146.6"/>
      <path id="path29" class="st10" d="M1520.9,1215.4c-3.2-5.6-9.8-7.8-14.9-9.7-11.3-4.1-22.1-8.6-30.7-17.4-8.6-8.8-13.4-19.9-15.2-31.7-13.9,6.5-27.6,13.4-41,20.5-13,6.9-25.8,14.1-38.5,21.5-14.9,30.6,43.9,86.8,48.3,89.7,0-.1.2-.2.3-.3,4.7-3.6,39.2,22.4,54.3,23.1,23.5,1,22.4-35.9,21.8-36-34-4.5-54.5-21.1-49.2-25.7,4.8-4.2,20.4,3.5,38.7,3.5s17.3-1.6,22.4-8.7c5.3-7.4,8.6-20.4,3.8-28.8"/>
      <path id="path30" class="st1" d="M1035.8,463.8c-3.3-13.5-7.6-26.9-13.4-39.5-2.5-5.4-5.2-10.7-8.2-15.7-1.4-2.3-2.9-4.6-4.4-6.9-.2-.3-.3-.5-.5-.7-3.3,5.9-6.2,12-8.8,18.2,17.5,48,16.8,97.6,4.6,149.2,9.6-5.3,19.3-10.6,29-15.7,2-4.9,3.5-9.8,4.7-14.9,0-1.2.3-2.4.8-3.7,4.5-23.1,1.8-47.9-3.7-70.4"/>
      <path id="path31" class="st10" d="M2024.8,1354c-3.3-9.1-10.3-20.2-19.3-27-4.7-3.5-9.8-6.1-15.1-7.9,26.3,43.5-6.6,122.7-71.9,178.2-50.9,43.3-70.4,114.8-61.2,165,17.9-1.2,31.6-13.3,40.5-29.2,5.7-10.2,6.2-20,6.8-31.4.5-9.6,1-20.7,6.3-29.1,4.4-7,12.1-12,18.7-16.9,39.3-29.2,80.3-61.8,95.7-112.4,8.6-28.2,9.8-61.4-.3-89.4"/>
      <path id="path32" class="st8" d="M937.2,1965c-.4,12.8-24.6,53.4-41.7,42.8-15.1-9.4-7.9-34.4,20.9-53.7,10.1-6.8,21.2-1.9,20.8,10.9"/>
      <path id="path33" class="st8" d="M1200.2,1733.2c-2.4,12.6-36.4,45.8-51.6,32.5-13.4-11.7-4.9-36.7,27.5-48.9,15-5.7,26.5,3.8,24.1,16.4"/>
      <path id="path34" class="st8" d="M822,2215.2c-52.6,54.9-73.6,98.6-80.9,93.7-14.9-10.1,26-98.6,64-115.6,13.4-6,27.5,10.8,16.9,21.9"/>
      <path id="path35" class="st10" d="M1665.4,1416.7c14.2-19.5,32.5-43.2,36.8-68.4-16.8,12.8-36.7,21.8-54.9,18,4.6,7.9-3.5,33.3-16.4,58.2-9.8,21.8,1.6,42.9-4.5,76.7,5.1,5.3,4.8,32,2.3,39.3,4.6-.8,9-2.7,13.2-5.9,6.9-5.2,11.3-12.3,13-18.8,5.6-21.3,2.2-43.6.3-65.1-.7-7.5-1.3-15.1,2.2-22.1,2.1-4.3,5.2-8.1,8-12"/>
      <path id="path36" class="st9" d="M1367.5,715.1c-9-7.5-16,10.3-35.7,45.5-14.6,26,1.2,37.7,16,22.6,6.4-6.6,31.6-58,19.7-68.1"/>
      <path id="path37" class="st9" d="M996.8,497.3c-10.8-4.7-14.1,4.3-22.9,43.6-6.5,29.1,11.7,27,21.6,8.3,4.3-8.1,15.7-45.7,1.3-51.9"/>
      <path id="path38" class="st9" d="M1140.4,418c-10.8-4.7-8.9,18.3-25.3,55.1-12.4,27.7,3.7,25.1,21.6,8.3,6.7-6.3,18.1-57.2,3.8-63.4"/>
      <path id="path39" class="st9" d="M1412.4,857.7c22.3-29,41.1-34.4,72.2-67.2,43.9-46.3,56.5-68.1,58.8-40.9,1.9,22.1-20.2,59.4-71.7,95.6-55.1,38.7-64.3,19.1-59.3,12.5"/>
      <path id="path40" class="st9" d="M1453.7,971.8c53.7-10.5,95.7-30.5,81.8-15.1-6,6.6-30.4,25.8-71.7,34-36.7,7.3-29-15.2-10-18.9"/>
      <path id="path41" class="st0" d="M1908.4,1390.7c-52.8,55.6-63,99.1-68.9,77.3-2.1-7.9-5.7-43.9,34.7-92.9,28.9-34.9,54.2-5.6,34.2,15.5"/>
      <path id="path42" d="M2050.8,1210.7c-13.5,29.4-28.5,58-44.7,85.9-5.1-2.3-10.7-4.2-16.7-5.5-44.4-10.1-93.7,3.2-128.6,31.5-38.1,31-64.1,78.4-80.7,123.9-8.8,24-14.9,49.5-15.4,75.2-.1,6.6.5,13.3.4,19.9,0,3.3-.3,6.7-.9,10-.4,1.9-.6,4.3-2.2,5.7-2.1,1.8-253.3,162.5-377.2,227.5-47.4,24.8-95.3,48.7-142.6,73.7-37.9,20-75.8,40.6-110.9,65.2-29.2,20.4-56.5,43.5-77.6,72.5-14.5,20.1-27.2,41.3-42.2,61.1-7.2,9.5-14.9,18.9-23.2,27.6-.9.9-1.8,1.8-2.7,2.7-.2-10.6,1-16.4,3.8-27.3,6.8-25.9,18.7-50.3,32.3-73.2,34.1-57.4,86.5-102.3,138.6-143,60.3-47.1,125.6-86.3,191.4-125.1,33.8-19.9,67.3-40.1,99.7-62.2,8-5.4,16-10.9,23.9-16.5,1.1-.6,2.1-1.3,2.9-2.1,18.5-13.3,36.3-27.7,51.7-44.4,6.2-6.8,12-14,17.3-21.5,2,2.2,4.3,4.3,6.9,6.1,9.7,6.5,21.9,7.6,33.1,5.1,11.9-2.7,20.6-8.7,27.3-16.6,20,3.1,40.2-5.1,53.5-20.9,16.1-19.2,17.3-46.1,16-70.2-.6-10.5-2.4-20.8-2.9-31.3,0-.5.2-2.6.2-4.1,1.2-1.6,2.1-3.7,3.2-5.2,10.5-15,21.7-29.3,30.1-45.6,10.7-20.6,17.5-43.6,13.5-66.7,39.6-46.5,67.3-107.7,71.8-168,4.4-59.5-14-110.8-20.6-108.7-6.1,2-3.3,61.4-4.3,88.4-1.2,30.8-9.2,61.4-20.3,90.1-9.6,25-22.6,48.9-38.4,70.4-11.5,15.7-25.7,31.3-43,40.7-5.6,3.1-10.6,4.8-15.8,5.1,12.1-6.7,29.2-44.4,23.5-47.8-5.8-3.5-20.5,34.3-66.7,29.9-6.1-.6-10.6-3.8-12.9-9.3-.4-.9-3.6-11.7-2.7-11.7,23.3.6,36.9-12.4,35.8-18.5-1.3-7-25.8,4.9-48.4-12.3-5.6-4.3-8.8-12.2-4.4-18.5,4.1-5.9,15.4-6.3,21.9-8.5,6.9-2.3,11.8-7,16-12.7,9.6-13.2,14.6-30.1,18.6-45.7,5.2-20,9.6-40.6,10-61.2.8-41.3-15.6-67.2-22.1-65.3-6.2,1.9-5,24.7-4.3,29.6-43.9-2.5-87.8,9.5-128.5,25-44.7,17-87.5,38.9-128.8,63.1,4.4-9,8.2-18.2,11.3-27.7,4.9-15,7.4-30.2,8.1-45.5,37.1-4.9,74.1-11.1,110.3-21.1,41.4-11.4,84.5-27.1,118.6-53.8,27.1-21.1,50.5-47.4,70.9-74.9,16-21.6,37.1-51.6,34.2-80.1-1.1-10.9-5.9-21.1-17.9-21.7-5.6-.3-11.3,1-16.7,2.1-19,3.8-37.6,9.5-56.1,15.1-27.5,8.3-55,17-82.3,26,78.9-66.4,152-146.1,171.7-248.9,5.9-30.7,6.9-60.6,1.1-91.5-3.1-16.5-13.5-67.2-40.6-52.8-14,7.5-25.4,22.6-35.9,34.1-20.3,22.4-39.8,45.4-59.5,68.3-34.7,40.4-69.4,81.2-105.9,120.2,1.6-4.1,3.2-8.3,4.6-12.5,18.6-53.7,23.3-113.1,9.4-168.4-4.6-18.4-11.3-36.9-21.4-53-6.4-10.2-15.4-22.6-27.9-25.6-6.9-1.7-14.2.1-19.2,5.3-3.4,3.5-4.7,7.7-6.6,12.1-5.1,12.4-10.2,24.8-15.3,37.1-16.5,39.8-33,79.6-50.6,118.9-25.2,56.6-53.9,111-85.1,164.3-26.9-34.9-68.2-50-73.1-44.1-6.4,7.7,45.3,61.5,76,110.1,27,42.9,50,89,65.6,137.2,21,64.8,22.6,128.2-17.7,185.7-1.2,1.7-2.4,3.4-3.7,5.1-.4.6-2.4,3.2-2.6,3.5-47.5,60.7-113.5,101.6-183.6,133.6-74,33.7-159.7,56.8-240.6,61.7-20,1.2-40.1,1.4-60.1.2-40.2-2.3-82.1-10.3-118.3-28.4,1.1-.2,2.3-.3,3.4-.5,115.1-28,187.8-85.7,177.4-96.4-6.4-6.6-26.1,18.7-190.6,62.7-30.4,8.1-48.6.6-56.3-11.9-6.3-10.4-10-22.9-14.1-34.3-15.5-43.8-21.3-89.9-20.8-136.2.5-51.5,8.2-103.4,24.9-152.2,6.6-19.1,11.9-31.9,20.6-49.7,8.7-17.9,18.6-35.3,29.2-52.2,49.2-77.7,117.6-144.3,191.7-200.2,97.8-73.7,207.3-131.9,320.2-178.9,52.5-21.9,105.7-41.3,161-54.8,50.1-12.3,101.1-20.3,152.6-23.8,100.5-6.7,202.5,3.1,297.9,36.3,88.9,30.9,170.8,84.1,228.6,159.2,54.1,70.2,81.9,152.9,87.7,240.6,7.7,115.3-20.3,230.9-68.2,335.4h0ZM2025,1443.3c-15.4,50.5-56.4,83.2-95.7,112.4-6.5,4.8-14.2,9.8-18.7,16.9-5.3,8.4-5.8,19.5-6.3,29.1-.5,11.4-1.1,21.2-6.8,31.4-9,16.3-23.1,28.6-41.6,29.3-6.6.3-13.2-.7-16.5-6.9-12.3-23.4-.4-40.9-6.7-42.7-7.6-2.2-19.7,22-18.4,43.7-8.1,1.1-19.3.7-25.5-4.1-21.7-17-.7-48.1-7.1-49.9-6.4-1.7-20.5,18.8-21.7,24-10.2-2.8-20.4-12-18.3-23.3,5.1-3.8,26.2-18.9,27.2-19.4,15.2-7.7,21.1-18.4,22.4-35.6.8-10.1-.4-20.2,0-30.4.5-11.5,2.5-22.8,5.1-34,10.3-42.6,30.9-85.1,59.2-118.6,25.8-30.6,58.6-48.6,99-50.2,17.6-.7,36,1.1,50.6,12,9.1,6.8,16.1,17.9,19.3,27,10.1,28,8.9,61.2.3,89.4h0ZM1133.2,1966c-.7.5-1.9,1.4,0,0ZM1492.6,1772.7c-8.7,18.8-16.3,38.6-28,55.8-12,17.7-29,27.2-47.3,37-19.4,10.3-33.5,24.5-42.1,44.9-8.8,20.8-9.3,45.2-20.9,64.7-10,16.7-28.1,27.8-45.3,35.7-37.7,17.5-79.9,22.8-117.7,40.7-38.8,18.4-63.7,50.2-81.7,88.3-15.3,32.4-27.8,70.2-60.3,88.9-19.7,11.4-42.2,18.2-64.9,19.8-19.5,1.4-39-.1-58.5.6-20.9.8-41.6,4.7-60.3,14.5-21.4,11.1-39.3,29.3-56.1,46.4-13.4,13.5-26.3,27.3-41.1,37.3-16,10.9-33.2,20.1-50.6,28.3-15.2,7.2-30.8,13.5-47.1,18.5-.4.1-.9.2-1.3.4,1.5-2.4,3-4.9,4.6-7.3,9.8-15.1,20.1-29.9,29.1-45.5,9.4-16.5,14.8-33.3,20-51.5,3.2-11.2,6.3-22.5,8.9-33.9,1.9-8.2,3.6-17.3,6.9-23.8,16.9-33.9,50.3-57,76.2-83.9,13.2-13.7,26-28.9,33.8-46.4,9.8-21.8,12.9-45,12.5-68.8-.3-18.9-2.7-38.4,3.4-56.5,6-17.6,20.9-30.1,35.8-39.6,35.4-22.6,75.8-35.8,113.3-54.4,16.6-8.2,32.7-17.5,45-31.7,12.8-14.8,22.2-31.8,30.7-49.3,8.5-17.4,16.1-35.3,26.1-52,9.1-15.2,20.4-26,36.2-36,33.6-21.4,70.1-21,108.9-22.5,26.2-.9,52.6-2.6,78.6-6.2-59.4,35.4-118.8,70.2-174.6,111.3-57.6,42.6-116.9,89.8-158.4,149-17.3,24.7-31.6,51.5-42.6,79.5-9,23-16.5,48.9-12.5,73.8,1.5,9.3,5.5,19.1,12.5,25.6,9.2,8.5,21.8,7.1,31.8.8,21.3-13.5,37.2-37.3,51.8-57.1,8.5-11.6,16.7-23.4,24.6-35.5,23.9-36.4,55.3-64.4,91.8-88.3,18.1-11.8,36.7-22.8,55.5-33.3,45-25.1,91.2-48.2,137-71.7,47.2-24.3,94.1-49.3,140.3-75.3-1.4,2.8-2.7,5.7-4,8.6h0ZM1527.8,1475.8c-1.6-4.7-3-9.4-4.2-14.2-1.9-7.9-3-14.5-3.5-20.5-1.7-19.7.3-38.4,8.1-56.8,10.1-24,28.6-42.5,50-56.7.6,1.1,1.3,2.3,2,3.3,7.1,10.3,18.4,16.4,30.6,18.3,3.8.6,7.6.9,11.3.9,22.9,27.8,55,17.1,80.1-2-4.3,25.1-22.5,48.9-36.8,68.4-2.8,3.8-5.9,7.7-8,12-3.5,7-2.9,14.5-2.2,22.1,1.9,21.5,5.3,43.8-.3,65.1-1.7,6.6-6.1,13.6-13,18.8-4.2,3.2-8.6,5.1-13.2,5.9,2.7-7.9,2.8-38.4-3.6-40.2-6.4-1.8-13.1,45.8-40,56.2-8.6,3.3-16.6,2.1-20.3-5.7,24.1-31.5,13.3-59.6,7-57.9-6.5,1.7-14.9,41.3-38.3,36.7-7.9-1.6-14.3-7.9-15.1-16.9-1-10.3,8.1-15.8,10.8-24.7,1.4-4.6.2-8-1.3-12.1h0ZM1506,1205.7c5.1,1.9,11.8,4.1,14.9,9.7,4.8,8.4,1.5,21.5-3.8,28.8-5.1,7.1-13.6,8.7-22.4,8.7-18.3,0-33.9-7.6-38.7-3.5-5.3,4.6,15.3,21.2,49.2,25.7.6,0,1.7,37-21.8,36-15.1-.6-49.6-26.7-54.3-23.1-5.8,4.4,23,32,32.1,37.3-8,5.1-19.7,1.5-23.5-1.1-14.2-9.8-24.8-23.2-36.7-35.5-20.8-21.6-40.1-43.9-47.8-73.7,21.5-13.3,43.5-26.1,65.9-37.9,13.5-7.1,27.1-14,41-20.5,1.8,11.7,6.5,22.8,15.2,31.7,8.6,8.8,19.4,13.3,30.7,17.4h0ZM1599.4,905.9c21.9-6.9,43.8-13.7,66-19.8,7.8-2.1,15.6-4.2,23.5-5.8.9-.2,1.7-.3,2.6-.5-.1,1.7-.3,3.2-.3,3.4-2.7,13.2-9.2,25.1-16.2,36.5-17.2,27.9-39.4,53.3-63.4,75.5-30.1,27.8-68.6,44.9-108.1,57.1-39.1,12.1-79.4,19.5-119.9,24.9-1.2-15.3-3.8-30.5-7.3-45.6-3.8-16.2-8.5-32.2-14.1-48,4.9-1.5,9.7-3.2,14.5-4.7,20.8-6.6,41.6-13.5,62.3-20.4,53.3-17.7,106.6-35.7,160.2-52.6ZM1430.9,807.8c51.5-48,98-101.3,144-154.5,21-24.3,41.8-48.7,62.9-72.9,14.2-16.3,28.3-33,44-48,.5-.5,1-.9,1.5-1.4,1.7,4,3.2,8.1,4.4,12.4,8.3,28.7,9.7,58.4,4.7,87.9-7.1,41.9-21.5,78.3-44.5,113.7-44.7,68.9-110.1,124.2-174.7,173.7-.2.1-.3.3-.5.4-3.3,1.1-6.6,2.2-10,3.3-27.3,9.1-54.5,18.2-81.8,27.1-9.2,3-18.4,5.9-27.6,8.7-.2,0-.4.1-.5.2-6.4-15.7-13.4-31.1-21-46.3,37.2-30.4,71.4-65.2,99.1-104.4h0ZM1455.3,523.3c0,.2.1.3,0,0ZM1461,539.3c14.5,47,13.3,98.2-.1,146.6-10.5,38-28.1,72.9-50.4,104.7-.6.7-1,1.3-1.4,2-25.3,35.6-56.3,67.4-89.8,95.5-1.2-2.2-2.4-4.3-3.6-6.5-10.4-18.6-21.8-37.6-34.4-55.6,27.5-46.4,53.6-93.6,76.5-142.5,14.9-32,28.9-64.4,42.6-96.9,9.2-21.8,18.3-43.7,27.3-65.6,3.5-8.5,7.8-17.1,11-25.9,0,.1,2.2,2.6,2.7,3.2,0,0,0,0,0,.1,1.1,1.5,2.1,3.1,3.2,4.6,2,3.1,3.9,6.4,5.7,9.7,4.5,8.5,7.8,17.4,10.7,26.5h0ZM964.8,533.9c10.4-33.3,18.5-67.4,30.1-100.3,4-11.3,8.5-22.3,14.4-32.7.1.2.3.4.5.7,1.6,2.2,3,4.5,4.4,6.9,3,5.1,5.7,10.4,8.2,15.7,5.8,12.6,10.1,26,13.4,39.5,5.5,22.5,8.2,47.3,3.7,70.4-.5,1.3-.7,2.5-.8,3.7-1.2,5.1-2.7,10.1-4.7,14.9-32.9,17.3-65.3,35.8-96.7,55.6,10.5-24.3,19.6-49.1,27.5-74.4ZM1107.4,449.8c14-34.3,27.9-70.6,41.9-103.7,3.4-8.1,6.8-16.2,10.8-24,2.3,1.4,4.5,2.8,6.7,4.3,5.8,3.9,5.4,3.6,10.9,8.4,10,8.8,16.4,16.5,22.5,27.7,19.9,36.3,9.2,80.1-8.5,116.7-41.4,16.9-82.2,35.5-122.1,55.3,14.7-27.1,26.1-56.3,37.7-84.7h0ZM1880.1,469.5c-94.4-45.8-199.6-66.1-304.1-67.6-108.9-1.5-218.8,16.9-321.4,53.3-9.4,3.3-18.8,6.8-28.2,10.3,11.8-32.3,16.6-67.4,4.2-100.2-10.1-27-29.4-48.5-53.4-64-5.7-3.7-14.1-10.2-21.1-10.2-11.2,0-16.6,12.3-20.7,20.9-15.9,33.1-28.5,68-42.2,102.1-8.9,22.1-17.5,44.8-27.2,67-.6-4-1.2-8-1.9-11.9-5.3-28.2-15.1-58.5-32.1-82.1-5.8-8-13.4-17.3-24.2-17.7-13.3-.5-19.7,14.1-24.8,24.1-16,31.5-24.4,66.5-34.1,100.3-14.1,49.1-30.8,97.1-54.3,142.4-82.6,56.6-158.9,123.4-219.1,203.8-52.9,70.8-88.7,151.2-100.8,239-8.1,58.8-7.9,118.9,5,177.1,6.8,30.8,16.9,64.4,35.4,90.5,6.6,9.2,14.9,15.2,24.3,18.9,57.7,50.8,137.4,66.8,212.4,66.8,88.7,0,178-20.7,259.8-54.2,77-31.5,153.4-74.9,209.3-137.7,3-3.4,6-6.8,8.9-10.3,11.1,33.9,36.4,61.6,61.3,86.4,11.9,11.8,25,26.3,40.3,33.7,9.2,4.4,20.8,4.9,30.5,2.5,9.4-2.3,16.3-7.9,21.3-15.3,7.1,0,14.2-1.4,21.3-4.8,24.4-11.9,30-38.8,25.3-63.3,18.6-14.6,25.4-45.4,14.9-66-5.9-11.6-17.3-18.1-29.1-22.6-5.3-2-7.9-2.6-11.1-4.2-12.9-6.5-18.3-17.2-18.5-31.5,23.6-9.8,47.7-18,72.6-23.7,20.7-4.8,42.5-7.9,63.8-6.3-.2,3.1-.4,6.3-.7,9.4-1.6,21.4-5.5,42.8-11.6,63.3-2.5,8.3-5,15.8-8.8,22.8-.7,1.3-1.5,2.7-2.3,4-.3.5-1.9,2.5-1.9,2.7-.5.5-1.1,1.1-1.6,1.6-10.8,3.3-22.1,5.2-30.8,13.2-8.8,8.1-12.5,21.1-11.1,32.8,1.7,13.6,9.1,23.3,19.3,29.4-.2,1.8-.3,3.6-.4,5.5-27.8,16.6-52.8,39.4-66.5,69.2-10.6,23-14.8,48.3-12.4,73.5.9,9.5,2.5,18.9,4.9,28.1.8,3.2,1.6,7.3,2.8,10.8-3.1,4.3-6.1,12.6-6.9,14.7-6.4,17.5-.4,38,13.9,49.9,2.9,2.4,6.3,4.5,9.8,6.2-15.1,21.2-35,38.6-56,54.1-1.7,1.3-3.5,2.5-5.2,3.8-42.8,23.3-89.2,37-137.6,42.1-25.4,2.7-50.9,3.5-76.4,4.4-20.4.7-41.2,1.7-61.2,6.3-40.1,9.4-77,35.4-97.7,71-18.6,31.9-29.4,72.5-55.8,98.3-11.7,11.4-30.2,19.4-46.2,26.8-20.2,9.3-40.9,17.7-61,27.2-38.6,18.2-80.6,42.5-92,87-10.4,40.9,6.4,84.2-16.6,122.4-20,33.2-54.7,56-80.2,84.9-13.4,15.3-25.3,32.3-31.1,51.9-6.4,21.7-11,44.1-17.2,66-2.3,8.2-3.7,11-7.9,18.9-4.4,8.3-9.3,16.2-14.4,24.1-9.4,14.6-19.8,28.8-28.1,44-6.8,12.5-13.5,29.5-1.8,41.4,10,10.1,25.9,7.1,38.2,4.2,36-8.6,71.7-25.7,103.2-44.7,16.8-10.1,32.2-21.8,46.1-35.6,16.5-16.5,32.2-34.7,51.3-48.3,34.2-24.5,73.1-15.6,112.7-18.3,48.2-3.3,95.5-22.3,124.1-62.4,22.8-31.9,31.7-71.6,55.3-103.1,24.9-33.3,65.2-44.8,103.3-55.8,41.7-12.1,86.2-26,113.7-62,15.7-20.6,17.7-45.5,25.5-69.3,6.5-20,17.3-28.6,35-37.8,21.7-11.3,39.9-25.3,54.1-45.4,12.2-17.2,19.9-37.3,28.7-56.4,10.3-22.5,21.8-44.2,36.5-64.1,51.2-30.6,101.5-63,150.3-97.7,3.3-2.4,6.6-4.8,9.9-7.1,3.4,9.7,9.8,18.2,18.7,23.6,6.6,4,14.1,6.2,21.7,7.2,2,7.7,6.4,14.7,14.1,20.2,15.6,11.2,35.4,11.6,53.1,6.3.5.4,1,.7,1.5,1.1,14.6,10.2,34.5,8.9,50.5,2.8,22.5-8.5,38.9-28.2,47.5-50.4,4.5-11.7,4-24.2,4.9-36.5.4-5.1.7-10,4.8-13.4,4.8-4.1,10-7.8,15.1-11.5,10.7-7.8,21.3-15.8,31.5-24.4,24.4-20.8,46.2-45.9,59.5-75.3,20.2-44.7,25.1-114.8-7.6-154.5,66.2-113.1,113.1-239.4,120.4-371,5.2-93.4-10.5-190.6-55.8-273.4-49-89.6-127.5-160.1-219-204.5"/>
    </g>
  </g>
</svg>