<?xml version="1.0" encoding="UTF-8"?>
<svg id="Layer_1" xmlns="http://www.w3.org/2000/svg" xmlns:xlink="http://www.w3.org/1999/xlink" version="1.1" viewBox="0 0 3753 2502">
  <!-- Generator: Adobe Illustrator 29.2.1, SVG Export Plug-In . SVG Version: 2.1.0 Build 116)  -->
  <defs>
    <style>
      .st0 {
        fill: #010000;
      }

      .st1 {
        fill: #fcf5e9;
      }

      .st2 {
        fill: url(#linear-gradient2);
      }

      .st3 {
        fill: url(#linear-gradient1);
      }

      .st4 {
        fill: url(#linear-gradient3);
      }

      .st5 {
        fill: url(#linear-gradient6);
      }

      .st6 {
        fill: url(#linear-gradient5);
      }

      .st7 {
        fill: url(#linear-gradient4);
      }

      .st8 {
        fill: #e88715;
      }

      .st9 {
        fill: #fab50b;
      }

      .st10 {
        fill: #6d320e;
      }

      .st11 {
        fill: url(#linear-gradient);
      }

      .st12 {
        display: none;
      }

      .st12, .st13 {
        fill: #fefefe;
      }

      .st14 {
        fill: #d33b03;
      }

      .st15 {
        fill: #1a0a06;
      }

      .st16 {
        fill: #e97621;
      }

      .st17 {
        fill: #f56505;
      }

      .st18 {
        fill: #4a94a0;
      }

      .st19 {
        fill: #645e9e;
      }

      .st20 {
        fill: #70c0c8;
      }

      .st21 {
        fill: #144e7c;
      }

      .st22 {
        fill: #432965;
      }

      .st23 {
        fill: #58a6b0;
      }

      .st24 {
        fill: #ecd8af;
      }

      .st25 {
        fill: #fac017;
      }

      .st26 {
        fill: #ad2e2c;
      }

      .st27 {
        fill: #e1a16b;
      }

      .st28 {
        fill: #8585cb;
      }

      .st29 {
        fill: #e1668a;
      }

      .st30 {
        fill: #af8ec2;
      }

      .st31 {
        fill: #fcd654;
      }

      .st32 {
        fill: #485397;
      }

      .st33 {
        fill: #9a6429;
      }

      .st34 {
        fill: #4e80af;
      }

      .st35 {
        fill: #312c69;
      }
    </style>
    <linearGradient id="linear-gradient" x1="1603.4" y1="598.1" x2="1287.4" y2="296.4" gradientTransform="translate(0 2504) scale(1 -1)" gradientUnits="userSpaceOnUse">
      <stop offset="0" stop-color="#454d9a"/>
      <stop offset="1" stop-color="#1594c5"/>
    </linearGradient>
    <linearGradient id="linear-gradient1" x1="1386.1" y1="1191" x2="455" y2="1990.8" gradientTransform="translate(0 2504) scale(1 -1)" gradientUnits="userSpaceOnUse">
      <stop offset="0" stop-color="#3e1752"/>
      <stop offset="1" stop-color="#2b4f80"/>
    </linearGradient>
    <linearGradient id="linear-gradient2" x1="1205.4" y1="1694.3" x2="1224.6" y2="1886.3" gradientTransform="translate(0 2504) scale(1 -1)" gradientUnits="userSpaceOnUse">
      <stop offset="0" stop-color="#471208"/>
      <stop offset="1" stop-color="#262625"/>
    </linearGradient>
    <linearGradient id="linear-gradient3" x1="231.8" y1="1895.1" x2="355" y2="1813.8" gradientTransform="translate(0 2504) scale(1 -1)" gradientUnits="userSpaceOnUse">
      <stop offset="0" stop-color="#35165a"/>
      <stop offset="1" stop-color="#473d8e"/>
    </linearGradient>
    <linearGradient id="linear-gradient4" x1="274.5" y1="1878.5" x2="329.4" y2="1674.4" gradientTransform="translate(0 2504) scale(1 -1)" gradientUnits="userSpaceOnUse">
      <stop offset="0" stop-color="#621000"/>
      <stop offset="1" stop-color="#9b561a"/>
    </linearGradient>
    <linearGradient id="linear-gradient5" x1="1186.7" y1="1483.5" x2="1223.1" y2="1790.9" gradientTransform="translate(0 2504) scale(1 -1)" gradientUnits="userSpaceOnUse">
      <stop offset="0" stop-color="#381205"/>
      <stop offset="1" stop-color="#5e2104"/>
    </linearGradient>
    <linearGradient id="linear-gradient6" x1="1960.3" y1="1347.2" x2="1872.4" y2="335.4" gradientTransform="translate(0 2504) scale(1 -1)" gradientUnits="userSpaceOnUse">
      <stop offset="0" stop-color="#504792"/>
      <stop offset="1" stop-color="#2f6da8"/>
    </linearGradient>
  </defs>
  <path class="st12" d="M1.5,1h3750v2500H1.5V1Z"/>
  <path class="st8" d="M2041.4,1834.5l11.4-1.9c-2.1,17.6-3.5,35.1-3.9,52.8-.1,6.1,2.5,25.7.5,30.4,0,0-2.2,1.8-2.5,2.1-1.7,1.3-3.6,2.3-5.6,3.3l-16.7,6.2c-.2-33.1,6.8-61.7,16.7-93Z"/>
  <path class="st30" d="M3263.2,287.8l8.4,2.3c6.2.7,10.4,1.5,15.9,4.7,1.1,2.1,2.3,4.1,3,6.4-6.5,14.6-17.7,20.5-32.2,26-10.2,3.9-20.4,5.8-31.2,7.2l-19-.4-2.5,1.2c-3.5-3.6-6.1-7.6-8.9-11.7l66.5-35.6Z"/>
  <path class="st29" d="M3263.2,287.8l8.4,2.3c-18.4,9.5-50.8,27-63.5,43.9l-2.5,1.2c-3.5-3.6-6.1-7.6-8.9-11.7l66.5-35.6Z"/>
  <path class="st31" d="M3263.2,287.8c14.6-11.3,34.4-15.4,51.6-21.3,46.6-15.8,91.4-30.6,140.4-37.5-6.8,7.8-14.8,8.6-24.4,11.9l-43.7,15.6c-32.4,12.5-66,28.2-96.6,44.6-.7-2.3-1.9-4.3-3-6.4-5.5-3.2-9.7-3.9-15.9-4.7l-8.4-2.3Z"/>
  <path class="st35" d="M1199.4,351.5c67.4,26.9,137.7,66.5,191.9,115l-99.2-21.6-3.8-1.8c-11.7-15.1-24.7-30.4-38.3-43.9l-33-29.8c-6.5-5.6-13.4-10.3-17.6-18Z"/>
  <path class="st9" d="M2945.3,654.6c5.4,11.5,10.5,25.8,18.8,35.4v1.2c-10.3,53.6-18.2,108.1-14.3,162.9v1.4c-4.6,8-8,15.9-10.8,24.6-1.8,5.4-2.3,11.5-5.5,16.2-6-24.5-6-53-6.1-78.1-.2-54.5,2-111.1,18-163.6Z"/>
  <path class="st16" d="M2922.7,2001.2c7.8,2.7,21.1-1.6,29.2-2.9,48.5-7.7,95.6-17.9,142.5-32.4-3.5,11.3-8.2,20-16.2,28.8l1.5,3c-9,6.5-24.7,9.1-35.5,12.1-52.9,14.9-108.2,26.6-162.7,33,4.5-6.8,16.2-13,22.6-19.1,7.1-6.8,12.8-14.8,18.7-22.6Z"/>
  <path class="st27" d="M2939,1951.2c53.4,3.3,107.5,1.5,160-10l-4.5,24.6c-46.9,14.5-94,24.8-142.5,32.4-8.2,1.3-21.5,5.6-29.2,2.9,9.3-16.6,12.9-31.5,16.3-50Z"/>
  <path class="st31" d="M2964.2,691.2c10.6,6.2,23,13,35.9,9.9l1-.3v111.3c-14.6,4.5-27.6,10.4-36.7,23.2l-14.6,18.8c-3.9-54.8,4-109.3,14.4-162.9Z"/>
  <path class="st22" d="M826,1442.2l66.9,92.2h-11.3c-33.5.6-62.2,8.7-90.1,27.7l-9.4,38-16,50.1c-1.5,4.9-4.6,10.7-2.7,15.5l-3.8,1.6-1-2.3c-2.7-.2-4.1-1.5-6.4-2.9,22.3-55.2,29-116.1,49.8-171.7,6.3-16.9,14.8-32.6,23.9-48.1Z"/>
  <path class="st26" d="M3080,1173.1h.6c9.1,35,22.1,67.6,26.7,103.9-.1,9.8,1.2,19.3,1.4,29,.4,22.6-2.7,51.5-10,73.1-13.2,37.1-25.4,68.3-49.3,99.9-9.5,12.5-20.8,25.3-35.3,32l-1.9.8,43.7-82.8c34.3-75.5,28.2-148.8-.3-224.9l1.5-1.1c11.3-8.4,17.9-16.8,22.9-29.9Z"/>
  <path class="st30" d="M3018.9,535.9c9.3,2.3,15.7,5.4,23.6,10.9l.3,1.2c-21.3,33.6-31,80.2-37.8,119-1.8,10.3-5,23.5-3.9,33.8l-1,.3c-12.8,3-25.3-3.7-35.9-9.9v-1.2c-8.3-9.7-13.5-23.9-18.9-35.4,9.1-33,21.3-73.1,41.4-101.1,8.9-6,17.5-10.8,27.3-15l4.9-2.5Z"/>
  <path class="st29" d="M2986.7,553.5c8.9-6,17.5-10.8,27.3-15-11.3,29.5-23.9,58.8-33.4,88.9-6.4,20.5-9.7,42.5-16.5,62.6-8.3-9.7-13.4-23.9-18.8-35.4,9.1-33,21.3-73.1,41.4-101.1Z"/>
  <path class="st9" d="M3196.7,323.5c2.8,4.1,5.4,8.2,8.9,11.7l2.5-1.2,19,.4-37.2,33.1c-3.9,3.4-13.2,9.5-14.1,14.7l-24.3,12.2c-11.3,3.3-21.7,7-32.5,12l-.8.6c-4.1,10.9-5.9,20.8-2.1,32.1l.4,2.6-74.2,105.1c-7.9-5.5-14.3-8.6-23.6-10.9l-4.9,2.5c-9.9,4.2-18.5,9-27.3,15,10.3-23.9,27.1-46.8,42.6-67.5,28.2-37.5,58.7-70,93-102,24-22.4,46.5-42.8,74.4-60.5Z"/>
  <path class="st31" d="M3208.1,334l19,.4-37.2,33.1c-3.9,3.4-13.2,9.5-14.1,14.7l-24.3,12.2c-11.3,3.3-21.7,7-32.5,12,3.9-10,17.8-20.8,26.4-27.1l34.5-26.2c8.5-6,18.1-10.5,25.6-17.9l2.5-1.2Z"/>
  <path class="st31" d="M3018.9,535.9l.6-2.2c3.3-10.4,12.3-21.8,18.2-30.9,16.6-25.8,34.3-53,55.5-75.2,7.2-7.6,15.7-16.1,25.2-20.6-4.1,10.9-5.9,20.8-2.1,32.1l.4,2.6-74.2,105.1c-7.9-5.5-14.3-8.6-23.6-10.9Z"/>
  <path class="st16" d="M1392.1,1805.9c5.2-6.3,18-12.2,24.9-17.4,26.6-20,49.6-45.9,65.5-75.2l7.5,20.5,4.8,14.6c5.1,26.6,6.6,51.7,4.3,78.6-1.9,10.1-5.1,21.1-6.1,31.1-18.1-4.4-38.4-3.4-56.9-5.7-22.6-2.8-45.1-8.4-67.4-13.5l-25.2-5.9c6.2-10.5,30.3-15.6,41.1-23.6l7.5-3.6Z"/>
  <path class="st17" d="M1392.1,1805.9c3.9,1.6,8.1,3,11.8,5.1l.5,2.3c-11.9,7.5-29,13.4-35.6,25.7l-25.2-5.9c6.2-10.5,30.3-15.6,41.1-23.6l7.5-3.6Z"/>
  <path class="st27" d="M1405.6,1813.4c34-21,59.1-49.3,84.4-79.6l4.8,14.6c5.1,26.6,6.6,51.7,4.3,78.6l-93.6-13.7Z"/>
  <path class="st16" d="M1070.8,1678.2l11.2,5.4c19.4,14.3,41,25.5,62.1,37,49.2,26.8,99.6,50,153.2,66.8,28.9,9,58.1,15,87.4,22.2-10.8,8-34.9,13.1-41.1,23.6-13-.5-31.6-8-44.4-11.9-97.4-29.4-193.6-76.4-273.5-139.8,13.1-6.2,29.1,3.2,45.1-3.2Z"/>
  <path class="st16" d="M3271.8,1878.9c.1-.7,9.5-5.9,10.8-6.7,23-13.6,46.6-27.1,68.2-42.9,31.9-23.3,60.8-51.5,86.4-81.6,14.2-16.7,25.3-37.5,40.1-53.2l.9-1c-10.2,27.7-32,56.9-50.8,79.6-68.2,82.4-150.4,141-247.3,185.8l-95.2,38.1-5.1.6-1.5-3c8.1-8.8,12.7-17.5,16.2-28.8l4.5-24.6,12-2.4c56.2-11.1,109.4-35.5,160.8-59.9Z"/>
  <path class="st17" d="M3099,1941.2l12-2.4-3.4,18.5c-6.4,14.4-13.3,27-22.7,39.7l-5.1.6-1.5-3c8.1-8.8,12.7-17.5,16.2-28.8l4.5-24.6Z"/>
  <path class="st27" d="M3110.9,1938.9c56.2-11.1,109.4-35.5,160.8-59.9-11.2,21.5-128.2,68.1-155.6,76.7-2.9.9-5.6,1.4-8.6,1.7l3.4-18.5Z"/>
  <path class="st16" d="M2788.3,1926.6l93.5,17.7c14.3,2.2,30.3,5.5,44.8,5.3l12.5,1.6c-3.4,18.5-7,33.4-16.3,50-5.9,7.8-11.6,15.8-18.7,22.6-6.3,6.1-18.1,12.3-22.6,19.1l-6.2,1c-10.9,4.9-32.1,4.8-44.2,5.9-121.9,11.7-238-17.7-356.8-40.2,9.7-9.1,26-14.2,38-20.1,13,5.2,30.2,6,44.1,8.2l172.6,19.9c-6.3,6.1-12.3,12.8-19.7,17.4-2.4,1.5-4.3,3.5-6.3,5.5,10.2,1.4,30.8-15.5,39.2-21.5,28.1-26.2,40-55,46.3-92.2Z"/>
  <path class="st27" d="M2788.3,1926.6l93.5,17.7c14.3,2.2,30.3,5.5,44.8,5.3l12.5,1.6c-3.4,18.5-7,33.4-16.3,50-5.9,7.8-11.6,15.8-18.7,22.6-6.3,6.1-18.1,12.3-22.6,19.1l-6.2,1c2.2-5.7,8.6-11.3,12.7-15.7,6.6-7.2,12.4-14.3,17.6-22.6l-104,12.1c-19,1.5-40.6,3.8-59.4,1.2,28.1-26.2,40-55,46.3-92.2Z"/>
  <path class="st17" d="M2926.5,1949.7l12.5,1.6c-3.4,18.5-7,33.4-16.3,50-5.9,7.8-11.6,15.8-18.7,22.6-6.3,6.1-18.1,12.3-22.6,19.1l-6.2,1c2.2-5.7,8.6-11.3,12.7-15.7,6.6-7.2,12.4-14.3,17.6-22.6,11.5-18,18.7-34.4,21-55.9Z"/>
  <path class="st27" d="M2602.3,1862.9l176.5,61.4,9.4,2.3c-6.3,37.2-18.2,66-46.3,92.2-8.3,6.1-29,23-39.2,21.5,2-2,3.9-4,6.3-5.5,7.4-4.7,13.5-11.3,19.7-17.4l-172.6-19.9c-14-2.2-31.2-3-44.1-8.2l3.5-2c30.9-18.1,58-46.7,72.7-79.4,6.5-14.4,10.1-29.9,14-45.1Z"/>
  <path class="st17" d="M2778.9,1924.3l9.4,2.3c-6.3,37.2-18.2,66-46.3,92.2-8.3,6.1-29,23-39.2,21.5,2-2,3.9-4,6.3-5.5,7.4-4.7,13.5-11.3,19.7-17.4,27.5-26.2,40-57.4,50-93.2Z"/>
  <path class="st8" d="M1292.1,445l99.2,21.6c59.8,51.9,109.3,115.7,141.5,188.4-54.7-27.1-103.6-26.1-160.7-6.8l-37,14.5-37.1-25.4c21.9-16.3,44.3-36.3,48.9-64.7,7.7-47.5-28.3-91.7-54.7-127.6Z"/>
  <path class="st14" d="M2964.4,835.3c5.2,23.2,16.4,42.5,37,55.4,4.3,2.7,8.6,4.8,13.5,6.2,11.2,36,23,71.4,38.2,106,4.1,9.3,8.4,22.2,15.6,29.5v1.7l35.9,59.9.4,1c-6.2,10.9-10.3,22.4-13.4,34.6l-10.9,43.6h-.6c-5.1,13.1-11.7,21.5-22.9,29.9l-1.5,1.1c-13.5-41.1-38.1-79-59.1-116.6-24.6-44-41.8-90.6-53.3-139.7-4-17-8.3-34.1-9.8-51.5,3.3-4.7,3.8-10.8,5.5-16.2,2.9-8.7,6.2-16.7,10.8-24.6v-1.4s14.7-18.8,14.7-18.8Z"/>
  <path class="st25" d="M3044.8,1070.8c8.1,13.7,19.3,24.2,29.4,36.4,6.1,7.3,10.8,15.3,17.3,22.3l-10.9,43.6h-.6c-10.7-32.2-29-58.5-43-89l7.8-13.3Z"/>
  <path class="st31" d="M3068.7,1034l35.9,59.9.4,1c-6.2,10.9-10.3,22.4-13.4,34.6-6.5-7-11.3-15-17.3-22.3-10.1-12.2-21.2-22.7-29.4-36.4,6.2-13.3,14.9-25.3,23.8-36.8Z"/>
  <path class="st29" d="M2964.4,835.3c5.2,23.2,16.4,42.5,37,55.4,4.3,2.7,8.6,4.8,13.5,6.2,11.2,36,23,71.4,38.2,106,4.1,9.3,8.4,22.2,15.6,29.5v1.7c-9,11.5-17.7,23.5-23.8,36.8l-7.8,13.3c-35.9-58.3-66.9-119.4-81.6-186.8-3-13.8-3.7-27.8-5.7-41.8v-1.4s14.7-18.8,14.7-18.8Z"/>
  <path class="st27" d="M1449.2,1615.4c7.8,33.9,20,65.9,33.3,97.9-15.9,29.3-38.9,55.1-65.5,75.2-6.9,5.2-19.7,11.2-24.9,17.4l-7.5,3.6c-29.3-7.2-58.5-13.2-87.4-22.2-53.5-16.8-104-40-153.2-66.8-21.1-11.5-42.8-22.7-62.1-37,13.5,1,26.9,5.1,40.3,7.3,25.4,4.1,50.7,6,76.4,6.1,67.5.2,147.8-10.1,206.6-45.5,16.7-10,30.3-22.4,44-36.1Z"/>
  <path class="st25" d="M1510,1722.7c9.2-8.7,18.5-12.6,31.2-12.5,24.8.2,41.3,15.4,57.3,32.3,11.1,11.8,20.1,24.1,37.7,24.7,23.8.9,45.3-14.6,69.3-13.7l6,.2-.3,2.3c24.6,12.4,46.3,26,56.4,52.9v11.2c-.4,4.3-1.5,9.3-1.2,13.6l-3.1,31.5c-3.8,18.6-7.1,37.6-12.7,55.8-17.5,57.5-49.2,112.3-91.3,155.3l-25.8-72.6v-1.3c-8.3-25.4-9.7-52.6-19-78-6.2-17-16.2-35.6-33.6-43.2-26.2-11.5-63.6,6.9-88.4,17l-2,1.6-27.7,12.6c12-17.5,21.9-34.7,30.5-54.1,1-10.1,4.2-21,6.1-31.1,2.3-27,.7-52.1-4.3-78.6,3.9-9.4,8.6-17.4,14.2-25.8h.9Z"/>
  <path class="st17" d="M1509,1722.7h.9c15.1,48,17.9,93.4-1.1,140.7-4.8,11.9-11.5,22.9-16.6,34.7l-2,1.6-27.7,12.6c12-17.5,21.9-34.7,30.5-54.1,1-10.1,4.2-21,6.1-31.1,2.3-27,.7-52.1-4.3-78.6,3.9-9.4,8.6-17.4,14.2-25.8Z"/>
  <path class="st8" d="M1711.2,1756c24.6,12.4,46.3,26,56.4,52.9v11.2c-.4,4.3-1.5,9.3-1.2,13.6l-3.1,31.5c-3.8,18.6-7.1,37.6-12.7,55.8-17.5,57.5-49.2,112.3-91.3,155.3l-25.8-72.6v-1.3c8.7-7.9,14.3-22.3,19.8-32.8,35.5-68.3,50.7-137.7,58.1-213.6Z"/>
  <path class="st11" d="M1492.3,1898.1c24.9-10.1,62.2-28.5,88.4-17,17.4,7.6,27.4,26.2,33.6,43.2,9.3,25.4,10.7,52.6,19.1,78v1.3c0,0,25.8,72.6,25.8,72.6-49.9,44-109.7,79.9-143.6,138.7l-16.5,32c-4.4,7.6-9,16.5-18,18.9-4.8,0-8.2-1.1-12.2-3.7-20.9-13.2-31.5-46.5-36.7-69.1-45.1-13.6-87.9-1.1-132.8,7.1-13.4,2.5-28,5.9-41.6,3.2-5-5-5.5-6.1-5.5-13.3,0-26,31.4-60.5,48.7-77.8l-25.4-16.7c-24.9-19.6-42.6-45.8-46.2-77.5,3.6-5.5,4.2-5.5,10.4-7.8,11.5-2.5,25.6,2.9,36.9,5.6,10.1,2.4,20,3.3,30.4,3.2,65.9,0,113.5-64.2,155.6-106.9l27.7-12.6,2-1.6Z"/>
  <path class="st35" d="M1633.4,2003.7l25.8,72.6c-49.9,44-109.7,79.9-143.6,138.7-7.7-11.7-7.4-25.5-15.3-36.3,7.1-17.2,14.5-33.3,25.4-48.5,15.4-21.5,35.5-39.2,53.7-58.3,20-20.9,38.4-43.9,54-68.2Z"/>
  <path class="st32" d="M1490.3,1899.7c-35.1,50.7-99.6,118.8-163,129.7-25.6,4.4-58.6-2.1-82.3-11.7l-7.6,2.5c5.4,18.5,25.6,36.8,41.8,45.8,20.9,11.6,45,11,68.2,9.9,12.5-.6,38.7-5.8,48.9,1.4-11.8,2.8-24.1,5-35.5,9-38.6,13.5-63.5,36-84.5,70.4-7.4,12.2-12.7,23.3-17,36.9,19.2-11.7,37.2-23.6,58.8-30.7,34.7-11.4,78.1-12.1,108.8-32.9,7.7-5.2,13.9-13,20-20-6.6,45.4-6.2,85.2,22.3,123.7l9.9,12.5,21.2-67.6c8,10.8,7.6,24.6,15.3,36.3l-16.5,32c-4.4,7.6-9,16.5-18,18.9-4.8,0-8.2-1.1-12.2-3.7-20.9-13.2-31.5-46.5-36.7-69.1-45.1-13.6-87.9-1.1-132.8,7.1-13.4,2.5-28,5.9-41.6,3.2-5-5-5.5-6.1-5.5-13.3,0-26,31.4-60.5,48.7-77.8l-25.4-16.7c-24.9-19.6-42.6-45.8-46.2-77.5,3.6-5.5,4.2-5.5,10.4-7.8,11.5-2.5,25.6,2.9,36.9,5.6,10.1,2.4,20,3.3,30.4,3.2,65.9,0,113.5-64.2,155.6-106.9l27.7-12.6Z"/>
  <path class="st35" d="M892.9,1534.3c29.9,35.2,58.8,71.5,91.3,104.5,4.4,4.4,23.4,20.9,23.4,26l-.2,1-3.2,5.2c-11.1,32.7-23.7,66-41.9,95.5-4.5,7.3-9.4,16.2-15.8,21.9l-1.1,1.3c-7.9,12.2-19.2,22.9-29.3,33.3-19.1,19.6-38.6,38.7-52.8,62.3-9.6,15.9-16.5,33-22.5,50.5-3.4,10.1-5.4,26.7-11.4,34.9-1,1.3-3.6,2.9-5,4-7.3-.1-10-.6-15.3-5.9-16.8-16.7-24.8-39.7-39.6-57.5-40.5,2-71.2,15.1-106,34.9-9.3,5.3-19.6,12.9-30.2,14.6-6.2,1.1-6.3,1.4-11.6-1.8-1.3-2.5-2.3-4.9-2.8-7.8-4.6-28.4,18.7-63.5,34.6-85.5-31.3-11.4-66.6-11.1-99.3-17.1-8.4-1.6-14.7-2.3-20-9.9,0-4.1-.7-7.4,1.5-11,15.6-24.9,60.3-37.4,86.9-44.1-18.7-13.7-40.4-35.2-51.2-55.9-2.5-3.5-2.3-6.6-2.4-10.8.9-1.1,1.5-2.5,2.7-3.3,6.1-4.2,66,17.4,77.6,19.2,17,2.7,33.7,2.2,49.6-4.8,29.4-13,42.1-37.8,53.2-66.2,2.2,1.5,3.6,2.8,6.4,2.9l1,2.3,3.8-1.6c-2-4.8,1.1-10.5,2.7-15.5l16-50.1,9.4-38c27.8-19,56.6-27.1,90.1-27.9h11.3Z"/>
  <path class="st22" d="M571.6,1727.9c1.9-.5,4.2-1.8,5.9-.8,6.4,3.6,10.8,9.9,15.5,15.3,11.5,13.5,24.1,29.5,42,34.3,9.6,2.6,21.3,2.4,31.3,3.2-9,1.7-35.9,8.4-43.5,3.8-18.7-13.7-40.4-35.2-51.2-55.9Z"/>
  <path class="st22" d="M633.5,1961l-1.1-2.9c2.8-8.8,11.5-16.1,18.1-22.4,32.1-30.4,74.1-55.8,112.8-76.6,9.4,21.7,20.8,42.4,33,62.6,6.8,11.3,13.2,23.2,22.3,32.7,8.5-21.3,6.6-47.4,14.1-69.7,16.4-48.9,67.3-80.1,110.9-102.2l1.9,7.4c-7.9,12.2-19.2,22.9-29.3,33.3-19.1,19.6-38.6,38.7-52.8,62.3-9.6,15.9-16.5,33-22.5,50.5-3.4,10.1-5.4,26.7-11.4,34.9-1,1.3-3.6,2.9-5,4-7.3-.1-10-.6-15.3-5.9-16.8-16.7-24.8-39.7-39.6-57.5-40.5,2-71.2,15.1-106,34.9-9.3,5.3-19.6,12.9-30.2,14.6Z"/>
  <path class="st16" d="M892.9,1534.3c29.9,35.2,58.8,71.5,91.3,104.5,4.4,4.4,23.4,20.9,23.4,26l-.2,1-3.2,5.2c-11.1,32.7-23.7,66-41.9,95.5-4.5,7.3-9.4,16.2-15.8,21.9-1.5-21.8-3.4-43.4-12-63.8-9.1-21.6-30.2-54.9-52.8-63.7-35.3-13.7-49.9,21.2-69.7,42.5-7.4,7.9-16.1,13.7-25.9,18.2-11.9,5.5-25,5.9-38,7.1,16.6-9.9,29.9-18.4,35.2-38.2,1.8-6.6,3.6-18.7-.5-24.6-3.5-5-5.9-5.4-11.4-6.6l-8,6.2c-2-4.8,1.1-10.5,2.7-15.5l16-50.1,9.4-38c27.8-19,56.6-27.1,90.1-27.9h11.3Z"/>
  <path class="st17" d="M892.9,1534.3c29.9,35.2,58.8,71.5,91.3,104.5,4.4,4.4,23.4,20.9,23.4,26l-.2,1-3.2,5.2h-5.8c-21.1-14.2-39.3-40.4-55.8-59.8-20.7-24.6-44.7-49.4-61.2-77h11.3Z"/>
  <path class="st27" d="M1158.2,1288.2c-11.6,4.9-24.9,4.8-35.8,9.9,37.4,8.8,60.6,24,88.1,50.8,14.1,17.5,22.7,34.7,33.4,54.2l3.6,8.1,3.6,6.6c20.5,37.9,46,70.7,79.9,97.5l3.9,2.9c34.5,22.9,67.8,40.6,106.4,55.5l8,41.7c-13.7,13.6-27.3,26-44,36.1-58.8,35.3-139.1,45.7-206.6,45.5-25.7,0-51-2.1-76.4-6.1-13.4-2.1-26.7-6.2-40.3-7.3l-11.2-5.4c-15.9,6.4-31.9-3-45.1,3.2-7.1-4.2-12.5-9.9-18.2-15.6l.2-1c0-5.1-19.1-21.6-23.4-26-32.5-32.9-61.4-69.2-91.3-104.5l-66.9-92.2c-13.9-14.3-27.8-39.2-36.4-57.3-6-7.2-10.5-17.4-15.1-25.7l-32.9-57.4c139.2,14.9,278.4,4.5,416.6-13.7Z"/>
  <path class="st8" d="M1158.2,1288.2c-11.6,4.9-24.9,4.8-35.8,9.9-31.5,10.2-65.5,14.5-98.2,18.5-81.4,10-164.6,12.8-246.5,10.3,5.5,8.4,11,17.3,17.7,24.9,11.8,3.1,23.3,9.4,34.8,13.8,30.3,17.2,64.2,25.3,98.2,31.8,70.7,13.6,144.7,17.4,216.7,15.7l51.8-2.6c10.6-.8,21.4-2.6,32-1.7l15.1-5.6,3.6,8.1c-22,14.1-51.8,22.7-77,29.2-75,19.5-156.6,28.9-233.1,12.2-41.9-9.2-80.2-24.4-117.3-45.8l44.4,67.2c12.2,17.1,23.2,33.2,40.2,45.9.7,3.9.8,7.9,3.8,10.8,7.3,14.9,23.2,28.5,35,40.1,39.9,39.4,81.1,75.5,127.2,107.5-15.9,6.4-31.9-3-45.1,3.2-7.1-4.2-12.5-9.9-18.2-15.6l.2-1c0-5.1-19.1-21.6-23.4-26-32.5-32.9-61.4-69.2-91.3-104.5l-66.9-92.2c-13.9-14.3-27.8-39.2-36.4-57.3-6-7.2-10.5-17.4-15.1-25.7l-32.9-57.4c139.2,14.9,278.4,4.5,416.6-13.7Z"/>
  <path class="st24" d="M795.3,1351.8c11.8,3.1,23.3,9.4,34.8,13.8,30.3,17.2,64.2,25.3,98.2,31.8,70.7,13.6,144.7,17.4,216.7,15.7l51.8-2.6c10.6-.8,21.4-2.6,32-1.7-30.7,12-64.4,20-96.9,25.1-108.9,16.9-226.3,9-318-57.9l-18.5-24.2Z"/>
  <path class="st24" d="M904.8,1519.8c-17.1-12.7-28-28.8-40.2-45.9l-44.4-67.2c37,21.4,75.4,36.7,117.3,45.8,76.5,16.7,158.1,7.3,233.1-12.2,25.2-6.5,55-15.1,77-29.2l3.6,6.6c20.5,37.9,46,70.7,79.9,97.5-18.2,9.8-38.5,17-57.8,24.3-93.9,35.3-194.2,45.7-291.1,16.1-27.5-8.4-52.2-21.9-77.2-35.9Z"/>
  <path class="st24" d="M1331,1515.4l3.9,2.9c34.5,22.9,67.8,40.6,106.4,55.5l8,41.7c-13.7,13.6-27.3,26-44,36.1-58.8,35.3-139.1,45.7-206.6,45.5-25.7,0-51-2.1-76.4-6.1-13.4-2.1-26.7-6.2-40.3-7.3l-11.2-5.4c-46.1-32-87.3-68-127.2-107.5-11.8-11.6-27.7-25.2-35-40.1-3-2.8-3.1-6.9-3.8-10.8,25,14,49.7,27.5,77.2,35.9,97,29.6,197.3,19.2,291.1-16.1,19.4-7.3,39.6-14.5,57.8-24.3Z"/>
  <path class="st9" d="M1331,1515.4l3.9,2.9c-99.1,58.9-217,82.4-329.9,53.9-34.4-8.7-65.9-23.4-96.3-41.5-3-2.8-3.1-6.9-3.8-10.8,25,14,49.7,27.5,77.2,35.9,97,29.6,197.3,19.2,291.1-16.1,19.4-7.3,39.6-14.5,57.8-24.3Z"/>
  <path class="st22" d="M3278.3,413.7c11.7-5.1,21.4-6.4,34.2-5.7,9.4,5.9,16.9,12.6,23.8,21.4-64.8,89-97.8,190.9-80.1,301.4,3.5,21.8,11.5,43.3,19.8,63.6,22.8,55.2,60.1,108.1,96.6,155.1,25.3,32.5,51.6,63.2,73.7,98.1,27.9,44.1,51.9,91,69,140.3,13.1,37.8,21.6,77.3,27.9,116.8,21.3,133.5,8.3,272.6-64.8,388.9h-.1c0,.1-.9,1.1-.9,1.1-14.8,15.7-25.9,36.4-40.1,53.2-25.6,30.1-54.5,58.3-86.4,81.6-21.7,15.8-45.2,29.3-68.2,42.9-1.2.7-10.6,6-10.8,6.7-51.4,24.5-104.6,48.8-160.8,59.9l-12,2.4c-52.5,11.5-106.5,13.3-160,10l-12.5-1.6c-14.4.2-30.5-3.2-44.8-5.3l-93.5-17.7-9.4-2.3-176.5-61.4c-3.9,15.2-7.5,30.7-14,45.1-14.7,32.7-41.8,61.3-72.7,79.4l-3.5,2c-11.9,5.9-28.3,11-38,20.1l-28.5-5.7-69.8-6.5-93.6,90.9-27-76.1c42.9-30.1,88.8-80.9,113-127.6,30.4-58.7,52.2-121.9,55.3-188.3.4-8.7,2-24-.8-32.2-2.3-6.6-3.5-13.7-5-20.5,15.8,22.6,21.7,48.9,34.5,73,6.6,12.5,15.5,23.1,25.3,33.2,31.8-38.1,35.4-104.7,31.9-152.2-.7-9.8-5.4-29.7-2.4-38.3,1.8-5,1-11.3.9-16.6l12.9,34.9c22.4,1.1,50-1.3,68.4-15.6,22.1-17.3,27.1-40.2,30.2-66.5l46.5,60.8c26.2,34.2,59.5,73.6,93.9,99.5,35,30.1,71.9,55.9,116,70.7,14.6,4.9,29.8,9.3,45.3,9,28.9-.6,46.8-16.3,65.6-36.2,20.9,22.3,46.4,31.6,77,32.6,78.5,2.7,154.3-33.8,210.6-86.7,151.4-142.3,165.6-401.7,73.5-579.7-14.8-28.6-32-56.8-51.9-82.1-30.7-39.1-67.9-74.2-93.8-116.9-17.8-29.4-28.8-61.8-36.1-95.2-6.8-31.1-10.8-62.1-9.6-94,3.7-100.2,49-195.5,121.7-263.5Z"/>
  <path class="st27" d="M2463.3,1808.1c3.7-2.6,6.4-6,11.3-4.9,15.3,3.3,33.8,16.7,48.3,23.8l66.9,30.3,12.6,5.7c-3.9,15.2-7.5,30.7-14,45.1-14.7,32.7-41.8,61.3-72.7,79.4l-3.5,2c-11.9,5.9-28.3,11-38,20.1l-28.5-5.7-69.8-6.5c29.8-39.3,50.7-86.1,63.6-133.6l7.9-33.5c.8-3.5,1.9-11.3,3.8-14.3,1.4-2.1,9.6-6.2,12.2-7.8Z"/>
  <path class="st17" d="M2589.8,1857.3l12.6,5.7c-3.9,15.2-7.5,30.7-14,45.1-14.7,32.7-41.8,61.3-72.7,79.4l-3.5,2c-11.9,5.9-28.3,11-38,20.1l-28.5-5.7c4.8-4.8,12.6-6.5,18.9-9.1,8.7-3.5,17.1-7.8,25.5-12,11.7-4.5,22-11.3,32-18.7,33.3-24.7,61.6-65.4,67.6-106.8Z"/>
  <path class="st16" d="M2463.3,1808.1c-12.3,54.6-28.4,105.6-49.9,157.3l76.6,17.4c-8.4,4.2-16.8,8.4-25.5,12-6.2,2.5-14.1,4.3-18.9,9.1l-69.8-6.5c29.8-39.3,50.7-86.1,63.6-133.6l7.9-33.5c.8-3.5,1.9-11.3,3.8-14.3,1.4-2.1,9.6-6.2,12.2-7.8Z"/>
  <path class="st32" d="M3278.3,413.7c11.7-5.1,21.4-6.4,34.2-5.7-25.9,32.7-45,69.2-60.9,107.6-24,57.8-40.4,118.9-33,182.1,3.1,26.4,8.4,53.2,17.5,78.2,18.5,50.9,50.3,97.5,80.5,142.1,45.5,67.2,95.4,136.6,129.8,210.3,42.3,90.5,57.8,194.5,46.2,293.7-10.7,91.3-45.3,178.7-102.1,251.2-78.2,100-212.7,163.4-337,178.3-176.7,21.3-351.3-35.3-490.3-144.7l-27.3-21.1c-.3-30-1.9-61-10.1-90-1.8-6.2-2.2-12.2-4.8-18.2,22.4,1.1,50-1.3,68.4-15.6,22.1-17.3,27.1-40.2,30.2-66.5l46.5,60.8c26.2,34.2,59.5,73.6,93.9,99.5,35,30.1,71.9,55.9,116,70.7,14.6,4.9,29.8,9.3,45.3,9,28.9-.6,46.8-16.3,65.6-36.2,20.9,22.3,46.4,31.6,77,32.6,78.5,2.7,154.3-33.8,210.6-86.7,151.4-142.3,165.6-401.7,73.5-579.7-14.8-28.6-32-56.8-51.9-82.1-30.7-39.1-67.9-74.2-93.8-116.9-17.8-29.4-28.8-61.8-36.1-95.2-6.8-31.1-10.8-62.1-9.6-94,3.7-100.2,49-195.5,121.7-263.5Z"/>
  <path class="st17" d="M2666,1556.1c26.2,34.2,59.5,73.6,93.9,99.5-.4,6.2-.9,12.5-2.7,18.4-5.1,17.1-18.9,34.5-34.7,42.8-9.9,5.2-21.9,5.5-32.4,1.9-14.6-4.9-24-15.3-30.8-28.9-20.8-42.2-7.8-91.7,6.7-133.8Z"/>
  <path class="st9" d="M3455.2,229.1c36.9-4.9,74.5-8.3,111.5-2.5,12.8,2,26.8,4.9,38.1,11.5.7,2,1.5,2.6.5,4.6-8.5,11-21,16.2-33.1,22.4l-67.7,32.4c-20.5,9.9-40.8,20.6-60.1,32.6-41.5,25.8-78.2,60.6-108.1,99.1-6.9-8.7-14.4-15.5-23.8-21.4-12.7-.7-22.5.5-34.2,5.7-72.7,68-118,163.3-121.7,263.5-1.1,31.9,2.8,62.9,9.6,94,7.3,33.4,18.3,65.8,36.1,95.2,25.9,42.7,63.1,77.8,93.8,116.9,19.9,25.3,37.1,53.5,51.9,82.1,92.1,178,77.9,437.4-73.5,579.7-56.3,52.9-132.1,89.4-210.6,86.7-30.6-1-56.1-10.3-77-32.6-18.8,19.8-36.7,35.5-65.6,36.2-15.5.3-30.8-4.1-45.3-9-44.1-14.8-81-40.7-116-70.7-34.4-25.9-67.7-65.3-93.9-99.5l-46.5-60.8c-14.7-26.4-38-51.6-57.7-74.4-59.9-69.2-120.8-132.3-196-185.3-32.7-23.1-68.5-43.3-103.8-62.1-39.8-21.2-80.8-41.9-123.2-57.7-24.5-9.1-49.7-15.6-74.9-22.5-128.7-35-261.7-43.2-393.3-20.4-.6-11.6-3.5-23.3-5.8-34.7,9-.5,18.9-1.4,27.1-5.4,10-4.9,13.4-13.4,16.8-23.2l1-1.4c.5-11.1.2-19.8-4.9-29.8-13.7-27.1-41.7-41.6-69.1-51,79-9.7,164.3-8,243.2,1.8,2.3.4,7,.6,8.8,1.8l96.9,16c44,6.7,93.3,19.2,135,34.9,52.6,16.2,103.7,36.6,152.3,62.6,14.3,7.6,29.7,15,42.7,24.8l96.6,61.9,119.1,105.5,209.5,248.6,20.8,18.4c54.9,34.5,119.8,56.4,185.1,41.2,17.7-4.1,55.4-17.6,66.5-32.9l1.9-.8c14.5-6.7,25.8-19.5,35.3-32,23.9-31.6,36.2-62.8,49.3-99.9,7.3-21.5,10.5-50.5,10-73.1-.2-9.7-1.5-19.2-1.4-29-4.6-36.3-17.7-68.8-26.7-103.9l10.9-43.6c3.1-12.2,7.2-23.7,13.4-34.6l-.4-1-35.9-59.9v-1.7c-7.2-7.3-11.5-20.2-15.6-29.5-15.2-34.6-27-69.9-38.2-106-4.9-1.4-9.2-3.5-13.5-6.2-20.6-13-31.8-32.2-37-55.4,9.1-12.8,22.1-18.7,36.6-23.2v-111.3c-1-10.3,2.2-23.4,4-33.8,6.7-38.9,16.4-85.4,37.8-119l-.3-1.2,74.2-105.1-.4-2.6c-3.8-11.3-2.1-21.2,2.1-32.1l.8-.6c10.7-4.9,21.1-8.7,32.5-12l24.3-12.2c.9-5.2,10.1-11.3,14.1-14.7l37.2-33.1c10.8-1.3,21-3.2,31.2-7.2,14.5-5.6,25.7-11.5,32.2-26,30.5-16.4,64.1-32.1,96.6-44.6l43.7-15.6c9.6-3.3,17.6-4,24.4-11.9Z"/>
  <path class="st32" d="M3185.4,393.9c3.1,7.2,4.2,11.2,2.6,19.2-2.7,13.7-7.8,24.2-19.6,32.5-9.3,6.5-21.3,9.5-32.5,7.2-4.8-.9-8.7-2.9-12.6-5.7,10.3,2.2,19.1,4,28.9-1.2,12.2-6.4,24.6-19.3,28.8-32.7,1.8-5.8,2.2-11.8,4.1-17.7l.5-1.6Z"/>
  <path class="st31" d="M2781.9,1547.2c-21.1-11.7-41.1-38.7-56.4-57.6,12.6,1.4,21.1,13.5,32.8,16.1l1,.2c3.9,7.6,9.3,20.1,15.3,25.8l7.2,15.5Z"/>
  <path class="st31" d="M2904,1572.1l9.8.9c22.6,5.2,39.4,15.4,57,30.2-20.7,2.8-44.9,2.8-65.4-1.6,1.2-9.8-.4-19.8-1.4-29.5Z"/>
  <path class="st32" d="M2784.8,1549.6c26.7,18.2,53.6,34.6,84.8,43.7,11.6,3.4,24.5,4.6,35.8,8.4-1.9,4.7-5.7,9.6-9.9,12.5-9.7,6.7-25.7,5.9-36.6,3.5-35.6-7.6-56-39.4-74-68.1Z"/>
  <path class="st28" d="M2774.7,1531.7c20.9,12.2,42.5,23.6,65.9,30.3,21,6,41.9,8,63.5,10.1,1,9.7,2.6,19.8,1.4,29.5-11.3-3.9-24.2-5-35.8-8.4-31.2-9.1-58.1-25.5-84.8-43.7l-2.9-2.4-7.2-15.5Z"/>
  <path class="st19" d="M3151.6,394.4l24.3-12.2c3.2,3.5,7.6,7.3,9.6,11.7l-.5,1.6c-1.9,5.9-2.2,11.9-4.1,17.7-4.2,13.4-16.5,26.3-28.8,32.7-9.8,5.2-18.6,3.4-28.9,1.2l-6.5-5.4-.4-2.6c-3.8-11.3-2.1-21.2,2.1-32.1l.8-.6c10.7-4.9,21.1-8.7,32.5-12Z"/>
  <path class="st30" d="M3151.6,394.4c-14.5,14.2-26.3,26.3-35.3,44.7-3.8-11.3-2.1-21.2,2.1-32.1l.8-.6c10.7-4.9,21.1-8.7,32.5-12Z"/>
  <path class="st32" d="M3085.4,1544.9h1c6.3,18.5,6,36.4-2.4,54.2-5.3,11.1-16,19.7-27.4,23.7-20.7,7.2-46.8,1.3-65.8-8.3-6.4-3.2-13.1-6.9-18.8-11.2,43.3-9.1,83.1-25.8,113.5-58.4Z"/>
  <path class="st32" d="M3042.8,548c14.7,16.1,20.8,36.5,20,58.3-1.1,28.8-12.1,60.2-33.8,80-8.1,7.4-16.8,12.8-27.9,14.6-1.1-10.3,2.1-23.4,3.9-33.8,6.7-38.9,16.4-85.4,37.8-119Z"/>
  <path class="st25" d="M2314.7,1069.1l96.6,61.9c-4.2,23-3.2,39.4,6.6,60.8l-2.1,2.2c-1.5.4-3,1.2-4.6,1.1-.2,0-3.2-2.6-3.4-2.8l-40.6-33.2c-14.9-11-34.4-24.6-51.5-31.3-5.5-2.1-9.9-5.6-14.7-9,4.6-.3,9.4-1.5,13.5-3.7,6.1-3.3,11-9.7,12.3-16.5,2.1-11.4-5.7-21-12.1-29.5Z"/>
  <path class="st28" d="M2913.8,1573c51.6-9.4,88.9-28.3,131.2-59,14.6,4.3,29.2,8.9,37.1,23.2,1.3,2.4,2.6,5,3.3,7.7-30.4,32.7-70.2,49.3-113.5,58.4h-1.1c-17.6-14.9-34.4-25.2-57-30.3Z"/>
  <path class="st25" d="M1984.7,946.9c44,6.7,93.3,19.2,135,34.9-11.7,1.2-24.6,2.7-32.3,12.8-4.4,5.8-5.4,12.5-4,19.6,3.4,18.2,14.9,28.5,27.6,40.7-22.2-2.9-46.4-14.1-68.5-19.8l-54.7-13.2c-7.8-1.8-16.8-2.4-24.3-5-2.6-.9-4.8-2.9-6.6-5,11.2-1.3,22.5-2.1,32.6-7.5,6.9-3.6,11.5-8.7,13.7-16.2,3-10.3-1.1-17.7-5.8-26.6-3.5-5.4-8.4-10-12.7-14.7Z"/>
  <path class="st32" d="M3108.9,1373.4c-10.5,51.3-28.5,93.2-58.7,136.2l-5.3,4.5c-42.3,30.6-79.6,49.6-131.2,59l-9.8-.9c-21.6-2.1-42.5-4-63.5-10.1-23.4-6.8-44.9-18.1-65.9-30.3-6-5.7-11.4-18.2-15.3-25.8l1.3-2.4c54.9,34.5,119.8,56.4,185.1,41.2,17.7-4.1,55.4-17.6,66.5-32.9l1.9-.8c14.5-6.7,25.8-19.5,35.3-32,23.9-31.6,36.2-62.8,49.3-99.9l10.2-5.6Z"/>
  <path class="st28" d="M1878.9,929.1c2.3.4,7,.6,8.8,1.8l96.9,16c4.3,4.7,9.2,9.4,12.7,14.7,4.7,8.9,8.8,16.3,5.8,26.6-2.2,7.5-6.8,12.6-13.7,16.2-10.1,5.3-21.4,6.2-32.6,7.5l-23.3-3.5c-23.6-7.5-47.3-16.2-62.5-37-4.4-5.9-10-17.3-8.4-24.6,1.8-8.6,9.6-13.1,16.3-17.7Z"/>
  <path class="st19" d="M1887.7,930.9l96.9,16c4.3,4.7,9.2,9.4,12.7,14.7l-81.5-19.1c-6.3-1.6-20.8-3.9-25.6-7.8-1.2-.9-1.7-2.5-2.5-3.8Z"/>
  <path class="st14" d="M3278.3,413.7c16.1-20.2,39.2-38.6,59.9-53.9,69.5-51.3,150.2-83.6,232.6-107.6,9.1-2.6,25.9-10.6,34.5-9.3-8.5,11-21,16.2-33.1,22.4l-67.7,32.4c-20.5,9.9-40.8,20.6-60.1,32.6-41.5,25.8-78.2,60.6-108.1,99.1-6.9-8.7-14.4-15.5-23.8-21.4-12.7-.7-22.5.5-34.2,5.7Z"/>
  <path class="st28" d="M3177.2,1303.5c-1.2,70.1-18.6,127.4-52.1,188.3l-38.8,53.2h-1c-.7-2.7-1.9-5.2-3.3-7.7-7.9-14.3-22.5-18.9-37.1-23.2l5.3-4.5c30.2-42.9,48.1-84.8,58.7-136.2,9.5-6.7,20.2-13.3,28.5-21.4,14.7-14.4,26.2-32.9,39.8-48.5Z"/>
  <path class="st31" d="M3125.2,1491.8l-38.8,53.2h-1c-.7-2.7-1.9-5.2-3.3-7.7-7.9-14.3-22.5-18.9-37.1-23.2l5.3-4.5c25.6-9.2,47.7-15.6,74.9-17.8Z"/>
  <path class="st32" d="M3178.6,1301.4c8.8-7.2,21.3-15.9,33.5-15.2,13.2.8,28.2,10.2,36.1,20.5,12.4,16.2,16.6,38.3,13.6,58.3-6.1,40.2-33.4,77.1-65.8,100.5-20.9,15.1-45.3,23.4-70.8,26.3,33.5-60.9,50.9-118.2,52.1-188.3l1.4-2.1Z"/>
  <path class="st32" d="M2411.3,1131l119.1,105.5,209.5,248.6c-10.4.2-24.7,1.3-34.3-3.2-34.2-16.3-58.3-58.9-70.1-93.5-3,3-3.6,4.7-8,4.7-11.3.2-22.9-6.8-31-14.2-15.7-14.5-28.5-35.1-36.2-54.8-9.9-25.6-17.8-59.9-37.7-79.7-4.6,3.2-11.4,4.2-16.9,3.4-35.4-4.7-67.5-27.9-87.8-56.1-9.8-21.3-10.9-37.8-6.6-60.8Z"/>
  <path class="st25" d="M1635.7,927.3c79-9.7,164.3-8,243.2,1.8-6.7,4.6-14.5,9-16.3,17.7-1.5,7.3,4.1,18.7,8.4,24.6,15.3,20.8,38.9,29.5,62.5,37-11.6,4.4-27.3.9-39.6-.4l-60.1-5.1c-41.8-1.7-82.5.6-124.1,5.2.5-11.1.2-19.8-4.9-29.8-13.7-27.1-41.7-41.6-69.1-51Z"/>
  <path class="st32" d="M3002.1,812.2c17.7-4.2,31.4-1.1,46.7,8.5,27.1,17,46.9,45.7,53.8,76.9,9.6,43.7-2.5,89.5-27,126.3-2,2.9-4.3,6.2-6.9,8.5-7.2-7.3-11.5-20.2-15.6-29.5-15.2-34.6-27-69.9-38.2-106-4.9-1.4-9.2-3.5-13.5-6.2-20.6-13-31.8-32.2-37-55.4,9.1-12.8,22.1-18.7,36.6-23.2l1.1.2Z"/>
  <path class="st30" d="M3001,812.1l1.1.2c1.1,28.2,6.5,57.2,12.8,84.7-4.9-1.4-9.2-3.5-13.5-6.2-20.6-13-31.8-32.2-37-55.4,9.1-12.8,22.1-18.7,36.6-23.2Z"/>
  <path class="st19" d="M2111,1054.9c-12.7-12.2-24.2-22.5-27.6-40.7-1.3-7.1-.4-13.8,4-19.6,7.7-10.1,20.6-11.7,32.3-12.8,52.6,16.2,103.7,36.6,152.3,62.6,14.3,7.6,29.7,15,42.7,24.8,6.3,8.5,14.2,18.1,12.1,29.5-1.3,6.9-6.2,13.2-12.3,16.5-4.1,2.2-8.9,3.4-13.5,3.7-37-.6-71.6-12.4-105.8-25.4-29.2-11.2-57.1-22.9-84.2-38.5Z"/>
  <path class="st28" d="M2096,996.4c2.1-.5,4-.8,6.1-.9,20.9-1.3,41.8,5.4,61.2,12.6,34.1,12.6,67.1,29.6,98.8,47.3,13.8,7.7,30.2,15.1,41.7,26.1,5.4,5.2,5,8.8,5.1,15.7-3.3,4.9-4.9,4.7-10.3,6.6l-3.5.4c-13.6.9-27-2.2-40.2-5-32-6.9-63.6-18.2-94.1-30.2-20.3-8-42.6-15.5-59-30.4-9.5-8.6-15.9-18.1-16.5-31.2,3.5-6.9,3.9-7.4,10.8-11Z"/>
  <path class="st19" d="M3104.5,1093.9c10.4-15.8,20.6-31,40.3-35.3,15.5-3.4,33.2.6,46.4,9.1,15,9.7,25.3,25.4,28.8,42.9,6.6,33.4-7.1,67-26.2,93.9-6.2,8.7-15.3,19.2-24.5,24.5l-.4,1.3c-25.7,13.4-43,23.8-61.5,46.8-4.6-36.3-17.7-68.8-26.7-103.9l10.9-43.6c3.1-12.2,7.2-23.7,13.4-34.6l-.4-1Z"/>
  <path class="st30" d="M3091.5,1129.5c3.1-12.2,7.2-23.7,13.4-34.6,22.3,26.1,39,66.8,51,98.7,3.8,10.1,6.9,27.1,13.4,35.3l-.4,1.3c-25.7,13.4-43,23.8-61.5,46.8-4.6-36.3-17.7-68.8-26.7-103.9l10.9-43.6Z"/>
  <path class="st3" d="M1335,662.7l37-14.5c57.1-19.3,106-20.3,160.7,6.8,30.9,65.7,49.4,137.1,55.4,209.4l2.3,44.1c0,7.5-1.4,16.8-.1,24.1l1.6.7,43.7-6c27.4,9.4,55.4,23.9,69.1,51,5.1,10.1,5.4,18.7,4.9,29.8l-1,1.4c-3.4,9.9-6.8,18.3-16.8,23.2-8.2,4-18.1,5-27.1,5.4,2.3,11.4,5.2,23.1,5.8,34.7h-1.6c5.2,9-2.4,36.1-5,46-19.4,74-85.9,135.4-150.1,172.4-4.4,2.5-8.2,4.6-11.7,8.3l-.8-.4c-16.9,6.8-33.1,16.9-49.6,24.9l-90.4,39.4-68.7,26.4c-12.5,4.5-33.1,7.8-42.8,15.9,1.1,3.7,2.3,6.9,4,10.4l-3,1.7-3.6-6.6-3.6-8.1c-10.6-19.5-19.2-36.7-33.4-54.2-27.5-26.8-50.7-42-88.1-50.8,11-5.2,24.3-5.1,35.8-9.9-138.2,18.2-277.4,28.5-416.6,13.7-49.3-6.4-98.6-12.5-147.3-23.1-95.5-20.7-192.6-56.4-275.4-108.8-19.4-12.3-42-24.8-58.2-40.9-1.7-1-3.2-1.8-4.8-3.1-51.9-41.7-103.1-108.4-107.3-176.9-3.9-63.9,40.4-125.3,80.5-170.9l5.7-2.9c3.1,19.2,7.7,38.1,16.4,55.6l7.8,14.7c17.1,4.7,30.9,6.7,48.4,2.3,41.7-8.7,78.2-27.2,122.1-23.5,65.5,5.4,121,49,184.1,64.6,77.6,19.1,159,7.8,237.6,21,41.5,6.9,79.9,22.2,115,45.2,33,21.6,66.1,47.4,103.9,59.9,22.1,7.3,46.3,9.9,69.4,11.7,16.4,1.3,35.9,3.6,52.1.2l2.6-.6c59.2-3,115.7-9,157.8-55.3,19.4-1,40.7-.3,59.2,6.2-4.8-11.1-3.3-61.4-1.4-75.3.9-6.6-.2-14.9,3.2-20.7,5.3-3.3,1.6-7.8,3.9-13.2,4.8-10.9,2.4-35.6,1.8-47.8-2.8-63.3-38.7-116.3-83.8-157.6Z"/>
  <path class="st22" d="M1158.2,1288.2c1.3-1.2,2-.8,3.7-.8,25-.9,49.6-8,73.7-14.4,36.8-9.7,71.7-22.2,107.6-34.6,36.4-12.5,65.6-32.7,97.9-52.4,7.8-4.8,15.2-11.7,22.4-17.4,4.7,4.6-.4,16.7,2.8,23.1l.9,1.7-1.8,2.7c-.2,3.2-.4,5.6.9,8.6,1.3,3,1.3,5.8,1.5,9.1v1.7c0,0,3.5-.6,3.5-.6,5.8,31.8,14.4,56.4,30.2,84.4-16.9,6.8-33.1,16.9-49.6,24.9l-90.4,39.4-68.7,26.4c-12.5,4.5-33.1,7.8-42.8,15.9,1.1,3.7,2.3,6.9,4,10.4l-3,1.7-3.6-6.6-3.6-8.1c-10.6-19.5-19.2-36.7-33.4-54.2-27.5-26.8-50.7-42-88.1-50.8,11-5.2,24.3-5.1,35.8-9.9Z"/>
  <path class="st14" d="M1592,933.3l43.7-6c27.4,9.4,55.4,23.9,69.1,51,5.1,10.1,5.4,18.7,4.9,29.8l-1,1.4c-3.4,9.9-6.8,18.3-16.8,23.2-8.2,4-18.1,5-27.1,5.4,2.3,11.4,5.2,23.1,5.8,34.7h-1.6c5.2,9-2.4,36.1-5,46-19.4,74-85.9,135.4-150.1,172.4-4.4,2.5-8.2,4.6-11.7,8.3l-.8-.4c-15.7-28.1-24.4-52.7-30.2-84.4.9-4.3-.6-11-.8-15.6v-28.1c0-1.3-.4-7.1.2-8.1,2.1-3.8,10.3-9.7,13.6-13,9.6-9.4,18.7-19.2,27.3-29.6,34-41,57.5-88.8,70-140.5,3.8-15.6,5.4-31.6,8.9-47.3l1.6.7Z"/>
  <path class="st8" d="M1627.6,1018.3c12.3,11.9,20.4,16.3,37.2,19.9,2.3,11.4,5.2,23.1,5.8,34.7h-1.6c-6,2.1-11.6,4.4-17.1,7.4-5.7,3.1-7,5.4-8.7,11.4-4-10-3.8-22.6-5.9-33.2l-9.7-40.1Z"/>
  <path class="st28" d="M1592,933.3l43.7-6c27.4,9.4,55.4,23.9,69.1,51,5.1,10.1,5.4,18.7,4.9,29.8l-1,1.4c-3.4,9.9-6.8,18.3-16.8,23.2-8.2,4-18.1,5-27.1,5.4-16.8-3.6-24.9-8-37.2-19.9l-20.9-59.9-14.7-25.1Z"/>
  <path class="st19" d="M1606.7,958.5c8.5,10,19.5,20.5,25.9,31.9,5,9,7.9,19,12.7,28.1l63.5-8.9c-3.4,9.9-6.8,18.3-16.8,23.2-8.2,4-18.1,5-27.1,5.4-16.8-3.6-24.9-8-37.2-19.9l-20.9-59.9Z"/>
  <path class="st18" d="M1411.2,977.3l3.9-2.1,16.4-69.2c5.8-27.4,9.9-83.8,36.8-99.2,3.1-1.8,8.6-1.8,12-1,18.8,4.5,34.4,29.2,42.8,45.1,24.1,45.1,33.3,99.4,17.9,148.8-26.3,84.4-87.1,140.6-163.4,180-42.4,21.9-87.2,37-132.8,50.5-84.2,24.8-171.2,37.5-258.6,43.3-157.2,10.5-321.9-2.1-472.5-50.2-81.1-25.9-154.6-62.3-226.6-107.5l-29-24.1,1.4.4c13.5,3.5,26.5,9.1,39.9,13.2,27.4,8.4,54.4,15.2,82.7,20,12,2.1,24.4,5.1,36.6,4.2,78.4,46.7,159.1,67.2,250.3,67.9,66.4-4.5,123.7-14.5,180.1-52.3l2.9.7c22.5,4.2,49.5,3.1,72.4,4.2,105,5.1,210.7,2.3,313.9-19.2,43.6-9.1,89-20.7,127.2-44.3,16.3-10,31.8-27.6,39.7-45,3.5-7.7,5.1-16,8.3-23.8l.7-1.5c2.1-11.8,2.6-22.4,2.3-34.3l-5.4-4.5Z"/>
  <path class="st23" d="M1414.3,1016.1l2.3,1.7,1.2-2.2,4,31.2c2.3,12.4,4.2,38.8.2,50.9-.5,1.5-.6,2.8-.7,4.4-.8,9.2-5.5,20.2-12.8,26.1-7.3,6-15.4,9-23.8,12.9-21.2,9.8-43.8,17.6-65.9,25.1-166.3,56.2-342.8,77.4-517.6,56l-88.6-13.3c-12.3-1.9-34.2-3.5-43.5-11.7,66.4-4.5,123.7-14.5,180.1-52.3l2.9.7c22.5,4.2,49.5,3.1,72.4,4.2,105,5.1,210.7,2.3,313.9-19.2,43.6-9.1,89-20.7,127.2-44.3,16.3-10,31.8-27.6,39.7-45,3.5-7.7,5.1-16,8.3-23.8l.7-1.5Z"/>
  <path class="st20" d="M172.3,955.6c-7.1-56.4,20-100.8,52.8-143.5l1.4.2c6,15.8,15.2,25.2,30.5,32.4l2.1,1c17.1,4.7,30.9,6.7,48.4,2.3,41.7-8.7,78.2-27.2,122.1-23.5,65.5,5.4,121,49,184.1,64.6,77.6,19.1,159,7.8,237.6,21,41.5,6.9,79.9,22.2,115,45.2,33,21.6,66.1,47.4,103.9,59.9,22.1,7.3,46.3,9.9,69.4,11.7,16.4,1.3,35.9,3.6,52.1.2l2.6-.6c59.2-3,115.7-9,157.8-55.3,19.4-1,40.7-.3,59.2,6.2l5.4,4.5c.2,11.9-.3,22.6-2.3,34.3l-.7,1.5c-3.3,7.7-4.8,16.1-8.3,23.8-7.9,17.4-23.4,35-39.7,45-38.3,23.5-83.6,35.2-127.2,44.3-103.2,21.5-208.9,24.4-313.9,19.2-22.9-1.1-49.9,0-72.4-4.2l-2.9-.7c-56.5,37.8-113.7,47.8-180.1,52.3-91.2-.7-171.9-21.2-250.3-67.9-12.2.9-24.6-2.1-36.6-4.2-28.3-4.9-55.3-11.7-82.7-20-13.4-4.1-26.4-9.7-39.9-13.2l-1.4-.4c-42.3-33.7-76-82.5-85.9-136Z"/>
  <path class="st21" d="M390.3,932.3c2-.5,3.8-.7,5.8-.8,6.3,7.7,13.4,15.5,18.6,24,6.7,11,15.6,39.2,12.5,52.3l-5.9-4.5-46.2-39.4c3.5-13.6,3.7-21.7,15.1-31.6Z"/>
  <path class="st21" d="M767.8,1004.9c29,1.3,44.9,10.7,66.3,30.5l-54.9,12.8-54.6,14.8c2.5-13.1,6.8-26.2,13.4-37.7,7.1-12.4,16.5-16.8,29.8-20.3Z"/>
  <path class="st21" d="M354.3,1070.2l-11.8-22.5c33.6,40.5,81.2,64.9,129.6,83.5,50.5,19.3,102.2,32.2,156.1,37.1,62.4,5.6,133.2,2.4,192.6-18.2,18.1-6.3,34.7-15.2,51.5-24.2l-23.1,19.1c-56.5,37.8-113.7,47.8-180.1,52.3-91.2-.7-171.9-21.2-250.3-67.9-24.9-17.1-45.3-35.7-64.4-59.1Z"/>
  <path class="st23" d="M172.3,955.6c26.9,12.1,52.4,25.1,77,41.6,15.3,10.2,94.1,73.9,105,73.1,19.2,23.4,39.5,42,64.4,59.1-12.2.9-24.6-2.1-36.6-4.2-28.3-4.9-55.3-11.7-82.7-20-13.4-4.1-26.4-9.7-39.9-13.2l-1.4-.4c-42.3-33.7-76-82.5-85.9-136Z"/>
  <path class="st32" d="M688,324.2c142.4-43.1,302.5-41.6,444.6,2.9,20.9,6.5,44.7,12.9,64.3,22.8,1.2.6,1.5.9,2.5,1.6,4.1,7.7,11.1,12.4,17.6,18l33,29.8c13.6,13.5,26.6,28.8,38.3,43.9l3.8,1.8c26.4,35.9,62.3,80.1,54.7,127.6-4.6,28.5-27,48.4-48.9,64.7l37.1,25.4c45.1,41.2,81,94.3,83.8,157.6.5,12.2,2.9,36.9-1.8,47.8-2.4,5.4,1.4,9.9-3.9,13.2-3.4,5.8-2.4,14.1-3.2,20.7-1.8,13.8-3.4,64.1,1.4,75.3-18.5-6.5-39.8-7.2-59.2-6.2-42.1,46.3-98.6,52.4-157.8,55.3l-2.6.6c-16.1,3.4-35.7,1-52.1-.2-23.2-1.8-47.3-4.4-69.4-11.7-37.8-12.5-70.9-38.3-103.9-59.9-35.1-23-73.5-38.3-115-45.2-78.5-13.1-160-1.8-237.6-21-63-15.6-118.6-59.1-184.1-64.6-43.9-3.6-80.4,14.8-122.1,23.5-17.4,4.4-31.3,2.4-48.4-2.3l-7.8-14.7c-8.7-17.5-13.3-36.4-16.4-55.6l-5.7,2.9c-11.1-29.6-16.8-64.9-16.4-96.5.6-46.6,21.6-91.4,55.3-123.5,19.8-18.8,51-37.8,79.4-36.6,17.1.7,26.5,9.5,37.5,21.7l36.2-43.8.7-.8c30.8-39.2,72.5-83.4,114.6-110.3,24.2-15.5,51.3-27.4,77.5-39.1,22.3-10,49.8-22,74-25Z"/>
  <path class="st2" d="M1204.7,614.7c35,1.2,61.3,8.4,93.1,22.6l37.1,25.4c45.1,41.2,81,94.3,83.8,157.6.5,12.2,2.9,36.9-1.8,47.8-2.4,5.4,1.4,9.9-3.9,13.2,2.9-44.9-1.8-88.9-26.1-128.2-12-26.6-34.8-56.6-57.3-75.3-41-34-87-50.4-140.4-45.3-62.3,5.9-113.2,41.7-151.9,88.5-31.5,33.6-42.8,76.6-51.8,120.1-.3-4.9-.8-9.9-.4-14.8,4.9-58.8,40.1-116.1,84.4-154,13-11.1,27.9-19.3,40.9-30.2l1.1-.9c31.9-14.2,58.2-23,93.3-26.5Z"/>
  <path class="st4" d="M229.1,778.2c-11.1-29.6-16.8-64.9-16.4-96.5.6-46.6,21.6-91.4,55.3-123.5,19.8-18.8,51-37.8,79.4-36.6,17.1.7,26.5,9.5,37.5,21.7,11.6,27.3,17.8,52.7,18,82.3,0,5,.9,12.5-.4,17.3l-.9,1.8c-2.2-2.9-2.9-4.4-4.2-7.8-.6-1.6-4.7-8.5-6.1-9.1-16.8-16.8-23.6-55.2-46.9-64.5-25.6-10.2-60.5,13.6-78.5,29.2-6,5.2-14.4,15.9-21.6,18.7l-2,.7c-14.2,20-21.2,57.2-17.8,81.6l.7,4c3,17-.2,35.2,2.4,52.5,1.3,8.5,0,13.5,3.7,22,.8-3.9,0-5.7-1.3-9.3-1.2-3,0-7.1,0-10.3.1-9.6.3-19.4-.5-28.9,5-5-.6-15,4.6-22-.5-2.8-1.5-5.4,0-8l4.5-5.8c-5,29.3-5.7,58-3.7,87.5l-5.7,2.9Z"/>
  <path class="st28" d="M242.3,612c17.8-34.3,50.4-65.5,88.1-76.7,7.1-2.1,18-2.6,24.8.8,15.5,7.8,25.2,34.6,29.6,50.2,3.8,13.6,5,27.6,6.6,41.6-16.8-16.8-23.6-55.2-46.9-64.5-25.6-10.2-60.5,13.6-78.5,29.2-6,5.2-14.4,15.9-21.6,18.7l-2,.7Z"/>
  <path class="st28" d="M1037.3,721c38.6-46.8,89.6-82.6,151.9-88.5,53.4-5.1,99.4,11.3,140.4,45.3,22.5,18.7,45.3,48.8,57.3,75.3-8-1.7-24.5-23-31.7-29.3-42.5-37.1-100.4-67.6-158.1-63.3-52.2,3.9-105.5,39-140.7,76.2-13.5,14.3-24.6,30.1-37.4,44.9,4-20.9,12.5-38.9,17.9-59l.4-1.7Z"/>
  <path class="st28" d="M845.9,333.3c19.9-2.7,44-1.1,64,0,44.6,2.6,88.1,8.9,131.6,19.2,16.7,4,34,7.6,50.1,13.6l-83.1,1.3c-78.9,3-156.9,17.6-229.3,49.4-32.7,14-69.3,31.5-96.6,54.6-13.4,11.3-25.3,30.6-40.3,38.5-1.6-.7-2.9-1.3-4.2-2.6-4.9-4.9-8.3-15.8-8.7-22.7-1.7-25.1,12.3-56.2,28.5-75.2,45.4-53.2,121.2-71.9,188-76.3Z"/>
  <path class="st15" d="M242.1,676.9c5.8-25.6,21.6-55.8,44.4-70.2,11.5-7.3,29.1-11.2,42.5-7.9,13.9,3.4,25.5,14.9,32.4,26.9,18.9,32.8,16.4,82.1,6.3,117.4-11.2,39.2-28.8,77.8-60.3,104.9-17.4,4.4-31.3,2.4-48.4-2.3l-7.8-14.7c-8.7-17.5-13.3-36.4-16.4-55.6-2-29.6-1.3-58.3,3.7-87.5l3.5-10.9Z"/>
  <path class="st13" d="M342.6,747.3c3.1,0,3.8,1.4,6.1,3.2,0,6.4,0,6.7-3.9,11.8h-5.2c0-.1-2.7-4-2.7-4,1.2-5.9,1.5-6.7,5.7-11Z"/>
  <path class="st0" d="M242.1,676.9c3.1,6.7-.4,13.5-2.1,20.7-4.6,19.4-5,45.1-3.6,64.9,5.4-9.2-2-25.8,1.4-35.3,3.6-10.3,1.7-22.1,5.5-33,.9-2.6.8-5.5,1.8-8.2,1.9-.3,1-.4,2.6.4-6.8,32.3-9.4,65.7-3.7,98.5,1.2,6.8,1.8,15.1,5.1,21.2l4.1,15.5-1.8,9.4c-8.7-17.5-13.3-36.4-16.4-55.6-2-29.6-1.3-58.3,3.7-87.5l3.5-10.9Z"/>
  <path class="st7" d="M247.6,686.3c10.6-21.7,18.8-50.1,41.5-62.3,12.2-6.6,30-9.4,43.4-5.4,7,2.1,9.5,5.7,12.8,12l5.4,7.4c4.4,5.9,5.7,11.9,4.7,19.1-1.4,10.8-11,19.7-19.4,25.7-4.5,3.3-16.9,6.9-19.6,10.1-5.9.2-11.7.6-17.5,0-11,11.1-13.3,41.4-13.3,57,0,17.2,3.3,33.2,9.9,49.1,6.8,10.6,13.3,19.6,22.8,27.8-12.8,9.7-22.2,16.1-38.9,14-7.2-.9-16.3-3.4-21-9.4-2.3-2.9-4-6.7-5.6-10l-4.1-15.5c-3.3-6.1-3.9-14.4-5.1-21.2-5.7-32.8-3-66.2,3.7-98.5Z"/>
  <path class="st1" d="M300.1,629.9c2.6-1.5,5.4-2.6,8.2-3.6,14.3-4.8,23.9-2.3,37,4.3l5.4,7.4c4.4,5.9,5.7,11.9,4.7,19.1-1.4,10.8-11,19.7-19.4,25.7-4.5,3.3-16.9,6.9-19.6,10.1-10.8-.8-20.4-1.4-28-10-5.6-6.3-7.3-13.2-6.6-21.5,1.2-13.6,8-23,18.1-31.7Z"/>
  <path class="st13" d="M308.5,633c12.7-2.7,20.5-2.4,32.2,3.5l3.6,7.4-3.2,3.8c-6.6,0-13.5-.2-20.1.4-7.5.8-13.1,3.3-20.2.4l-2.2-5.6c2.6-5.5,5.1-6.7,10-10Z"/>
  <path class="st25" d="M421.2,499.5l.7-.8c30.8-39.2,72.5-83.4,114.6-110.3,24.2-15.5,51.3-27.4,77.5-39.1,22.3-10,49.8-22,74-25-64.9,65.1-104.2,145.2-115.1,236.9-3.5,29.3-3.5,64.5-14.5,92-5.8,14.5-18.2,26.8-34.7,26.6-12.5-.1-24.2-7.9-32.4-16.7-13.1-13.9-22.2-31.3-30.2-48.5-17.5-37.5-27.4-75.8-39.9-115Z"/>
  <path class="st31" d="M562.7,417.7l1.2-.4c3.5-.7,7.2.1,10.2,2.2,3.1,2.1,5.2,6.6,5.8,10.3,2.7,16.9-23.6,54.8-34.1,67.8-12.4,15.3-23.7,23-43.4,25.3-2.5,0-4.6-.2-6.9-1.1-5.7-2.3-10-6.6-12.1-12.5-3-8.6,1.4-21.3,5.3-29.3,13.7-28.5,44.7-51.9,74.1-62.3Z"/>
  <path class="st6" d="M1194.2,1026.4c-30.9-4.8-60.7-9.8-88-26.3-36.9-22.3-62.7-57.5-72.8-99.5-9.7-40-4.5-79.8,17.5-115,21.8-34.8,58.1-61.6,98.2-70.8,50.1-11.5,101.6-5.9,145.4,21.9,41.1,26.1,71.4,71.7,81.4,119.3,8.8,42.3-.1,79.4-23.8,115-42.1,46.3-98.6,52.4-157.8,55.3Z"/>
  <path class="st10" d="M1330.8,873.1l3-3.1c4.4,10.4-.2,22.7,3,33.7l-1.2,3c9.7,0,18.4-2.1,28.1-1.8l.6-1.7c.6-1.7,1.3-3.1,2.2-4.6-3.5,30.1-18.5,58.3-42.6,77.1-6.9,5.4-14.5,9.6-22.1,13.7,12.2-23.6,24.3-51.4,29.4-77.4,1.5-7.4,2-19.9-2.5-26.3l-.8-1-1.1-1.7-.7-1,3.9-7.2.7-1.6Z"/>
  <path class="st10" d="M1052.7,911.4c-8.3-27.8-6.3-60.2,2.8-87.5,7-21.2,19.5-43.9,40.1-54.1-6.1,18.3-8.9,31.5.2,49.5,2.5,4.9,6.1,9.9,9.9,13.8-8.3,11-5.1,38.9-3.2,52.1l5.3,21.6c-14.7.9-39.3-1.6-52.3,3.5l-1.7.6-1,.4Z"/>
  <path class="st33" d="M1281,876.8l3.2-7.5c3.7-2,16.9,1.6,21.1,2.6,9,2.1,16.4,1.8,25.6,1.2l-.7,1.6-3.9,7.2.7,1,1.1,1.7.8,1c4.5,6.5,4,19,2.5,26.3-5.1,26-17.2,53.8-29.4,77.4-7.8,4.7-16.6,8.5-25.2,11.5-45.7,16-112.3,17.3-156.3-4.4-36.6-18-55.1-47.6-67.7-85l1-.4,1.7-.6c13-5.2,37.6-2.6,52.3-3.5,3.2,14.4,14.4,31.4,23.1,43.4,12.5,17,30.7,34.2,52.3,37.2,15.9,2.2,33.3-4.4,45.8-14,28.2-21.5,47.3-62.4,52.1-96.7Z"/>
  <path class="st15" d="M1177.4,739.4c10.8-4.6,25.2.6,35.7,4.8,28.7,11.6,46.2,32.7,58.1,60.6,9.7,22.9,10.4,47.4,9.8,71.9-4.8,34.3-23.8,75.2-52.1,96.7-12.5,9.5-29.9,16.2-45.8,14-21.6-3-39.8-20.2-52.3-37.2-8.7-11.9-19.9-28.9-23.1-43.4l-5.3-21.6c-1.9-13.2-5.1-41.1,3.2-52.1-3.9-3.9-7.5-8.9-9.9-13.8-9-18-6.2-31.3-.2-49.5l11-10.9c20.7-17.7,44.6-21.8,70.8-19.5Z"/>
  <path class="st13" d="M1224.8,877.4l4.4.2c4.8,3.3,4.9,3.3,6.3,9-1.8,5.4-2.1,6.4-6.3,10l-6.4-.4c-3.8-4.1-4.4-5.1-5.7-10.5,2.1-5.3,3-5.3,7.7-8.2Z"/>
  <path class="st13" d="M1095.6,769.8l11-10.9c20.7-17.7,44.6-21.8,70.8-19.5,13.8,6.2,25.3,13.4,31.3,28,4.4,10.8,1.7,24.2-3,34.4-8.7,19.2-28.3,36-48,42.9-11.5,4.1-25.5,3.7-36.4-1.9l-15.5-9.8c-3.9-3.9-7.5-8.9-9.9-13.8-9-18-6.2-31.3-.2-49.5Z"/>
  <path class="st25" d="M1075.8,652.2c-68.5,37.1-144.1,81.9-225.4,79.1-14.6-.5-32.4-2.9-42.6-14.4-7.2-8-9.1-17.7-8.2-28.2,4.4-55.2,64.3-113.6,104-146.6,75.2-62.5,181.8-98.3,278.7-103.1,35.5-1.8,70.7,1,106,4.3l3.8,1.8c26.4,35.9,62.3,80.1,54.7,127.6-4.6,28.5-27,48.4-48.9,64.7-31.9-14.1-58.1-21.3-93.1-22.6-35,3.5-61.4,12.3-93.3,26.5-12.5,2.4-23.4,8.2-35.6,11Z"/>
  <path class="st8" d="M1075.8,652.2c10.7-11.6,31.9-20.1,46.3-26.2,20.9-8.9,60.5-20.1,82.6-11.3-35,3.5-61.4,12.3-93.3,26.5-12.5,2.4-23.4,8.2-35.6,11Z"/>
  <path class="st5" d="M1670.6,1072.9c131.6-22.8,264.6-14.6,393.3,20.4,25.2,6.9,50.4,13.3,74.9,22.5,42.3,15.8,83.3,36.6,123.2,57.7,35.3,18.8,71.1,39,103.8,62.1,75.2,53.1,136.1,116.1,196,185.3,19.7,22.8,43,48,57.7,74.4-3.1,26.3-8.1,49.3-30.2,66.5-18.3,14.3-46,16.7-68.4,15.6l-12.9-34.9c0,5.3.9,11.6-.9,16.6-3.1,8.7,1.6,28.5,2.4,38.3,3.6,47.5,0,114.1-31.9,152.2-9.9-10.1-18.7-20.7-25.3-33.2-12.7-24-18.7-50.4-34.5-73,1.5,6.8,2.7,13.9,5,20.5,2.8,8.2,1.3,23.5.8,32.2-3.2,66.4-24.9,129.6-55.3,188.3-24.2,46.7-70.1,97.5-113,127.6l27,76.1c5.2,15.3,12,29.4,18.7,44,3.4,7.4,8.3,15.6,8.7,23.9-3,5.6-3.7,6.2-9.3,9.3-17.4.6-35.8-3.2-52.5-8.1-23.8-7-59.7-25-84-16.9-9.6,3.2-18.6,9.5-26.1,16.1-14.8,13-48.7,57.4-69.4,46.4-9.9-10.5-10.3-34.3-10-47.8l.2-2.8,2.4-26.9c-47.3-32.8-134.6-1.3-159.2-19.7-1.4-2.9-2.6-4.5-2.2-7.8.8-6.1,4.9-11.4,8.4-16.3,15.4-22.2,36.8-39.4,57.7-56.2l-26.3-14.8c-15.6-10.8-29.2-28.2-32.5-47.2-2-11.7,0-24.9,6.9-34.7l4.6,1.3c4.9,1.8,9.2,6.5,13.3,9.7,7.6,6,14.9,10.5,24.3,13.2,21.6,6.2,50.2-15.3,68.9-25.4l16.7-6.2c1.9-1,3.8-2,5.6-3.3.4-.3,2.5-2,2.5-2.1,2-4.7-.6-24.3-.5-30.4.3-17.7,1.8-35.3,3.9-52.8l-11.4,1.9c-11.1,1-22.2,4.7-33.1,7.1l-56.6,10.9c-62,11-125.6,14.8-188.5,12.8l3.1-31.5c-.3-4.2.8-9.3,1.3-13.6v-11.2c-10.1-26.9-31.9-40.6-56.4-52.9l.3-2.3-6-.2c-24-.9-45.5,14.6-69.3,13.7-17.6-.6-26.6-12.9-37.7-24.7-16-17-32.5-32.1-57.3-32.3-12.8-.1-22.1,3.8-31.2,12.5h-.9c-5.7,8.4-10.4,16.4-14.2,25.8l-4.8-14.6-7.5-20.5c-13.3-32-25.5-64-33.3-97.9l-8-41.7c-38.6-14.9-71.9-32.5-106.4-55.5l-3.9-2.9c-33.9-26.9-59.4-59.7-79.9-97.5l3-1.7c-1.7-3.4-2.9-6.7-4-10.4,9.7-8.1,30.3-11.4,42.8-15.9l68.7-26.4,90.4-39.4c16.5-8,32.7-18.1,49.6-24.9l.8.4c3.6-3.7,7.3-5.8,11.7-8.3,64.1-37.1,130.7-98.4,150.1-172.4,2.6-9.9,10.2-37.1,5-45.9h1.6Z"/>
  <path class="st34" d="M2233.6,1564.2c2.3-.5,4.9-1.1,7.3-.9,4.2.2,7.4,3.5,10.1,6.4.7,4,1.4,4.4-1.3,7.6-9.2,11.1-22.1,19.9-32,30.7-26.8,29.1-45.7,62.9-64.2,97.6-1.9,3.2-3.4,7.5-7,8.6-2.4-9.8-1.2-22.8,1.4-32.5,11.8-43.9,45.7-94.5,85.6-117.4Z"/>
  <path class="st35" d="M1251.1,1417.8l3-1.7c13.5,21.3,25.9,41.9,42.8,61,39.3,44.6,90.4,68.6,143.7,91.9-.7-38.7.6-74.3,29.4-103.6,7.1-7.3,18.8-14.1,28.6-16.6l1.8,1.8c-24.3,12.1-38.7,25.6-47.5,51.7l-5.1,21.2c-2.6,13.6-2.6,32.5,0,46.1,10.2,54.6,35.6,104.5,61.5,153-5.7,8.4-10.4,16.4-14.2,25.8l-4.8-14.6-7.5-20.5c-13.3-32-25.5-64-33.3-97.9l-8-41.7c-38.6-14.9-71.9-32.5-106.4-55.5l-3.9-2.9c-33.9-26.9-59.4-59.7-79.9-97.5Z"/>
  <path class="st32" d="M2058.6,2152.3l2.4-26.9c-47.3-32.8-134.6-1.3-159.2-19.7-1.4-2.9-2.6-4.5-2.2-7.8.8-6.1,4.9-11.4,8.4-16.3,15.4-22.2,36.8-39.4,57.7-56.2l-26.3-14.8c-15.6-10.8-29.2-28.2-32.5-47.2-2-11.7,0-24.9,6.9-34.7l4.6,1.3c-3.5,5.2-3.7,10-2.2,16.1,3.1,12.4,16.5,27.1,27.4,33.1,28,15.2,62.8,7.6,92.7,4.6l-2.2,1.1c-18.1,9.4-35.6,21.7-52,33.8-31.8,23.3-60.2,46.9-77.3,83.2,20.7-11.8,40.4-24.2,63.8-29.8,17.9-4.3,35.2-5.2,53.5-5.5,14.1-.2,35.6,2.6,48.6-3.4,4.4-2,9.2-7.4,12.8-10.8-9.9,36.2-21.1,66.3-20.1,104.5l-4.8-4.6Z"/>
  <path class="st21" d="M2063.4,2156.9c1.4,12.7,3.4,24,7.2,36.2l1.9-1.3c15.4-10.3,27.4-25.2,38.6-39.8,26.9-35.1,42.3-67.5,50.6-111,6.7,19.3,13.2,36.7,26.2,52.9,23.8,29.6,62.7,47.4,99.9,51.2-17.4-33.8-43.3-59.9-51.2-98.6-1.6-7.8-3.8-30,.6-36.5,6.2-.8,12.1.8,18.1,2l27,76.1c5.2,15.3,12,29.4,18.7,44,3.4,7.4,8.3,15.6,8.7,23.9-3,5.6-3.7,6.2-9.3,9.3-17.4.6-35.8-3.2-52.5-8.1-23.8-7-59.7-25-84-16.9-9.6,3.2-18.6,9.5-26.1,16.1-14.8,13-48.7,57.4-69.4,46.4-9.9-10.5-10.3-34.3-10-47.8l.2-2.8,4.8,4.6Z"/>
  <path class="st9" d="M2293.9,1699.3c8.4-1.1,18.2.1,26.1,3.1,20.8,7.9,31.5,30.5,39.8,49.8,15.7,36.3,22.4,85.6,6.8,123.4-3.4,8.1-10.8,21.5-19.4,24.7-4.1,1.5-9.2-1-12-3.8-4.3-4.2-7.4-12.2-10.4-17.6-5.5-10-11.5-20.1-18.8-28.9-6.3-7.6-13.5-12.7-22.2-17.1l-2.1-1.1-5-1.3c-20.4-5.4-43.8.3-61.3,11.6-9.9,6.4-19.3,15.1-30.2,19.8-5.7,2.4-7.6,1.6-12.8-.8-2.4-3-3.9-6-4.6-9.9-5.7-29.8,10-66,26.8-90,23.8-33.7,58.9-55.1,99.5-61.9Z"/>
  <path class="st35" d="M1711.5,1753.7c-1.1-42.5-2.9-85.5-11.5-127.2-11.9-57.8-34.6-109.8-62.4-161.3,25.4,23.7,48.9,48.2,67.2,78,7.3,11.9,12.9,27.1,20.9,37.9l1.5-1.1c19.2-14,45.7-24.2,67.3-34.3,63.9-29.8,132.8-56.8,203.8-62.3,28.9-2.2,57.8.6,86.3,5.5,51.1,8.7,100.8,26.9,143.5,56.6.4.3.7.8,1.2.8,6.3-.2,21.5-9.1,28.7-11.8,31.1-11.9,65.5-20.3,99-18.8-22.7,5.4-46,9-68.5,15.4-69.4,19.5-132.6,61.3-170.6,123.5-39.1,63.8-52.5,132.8-62,205.9l-1.6,51.7,1.6,2,1.6-.3c6.6-1.3,12.8-1.3,19.5-1.2l.9,1.9c-10,1.7-27,7.7-36.5,6.7,1.9-1,3.8-2,5.6-3.3.4-.3,2.5-2,2.5-2.1,2-4.7-.6-24.3-.5-30.4.3-17.7,1.8-35.3,3.9-52.8l7-42.7c6.9-28.8,14.2-56.7,25.2-84.2-14-14.2-38.3-25.6-56-34.1-7.6-3.6-15-8-23.3-9.6l-.3,1c-2.8-4.1-6-5.1-10.3-7.2v-1.5c10.6-53,10.5-111.2,5.8-164.9-64.5,7.6-124.3,25.7-183.3,52.7l-2.1,1c3.9,26.7,8.6,54.1,8.3,81.2-2.6,50-9.5,98.8-30.3,144.9-7.8,17.4-18.4,33.3-25.9,50.9v-11.2c-10.1-26.9-31.9-40.6-56.4-52.9l.3-2.3Z"/>
  <path class="st24" d="M2172.7,1521.8c17.9,8.3,34.5,16.8,50.5,28.4-19.3,10.1-36.7,20.6-53.4,34.6-3.1-6-.5-16.2,0-23.1,1.1-12.9-.3-27.5,2.8-40Z"/>
  <path class="st27" d="M1815.5,1543.1c3.9,26.7,8.6,54.1,8.3,81.2-2.6,50-9.5,98.8-30.3,144.9-7.8,17.4-18.4,33.3-25.9,50.9v-11.2c1.8-11.4.9-24.3.8-35.8-.6-62.8-14.2-130.2-41.2-187.1l45-22.4,43.4-20.4Z"/>
  <path class="st24" d="M1815.5,1543.1c3.9,26.7,8.6,54.1,8.3,81.2l-26.4,3.8c-8.9-21.7-18.8-42-25.3-64.6l43.4-20.4Z"/>
  <path class="st24" d="M2004.1,1490.2c56.2-1.3,105.3,8.9,158.1,26.9,3.4,1.6,6.9,3.7,10.6,4.7-3.2,12.5-1.7,27.1-2.8,40-.6,6.9-3.2,17.1,0,23.1-3,2.7-6,5.8-9.4,7.8-34,34.7-56.7,68-75.4,113.1-14-14.2-38.3-25.6-56-34.1-7.6-3.6-15-8-23.3-9.6l-.3,1c-2.8-4.1-6-5.1-10.3-7.2v-1.5c10.6-53,10.5-111.2,5.8-164.9l3.2.7Z"/>
  <path class="st19" d="M2162.2,1517.1c3.4,1.6,6.9,3.7,10.6,4.7-3.2,12.5-1.7,27.1-2.8,40-.6,6.9-3.2,17.1,0,23.1-3,2.7-6,5.8-9.4,7.8l1.8-75.5Z"/>
  <path class="st8" d="M2000.9,1489.5l3.2.7,6.6,55.6c3.2,38.1,2.5,78.9-5,116.3l-.3,1c-2.8-4.1-6-5.1-10.3-7.2v-1.5c10.6-53,10.5-111.2,5.8-164.9Z"/>
  <path class="st27" d="M1817.6,1542.1c59-27,118.8-45,183.3-52.7,4.6,53.7,4.8,111.9-5.9,164.9v1.5c4.5,2.2,7.6,3.1,10.4,7.2l.3-1c8.3,1.6,15.8,6,23.3,9.6,17.7,8.5,42.1,19.8,56,34.1-11,27.5-18.2,55.5-25.2,84.2l-7,42.7-11.4,1.9c-11.1,1-22.2,4.7-33.1,7.1l-56.6,10.9c-62,11-125.6,14.8-188.5,12.8l3.1-31.5c-.3-4.2.8-9.3,1.3-13.6,7.5-17.6,18.1-33.5,25.9-50.9,20.8-46.1,27.7-94.9,30.3-144.9.3-27.1-4.4-54.5-8.3-81.2l2.1-1Z"/>
  <path class="st17" d="M1995.1,1655.9c4.3,2.2,7.5,3.1,10.3,7.2-8.7,59.5-31,111.6-66,160.2-5.2,6.8-8.1,12.4-17.1,13.6l-8.2.8-1.8-2.8,4.6-5.9c8.5-7.5,15.7-19.1,22-28.6,28.8-43.8,45.7-93.5,56.3-144.5Z"/>
  <path class="st16" d="M1815.5,1543.1l2.1-1c7.5,25.9,10.9,53.1,13.1,80,.7,73-7.2,155.4-61.2,210.8l-1.5,1.5,2.5,2.6c48.6,2.6,98.1-2.1,146.3-8.1l-4.6,5.9,1.8,2.8,8.2-.8c8.9-1.2,11.9-6.8,17.1-13.6,38.8-4.3,86.3-14,120.6-33.4l-7,42.7-11.4,1.9c-11.1,1-22.2,4.7-33.1,7.1l-56.6,10.9c-62,11-125.6,14.8-188.5,12.8l3.1-31.5c-.3-4.2.8-9.3,1.3-13.6,7.5-17.6,18.1-33.5,25.9-50.9,20.8-46.1,27.7-94.9,30.3-144.9.3-27.1-4.4-54.5-8.3-81.2Z"/>
  <path class="st27" d="M2005.7,1662.1c8.3,1.6,15.8,6,23.3,9.6,17.7,8.5,42.1,19.8,56,34.1-11,27.5-18.2,55.5-25.2,84.2-34.3,19.4-81.7,29.1-120.6,33.4,35-48.6,57.3-100.7,66-160.2l.3-1Z"/>
  <path class="st24" d="M1817.6,1542.1c59-27,118.8-45,183.3-52.7,4.6,53.7,4.8,111.9-5.9,164.9-52.2-22.3-108.1-30.1-164.2-32.3-2.2-26.9-5.6-54.1-13.1-80Z"/>
  <path class="st17" d="M1670.6,1072.9c131.6-22.8,264.6-14.6,393.3,20.4,25.2,6.9,50.4,13.3,74.9,22.5,42.3,15.8,83.3,36.6,123.2,57.7,35.3,18.8,71.1,39,103.8,62.1,75.2,53.1,136.1,116.1,196,185.3,19.7,22.8,43,48,57.7,74.4-3.1,26.3-8.1,49.3-30.2,66.5-18.3,14.3-46,16.7-68.4,15.6l-12.9-34.9c-28.2-70.3-66.7-132.7-112.3-193-9.4,27.1-16,52.4-39.2,71.3-12.5,10.2-28.5,17.3-44.9,15.3-15.4-1.8-29.2-8.1-39-20.6-11.9-15.3-13.2-34.8-3.4-51.7,6.9-12,17.5-23.6,19.1-37.8,1.7-15.2-4.9-31.7-14.2-43.4-10.1-12.8-27-23.9-43.6-25.5-33.8-3.3-71.9,13.3-93.8,39-8,9.3-13,20.3-22.8,28-4.8,1-8.8,1.4-13.7.1-35.4-9.3-38.4-66.5-54.3-94.5-10-17.6-26.1-36.7-46.7-41.5-7.2-1.7-14.6-.7-20.9,3.4-26.6,17.5,5.7,55.1,13.7,75.4,6.8,17.4,9.4,36.8,5.2,55.1-5.7,24.4-23.8,48.3-45.1,61.3-20.4,12.4-45.7,17.1-69,11.2-15.4-3.9-28.6-12.8-39.4-24.4-41.9-45.2-16.3-95.1-22.4-147.7-2-17.3-8.6-33.6-17.5-48.4-10.6-17.7-27.6-32.5-48-37.2-15.9-3.7-30.5-1.1-44.3,7.9-29.8,19.5-7.1,60-3,86.9,2.8,18.1,2.1,39-1.8,56.8-6.1,27.9-20.9,54.8-45.6,70.3-21.4,13.3-47.1,17.4-71.6,11.5-36.3-8.7-68.5-39.6-87.3-70.8,3.6-3.7,7.3-5.8,11.7-8.3,64.1-37.1,130.7-98.4,150.1-172.4,2.6-9.9,10.2-37.1,5-45.9h1.6Z"/>
</svg>