<?xml version="1.0" encoding="UTF-8"?>
<svg id="_x2014_ÎÓÈ_x5F_1" xmlns="http://www.w3.org/2000/svg" xmlns:xlink="http://www.w3.org/1999/xlink" version="1.1" viewBox="0 0 4000 4000">
  <!-- Generator: Adobe Illustrator 29.2.1, SVG Export Plug-In . SVG Version: 2.1.0 Build 116)  -->
  <defs>
    <style>
      .st0 {
        fill: #6f1e09;
      }

      .st1 {
        fill: #8b5705;
      }

      .st2 {
        fill: url(#_ÂÁ_Ï_ÌÌ_È_ËÂÌÚ_2);
      }

      .st3 {
        display: none;
      }

      .st3, .st4 {
        fill: #fefefe;
      }

      .st5 {
        fill: #431c05;
      }

      .st6 {
        fill: #fb9108;
      }

      .st7 {
        fill: #e67406;
      }

      .st8 {
        fill: #f2521f;
      }

      .st9 {
        fill: url(#_ÂÁ_Ï_ÌÌ_È_ËÂÌÚ);
      }

      .st10 {
        fill: #e2350d;
      }

      .st11 {
        fill: #fec753;
      }

      .st12 {
        fill: #7a3923;
      }
    </style>
    <linearGradient id="_ÂÁ_Ï_ÌÌ_È_ËÂÌÚ" data-name="¡ÂÁ˚ÏˇÌÌ˚È „‡‰ËÂÌÚ" x1="1778" y1="2166.3" x2="1847.7" y2="2158" gradientTransform="translate(-3830.1 10933.1) scale(3.9 -3.9)" gradientUnits="userSpaceOnUse">
      <stop offset="0" stop-color="#5b1600"/>
      <stop offset="1" stop-color="#793f2a"/>
    </linearGradient>
    <linearGradient id="_ÂÁ_Ï_ÌÌ_È_ËÂÌÚ_2" data-name="¡ÂÁ˚ÏˇÌÌ˚È „‡‰ËÂÌÚ 2" x1="1642.5" y1="2428.9" x2="1152.7" y2="1849.3" gradientTransform="translate(-3830.1 10933.1) scale(3.9 -3.9)" gradientUnits="userSpaceOnUse">
      <stop offset="0" stop-color="#fcb300"/>
      <stop offset="1" stop-color="#f24d23"/>
    </linearGradient>
  </defs>
  <path class="st3" d="M0,0h4000v4000H0V0Z"/>
  <path class="st10" d="M2744,3053.2c4.4-3.7,11.3-6.3,16.5-8.9.8,36.9,5.6,62-9.3,97.5-8.9-26.9-6.9-60.4-7.1-88.5Z"/>
  <path class="st10" d="M832.9,2416.6c69.3,50.5,148.8,80.1,231.8,99.7-18.9,9.5-67.9,14.6-90.6,19-38.9,7.6-77.7,16-116.6,24.1-19.1-48.7-27.5-90.5-24.6-142.8Z"/>
  <path class="st12" d="M3382.1,3089c24.6,70.2,51.8,137.6,86.2,203.6-2.2-.2-4.5-.3-6.7-.8-12.9-2.8-26.9-10.5-38.6-16.5-49.7-25.1-102.2-57.2-134.9-103.3,36.7-22.4,66.6-50,94-83Z"/>
  <path class="st10" d="M2310,995.5c1.3,17.7-2.2,36.2-3.9,53.8-1.9,19.8-2.5,39.6-2,59.5.6,18.1,10.8,43.1,6.5,59.9-54.6-5.6-109.1-10.3-162.8-21.9,50-55.1,104.5-104.6,162.2-151.4Z"/>
  <path class="st8" d="M2344.3,460c88.6-15,184.2-12.3,273.4-4.3-22,16.4-44.6,30.8-64.6,49.8-22.2,21.2-41.3,45.9-63.8,66.6-17-11.3-32.7-26.2-49-38.9-31.7-24.8-64.1-48.9-96.1-73.3Z"/>
  <path class="st8" d="M2470.7,594.8c-5.4,11-35.2,54.6-33.5,63.4,0,.5.4.9.5,1.3-21.2,16.5-39.8,67.7-51.7,92.9-22.9-9.5-48-14.5-72-20.3-40.9-10-82.2-19.3-122.9-30.4,53-28.5,137.5-64.2,195.3-82.9,27.8-9,56.3-15.7,84.3-24Z"/>
  <path class="st10" d="M1062,2322.6c71.5,70.8,168.4,105,262.7,133.5-20.2,15.4-171.6,41.2-207.4,52.3-34.2-55.5-50.1-121.5-55.3-185.8Z"/>
  <path class="st10" d="M1317.7,2240.5c65.8,68.2,185.2,102,274.7,125.9-35.6,24.5-157.4,59.9-204.5,74.9-42.1-55.4-68-131.6-70.2-200.9Z"/>
  <path class="st0" d="M2744,3053.2c.2,28.1-1.8,61.6,7.1,88.5-28.4,74-65.6,150.5-113.9,213.8-7.6-16-11.2-37.2-15.6-54.4-13.7-52.5-25.3-105-36.2-158.1l-3.5-16.6c11.2-4.9,22.4-10.1,33.4-15.4,43.7-17.9,87.2-35.1,128.7-57.7Z"/>
  <path class="st10" d="M1525.2,2093.4c82.5,82.9,175.3,119,285.3,150-24.7,19-186.1,115.6-209.7,119.1-44.9-85.6-70.2-172.4-75.6-269.1Z"/>
  <path class="st10" d="M3078.3,2923.3c42.5,10.7,84.1,21.2,128.2,15.9,3.6,67.4,16.1,132.8,32.8,198.1,4.3,16.9,8.1,36.3,15.2,52.1-31.5,17.6-70.2,22.7-105.8,21.1-8.8-23.1-17-46.4-24.3-70-7.4-23.6-14-47.4-19.9-71.4-5.9-24-11-48.2-15.4-72.5-4.4-24.3-7.9-48.8-10.8-73.3Z"/>
  <path class="st10" d="M2059.8,1517c59.4,52.9,151.1,76.6,224.4,103.4-17,53.5-63.6,160-93.4,207.3-79.6-80.4-124.6-198.7-130.9-310.7Z"/>
  <path class="st7" d="M3206.5,2939.2c49.1-8.1,92-22.3,131.2-53.8,11.5,69.5,23.9,136.1,44.4,203.6-27.5,33-57.3,60.5-94,83l-33.7,17.4c-7.1-15.8-10.9-35.2-15.2-52.1-16.7-65.4-29.2-130.7-32.8-198.1Z"/>
  <path class="st10" d="M1738.1,1930c85.8,69.2,171.4,105.5,276.1,137.5-33.1,41.3-124.3,125.5-170.4,153.3-64-81.7-98.7-188.1-105.7-290.8Z"/>
  <path class="st10" d="M2027.8,2052c-94.4-91.8-125.4-222.1-143.1-347.7,54.9,54.3,221.8,120.7,298.6,137.1-39.4,60.8-78,120.6-124.6,176.2-9.3,11.1-19.8,25.2-30.8,34.4Z"/>
  <path class="st7" d="M1674.2,3373.8c96.4,14.2,158,12.6,248.3-26.3l-7.8,67.3c68.7,12.1,163,47.3,203.8,106.1,5.9,8.6,10.9,17.8,14.7,27.6-53.5-8.1-102.3-9.9-155.9-.4,10.9,53.6,10.3,112.3-4.4,165.2-43.1-52.7-79.5-98.3-133.2-141.6-61.7,28.5-100.7,87.5-133.4,144.6-27.1-54.9-31.8-114.8-24.1-174.8-63.1-1.1-119.2,5.6-181.1,17.7,37.8-72.2,98-109.2,174.2-133.2l30.2-9.3c-10-14.6-21.2-28.4-31.3-42.9Z"/>
  <path class="st0" d="M3254.5,3189.4l33.7-17.4c32.7,46.1,85.2,78.2,134.9,103.3,11.8,5.9,25.7,13.7,38.6,16.5,2.2.5,4.5.6,6.7.8,2.2,2.5,3.4,3.9,6.7,4.9,12.9,3.8,28.4,4.2,41.8,6.7,16.8,2.9,33.3,6.7,49.7,11.4,16.3,4.7,32.4,10.3,48.1,16.7,59.7,25.2,105.9,61.4,144.3,113.2-89.8-11-142.5-17.7-234.5-5,30.7,56.6,39,115.8,34.8,179.3-35.4-46-96.2-114.1-152.7-131.8-63.2-19.8-166.9,30.7-222.3,60.4,13-56.5,38.1-100.7,74-145.7-48.3-57.3-80.4-123.6-109.5-192,35.6,1.6,74.3-3.6,105.8-21.1Z"/>
  <path class="st8" d="M2911.9,157.4c60.7,42.1,112.6,89.8,165.7,140.9,21.7,20.9,42.7,44.6,65.8,63.7,5.4,4.4,9.5,7.5,16.6,6.3,15.8-19.4,23.6-86.5,27.3-113.4,36.1,29,68.5,66.5,92.5,106,10.4,17.1,19,35.2,29.6,52.2,31.6,9.6,65.5,14.7,96.6,25.3-28.8,16.5-63.2,28.7-93.7,42.3-34.4,15.4-68.3,31.2-105.1,40.3-136.2,33.5-232-31.9-354.5-69.5-10.3-3.2-20.7-6-31.2-8.4-10.5-2.4-21.1-4.5-31.7-6.2-10.6-1.7-21.3-3-32.1-3.9-10.7-.9-21.5-1.5-32.3-1.7-18.9-51.1-48.8-99.6-80.6-143.8-13.1-18.1-27.7-35.6-40-54.2,120.1,35.2,203.9,70.3,308.8,138.4,7.2,4.7,14.5,8.2,22.8,3.7,3.4-1.9,4.5-4.1,5.3-7.8,7.8-35-22.2-169.6-29.9-210.2Z"/>
  <path class="st9" d="M3324.1,2260.5c8.9-47.2,14.3-96.2,18.3-144.1,1.9-23.3-.4-60.4,6-81.2,12.3,33.7,25,67.4,34.3,102.2,38,142.5,27.9,288-9.7,429.3-15.1,56.7-42,133.7-46.3,190.3-3.3,44,8.8,85.1,11,128.4-39.3,31.6-82.2,45.8-131.2,53.8-44.1,5.3-85.7-5.2-128.2-15.9-5.1-39.2-10.1-87.3-3.3-126.3,15.9-27.4,49.2-62.8,69-92.8,72.4-109.9,126.4-221.8,160.1-349.3,8.2-31.1,16.8-62.3,19.9-94.4Z"/>
  <path class="st7" d="M2585.4,3143c10.9,53.2,22.6,105.6,36.2,158.1,4.5,17.2,8.1,38.3,15.6,54.4-.9,9.5,4.7,25.2,6.8,34.9,84.8,4.4,181.6,21.6,255.4,64.3,21.9,12.7,41.1,28.5,60.4,44.7-58.8-1.2-112,6.3-165.8,30.3,34.2,62.2,47,103.7,43.2,175-64.1-63.9-127.1-104-216.9-121.6-12.3,56.4-40.8,151.9-70,199.5-26.3-61.8-52.1-125.2-92.8-179.2-78.5,6.6-150.8,26.1-223.8,55,27.5-88.2,77.6-147.4,153.6-197.6-34.2-86.3-63.5-174.2-88-263.7,3.2-.9,5.9-.8,9.1,0,27.4,7.7,52.1,17.5,80.6,22,26.3,4.1,54.4,5.6,80.8,1.5,49.8-7.7,86.7-38.2,115.5-77.9Z"/>
  <path class="st2" d="M2372,1259.8c12.7,12.4,25.6,24.8,39.1,36.3,13,11.1,47.1,32.1,54.3,44.3l.7,3.9c-10,47.5-15.1,96.4-22.9,144.4-11.1,67.5-25.6,134.2-43.4,200.2-19.3,68.7-41.3,136.6-66,203.5-11,29.1-26.9,57.5-36.2,86.9-164,313.3-446.6,495.9-777.4,599.3-39.2,12.5-78.9,23.6-118.9,33.2-40,9.6-80.4,17.8-121,24.5-60,10.3-120.9,14.3-180.9,24.3-199.5,33.3-480.9,109.4-582.1,304.3-39.3,75.7-47.4,160.9-21.5,242.2,58.5,183.4,237.3,310,401.1,393.9,37,18.9,75.4,35.6,113.6,51.8,16.4,7,34,13,49.9,20.9,21.4,6.4,42.3,15.2,63.4,22.7,31.6,11,63.5,21.3,95.5,31.1,100.8,30,207.3,49.5,311.3,64,28.8,4,72.4,12.9,100.8,8.5l3.7-3.9c11.1,2.9,22.1,5.6,32.8,9.6-91.9,9.3-184.4,15.4-276.8,10.6-46.3.9-94.9-5.3-140.9-10.1-252.9-26.2-524.3-100.7-739.7-239.5-131.7-84.8-253.9-207.8-287.3-365.9-22.4-105.7,3.5-213,62.4-302.4,117-177.7,369.1-296.8,571.7-338.8,38.8-8.1,77.6-16.5,116.6-24.1,22.7-4.4,71.7-9.6,90.6-19,14.5,3.8,37.9-4.6,52.7-8,35.9-11.1,187.3-36.9,207.4-52.3,12.2,2.9,49.7-10.4,63.1-14.7,47.1-15,169-50.4,204.5-74.9,3.1-.8,5.6-2.5,8.4-4,23.6-3.5,185-100.1,209.7-119.1,10.5-8.1,22.3-15.2,33.3-22.6,46.1-27.8,137.3-112,170.4-153.3,4.1-5.8,8.4-10.5,13.6-15.4,11.1-9.2,21.5-23.3,30.8-34.4,46.6-55.6,85.3-115.4,124.6-176.2,3.3-4.6,5.8-8.2,7.5-13.7,29.8-47.3,76.4-153.8,93.4-207.3,10.4-28.9,21.3-57.8,29.7-87.4,24.4-69.4,55-199.9,58.2-273.2Z"/>
  <path class="st10" d="M1060.5,3673.6c21.4,6.4,42.3,15.2,63.4,22.7,31.6,11,63.5,21.3,95.5,31.1,100.8,30,207.3,49.5,311.3,64,28.8,4,72.4,12.9,100.8,8.5l3.7-3.9c11.1,2.9,22.1,5.6,32.8,9.6-91.9,9.3-184.4,15.4-276.8,10.6l.2-2.4c3.3-.9,2-.9,5-.5,27.7,3.3,188.5,1.6,210.1-7.9l.5-1.8c-8,.3-14.5-1.9-22.3-2.7-15.6-1.6-31.5-1.9-47.1-4-7.3-1-13.9-3.7-21-5-29.9-5.2-60.3-7.3-90.3-12.7-21.4-3.9-41.9-9.3-63-13.8-102.7-21.8-204.6-48.4-302-88.4l-.9-3.4Z"/>
  <path class="st11" d="M2465.4,1340.3c7.2.9,115.8,66.5,136.1,76.2,163,78.2,430.3,152.3,612.3,126.7,65.1-9.2,123.7-31.3,182.1-60.4-9.1,37-15.1,74.5-20.9,112.1-13.6,99.1-19.3,197.1-26.6,296.6-1.6,34.6-8.3,115,.1,143.6-6.4,20.8-4.1,57.9-6,81.2-4,47.9-9.4,96.9-18.3,144.1-3.1,32.1-11.7,63.3-19.9,94.4-33.7,127.5-87.6,239.5-160.1,349.3-19.8,30-53.1,65.4-69,92.8-53.8,59.2-110.9,112.4-176.5,158.7-21,15.3-131.7,80.3-138.2,88.6-5.2,2.6-12.1,5.2-16.5,8.9-41.5,22.6-85,39.9-128.7,57.7-11,5.4-22.2,10.5-33.4,15.4-4.7-14.6-6.5-31.8-8.7-47.1-9-62.1-8.5-120.1-15-181.1.1-27,1.7-53.9,4.8-80.7,3-26.8,7.5-53.4,13.4-79.7,12.6-54.2,30.6-107,43.1-161.4,16-118.3,12.3-253-33.4-364.3-5.4-10.6-10.8-21.2-16.9-31.5-1.9-3.1-3.8-6.2-5.7-9.2-1.9-3.1-3.9-6.1-5.9-9.1-2-3-4-6-6.1-8.9-2.1-3-4.2-5.9-6.3-8.8-2.2-2.9-4.3-5.8-6.6-8.6-2.2-2.8-4.5-5.7-6.8-8.5-2.3-2.8-4.6-5.6-7-8.3-2.4-2.7-4.7-5.4-7.2-8.1-2.4-2.7-4.9-5.3-7.4-7.9-2.5-2.6-5-5.2-7.6-7.8-2.6-2.6-5.1-5.1-7.8-7.6-2.6-2.5-5.3-5-7.9-7.4s-5.4-4.8-8.1-7.2c-2.7-2.4-5.5-4.7-8.3-7-2.8-2.3-5.6-4.5-8.5-6.8-2.8-2.2-5.7-4.4-8.6-6.6-2.9-2.2-5.8-4.3-8.8-6.4-3-2.1-5.9-4.1-8.9-6.1-3-2-6-4-9.1-5.9-3.1-1.9-6.1-3.8-9.2-5.7-3.1-1.9-6.2-3.7-9.4-5.5-3.1-1.8-6.3-3.5-9.5-5.2-3.2-1.7-6.4-3.4-9.6-5-3.2-1.6-6.5-3.2-9.7-4.8-3.3-1.5-6.5-3.1-9.9-4.5-3.3-1.5-6.6-2.9-10-4.3-3.3-1.4-6.7-2.7-10.1-4-3.4-1.3-6.8-2.6-10.2-3.8-3.4-1.2-6.8-2.4-10.3-3.5-3.4-1.1-6.9-2.2-10.3-3.3-3.5-1-6.9-2.1-10.4-3-3.5-1-7-1.9-10.5-2.8,9.3-29.5,25.2-57.9,36.2-86.9,24.7-67,46.7-134.8,66-203.5,17.8-66,32.2-132.7,43.4-200.2,7.8-47.9,12.9-96.9,22.9-144.4l-.7-3.9Z"/>
  <path class="st6" d="M2586,2212.1c75.4-113.1,132.3-243,235.1-335.6,2.4-2.2,4.8-4.3,7.2-6.5,2.4-2.1,4.9-4.2,7.4-6.3,2.5-2.1,5-4.1,7.5-6.1,2.5-2,5.1-4,7.7-5.9,2.6-1.9,5.2-3.8,7.8-5.7,2.6-1.9,5.3-3.7,8-5.5,2.7-1.8,5.4-3.6,8.1-5.3s5.5-3.4,8.3-5.1c2.8-1.7,5.6-3.3,8.4-4.9,2.8-1.6,5.6-3.2,8.5-4.7,2.9-1.5,5.7-3,8.6-4.5,2.9-1.5,5.8-2.9,8.7-4.3,2.9-1.4,5.9-2.7,8.8-4,3-1.3,5.9-2.6,8.9-3.8,3-1.2,6-2.4,9-3.6,3-1.2,6.1-2.3,9.1-3.4,3-1.1,6.1-2.1,9.2-3.1,3.1-1,6.2-2,9.3-2.9,3.1-.9,6.2-1.8,9.3-2.7,3.1-.9,6.3-1.7,9.4-2.4,3.1-.8,6.3-1.5,9.5-2.2,3.2-.7,6.3-1.3,9.5-2,3.2-.6,6.4-1.2,9.6-1.7,3.2-.5,6.4-1,9.6-1.5,3.2-.5,6.4-.9,9.6-1.2,3.2-.4,6.4-.7,9.7-1s6.4-.5,9.7-.8c3.2-.2,6.5-.4,9.7-.5,3.2-.1,6.5-.2,9.7-.3,3.2,0,6.5,0,9.7,0,3.2,0,6.5.1,9.7.2,3.2.1,6.5.3,9.7.5,95.3,5.2,178.8,45.5,242.3,116.3-1.6,34.6-8.3,115,.1,143.6-6.4,20.8-4.1,57.9-6,81.2-4,47.9-9.4,96.9-18.3,144.1-37.1-71.8-139.6-243.9-218.8-268.5-.8-.3-1.6-.5-2.5-.7-33.2,9-60.2,30-86.3,51.7-107.3,89.1-188.7,211.8-257.4,331.7-43.4,75.8-85.9,154.5-120.3,234.8,72.3,123.7,168.7,236,259.9,346.3-21,15.3-131.7,80.3-138.2,88.6-5.2,2.6-12.1,5.2-16.5,8.9-41.5,22.6-85,39.9-128.7,57.7-11,5.4-22.2,10.5-33.4,15.4-4.7-14.6-6.5-31.8-8.7-47.1-9-62.1-8.5-120.1-15-181.1.1-27,1.7-53.9,4.8-80.7,3-26.8,7.5-53.4,13.4-79.7,12.6-54.2,30.6-107,43.1-161.4,16-118.3,12.3-253-33.4-364.3Z"/>
  <path class="st10" d="M2619.4,2576.5c5.9,11.1,11.4,22.8,18.5,33.1-63.5,143.8-83.3,344.2-26.1,493.1,1.1,2.8,2.2,5.6,3.4,8.3-11,5.4-22.2,10.5-33.4,15.4-4.7-14.6-6.5-31.8-8.7-47.1-9-62.1-8.5-120.1-15-181.1.1-27,1.7-53.9,4.8-80.7,3-26.8,7.5-53.4,13.4-79.7,12.6-54.2,30.6-107,43.1-161.4Z"/>
  <path class="st8" d="M2465.4,1340.3c7.2.9,115.8,66.5,136.1,76.2,163,78.2,430.3,152.3,612.3,126.7,65.1-9.2,123.7-31.3,182.1-60.4-9.1,37-15.1,74.5-20.9,112.1-13.6,99.1-19.3,197.1-26.6,296.6-63.5-70.9-147-111.1-242.3-116.3-3.2-.2-6.5-.3-9.7-.5-3.2-.1-6.5-.2-9.7-.2-3.2,0-6.5,0-9.7,0-3.2,0-6.5.1-9.7.3-3.2.1-6.5.3-9.7.5-3.2.2-6.5.5-9.7.8s-6.4.6-9.7,1c-3.2.4-6.4.8-9.6,1.2-3.2.5-6.4.9-9.6,1.5-3.2.5-6.4,1.1-9.6,1.7-3.2.6-6.3,1.3-9.5,2-3.2.7-6.3,1.4-9.5,2.2-3.1.8-6.3,1.6-9.4,2.4-3.1.9-6.2,1.7-9.3,2.7-3.1.9-6.2,1.9-9.3,2.9-3.1,1-6.1,2.1-9.2,3.1-3,1.1-6.1,2.2-9.1,3.4-3,1.2-6,2.4-9,3.6-3,1.2-6,2.5-8.9,3.8-3,1.3-5.9,2.7-8.8,4-2.9,1.4-5.8,2.8-8.7,4.3-2.9,1.5-5.8,2.9-8.6,4.5-2.9,1.5-5.7,3.1-8.5,4.7-2.8,1.6-5.6,3.2-8.4,4.9-2.8,1.7-5.5,3.4-8.3,5.1s-5.4,3.5-8.1,5.3c-2.7,1.8-5.3,3.6-8,5.5-2.6,1.9-5.3,3.8-7.8,5.7-2.6,1.9-5.2,3.9-7.7,5.9-2.5,2-5.1,4-7.5,6.1-2.5,2.1-5,4.2-7.4,6.3-2.4,2.1-4.8,4.3-7.2,6.5-102.8,92.6-159.7,222.5-235.1,335.6-5.4-10.6-10.8-21.2-16.9-31.5-1.9-3.1-3.8-6.2-5.7-9.2-1.9-3.1-3.9-6.1-5.9-9.1-2-3-4-6-6.1-8.9-2.1-3-4.2-5.9-6.3-8.8-2.2-2.9-4.3-5.8-6.6-8.6-2.2-2.8-4.5-5.7-6.8-8.5-2.3-2.8-4.6-5.6-7-8.3-2.4-2.7-4.7-5.4-7.2-8.1-2.4-2.7-4.9-5.3-7.4-7.9-2.5-2.6-5-5.2-7.6-7.8-2.6-2.6-5.1-5.1-7.8-7.6-2.6-2.5-5.3-5-7.9-7.4s-5.4-4.8-8.1-7.2c-2.7-2.4-5.5-4.7-8.3-7-2.8-2.3-5.6-4.5-8.5-6.8-2.8-2.2-5.7-4.4-8.6-6.6-2.9-2.2-5.8-4.3-8.8-6.4-3-2.1-5.9-4.1-8.9-6.1-3-2-6-4-9.1-5.9-3.1-1.9-6.1-3.8-9.2-5.7-3.1-1.9-6.2-3.7-9.4-5.5-3.1-1.8-6.3-3.5-9.5-5.2-3.2-1.7-6.4-3.4-9.6-5-3.2-1.6-6.5-3.2-9.7-4.8-3.3-1.5-6.5-3.1-9.9-4.5-3.3-1.5-6.6-2.9-10-4.3-3.3-1.4-6.7-2.7-10.1-4-3.4-1.3-6.8-2.6-10.2-3.8-3.4-1.2-6.8-2.4-10.3-3.5-3.4-1.1-6.9-2.2-10.3-3.3-3.5-1-6.9-2.1-10.4-3-3.5-1-7-1.9-10.5-2.8,9.3-29.5,25.2-57.9,36.2-86.9,24.7-67,46.7-134.8,66-203.5,17.8-66,32.2-132.7,43.4-200.2,7.8-47.9,12.9-96.9,22.9-144.4l-.7-3.9Z"/>
  <path class="st10" d="M2465.4,1340.3c7.2.9,115.8,66.5,136.1,76.2,163,78.2,430.3,152.3,612.3,126.7,65.1-9.2,123.7-31.3,182.1-60.4-9.1,37-15.1,74.5-20.9,112.1-93.4,55.2-219.2,61.7-324.1,46.1-166.4-24.9-326.2-98.1-464.4-192.2-43.1-29.4-89-62.5-120.2-104.6l-.7-3.9Z"/>
  <path class="st8" d="M2725.5,431.3c10.8.2,21.5.7,32.3,1.7,10.7.9,21.4,2.2,32.1,3.9,10.6,1.7,21.2,3.8,31.7,6.2,10.5,2.4,20.9,5.2,31.2,8.4,122.5,37.6,218.3,103,354.5,69.5,36.8-9.1,70.7-24.9,105.1-40.3,30.5-13.6,64.8-25.8,93.7-42.3.8,0,1.6,0,2.3,0,11.4-.1,22.6-3.4,34.1-3.4,28.5,0,56.3,17.8,76.4,36.8,5.1,4.9,10,9.9,14.7,15.1,4.7,5.2,9.2,10.6,13.5,16.2,4.3,5.6,8.4,11.3,12.2,17.1,3.9,5.9,7.5,11.9,10.9,18,19.3,24,32.6,52.5,46.8,79.6,14.8,28.3,28.2,57.2,43.3,85.4,34.9,65.5,69.8,125.5,91.3,197.3,26.6,106.2,46.4,184.4-13.5,283.9-61.6,102.3-159,185-258.3,249.1-26.5,17.1-59.4,31.6-83.9,49.2-58.4,29.1-117,51.2-182.1,60.4-182,25.7-449.3-48.4-612.3-126.7-20.2-9.7-128.8-75.4-136.1-76.2-7.2-12.1-41.3-33.2-54.3-44.3-13.5-11.5-26.3-23.9-39.1-36.3-3.2,73.3-33.8,203.8-58.2,273.2-42.4-6.6-88.5-5-131.5-6.7,38-47,85.8-85.5,132-124.1,6.5-5.4,20.9-14.6,24.5-21.7,2.5-4.9,1-10.3-1.2-14.8-3.9-2.7-7-3.8-11.8-3.9-13.9-.2-29.3,2.9-43.2,4-38.4,3.2-77.6,5.6-115.6,11.6,26.9-41.9,61.5-84.8,96.1-120.9,17.3-18.1,39.8-35.3,54.1-55.8-1-10.4-1.6-22.9-6.6-32.2,4.3-16.8-5.9-41.9-6.5-59.9-.5-19.9.1-39.7,2-59.5,1.7-17.6,5.1-36.1,3.9-53.8,4.1-7.1,5.8-14.9,6.2-23-53.8-18.6-112.7-29.6-168.2-42.5,65.6-53.5,137.1-100.4,218.6-125.2l19.4-52.5c11.9-25.2,30.5-76.4,51.7-92.9-.2-.4-.4-.9-.5-1.3-1.6-8.8,28.1-52.4,33.5-63.4,5.5-8,12.4-15.3,18.6-22.7,22.5-20.7,41.6-45.4,63.8-66.6,20-19,42.5-33.4,64.6-49.8,9.3-2.2,19-8.1,28.2-11.3,27.1-9.6,51-12.4,79.6-13Z"/>
  <path class="st5" d="M3050.8,969.2c4.8.3,9.5.9,14.2,2,14.4,3.3,29.3,15,36.6,27.7,3.8,6.7,5.7,14.2,3.1,21.7-3.4,9.9-11.8,14.5-20.9,18.4-5.2,0-10.2-.8-15-2.8-15-6.1-31.6-19.7-37.7-35-2.7-6.7-2.9-12.9.6-19.5,3.9-7.2,11.8-10.2,19.1-12.5Z"/>
  <path class="st5" d="M3348.7,963.1c3.4-.2,6.6-.2,9.9.3,6.4,1,14.1,4.3,17.4,10.2,4,7,2.7,15.1,0,22.3-6.8,18.9-22,33.5-40.1,41.6-3.5,0-6.8,0-10.3-.7-7.5-1.7-16-5.8-19.6-13-4-7.9-2.2-17.5,1.1-25.3,7.9-19,23.3-28.3,41.4-35.4Z"/>
  <path class="st5" d="M3700.5,1034.5l3.2-.4c-16.6,8.3-41.9,10.5-60,15.7-22.8,6.5-45.2,16.6-66.6,26.7-83.8,39.4-161.8,90-250.3,119.1-187.2,61.6-367.9-26.5-541.6-87.4-69.1-24.2-136.7-43.8-209.2-54-9.7-.9-19.1-2.1-28.7-3.8,15.1-3.2,35,.7,50.3,2.5,138.1,16.3,264.1,71.5,397.8,105.6,62.2,15.9,127.9,26.9,192.3,27,122.3,0,217.9-46.2,326.4-94.4,58.7-26.1,121.9-52.1,186.5-56.3Z"/>
  <path class="st5" d="M3489.9,903.9c-17.7-6.8-40.9-15.1-54.4-28.5-8.4-8.3-9.8-17.6-9.4-29,1.9-52,54.2-200.7,93.4-234.7,11.2-9.7,21.3-9.5,35.3-8.6,21,3.8,41.6,9.2,62.1,14.9,14.8,28.3,28.2,57.2,43.3,85.4,34.9,65.5,69.8,125.5,91.3,197.3-14.2,4-51-11-72.1-8.5-43.7,5-81,37.4-126.8,33-22.2-4.2-42.2-11.9-62.8-21.2Z"/>
  <path class="st4" d="M3518.3,665.6c.5.1,1,.2,1.6.3,9.1,2.4,15.1,7.2,19.6,15.3,8.5,15.2,8.1,36.1,2.6,52.2-4.5,13.4-10.5,19.7-23.1,25.9-1.3-.1-2.5-.3-3.8-.4-8.3-1.1-14.3-4.7-19-11.5-8.5-12.2-8.7-28.3-5.5-42.3,4-17.4,12.3-30.3,27.6-39.4Z"/>
  <path class="st1" d="M3565.7,637.6c11.2,5.1,21.6,20.3,27.8,30.9,1.4,2.5,2.8,5,4.1,7.5,1.3,2.5,2.6,5.1,3.7,7.7,1.2,2.6,2.3,5.2,3.4,7.9,1.1,2.6,2,5.3,3,8,.9,2.7,1.8,5.4,2.6,8.1.8,2.7,1.5,5.5,2.2,8.3.7,2.8,1.3,5.6,1.8,8.4.5,2.8,1,5.6,1.4,8.4.4,2.8.7,5.7,1,8.5.3,2.8.4,5.7.5,8.5.1,2.8.2,5.7.1,8.5,0,2.8-.1,5.7-.3,8.5-.2,2.8-.4,5.7-.7,8.5-.3,2.8-.7,5.7-1.1,8.5-.4,2.8-.9,5.6-1.5,8.4-.6,2.8-1.2,5.6-1.9,8.3-7,26.3-22.2,53.2-46.6,66.7-17.2,9.5-34.3,10.1-52.8,4.6-10.6-5.9-17.3-13-24.6-22.4,5.4,1.6,10.9,3.3,16.4,4.4,19.2,3.8,35.2-1.5,50.9-12.7,39.8-28.3,36.8-94.1,25.7-136.1-5-19-18.6-46.3-15.3-65.7,0-.6.2-1.1.3-1.7Z"/>
  <path class="st12" d="M3554.9,603c21,3.8,41.6,9.2,62.1,14.9,14.8,28.3,28.2,57.2,43.3,85.4,34.9,65.5,69.8,125.5,91.3,197.3-14.2,4-51-11-72.1-8.5-43.7,5-81,37.4-126.8,33-22.2-4.2-42.2-11.9-62.8-21.2,16.5-3.4,34.7.9,51.9-3.2,16.1-3.8,30.3-14.9,46.3-17.3.8-.7,1.6-1.3,2.4-2,25.9-22.3,36.6-62.6,39.4-95.4,4.2-49.8-11.8-107.3-42.3-147.1-9.3-12.2-21.1-21.4-30.4-33.1-.7-.9-1.4-1.8-2.2-2.8Z"/>
  <path class="st12" d="M2448.7,653.4c42.9-16.9,79.5-45.8,125.1-57.5,38.5-9.9,76.4,0,109.8,20,31.3,17.2,62,36,89.5,58.9,38.9,32.3,126.6,132.7,139.9,182.1,2.1,7.7,2.3,14.5-2.2,21.5-16.3,25.5-65.6,39.5-92.6,49.1-93.2,32.9-120.5,25-211.7-8.1-23.5-8.5-48.1-16.4-73.3-17.2-34.9-1.2-66,15.1-99.4,21.3-22.8,4.3-45.6,0-68.3,2.3-13.3,1.4-25.1,8.7-38,10.9,9.7-44.9,23.6-88.5,39.1-131.7l19.4-52.5c11.9-25.2,30.5-76.4,51.7-92.9l11-6.2Z"/>
  <path class="st5" d="M2683.6,615.9c31.3,17.2,62,36,89.5,58.9,38.9,32.3,126.6,132.7,139.9,182.1,2.1,7.7,2.3,14.5-2.2,21.5-16.3,25.5-65.6,39.5-92.6,49.1-1.6-1.2-3-3-4.9-3.7-10.9-3.9-80,16.1-128.6-3-32-12.6-53.5-38.7-66.9-69.5-22.5-51.5-22.7-105.2-2.2-157.2,13.4-34,33.6-63.3,68-78.2Z"/>
  <path class="st4" d="M2691.7,686.7c5.4-5.1,9.1-8.7,16.2-10.8,9.7.6,19,4.8,25.5,12.1,10.2,11.5,12.9,28.5,11.8,43.3-1.1,15.8-7.6,32.5-20.4,42.5-5,3.9-11.4,7-17.9,6.4-7.7-.7-13.8-6.5-18-12.5-5.3-7.5-8.2-16.5-10.8-25.2-.8-21.8,2.6-36.9,13.5-55.8Z"/>
  <path class="st1" d="M2814.3,782.8c3.2,9,6.8,18.2,7.9,27.8,2.7,24.5-5.9,49.1-21.8,67.7-1,1.2-2,2.3-3.1,3.5-1.1,1.1-2.1,2.2-3.3,3.3-1.1,1.1-2.3,2.1-3.4,3.1-1.2,1-2.4,2-3.6,3-1.2,1-2.5,1.9-3.7,2.8-1.3.9-2.5,1.7-3.9,2.6-1.3.8-2.6,1.6-4,2.4-1.3.8-2.7,1.5-4.1,2.2-1.4.7-2.8,1.3-4.2,2-1.4.6-2.8,1.2-4.3,1.7-1.4.5-2.9,1.1-4.4,1.5-1.5.5-3,.9-4.5,1.3-1.5.4-3,.8-4.5,1.1-1.5.3-3,.6-4.6.8-1.5.2-3.1.4-4.6.6-1.5.2-3.1.3-4.6.4-1.5.1-3.1.2-4.6.2-1.5,0-3.1,0-4.6,0-1.5,0-3.1-.1-4.6-.3-1.5-.1-3.1-.3-4.6-.5-1.5-.2-3-.4-4.5-.7-1.5-.3-3-.6-4.5-1-1.5-.4-3-.7-4.4-1.2-1.5-.4-2.9-.9-4.4-1.4-1.5-.5-2.9-1-4.3-1.6-1.4-.6-2.8-1.2-4.2-1.8-1.4-.6-2.8-1.3-4.1-2-1.4-.7-2.7-1.5-4-2.2-1.3-.8-2.6-1.6-3.9-2.4-1.3-.8-2.5-1.7-3.8-2.6-1.2-.9-2.5-1.8-3.6-2.8-1.2-1-2.4-2-3.5-3-26.5-23.7-38.4-60.1-39.6-94.7-1.7-47.9,17.9-95.2,50.4-130,5.3,8,9.5,15.4,13,24.4-11,19-14.3,34.1-13.5,55.8-1.4,2.4-1.6,2.5-2.8,5.5-11,28.9-2.6,79.8,12.7,105.9,8.6,14.7,21.8,26.8,38.6,31.1,14.3,3.6,28.9.7,41.2-7.3,32.3-21.1,38.7-60.3,46.5-94.8Z"/>
  <path class="st11" d="M2725.5,431.3c10.8.2,21.5.7,32.3,1.7,10.7.9,21.4,2.2,32.1,3.9,10.6,1.7,21.2,3.8,31.7,6.2,10.5,2.4,20.9,5.2,31.2,8.4,122.5,37.6,218.3,103,354.5,69.5,36.8-9.1,70.7-24.9,105.1-40.3,30.5-13.6,64.8-25.8,93.7-42.3.8,0,1.6,0,2.3,0,11.4-.1,22.6-3.4,34.1-3.4,28.5,0,56.3,17.8,76.4,36.8,5.1,4.9,10,9.9,14.7,15.1,4.7,5.2,9.2,10.6,13.5,16.2,4.3,5.6,8.4,11.3,12.2,17.1,3.9,5.9,7.5,11.9,10.9,18-19.9-5.5-37-10.8-56.1.5-55.5,32.9-89.2,151.1-134.3,171.7-14.4,6.6-33.1,3.5-48,.1-53.6-12.1-108.2-38.9-163.4-40.2-74.5-1.7-185.4,61.3-242.2,53.1-40-5.8-76-55.5-105.1-81.4-46.1-40.9-131.2-103.4-197-95.4-30.9,3.7-59.4,19.4-85.3,35.6-23.9,14.9-77.3,47.8-90,71.1l-11,6.2c-.2-.4-.4-.9-.5-1.3-1.6-8.8,28.1-52.4,33.5-63.4,5.5-8,12.4-15.3,18.6-22.7,22.5-20.7,41.6-45.4,63.8-66.6,20-19,42.5-33.4,64.6-49.8,9.3-2.2,19-8.1,28.2-11.3,27.1-9.6,51-12.4,79.6-13Z"/>
  <path class="st12" d="M2297.7,1979.2c3.5.9,7,1.8,10.5,2.8,3.5,1,7,2,10.4,3,3.5,1,6.9,2.1,10.3,3.3,3.4,1.1,6.8,2.3,10.3,3.5,3.4,1.2,6.8,2.5,10.2,3.8,3.4,1.3,6.7,2.6,10.1,4,3.3,1.4,6.7,2.8,10,4.3,3.3,1.5,6.6,3,9.9,4.5,3.3,1.5,6.5,3.1,9.7,4.8,3.2,1.6,6.4,3.3,9.6,5,3.2,1.7,6.4,3.4,9.5,5.2,3.1,1.8,6.3,3.6,9.4,5.5,3.1,1.9,6.2,3.8,9.2,5.7,3.1,1.9,6.1,3.9,9.1,5.9,3,2,6,4.1,8.9,6.1,3,2.1,5.9,4.2,8.8,6.4,2.9,2.2,5.8,4.3,8.6,6.6,2.8,2.2,5.7,4.5,8.5,6.8,2.8,2.3,5.6,4.6,8.3,7,2.7,2.4,5.4,4.8,8.1,7.2s5.3,4.9,7.9,7.4c2.6,2.5,5.2,5,7.8,7.6,2.6,2.6,5.1,5.1,7.6,7.8,2.5,2.6,4.9,5.3,7.4,7.9,2.4,2.7,4.8,5.4,7.2,8.1,2.4,2.7,4.7,5.5,7,8.3,2.3,2.8,4.5,5.6,6.8,8.5,2.2,2.8,4.4,5.7,6.6,8.6,2.2,2.9,4.3,5.8,6.3,8.8,2.1,3,4.1,5.9,6.1,8.9,2,3,4,6,5.9,9.1,1.9,3.1,3.8,6.1,5.7,9.2,6.1,10.3,11.5,20.8,16.9,31.5,45.8,111.3,49.4,246,33.4,364.3-12.4,54.3-30.5,107.2-43.1,161.4-5.9,26.3-10.4,52.9-13.4,79.7-3,26.8-4.6,53.7-4.8,80.7,6.6,60.9,6,119,15,181.1,2.2,15.3,3.9,32.5,8.7,47.1l3.5,16.6c-28.8,39.7-65.8,70.2-115.5,77.9-26.4,4.1-54.5,2.6-80.8-1.5-28.5-4.5-53.1-14.3-80.6-22-3.2-.9-5.9-1-9.1,0l-10-34.2c-32.7,6-65.5,10.5-98.6,13.7-60.6,5.2-121,7.9-181.9,5.9-23.7-.8-47.3-1.8-71-3.1-4.2,56.2-9.8,112-15.4,168.1-90.3,38.9-151.9,40.5-248.3,26.3-38.4-47.6-71.3-102.3-98-157.1-10.9-22.4-18.7-47.2-31.2-68.8-72.8-9.1-145.4-25-217.9-36.7-158.4-25.6-352.9-44.2-509.8-.9-33,9.1-64,22.3-94.8,37.1-18.1,11.1-35.6,23.2-51.5,37.3,38.6,78,97.2,145.9,159.5,206.2,9.6,9.3,19.3,18.4,29.1,27.4s19.8,17.8,29.9,26.6c10.1,8.7,20.3,17.3,30.6,25.7,10.3,8.4,20.7,16.7,31.3,24.9,10.5,8.1,21.2,16.1,32,24,10.8,7.8,21.6,15.5,32.6,23.1,11,7.5,22.1,14.9,33.3,22.2,11.2,7.2,22.5,14.3,33.9,21.2,11.4,6.9,22.9,13.7,34.4,20.3,11.6,6.6,23.2,13,35,19.3,11.8,6.3,23.6,12.4,35.5,18.3,11.9,5.9,23.9,11.7,36,17.3,12.1,5.6,24.2,11.1,36.5,16.3,12.2,5.3,24.5,10.4,36.9,15.3,12.4,4.9,24.8,9.7,37.3,14.3,12.5,4.6,25.1,9,37.7,13.2,86.2,29.2,175,51.6,262.7,75.7l-3.7,3.9c-28.4,4.4-72-4.5-100.8-8.5-104-14.4-210.5-33.9-311.3-64-32-9.7-63.9-20.1-95.5-31.1-21.1-7.5-42-16.3-63.4-22.7-16-7.9-33.5-13.9-49.9-20.9-38.3-16.2-76.6-32.9-113.6-51.8-163.9-83.9-342.6-210.5-401.1-393.9-25.9-81.3-17.8-166.5,21.5-242.2,101.1-194.9,382.6-271,582.1-304.3,60-10,120.9-14.1,180.9-24.3,40.6-6.7,80.9-14.9,121-24.5,40-9.6,79.7-20.7,118.9-33.2,330.8-103.4,613.5-286,777.4-599.3Z"/>
  <path class="st0" d="M671,3184.8c-11.9-15.9-19.2-44.2-21.9-63.9-3.7-27.9,4-49.4,20.8-71.1,4.6,19.8,11,40,23.1,56.6,9.2,12.7,24.6,26.2,29.5,41-18.1,11.1-35.6,23.2-51.5,37.3Z"/>
  <path class="st6" d="M1176.7,2887.1c7.1-.3,14.5.4,21.3,2.7,9.6,3.2,18,9.5,22.1,19,3.9,8.9,3.1,19.2-1,27.9-7.2,15.1-19.6,21.6-34.7,27.1-10.2.8-19.5,1.2-28.9-3.3-8.2-3.9-14.7-10.7-17.4-19.5-3-9.7-1.3-20,3.6-28.9,7.8-13.9,20.3-20.5,35-25Z"/>
  <path class="st6" d="M2067.1,2387.1c10.1-1.6,17.4-.9,27.2,2.8,7.6,2.9,13.5,6.8,16.5,14.7,4.7,12.2.8,28.8-4.3,40.3-14,31.4-44.4,54-75.9,65.5-9.6,1.7-17.9,1.3-27.4-1.4-6.2-1.8-10.6-4.7-13.5-10.8-4.9-10.2.1-26.6,4-36.3,13.4-33.2,40.5-61.2,73.4-74.8Z"/>
  <path class="st0" d="M2159.9,2760c-2.9-29.6,0-62.1,1.8-91.8,8.7-145.8,48.2-268.4,135-387.3-74.2,159-73.9,270.4-75.9,442-19.8,12.4-40,26.9-60.8,37.2Z"/>
  <path class="st6" d="M965.8,2795.3c16.8-1.3,33.4.8,48.3,9.1,12.8,7.1,20.9,18.1,24.7,32.1,5,18.7,1.7,37.4-7.9,54-21.3,36.9-61.3,61.4-101.7,71.8-19.6,3.1-41.5,4-59.1-6.8-10.4-6.4-16.7-16.3-19-28.2-4.6-23.6,4.7-48,17.9-67.3,22.8-33.4,57.2-57,96.9-64.6Z"/>
  <path class="st6" d="M2231.5,2871.8c51.5,47.7,131.2,102.4,197.4,124.4,46.4-28.1,90.3-59.9,129.3-97.9,6.6,60.9,6,119,15,181.1,2.2,15.3,3.9,32.5,8.7,47.1l3.5,16.6c-28.8,39.7-65.8,70.2-115.5,77.9-26.4,4.1-54.5,2.6-80.8-1.5-28.5-4.5-53.1-14.3-80.6-22-3.2-.9-5.9-1-9.1,0l-10-34.2c-16.7-70.6-34-140.5-46.5-212.1-4.5-26-10.1-52.8-11.3-79.2Z"/>
  <path class="st6" d="M2220.7,2722.8c1.9,49.5,4.1,99.9,10.8,149,1.2,26.4,6.8,53.2,11.3,79.2,12.5,71.6,29.8,141.5,46.5,212.1-32.7,6-65.5,10.5-98.6,13.7-60.6,5.2-121,7.9-181.9,5.9-23.7-.8-47.3-1.8-71-3.1,2.7-51.1.4-109-11.1-158.7-4.7-20.4-13.8-40.5-17.3-61.1l-.6-3.6c-14.8-25-26.9-51.4-42.7-75.9,52.4-22,107.7-38.3,160.7-58.8,45.3-17.5,89-39.1,132.7-60l.2-1.3c20.9-10.3,41-24.8,60.8-37.2Z"/>
  <path class="st10" d="M1908.9,2956c48.1,64.9,82.9,147.5,100,226.6-23.7-.8-47.3-1.8-71-3.1,2.7-51.1.4-109-11.1-158.7-4.7-20.4-13.8-40.5-17.3-61.1l-.6-3.6Z"/>
  <path class="st10" d="M2220.7,2722.8c1.9,49.5,4.1,99.9,10.8,149,1.2,26.4,6.8,53.2,11.3,79.2,12.5,71.6,29.8,141.5,46.5,212.1-32.7,6-65.5,10.5-98.6,13.7-2.5-4-28.4-376.1-31.1-415.4l.2-1.3c20.9-10.3,41-24.8,60.8-37.2Z"/>
  <path class="st8" d="M1545,3147.9c-3.8-17.3-11-34.2-16.2-51.2-17-55.8-28.1-116.4-20.8-174.6,6.5-51.4,31.6-105.7,73.5-137.6,33.2-25.3,76.1-33.4,117-27.4,74.7,10.9,125.2,65.1,167.8,123.1,15.7,24.5,27.9,50.8,42.7,75.9l.6,3.6c3.4,20.6,12.5,40.7,17.3,61.1,11.5,49.7,13.8,107.6,11.1,158.7-4.2,56.2-9.8,112-15.4,168.1-90.3,38.9-151.9,40.5-248.3,26.3-38.4-47.6-71.3-102.3-98-157.1-10.9-22.4-18.7-47.2-31.2-68.8Z"/>
</svg>