<?xml version="1.0" encoding="UTF-8"?>
<svg id="_x2014_ÎÓÈ_x5F_1" xmlns="http://www.w3.org/2000/svg" xmlns:xlink="http://www.w3.org/1999/xlink" version="1.1" viewBox="0 0 4000 4000">
  <!-- Generator: Adobe Illustrator 29.2.1, SVG Export Plug-In . SVG Version: 2.1.0 Build 116)  -->
  <defs>
    <style>
      .st0 {
        fill: #7d100f;
      }

      .st1 {
        fill: #0d0908;
      }

      .st2 {
        fill: #302726;
      }

      .st3 {
        display: none;
      }

      .st3, .st4 {
        fill: #fefefe;
      }

      .st5 {
        fill: #fcc905;
      }

      .st6 {
        fill: #b90b03;
      }

      .st7 {
        fill: #f97d09;
      }

      .st8 {
        fill: url(#_ÂÁ_Ï_ÌÌ_È_ËÂÌÚ);
      }

      .st9 {
        fill: #fcad13;
      }
    </style>
    <linearGradient id="_ÂÁ_Ï_ÌÌ_È_ËÂÌÚ" data-name="¡ÂÁ˚ÏˇÌÌ˚È „‡‰ËÂÌÚ" x1="1269.8" y1="2455.9" x2="1279.3" y2="2475.2" gradientTransform="translate(-3830.1 10933.1) scale(3.9 -3.9)" gradientUnits="userSpaceOnUse">
      <stop offset="0" stop-color="#000"/>
      <stop offset="1" stop-color="#1f1417"/>
    </linearGradient>
  </defs>
  <path class="st3" d="M0,0h4000v4000H0V0Z"/>
  <path class="st0" d="M637.8,769.7c103.5-35.2,220.4-33.3,324.7-4.9l-1.1,9.3-10.4-1.3c-44.7-28.6-175.8-24.7-227.4-17.5-27.4,3.9-55.7,13.9-83.4,14.4-.8,0-1.6,0-2.5,0Z"/>
  <path class="st2" d="M341.1,897.4c12.5-27.2,29.8-50.3,51.6-70.9,22.3-21.1,53.6-41.5,85.5-40.6,21.3,3.5,28.3,12,41.7,28-7.4,9.4-25.6,17.9-36,24.5-28.8,21.6-54.3,45.3-81.7,68.4-20.4,2-43.4,2.9-61-9.4Z"/>
  <path class="st1" d="M478.2,785.9c21.3,3.5,28.3,12,41.7,28-7.4,9.4-25.6,17.9-36,24.5-8.1-13.9-10.8-34.1-9.1-49.9l3.4-2.6Z"/>
  <path class="st1" d="M2428.9,3270.3c4.1-4.3,8.2-8.5,12.7-12.3,48.2-40.4,114.4-55.3,175.8-49.6-.7,26.9-3.6,49.3-13.2,74.5,24.3,7.7,43.8,16.2,56.3,40,12,22.8,14.2,52.3,6.3,76.7-2.3,7.1-9.3,24.8-16.9,27.6-.7.3-1.5.3-2.2.4,1.2-6.2,2.8-13.2,1.2-19.5-2.2-8.7-9.3-16-16.9-20.5-38-22.3-102.7-6.4-142.4,4.1,10.2-35.2,29.1-59.1,53.9-85.5-5.3-5.4-10.6-11-16.5-15.6-28.1-22.4-64.2-23.2-98.2-20.2Z"/>
  <path class="st1" d="M3165.9,1731l1.4-5.3c28-.2,139.5,98.4,164.5,123,55.3,54.2,120.9,140.1,143.7,215.2l-2.1,5.6c-17.1,22.2-62,78.7-85.9,88.4,2.6-10.8,5.1-21.5,6.3-32.5,16.2-146.2-144.3-290-227.9-394.3Z"/>
  <path class="st2" d="M3629,528.9c-15.4,12-30.3,24.4-45,37.2-149,131.3-281.2,306.2-293.2,511.4-13.1,222.5,131.9,381.9,269.4,537-21.3-7.2-43.8-10.4-65.1-17.8-47-16.3-91.3-43.2-133.9-68.4,9,15.9,69.4,117,67.3,123.3-.3,1-.9,1.8-1.3,2.8,60.6,79.6,106,173.5,91.9,275.7-6.6,47.7-22.4,90.9-43.6,133.8-22.8-75-88.4-160.9-143.7-215.2-25-24.5-136.5-123.2-164.5-123l-1.4,5.3c-13.8-11.7-26.8-31.5-38.1-45.7-66.2-83.7-124-177.7-153.9-280.8-42.8-147.2-18.5-294.8,54.6-427.2,77-139.5,197.7-256.4,335.8-335.4,24.9-14.3,51.3-26.3,77.1-38.9,63.9-31.1,119.2-54.4,187.7-74.1Z"/>
  <path class="st7" d="M3239,1226.6c17.9,17.9,34.8,34.6,55.9,48.9,15.2,38.7,31.1,75.1,52.8,110.7-31.4-8.1-55.8-20.2-81.1-40.7,2-22.6-16.3-60.6-22.3-83.4-3.1-11.7-4.3-23.5-5.3-35.6Z"/>
  <path class="st5" d="M3427.2,1654.3c-15.8-17.7-42.5-50.6-68-51.4-7.5-.3-15.3,2.4-20.6,7.7-29.6,29.1,22,120.4,20.6,158.7-.2,6.5-1.8,10.4-6.6,15-6.4,2.5-11,2.9-17.7.7-19.7-6.4-38.1-27.1-52.8-41.4-78.6-76.3-149.6-167.5-198.3-265.9-64.4-130-83.1-269.2-35.7-408.6,41-120.4,115.7-218.3,209.4-302.3,41.4-37.1,85.9-71.9,136.1-96.4-62.3,74.6-121.5,165.8-145.1,260.9-7.3,29.4-10.1,59-12.9,89.1-11.2-31-16.1-73.9-26.7-99.2-3-7.1-6.1-10.8-13.4-13.8-3.4.2-6,.2-9,2.3-19.9,13.9-27.9,65-30.4,87.4-9.7,89.3,28.6,161.8,83,229.4,1,12.1,2.2,23.8,5.3,35.6,6,22.8,24.3,60.8,22.3,83.4-16.8-12-61.1-53.5-80-50.8-5.6,3-8.8,5.6-10.8,12.1-6.7,22.5,13.3,58.3,24.5,77.2,37.1,62.5,99.6,107.1,160.9,144.2,9,15.9,69.4,117,67.3,123.3-.3,1-.9,1.8-1.3,2.8Z"/>
  <path class="st1" d="M1558.2,2198.5c46.9,31.7,88.4,75.7,121.3,121.6,19.1,26.6,54.4,96.5,77.3,111.6l1.5-.4c101.3-72.1,229.8-92.8,351-72.6,145.3,24.3,278.5,110.7,363.3,231,2.7,3.8,5.3,7.6,7.4,11.7,1.5-4.9,3.9-6.1,7.9-9l1.9,1.5c.8,16.8,2.3,33.5,4.5,50.2,2.2,16.7,5.1,33.2,8.6,49.6,3.6,16.4,7.8,32.7,12.7,48.7,4.9,16.1,10.5,31.9,16.7,47.5,13.2,34.2,28.8,66.8,46,99.2,22,41.5,111.4,177,101.9,215.6l-3.3,2.7c-28.9-92.3-96.4-158.9-148-238.1-13.1-20.1-23.6-41.4-33.9-63-28.3-10.3-57.4-17.8-84.9-30.1-30.9,130.1-114.7,251.9-229.2,322.5-55.9,34.5-120.1,49.9-184.7,34.7-1.7-.4-3.5-.8-5.2-1.3-4.1,1.7-6.1,3.3-9.1,6.5-3-6-.9-12.1,1.2-18.2,3.7-10.5,8.6-20.5,13.5-30.4-29.3-24.6-63.2-32.4-100.8-28.8-13,1.3-25.8,3.8-38.4,7.3,16.5-35.4,36.8-66.3,71-86.8-22.9-20.3-43.3-35.6-75.3-36.3,45.6-29.6,95.2-40.9,149-29.6,21.3,4.5,39.7,13.2,58.7,23.5,21.7-15.4,57.5-41.4,63-69.1,5.3-26.4-11.1-54.5-25.8-75.3-19.3-27.3-42.8-51.5-66.8-74.6-79.6,7.9-157.6,14.4-237.7,15-1.4,11.3-2.9,22.5-4.7,33.7-1.7,11.2-3.6,22.4-5.6,33.6-2,11.2-4.3,22.3-6.6,33.4-2.4,11.1-4.9,22.2-7.6,33.2-2.7,11-5.6,22-8.6,32.9-3,10.9-6.2,21.8-9.6,32.7-3.4,10.8-6.9,21.6-10.5,32.4-3.7,10.7-7.5,21.4-11.5,32-4,10.6-8.1,21.2-12.4,31.7-4.3,10.5-8.8,20.9-13.4,31.3-4.6,10.4-9.4,20.7-14.3,30.9-4.9,10.2-10,20.4-15.2,30.5-5.2,10.1-10.6,20.1-16.1,30-5.5,9.9-11.2,19.8-17,29.5-5.8,9.8-11.7,19.4-17.8,29-6.1,9.6-12.3,19.1-18.7,28.5,36.5,56.6,51.8,112.8,45,180.5-23.3-32.8-60.9-51.3-95.7-69.4-7.9-6.7-16-10.3-25.6-14,21.4-30.3,31.5-55.6,35.2-92.6,1.5-14.6,2.5-27.8,8.2-41.5,5.6-13.5,14.2-26.3,21.4-39,13.3-23.4,26.1-47.1,38.4-71,51.3-100.4,115.7-258.9,124.9-370.9,13.3-162-62.6-334.2-153.6-464.4-14.2-20.3-28-41-44-59.9Z"/>
  <path class="st7" d="M1756.9,2431.7l1.5-.4c31.4,35.9,65.8,69.1,106,95.1,104.3,67.7,242.1,87.3,363.5,99.4,82.3,8.3,165.3,16.4,242.8,47.6-.4,40.4,6.6,77.5,17.7,116.1-94.1-29.5-183.7-71.3-282.3-85.4-82.7-11.8-166,2.7-248.3,11.5-54.2,6.3-108.5,8.8-163.1,7.6,2.7-101.1-22.5-182.4-55.8-276.1l18.1-15.4Z"/>
  <path class="st5" d="M1758.4,2431.3c101.3-72.1,229.8-92.8,351-72.6,145.3,24.3,278.5,110.7,363.3,231,2.7,3.8,5.3,7.6,7.4,11.7-6.5,23.7-9.5,47.4-9.4,72-77.6-31.2-160.5-39.3-242.8-47.6-121.3-12.2-259.1-31.8-363.5-99.4-40.2-26.1-74.6-59.2-106-95.1Z"/>
  <path class="st7" d="M3361.2,1528.3c42.6,25.2,86.9,52.1,133.9,68.4,21.3,7.4,43.9,10.6,65.1,17.8,34.6,36.8,70.2,73.3,102.1,112.6,85.3,104.7,164.7,243.9,190,377.9,34.2,137,5.2,277.1-66.9,396.9-106.1,176.2-289.4,306-488.2,354.9-141.2,34.7-304.2,43-447.7,17.5-10.6-18.3-20.7-60-28.3-82.2-7-20.8-15-41.2-24-61.1-9-20-19-39.5-29.9-58.5,6.8-71.3,10.8-143.9,7.5-215.4-1.3-27.6-13.5-73.2-10.5-97.9-4.7-5.9-7.6-13.4-10.9-20.1-8.2,12.4-22.1,23-34.1,31.7-52.5,38.2-125.3,64.4-190.9,52.7-7.9-1.4-17.9-4.3-22-12-4.4-8.3.6-18.7,4.9-26,11.8-20.1,31.1-36.4,47-53.2,17.7-18.4,34.2-37.8,49.5-58.2,20.1-27.4,36.7-57,45.7-89.9,9.8,8.2,18.9,18.1,28.1,27.1-7.9-12.9-16.8-25.2-25.5-37.5-33.5-42-67-84.1-104.8-122.3-23-23.2-48.3-43.7-71.5-66.6.8-23.5,4.3-47.5,6.8-71l-.4-12.5,1.2-13.5c66.3,48.7,128.5,111.8,184.1,172.4,22.2,24.2,42.3,51.5,66,74.2,16.7,16,36.1,29.7,54.4,43.8,27.9,21.4,55.8,42,86.4,59.5,90.3,51.4,205.9,83.7,309.8,68.1,7.9-1.2,15.7-2.6,23.4-4.4,7.7-1.8,15.4-3.9,23-6.3,7.6-2.4,15-5.1,22.4-8.1,7.4-3,14.6-6.3,21.7-9.9,11.3-5.8,22.3-13.5,33.9-18.4,37.3-29.3,58.2-56.2,75.1-100.5,23.9-9.7,68.8-66.2,85.9-88.4l2.1-5.6c21.3-42.9,37.1-86.1,43.6-133.8,14-102.2-31.3-196.1-91.9-275.7.4-.9,1-1.8,1.3-2.8,2.1-6.2-58.3-107.4-67.3-123.3Z"/>
  <path class="st1" d="M3623.1,2061.6c21.9,63.6,8.9,132.3-19.8,191.7-29.3,60.7-101.1,141.7-165.4,165.4l-1-1.9c1.2-1.2,2.4-2.5,3.6-3.7,1.8-1.7,3.6-3.3,5.2-5.2,9.8-11,17.2-25.3,24-38.3,29.2-55.6,41.1-113.6,37.8-176.1,55.9-38.5,85.7-70.7,115.6-131.9Z"/>
  <path class="st1" d="M2809.6,2621.8c8.6,4.9,17.3,9.5,26.2,14,8.8,4.4,17.8,8.7,26.8,12.7,9,4,18.2,7.8,27.4,11.4,9.2,3.6,18.5,6.9,27.9,10,9.4,3.1,18.9,6,28.4,8.7,9.5,2.7,19.1,5.1,28.8,7.3,9.6,2.2,19.3,4.2,29.1,5.9,9.7,1.7,19.5,3.2,29.3,4.5,198.3,26.7,413.7-19.7,573.8-142.8,146.5-112.7,221.9-268,245.1-448.4,34.2,137,5.2,277.1-66.9,396.9-106.1,176.2-289.4,306-488.2,354.9-141.2,34.7-304.2,43-447.7,17.5-10.6-18.3-20.7-60-28.3-82.2-7-20.8-15-41.2-24-61.1-9-20-19-39.5-29.9-58.5,6.8-71.3,10.8-143.9,7.5-215.4-1.3-27.6-13.5-73.2-10.5-97.9,32,58.1,44.2,194.3,45.3,262.7Z"/>
  <path class="st2" d="M2487.4,1887.6c66.3,48.7,128.5,111.8,184.1,172.4,22.2,24.2,42.3,51.5,66,74.2,16.7,16,36.1,29.7,54.4,43.8,27.9,21.4,55.8,42,86.4,59.5,90.3,51.4,205.9,83.7,309.8,68.1,7.9-1.2,15.7-2.6,23.4-4.4,7.7-1.8,15.4-3.9,23-6.3,7.6-2.4,15-5.1,22.4-8.1,7.4-3,14.6-6.3,21.7-9.9,11.3-5.8,22.3-13.5,33.9-18.4,37.3-29.3,58.2-56.2,75.1-100.5,23.9-9.7,68.8-66.2,85.9-88.4,14.6,40,24.4,82.5,33.2,124.1h.9c3.3,62.5-8.6,120.5-37.8,176.1-6.8,13-14.2,27.3-24,38.3-1.6,1.9-3.4,3.4-5.2,5.2-1.2,1.2-2.4,2.5-3.6,3.7l1,1.9-16.7,8c0,.8,0,1.5-.2,2.3-4.2,16.2-51.5,54.2-65.6,63.9-71.2,48.6-154.4,56.5-237.2,39.6-114-23.3-233.5-90.1-312.3-176.3-33.4-36.6-61.6-79.7-88.8-121,9.3,35.2,20.3,71.1,36.3,103.9-8.2,12.4-22.1,23-34.1,31.7-52.5,38.2-125.3,64.4-190.9,52.7-7.9-1.4-17.9-4.3-22-12-4.4-8.3.6-18.7,4.9-26,11.8-20.1,31.1-36.4,47-53.2,17.7-18.4,34.2-37.8,49.5-58.2,20.1-27.4,36.7-57,45.7-89.9,9.8,8.2,18.9,18.1,28.1,27.1-7.9-12.9-16.8-25.2-25.5-37.5-33.5-42-67-84.1-104.8-122.3-23-23.2-48.3-43.7-71.5-66.6.8-23.5,4.3-47.5,6.8-71l-.4-12.5,1.2-13.5Z"/>
  <path class="st9" d="M3473.3,2069.4c14.6,40,24.4,82.5,33.2,124.1-47.7,35.4-134.5,60.5-194.2,64.8,37.3-29.3,58.2-56.2,75.1-100.5,23.9-9.7,68.8-66.2,85.9-88.4Z"/>
  <path class="st5" d="M2658.1,2069.4c26.3,22.2,53.5,47.5,74.4,75,23.6,31,137.5,222,167.2,221.1,10.5-4.3,15-13.6,19.3-23.7,8.5-19.9,11.9-41.4,14.6-62.7,21.5,7.6,43.8,14.5,64.9,23.1,44.1,70.3,134.3,120.6,213.7,138.7,73.3,16.7,138.2,8.4,208.9-14.3,0,.8,0,1.5-.2,2.3-4.2,16.2-51.5,54.2-65.6,63.9-71.2,48.6-154.4,56.5-237.2,39.6-114-23.3-233.5-90.1-312.3-176.3-33.4-36.6-61.6-79.7-88.8-121,9.3,35.2,20.3,71.1,36.3,103.9-8.2,12.4-22.1,23-34.1,31.7-52.5,38.2-125.3,64.4-190.9,52.7-7.9-1.4-17.9-4.3-22-12-4.4-8.3.6-18.7,4.9-26,11.8-20.1,31.1-36.4,47-53.2,17.7-18.4,34.2-37.8,49.5-58.2,20.1-27.4,36.7-57,45.7-89.9,9.8,8.2,18.9,18.1,28.1,27.1-7.9-12.9-16.8-25.2-25.5-37.5,2.4-34.7,3.1-69.4,2.1-104.1Z"/>
  <path class="st2" d="M637.8,769.7c.8,0,1.6,0,2.5,0,27.6-.5,55.9-10.6,83.4-14.4,51.6-7.2,182.6-11.1,227.4,17.5l10.4,1.3,1.1-9.3c153.4,48.1,279.2,156.1,356.9,296.1,36.2,64.8,62.3,131,83.2,202.2,10.6,36.4,20.3,73.1,29.4,109.9,25,98.5,52.4,168.2,157.8,198.6,11.5,3.2,23.2,5.8,35,7.8,86.1,12.6,172.4,22.6,257.6,41.2,21.9,4.8,43.7,9.9,65.4,15.6,21.7,5.6,43.3,11.7,64.7,18.2,21.5,6.5,42.8,13.4,64,20.7,21.2,7.3,42.2,15.1,63.1,23.3,20.9,8.2,41.6,16.8,62.1,25.8,20.5,9,40.9,18.4,61,28.3,20.2,9.8,40.1,20.1,59.8,30.7,19.7,10.6,39.3,21.6,58.6,33,36.1,21.6,73.8,44.4,106.2,71.5l-1.2,13.5.4,12.5c-2.5,23.4-6,47.4-6.8,71,23.2,22.9,48.6,43.4,71.5,66.6,37.8,38.2,71.3,80.3,104.8,122.3,8.7,12.4,17.6,24.6,25.5,37.5-9.2-9-18.2-18.9-28.1-27.1-9,32.9-25.6,62.5-45.7,89.9-15.3,20.5-31.8,39.9-49.5,58.2-15.9,16.8-35.2,33.1-47,53.2-4.3,7.3-9.3,17.7-4.9,26,4.1,7.7,14,10.6,22,12,65.6,11.7,138.4-14.4,190.9-52.7,12-8.7,25.9-19.3,34.1-31.7,3.3,6.7,6.2,14.3,10.9,20.1-3,24.7,9.3,70.3,10.5,97.9,3.3,71.6-.7,144.2-7.5,215.4,10.9,19,20.9,38.5,29.9,58.5,9,20,17,40.4,24,61.1,7.6,22.2,17.7,63.9,28.3,82.2,0,1.2.2,2.5.3,3.7,2.8,31.9,16.6,73.4,21.4,107.7,17.8,125.8,2,279.6-80.5,381-41.4,50.9-98.6,79.9-162.4,92.8,8.1-10.1,13.9-20.1,19.2-31.9.7-.1,1.5-.2,2.2-.4,7.6-2.8,14.6-20.5,16.9-27.6,7.9-24.4,5.7-53.9-6.3-76.7-12.5-23.8-32-32.3-56.3-40,9.6-25.2,12.5-47.6,13.2-74.5,14.3,2.2,28.4,6.4,42.4,10.1,4-5.6,7.9-11.4,11.6-17.2,19.5-31.4,13.2-60.1,5.3-93.8l3.3-2.7c9.5-38.6-79.9-174.1-101.9-215.6-17.2-32.4-32.7-65-46-99.2-6.2-15.6-11.8-31.5-16.7-47.5-4.9-16.1-9.1-32.3-12.7-48.7-3.6-16.4-6.4-33-8.6-49.6-2.2-16.7-3.7-33.4-4.5-50.2l-1.9-1.5c-4,2.9-6.4,4.1-7.9,9-2.2-4.1-4.8-7.9-7.4-11.7-84.8-120.3-217.9-206.7-363.3-231-121.2-20.2-249.7.5-351,72.6l-1.5.4c-22.9-15.1-58.2-85.1-77.3-111.6-32.9-45.9-74.5-89.9-121.3-121.6,16,18.9,29.8,39.6,44,59.9,91,130.2,166.9,302.4,153.6,464.4-9.2,112-73.6,270.5-124.9,370.9-12.3,23.9-25.1,47.6-38.4,71-7.2,12.8-15.8,25.5-21.4,39-5.7,13.7-6.8,26.9-8.2,41.5-3.7,37.1-13.8,62.3-35.2,92.6,9.6,3.7,17.7,7.3,25.6,14-11.2,3.8-22.2,7.7-32.9,12.8-45.6,21.8-79.4,56.8-96.5,104.6-32.1-39.4-46.6-93.1-60-141.2-50.5-5.1-107.4-6.6-151.2,22.6,2.6-12.5,6.3-24.7,11.1-36.5,32-80.5,103.5-127.4,179.7-160.5,32.8-51.9,71-162.6,86.5-223,5.2-20.2,8-40.9,13.1-61.2,7.2-87.9,1.9-131.8-51.8-204.6-107.2-40.5-191.9-81.8-289.4-141.4-47.6,12.4-98.6,40.4-138.6,68.1-68,47.1-128.9,119.4-143.9,202.5,4.9,2.4,9.7,5,14.3,7.9,60.1,38.2,91.1,93.9,106,162.2-43.6-19.4-87.4-20.8-134.2-18.8-28.9,39.4-43,85.6-51.9,132.9-16.1-16-29.7-34.7-44.2-52.1-19.1-22.8-39.3-43.4-61.5-63.1-48.5,7.7-90.4,29.6-125.6,63.5-2.9-16-4.1-32-3.5-48.2.1-4.4.4-8.7.7-13.1.4-4.3.8-8.7,1.4-13,.6-4.3,1.3-8.6,2-12.9.8-4.3,1.7-8.6,2.7-12.8,1-4.3,2.1-8.5,3.3-12.7,1.2-4.2,2.5-8.4,3.9-12.5,1.4-4.1,2.9-8.2,4.5-12.3,1.6-4.1,3.3-8.1,5.1-12,1.8-4,3.7-7.9,5.7-11.8,2-3.9,4.1-7.7,6.3-11.5,2.2-3.8,4.5-7.5,6.9-11.1,2.4-3.7,4.9-7.3,7.4-10.8,2.6-3.5,5.2-7,7.9-10.4,2.7-3.4,5.5-6.7,8.4-10,2.9-3.3,5.9-6.5,8.9-9.6,3.1-3.1,6.2-6.2,9.4-9.1l.3-2.9c15.8-147.3,84.3-291.5,182.7-401.1,15.6-17.3,31.6-36.9,49.8-51.5,6.9-7.8,14.9-14.1,22.9-20.6-56.9-81.8-95.6-171.4-129-264.9-14.7-41.6-28.2-83.6-40.6-125.9-9.4-31.1-17.4-63.6-31.3-93-17.3-36.4-42.4-70.2-69.8-99.6-14.1-15.1-29.1-31.1-45.8-43.3-28.4-20.8-79.9-26.7-114.5-39.8-61.1-23-164.3-73.2-215.8-110.6-64.1-46.5-100.7-122.8-112.6-199.6-.6-2.7-1.1-5.4-1.5-8.2-18.5-137.8,25.3-151.5,103.3-245.4,27.8-33.5,49.7-72,76.7-106.3-3.7-33.7-8.6-48.3,2.7-82.9,17.6,12.2,40.6,11.3,61,9.4,27.4-23.1,52.9-46.8,81.7-68.4,10.4-6.6,28.6-15.1,36-24.5,9.7-6.1,21.4-11.5,32.5-14.3,27.6-11.8,56.1-23.5,85.5-29.8Z"/>
  <path class="st1" d="M455.1,1254.7c20.4.3,32.9,2.1,49.7,14.9-15.2-1-30.5-1.3-45.5,1.8-19.2,4-33.6,11.9-44.7,28.3-6,12-4.9,24.3-4.7,37.3-5.3-9.6-10.9-19.9-12.6-30.9-1.6-10.8.2-21.5,7.1-30.2,11.9-14.9,32.6-19.5,50.7-21.2Z"/>
  <path class="st1" d="M1548.4,1567.5c20.7-1.2,48.7,11.7,66.7,21.5l1.2,1.3c14.2,15.2,29.7,30.3,41.4,47.5-31.1,4.3-67.1,3.2-96.9,11.9-.9-28-2.5-55.8-12.4-82.2Z"/>
  <path class="st1" d="M1043.3,928c28.3-1.2,55.1.3,83.2,3.8,37.4,8.1,73,17.4,109.1,30.3,38.1,14.5,58.1,68.5,81.4,100.1,5.4,11.4,24.8,44.2,21.8,55.8-.2.8-.6,1.6-.9,2.4-29.7-22.5-71.4-32.8-107-42.1-58.4-17.9-147.7-10.7-205.5,7.3-15.9,4.9-35.1,17.5-51.2,18.1,2.2-2.7,1.5-2.1,4.2-4.3,36.6-30.1,139-39,184.8-38.6,20.7.2,41.4,2.8,62,4.9-12.1-19-23.1-38.8-35-57.9-35.7-56.9-41-66.7-108.4-73-12.2-1.1-24.9-1.2-36.8-3.9l-1.5-2.8Z"/>
  <path class="st1" d="M1289.5,1317.7c53.3,20.9,76.6,49.5,120.3,76.5l6.3,5.3c0,61.6-5.9,120.3-20.6,180.1-12.6,39.6-27.5,77.5-47.3,114.1-1-3.8-1.7-7-.6-10.9,4.4-16.3,14.6-34.1,21-49.8,8.8-21.7,15-44.1,21.1-66.7-33.2-35.6-71-66.9-107.4-99.1,6.9-31.5,18.9-111.6,7.6-142.6-1.7-4.6-1.6-1.9-.2-6.9Z"/>
  <path class="st9" d="M2640.7,2669.3c.9,0,1.9,0,2.9.1,21.6,2.3,42.7,30.3,55.1,46.5,56.1,73.4,107.5,189,92.9,283.6-1.6,10.2-5.2,21.3-14.2,27.3-6.2,4.1-11.8,3.1-18.6,1.9-33.3-13.8-62.5-37.3-87.3-63.1-46.7-48.7-72.5-110.6-70.4-178.4,1.2-39.1,9.8-90.2,39.6-118.1Z"/>
  <path class="st5" d="M2208,1890c90,37.6,175.6,87.9,257.6,140.3-25.8,89.2-79.6,181.4-149.1,243-8.8,7.8-21.1,18.2-33.6,16.8-3.6-.4-2.5-.2-5-2.9l1.5-2.2-2.3.4c-13.1-32-15.8-69.5-20.8-103.7l-18.5-125.2c-8.8-55.7-21.2-110.8-29.9-166.5Z"/>
  <path class="st5" d="M1395.4,1579.6c32,26.3,62.2,61.7,100,79.4l2.9-.2c15-1,47.8-10.9,59.8-6.3l1.5,5c-9.1,86-45.5,156.2-112.8,210.7-36.7,29.7-113.3,82.6-162.9,76.4-10.5-1.3-19.9-5.4-26-14.3-11.2-16.2-11-44.6-6.8-63,14.9-65.9,70.9-113.5,97.1-173.7,19.8-36.6,34.7-74.5,47.3-114.1Z"/>
  <path class="st5" d="M1491.4,2641c-2.6-49.8,21.8-106,55.2-142.4,7.3-8,18.8-17.8,30.4-17.5,12.1.3,22.6,11,30,19.6,44.7,52.3,89.7,169.3,84.2,236.9-4.6,56.5-45.4,143.9-88.1,181.1-5.5,4.8-13.2,9.8-20.9,8.7-11.3-1.6-20.8-16.2-25.9-25.2-19.6-34.3-25.8-70.2-36.9-107.3-1-40.4-19-111.7-28-153.9Z"/>
  <path class="st5" d="M1733.4,1747.1c26.1,6.2,52.7,9.6,78.9,15.6,50,11.7,99.5,25.2,148.5,40.7,20.4,6.3,43.2,11.4,62.5,20.2,14.6,55.6,13.8,122.2,5.2,178.8-12.1,79.8-46.3,179-115.4,227.8-8.6,6.1-22.4,12.4-33.2,9.3-16.7-4.7-21.4-33-23.9-47.8-8.4-49.3-8.5-100.4-14.7-150.1-12.9-103.3-55.6-205-107.8-294.4Z"/>
  <path class="st5" d="M974.3,1103.7c16.2-.6,35.4-13.1,51.2-18.1,57.8-17.9,147.1-25.1,205.5-7.3l.6,2.1c7.5,27.3,18.5,53.8,26.9,80.8,11.7,37.5,20,76.6,26.4,115.3,1.9,11.3,6.6,28.7,2.5,39.6l-13.6-4.6c-27.9,3.5-75.6-11.5-108.9-13.4-48.7-2.8-98,7.3-146.3,4.1l-8.2,8c-25.6,27.6-53.3,47.9-90.1,57.7-53.3,14.2-118,1.2-165-26.5-22-13-41.3-29.8-47.4-55.6-9.2-39,13.2-92.9,34.1-125.2,25.7-39.8,66.3-72.8,113.4-82.5,43.7-9,82.1,1.8,118.8,25.6Z"/>
  <path class="st9" d="M978.6,1106.6c11.3,11,21.4,21.9,29.9,35.3,31.1,49.4,25.9,101.5,13.5,155.9l-3.4,4.4-8.2,8c-1.3-17.8,7.6-36.2,9.9-54,5.3-41.4-2.8-72.6-19.9-110.2-6.3-13.8-12.5-27.2-21.7-39.4Z"/>
  <path class="st8" d="M1022,1297.9c82.1-12.9,173.3-17,251.8,13.7-27.9,3.5-75.6-11.5-108.9-13.4-48.7-2.8-98,7.3-146.3,4.1l3.4-4.4Z"/>
  <path class="st1" d="M797.2,1141c29.2-28.6,51.2-50.7,95.2-50.1,31.4.4,59.5,14.4,81.1,36.7,1.4,1.5,2.8,3,4.2,4.5,1.4,1.5,2.7,3.1,3.9,4.7,1.3,1.6,2.5,3.3,3.7,4.9,1.2,1.7,2.3,3.4,3.5,5.1,1.1,1.7,2.2,3.5,3.2,5.3,1,1.8,2,3.6,2.9,5.4.9,1.8,1.8,3.7,2.7,5.6.8,1.9,1.6,3.8,2.4,5.7.7,1.9,1.4,3.9,2.1,5.8.6,2,1.2,3.9,1.8,5.9.5,2,1,4,1.5,6,.5,2,.9,4,1.2,6,.3,2,.6,4.1.9,6.1.2,2,.4,4.1.6,6.1.1,2,.2,4.1.3,6.2,0,2.1,0,4.1,0,6.2-.9,33-14.9,66.8-39,89.6-23.7,22.4-54.7,32.8-87.1,31.3-32.4-1.5-60.5-15.8-81.9-39.8-14.9-16.6-25.8-37.3-28.7-59.6-7.2-15.1-9.3-29.6-6-46.1,3.9-19.5,15.2-40,31.8-51.5Z"/>
  <path class="st4" d="M880.9,1148.4c2.5,0,5.3,0,7.8.5,8.2,1.5,14.6,5.8,19,12.9,3.9,6.3,4.8,13.9,2.7,21-2.8,9.4-8.7,14.5-17.1,19.1-3.5,0-7.2,0-10.6-.7-7.4-1.5-13.1-6.1-17.1-12.3-4.1-6.5-5-14-2.8-21.4,2.9-10.1,9.3-14.5,18.2-19.2Z"/>
  <path class="st4" d="M771.5,1238.6c-7.2-15.1-9.3-29.6-6-46.1,3.9-19.5,15.2-40,31.8-51.5,20.3,6.4,38.3,12.8,48.5,33.3,6.7,13.6,7.2,30.2,1.8,44.3-5,12.8-14.8,23.5-27.5,28.9-10.6,4.4-23.6,4.8-34.2.2-5.1-2.2-9.8-5.8-14.2-9Z"/>
  <path class="st5" d="M637.8,769.7c.8,0,1.6,0,2.5,0,27.6-.5,55.9-10.6,83.4-14.4,51.6-7.2,182.6-11.1,227.4,17.5-20.9,3.8-41.9,7.2-62.5,12.3.9.4,1.7.9,2.6,1.3,17.4,8.5,45.2,11.8,64.8,19.2,42.5,16,152,81.4,169.6,122.1.9,2,.8,2.3,1,4.2-28.1-3.5-54.9-5-83.2-3.8-82.8.2-193.1,41.8-267.3,76.1-125.8,58.1-295.8,188.1-440,178.2-17.6-1.2-39.8-4.4-52.6-17.5-12.8-13.1-17.7-33.6-16.7-51.5,2.5-44,50.4-93.8,73.1-130.9l-1.5-2.1c-3.7-33.7-8.6-48.3,2.7-82.9,17.6,12.2,40.6,11.3,61,9.4,27.4-23.1,52.9-46.8,81.7-68.4,10.4-6.6,28.6-15.1,36-24.5,9.7-6.1,21.4-11.5,32.5-14.3,27.6-11.8,56.1-23.5,85.5-29.8Z"/>
  <path class="st1" d="M341.1,897.4c17.6,12.2,40.6,11.3,61,9.4-22.5,23.7-44.1,48.4-62.3,75.7l-1.5-2.1c-3.7-33.7-8.6-48.3,2.7-82.9Z"/>
  <path class="st2" d="M637.8,769.7c.8,0,1.6,0,2.5,0,27.6-.5,55.9-10.6,83.4-14.4,51.6-7.2,182.6-11.1,227.4,17.5-20.9,3.8-41.9,7.2-62.5,12.3-51,9.1-101.3,28.9-148.3,50.5-36.6,16.8-71.8,36.7-107.5,55.4-29.3,15.4-133.5,79.8-163.6,56.9-4.6-3.5-6.3-8.9-6.3-14.5.2-35.9,59-93,83.5-115.5,6.9-6.3,18.1-13.2,23.1-20.7-5.8.5-11.4,1.3-17.2,2.3,27.6-11.8,56.1-23.5,85.5-29.8Z"/>
  <path class="st6" d="M962.6,764.8c153.4,48.1,279.2,156.1,356.9,296.1,36.2,64.8,62.3,131,83.2,202.2,10.6,36.4,20.3,73.1,29.4,109.9,25,98.5,52.4,168.2,157.8,198.6,11.5,3.2,23.2,5.8,35,7.8,86.1,12.6,172.4,22.6,257.6,41.2,21.9,4.8,43.7,9.9,65.4,15.6,21.7,5.6,43.3,11.7,64.7,18.2,21.5,6.5,42.8,13.4,64,20.7,21.2,7.3,42.2,15.1,63.1,23.3,20.9,8.2,41.6,16.8,62.1,25.8,20.5,9,40.9,18.4,61,28.3,20.2,9.8,40.1,20.1,59.8,30.7,19.7,10.6,39.3,21.6,58.6,33,36.1,21.6,73.8,44.4,106.2,71.5l-1.2,13.5.4,12.5c-2.5,23.4-6,47.4-6.8,71,23.2,22.9,48.6,43.4,71.5,66.6,37.8,38.2,71.3,80.3,104.8,122.3,8.7,12.4,17.6,24.6,25.5,37.5-9.2-9-18.2-18.9-28.1-27.1-24.8-22.8-48.7-46.7-74.1-68.6-35.8-30.9-74.5-58.7-113.8-85-82.1-52.4-167.6-102.7-257.6-140.3-18.6-8.6-38.8-15.1-58.1-22.2-41.9-15.7-84.1-30.5-126.7-44.3-19.3-8.8-42.1-13.9-62.5-20.2-49-15.5-98.5-29-148.5-40.7-26.1-5.9-52.8-9.4-78.9-15.6-26.1-13.5-111.2-11.7-147.7-18.9,45.5-3.8,90.3-4.1,135.9-3.8-20.4-29-42.3-56.9-62.4-86l-1.4-.5c-11.7-17.2-27.2-32.3-41.4-47.5l-1.2-1.3c-18-9.8-45.9-22.7-66.7-21.5,9.9,26.4,11.5,54.2,12.4,82.2l-1.2,7.8-1.5-5c-11.9-4.6-44.8,5.3-59.8,6.3l-2.9.2c-37.8-17.8-68-53.2-100-79.4,14.7-59.8,20.7-118.5,20.6-180.1l-6.3-5.3c-43.7-27-66.9-55.6-120.3-76.5l-2.1-1.5c4.1-10.9-.6-28.3-2.5-39.6-6.4-38.7-14.7-77.8-26.4-115.3-8.4-27.1-19.4-53.5-26.9-80.8l-.6-2.1c35.6,9.3,77.3,19.6,107,42.1.3-.8.7-1.6.9-2.4,2.9-11.7-16.4-44.5-21.8-55.8-23.3-31.5-43.4-85.6-81.4-100.1-36.1-12.8-71.7-22.2-109.1-30.3-.2-1.9-.2-2.2-1-4.2-17.5-40.7-127-106.1-169.6-122.1-19.6-7.3-47.4-10.7-64.8-19.2-.9-.4-1.7-.9-2.6-1.3,20.6-5.1,41.6-8.5,62.5-12.3l10.4,1.3,1.1-9.3Z"/>
  <path class="st1" d="M1943.4,1648.7c16.5-6,153.4,40.5,174,50.1,6,2.8,10.6,6.2,15.3,10.8,7.8,11.1,16.5,22.2,23.1,34.1-62.5-17.3-119.5-43-184.3-53.2l-4.8-5.7c-7.3-12.3-15.5-24.2-23.3-36.1Z"/>
  <path class="st7" d="M2132.7,1709.6c16.9,3.4,33.7,11.8,49.6,18.4,81,33.5,244.7,114,303.8,173.1l.4,12.5c-35.5-13-76-39.3-110-57.5-46.1-24.6-93.3-47.1-140.2-70-22.3-10.9-49.3-27-73.7-32l-6.8-10.5c-6.6-11.9-15.2-22.9-23.1-34.1Z"/>
  <path class="st2" d="M1971.6,1690.5c64.7,10.2,121.8,35.9,184.3,53.2l6.8,10.5c9.8,20,20.5,41.7,27,63-60.7-22.8-121.6-44.5-184.6-59.8-8.9-23.2-21.4-45.2-33.5-66.8Z"/>
  <path class="st7" d="M1616.4,1590.3c28.1-.9,312.2,49.2,327.1,58.4,7.8,12,16.1,23.8,23.3,36.1-31.6-4.8-63.3-13.7-94.7-19.9-49.3-9.2-98.8-16.9-148.6-23.1-19.2-2.4-45.5-8-64.3-3.6l-1.4-.5c-11.7-17.2-27.2-32.3-41.4-47.5Z"/>
  <path class="st7" d="M951.1,772.8l10.4,1.3c89.9,28.8,170.5,82.8,238.7,147.3,10,9.4,28.3,25,34.2,37.2.5,1.1.9,2.3,1.3,3.5-36.1-12.8-71.7-22.2-109.1-30.3-.2-1.9-.2-2.2-1-4.2-17.5-40.7-127-106.1-169.6-122.1-19.6-7.3-47.4-10.7-64.8-19.2-.9-.4-1.7-.9-2.6-1.3,20.6-5.1,41.6-8.5,62.5-12.3Z"/>
  <path class="st5" d="M2162.6,1754.2c24.4,5,51.4,21.1,73.7,32,46.9,22.9,94.2,45.3,140.2,70,34,18.2,74.5,44.5,110,57.5-2.5,23.4-6,47.4-6.8,71-51.5-40.7-108-78.9-166.4-109.1-40.5-21-82.8-38.2-123.7-58.4-6.5-21.3-17.2-43-27-63Z"/>
  <path class="st7" d="M1416,1399.5c-1-15.8-3.4-31.6-4.2-47.4,30,82,39.5,172.4,128.8,213,2.8,1.3,4.8,2,7.8,2.4,9.9,26.4,11.5,54.2,12.4,82.2l-1.2,7.8-1.5-5c-11.9-4.6-44.8,5.3-59.8,6.3l-2.9.2c-37.8-17.8-68-53.2-100-79.4,14.7-59.8,20.7-118.5,20.6-180.1Z"/>
  <path class="st5" d="M1659.2,1638.3c18.8-4.4,45.1,1.2,64.3,3.6,49.8,6.1,99.3,13.8,148.6,23.1,31.4,6.2,63.1,15.1,94.7,19.9l4.8,5.7c12.1,21.7,24.6,43.6,33.5,66.8-28.8-5.1-57.3-11.9-86.1-16.8-32.6-5.7-65.3-10-98.3-12.7-33-2.7-66-3.9-99-3.6-20.4-29-42.3-56.9-62.4-86Z"/>
  <path class="st7" d="M1231,1078.3c35.6,9.3,77.3,19.6,107,42.1,8.4,24.1,19.4,47.2,28.1,71.2,23.3,64,40.6,134.3,43.7,202.6-43.7-27-66.9-55.6-120.3-76.5l-2.1-1.5c4.1-10.9-.6-28.3-2.5-39.6-6.4-38.7-14.7-77.8-26.4-115.3-8.4-27.1-19.4-53.5-26.9-80.8l-.6-2.1Z"/>
  <path class="st4" d="M1585.7,1728.2c45.5-3.8,90.3-4.1,135.9-3.8,33.1-.3,66.1.8,99,3.6,33,2.7,65.7,6.9,98.3,12.7,28.9,4.9,57.3,11.7,86.1,16.8,63.1,15.3,123.9,37,184.6,59.8,40.9,20.1,83.2,37.4,123.7,58.4,58.4,30.2,114.8,68.4,166.4,109.1,23.2,22.9,48.6,43.4,71.5,66.6,37.8,38.2,71.3,80.3,104.8,122.3,8.7,12.4,17.6,24.6,25.5,37.5-9.2-9-18.2-18.9-28.1-27.1-24.8-22.8-48.7-46.7-74.1-68.6-35.8-30.9-74.5-58.7-113.8-85-82.1-52.4-167.6-102.7-257.6-140.3-18.6-8.6-38.8-15.1-58.1-22.2-41.9-15.7-84.1-30.5-126.7-44.3-19.3-8.8-42.1-13.9-62.5-20.2-49-15.5-98.5-29-148.5-40.7-26.1-5.9-52.8-9.4-78.9-15.6-26.1-13.5-111.2-11.7-147.7-18.9Z"/>
  <path class="st1" d="M159.9,1340.2l.7-10.1,2.1-1.5c13.6,20.6,14.3,73.5,35.2,103.1,23.2,32.9,246.1,77.1,298.7,87.8,68.6,14,137.2,27.1,207.2,30.9,38.7,2.1,77-.2,115.6,1.1-47.3,8.2-93.6,13.7-141.7,13.3-72.3-.6-143.3-13.2-214.1-26.7-59.9-11.4-121.8-23.9-179.4-44.3-25.8-9.1-50-21-74.1-33.8,19.6,22.2,36.6,44.5,61.1,61.7,35.9,25.3,79.1,41.2,120.4,55.5,117.4,40.9,234.3,64.2,358.4,71.9,119.3,7.4,281.7,4.4,392.4-44.6,47.1-20.8,87.4-50.5,126.1-83.9-64.6,112.7-174.7,184.5-294.5,228.8.6.4,1.1.9,1.7,1.3,31.9,24.3,58.1,34.4,88.4,65.5,65.2,67.1,107,156.5,129.2,246.6,9.8,39.9,16.4,80.8,27.1,120.5,18,66.8,69.2,185.4,106.2,244,11.9,18.9,25.8,35.8,40.6,52.4,30.1,28.6,58.4,63,82.1,96.9,7.7,11,35.7,60.4,42.2,64.3,9.1,42.2,27,113.4,28,153.9-8.4,13-2.4,69.1-14,75.4l-2.2-.8c7.2-87.9,1.9-131.8-51.8-204.6-107.2-40.5-191.9-81.8-289.4-141.4-47.6,12.4-98.6,40.4-138.6,68.1-68,47.1-128.9,119.4-143.9,202.5,4.9,2.4,9.7,5,14.3,7.9,60.1,38.2,91.1,93.9,106,162.2-43.6-19.4-87.4-20.8-134.2-18.8-28.9,39.4-43,85.6-51.9,132.9-16.1-16-29.7-34.7-44.2-52.1-19.1-22.8-39.3-43.4-61.5-63.1-48.5,7.7-90.4,29.6-125.6,63.5-2.9-16-4.1-32-3.5-48.2.1-4.4.4-8.7.7-13.1.4-4.3.8-8.7,1.4-13,.6-4.3,1.3-8.6,2-12.9.8-4.3,1.7-8.6,2.7-12.8,1-4.3,2.1-8.5,3.3-12.7,1.2-4.2,2.5-8.4,3.9-12.5,1.4-4.1,2.9-8.2,4.5-12.3,1.6-4.1,3.3-8.1,5.1-12,1.8-4,3.7-7.9,5.7-11.8,2-3.9,4.1-7.7,6.3-11.5,2.2-3.8,4.5-7.5,6.9-11.1,2.4-3.7,4.9-7.3,7.4-10.8,2.6-3.5,5.2-7,7.9-10.4,2.7-3.4,5.5-6.7,8.4-10,2.9-3.3,5.9-6.5,8.9-9.6,3.1-3.1,6.2-6.2,9.4-9.1l.3-2.9c15.8-147.3,84.3-291.5,182.7-401.1,15.6-17.3,31.6-36.9,49.8-51.5,6.9-7.8,14.9-14.1,22.9-20.6-56.9-81.8-95.6-171.4-129-264.9-14.7-41.6-28.2-83.6-40.6-125.9-9.4-31.1-17.4-63.6-31.3-93-17.3-36.4-42.4-70.2-69.8-99.6-14.1-15.1-29.1-31.1-45.8-43.3-28.4-20.8-79.9-26.7-114.5-39.8-61.1-23-164.3-73.2-215.8-110.6-64.1-46.5-100.7-122.8-112.6-199.6Z"/>
  <path class="st7" d="M893.1,2255.7c15.8,7,77,69.5,96.9,86,78.2,64.6,181.4,113.7,279,139,17.4,4.5,39.1,11.5,57,9.1,16.8,21.5,38.5,62.6,55.5,79,14.8,27,37.1,53,55.3,77.9-33-8.8-66-24.5-97.1-38.5-22.3-9.9-44.3-20.4-65.9-31.6-21.7-11.2-43-23.1-63.9-35.5-20.9-12.5-41.5-25.6-61.6-39.3-20.2-13.7-39.9-28.1-59.2-43-32.6-25.2-63-52.9-95.3-78.4-37.1-38.5-76.5-76.2-100.6-124.5Z"/>
  <path class="st7" d="M793.3,2026.2c-11.3-30.9-21.6-62.2-31.1-93.8-10.5-35.1-19.2-71.9-35.3-105-13-26.6-30.9-51.4-50.2-73.8-19.8-22.9-43.2-41.3-64.2-62.8,40.7,13.4,81.7,18.3,123.9,23.7,107.1,13.7,214.7,25.1,304.6,91.3-85.1,42.3-167.6,90.1-221.3,171.7-10.3,15.7-17.4,32.4-26.4,48.6Z"/>
  <path class="st5" d="M1041,1805.9c164.9,146.9,142.7,340.3,206.1,529.5,18.7,55.8,46.7,105.4,79,154.4-17.8,2.5-39.6-4.6-57-9.1-97.6-25.3-200.8-74.4-279-139-20-16.5-81.1-79-96.9-86-40-55.8-77.9-164-99.9-229.5,9-16.3,16.1-32.9,26.4-48.6,53.7-81.5,136.2-129.3,221.3-171.7Z"/>
</svg>