<?xml version="1.0" encoding="UTF-8"?>
<svg id="_x2014_ÎÓÈ_x5F_1" xmlns="http://www.w3.org/2000/svg" version="1.1" viewBox="0 0 2500 2500">
  <!-- Generator: Adobe Illustrator 29.2.1, SVG Export Plug-In . SVG Version: 2.1.0 Build 116)  -->
  <defs>
    <style>
      .st0 {
        fill: #5f7d26;
      }

      .st1 {
        fill: #9cbf5c;
      }

      .st2 {
        fill: #8bab4c;
      }

      .st3 {
        fill: #4d5e14;
      }

      .st4 {
        display: none;
        fill: #fff;
      }

      .st5 {
        fill: #5a7320;
      }

      .st6 {
        fill: #232220;
      }

      .st7 {
        fill: #ededed;
      }

      .st8 {
        fill: #8fd171;
      }
    </style>
  </defs>
  <rect class="st4" x="2.2" y="2.5" width="2495.5" height="2495"/>
  <g>
    <path class="st2" d="M2318.4,437.5c-50.9,32.6-90.9,62.3-116,118.6-25.9,58.2-54,115.5-84.1,171.6-52.5,97.8-111.3,192.2-175.9,282.5-33.2,46.3-66.5,94.8-108.1,134-39.3,37-86.8,65.5-131.8,95-146.6,96.2-314.4,193.1-495,184.8-4.2-.2-8.4-.5-12.7-.8-7.9-.6-15.8-1.4-23.7-2.4,79.1-104.6,165.9-204.3,267.7-287.6,100.9-82.6,219.8-138.9,313.7-230.6,91.1-89,146.7-205.8,236.7-295.2,14-13.9,28.6-27.1,43.9-39.6,56.7-46.3,121.6-82.5,190.9-106.3,6-2.1,12.1-4,18.1-5.9,19.2-5.9,38.7-10.9,58.4-14.9,5.9-1.2,11.9-2.3,17.8-3.3Z"/>
    <path class="st1" d="M2302.9,437.5c-18,3.5-35.5,8.4-52.7,14.3-8.8,3-17.5,6.3-26.2,9.9-41.6,17-81.2,39.4-119.6,62.6-23.7,14.4-47.7,28.7-71.3,43.7-39.2,24.8-77.3,51.3-111.5,82.3-52.9,47.8-91.2,107.9-131.6,166-41.8,59.9-88.6,114.7-144.3,162.2-109,93.1-240.9,156.7-379.2,192.8-69.4,18.1-140.5,29.6-211.9,35.6-30.1,2.5-60.3,3.2-90.4,6.1-18.7,1.8-59.8,11-74.5-6.2-7.3-8.6-3.5-20.8,6.8-34.4,3.7-5,8.3-10.2,13.5-15.4,36.6-37,103.3-78.8,118.1-90.5,68.5-54,134.4-112,196.4-173.4,75.6-74.8,145.9-156.4,232.5-219.2,42.5-30.8,88.5-55.6,138.1-72.7,48.2-16.5,98.3-27.1,145.7-45.8,45.8-18,84.8-47.1,128.2-69.7,47.4-24.7,99.8-37.1,152.1-46.6,84-15.3,170.9-21.1,255.4-6.9,8.9,1.5,17.7,3.2,26.5,5.2Z"/>
    <path class="st0" d="M649.5,1922c-154,39.2-314.8,38.7-392.6-67.9-56.3-77.1-44.7-183.7-11.4-267.7,38-95.7,110.8-170.2,192.9-229.9,91.3-66.4,193.8-117.3,301.9-150.1,108.3-32.8,219.9-49.2,327.6-85.1,111.2-37.1,229.3-71.9,331.1-130.9,100.8-58.4,199.5-123.1,289.4-197.1,173.7-143.1,349.4-369,600.2-353.2-69.8,33.5-140.6,67.4-201.8,115.4-59.2,46.4-97.3,107.6-141.9,166.8-45.6,60.5-103.5,112.2-157.4,165.2-55.8,55-110.2,114.1-175.7,157.7-68.8,45.9-139.4,83.9-200.5,140.5-34.1,31.6-66.8,65.1-99.7,98-29.2,29.3-58,59.5-82.4,93-15.7,21.4-44.2,58.8-34.1,87.8,17,48.6,113.8-1.2,146.7-7.3,29.5-5.5,59.2-4.5,84.4,13.5,25.5,18.3,41.7,53.3,74.8,59.8-5.1-1-15.9,46.7-17.5,51.4-5.4,15.5-5.7,15.3-21.4,20.1-19.5,6-40.1,12-59.9,16.4,3.8-74.7-76.4-87.5-129.3-63.2-41.2,19-118.3,67.9-154.2,12.3,13.2,20.3-20.5,74.6-30.9,91.5-29.9,48.9-75.5,87.8-121.2,121.4-67.1,49.4-189.7,109-317,141.5Z"/>
    <path class="st6" d="M480.8,1565.8c60.5,94.8-86.5,186.9-146.2,93.2-59.7-93.6,85.6-188.2,146.2-93.2Z"/>
    <path class="st7" d="M403.6,1607.8c19,29.8-27.5,59.4-46.4,29.6-18.9-29.6,27.3-59.7,46.4-29.6Z"/>
    <path class="st3" d="M736.2,1671.2c32.8,4.3,50.3,41.4,27.7,67.4-5,5.8-34.5,18.5-34.6,26.1-.1,17.9,21.1,2.7,26.9-1.2,23.8-16.2,41.2-40,30.3-70-5.5-15.1-17.5-27.9-32.8-33.4-18.8-6.8-28.8,9.6-17.5,11Z"/>
    <path class="st3" d="M608.6,1375.5c26.8-10.9,38.5,31.1,35.4,49.7-1.8,10.5-17.1,25-16.5,33.1,1.3,18.5,15.2,4.7,21.2-4.1,15.9-23.3,15.5-58.9-3.6-80.4-7.5-8.5-20.9-18.2-33.2-15.1-12.6,3.2-15.4,21.7-3.4,16.8Z"/>
    <path class="st3" d="M796,1358.4c28-14,45.4,30.3,42.9,51.4-.9,7.2-3,14.5-7.8,20.2-3.6,4.2-17.6,8.8-18.7,13.6-4.9,20.8,23.6,3.7,29.3-2.6,19.3-21.7,14.7-58.8-1.8-80.7-7.4-9.8-17.5-17.9-30.1-19.2-5.1-.6-18.3-.2-21.9,4.4-4.7,6.1-2.2,18.1,8.2,12.9Z"/>
    <path class="st3" d="M966.8,1285.5c30.6-16.5,56.3,18.7,49.7,46.8-2.2,9.5-17.8,24.9-13.3,33.2,8.2,15,21.3-12,23.7-17.6,11.7-26.5,6.9-59.5-20.1-74.6-10.7-6-28.5-9.9-40.3-4.2-11.4,5.5-12.6,23.3.3,16.3Z"/>
    <path class="st3" d="M1138.2,1195c23.2-3.3,45.6,13.1,46.4,37.1.3,8.6-10.2,24.6-5.2,30.7,9.1,11.2,17.4-10,18.9-16,5.2-21-2.8-43.6-19.9-56.6-8.3-6.3-21.4-12.4-32.2-11.1-11.1,1.3-22.1,17.9-7.8,15.9Z"/>
    <path class="st3" d="M1273.3,1142.2c38-9.5,24.2,31.6,40.3,43.1,2.2,6.7-3.5,5.9-10.4,7.1,14.7,9.1,13.5-24-2.2-11.9-10.5,8.1,11.5,23.5,20.1-.3,6.5-17.9-3.7-40.1-19.7-48.9-6.7-3.7-25.5-9.4-32.6-3.7-5.8,4.6-7.1,17.5,4.5,14.6Z"/>
    <path class="st3" d="M689.5,1520.5c31.4-1.2,35.4,37.1,22.8,57.5-4.7,7.5-27.2,21.2-21.4,31.2,6.3,11,22.6-8.9,26.1-12.9,17.4-19.9,25.7-47.6,9.8-71.1-6.1-9-17.9-19.5-29.5-19.6-12.2-.2-22.2,15.3-7.8,14.8Z"/>
    <path class="st3" d="M914.7,1508.1c28.5,17.8,30.8,59.9-3.6,75-10.6,4.6-32.1-5.4-38.2-1.5-15.2,9.7,7.3,18.4,15.1,19.6,28.9,4.5,53.7-16.7,61.9-43,6.4-20.5,2.8-38.2-13.1-52.7-4.3-3.9-14.3-14.8-20.8-11.7-5.5,2.6-6.9,10.9-1.2,14.4Z"/>
    <path class="st3" d="M1420.3,1042.8c12-12.1,24.5,18.9,24,27.3-.5,8.1-13.1,19-6,26,8.2,8.1,15.4-5.7,18.2-11.4,8.6-17.7-1-47.2-19.3-55.7-6.8-3.2-24.1-7-28.2,3.5-2.7,7,3,18.7,11.4,10.3Z"/>
    <path class="st0" d="M1250.2,996.5c13.4,21.1-37.4,53.7-51.6,32.9-14-20.5,38-54.2,51.6-32.9Z"/>
    <path class="st0" d="M1768.5,1031.4c10.7,16.8-35.7,46.4-46.4,29.6-10.7-16.8,35.7-46.4,46.4-29.6Z"/>
    <path class="st0" d="M1527.6,1241.9c7.1,11.1-34.2,37.5-41.3,26.3-7.1-11.1,34.2-37.5,41.3-26.3Z"/>
    <path class="st0" d="M1457.7,896.9c8.4,13.2-27.7,36.2-36.1,23-8.5-13.3,28-35.7,36.1-23Z"/>
    <path class="st8" d="M1515.8,737.6c8.8,13.8-20.4,32.5-29.2,18.6-8.8-13.8,20.5-32.3,29.2-18.6Z"/>
    <path class="st8" d="M1917.2,843.4c6.9,10.9-24,30.6-31,19.7-7-11,24.3-30.1,31-19.7Z"/>
    <path class="st8" d="M1519.8,1180.3c9,14-23.7,34.9-32.7,20.8-9-14.1,23.9-34.6,32.7-20.8Z"/>
    <path class="st5" d="M1703.8,706.1c14.6,22.9-50.8,64.5-65.4,41.7-14.6-22.9,50.9-64.3,65.4-41.7Z"/>
    <path class="st5" d="M1725.2,1157c11.5,18.1-43.5,53.2-55,35.1-11.5-18,43.5-53.2,55-35.1Z"/>
    <path class="st5" d="M2042,724.7c17.3,12.9-25.3,70.2-42.7,57.3-17.3-12.9,25.3-70.2,42.7-57.3Z"/>
    <path class="st5" d="M1339.6,1334c9.3,14.5-33.7,41.9-43,27.4-9.3-14.5,33.7-41.9,43-27.4Z"/>
    <path class="st8" d="M1852.3,1030c9.9,15.5-29.7,40.7-39.6,25.2-9.9-15.5,29.7-40.7,39.6-25.2Z"/>
    <path class="st8" d="M1895.3,554.9c7.1,11.1-29.1,34.1-36.1,23-7.2-11.2,29.5-33.5,36.1-23Z"/>
  </g>
</svg>