<?xml version="1.0" encoding="UTF-8"?>
<svg id="_x2014_ÎÓÈ_x5F_1" xmlns="http://www.w3.org/2000/svg" xmlns:xlink="http://www.w3.org/1999/xlink" version="1.1" viewBox="0 0 4000 4000">
  <!-- Generator: Adobe Illustrator 29.2.1, SVG Export Plug-In . SVG Version: 2.1.0 Build 116)  -->
  <defs>
    <style>
      .st0 {
        fill: #4a0707;
      }

      .st1 {
        fill: url(#_ÂÁ_Ï_ÌÌ_È_ËÂÌÚ_3);
      }

      .st2 {
        fill: url(#_ÂÁ_Ï_ÌÌ_È_ËÂÌÚ_2);
      }

      .st3 {
        fill: url(#_ÂÁ_Ï_ÌÌ_È_ËÂÌÚ_4);
      }

      .st4 {
        display: none;
      }

      .st4, .st5 {
        fill: #fefefe;
      }

      .st6 {
        fill: #d81513;
      }

      .st7 {
        fill: #fdd773;
      }

      .st8 {
        fill: #070000;
      }

      .st9 {
        fill: #f8a21c;
      }

      .st10 {
        fill: #240f07;
      }

      .st11 {
        fill: #2c2a2b;
      }

      .st12 {
        fill: url(#_ÂÁ_Ï_ÌÌ_È_ËÂÌÚ);
      }

      .st13 {
        fill: #ef4416;
      }

      .st14 {
        fill: #f4c225;
      }
    </style>
    <linearGradient id="_ÂÁ_Ï_ÌÌ_È_ËÂÌÚ" data-name="¡ÂÁ˚ÏˇÌÌ˚È „‡‰ËÂÌÚ" x1="1858.9" y1="2189.3" x2="1792.1" y2="2612.3" gradientTransform="translate(-3830.1 10933.1) scale(3.9 -3.9)" gradientUnits="userSpaceOnUse">
      <stop offset="0" stop-color="#dc1208"/>
      <stop offset="1" stop-color="#f16409"/>
    </linearGradient>
    <linearGradient id="_ÂÁ_Ï_ÌÌ_È_ËÂÌÚ_2" data-name="¡ÂÁ˚ÏˇÌÌ˚È „‡‰ËÂÌÚ 2" x1="1151" y1="2555.2" x2="1134.4" y2="2542.6" gradientTransform="translate(-3830.1 10933.1) scale(3.9 -3.9)" gradientUnits="userSpaceOnUse">
      <stop offset="0" stop-color="#391d1d"/>
      <stop offset="1" stop-color="#4c1633"/>
    </linearGradient>
    <linearGradient id="_ÂÁ_Ï_ÌÌ_È_ËÂÌÚ_3" data-name="¡ÂÁ˚ÏˇÌÌ˚È „‡‰ËÂÌÚ 3" x1="1752.9" y1="2283.7" x2="1828.1" y2="2159.3" gradientTransform="translate(-3830.1 10933.1) scale(3.9 -3.9)" gradientUnits="userSpaceOnUse">
      <stop offset="0" stop-color="#151325"/>
      <stop offset="1" stop-color="#272524"/>
    </linearGradient>
    <linearGradient id="_ÂÁ_Ï_ÌÌ_È_ËÂÌÚ_4" data-name="¡ÂÁ˚ÏˇÌÌ˚È „‡‰ËÂÌÚ 4" x1="1816.9" y1="2348" x2="1824.2" y2="2005.5" gradientTransform="translate(-3830.1 10933.1) scale(3.9 -3.9)" gradientUnits="userSpaceOnUse">
      <stop offset="0" stop-color="#000"/>
      <stop offset="1" stop-color="#180101"/>
    </linearGradient>
  </defs>
  <path class="st4" d="M-7.6,17.2h4000v4000H-7.6V17.2Z"/>
  <path class="st13" d="M3105.7,954.4c17.7-27.7,40.3-53.6,62.4-77.9,108-118.5,242.7-196.6,389.8-257.2-91,74.9-149.4,204.6-177,316.7-.3-.6-.8-1.2-1-1.9-8.5-23.9,45.9-129.7,43.4-140.9-1.1-4.9,0-4.9,2.2-8.9l-.3,6.4c4.9-2.6,7.9-7.7,9.3-13.2,1.6-6,1.2-12.8,1.7-18.9.6-8.3,2.5-16.7,1-25-2.6-14.8-14.8-29-14.7-43.4-11.4-.2-26.1,10.7-35.9,16.4-16.2,9.2-32.2,19-47.8,29.3-15.6,10.3-30.9,21-45.8,32.3-14.9,11.3-29.4,23-43.6,35.2-14.2,12.2-27.9,24.8-41.2,37.9-23,22.3-45.4,45.9-66,70.5-9.3,11.1-23.6,37.6-36.6,42.6Z"/>
  <path class="st12" d="M3105.7,954.4c13-4.9,27.3-31.4,36.6-42.6,20.5-24.6,42.9-48.2,66-70.5,13.3-13.1,27.1-25.7,41.2-37.9,14.2-12.2,28.7-23.9,43.6-35.2,14.9-11.3,30.2-22,45.8-32.3,15.6-10.3,31.5-20,47.8-29.3,9.8-5.7,24.5-16.6,35.9-16.4-.1,14.4,12.1,28.6,14.7,43.4,1.4,8.3-.4,16.7-1,25-.5,6.1,0,13-1.7,18.9-1.5,5.5-4.4,10.6-9.3,13.2l.3-6.4c-2.3,4-3.3,3.9-2.2,8.9,2.5,11.2-51.9,117-43.4,140.9.2.7.7,1.3,1,1.9-25.3,153.5-3,305.7,82.8,437.6,44.3,68.1,79.2,110.1,94.2,193.3,52-66.7,103.6-96.3,183.4-120.9-54.8,87.3-92.3,179.5-68.6,283.9,14.2,62.7,42.2,121.7,65.8,181.2,47.4,119.6,45.7,220.5-23.2,330.8-27.7,44.3-62.3,82.3-98.6,119.5-.3-57-7-110.6-19.2-166.2-23-94.4-74.2-188.8-134.4-264.7-5.7-7.4-11.6-14.6-17.7-21.7-6-7.1-12.2-14-18.6-20.9-6.4-6.8-12.9-13.5-19.5-20-6.7-6.5-13.4-12.9-20.4-19.1-6.9-6.2-14-12.3-21.2-18.2-7.2-5.9-14.5-11.7-22-17.3-7.5-5.6-15-11-22.7-16.3-7.7-5.2-15.5-10.3-23.4-15.2-15.8-9.7-35.1-22-53.9-24.1l-2.3,2.2c3.1,11.1,26.6,39,34.7,49.1,63,99.7,114.4,219,109,339.1-2.8,51.2-18.8,127.5-47.1,170.6.7-131.5-139.4-182.4-227.5-251.5-13.8-10.7-27.2-21.9-40.1-33.7-12.9-11.8-25.3-24-37.3-36.8-11.9-12.8-23.3-26-34.1-39.7-10.8-13.7-21.1-27.8-30.8-42.4-119.3-178.2-147.4-387.4-106.4-595.5,5.5,10.8,11.2,21.2,18.8,30.7,30.8,38.5,72.4,53,119.8,58.4-3.3-32.1-5.4-64.4-6.2-96.7-1.8-107.3,18.3-205.7,72.5-299.4,11.2-19.3,23.5-41.9,39-57.9Z"/>
  <path class="st14" d="M3028.8,1577.4c17.7,37.3,29.1,84.2,57.8,114.7,8.4,8.9,19.1,16.2,31.7,16.4,13.2.1,24.7-7.8,33.9-16.5,50.3-48.1,3.7-138.9-10.9-195.1-10.9-42.1-19.3-85-17.8-128.7,3.6-103.3,53.1-181.1,127.2-249.7-21,36.2-39.2,78.7-41.8,120.9.3,6.8.6,13.3,2.1,20,1.7,7.4,5.2,95.9,4.1,102.3.7,4.6,1.8,9,3.2,13.4,27.1,86.6,89.5,140.9,159.3,194.2,29.6,22.6,59.2,45.5,79.7,77.2,41.7,64.2,13,125.8,31.7,164.5,9.6,19.8,31.1,34.4,44.3,51.9,11.2-34.5,10.4-61.2,4.2-96.7,66.3,69.9,117,162,114.2,260.9-1.7,57.1-21.6,121.1-54.3,168.1-23-94.4-74.2-188.8-134.4-264.7-5.7-7.4-11.6-14.6-17.7-21.7-6-7.1-12.2-14-18.6-20.9-6.4-6.8-12.9-13.5-19.5-20-6.7-6.5-13.4-12.9-20.4-19.1-6.9-6.2-14-12.3-21.2-18.2-7.2-5.9-14.5-11.7-22-17.3-7.5-5.6-15-11-22.7-16.3-7.7-5.2-15.5-10.3-23.4-15.2-15.8-9.7-35.1-22-53.9-24.1l-2.3,2.2c3.1,11.1,26.6,39,34.7,49.1,63,99.7,114.4,219,109,339.1-4.5-6.9-7.7-15-12-22.1-7.4-12.6-15.6-24.7-24.5-36.3-8.9-11.6-18.6-22.6-28.9-32.9-69.4-69.3-159.1-83.4-226.2-167.9-75-94.5-78-197.1-64.7-311.6Z"/>
  <path class="st13" d="M3215.2,1361.6c-12.5-37-13.6-84-6.3-122.2.3,6.8.6,13.3,2.1,20,1.7,7.4,5.2,95.9,4.1,102.3Z"/>
  <path class="st8" d="M912.4,446.4c3.9-4.5,7.8-8.9,11.8-13.3,4-4.4,8.1-8.7,12.2-12.9,4.1-4.2,8.4-8.4,12.6-12.5,4.3-4.1,8.6-8.2,13-12.1,4.4-4,8.9-7.9,13.4-11.7,4.5-3.8,9.1-7.6,13.7-11.3,4.6-3.7,9.3-7.3,14.1-10.9,4.8-3.6,9.6-7,14.4-10.4,4.9-3.4,9.8-6.7,14.7-10,5-3.3,10-6.4,15-9.5,5.1-3.1,10.2-6.1,15.3-9,5.2-2.9,10.4-5.8,15.6-8.6,5.2-2.8,10.5-5.5,15.9-8.1,5.3-2.6,10.7-5.1,16.1-7.6,5.4-2.4,10.8-4.8,16.3-7.1,5.5-2.3,11-4.5,16.5-6.6,28.4-10.6,75-27.2,104.3-12.8,13.9,6.8,21.7,19.2,26.1,33.7,10.7,35.3-8.7,72.3-24.9,102.4,13.7-4.4,27.5-8.6,41.4-12.7,145.1-41.4,303.1-11,432.9,61.4,184.6,102.9,298.4,285.1,354.1,484.4,9.9,35.2,31.4,109.8,31.5,143.2.2,55.7-68,138.5-105.1,177.3-24.8,26-52,48.8-69.6,80.5-1.6,2.8-3.1,5.6-4.6,8.5-1.5,2.8-3,5.7-4.4,8.6-1.4,2.9-2.8,5.8-4.2,8.7-1.4,2.9-2.7,5.8-4,8.8-1.3,2.9-2.5,5.9-3.8,8.9s-2.4,6-3.6,9c-1.1,3-2.3,6-3.3,9-1.1,3-2.1,6.1-3.1,9.1-1,3.1-2,6.1-2.9,9.2-.9,3.1-1.8,6.2-2.7,9.3-.8,3.1-1.7,6.2-2.4,9.3-.8,3.1-1.5,6.2-2.2,9.4-.7,3.1-1.4,6.3-2,9.4-.6,3.2-1.2,6.3-1.7,9.5-.5,3.2-1,6.3-1.5,9.5-.5,3.2-.9,6.4-1.3,9.6-.4,3.2-.7,6.4-1,9.6-.3,3.2-.6,6.4-.8,9.6-.2,3.2-.4,6.4-.6,9.6-.2,3.2-.3,6.4-.3,9.6,0,3.2-.1,6.4,0,9.6,0,3.2,0,6.4.1,9.6,0,3.2.2,6.4.4,9.6.2,3.2.4,6.4.6,9.6.2,3.2.5,6.4.9,9.6.3,3.2.7,6.4,1.1,9.6.4,3.2.8,6.4,1.3,9.5.5,3.2,1,6.3,1.6,9.5.6,3.2,1.2,6.3,1.8,9.5.6,3.1,1.3,6.3,2,9.4s1.5,6.3,2.2,9.4c.8,3.1,1.6,6.2,2.5,9.3,46.8-9.5,91.4.3,138.1-2.3,51.5-30.7,152.1-147,191.7-195.9-56.6-39.4-100.7-82.7-114.7-152.9-1.6-8.2-5.8-28.3-.3-34.9,3.6-4.3,9.5-6.2,14.9-7,12.1-1.6,24.8,1.1,36.7,3.4,53.8,10,98.4,31.2,141.9,64.2-.4-65,11.8-129.6,46.5-185.5,7.3-11.8,17.4-27.6,32.1-30.3,5.7-1,10.3.9,14.7,4.3,9.1,7.1,15.6,18.5,21.5,28.2,27.1,44.7,40.4,92.3,45.7,144,43.7-40.3,106.4-77.9,166.8-83.9,6.2-.6,16.4-.6,21,4.4,6.2,6.6,6.3,18.9,6.5,27.5,1.3,65-36.4,135.5-80.7,181,17.8,7.4,34.9,15.4,51.4,25.3,18.6,11.2,73.3,47.4,77.2,69,.9,4.8-2.6,11.2-5.5,15-8.7,11.2-23,18.7-35.4,25-57.5,29.5-97.1,31.3-158.9,38.5-12.3,1.4-24.8,7.9-36.1,12.8-10.4,4.5-21.8,9-31.3,15.3-41.8,27.6-75.5,93.8-106.8,135.1-43.8,58-102.9,131.1-170.4,160.6-25.1,11-51.9,15.7-78.8,19.4,47.7,55.8,99.3,105,156.2,151.5,35.1,28.8,72.6,54.6,107.9,83.1,39.4,32.4,76.4,67.4,111,105,19.8,21.1,38.8,43,56.8,65.7,18,22.7,35,46.2,51,70.3,14.5,21.5,48.9,92.4,62.7,104.1,30.3,25.6,110,57.4,149.5,70.1,118.2,38.2,233.9,24,343.7-32.7,75.8-39.1,186.1-135.5,213.1-219.2,28.3-43.1,44.3-119.4,47.1-170.6,5.3-120.2-46.1-239.4-109-339.1-8.1-10.2-31.6-38.1-34.7-49.1l2.3-2.2c18.8,2.2,38,14.4,53.9,24.1,7.9,4.9,15.7,10,23.4,15.2,7.7,5.2,15.3,10.7,22.7,16.3,7.5,5.6,14.8,11.3,22,17.3,7.2,5.9,14.3,12,21.2,18.2,6.9,6.2,13.7,12.6,20.4,19.1,6.7,6.5,13.2,13.2,19.5,20,6.4,6.8,12.6,13.8,18.6,20.9,6,7.1,11.9,14.3,17.7,21.7,60.2,75.9,111.4,170.3,134.4,264.7,12.2,55.6,18.9,109.2,19.2,166.2-5.4,45.8-6.8,90.1-16.8,135.5-39.2,178.2-153.3,325.8-294.6,437-19.1,14.9-38.6,29.2-58.5,42.9-20,13.7-40.3,26.7-61.1,39.1-20.8,12.4-41.9,24.1-63.5,35.2-21.5,11.1-43.4,21.4-65.6,31.1-17.4,7.7-36,16.8-54.2,22.3-10,4.3-20.3,8.1-30.4,12.1,19.9,20.8,33.8,44.8,51.2,67.4,10.7,4,21.6,8,32,12.6,58.6,26.1,120.9,88.8,142.6,149.7,3.2,9,5.3,20.1,0,28.9-3.9,6.5-11.1,9.9-18,12.3-31.9,10.9-90.4,14.3-126,20.5,8.6,44.5,9.9,119.7-14.8,159.6-3.6,5.9-7.9,10.3-15,11.5-38.6,6.3-123-64.8-154.4-88.1-32.8,22.5-44.9,61.8-72.3,88.3-4,3.9-7.4,6.7-13.4,5.6-15.3-2.9-28.1-26.6-35.2-39.1-49.5-87.6-51.9-198.1-25.2-292.9-43.2-26.9-78.5-61.3-114.5-96.8-160.9,27.1-331.6,20.6-491.6-9.4-67.7-12.7-135-31.8-200.1-54-25-8.6-72.5-30.1-95.7-34.2-18.1-3.2-39.2,2.5-57.1,6.1-34.2,6.8-114.6,20.8-133.3,51-8,12.9-3,27.1,3.9,39.3,29.7,52.9,114.3,109.5,152.6,162.9,7.9,11,13.7,23,16.8,36.2,8.2,34.9-11.3,62.5-29.2,90.3-61,94.7-143.6,187.8-237.5,250.6-13.2,8.8-31.7,23.1-47.6,26-5,.9-8.6.6-12.7-2.8-26.3-21.5-41.7-111.4-45.3-145.3-23.4,4.7-112.5,19.2-131.1,7.4-3.9-6.6-3.6-11.4-2.5-18.7,11-72.7,67.1-142.8,125.2-184.7-63.2-43.6-121.5-95.8-167.9-157.3-33-43.7-81.2-116.5-72.5-174.4,2.9-19.3,11-38.4,18.7-56.1,41.5-96.1,118-189.7,202-252.1-134-130.9-219.3-340.4-247.6-523.1-128.4,73.7-258.7,31.6-384-23.8-49.9-22-103.2-47.6-159-45.8-80.1,2.5-129.7,68-212,87.1-11.5,2.7-24.8,4-35.1-2.9-6.3-4.2-9.3-10.9-10.5-18.2-7-42.3,28.5-108.1,51.9-141.3-55.9-17-105.6-41.9-149.3-81.4-8.1-7.3-20.2-19.4-19.3-31.4.3-4.4,3.2-8.2,6.3-11.1,8.7-7.7,22.3-11.4,33.1-15,49.8-16.3,97-19.5,149-17.3-20.2-37.8-38.7-78.1-43.5-121.1-2-18.3-3.9-45.1,9-59.9,5.9-6.8,14.3-9.7,23.1-9.7,59.5-.2,147.1,76.2,187.2,116.9,19.4-40,43.5-85.3,78.1-114.4,6.6-5.5,15.4-11.2,24.4-9.6,4.6.8,8.2,3.5,11,7.1,22.5,28.9,8.6,169,2.6,205.7,24.2.1,48.5.9,72.7,2.3,24.2,1.4,48.3,3.5,72.4,6.2,24.1,2.7,48.1,6,72,10,23.9,4,47.7,8.5,71.4,13.8,28.6-38.1,60.2-71.4,80.4-115.3-12.2-91.3-53.6-188.3-102.1-265.3-92.2-15.5-184.2-50.6-265.5-96.4-90.8-51.1-253.5-170.4-281.3-273.2-14.2-52.5,1.9-101.9,28.1-147.7,6.9-12,17.7-22.6,21.7-36,7.6-25.4,10.9-52.6,17.5-78.4,21-82.2,48.6-162.8,91.5-236.3,69.8-119.6,177.4-228.9,314.1-265Z"/>
  <path class="st2" d="M580.7,919.4c3,23.4,7.4,41.9,21.8,61,22.8,30.2,52.3,43.4,89.2,30.1,6.1-2.2,13.8-8.1,20.2-7.2.9,4.9-1.9,8.7-4.1,12.9-13.2,13.3-33.1,22.1-51.9,21.8-18.8-.3-35.1-9.4-47.5-23.2-24.1-27.1-29.9-60.2-27.7-95.3Z"/>
  <path class="st9" d="M903,462.5c-14.6,18.8-25.4,40.7-40.6,58.8-26.1,15.2-50.3,32.7-71.1,54.7-6.3,6.7-20.1,27.3-28.1,29.7-3.8-3.4-4.9-5.1-5.2-10.4-.8-20.5,7.9-43.3,18.4-60.4,43.3-38.8,71-54.6,126.5-72.4Z"/>
  <path class="st5" d="M625.2,828.2c8.2-.6,16.5-.7,24.4,2.2,11.1,4.1,19.8,12.9,24.4,23.7.7,1.5,1.2,3.1,1.7,4.7.5,1.6.9,3.2,1.3,4.9.3,1.6.6,3.3.8,5,.2,1.7.3,3.3.3,5,0,1.7,0,3.3-.2,5-.1,1.7-.4,3.3-.7,5-.3,1.6-.7,3.3-1.2,4.9-.5,1.6-1,3.2-1.7,4.7-6.1,14.8-16.9,22.5-31.3,28.4-7,1.3-14.1,1.8-21,0-1.2-.3-2.5-.7-3.7-1.1-1.2-.4-2.4-1-3.5-1.5s-2.3-1.2-3.4-1.9c-1.1-.7-2.1-1.4-3.2-2.2-1-.8-2-1.6-2.9-2.5-.9-.9-1.8-1.8-2.6-2.8-.8-1-1.6-2-2.3-3.1-.7-1.1-1.4-2.1-2-3.3-7-12.7-7.6-29.1-3.1-42.7,5.4-16.3,15.1-24.5,29.8-32.3Z"/>
  <path class="st14" d="M661.2,648.9c17.1,7,33,17.3,45.1,31.5-20.3,25.7-67.5,77.1-78.8,104.3-24.7,3.4-41.8,11-60.9,27,24.3-56.7,54.7-115.7,94.7-162.8Z"/>
  <path class="st10" d="M1843.5,1922.9c16.7-5.5,55.6,9.6,75.2,11.9,44,5.2,112.6-16.9,147.6-8.5-13.5,34-29,61.6-51.1,90.9-64.2-23-121.6-46.5-171.8-94.3Z"/>
  <path class="st14" d="M506.2,1015.8c14.3-63.1,27.4-156.6,86.2-194.7,6.4-4.2,13.5-7.3,20.6-10.2-34.6,35.6-49.4,82.6-48.7,132,.4,33.2,9.7,68.1,33.9,92,1,1,2,2,3.1,2.9,1,.9,2.1,1.9,3.2,2.8,1.1.9,2.2,1.8,3.3,2.6,1.1.8,2.3,1.6,3.5,2.4,1.2.8,2.4,1.5,3.6,2.2,1.2.7,2.4,1.4,3.7,2,1.2.7,2.5,1.3,3.8,1.9,1.3.6,2.6,1.1,3.9,1.7,1.3.5,2.6,1,4,1.5,1.3.5,2.7.9,4,1.3,1.4.4,2.7.7,4.1,1,1.4.3,2.8.6,4.1.8,1.4.2,2.8.4,4.2.6,1.4.2,2.8.3,4.2.4,1.4.1,2.8.2,4.2.2,1.4,0,2.8,0,4.2,0,5.8-.1,11.6-.7,17.4-1.1-27.3,13.6-51.1,19.2-81.1,9.2-25.6-8.5-48.7-25-71.2-39.6-4.9-4.6-12.6-7.1-18.1-11.9Z"/>
  <path class="st9" d="M706.2,680.3c36.3,45.1,63,114.5,56.3,173.1-1.6,13.9-5.6,27.6-13.8,39-7.9-26.2-16.7-50.3-35.4-70.8-23.7-25.9-51.7-35.3-85.9-37.1,11.3-27.2,58.5-78.6,78.8-104.3Z"/>
  <path class="st14" d="M1208.8,2359.3c13.3-39.9,33.2-67.3,66.1-93.6,9.7,49.3,25.7,97.1,42.2,144.5-28.6,35.9-39.2,66.5-44.8,112-16.4-28.9-64.7-133.3-63.5-162.9Z"/>
  <path class="st9" d="M1795.3,1777.2v-2.5c-.8-29.9,10.8-61.7,32-82.9,49.2-49.3,123.8-36.4,186.1-36.7,12.3,0,25.1-1.3,36.3-6.9,41.7-20.8,113.9-109.4,150.2-146.3-3,15.8-6.6,31.4-10.3,47-.5.4-1.1.9-1.6,1.3-12.5,10.7-22.6,24.9-33.1,37.6-22.8,27.5-48.6,59.7-77.3,80.8-56.9,41.8-147.3,6.8-207.6,35.6-25.5,12.2-67.7,70.7-74.7,73Z"/>
  <path class="st9" d="M1104.1,1848.2c37.3,63.6,57.5,131.3,57.5,205.4,0,16-.2,36.2-4.5,51.5-.6,2.1-1,2.5-1.9,4.2-7-33-15.9-65.7-24.1-98.5-6.2-20-12.6-39.9-19.3-59.7-18.3,14.6-36.6,29.3-58.2,38.9-45.3,20.1-99.9,18.7-145.3-.6-16.6-7.1-31.3-17.9-48.4-24.3-.7-.3-1.4-.5-2.1-.8l-2.8-13.3c52.6,6.5,104.9,14.8,156.9,24.8,37.2-40.2,66.3-79.3,92.1-127.7Z"/>
  <path class="st13" d="M857.8,1964.4c.7.2,1.4.5,2.1.8,17,6.4,31.7,17.2,48.4,24.3,45.4,19.3,100,20.7,145.3.6,21.6-9.6,39.8-24.2,58.2-38.9,6.7,19.8,13.2,39.7,19.3,59.7l-21.6,24.4c-18.8,18.2-40.7,31.4-65.8,38.9-37,11.1-75.1,6.6-109-11.7-40.2-21.7-64-55-76.8-98.1Z"/>
  <path class="st11" d="M1272.2,2522.2c5.6-45.4,16.1-76,44.8-112,17.1,41.9,33.9,83.9,54.7,124.1,78,150.3,196.7,277.4,331.2,378.8-2.7,0-4.7.1-7.4-.7-30.4-8.8-77.7-40.8-105.3-58.3-113.1-71.6-200-138.7-273.2-253.3-16.2-25.4-32.3-51.3-44.9-78.7Z"/>
  <path class="st13" d="M1795.3,1777.2c7-2.3,49.3-60.8,74.7-73,60.3-28.8,150.7,6.2,207.6-35.6,28.7-21.1,54.6-53.3,77.3-80.8,10.5-12.6,20.6-26.9,33.1-37.6.5-.4,1.1-.9,1.6-1.3-2.8,23.9-4.5,47.5-4.5,71.6.1,51.7,11.2,115.1-35.3,151.5-40.5,31.7-104.6,33.3-153.7,36.8-19.1,1.4-41.2,1.4-58.3,11.1-16.7,9.4-56.4,57.5-74.2,74.8-4.4-.5-7.3-2-10.7-4.7-33.6-27.2-52.4-70.8-57.6-112.8Z"/>
  <path class="st10" d="M1636.1,3311.1c23.6,48.1,25.2,96.9,7.8,147.1-31.4,90.8-89,175.2-157.8,241.9-25.9-49.7-31.3-115.1-30.9-170.7-44.7,28.7-88.1,40.4-141.4,38.4,14.3-68.6,60.7-135.7,119.4-173.9,16.1-10.5,59.4-28,69-37.1,53-14,87.3-10.1,133.9-45.7Z"/>
  <path class="st10" d="M2969.6,3133.8c22.8,14.8,25.9,45.9,46.3,62.4,10.7,8.7,27.7,9.5,39.5,17.6,54.3,37.1,100,81.9,122.3,145-46.1,4.7-93.6,9.1-137.9,23.1-3-5.9-4.6-13-10.5-16.7l-3.3,1.2c-1.7,6.1,1.9,13.9,3.4,20,14.3,55.6,21.2,121.6-9.4,173.1-41-18.6-83.1-47.6-114.8-79.5-9.8-11-18.6-22.5-27.3-34.3-47.3,27.2-76.1,70.8-99.5,118.9-5.4-7.4-10.3-15-14.8-23-46.3-81.4-51.6-192.5-27.6-281.5,10.3,4.6,20.5,9.1,31.4,12.2,40.3,11.2,84,3.6,120.1-17.1,45.8-26.3,68.4-72,82.1-121.3Z"/>
  <path class="st9" d="M1730.1,2927.4c2-32.5,13.5-67.4,36.2-91.4,69.3-73.1,210.1-16.1,292,5.6,37,9.8,74.6,17,112.3,23.6,17.6,3.1,38.6,8.4,56.4,7.4.5,0,1.1,0,1.6-.1l8.1,6.9c26.9,24.5,54.8,48.7,84.5,69.8,22,15.6,47.1,29.5,67.5,46.9-168,57.7-338.6,60-505.9-1.6-52.2-19.2-101.7-45-152.8-67.1Z"/>
  <path class="st10" d="M2387.9,1119.3c53.3,57.8,44.2,168.1,50.3,241.5,54.8-82,102.5-127.7,201.6-151.9-9.9,26.7-21.5,50.8-38.4,73.9-18.3,25-96.9,93.2-83.1,124.6,3.6,8.2,12.2,13,20.4,15.7,13.7,4.5,28.4,6.4,42.4,9.9,5.2,1.3,10.4,2.7,15.5,4.4,5.1,1.7,10.1,3.5,15.1,5.5,5,2,9.9,4.3,14.7,6.7,4.8,2.4,9.5,5,14.1,7.7,4.6,2.8,9.1,5.7,13.5,8.8,4.4,3.1,8.6,6.4,12.8,9.8,4.1,3.4,8.1,7,12,10.7,3.9,3.7,7.6,7.6,11.2,11.6-46.3-6.1-141.3-12.7-178.6,16.8-15.2,12-19.9,27.4-21.5,46l-.2,2.8c-25.1,9.9-50.8,18.5-73.8,32.8-2-8.8-3.6-16.3-8.4-24.2l-3.8-2.1c-3.8,3.1-5.1,6.6-5.6,11.4-.6,6.7-.2,13.8-.2,20.6-25.7,29.2-56.2,54.1-83.3,82-22.4,23.2-44.6,46.6-66.5,70.2-25.4,27.8-50.2,61.8-81.7,82.6-42.1,27.9-174.6,66-225.5,69.2-20.7,1.3-44.2-.3-64.1-6.2-3.9-1.1-7-3.8-10.5-5-.8-.3-1.7-.2-2.6-.3,17.7-17.3,57.5-65.5,74.2-74.8,17.2-9.6,39.2-9.7,58.3-11.1,49.1-3.5,113.2-5.1,153.7-36.8,46.4-36.4,35.4-99.8,35.3-151.5,0-24.1,1.7-47.7,4.5-71.6,3.7-15.6,7.3-31.2,10.3-47,22-21.9,43.4-50.5,59.7-76.9-42.9-54.3-99.3-97-131.3-159.3,65.5,19.4,153.9,56.7,206.1,101,.3-74.3,8.3-187.5,53.6-247.4Z"/>
  <path class="st10" d="M608.7,1863.8c11.9-26.4,59.7-121.7,87.6-131.1,4.7-1.6,6.1-.2,9.7,2.4,13.5,26.8-1.7,117.2-8.6,147.7-4.9,21.7-12.1,43-18.8,64.2,9.6,3.5,17.5,7.8,26.1,13.2,4.3-6.7,8.6-13,13.6-19.2,38.9.9,100.7.6,136.9,10.1l2.8,13.3c12.9,43.1,36.7,76.4,76.8,98.1,33.9,18.3,72,22.8,109,11.7,25.1-7.5,47-20.8,65.8-38.9,15.2,12.2,23.6,81.4,27.8,102.6-151.7,59.3-222.4,34.1-369.9-15-49.1-16.3-96.8-27.2-149-22.4-41.7,3.9-81.7,18.2-118.9,36.9-18.4,9.2-115.8,73-125.2,73.4-4-3.5-5.7-5.4-5.9-11.1-1.4-41.7,44.6-114.1,71.5-144.9-65.7-22.2-131.9-56.8-187.9-97.9,75.7-33.4,150.5-35.6,229.4-13.4-35.8-51.2-71.4-109.6-82.4-172.1-1.4-7.7-2.6-19.1,3-25.5,3.7-4.1,9.1-5.6,14.4-5.7,49.8-1.5,155,87.3,192.2,123.8Z"/>
  <path class="st11" d="M1384,2769.3c74.8,84.7,224.1,185,325.9,236.5-53.8,12.9-132.4,38.2-162.5,89.4-10.7,18.2-13.3,38.8-7.4,59,10.3,35.3,42.6,64.9,62.9,95,13.2,19.5,22.7,40.9,33,62-46.6,35.7-80.9,31.7-133.9,45.7-20.8.3-41.2,5.8-61.2,11.1-69.7-41.1-128.2-101.3-177.3-165.3-27.4-38.7-67.4-97.7-64.5-147.1,2-35,37.2-115.4,62.9-138.7,8.9-38.4,91-117.6,122-147.6Z"/>
  <path class="st13" d="M1262.1,2916.8c31.4-12.2,62-23.7,95.1-9.3,23.7,10.4,39.8,31,48.7,54.9,16.9,45.3,11.6,101.5-8.5,144.9-18.7,40.3-50,69.5-91.8,84.6-13.6,4.9-27.7,7.8-41.8,10.7-27.4-38.7-67.4-97.7-64.5-147.1,2-35,37.2-115.4,62.9-138.7Z"/>
  <path class="st13" d="M3270.7,1784.3c-2.8-2.7-7.2-5.5-7.9-9.4,15.8,8.2,30.7,20.4,45,31,76,56.8,150.9,130.7,194.9,215.5,48.8,148.1,45.2,313.2-25.5,453.6-62.4,124-178.2,201.7-307.3,243.8-103.9,33.9-212.3,40.6-320.9,38.5-.5-.8-.9-1.7-1.4-2.5-33.8-48.2-90.2-83.9-148.4-91.5-18.1-47.5-38.9-93.3-61.1-138.9,102.6,54.1,192.5,89.1,310.9,86.8,16.6-10.2,51.1-9.9,71.3-15.2,56.8-14.9,116.1-41.9,164.4-75.1,33.5-23,63-50.9,90.5-80.7,132.5-143.5,159.9-323.3,87.8-502.9-5.8-14.5-12.3-28.7-19.6-42.6-7-13.5-35.1-49.4-32.5-63.9l6.1-3c-14.8-14.4-29.8-31.5-46.4-43.6Z"/>
  <path class="st1" d="M3317.2,1827.9c93.7,94.6,157.4,224.2,156.8,358.9-.5,101.2-45.4,203.4-117.4,274.2-94.2,92.6-246.9,153.2-380,151.6-9.2-.2-18.4-.6-27.5-1.3,16.6-10.2,51.1-9.9,71.3-15.2,56.8-14.9,116.1-41.9,164.4-75.1,33.5-23,63-50.9,90.5-80.7,132.5-143.5,159.9-323.3,87.8-502.9-5.8-14.5-12.3-28.7-19.6-42.6-7-13.5-35.1-49.4-32.5-63.9l6.1-3Z"/>
  <path class="st11" d="M3276.1,1809.1c-8.1-10.2-31.6-38.1-34.7-49.1l2.3-2.2c18.8,2.2,38,14.4,53.9,24.1,7.9,4.9,15.7,10,23.4,15.2,7.7,5.2,15.3,10.7,22.7,16.3,7.5,5.6,14.8,11.3,22,17.3,7.2,5.9,14.3,12,21.2,18.2,6.9,6.2,13.7,12.6,20.4,19.1,6.7,6.5,13.2,13.2,19.5,20,6.4,6.8,12.6,13.8,18.6,20.9,6,7.1,11.9,14.3,17.7,21.7,60.2,75.9,111.4,170.3,134.4,264.7,12.2,55.6,18.9,109.2,19.2,166.2-5.4,45.8-6.8,90.1-16.8,135.5-39.2,178.2-153.3,325.8-294.6,437-19.1,14.9-38.6,29.2-58.5,42.9-20,13.7-40.3,26.7-61.1,39.1-20.8,12.4-41.9,24.1-63.5,35.2-21.5,11.1-43.4,21.4-65.6,31.1-17.4,7.7-36,16.8-54.2,22.3-4.7-2.1-8.9-.5-13.7.6-3.4.7-4.5-.1-7.7-1.2-7.4-9.5-4.9-30.8-5.8-43.4-2.3-32.5-10.3-63.1-18.9-94.4-7.9-20.1-13.5-40.9-21.9-60.9-22.5-53.4-53.3-99.9-85.4-147.8,108.5,2,217-4.6,320.9-38.5,129-42.1,244.8-119.8,307.3-243.8,70.7-140.4,74.3-305.5,25.5-453.6-44-84.8-118.9-158.7-194.9-215.5-14.3-10.7-29.2-22.8-45-31,.7,3.8,5.1,6.7,7.9,9.4l-3.6,1.1-4.3-3.7-.5,3c5.6,7.3,11.2,14.2,15.3,22.4l-1.5,2.1Z"/>
  <path class="st3" d="M3276.1,1809.1c-8.1-10.2-31.6-38.1-34.7-49.1l2.3-2.2c18.8,2.2,38,14.4,53.9,24.1,7.9,4.9,15.7,10,23.4,15.2,7.7,5.2,15.3,10.7,22.7,16.3,7.5,5.6,14.8,11.3,22,17.3,7.2,5.9,14.3,12,21.2,18.2,6.9,6.2,13.7,12.6,20.4,19.1,6.7,6.5,13.2,13.2,19.5,20,6.4,6.8,12.6,13.8,18.6,20.9,6,7.1,11.9,14.3,17.7,21.7,60.2,75.9,111.4,170.3,134.4,264.7,12.2,55.6,18.9,109.2,19.2,166.2-5.4,45.8-6.8,90.1-16.8,135.5-39.2,178.2-153.3,325.8-294.6,437-19.1,14.9-38.6,29.2-58.5,42.9-20,13.7-40.3,26.7-61.1,39.1-20.8,12.4-41.9,24.1-63.5,35.2-21.5,11.1-43.4,21.4-65.6,31.1-17.4,7.7-36,16.8-54.2,22.3-4.7-2.1-8.9-.5-13.7.6-3.4.7-4.5-.1-7.7-1.2-7.4-9.5-4.9-30.8-5.8-43.4-2.3-32.5-10.3-63.1-18.9-94.4,15.5-2.9,30.9-6.2,46.2-9.6,196.5-45.4,403.8-167.8,511.9-341.6,78.1-125.8,106-257.9,71.8-403.4-9.2-39.2-51.4-170.1-83.5-190-44-84.8-118.9-158.7-194.9-215.5-14.3-10.7-29.2-22.8-45-31,.7,3.8,5.1,6.7,7.9,9.4l-3.6,1.1-4.3-3.7-.5,3c5.6,7.3,11.2,14.2,15.3,22.4l-1.5,2.1Z"/>
  <path class="st11" d="M1047.2,1658.2c217.9,61.9,484.8,5.7,679.3-102.9,51.4-28.7,100.7-64.2,145.8-101.8-11.6,65.9-15.6,127.9,10.1,191.1-37.4,9.4-68.2,26.1-88.7,60-21,34.8-24.1,74.9-14.1,113.7,10.4,40.7,34,75.6,63.8,104.6,50.2,47.8,107.5,71.3,171.8,94.3-47.3,57.7-110.1,98.5-174.2,135-14,7.9-28.2,17.1-42.8,23.8-47.6-134.3-97.9-313.5-237-380.4-48.6-23.3-104.1-31.6-155.6-13-49.7,17.9-86.5,56.8-108.6,104.1-52.7,112.8-46.4,259.2-22.3,379.1-32.8,26.2-52.8,53.7-66.1,93.6-20.9-30.6-48.5-205.8-53.6-249.9,1-1.7,1.3-2.1,1.9-4.2,4.3-15.2,4.5-35.5,4.5-51.5,0-74.2-20.2-141.8-57.5-205.4-17.3-64.1-27.8-129.7-56.8-190.1Z"/>
  <path class="st7" d="M1274.8,2265.7c-24.2-119.9-30.5-266.3,22.3-379.1,22.1-47.3,58.9-86.1,108.6-104.1,51.5-18.6,107-10.3,155.6,13,139.1,66.8,189.4,246.1,237,380.4,13,30.2,30.5,101.3,45.9,122.9,68.6,168.3,153.9,322,274.4,458.9,35.1,39.9,72.7,77.1,110.1,114.7-.5,0-1.1,0-1.6.1-17.8,1-38.8-4.3-56.4-7.4-37.7-6.6-75.3-13.8-112.3-23.6-82-21.7-222.8-78.7-292-5.6-22.7,24-34.2,59-36.2,91.4l-27.1-14.3c-134.6-101.4-253.2-228.5-331.2-378.8-20.9-40.2-37.6-82.2-54.7-124.1-16.5-47.4-32.5-95.2-42.2-144.5Z"/>
  <path class="st11" d="M2066.3,1926.3l1.9-1.6c9.4,9.5,16.8,21.2,25.5,31.4,18.5,21.9,40.9,46.5,63.4,64.4,9.5,7.6,18.7,15.1,27,24.1,28.6,25.5,57.9,49.3,88.5,72.3,45.3,34.2,97.5,69.1,134.1,113,11.2,10.2,33.3,26.2,39.6,39.4,57.3,54.1,125.9,153.2,159.9,223.9,12.6,28.2,27.4,55.3,40,83.5,15.1,33.6,27.9,68.5,41.1,102.9,60.8,5.8,104.7,33,143.3,79.9,23,27.9,35.7,53.1,45.9,87.6,30.9,34.5,54.3,133.2,51.6,179.8-2.1,36.8-16,71.8-44.1,96.3-29.8,26-68.5,34.4-107.2,31.6-80.1-5.9-161.6-58.1-213-117.9-64.7-75.3-116.6-182.6-154.4-274.1,9.1,48.4,22.1,92.4,40.1,138.2-39.3-2.3-78.5-5.6-117.6-9.8-20.7-2.4-78.9-13.9-95-11.8l-8.1-6.9c-37.4-37.6-75-74.9-110.1-114.7-120.5-136.9-205.8-290.6-274.4-458.9-15.4-21.6-32.9-92.7-45.9-122.9,14.6-6.7,28.8-15.9,42.8-23.8,64.1-36.5,126.9-77.2,174.2-135,22.1-29.2,37.6-56.8,51.1-90.9Z"/>
  <path class="st13" d="M2446.1,2269.4c57.3,54.1,125.9,153.2,159.9,223.9-3.3,4.2-6.7,8.4-10.1,12.5-61.7,73.2-155.4,111.8-249.2,120.1,34.8-34.9,68.4-71.3,90.3-116,38.7-78.6,36.9-159.2,9-240.5Z"/>
  <path class="st14" d="M2066.3,1926.3l1.9-1.6c9.4,9.5,16.8,21.2,25.5,31.4,18.5,21.9,40.9,46.5,63.4,64.4-28.1,99.8-113.4,179.8-201.2,229.3-35.5,20-73.1,35.7-111.6,49-15.4-21.6-32.9-92.7-45.9-122.9,14.6-6.7,28.8-15.9,42.8-23.8,64.1-36.5,126.9-77.2,174.2-135,22.1-29.2,37.6-56.8,51.1-90.9Z"/>
  <path class="st13" d="M2050.8,2498.6c19.6-19,38.9-38.4,56.1-59.6,71.2-88,101-202.1,91.2-314.1-2.3-26.7-11.4-52.2-14-78.6,0-.6,0-1.1-.1-1.7,28.6,25.5,57.9,49.3,88.5,72.3,45.3,34.2,97.5,69.1,134.1,113-18.3,54.2-50.6,107-89.4,149-69.9,75.6-164.1,116.1-266.3,119.7Z"/>
  <path class="st13" d="M2687.2,2679.6c60.8,5.8,104.7,33,143.3,79.9,23,27.9,35.7,53.1,45.9,87.6,3.9,38.1,5.7,80.5-20,112.2-14.8,18.3-36.4,27.7-59.5,29.8-52.7,4.8-110.5-21.4-150.5-54-40.2-32.8-73.6-78.5-78.3-131.5-2.6-29.7,4.8-59.3,24.6-82.2,24.3-28,58.6-38.8,94.4-41.7Z"/>
  <path class="st11" d="M860.5,556.9c35.5-98,132.4-180.2,222.2-229.3,33.6-18.4,113.6-56.7,152.2-44.1,13.7,4.4,18.7,12.6,24.8,25,4,50.3-11.9,79.4-39.2,119.9-3.3,4.9-8.4,10.3-8.8,16.4,89.5-59.4,228.1-63.3,330.5-42.5,58.6,11.9,121.2,35.6,173.3,65.7,36.4,16.6,130.2,85.2,147.8,117.5,30.5,14.5,99.9,119.4,116.8,152.1,16.2,21.4,54.1,103,54.9,129,17.9,28.5,27.9,77.3,36.5,110.4,7.9,25.4,25.6,86,22.8,110.9-2,18-11.1,36.2-19.3,52.1-104.7,200.9-390.5,335.9-596.2,400-7.5,2.4-15.1,4.8-22.7,7-7.6,2.2-15.2,4.4-22.9,6.4-7.7,2.1-15.3,4-23,5.9-7.7,1.9-15.4,3.6-23.2,5.3-7.7,1.7-15.5,3.3-23.3,4.7-7.8,1.5-15.6,2.9-23.4,4.2-7.8,1.3-15.6,2.5-23.5,3.6-7.8,1.1-15.7,2.1-23.6,3-7.9.9-15.7,1.7-23.6,2.4-7.9.7-15.8,1.3-23.7,1.8-7.9.5-15.8.9-23.7,1.3-7.9.3-15.8.5-23.8.7-7.9.1-15.8.2-23.8,0-7.9,0-15.8-.2-23.8-.5-7.9-.3-15.8-.6-23.7-1.1-7.9-.5-15.8-1-23.7-1.7-7.9-.6-15.8-1.4-23.7-2.2-7.9-.8-15.7-1.8-23.6-2.8-7.9-1-15.7-2.2-23.5-3.4-7.8-1.2-15.6-2.6-23.4-4-7.8-1.4-15.6-2.9-23.3-4.6-7.8-1.6-15.5-3.3-23.2-5.1-7.7-1.8-15.4-3.7-23.1-5.7-7.7-2-15.3-4.1-22.9-6.3-7.6-2.2-15.2-4.5-22.8-6.8-7.6-2.4-15.1-4.8-22.6-7.4-7.5-2.6-15-5.2-22.4-7.9-7.4-2.7-14.8-5.6-22.2-8.5-7.4-2.9-14.7-5.9-22-9-7.3-3.1-14.5-6.3-21.7-9.6-7.2-3.3-14.4-6.6-21.5-10.1-7.1-3.5-14.2-7-21.3-10.6-33.8-17.8-67.1-36.7-98.5-58.6-64.7-45.4-164.9-136-188.2-210.9-13-41.7-3.8-89.4,16.5-127.4,10.7-20,24.9-37.8,33.1-59,1-2.5,2-4.9,3-7.4,5.5,4.8,13.2,7.3,18.1,11.9,4.3,13.8,14.7,26.1,25.2,35.9,21,19.6,47.9,30.7,76.8,29.1,1.9,0,3.8-.2,5.8-.4,1.9-.2,3.8-.4,5.7-.7,1.9-.3,3.8-.6,5.7-1,1.9-.4,3.8-.8,5.6-1.2,1.9-.5,3.7-1,5.6-1.5,1.8-.6,3.7-1.2,5.5-1.8,1.8-.6,3.6-1.3,5.4-2.1,1.8-.7,3.5-1.5,5.3-2.3,1.7-.8,3.5-1.7,5.2-2.6s3.4-1.9,5-2.8c1.7-1,3.3-2,4.9-3.1,1.6-1.1,3.2-2.2,4.7-3.3s3.1-2.3,4.5-3.6c1.5-1.2,2.9-2.5,4.4-3.8,1.4-1.3,2.8-2.6,4.2-4,1.4-1.4,2.7-2.8,4-4.2,41.5-46.2,44-103.1,41.1-161.8,8.2-11.4,12.2-25.2,13.8-39,6.7-58.6-20-128-56.3-173.1-12.1-14.2-27.9-24.5-45.1-31.5.3-.8.6-1.6.9-2.4,12.1-24.4,88.9-105.5,114.4-111.5-10.5,17.1-19.2,39.9-18.4,60.4.2,5.3,1.3,7,5.2,10.4,8-2.4,21.7-23,28.1-29.7,20.8-22,45-39.4,71.1-54.7-1.8,9.6-7.3,27-2,35.5Z"/>
  <path class="st8" d="M828.1,1112.2c7.2.8,11.9,2.4,17.9,6.5,13.5,9.1,28.1,24.5,30.6,41.2,1.1,7.5-2.2,11.1-6.5,16.5-6.3,2.2-11.9,4.1-18.5,1.6-10.9-4.1-18.3-14.8-22.3-25.2-5.4-13.9-7-26.7-1.2-40.6Z"/>
  <path class="st8" d="M1232.8,1081.9c6.4.3,12.6.5,17,6,4.2,5.2,3.2,13.7,1.7,19.7-4.9,19.7-17.9,38-35.2,48.3-1.5,0-3.1.2-4.6,0-4.6-.8-9.1-2.7-11.5-6.9-4.9-8.4-2.2-20.5,1-29,6.4-17.4,14.8-29.9,31.7-38Z"/>
  <path class="st14" d="M1373.2,805c-27.5,10-50,40.4-82.6,33.4-7.4-1.6-14.4-5.1-18.3-11.7-5.8-9.7-4.1-22.4-1.6-32.8,15.8-68,91.2-138.3,148.4-173.5,95.8-58.8,214.5-75.7,324.7-60.4,40.3,5.6,79.9,15.9,119.4,25.5,30.5,14.5,99.9,119.4,116.8,152.1-12.9-5.8-25.3-16-37.5-23.3-82.4-49.2-182-41.7-271-18.9-41.6-30.1-90.4-42.1-141.2-33.7-51.9,8.6-95.1,38.3-125.4,80.9-13.3,18.7-24.7,40.6-31.7,62.4Z"/>
  <path class="st8" d="M1373.2,805c7-21.9,18.4-43.7,31.7-62.4,30.3-42.6,73.5-72.2,125.4-80.9,50.8-8.4,99.6,3.6,141.2,33.7,89.1-22.8,188.7-30.3,271,18.9,12.2,7.3,24.7,17.5,37.5,23.3,16.2,21.4,54.1,103,54.9,129,17.9,28.5,27.9,77.3,36.5,110.4-21.2-10.6-42.2-21.4-64.7-28.8-81.1-26.8-174.2-23.1-254.7,3.6-17.7,5.9-43.9,13.7-58.3,25.8-.5,5.2-3.7,8.1-7.4,11.4-40.9,36.2-83,57.9-138.8,55.3-48.4-2.3-95.8-21.9-128.6-58.2-48.2-53.3-49.2-113.1-45.6-181Z"/>
  <path class="st0" d="M1666.1,894.2c1.4.4,2.6,1.4,3.9,2.1l.4,4c-5.7,14.7-18,26.8-29.3,37.5-22.6,21.4-61.5,30.7-91.9,29.9-39.1-1.1-67.5-14.9-94.2-43.2-6.3-7.8-10.7-16.3-15.3-25.2,23.7,13.9,41.8,32.3,68.9,40.6,58.7,18,108.2-20.1,157.5-45.7Z"/>
  <path class="st5" d="M1499.7,721.1c10.7-.4,21.6.4,31.7,4.4.9.4,1.9.8,2.8,1.2.9.4,1.8.9,2.7,1.3.9.5,1.8,1,2.7,1.5s1.7,1.1,2.6,1.6c.8.6,1.7,1.2,2.5,1.8.8.6,1.6,1.2,2.4,1.9.8.7,1.5,1.3,2.3,2,.7.7,1.5,1.4,2.2,2.1s1.4,1.5,2.1,2.2c.7.8,1.3,1.6,1.9,2.4.6.8,1.2,1.6,1.8,2.4.6.8,1.1,1.7,1.7,2.5.5.9,1.1,1.7,1.5,2.6.5.9,1,1.8,1.4,2.7.4.9.9,1.8,1.3,2.8.4.9.8,1.9,1.1,2.8.7,1.9,1.3,3.9,1.8,5.9.5,2,.9,4,1.2,6.1.3,2,.5,4.1.6,6.2s.1,4.1,0,6.2c-.1,2.1-.3,4.1-.6,6.2-.3,2-.7,4.1-1.2,6.1-.5,2-1.1,4-1.8,5.9-.7,1.9-1.5,3.8-2.4,5.7-9.2,18.7-24.5,27.9-43.4,34.6-14.6,1.9-28.6.3-41.5-7.2-1.8-1.1-3.5-2.2-5.2-3.4-1.7-1.2-3.3-2.6-4.9-4-1.5-1.4-3-2.9-4.4-4.4-1.4-1.6-2.7-3.2-3.9-4.9-1.2-1.7-2.4-3.4-3.4-5.2-1.1-1.8-2-3.7-2.9-5.6-.9-1.9-1.6-3.8-2.3-5.8-.7-2-1.2-4-1.7-6-.5-2.1-.8-4.2-1-6.3-.2-2.1-.4-4.2-.4-6.3,0-2.1,0-4.2.2-6.3.2-2.1.5-4.2.9-6.3.4-2.1.9-4.1,1.5-6.2.6-2,1.3-4,2.1-6,.8-2,1.7-3.9,2.7-5.7,1-1.9,2.1-3.7,3.2-5.5,10.5-15.6,24.2-22.6,42.2-26.1Z"/>
  <path class="st14" d="M1671.4,695.4c89.1-22.8,188.7-30.3,271,18.9,12.2,7.3,24.7,17.5,37.5,23.3,16.2,21.4,54.1,103,54.9,129,17.9,28.5,27.9,77.3,36.5,110.4-21.2-10.6-42.2-21.4-64.7-28.8-81.1-26.8-174.2-23.1-254.7,3.6-17.7,5.9-43.9,13.7-58.3,25.8-22.5,10.8-43.5,23.7-66.9,32.5-48,18-105.8,18.1-152.8-3.4-35.2-16.1-63.9-44.5-77.5-81.2-10.9-29.3-14.2-90.1-1.4-118.5l1,.9c-5.9,37.8,5.8,85.9,26.2,118.1,1.4,2.2,2.9,4.4,4.4,6.6,1.5,2.2,3.1,4.3,4.7,6.4,1.6,2.1,3.3,4.1,5,6.1,1.7,2,3.5,4,5.3,5.9,1.8,1.9,3.7,3.8,5.6,5.6,1.9,1.8,3.9,3.6,5.9,5.3,2,1.7,4.1,3.4,6.1,5,2.1,1.6,4.2,3.2,6.4,4.7,2.2,1.5,4.4,3,6.6,4.4,2.2,1.4,4.5,2.8,6.8,4,2.3,1.3,4.6,2.5,7,3.7,2.4,1.2,4.8,2.3,7.2,3.3,2.4,1.1,4.9,2,7.4,3,2.5.9,5,1.8,7.5,2.6,2.5.8,5.1,1.5,7.6,2.2,2.6.7,5.1,1.3,7.7,1.8,2.6.5,5.2,1,7.8,1.4,2.6.4,5.2.7,7.9,1,2.6.3,5.3.5,7.9.6,2.6.1,5.3.2,7.9.2s5.3,0,7.9-.2c2.6-.1,5.3-.3,7.9-.6,2.6-.3,5.3-.6,7.9-1,2.6-.4,5.2-.8,7.8-1.4,2.6-.5,5.2-1.1,7.7-1.8,2.6-.6,5.1-1.4,7.6-2.1,2.5-.8,5-1.6,7.5-2.5,2.5-.9,5-1.9,7.4-2.9,2.4-1,4.9-2.1,7.2-3.2,2.4-1.1,4.8-2.3,7.1-3.6,2.3-1.3,4.6-2.6,6.9-3.9,2.3-1.4,4.5-2.8,6.7-4.3,47.3-31.4,67.4-77.4,78.3-131.5l.2-2.9c4.6-59.7-13.7-98-51.9-142.6Z"/>
  <path class="st11" d="M1671.4,695.4c89.1-22.8,188.7-30.3,271,18.9,12.2,7.3,24.7,17.5,37.5,23.3,16.2,21.4,54.1,103,54.9,129-12.5-8.9-25.2-17.2-38.8-24.3-67.5-35.2-140.8-42.6-214-22-20,5.6-39.2,14.3-59,20.6l.2-2.9c4.6-59.7-13.7-98-51.9-142.6Z"/>
  <path class="st8" d="M1676,1146.9c9.1-1,14.7-1.8,22.3,3.9,3.7,7.7,4.7,14,3.4,22.5-9.8,66.7-116.3,171.5-171.5,212.9-4,3-8,6-12,8.9s-8.1,5.8-12.2,8.6c-4.1,2.8-8.3,5.6-12.4,8.3-4.2,2.7-8.4,5.3-12.6,7.9-4.2,2.6-8.5,5.1-12.8,7.6-4.3,2.5-8.6,4.9-13,7.3-4.4,2.4-8.8,4.7-13.2,7-4.4,2.3-8.9,4.5-13.4,6.7-4.5,2.2-9,4.3-13.5,6.3-4.5,2-9.1,4-13.7,6-4.6,1.9-9.2,3.8-13.8,5.6-4.6,1.8-9.3,3.6-14,5.3-4.7,1.7-9.4,3.4-14.1,4.9-4.7,1.6-9.4,3.1-14.2,4.6-4.8,1.5-9.5,2.9-14.3,4.2-4.8,1.3-9.6,2.6-14.4,3.9-4.8,1.2-9.7,2.4-14.5,3.5-4.8,1.1-9.7,2.2-14.6,3.1-4.9,1-9.8,1.9-14.7,2.8-4.9.9-9.8,1.7-14.7,2.4-4.9.7-9.8,1.4-14.8,2.1-4.9.6-9.9,1.2-14.8,1.7-4.9.5-9.9.9-14.9,1.3-5,.4-9.9.7-14.9.9-5,.3-9.9.4-14.9.6-5,.1-9.9.2-14.9.2-5,0-9.9,0-14.9-.2-5-.1-9.9-.3-14.9-.5-5-.2-9.9-.6-14.9-.9-5-.4-9.9-.8-14.9-1.3-5-.5-9.9-1-14.8-1.7-4.9-.6-9.9-1.3-14.8-2-129.3-19.4-283.9-84.2-363.3-191.1-21.1-30.7-33.2-58.5-32.9-96.2-27.1-17.7-53-36.7-75.9-59.7,59.4,34.6,114.7,74.1,180.4,96.6,196.4,67.3,522.6-3.7,718.7-55.2,56.7-14.9,112-36.3,169.2-48.9Z"/>
  <path class="st0" d="M692.2,1218.8c85.7,49,177.2,72.3,275.8,72.9,18.9.1,68.3-6.3,83.4.5-80.1,36.5-121.2,66.7-182.9,128.9-17.3-7.3-33.9-18.3-49.3-29-65-44.7-112.6-94.1-127-173.3Z"/>
  <path class="st6" d="M1051.4,1292.2c28.8-11.5,66.2-12,97.1-15.9,33.3-4,66.5-8.8,99.6-14.3,98.1-16.2,195.1-37.6,290.9-64.3,21.6-6.1,135.5-44.4,149-39.4,2.3.9,3.4,3.3,3.8,5.6,6.1,34.5-64.9,120.7-88.9,146.8-13.5,14.7-29.2,32.5-45.5,43.7-146.1-59.6-361.3-53.8-507.4,7.4-37.4,15.7-101.9,53.4-124.4,87.2-19.4-8.4-38.2-18.6-57.1-28,61.7-62.3,102.8-92.4,182.9-128.9Z"/>
  <path class="st13" d="M925.6,1449.1c22.5-33.8,87-71.6,124.4-87.2,146.1-61.2,361.2-67,507.4-7.4-124.5,105.1-275,156.5-438.4,142.9-67.8-5.7-130.4-22.9-193.4-48.2Z"/>
  <path class="st13" d="M860.5,556.9c35.5-98,132.4-180.2,222.2-229.3,33.6-18.4,113.6-56.7,152.2-44.1,13.7,4.4,18.7,12.6,24.8,25,4,50.3-11.9,79.4-39.2,119.9-3.3,4.9-8.4,10.3-8.8,16.4,89.5-59.4,228.1-63.3,330.5-42.5,58.6,11.9,121.2,35.6,173.3,65.7-15.7,1.5-45.5-5.7-62-7.7-4.8,0-9.5.2-14.3.4s-9.5.4-14.3.7c-4.8.3-9.5.7-14.3,1.1-4.8.4-9.5.9-14.2,1.4-4.7.5-9.5,1.1-14.2,1.8-4.7.6-9.4,1.4-14.1,2.1s-9.4,1.6-14.1,2.5c-4.7.9-9.4,1.8-14,2.8-4.7,1-9.3,2-14,3.2-4.6,1.1-9.3,2.3-13.9,3.5-4.6,1.2-9.2,2.5-13.8,3.8-4.6,1.3-9.1,2.7-13.7,4.2-4.5,1.4-9.1,2.9-13.6,4.5-4.5,1.6-9,3.2-13.5,4.8-4.5,1.7-8.9,3.4-13.3,5.2-4.4,1.8-8.8,3.6-13.2,5.5-4.4,1.9-8.7,3.8-13.1,5.8-4.3,2-8.6,4-12.9,6.1-4.3,2.1-8.5,4.3-12.8,6.5s-8.4,4.5-12.6,6.8c-4.2,2.3-8.3,4.7-12.4,7.1-4.1,2.4-8.2,4.9-12.3,7.4-4.1,2.5-8.1,5.1-12.1,7.7-4,2.6-8,5.3-11.9,8-3.9,2.7-7.8,5.5-11.7,8.3s-7.7,5.7-11.5,8.5c-3.8,2.9-7.5,5.8-11.3,8.8-3.7,3-7.4,6-11,9.1-3.6,3.1-7.2,6.2-10.8,9.4-3.6,3.2-7.1,6.4-10.6,9.6s-6.9,6.6-10.3,9.9c-3.4,3.3-6.8,6.7-10.1,10.1-44.9,45.8-84.9,97.2-121.8,149.6-25.7,36.5-49.6,79.9-82.5,110.2-12.5,11.5-26.5,20.2-43.9,20.1-23.2-.1-42.1-15.4-57.2-31.6-56.5-60.9-94.6-165.3-90.6-248.3.2-4.4.4-8.9,1.1-13.3,3.1-22.5,6.6-44.3,11.8-66.4Z"/>
  <path class="st9" d="M1211.6,444.7c89.5-59.4,228.1-63.3,330.5-42.5,58.6,11.9,121.2,35.6,173.3,65.7-15.7,1.5-45.5-5.7-62-7.7-30.7-12.4-66.3-17.6-99-22.4-150.5-22.2-237.5-.7-380.1,43.1,12.2-12.4,24.7-24.4,37.4-36.2Z"/>
  <path class="st9" d="M860.5,556.9c35.5-98,132.4-180.2,222.2-229.3,33.6-18.4,113.6-56.7,152.2-44.1,13.7,4.4,18.7,12.6,24.8,25-20.4,1.4-39.8,3.4-59.6,8.8-92.3,25.1-194.5,95.4-257.3,167.9-7.3,8.3-14.3,16.9-20.9,25.8-6.6,8.9-12.9,18-18.8,27.3-5.9,9.3-11.5,18.9-16.7,28.7-5.2,9.8-10,19.7-14.4,29.9-3.7,8.3-9.2,27.1-17.9,29.5l-5.4-2.9c3.1-22.5,6.6-44.3,11.8-66.4Z"/>
</svg>