<?xml version="1.0" encoding="UTF-8"?>
<svg id="Layer_1" xmlns="http://www.w3.org/2000/svg" xmlns:xlink="http://www.w3.org/1999/xlink" version="1.1" viewBox="0 0 4000 4000">
  <!-- Generator: Adobe Illustrator 29.2.1, SVG Export Plug-In . SVG Version: 2.1.0 Build 116)  -->
  <defs>
    <style>
      .st0 {
        fill: #e5b154;
      }

      .st1 {
        fill: url(#linear-gradient2);
      }

      .st2 {
        fill: url(#linear-gradient1);
      }

      .st3 {
        fill: url(#linear-gradient3);
      }

      .st4 {
        fill: url(#linear-gradient);
      }

      .st5 {
        fill: #212121;
      }

      .st6 {
        fill: #020101;
      }

      .st7 {
        display: none;
        fill: #fff;
        stroke: #231f20;
        stroke-miterlimit: 10;
      }

      .st8 {
        fill: #f16b1c;
      }

      .st9 {
        fill: #a52b1f;
      }

      .st10 {
        fill: #f6d768;
      }

      .st11 {
        fill: #fefefe;
      }

      .st12 {
        fill: #c0361c;
      }

      .st13 {
        fill: #767675;
      }
    </style>
    <linearGradient id="linear-gradient" x1="1480.9" y1="2764.1" x2="1524" y2="2443.4" gradientTransform="translate(0 4002) scale(1 -1)" gradientUnits="userSpaceOnUse">
      <stop offset="0" stop-color="#616161"/>
      <stop offset="1" stop-color="#8b8b89"/>
    </linearGradient>
    <linearGradient id="linear-gradient1" x1="870.3" y1="2989.7" x2="1267.3" y2="1931.7" gradientTransform="translate(0 4002) scale(1 -1)" gradientUnits="userSpaceOnUse">
      <stop offset="0" stop-color="#f7a40e"/>
      <stop offset="1" stop-color="#e1522d"/>
    </linearGradient>
    <linearGradient id="linear-gradient2" x1="2787.1" y1="1261.7" x2="1597.1" y2="3029" gradientTransform="translate(0 4002) scale(1 -1)" gradientUnits="userSpaceOnUse">
      <stop offset="0" stop-color="#eb5c1b"/>
      <stop offset="1" stop-color="#f47819"/>
    </linearGradient>
    <linearGradient id="linear-gradient3" x1="2315.4" y1="944.1" x2="1125.4" y2="2711.3" xlink:href="#linear-gradient2"/>
  </defs>
  <rect class="st7" width="4000" height="4000"/>
  <g>
    <path class="st6" d="M1963.2,2533.4c.1.1.2.3.3.4h1c0,0-1.3-.4-1.3-.4Z"/>
    <path class="st6" d="M1961.6,2531l-.2,1.7,1.9.7c-.7-.9-1.3-1.7-1.7-2.4Z"/>
    <path class="st6" d="M1960.9,2532.5c0,.3.2.7.4,1v-.8c.1,0-.4-.2-.4-.2Z"/>
    <path class="st6" d="M1961.3,2533.6h0s0,0,0,0h0Z"/>
    <path class="st6" d="M2742.8,650.2c-113.4-28.6-230.2-43.6-343.2-74-35-9.4-71.7-20.2-104.7-35.3-28.5-13-83.3-50.2-107.9-54.7-2-.4-2.2-.3-3.9-.4-9.4,4.1-16.9,8.3-20.7,18.3-5.2,13.8,1.3,29.3,7.4,41.7,22.3,45,57.1,77.2,96.4,107.2,82.5,62.8,177.3,102.9,271.2,144.8,257.8,115.2,484.9,225.6,600.7,500.9,47.4,112.7,55.9,240.3,16.9,356.5-37.3,111.3-129.8,219.7-235.3,271.6-98.9,48.6-178.9,24.7-278.6,3.4-41.1-8.9-82.5-15.6-124.3-20-90.9-9.1-180.1-5.7-270.3,8.3-28.5,4.6-56.6,10.7-84.5,18.1-27.9,7.4-55.3,16.2-82.3,26.3-25.2,9.2-50.1,19.3-74.7,30.2-49.2,22.3-98.3,51.5-154.1,47.9-7.5-.4-14.9-1.4-22.3-2.8-7.4-1.4-14.6-3.4-21.7-5.8-18-6.2-36.8-15.3-45.1-33.5-5.6-12.4-5.8-27.7-.6-40.3,10.2-24.8,41.8-50.6,59.3-71.7,92.2-110.8,121.5-222.2,69.5-359.2-20.8-54.9-76.7-170-111.2-213.9-22.4-28.5-52.1-51.5-72.8-81.3-9.8-14.1-12.5-32.3-19.4-47.8-1.5-3.3-3.1-6.6-4.7-9.9-1.7-3.3-3.4-6.5-5.2-9.7-1.8-3.2-3.7-6.3-5.6-9.4-1.9-3.1-4-6.1-6-9.1-2.1-3-4.2-6-6.4-8.9-2.2-2.9-4.5-5.8-6.8-8.6-2.3-2.8-4.8-5.5-7.2-8.2-2.5-2.7-5-5.3-7.6-7.9-2.6-2.6-5.2-5.1-7.9-7.5-2.7-2.5-5.5-4.8-8.3-7.2-2.8-2.3-5.7-4.6-8.6-6.8-2.9-2.2-5.9-4.3-8.9-6.4-3-2.1-6.1-4.1-9.2-6-3.1-1.9-6.3-3.8-9.4-5.6-3.2-1.8-6.4-3.5-9.7-5.1-3.3-1.6-6.6-3.2-9.9-4.7-61.7-27.1-130.2-19.9-194.5-7.6-55-20.8-113.9-26.1-172.2-28.8-141.4-6.4-254.4,6.8-389.6,48.3-39.8-28-90.1-33.1-137.2-24.6-45,8.1-83.3,33.2-109.3,70.8-2.3,3.3-4.4,6.7-6.5,10.2-2.1,3.5-4,7-5.8,10.6-1.8,3.6-3.6,7.2-5.2,10.9-1.6,3.7-3.1,7.4-4.5,11.2-1.4,3.8-2.7,7.6-3.8,11.5-1.2,3.9-2.2,7.7-3.1,11.7-.9,3.9-1.7,7.9-2.4,11.8-.7,4-1.2,8-1.7,12-49.5,50.6-82.3,114.1-81.6,186.1.1,13.1,1.4,26.1,3.9,39-62.4,54.2-113.7,128-119.8,212.5-5.1,70.2,26.5,135.1,72.1,186.9,120,136.5,358.9,241.2,535.4,271,39.2,40.9,74.7,94.2,95.6,146.9-119.4,58.9-234.2,139.2-279.4,270.6-39.1,114-25.8,227.8,8.8,340.6-.4.6-.8,1.2-1.2,1.8-10.3,14.3-23.2,26.4-34,40.3-22.7,29-56,82.1-49.6,121.1,1.6,9.6,6.7,17.8,14.8,23.3,6.6,4.4,14.8,5.3,22.5,6.5,28.6-21.3,54.2-35.3,87.6-47.8,7.9,53.9,14.6,121.1,62,156.5,8.5,6.3,22.6,14.2,33.7,11.6,7.5-1.8,12.3-6.5,15.7-13.1,6.3-12.3,4.4-29.4,5.8-42.9,3.2-31.8,27.7-68.7,49.1-91.3,31.6,29.1,80.4,75.1,126.8,72.8,9.9-.5,18.8-4.4,25.3-12,4.7-5.4,6.9-11.4,6.3-18.6-2.1-23.9-24.7-40.5-32.4-62.1-6.3-17.8-5.3-38.4-4.7-56.9,40.7-10.7,99.7-18.5,123.7-58.2,6.8-11.2,10.2-25.2,6.7-38.2-3.2-11.9-11.5-21.5-22.3-27.3-7.4-4-16.9-6.4-25.3-7.6l-2.6-.3c-49.6-5.4-76.2,8.2-112.4-36.7-41.5-51.3-95.3-153.6-109.3-217.7,70.6-33.1,140-55.9,218.5-59,.5.5.9,1,1.4,1.4,13.2,14,23.3,31.5,34.6,47.1,17.4,24,36.7,47.9,57,69.5,139.2,148.6,323.5,238,519.3,285.6-12.9,16.7-29.4,31.4-44.4,46.3-38.6,38.3-130.9,131.4-183.4,138.2-37.9,4.9-95-68.3-122.4-34-11.9,14.9-13,42-10.1,60.2,6.6,41.7,34.8,59.8,64.5,84.4-16.6,12.2-33.7,22.3-52.1,31.5-17,8.5-37.4,15.4-51.8,28-5.2,4.6-8.5,9.6-9.6,16.5-1.8,11.4,2.6,21,9.4,29.9,20.2,26.9,57.9,35.9,89.6,39.7,25.8,3.1,50.8,1.5,76.5.1-6.5,41-23.4,111,2.6,147.7,4.8,6.7,11.7,11,19.8,12.4,7.5,1.3,15.8-2.4,21.6-6.9,15.4-12,27.4-30,39.8-44.9,21.3-25.5,49.5-48.6,78.4-64.9l1.7,1.8c25.5,27.4,57.2,99.1,98.6,100.2,9.4.3,18.3-3.2,24.8-10,14.4-15.2,16-43.9,14.8-63.9-2.5-38.7-13.5-76.6-1.7-115,13-42.4,72.5-103.3,101-140.6,34-44.5,68.5-89.8,96.8-138.2,16.4-28.2,29.1-59,45.8-86.7,56.2-13.9,113.8-23,170.2-37,197.8-49.2,392.5-116.9,572.1-214.1,27.5,12.6,54.7,25.4,83.5,34.9,16.5,81.2,30.4,148.1-18.5,221-18,26.9-64,70.5-56.6,105.4,2.1,10,8.6,20.5,17.5,25.8,13.9,8.2,32.5,5.5,47.2,1.1,35.5-10.6,82.7-47.4,116.1-48.8,9.1-.4,18.2,3.1,26,7.4,26.7,14.8,63.4,70.8,93.3,63.9,12-2.8,21.3-12.4,27.1-22.8,15.6-28.2,14.8-66.3,15.3-97.8,33.2-3,105.2-3.3,128.7-29.6,6.7-7.5,10.8-18.9,9.6-29-1.9-15.6-14.5-27.9-26.5-36.7-44.9-33.1-88.1-39.4-98.1-103.5-5.1-32.9-4.7-67.3-7.6-100.6-4.8-54.4-18.4-104.5-36.6-155.7,48.3-33.8,96.6-65.9,142-103.8,184.9-154.4,318-359.2,360.4-598,43.5-245.5-34.2-513.5-175.6-715.4-166.1-237.3-462.5-391.4-738.3-461.1ZM509.6,1291.4c13-23.5,39.6-63.7,67.3-70.8,8.5-2.1,16.9-.6,24.3,3.9,23.8,14.4,31.6,48.1,37.3,73.3-11.5,3.2-22.5,6.4-33.4,11.4l3.3,1.2,6.4-1.7-1.3,1.9,3.9-2.7c.4,9.7.3,19.7,2,29.2.6,3.4.7,4.5-.6,7.7,4.8-2.5,10.9-6.6,16.5-4.8,4.3,1.4,7.2,4.1,8.9,8.3,3,7.3.7,19.3-2.8,26.1-1,1.9-1.7,2.8-2.8,4.5-5.4,38.7-17.4,101.5-46.9,129.8-10.8,14.1-22.1,19.8-38.8,24.3-5.5-1.7-11.3-3.4-16.5-6.1-25.2-13.3-41.8-40.5-49.5-67.2-15.9-55.2-4.9-118.6,22.7-168.3ZM908.4,2549.6c15.6,82.9,79.7,241.8,149.5,290.2,42,29.1,110.3,5,130.2,24.6.6,5.8-1,9.8-4.6,14.6-20.7,27.4-93.6,35.8-127.2,41.8-9,47.5-4.7,91.5,22.9,132,3.8,5.6,7.7,11.1,11.6,16.6-34.9-14.6-64.4-38.1-93-62.5-12.4-10.6-24.4-22.2-38.4-30.7-10.2,12.9-17.1,27.6-26,41.4-31.6,49-43.6,60.2-47.6,120.3-8.3-8.7-15.2-16.3-19.7-27.7-17.7-37.1-29.6-88.9-31.2-129.7-1-8.8-1.6-17.2-1.8-26-29,21.3-67.4,31.3-99.4,48-7.1,4.5-13.9,11-20.4,16.3,11.2-55,49.2-109.7,93.8-143-39-105.2-57.3-235.3-16.5-342.6,45.7-120.3,150.5-196.2,264-246.5,12.1,26.3,24.6,52.5,37.4,78.4,20.3,35.3,37.1,72.2,58.1,107.4-84.5,4.4-173.1,26.4-241.6,77.2ZM1710.8,2855.6c-174-51-337.9-147.4-454.3-287.9-38.1-45.5-70.5-97.1-98.9-149,16.5-36,33.4-64.2,72.7-78.8,62.6-23.2,145.7-8.9,204.6,18.8,134.2,63.1,172.4,180.9,263.5,281.6,32.7,36.2,68.4,62.7,109.7,88.1,18,9.5,36.3,18.2,54.1,27.8,3,4.1,4.1,8,4.6,13,3.6,38.7-30.7,83.9-54.1,111.2-34.3-4.8-68.7-15.1-101.9-24.8ZM2164.1,2894.4c-21.9,5.8-43.1,10.9-65.8,12.1,6.2-45.6,15.8-80,14.8-127.6,212.8-5.9,439.1-106.7,628.6-197.4,7,2.4,18.2,27.2,24,34.5,14.5,18.3,32.1,32.9,50.8,46.7-202.8,111.8-427.8,179.4-652.4,231.8ZM3563.6,2009.3c-18.8,35.8-33.5,73.2-53.7,108.3-4.6,7.8-9.2,15.5-14,23.2-4.8,7.7-9.6,15.3-14.6,22.8-4.9,7.5-10,15-15.1,22.4s-10.4,14.8-15.7,22c-5.3,7.3-10.7,14.5-16.2,21.6-5.5,7.1-11.1,14.2-16.8,21.2-5.7,7-11.4,13.9-17.3,20.8-5.9,6.9-11.8,13.6-17.8,20.4-6,6.7-12.1,13.3-18.3,19.9-6.2,6.6-12.5,13-18.8,19.4-6.4,6.4-12.8,12.7-19.3,19-6.5,6.2-13.1,12.4-19.8,18.5-6.7,6.1-13.4,12.1-20.2,18-6.8,5.9-13.7,11.7-20.7,17.5-7,5.7-14,11.4-21.1,16.9-7.1,5.6-14.3,11-21.5,16.4-30.8,23.2-63.4,44.1-95.5,65.3-5.3-9.5-11.5-18.6-17.3-27.8-10.5-15.7-22.3-29.6-35.3-43.2,42-29.6,86.6-55.5,128.6-85,100.5-70.6,196-148.6,278-240.3,28.9-32.3,54.8-67.1,81.8-100.9,1,1.3.4.3.5,3.5ZM3564.6,1344.8c14.6,31.5,25.1,66.4,34.3,99.8,34.9,126,42.8,252.2,19,380.9-6.6,35.6-14.5,71-26.8,105.1-14.2,39.2-40.1,65.7-65.8,97.4-20.4,25-41.5,49.4-63.4,73.3-21.8,23.8-44.3,47-67.4,69.5-23.1,22.5-46.9,44.4-71.3,65.6-24.4,21.2-49.3,41.7-74.9,61.4-58.4,45.4-120.1,87.1-180.9,129.2-43.6-35.3-84.1-47.7-139-55.1-24.5,1.6-47.6,3-71.2,10.3,39.1,1.3,76.8,1.6,114,15.2,3.5,1,6.9,2.2,10.4,3.4,3.4,1.2,6.8,2.5,10.2,3.9,3.4,1.4,6.7,2.8,10,4.4,3.3,1.5,6.5,3.2,9.8,4.9,3.2,1.7,6.4,3.5,9.5,5.3,3.1,1.9,6.2,3.8,9.2,5.8,3,2,6,4.1,8.9,6.2,2.9,2.1,5.8,4.4,8.6,6.7,2.8,2.3,5.6,4.6,8.3,7.1,2.7,2.4,5.3,4.9,7.9,7.5,2.6,2.6,5.1,5.2,7.6,7.8,2.5,2.7,4.8,5.4,7.2,8.2,2.3,2.8,4.6,5.6,6.7,8.5,2.2,2.9,4.3,5.9,6.3,8.9,2,3,4,6.1,5.9,9.2,1.9,3.1,3.7,6.2,5.4,9.4,29.8,54.6,45.8,118.5,50.4,180.2,3.6,47.6,1.2,104.3,21.4,148.2,25,54.3,107.4,73,113.5,94.9-2.2,4.7-4.6,6.7-9.5,8.5-32,12-84.3.6-111.3,16.1-6,3.4-10.3,9.8-13.1,16-13.3,28.3-2.1,80.7-13.6,101.8-3.7,1-3.9,1-7.2-.8-8.1-4.6-15.3-15-21.5-22-30.7-34.7-62.4-56.7-111.1-45.7-11.9,2.7-23.4,7.1-34.3,12.4-17.6,8.5-71.4,45.2-89.4,35.6-1.5-2.6-2.3-2.7-1.6-5.7,3.2-14.6,20.1-33.1,29.3-44.7,14-17.8,28.4-35.1,39.4-55.1,37.1-67.4,23.3-144.5,7.8-215.9,8.3.7,16,1.6,24.2.2l1.2-2c-10.5-10.6-31.5-18.3-45-25-85.9-43.1-182-77.6-184.6-189.5.1-8.4.9-16.9-1.8-24.9l-2.2-1c-11.4,15.7-10.2,51.1-7.2,69.5.9,5.8,2.1,11.6,3.6,17.2-51.1,25.1-104.4,45.7-157.3,66.6-135.5,53.7-325.9,125.7-471.9,126-12.8-79.3-56.2-141.3-111.6-197.1-6.8-6.9-28.5-25.2-35.9-34.6l-2.3-.2c3.8,10.9,27.5,34.8,35,45,56.9,60.6,100.9,143.7,98.4,228.6-4.1,134.2-127.3,274.2-208.2,374.4-25.7,31.9-56.6,64.7-74.3,101.9-25.9,54.1,2.3,97.2,4.7,151.5.3,6.3.9,14.8-1.2,20.8-1,2.9-1.2,3-2.6,5.2l-3,1.5c-21-10.2-68.9-90.2-82-112.9-5.3,1.9-10.5,4-15.7,6.3-5.2,2.3-10.3,4.7-15.3,7.3-5,2.6-10,5.3-14.8,8.2-4.9,2.9-9.6,5.9-14.3,9.1-4.7,3.2-9.2,6.5-13.7,10-4.5,3.5-8.8,7.1-13,10.8-4.2,3.7-8.4,7.6-12.4,11.6-4,4-7.9,8.1-11.6,12.3-4.2,4.7-34.5,43.2-38.1,43.6-1,0-1.8-.8-2.8-1.2-12.2-24.1,7-107.6,9.8-137.4-3.1-7-6.4-14-9.1-21.2-42.2,8-124.7,13.1-162-12.1-1.6-1.1-3.2-2.3-4.8-3.5,11.4-11.2,27-17.3,41.3-23.9,40.7-19,69.5-42.6,94.5-80.1-6.2-1.8-12.8-3.1-18.8-5.3-26.5-9.7-52-30.1-63.1-56.2-8.3-12.9-9-25.9-9.2-40.7,30.3,16.6,51.3,45.5,89.4,43.7,79.1-3.6,214.5-139.7,266.3-198.7,37.9-43.2,80-91.5,75.6-152.9-4.6-63.4-53.5-118.5-99.2-158.3-18.8-16.3-39.2-30.5-57.9-47,15.7,22.7,30.3,43.5,49,64,29,30.3,59.4,64,79.3,101.1-9-3-18.3-5.9-25.9-11.8-15.5-7.2-31-17.6-45-27.2-145.9-100.4-180.1-288.1-355.4-359.9-59.3-24.3-152.4-37.6-213.1-11.4-34.4,14.9-56.6,42-70.1,76.2-14.4-25.1-25.8-52.5-38.2-78.6-20.9-44-42.5-87.6-64.8-130.9-7.9-9.2-14.3-22.9-21-33.3-11.5-17.8-23.8-34.8-36.3-51.9,12.7,2.1,25.4,4,38.2,5.5,12.8,1.5,25.6,2.7,38.4,3.5,12.8.8,25.7,1.4,38.5,1.6,12.9.2,25.7,0,38.6-.4,12.9-.5,25.7-1.3,38.5-2.4,12.8-1.1,25.6-2.6,38.3-4.3,12.7-1.8,25.4-3.9,38.1-6.3,12.6-2.4,25.2-5.2,37.7-8.2,20.2-4.8,40.8-9,60.4-15.9-152.3,11.1-258.5,21.2-410.7-9.5-161.7-32.6-338.1-102-464.3-210.3-27.2-23.3-53.2-48.3-73.1-78.3-3.4-4.9-6.2-10-9-15.2-1.4-2.1-2.8-4.2-4.1-6.3-1.3-2.1-2.6-4.3-3.8-6.5-1.2-2.2-2.4-4.4-3.6-6.6-1.1-2.2-2.2-4.5-3.3-6.8-1-2.3-2.1-4.6-3-6.9-1-2.3-1.9-4.6-2.7-7-.9-2.4-1.7-4.7-2.4-7.1-.8-2.4-1.5-4.8-2.1-7.2-.7-2.4-1.3-4.8-1.8-7.3-.6-2.4-1.1-4.9-1.5-7.4-.5-2.5-.9-4.9-1.2-7.4-.4-2.5-.7-5-.9-7.5-.3-2.5-.5-5-.6-7.5-.2-2.5-.3-5-.3-7.5,0-2.5,0-5,0-7.5,0-2.5.1-5,.3-7.5,4.4-77.5,51.3-145.4,108-195.7,8.5,25.8,21.1,49.9,41.1,68.7,12.4,11.7,28.5,21.5,46.1,20.5,19.7-1.1,36.6-15,48.8-29.6,42.4-50.5,54.9-143.5,49.5-207.1-2.8-32.9-13.8-74.1-40.7-95.6-18.5-14.8-36.7-15.7-59.1-13.6,3.6-13.8,9-27.3,15.5-40,17.6-34.8,45-61.3,82.5-73.4,38.2-12.4,86.5-9.6,122.5,8.5-20.8,19.9-44.9,35.9-65.5,56.5,42.5-20.2,83-41.3,128.1-55.6,129.5-41.1,278-46.4,412-29.3,26.5,3.4,52.9,6.7,78.8,13.7-36.8,24.4-65.4,47.9-91.9,83.6,27-18.5,54-37.2,83.1-52.2,62.5-32.3,141.5-45,209.5-23.1,48.2,15.5,91.2,51.4,114.2,96.6,19.1,37.4,24.8,76.3,11.8,116.4-14.8-31.2-37.4-62.6-67.9-80-32-18.3-70.5-21.4-105.8-11.8-52.2,14.2-92.5,53.4-118.5,99.6-28.3,50.4-46.5,120-29.7,177.1,10.9,37.2,38.3,65.3,71.8,83.5,43.7,23.7,92.3,27.4,139.7,12.8,46.2-14.2,85.2-44.4,107.5-87.7,31.3-60.8,23.4-129.4,3.7-192.3,7.1-8.6,12.4-16.3,15.4-27.1l1.8-9.1c3.4-1.7,3.8-1.7,7.4-.6,9.1,2.8,17.9,13.5,24.3,20.3,14,14.7,27.8,29.7,39.6,46.3,17.8,25.1,31.7,53.6,46.2,80.8,12.6,23.6,26.2,47.2,37.8,71.3,40.1,83.4,59.1,170.5,27,259.8-3.8,10.8-8.2,21.4-13.2,31.7-5,10.3-10.5,20.3-16.6,30-45.1,70.8-141.7,164.9-217.2,200.3-25.8,12.1-53.5,16.8-79.6,27.3,54.5,6.1,101.7-6.2,149.7-32-24.5,48.3-22.4,67.1-26.9,118.7,3.8,27.2,10.3,50.4,31.2,70.1,49.8,46.9,121.7,27,179.9,50.1,34.2,13.6,61.2,44.7,99.3,47.4,35.5,2.5,62.9-21.3,93.4-35.3,10.2-4.6,20.6-8.5,31.3-11.7,10.7-3.2,21.6-5.7,32.6-7.5,11.6-1.7,23.2-2.5,34.9-2.6,11.7,0,23.3.7,34.9,2.3,39.8,5.2,76.8,16.9,116.5,3.8,60.7-20.1,97.2-82.9,160.6-96.3,18.8-4,38.1-3.9,57.1-2.3,50.4,4.1,100.2,19.5,150.2,3.5,30.4-9.7,58.6-24.3,90.6-28.4,33.7-4.3,66.9,3.6,100.7,2.7,23.3-.6,83-8.2,98.7-24.8,1.2-4,1.9-3.6,0-7.7-13.4-2.9-70.7,16.1-90.8,18.5-39.2,4.6-78.4-7.9-118.2,0-40.1,8-75.4,31.4-116.9,34.8-58.4,4.7-115.8-21.9-174.2-8-65.9,15.7-100.5,74.9-161.2,95.4-39.1,13.2-77.7,1.8-117.1-2.5-11.5-1.3-23.1-1.8-34.6-1.7-11.6.2-23.1,1.1-34.6,2.7-27.8,4.1-54.1,13.1-79,26-18.2,9.4-36.5,22.5-56.8,26.3-39.9,7.5-74.1-28.9-107.7-44.9-54.4-26-120.9-6.4-172.2-44-19-13.9-29.2-33.8-32.5-56.9-7.2-51.2,14.1-114.2,44.7-154.8,1.1,9.3,2.7,18.4,6.2,27.1,11.4,27.9,37.9,46.4,65.2,57,83.6,32.4,160.4-5.7,236.3-38.4,36.7-15.8,73.4-30.9,111.6-42.8,70.8-22.1,146.2-34.7,220.2-39.5,31.8-1.9,63.6-2.1,95.4-.8,31.8,1.4,63.5,4.4,95,9,68.5,9.9,136.1,26.5,203.5,42,38.1,8.8,76.8,19.3,115.7,23.3,16.8,1.8,38.4,3.2,54.2-3.8-6.7-4.4-23.7-2.3-32.3-3-20.2-1.6-39.6-6.9-58.7-13.3,54-12.3,104.5-37.9,150.9-67.8,113.4-73.1,194.3-194.8,221.8-326.3,17.8-84.9,11.1-166.4-10.7-249.7-6.9-26.6-14.5-53-25.3-78.3-21.4-50-48.8-95.4-78.4-140.8-119.9-163.7-306.3-263.5-487.8-343.6-78.6-34.6-158.4-66.1-233.5-108.3-62-34.9-154.9-94-174.9-165.6,9.9,6.4,20,12.3,29.6,19.1,30.2,16.7,60.7,33.1,92.9,45.8,118,46.7,246.8,58.7,369,90.8,314.3,82.5,611.4,213.2,793.1,496.6,29.3,45.7,73,125.5,87.5,176.4l.4,1.4ZM1621.5,1503.5c-34.9,40.9-81.2,59-133.8,63-33.8,2.3-73.2-9.6-99.5-31.1-25-20.5-36-50.9-39-82.2-5.2-54.4,17.4-114.1,52.1-155.6,29.5-35.4,71.2-61.7,117.4-66.1,33.1-1,64,7.5,89.7,28.9,32.4,26.9,46.6,66,50.2,107,4.2,48.1-5.1,98.5-37.2,136.1Z"/>
    <path class="st11" d="M615,1367.8c1.6,5.1,6,8.4,11,10.1,4,1.3,8.6,1.1,12.7,1.1,1.2-1.7,1.9-2.6,2.8-4.5,3.5-6.8,5.7-18.8,2.8-26.1-1.7-4.1-4.6-6.9-8.9-8.3-5.6-1.8-11.7,2.3-16.5,4.8-3.4,7.8-6.6,14.5-3.9,23Z"/>
    <path class="st12" d="M1546.2,3186.6c-3.7-10.5-68.9-52.7-82-58.8,11.1,26.1,36.7,46.5,63.1,56.2,6.1,2.2,12.6,3.6,18.8,5.3.4-1.3.6-1.1,0-2.7Z"/>
    <path class="st12" d="M1831.6,2727.2c7.6,5.9,16.9,8.8,25.9,11.8-19.9-37.1-50.3-70.8-79.3-101.1-1.9,31.3,59.4,77.2,53.4,89.3Z"/>
    <path class="st5" d="M578.8,1332.3c-4,9.9-8.5,19.3-14.8,27.9-13.7,34.3-22,67.2-6.8,103,7.7,18.2,20.2,32.3,34.6,45.5,29.5-28.3,41.6-91.1,46.9-129.8-4.1,0-8.7.2-12.7-1.1-5-1.6-9.3-4.9-11-10.1-2.7-8.5.4-15.2,3.9-23,1.3-3.2,1.3-4.3.6-7.7-1.7-9.5-1.6-19.5-2-29.2l-3.9,2.7,1.3-1.9-6.4,1.7-3.3-1.2c-12.4,5.2-17.1,14.5-26.4,23.1Z"/>
    <path class="st13" d="M536.5,1526.9c5.1,2.7,10.9,4.4,16.5,6.1,16.7-4.5,28-10.2,38.8-24.3-14.4-13.3-26.9-27.3-34.6-45.5-15.1-35.7-6.9-68.7,6.8-103-7.9,5.3-15.7,8.1-25.3,8.5-8.5.3-16-2.7-22.1-8.6-9.3-8.9-14.1-23.2-13.6-35.9.5-13.2,6.7-27.1,16.6-36,7.2-6.4,16.4-9.5,26-9,9.3.5,19.8,3.6,26,11,9.6,11.6,8.4,28,7.2,42.1,9.3-8.7,14-18,26.4-23.1,10.9-5,21.9-8.1,33.4-11.4-5.7-25.2-13.4-58.8-37.3-73.3-7.4-4.5-15.8-6.1-24.3-3.9-27.7,7-54.3,47.3-67.3,70.8-27.5,49.7-38.6,113.1-22.7,168.3,7.7,26.7,24.3,53.9,49.5,67.2Z"/>
    <path class="st11" d="M571.6,1290.2c-6.1-7.4-16.6-10.5-26-11-9.6-.5-18.8,2.5-26,9-9.9,8.9-16.1,22.8-16.6,36-.5,12.7,4.3,27,13.6,35.9,6.1,5.9,13.6,8.8,22.1,8.6,9.6-.3,17.4-3.2,25.3-8.5,6.4-8.6,10.8-18.1,14.8-27.9,1.3-14,2.4-30.4-7.2-42.1Z"/>
    <path class="st12" d="M2433,678.5c-67.7-29.9-133.4-57.3-187.1-110.3-7.7-7.6-24-23.4-24.1-34.3-9.6-6.8-19.7-12.7-29.6-19.1,20,71.6,112.9,130.7,174.9,165.6,75,42.2,154.9,73.7,233.5,108.3,181.5,80,368,179.8,487.8,343.6-5.1-32.8-41.1-76.7-62.2-103-154.2-191.6-377.8-255.8-593.1-350.8Z"/>
    <path class="st0" d="M3563.1,2005.8c-27,33.8-53,68.6-81.8,100.9-82,91.8-177.6,169.8-278,240.3-42.1,29.6-86.6,55.4-128.6,85,13,13.6,24.8,27.5,35.3,43.2,5.8,9.2,12,18.3,17.3,27.8,32.1-21.3,64.7-42.2,95.5-65.3,7.2-5.4,14.4-10.8,21.5-16.4,7.1-5.6,14.1-11.2,21.1-16.9,7-5.7,13.9-11.6,20.7-17.5,6.8-5.9,13.6-11.9,20.2-18,6.7-6.1,13.3-12.2,19.8-18.5,6.5-6.2,12.9-12.6,19.3-19,6.4-6.4,12.6-12.9,18.8-19.4,6.2-6.6,12.3-13.2,18.3-19.9,6-6.7,12-13.5,17.8-20.4,5.9-6.9,11.6-13.8,17.3-20.8,5.7-7,11.3-14.1,16.8-21.2,5.5-7.1,10.9-14.4,16.2-21.6,5.3-7.3,10.5-14.6,15.7-22s10.2-14.9,15.1-22.4c4.9-7.5,9.8-15.1,14.6-22.8,4.8-7.7,9.4-15.4,14-23.2,20.2-35.1,34.9-72.5,53.7-108.3-.1-3.3.5-2.3-.5-3.5Z"/>
    <path class="st0" d="M1866.8,2769.3c-.5-5-1.6-8.9-4.6-13-17.9-9.6-36.2-18.3-54.1-27.8l-3,5.3c-15.6,5.7-41.7.6-58.4-.6-124.8-8.6-248.6-34.4-361.6-89.6-20-9.8-39.7-19.5-58.6-31.4-12.7-8.1-56.8-39.7-67.1-43.5-1-.4-1.9-.7-2.9-1,116.3,140.5,280.2,236.9,454.3,287.9,33.2,9.7,67.6,20,101.9,24.8,23.4-27.3,57.7-72.5,54.1-111.2Z"/>
    <path class="st0" d="M2765.6,2615.9c-5.8-7.3-17-32.1-24-34.5-189.5,90.7-415.8,191.6-628.6,197.4,1.1,47.6-8.6,82.1-14.8,127.6,22.7-1.2,43.9-6.3,65.8-12.1,224.5-52.4,449.5-120,652.4-231.8-18.7-13.8-36.3-28.4-50.8-46.7Z"/>
    <path class="st8" d="M882.7,3035.2c4.3-10.7,9.3-21,14.9-31.1,25.6-45.1,52.3-52.9,99.5-65.9-34.6-31.1-57.1-42.8-82-85.4-46.8-80.2-86.6-216-62.1-306,22.7-83.3,107.9-131.7,182.7-161.5,16.5-6.6,39-9.7,53.7-18.6.8-.5,1.6-1,2.5-1.5-12.8-26-25.3-52.1-37.4-78.4-113.5,50.3-218.2,126.2-264,246.5-40.8,107.3-22.6,237.3,16.5,342.6-44.6,33.3-82.5,88.1-93.8,143,6.6-5.3,13.3-11.9,20.4-16.3,20.3-35.3,64.1-64.8,102.4-76.8-.6,18.3-1,36.6-1.2,54.8,1.6,40.8,13.6,92.6,31.2,129.7,5.8-8,2.9-31.2,5.8-42.3,2.9-11.1,6.6-22,10.9-32.7Z"/>
    <path class="st12" d="M733.6,3002.4c32-16.7,70.4-26.7,99.4-48,.2,8.8.8,17.3,1.8,26,.3-18.3.7-36.6,1.2-54.8-38.2,11.9-82.1,41.5-102.4,76.8Z"/>
    <path class="st6" d="M1608.5,1260.3c-25.7-21.4-56.6-29.9-89.7-28.9-46.2,4.4-87.9,30.7-117.4,66.1-34.7,41.5-57.3,101.2-52.1,155.6,3,31.4,13.9,61.8,39,82.2,26.3,21.5,65.7,33.4,99.5,31.1,52.6-4.1,98.8-22.2,133.8-63,32.1-37.6,41.4-88,37.2-136.1-3.6-41.1-17.9-80.1-50.2-107ZM1609,1347.6c0,1.5-.2,2.9-.5,4.4-.2,1.4-.5,2.9-.9,4.3-.4,1.4-.8,2.8-1.4,4.2-4.5,12-13.7,20.7-25.3,25.9-6,2.7-12,3.3-18.5,3.9,2.3,3.3,3,6,3.4,9.9,3.9,35.5-3.5,77.1-26.3,105.4-12.7,15.8-30.4,27.6-51,29.1-19.2,1.4-36.9-7.3-51.1-19.5-26.6-23-41.6-59.7-44.1-94.3-2.3-32.4,5.7-63.9,27.5-88.5,19.6-22,47.8-36.7,77.4-38.2,14.6-.7,29.9,2.4,41,12.3,12.7-6.2,25.2-8.1,38.9-3.4,1.4.5,2.8,1,4.2,1.7,1.4.6,2.7,1.3,4,2.1,1.3.8,2.6,1.6,3.8,2.4,1.2.9,2.4,1.8,3.6,2.8,1.1,1,2.2,2,3.3,3.1,1,1.1,2,2.2,3,3.4.9,1.2,1.8,2.4,2.6,3.7.8,1.3,1.5,2.6,2.2,3.9.6,1.3,1.2,2.7,1.7,4,.5,1.4.9,2.8,1.3,4.2.4,1.4.6,2.8.9,4.3.2,1.4.4,2.9.4,4.4,0,1.5,0,2.9,0,4.4Z"/>
    <path class="st4" d="M1608.5,1260.3c-25.7-21.4-56.6-29.9-89.7-28.9-46.2,4.4-87.9,30.7-117.4,66.1-34.7,41.5-57.3,101.2-52.1,155.6,3,31.4,13.9,61.8,39,82.2,26.3,21.5,65.7,33.4,99.5,31.1,52.6-4.1,98.8-22.2,133.8-63,32.1-37.6,41.4-88,37.2-136.1-3.6-41.1-17.9-80.1-50.2-107ZM1609,1347.6c0,1.5-.2,2.9-.5,4.4-.2,1.4-.5,2.9-.9,4.3-.4,1.4-.8,2.8-1.4,4.2-4.5,12-13.7,20.7-25.3,25.9-6,2.7-12,3.3-18.5,3.9,2.3,3.3,3,6,3.4,9.9,3.9,35.5-3.5,77.1-26.3,105.4-12.7,15.8-30.4,27.6-51,29.1-19.2,1.4-36.9-7.3-51.1-19.5-26.6-23-41.6-59.7-44.1-94.3-2.3-32.4,5.7-63.9,27.5-88.5,19.6-22,47.8-36.7,77.4-38.2,14.6-.7,29.9,2.4,41,12.3,12.7-6.2,25.2-8.1,38.9-3.4,1.4.5,2.8,1,4.2,1.7,1.4.6,2.7,1.3,4,2.1,1.3.8,2.6,1.6,3.8,2.4,1.2.9,2.4,1.8,3.6,2.8,1.1,1,2.2,2,3.3,3.1,1,1.1,2,2.2,3,3.4.9,1.2,1.8,2.4,2.6,3.7.8,1.3,1.5,2.6,2.2,3.9.6,1.3,1.2,2.7,1.7,4,.5,1.4.9,2.8,1.3,4.2.4,1.4.6,2.8.9,4.3.2,1.4.4,2.9.4,4.4,0,1.5,0,2.9,0,4.4Z"/>
    <path class="st11" d="M1607.8,1334.5c-.4-1.4-.8-2.8-1.3-4.2-.5-1.4-1.1-2.7-1.7-4-.7-1.4-1.4-2.7-2.2-3.9-.8-1.3-1.7-2.5-2.6-3.7-.9-1.2-1.9-2.3-3-3.4-1-1.1-2.1-2.1-3.3-3.1-1.1-1-2.3-1.9-3.6-2.8-1.2-.9-2.5-1.7-3.8-2.4-1.3-.8-2.7-1.4-4-2.1-1.4-.6-2.8-1.2-4.2-1.7-13.7-4.6-26.2-2.8-38.9,3.4-11,10.3-20.1,22.4-20.4,38.1-.2,11.3,4.5,21.6,12.5,29.5,8.7,8.5,19.5,13.2,31.2,16.1,6.4-.6,12.5-1.3,18.5-3.9,11.6-5.2,20.8-13.9,25.3-25.9.5-1.4,1-2.8,1.4-4.2.4-1.4.7-2.8.9-4.3.2-1.4.4-2.9.5-4.4,0-1.5,0-2.9,0-4.4,0-1.5-.2-2.9-.4-4.4-.2-1.4-.5-2.9-.9-4.3Z"/>
    <path class="st5" d="M1518.8,1344.7c.3-15.7,9.4-27.9,20.4-38.1-11.1-9.9-26.4-13-41-12.3-29.6,1.5-57.8,16.1-77.4,38.2-21.8,24.6-29.9,56.1-27.5,88.5,2.5,34.6,17.5,71.2,44.1,94.3,14.2,12.3,31.9,21,51.1,19.5,20.6-1.5,38.3-13.4,51-29.1,22.8-28.3,30.2-70,26.3-105.4-.4-3.9-1.1-6.6-3.4-9.9-11.7-2.9-22.5-7.6-31.2-16.1-8-7.9-12.7-18.1-12.5-29.5Z"/>
    <path class="st12" d="M2012.5,2610.9c7.8,15.4,14.1,32.5,18.8,49,27.1,96.7-11.6,209.7-60.3,294.2-57.4,99.7-172.4,225.5-271.1,284.6-6.8,4.1-13.7,8-20.8,11.6-7.1,3.6-14.2,7-21.5,10-7.3,3.1-14.7,5.9-22.2,8.5-7.5,2.6-15.1,4.8-22.8,6.8-65,17.2-135.4,19.7-202.3,17.7,1.6,1.2,3.1,2.4,4.8,3.5,37.3,25.1,119.9,20.1,162,12.1,2.7,7.2,6,14.2,9.1,21.2-2.9,29.8-22,113.4-9.8,137.4.9.4,1.8,1.3,2.8,1.2,3.5-.3,33.9-38.9,38.1-43.6,3.7-4.2,7.6-8.3,11.6-12.3,4-4,8.1-7.9,12.4-11.6,4.2-3.7,8.6-7.3,13-10.8,4.5-3.5,9-6.8,13.7-10,4.7-3.2,9.4-6.2,14.3-9.1,4.9-2.9,9.8-5.6,14.8-8.2,5-2.6,10.1-5,15.3-7.3,5.2-2.3,10.4-4.4,15.7-6.3,13.2,22.7,61,102.7,82,112.9l3-1.5c1.4-2.2,1.6-2.3,2.6-5.2,2.1-6,1.5-14.5,1.2-20.8-2.5-54.3-30.6-97.4-4.7-151.5,17.7-37.1,48.6-70,74.3-101.9,80.8-100.1,204.1-240.2,208.2-374.4,2.6-84.9-41.4-168-98.4-228.6.2,1,.4,2.1.7,3.1,2.3,9.7,10.9,20.1,15.6,29.2Z"/>
    <path class="st12" d="M1089.4,2366.6c-14.7,8.9-37.3,12.1-53.7,18.6-74.8,29.8-160.1,78.2-182.7,161.5-24.5,90,15.3,225.8,62.1,306,24.9,42.6,47.4,54.4,82,85.4-47.1,13-73.9,20.8-99.5,65.9-5.6,10-10.6,20.4-14.9,31.1-4.3,10.7-7.9,21.6-10.9,32.7-2.9,11.1,0,34.3-5.8,42.3,4.5,11.4,11.4,19,19.7,27.7,4-60.1,16-71.3,47.6-120.3,8.9-13.8,15.8-28.5,26-41.4,14,8.5,26,20.1,38.4,30.7,28.6,24.4,58.1,47.9,93,62.5-3.9-5.5-7.8-11-11.6-16.6-27.6-40.5-31.9-84.5-22.9-132,33.7-6,106.5-14.3,127.2-41.8,3.6-4.8,5.2-8.8,4.6-14.6-19.9-19.6-88.2,4.5-130.2-24.6-69.8-48.4-133.9-207.3-149.5-290.2,68.5-50.8,157.1-72.8,241.6-77.2-21-35.1-37.8-72-58.1-107.4-.8.5-1.6,1-2.5,1.5Z"/>
    <path class="st12" d="M3577.2,1433.8c4.6,34.8,5.8,70.6,5.5,105.8-1.2,185.4-53.7,324.5-164.5,470.9-48.6,64.2-98,117.8-158.7,171.1-72.2,63.5-159.5,134.1-250.4,168.2-27,10.1-54,13.5-80.8,22,55,7.4,95.5,19.8,139,55.1,60.8-42.1,122.5-83.8,180.9-129.2,25.5-19.8,50.5-40.2,74.9-61.4,24.4-21.2,48.1-43,71.3-65.6,23.1-22.5,45.6-45.7,67.4-69.5,21.8-23.8,42.9-48.2,63.4-73.3,25.7-31.7,51.6-58.2,65.8-97.4,12.3-34.1,20.2-69.5,26.8-105.1,23.8-128.6,15.9-254.9-19-380.9-9.3-33.4-19.7-68.3-34.3-99.8-.1,1-.3,2.1-.4,3.1-1.8,18.6,10.2,64.4,13,85.8Z"/>
    <path class="st12" d="M3006.7,2432.9c24.2,27.3,37.1,74.3,33.4,110.2-1.8,17.3-8.1,33.8-21.8,45.1-23.8,19.7-65.1,16.4-93.7,12.8-56.6-7.1-136-30.6-172.3-78.2-2.7-3.5-3.4-6.5-4.3-10.8,2.6,111.9,98.7,146.3,184.6,189.5,13.5,6.8,34.5,14.5,45,25l-1.2,2c-8.2,1.4-16,.5-24.2-.2,15.4,71.5,29.2,148.6-7.8,215.9-11,19.9-25.4,37.2-39.4,55.1-9.1,11.6-26.1,30.1-29.3,44.7-.7,3.1.1,3.2,1.6,5.7,18,9.5,71.8-27.2,89.4-35.6,11-5.3,22.4-9.7,34.3-12.4,48.7-11,80.5,11,111.1,45.7,6.2,7,13.5,17.5,21.5,22,3.3,1.8,3.5,1.8,7.2.8,11.5-21.1.3-73.5,13.6-101.8,2.9-6.1,7.1-12.5,13.1-16,27-15.6,79.3-4.2,111.3-16.1,4.9-1.8,7.3-3.9,9.5-8.5-6.1-22-88.5-40.6-113.5-94.9-20.2-43.9-17.8-100.6-21.4-148.2-4.7-61.7-20.6-125.6-50.4-180.2-1.7-3.2-3.5-6.3-5.4-9.4-1.9-3.1-3.8-6.2-5.9-9.2-2-3-4.1-6-6.3-8.9-2.2-2.9-4.4-5.8-6.7-8.5-2.3-2.8-4.7-5.5-7.2-8.2-2.5-2.7-5-5.3-7.6-7.8-2.6-2.6-5.2-5-7.9-7.5-2.7-2.4-5.5-4.8-8.3-7.1-2.8-2.3-5.7-4.5-8.6-6.7-2.9-2.1-5.9-4.2-8.9-6.2-3-2-6.1-3.9-9.2-5.8-3.1-1.9-6.3-3.6-9.5-5.3-3.2-1.7-6.5-3.3-9.8-4.9-3.3-1.5-6.6-3-10-4.4-3.4-1.4-6.8-2.7-10.2-3.9-3.4-1.2-6.9-2.3-10.4-3.4.6.8,1.2,1.5,1.8,2.3,9.5,12.1,23.3,21.6,33.7,33.2Z"/>
    <path class="st10" d="M1326.5,2612.2c18.8,11.9,38.6,21.6,58.6,31.4,113,55.2,236.8,81,361.6,89.6,16.7,1.2,42.8,6.3,58.4.6l3-5.3c-41.3-25.4-76.9-51.9-109.7-88.1-91.1-100.7-129.3-218.5-263.5-281.6-58.9-27.7-142-42-204.6-18.8-39.3,14.6-56.2,42.8-72.7,78.8,28.4,52,60.8,103.6,98.9,149,1,.3,1.9.6,2.9,1,10.3,3.8,54.4,35.4,67.1,43.5Z"/>
    <path class="st12" d="M1655.1,2103c0,7.3.3,14.1,1.8,21.3,4.5-51.6,2.4-70.4,26.9-118.7-48,25.7-95.3,38.1-149.7,32,26.1-10.5,53.8-15.2,79.6-27.3,75.5-35.4,172.1-129.5,217.2-200.3,6.1-9.7,11.6-19.7,16.6-30,5-10.3,9.4-20.9,13.2-31.7,32-89.3,13.1-176.4-27-259.8-11.6-24.2-25.1-47.7-37.8-71.3-14.5-27.2-28.3-55.7-46.2-80.8-11.8-16.6-25.6-31.6-39.6-46.3-6.4-6.7-15.2-17.5-24.3-20.3-3.6-1.1-4-1.2-7.4.6l-1.8,9.1c.8.5,1.5,1,2.3,1.5,5.4,3.4.5.5,4.9,2.5,22.9,10.6,86.6,110.8,99.5,136.1,10.4,20.6,18.9,41.9,25.6,64,31.4,102.5,12.3,200.1-37.8,292.8-56.8,105-161.9,177-274.9,210.1-47.6,13.9-96.8,22.2-145.7,30.2-74.9,12.2-148.4,17.2-224.2,17.3-163.2.3-270.8-20.4-422.2-79.4-45.4-17.7-90.7-35.8-133.4-59.3-46-25.3-122-64.5-151.9-105.5-3.3-9.6-8.7-23-4.3-33,1.9-4.3,4.6-5.9,9.1-6.9,22.1-4.7,55.5,28.8,73.9,37.9,3.1,1.5,5.5,1.1,8.6,1.8,3.6.8,7.1,2.5,10.5,4-18.8-18.7-43.1-50.3-67.5-59.8-13.7-5.4-23.8-2.4-36.8,3.4.5,13.9-3.7,27.9-1.7,41.5l-4.3,6.2c19.9,29.9,45.9,55,73.1,78.3,126.2,108.3,302.6,177.8,464.3,210.3,152.2,30.7,258.4,20.6,410.7,9.5-19.6,6.9-40.2,11.2-60.4,15.9-12.5,3.1-25,5.8-37.7,8.2-12.6,2.4-25.3,4.5-38.1,6.3-12.7,1.8-25.5,3.2-38.3,4.3-12.8,1.1-25.6,1.9-38.5,2.4-12.9.5-25.7.6-38.6.4-12.9-.2-25.7-.7-38.5-1.6-12.8-.8-25.6-2-38.4-3.5-12.8-1.5-25.5-3.3-38.2-5.5,12.5,17.1,24.8,34.1,36.3,51.9,6.7,10.4,13.1,24.1,21,33.3,48.6,5.6,95.9,16.5,145,18.8,148.7,7,334.5-40.4,465.1-111.1Z"/>
    <path class="st9" d="M412.2,1737.2c-4.8,2.2-6.3,3.5-11.6,2.6-2.4,10.2-2.1,19.6-3.4,29.9,2.8,5.2,5.6,10.3,9,15.2l4.3-6.2c-2-13.6,2.2-27.6,1.7-41.5Z"/>
    <path class="st6" d="M418.2,1707.1c7-4.2,15.5-3.8,23-1.6,25,7.2,47.2,32.4,66.4,49.1,15,5.6,30.4,17,44.2,25.3,30.1,18.1,60.3,36.1,93,49.4,39.3,15.5,79.3,28.7,120.1,39.8,166.8,46.2,288,33,450.6-23.7,62.4-21.7,122.7-48.8,185.4-69.8,61.4-20.6,125.2-34.4,187.5-52.1,20.8-5.9,43.7-10.8,63.6-19.2-5.9-5.3-12.8-10.4-16.9-17.3l.6-2.5c9.9-2.4,23.2,6.1,31.6,11.3,14.8,9.1,26.3,21.9,30.3,39.2,5.6,23.9-4,50-17,70-5.9,9.2-12.8,17.3-20.7,25,10.8-31.2,14.6-55.5,11.4-88.3-73.7,42.6-172,72-252.3,103.1-154.9,60.1-258.6,123.7-430.4,132.4-47.8,2.4-96.3.6-142.7-11.7-77.3-20.7-178.8-64.4-245.3-109.1-18.8-12.4-37.1-25.6-54.9-39.4-9.5-7.3-19.3-17.1-29.4-23.1-3.3-1.5-6.9-3.1-10.5-4-3.1-.7-5.5-.3-8.6-1.8-18.4-9.1-51.8-42.7-73.9-37.9-4.5,1-7.1,2.6-9.1,6.9-4.4,10,.9,23.4,4.3,33,29.9,41.1,105.9,80.2,151.9,105.5,42.7,23.5,88.1,41.6,133.4,59.3,151.4,59,259.1,79.7,422.2,79.4,75.8-.2,149.4-5.1,224.2-17.3,48.9-8,98.1-16.3,145.7-30.2,113-33,218.1-105.1,274.9-210.1,50.2-92.7,69.3-190.4,37.8-292.8-6.7-22.1-15.2-43.4-25.6-64-12.9-25.4-76.6-125.6-99.5-136.1-4.3-2,.5.9-4.9-2.5-.8-.5-1.6-1-2.3-1.5-3,10.8-8.4,18.5-15.4,27.1,19.7,62.9,27.6,131.4-3.7,192.3-22.3,43.3-61.3,73.5-107.5,87.7-47.4,14.6-96,10.9-139.7-12.8-33.5-18.2-60.9-46.2-71.8-83.5-16.7-57,1.4-126.7,29.7-177.1,26-46.3,66.3-85.4,118.5-99.6,35.3-9.6,73.7-6.5,105.8,11.8,30.5,17.4,53.1,48.8,67.9,80,13-40,7.3-79-11.8-116.4-23-45.2-66-81.1-114.2-96.6-68-21.9-147-9.2-209.5,23.1-29.1,15-56.1,33.8-83.1,52.2,26.4-35.7,55.1-59.1,91.9-83.6-25.9-7-52.3-10.3-78.8-13.7-134-17.1-282.5-11.7-412,29.3-45.1,14.3-85.6,35.5-128.1,55.6,20.6-20.7,44.7-36.6,65.5-56.5-36-18-84.3-20.9-122.5-8.5-37.5,12.1-64.9,38.6-82.5,73.4-6.4,12.7-11.9,26.2-15.5,40,22.4-2.1,40.6-1.2,59.1,13.6,26.9,21.5,37.9,62.6,40.7,95.6,5.5,63.6-7.1,156.6-49.5,207.1-12.2,14.6-29.1,28.4-48.8,29.6-17.7,1-33.7-8.8-46.1-20.5-20-18.8-32.6-42.8-41.1-68.7-56.7,50.3-103.6,118.1-108,195.7-.1,2.5-.2,5-.3,7.5,0,2.5,0,5,0,7.5,0,2.5.2,5,.3,7.5.2,2.5.4,5,.6,7.5.3,2.5.6,5,.9,7.5.4,2.5.8,4.9,1.2,7.4.5,2.5,1,4.9,1.5,7.4.6,2.4,1.2,4.9,1.8,7.3.7,2.4,1.4,4.8,2.1,7.2.8,2.4,1.6,4.8,2.4,7.1.9,2.4,1.8,4.7,2.7,7,1,2.3,2,4.6,3,6.9,1,2.3,2.1,4.5,3.3,6.8,1.1,2.2,2.3,4.4,3.6,6.6,1.2,2.2,2.5,4.3,3.8,6.5,1.3,2.1,2.7,4.2,4.1,6.3,1.3-10.2,1-19.7,3.4-29.9,2.8-11.8,6.5-26.1,17.6-32.8ZM1014.6,1700c8.9-20.7,24.4-32.6,44.6-40.9,4.4-.6,9.1-1.3,13.5-.5,6.6,1.2,16.3,3.4,19.6,10,2.3,4.5,1.4,10.1.1,14.7-7.1,26.3-33,43.2-55.2,55.9-5.7,2.5-12.8,5.8-19.1,3.6-.5-.2-1-.4-1.5-.6-.5-.2-.9-.5-1.4-.8-.4-.3-.9-.6-1.3-.9-.4-.3-.8-.7-1.2-1.1-.4-.4-.7-.8-1-1.2-.3-.4-.6-.9-.9-1.3-.3-.5-.5-.9-.7-1.4-.2-.5-.4-1-.5-1.5-3-10.3.8-24.3,4.9-33.8ZM709.1,1637.3c15.1-.5,25.2,4.8,36,15.3,12.7,12.2,23.7,30.5,23.5,48.6,0,10.3-4.3,16.9-11.3,24.1-9.2,2.4-15,2.5-23.3-2.6-15.9-9.7-26.3-29.4-30.2-47.1-3.2-14.4-2.7-25.7,5.3-38.2Z"/>
    <path class="st2" d="M418.2,1707.1c7-4.2,15.5-3.8,23-1.6,25,7.2,47.2,32.4,66.4,49.1,15,5.6,30.4,17,44.2,25.3,30.1,18.1,60.3,36.1,93,49.4,39.3,15.5,79.3,28.7,120.1,39.8,166.8,46.2,288,33,450.6-23.7,62.4-21.7,122.7-48.8,185.4-69.8,61.4-20.6,125.2-34.4,187.5-52.1,20.8-5.9,43.7-10.8,63.6-19.2-5.9-5.3-12.8-10.4-16.9-17.3l.6-2.5c9.9-2.4,23.2,6.1,31.6,11.3,14.8,9.1,26.3,21.9,30.3,39.2,5.6,23.9-4,50-17,70-5.9,9.2-12.8,17.3-20.7,25,10.8-31.2,14.6-55.5,11.4-88.3-73.7,42.6-172,72-252.3,103.1-154.9,60.1-258.6,123.7-430.4,132.4-47.8,2.4-96.3.6-142.7-11.7-77.3-20.7-178.8-64.4-245.3-109.1-18.8-12.4-37.1-25.6-54.9-39.4-9.5-7.3-19.3-17.1-29.4-23.1-3.3-1.5-6.9-3.1-10.5-4-3.1-.7-5.5-.3-8.6-1.8-18.4-9.1-51.8-42.7-73.9-37.9-4.5,1-7.1,2.6-9.1,6.9-4.4,10,.9,23.4,4.3,33,29.9,41.1,105.9,80.2,151.9,105.5,42.7,23.5,88.1,41.6,133.4,59.3,151.4,59,259.1,79.7,422.2,79.4,75.8-.2,149.4-5.1,224.2-17.3,48.9-8,98.1-16.3,145.7-30.2,113-33,218.1-105.1,274.9-210.1,50.2-92.7,69.3-190.4,37.8-292.8-6.7-22.1-15.2-43.4-25.6-64-12.9-25.4-76.6-125.6-99.5-136.1-4.3-2,.5.9-4.9-2.5-.8-.5-1.6-1-2.3-1.5-3,10.8-8.4,18.5-15.4,27.1,19.7,62.9,27.6,131.4-3.7,192.3-22.3,43.3-61.3,73.5-107.5,87.7-47.4,14.6-96,10.9-139.7-12.8-33.5-18.2-60.9-46.2-71.8-83.5-16.7-57,1.4-126.7,29.7-177.1,26-46.3,66.3-85.4,118.5-99.6,35.3-9.6,73.7-6.5,105.8,11.8,30.5,17.4,53.1,48.8,67.9,80,13-40,7.3-79-11.8-116.4-23-45.2-66-81.1-114.2-96.6-68-21.9-147-9.2-209.5,23.1-29.1,15-56.1,33.8-83.1,52.2,26.4-35.7,55.1-59.1,91.9-83.6-25.9-7-52.3-10.3-78.8-13.7-134-17.1-282.5-11.7-412,29.3-45.1,14.3-85.6,35.5-128.1,55.6,20.6-20.7,44.7-36.6,65.5-56.5-36-18-84.3-20.9-122.5-8.5-37.5,12.1-64.9,38.6-82.5,73.4-6.4,12.7-11.9,26.2-15.5,40,22.4-2.1,40.6-1.2,59.1,13.6,26.9,21.5,37.9,62.6,40.7,95.6,5.5,63.6-7.1,156.6-49.5,207.1-12.2,14.6-29.1,28.4-48.8,29.6-17.7,1-33.7-8.8-46.1-20.5-20-18.8-32.6-42.8-41.1-68.7-56.7,50.3-103.6,118.1-108,195.7-.1,2.5-.2,5-.3,7.5,0,2.5,0,5,0,7.5,0,2.5.2,5,.3,7.5.2,2.5.4,5,.6,7.5.3,2.5.6,5,.9,7.5.4,2.5.8,4.9,1.2,7.4.5,2.5,1,4.9,1.5,7.4.6,2.4,1.2,4.9,1.8,7.3.7,2.4,1.4,4.8,2.1,7.2.8,2.4,1.6,4.8,2.4,7.1.9,2.4,1.8,4.7,2.7,7,1,2.3,2,4.6,3,6.9,1,2.3,2.1,4.5,3.3,6.8,1.1,2.2,2.3,4.4,3.6,6.6,1.2,2.2,2.5,4.3,3.8,6.5,1.3,2.1,2.7,4.2,4.1,6.3,1.3-10.2,1-19.7,3.4-29.9,2.8-11.8,6.5-26.1,17.6-32.8ZM1014.6,1700c8.9-20.7,24.4-32.6,44.6-40.9,4.4-.6,9.1-1.3,13.5-.5,6.6,1.2,16.3,3.4,19.6,10,2.3,4.5,1.4,10.1.1,14.7-7.1,26.3-33,43.2-55.2,55.9-5.7,2.5-12.8,5.8-19.1,3.6-.5-.2-1-.4-1.5-.6-.5-.2-.9-.5-1.4-.8-.4-.3-.9-.6-1.3-.9-.4-.3-.8-.7-1.2-1.1-.4-.4-.7-.8-1-1.2-.3-.4-.6-.9-.9-1.3-.3-.5-.5-.9-.7-1.4-.2-.5-.4-1-.5-1.5-3-10.3.8-24.3,4.9-33.8ZM709.1,1637.3c15.1-.5,25.2,4.8,36,15.3,12.7,12.2,23.7,30.5,23.5,48.6,0,10.3-4.3,16.9-11.3,24.1-9.2,2.4-15,2.5-23.3-2.6-15.9-9.7-26.3-29.4-30.2-47.1-3.2-14.4-2.7-25.7,5.3-38.2Z"/>
    <path class="st6" d="M734,1722.7c8.3,5.1,14.1,5,23.3,2.6,7-7.1,11.2-13.8,11.3-24.1.2-18.1-10.9-36.4-23.5-48.6-10.8-10.4-20.9-15.8-36-15.3-8.1,12.5-8.5,23.8-5.3,38.2,3.9,17.7,14.3,37.4,30.2,47.1Z"/>
    <path class="st6" d="M1010.3,1735.3c.2.5.4,1,.7,1.4.3.5.6.9.9,1.3.3.4.7.8,1,1.2.4.4.8.8,1.2,1.1.4.3.8.7,1.3.9.4.3.9.6,1.4.8.5.2,1,.4,1.5.6,6.2,2.3,13.4-1.1,19.1-3.6,22.2-12.6,48.1-29.6,55.2-55.9,1.3-4.7,2.1-10.2-.1-14.7-3.3-6.6-13-8.8-19.6-10-4.4-.8-9.1-.1-13.5.5-20.2,8.3-35.7,20.2-44.6,40.9-4.1,9.5-7.9,23.5-4.9,33.8.1.5.3,1,.5,1.5Z"/>
    <path class="st6" d="M600.8,1856.2c66.6,44.7,168,88.4,245.3,109.1,46.4,12.4,94.9,14.2,142.7,11.7,171.8-8.7,275.5-72.3,430.4-132.4,80.3-31.2,178.6-60.5,252.3-103.1,3.2,32.8-.6,57.1-11.4,88.3,7.9-7.6,14.7-15.8,20.7-25,13-20,22.5-46.1,17-70-4-17.3-15.5-30.1-30.3-39.2-8.4-5.2-21.7-13.7-31.6-11.3l-.6,2.5c4.1,6.9,11,12,16.9,17.3,4.3,3.9,8.8,7.8,12.9,11.9-63.9,45.7-150.3,68.6-223.2,96.7-69.2,26.7-136.6,58.2-206.2,83.8-110.3,40.4-238.1,68.9-355.5,49.2-105.6-17.6-307.1-106.2-372.4-191.3-19.2-16.8-41.5-41.9-66.4-49.1-7.6-2.2-16.1-2.6-23,1.6-11.1,6.7-14.9,21-17.6,32.8,5.3.9,6.8-.4,11.6-2.6,13-5.8,23.1-8.8,36.8-3.4,24.4,9.5,48.7,41.2,67.5,59.8,10.1,6.1,19.9,15.8,29.4,23.1,17.8,13.8,36.1,27,54.9,39.4Z"/>
    <path class="st12" d="M880.1,1945.9c117.4,19.6,245.2-8.9,355.5-49.2,69.7-25.5,137-57.1,206.2-83.8,72.9-28.1,159.3-51,223.2-96.7-4.1-4.1-8.6-8-12.9-11.9-19.9,8.4-42.7,13.3-63.6,19.2-62.3,17.7-126.1,31.5-187.5,52.1-62.7,21-123,48-185.4,69.8-162.6,56.7-283.8,69.8-450.6,23.7-40.8-11.1-80.8-24.3-120.1-39.8-32.7-13.2-62.9-31.2-93-49.4-13.8-8.3-29.2-19.7-44.2-25.3,65.3,85.1,266.8,173.7,372.4,191.3Z"/>
    <path class="st6" d="M2683.6,670.5c-122.2-32.1-251.1-44.1-369-90.8-32.1-12.7-62.7-29.1-92.9-45.8,0,10.9,16.5,26.7,24.1,34.3,53.7,53,119.4,80.5,187.1,110.3,215.4,95,439,159.2,593.1,350.8,21.1,26.3,57.2,70.2,62.2,103,29.6,45.4,57,90.8,78.4,140.8,10.8,25.3,18.4,51.8,25.3,78.3,21.8,83.3,28.5,164.9,10.7,249.7-27.5,131.5-108.4,253.2-221.8,326.3-46.4,29.9-96.9,55.5-150.9,67.8,19.2,6.4,38.5,11.6,58.7,13.3,8.6.7,25.6-1.4,32.3,3-15.8,7-37.4,5.6-54.2,3.8-38.9-4.1-77.7-14.6-115.7-23.3-67.4-15.5-135-32.1-203.5-42-31.5-4.6-63.2-7.6-95-9-31.8-1.4-63.6-1.1-95.4.8-74,4.8-149.4,17.4-220.2,39.5-38.1,11.9-74.9,26.9-111.6,42.8-75.9,32.8-152.7,70.9-236.3,38.4-27.3-10.6-53.8-29.1-65.2-57-3.6-8.7-5.1-17.8-6.2-27.1-30.6,40.7-51.9,103.6-44.7,154.8,3.3,23,13.5,42.9,32.5,56.9,51.4,37.6,117.9,18.1,172.2,44,33.6,16,67.8,52.4,107.7,44.9,20.3-3.8,38.6-16.9,56.8-26.3,24.9-12.8,51.3-21.9,79-26,11.5-1.6,23-2.5,34.6-2.7,11.6-.2,23.1.4,34.6,1.7,39.4,4.3,78,15.7,117.1,2.5,60.7-20.5,95.3-79.7,161.2-95.4,58.4-13.9,115.8,12.7,174.2,8,41.4-3.3,76.7-26.7,116.9-34.8,39.8-8,79,4.6,118.2,0,20.2-2.4,77.4-21.3,90.8-18.5,1.8,4.1,1.2,3.7,0,7.7-15.8,16.7-75.5,24.3-98.7,24.8-33.8.9-67-7-100.7-2.7-32,4.1-60.3,18.7-90.6,28.4-50,16-99.8.5-150.2-3.5-19-1.5-38.3-1.6-57.1,2.3-63.4,13.4-99.9,76.2-160.6,96.3-39.6,13.2-76.6,1.4-116.5-3.8-11.6-1.6-23.2-2.3-34.9-2.3-11.7,0-23.3.9-34.9,2.6-11,1.8-21.9,4.3-32.6,7.5-10.7,3.2-21.1,7.1-31.3,11.7-30.5,14.1-57.9,37.8-93.4,35.3-38.1-2.7-65.1-33.8-99.3-47.4-58.2-23.2-130.1-3.2-179.9-50.1-20.9-19.7-27.3-42.9-31.2-70.1-1.5-7.2-1.7-13.9-1.8-21.3-130.6,70.7-316.5,118.2-465.1,111.1-49.2-2.3-96.4-13.2-145-18.8,22.3,43.3,43.9,87,64.8,130.9,12.4,26.1,23.8,53.5,38.2,78.6,13.5-34.2,35.7-61.3,70.1-76.2,60.7-26.2,153.8-12.9,213.1,11.4,175.2,71.8,209.4,259.5,355.4,359.9,14,9.7,29.5,20.1,45,27.2,6-12.2-55.3-58-53.4-89.3-18.7-20.5-33.3-41.3-49-64,18.7,16.4,39.1,30.7,57.9,47,45.7,39.8,94.7,95,99.2,158.3,4.4,61.4-37.6,109.7-75.6,152.9-51.9,59-187.3,195.1-266.3,198.7-38.1,1.8-59.1-27.1-89.4-43.7.2,14.8.9,27.8,9.2,40.7,13,6.1,78.3,48.3,82,58.8.6,1.6.4,1.4,0,2.7-25,37.5-53.8,61.2-94.5,80.1-14.3,6.7-29.9,12.7-41.3,23.9,66.9,2,137.2-.5,202.3-17.7,7.7-2,15.3-4.3,22.8-6.8,7.5-2.6,14.9-5.4,22.2-8.5,7.3-3.1,14.5-6.4,21.5-10,7.1-3.6,14-7.5,20.8-11.6,98.7-59.1,213.7-184.9,271.1-284.6,48.6-84.4,87.4-197.5,60.3-294.2-4.6-16.5-11-33.7-18.8-49-4.7-9.1-13.3-19.5-15.6-29.2-.2-1-.4-2.1-.7-3.1-7.5-10.3-31.1-34.1-35-45h0s0,0,0,0c-.1-.3-.3-.7-.4-1l.5.2.2-1.7c.4.7,1,1.5,1.7,2.4l1.3.5h-1c7.4,9.3,29.1,27.6,35.9,34.5,55.4,55.8,98.8,117.7,111.6,197.1,146.1-.3,336.5-72.3,471.9-126,52.9-21,106.2-41.6,157.3-66.6-1.5-5.6-2.7-11.4-3.6-17.2-3-18.3-4.2-53.8,7.2-69.5l2.2,1c2.8,8,2,16.5,1.8,24.9.8,4.3,1.6,7.3,4.3,10.8,36.4,47.6,115.7,71.2,172.3,78.2,28.7,3.6,70,6.9,93.7-12.8,13.7-11.3,20-27.9,21.8-45.1,3.7-36-9.2-83-33.4-110.2-10.4-11.7-24.2-21.2-33.7-33.2-.6-.8-1.2-1.5-1.8-2.3-37.2-13.6-74.9-13.9-114-15.2,23.6-7.3,46.8-8.7,71.2-10.3,26.8-8.5,53.8-11.9,80.8-22,90.9-34.1,178.2-104.8,250.4-168.2,60.6-53.3,110.1-106.9,158.7-171.1,110.8-146.4,163.2-285.6,164.5-470.9.2-35.1-.9-70.9-5.5-105.8-2.8-21.4-14.8-67.2-13-85.8,0-1.1.2-2.1.4-3.1l-.4-1.4c-14.5-50.9-58.2-130.7-87.5-176.4-181.7-283.4-478.8-414.1-793.1-496.6ZM1762.4,2144.9c-4.2-4.4-4.5-9.1-4.8-14.9,6,.4,11.4,1.8,16.2,5.6,5.1,4.1,6.5,8.6,7,14.9-6.4.2-13.8-.6-18.4-5.6ZM2104,2129.6c-4.1,9.4-14.5,13-23.3,15.8-3.9-.2-7.5-.3-10.7-2.7-2.3-1.7-1.6-2.6-1.9-5.1,5.2-10.1,14-14.5,23.7-19.4,1.5-.2,2-.3,3.6,0,4.9.8,7.2,2,9.7,6.1-.3,2.3-.2,2.9-1.2,5.3ZM2282.4,2053.7c-3.1-.2-5.9-.8-9-1.3-3.5-3.2-3.7-3-4.2-7.7,2.4-6.2,5.2-8.6,10.4-12.6,3.5,0,6.4.5,9.8,1.1,3.5,3.2,3.6,2.9,3.9,7.6-2.4,6.1-5.9,8.8-10.9,13ZM2516.9,2051.4c-2.8,0-5.8.2-8.5-.2-4.3-.7-6.2-2.3-8.8-5.5.4-5.7,1.3-6.6,4.6-11.1,2.6.4,4.6.9,6.9,2.2,5,2.8,7.2,5.6,8.8,11l-2.9,3.7ZM3463.2,1616.1c-5.5,91.4-60,86.5-114.1,134.8-31.5,28.1-31.5,58.1-34,96.6-1.2,17.4-5.1,33.8-16.7,47.4-27.3,32.1-82.6,54.3-117.5,80.5-29.8,22.3-54.5,49.6-82.4,74-2.1,1.5-4.6,2.5-6.9,3.6l-2.2-1.6c2.6-9.7,14.5-20.7,21.3-28.2,27.1-30.2,56.4-57.2,90.9-78.8,26.5-16.5,56.6-30.7,79.6-52,36.8-34.1,12.6-85.8,36.5-126.4,27.5-46.9,84-54.1,112.9-95.6,28-40.2,19.5-106.8,4.3-150.3-9.9-28.2-26.8-58.7-30-88.6-3.7-34.3,15.9-63.7,9.3-99-7.9-42.6-37.3-73.7-55.9-111.5-16.2-32.8-23.5-76.8-49.6-103.2-27.7-28-67.3-38.8-91.2-72.1-19.9-27.7-22.6-69.2-48.4-91.6-24-20.8-72.5-26.8-102.7-48-12.3-8.6-24.3-21.9-26.7-37.2,0-.5-.1-1-.2-1.5,13.1,7.7,21.6,23.8,35.5,31.7,40.6,22.8,90.5,21.2,116.4,65.7,16.5,28.5,21.6,59.1,46.1,83.2,25.2,24.8,60.7,35.3,84.6,61.8,25.1,27.7,28.7,68.9,44.5,101.8,19,39.7,49.7,71.9,61.8,115.1,10.8,38.5-12.4,70.1-7.7,107.6,2,16.1,9.2,32.8,14.9,48,17.1,45.4,30.7,84.5,27.7,133.9Z"/>
    <path class="st1" d="M2683.6,670.5c-122.2-32.1-251.1-44.1-369-90.8-32.1-12.7-62.7-29.1-92.9-45.8,0,10.9,16.5,26.7,24.1,34.3,53.7,53,119.4,80.5,187.1,110.3,215.4,95,439,159.2,593.1,350.8,21.1,26.3,57.2,70.2,62.2,103,29.6,45.4,57,90.8,78.4,140.8,10.8,25.3,18.4,51.8,25.3,78.3,21.8,83.3,28.5,164.9,10.7,249.7-27.5,131.5-108.4,253.2-221.8,326.3-46.4,29.9-96.9,55.5-150.9,67.8,19.2,6.4,38.5,11.6,58.7,13.3,8.6.7,25.6-1.4,32.3,3-15.8,7-37.4,5.6-54.2,3.8-38.9-4.1-77.7-14.6-115.7-23.3-67.4-15.5-135-32.1-203.5-42-31.5-4.6-63.2-7.6-95-9-31.8-1.4-63.6-1.1-95.4.8-74,4.8-149.4,17.4-220.2,39.5-38.1,11.9-74.9,26.9-111.6,42.8-75.9,32.8-152.7,70.9-236.3,38.4-27.3-10.6-53.8-29.1-65.2-57-3.6-8.7-5.1-17.8-6.2-27.1-30.6,40.7-51.9,103.6-44.7,154.8,3.3,23,13.5,42.9,32.5,56.9,51.4,37.6,117.9,18.1,172.2,44,33.6,16,67.8,52.4,107.7,44.9,20.3-3.8,38.6-16.9,56.8-26.3,24.9-12.8,51.3-21.9,79-26,11.5-1.6,23-2.5,34.6-2.7,11.6-.2,23.1.4,34.6,1.7,39.4,4.3,78,15.7,117.1,2.5,60.7-20.5,95.3-79.7,161.2-95.4,58.4-13.9,115.8,12.7,174.2,8,41.4-3.3,76.7-26.7,116.9-34.8,39.8-8,79,4.6,118.2,0,20.2-2.4,77.4-21.3,90.8-18.5,1.8,4.1,1.2,3.7,0,7.7-15.8,16.7-75.5,24.3-98.7,24.8-33.8.9-67-7-100.7-2.7-32,4.1-60.3,18.7-90.6,28.4-50,16-99.8.5-150.2-3.5-19-1.5-38.3-1.6-57.1,2.3-63.4,13.4-99.9,76.2-160.6,96.3-39.6,13.2-76.6,1.4-116.5-3.8-11.6-1.6-23.2-2.3-34.9-2.3-11.7,0-23.3.9-34.9,2.6-11,1.8-21.9,4.3-32.6,7.5-10.7,3.2-21.1,7.1-31.3,11.7-30.5,14.1-57.9,37.8-93.4,35.3-38.1-2.7-65.1-33.8-99.3-47.4-58.2-23.2-130.1-3.2-179.9-50.1-20.9-19.7-27.3-42.9-31.2-70.1-1.5-7.2-1.7-13.9-1.8-21.3-130.6,70.7-316.5,118.2-465.1,111.1-49.2-2.3-96.4-13.2-145-18.8,22.3,43.3,43.9,87,64.8,130.9,12.4,26.1,23.8,53.5,38.2,78.6,13.5-34.2,35.7-61.3,70.1-76.2,60.7-26.2,153.8-12.9,213.1,11.4,175.2,71.8,209.4,259.5,355.4,359.9,14,9.7,29.5,20.1,45,27.2,6-12.2-55.3-58-53.4-89.3-18.7-20.5-33.3-41.3-49-64,18.7,16.4,39.1,30.7,57.9,47,45.7,39.8,94.7,95,99.2,158.3,4.4,61.4-37.6,109.7-75.6,152.9-51.9,59-187.3,195.1-266.3,198.7-38.1,1.8-59.1-27.1-89.4-43.7.2,14.8.9,27.8,9.2,40.7,13,6.1,78.3,48.3,82,58.8.6,1.6.4,1.4,0,2.7-25,37.5-53.8,61.2-94.5,80.1-14.3,6.7-29.9,12.7-41.3,23.9,66.9,2,137.2-.5,202.3-17.7,7.7-2,15.3-4.3,22.8-6.8,7.5-2.6,14.9-5.4,22.2-8.5,7.3-3.1,14.5-6.4,21.5-10,7.1-3.6,14-7.5,20.8-11.6,98.7-59.1,213.7-184.9,271.1-284.6,48.6-84.4,87.4-197.5,60.3-294.2-4.6-16.5-11-33.7-18.8-49-4.7-9.1-13.3-19.5-15.6-29.2-.2-1-.4-2.1-.7-3.1-7.5-10.3-31.1-34.1-35-45h0s0,0,0,0c-.1-.3-.3-.7-.4-1l.5.2.2-1.7c.4.7,1,1.5,1.7,2.4l1.3.5h-1c7.4,9.3,29.1,27.6,35.9,34.5,55.4,55.8,98.8,117.7,111.6,197.1,146.1-.3,336.5-72.3,471.9-126,52.9-21,106.2-41.6,157.3-66.6-1.5-5.6-2.7-11.4-3.6-17.2-3-18.3-4.2-53.8,7.2-69.5l2.2,1c2.8,8,2,16.5,1.8,24.9.8,4.3,1.6,7.3,4.3,10.8,36.4,47.6,115.7,71.2,172.3,78.2,28.7,3.6,70,6.9,93.7-12.8,13.7-11.3,20-27.9,21.8-45.1,3.7-36-9.2-83-33.4-110.2-10.4-11.7-24.2-21.2-33.7-33.2-.6-.8-1.2-1.5-1.8-2.3-37.2-13.6-74.9-13.9-114-15.2,23.6-7.3,46.8-8.7,71.2-10.3,26.8-8.5,53.8-11.9,80.8-22,90.9-34.1,178.2-104.8,250.4-168.2,60.6-53.3,110.1-106.9,158.7-171.1,110.8-146.4,163.2-285.6,164.5-470.9.2-35.1-.9-70.9-5.5-105.8-2.8-21.4-14.8-67.2-13-85.8,0-1.1.2-2.1.4-3.1l-.4-1.4c-14.5-50.9-58.2-130.7-87.5-176.4-181.7-283.4-478.8-414.1-793.1-496.6ZM1762.4,2144.9c-4.2-4.4-4.5-9.1-4.8-14.9,6,.4,11.4,1.8,16.2,5.6,5.1,4.1,6.5,8.6,7,14.9-6.4.2-13.8-.6-18.4-5.6ZM2104,2129.6c-4.1,9.4-14.5,13-23.3,15.8-3.9-.2-7.5-.3-10.7-2.7-2.3-1.7-1.6-2.6-1.9-5.1,5.2-10.1,14-14.5,23.7-19.4,1.5-.2,2-.3,3.6,0,4.9.8,7.2,2,9.7,6.1-.3,2.3-.2,2.9-1.2,5.3ZM2282.4,2053.7c-3.1-.2-5.9-.8-9-1.3-3.5-3.2-3.7-3-4.2-7.7,2.4-6.2,5.2-8.6,10.4-12.6,3.5,0,6.4.5,9.8,1.1,3.5,3.2,3.6,2.9,3.9,7.6-2.4,6.1-5.9,8.8-10.9,13ZM2516.9,2051.4c-2.8,0-5.8.2-8.5-.2-4.3-.7-6.2-2.3-8.8-5.5.4-5.7,1.3-6.6,4.6-11.1,2.6.4,4.6.9,6.9,2.2,5,2.8,7.2,5.6,8.8,11l-2.9,3.7ZM3463.2,1616.1c-5.5,91.4-60,86.5-114.1,134.8-31.5,28.1-31.5,58.1-34,96.6-1.2,17.4-5.1,33.8-16.7,47.4-27.3,32.1-82.6,54.3-117.5,80.5-29.8,22.3-54.5,49.6-82.4,74-2.1,1.5-4.6,2.5-6.9,3.6l-2.2-1.6c2.6-9.7,14.5-20.7,21.3-28.2,27.1-30.2,56.4-57.2,90.9-78.8,26.5-16.5,56.6-30.7,79.6-52,36.8-34.1,12.6-85.8,36.5-126.4,27.5-46.9,84-54.1,112.9-95.6,28-40.2,19.5-106.8,4.3-150.3-9.9-28.2-26.8-58.7-30-88.6-3.7-34.3,15.9-63.7,9.3-99-7.9-42.6-37.3-73.7-55.9-111.5-16.2-32.8-23.5-76.8-49.6-103.2-27.7-28-67.3-38.8-91.2-72.1-19.9-27.7-22.6-69.2-48.4-91.6-24-20.8-72.5-26.8-102.7-48-12.3-8.6-24.3-21.9-26.7-37.2,0-.5-.1-1-.2-1.5,13.1,7.7,21.6,23.8,35.5,31.7,40.6,22.8,90.5,21.2,116.4,65.7,16.5,28.5,21.6,59.1,46.1,83.2,25.2,24.8,60.7,35.3,84.6,61.8,25.1,27.7,28.7,68.9,44.5,101.8,19,39.7,49.7,71.9,61.8,115.1,10.8,38.5-12.4,70.1-7.7,107.6,2,16.1,9.2,32.8,14.9,48,17.1,45.4,30.7,84.5,27.7,133.9Z"/>
    <path class="st6" d="M1961.4,2532.7v.8c0,0,0,0,0,0l2.3.2c-.1-.1-.2-.3-.3-.4l-1.9-.7Z"/>
    <path class="st3" d="M1961.4,2532.7v.8c0,0,0,0,0,0l2.3.2c-.1-.1-.2-.3-.3-.4l-1.9-.7Z"/>
    <path class="st6" d="M2511,2036.7c-2.3-1.3-4.3-1.8-6.9-2.2-3.2,4.5-4.2,5.4-4.6,11.1,2.6,3.3,4.5,4.8,8.8,5.5,2.7.4,5.8.3,8.5.2l2.9-3.7c-1.6-5.4-3.8-8.2-8.8-11Z"/>
    <path class="st6" d="M1773.8,2135.6c-4.8-3.8-10.1-5.2-16.2-5.6.3,5.8.6,10.5,4.8,14.9,4.6,5,12.1,5.7,18.4,5.6-.5-6.2-2-10.8-7-14.9Z"/>
    <path class="st6" d="M2289.4,2033.2c-3.4-.6-6.3-1-9.8-1.1-5.1,4-8,6.5-10.4,12.6.5,4.6.7,4.5,4.2,7.7,3,.6,5.9,1.1,9,1.3,5-4.1,8.5-6.8,10.9-13-.3-4.7-.4-4.4-3.9-7.6Z"/>
    <path class="st6" d="M2095.6,2118.2c-1.7-.3-2.2-.1-3.6,0-9.7,4.9-18.5,9.3-23.7,19.4.2,2.6-.4,3.4,1.9,5.1,3.2,2.3,6.8,2.5,10.7,2.7,8.8-2.8,19.2-6.5,23.3-15.8,1-2.4,1-3,1.2-5.3-2.4-4.1-4.8-5.3-9.7-6.1Z"/>
    <path class="st6" d="M3420.6,1434.2c-4.7-37.6,18.5-69.2,7.7-107.6-12.1-43.2-42.8-75.4-61.8-115.1-15.8-32.9-19.4-74.1-44.5-101.8-23.9-26.4-59.4-37-84.6-61.8-24.5-24.1-29.5-54.8-46.1-83.2-25.9-44.6-75.7-42.9-116.4-65.7-14-7.8-22.4-24-35.5-31.7,0,.5.1,1,.2,1.5,2.4,15.3,14.4,28.5,26.7,37.2,30.2,21.2,78.7,27.2,102.7,48,25.7,22.3,28.5,63.9,48.4,91.6,23.9,33.3,63.5,44.2,91.2,72.1,26.1,26.4,33.5,70.3,49.6,103.2,18.6,37.7,48,68.9,55.9,111.5,6.6,35.3-13.1,64.7-9.3,99,3.3,29.9,20.2,60.4,30,88.6,15.2,43.5,23.7,110.1-4.3,150.3-28.9,41.5-85.4,48.7-112.9,95.6-23.8,40.7.3,92.4-36.5,126.4-23,21.3-53.1,35.5-79.6,52-34.5,21.5-63.9,48.6-90.9,78.8-6.8,7.6-18.7,18.5-21.3,28.2l2.2,1.6c2.3-1.1,4.8-2.2,6.9-3.6,27.8-24.5,52.6-51.7,82.4-74,34.9-26.2,90.1-48.3,117.5-80.5,11.6-13.6,15.6-30,16.7-47.4,2.5-38.5,2.5-68.5,34-96.6,54.1-48.3,108.6-43.4,114.1-134.8,3-49.4-10.6-88.5-27.7-133.9-5.7-15.1-12.9-31.8-14.9-48Z"/>
  </g>
</svg>