<?xml version="1.0" encoding="UTF-8"?>
<svg id="_x2014_ÎÓÈ_x5F_1" xmlns="http://www.w3.org/2000/svg" version="1.1" viewBox="0 0 4000 4000">
  <!-- Generator: Adobe Illustrator 29.2.1, SVG Export Plug-In . SVG Version: 2.1.0 Build 116)  -->
  <defs>
    <style>
      .st0 {
        fill: #21201f;
      }

      .st1 {
        fill: #9d231a;
      }

      .st2 {
        fill: #d15931;
      }

      .st3 {
        display: none;
      }

      .st3, .st4 {
        fill: #fefefe;
      }

      .st5 {
        fill: #e49a10;
      }

      .st6 {
        fill: #ee780b;
      }

      .st7 {
        fill: #040303;
      }

      .st8 {
        fill: #fcca25;
      }
    </style>
  </defs>
  <path class="st3" d="M0,0h4000v4000H0V0Z"/>
  <path class="st6" d="M3410.2,858.8c54.4,36.1,107.3,82.3,136.7,141.5,17,34.1,27.1,71.2,27.4,109.4.8,116.8-85.7,151.1-137.5,234.4-9.6,15.5-15.7,31.4-21.5,48.7-5.4,22.1-8.3,44.6-11.4,67.1-8.9-17.8-17.1-35.8-24.7-54.2-32.9-79.3-53.7-177.7-7.1-256.1,18.5-31.1,41.9-58.4,55.7-92.3,27.1-66.5,9.1-135.3-17.6-198.7Z"/>
  <path class="st6" d="M3069.7,1853.8c42.4,26.4,72,57.4,103.5,95.6,13.9,16.9,26.6,32.5,49.9,34.1,9.3.6,18.1-1.3,24.9-8,9.7-9.6,13.4-26.1,15.5-39.3,16.5-104.6-62.4-214.9-95.2-309.3-3.6-10-6.7-20.1-9.4-30.4-2.7-10.2-4.9-20.6-6.7-31-1.8-10.4-3.1-21-4-31.5-.9-10.6-1.3-21.1-1.3-31.7.3-108.6,48.4-222.7,125.9-299.3-6.4,33.5-11.5,67.3-11,101.5,1.9,134.3,70,207,160.2,293.9-21.3,65.4-37.5,131.1-43.6,199.7-6.5,73.6-1.8,146.8-4.1,220.4-4.1,133.9-30.1,285.4-120.5,389.5-40.7,46.8-90.6,81.2-145.5,109-77.2,39.2-167.6,64.7-253.1,77.9-13.6-41.9-27.9-82.6-46.8-122.5,11.7-.6,24-.7,35.4-3.5,22.6-5.5,41.8-19,53.7-39.1,28.3-47.9,2.4-108.8-9.2-157.9-14.8-62.4-14.5-123.6,27.9-175.4,14.6-17.8,32.6-33.2,44.5-53,23-38,17.4-83.4,7-124.3,38.8,56.3,40.7,76.8,28.4,142.2-2.4,12.9-3.3,25.6,1.6,38.1,2.9,7.4,7.9,13.8,15.4,16.9,8.8,3.6,20.7,3.5,29.3-.7,25.1-12.1,46.1-57.9,54.6-83.2,23-67.8,3.1-117.6-27.1-178.8Z"/>
  <path class="st7" d="M992.9,241.5c24.2,76.8,45.9,148.4,87.4,218.1,58.3-40.5,116.8-76.2,182.1-104.4,203.7-88.1,469.5-108.1,686.7-68.9,160.8,29,282.8,72,423.7,154.3,43-63.7,71.9-116.4,85.2-193.3,70.3,69.7,97.6,140.6,112.8,236.7,43.1-27.8,86.7-51.1,131.8-75.4-8,49.3-12,97.2-7.1,147.2,10.2-6.3,20.3-12.9,31.1-18.3,21.3,69.6,25,132.8-2.4,201.3,50.5,94.1,83.9,185.2,104.8,290.2,7.7,38.5,10.4,79.7,20.2,117.5,9.1,34.9,27.7,68.2,41.3,101.7,42.3,104.4,50.6,211.1,17.5,319.3-81.5,266.5-304.5,370.9-532.6,491l-2.5,1.3c146.9,63.2,289.6,188.2,380.2,319.1,20.7,30,37.7,61.7,54.9,93.8,18.9,39.9,33.2,80.6,46.8,122.5,85.5-13.3,175.9-38.7,253.1-77.9,54.9-27.9,104.8-62.2,145.5-109,90.4-104.1,116.4-255.7,120.5-389.5,2.2-73.6-2.5-146.8,4.1-220.4,6.1-68.6,22.4-134.4,43.6-199.7,48.7-136,147.2-281.8,268.9-362.1-135.5,240.7-156,464.7-105.1,733.1,21.5,113.2,48.2,222.8,50.3,338.7,1.2,64.7-6.2,128.4-18.2,191.9-77.4,409.5-408.7,680.1-796.2,789.1-62.3,17.5-127.1,31.5-191.6,38,21.9,48.8,31.7,87.9,21.7,141.7,60.8,45,92.3,99.4,104.8,173.7-69.7-17.7-135-29.1-207.1-30.2-32.7,40.9-61.3,89.7-85.7,136-39.9-47.1-80.9-94.3-125.2-137.2-69.2,2.6-133.6,21.9-198.7,43.6,1.4-62.8,19.3-114.6,65.5-158.8,10.8-10.2,22.2-19.5,34.3-28.1-14.7-42.4-35.8-84-78.2-104.6-7-3.4-14.5-6.2-21.9-8.4-8.2,3.2-16.4,6.3-24.6,9.3-8.2,3-16.5,5.9-24.8,8.7-8.3,2.8-16.6,5.5-25,8.1-8.4,2.6-16.8,5.1-25.2,7.5-8.4,2.4-16.9,4.7-25.4,6.9-8.5,2.2-17,4.3-25.5,6.3-8.5,2-17.1,3.9-25.7,5.7-8.6,1.8-17.2,3.5-25.8,5.1-8.6,1.6-17.3,3.1-25.9,4.5-8.7,1.4-17.3,2.7-26,3.9-8.7,1.2-17.4,2.3-26.1,3.3-8.7,1-17.4,1.9-26.2,2.7-8.7.8-17.5,1.5-26.2,2.1-8.7.6-17.5,1.1-26.3,1.4-8.8.4-17.5.6-26.3.8-8.8.2-17.5.2-26.3.2s-17.5-.2-26.3-.4c-8.8-.2-17.5-.6-26.3-1-8.8-.5-17.5-1-26.2-1.7-8.7-.7-17.5-1.4-26.2-2.3-8.7-.9-17.4-1.8-26.1-2.9-8.7-1.1-17.4-2.2-26.1-3.5-8.7-1.3-17.3-2.7-26-4.1-8.6-1.5-17.3-3.1-25.9-4.8-8.6-1.7-17.2-3.5-25.8-5.4-8.6-1.9-17.1-3.9-25.6-6-8.5-2.1-17-4.3-25.5-6.6-8.5-2.3-16.9-4.7-25.3-7.2-8.4-2.5-16.8-5.1-25.1-7.8-8.3-2.7-16.7-5.5-24.9-8.4-8.3-2.9-16.5-5.9-24.7-8.9-8.2-3.1-16.4-6.3-24.5-9.5-39.1,16.2-75.6,39.1-92.7,79.5-5.4,12.8-8.4,26.5-11.6,39.9,50.4,35.6,87.5,85.4,97.8,147.3,2.1,12.6,2.8,25.5,3.4,38.2-66.9-24-129.8-38.6-200.4-46.1-52.5,39.6-90,85.8-127.4,139.4-28.8-49-59.3-96.5-94.7-141-68.6-2.4-142.8,8.1-208.5,26.8,18.7-78.3,62-141.6,129.4-186.4-18.6-154.2,83.1-328.7,175.5-447,3.6-4.7,7.4-9.3,11.3-13.8-45.1-175.4-36.2-336.3,1.7-512.2-82.1,29.2-139.4,86.8-176.5,164.8-6.2,12.9-11.5,26.1-16,39.6-4.5,13.6-8.1,27.3-10.8,41.4,36.9,34.6,64.3,77.4,66.2,129.3,1.2,32.8-7.6,64.4-22,93.6-46.4-18.4-95.7-28.7-126.7-71-14.1,60.5-58.5,118.5-104.1,159.9-39.9-54.2-69.6-105.3-70.5-174.2-47.4,32.9-102.7,44.5-151.7,73.2-16-50.8-12.5-99.6,12-147,8.6-16.6,19.2-32.7,31.7-46.7-42.5-17.4-81.4-46.3-126.9-55.6,1.5-2.6,3.1-5.1,4.7-7.6,1.6-2.5,3.3-4.9,5-7.3s3.5-4.8,5.4-7.1c1.9-2.3,3.8-4.6,5.8-6.8,2-2.2,4-4.4,6.1-6.5,2.1-2.1,4.2-4.2,6.4-6.2,2.2-2,4.4-4,6.7-5.8,2.3-1.9,4.6-3.7,7-5.5,2.4-1.8,4.8-3.5,7.2-5.1,2.5-1.7,5-3.3,7.5-4.8,2.5-1.5,5.1-3,7.7-4.4,2.6-1.4,5.3-2.7,7.9-4,2.7-1.3,5.4-2.5,8.1-3.6,2.7-1.1,5.5-2.2,8.3-3.2,2.8-1,5.6-1.9,8.4-2.8,2.8-.9,5.7-1.6,8.6-2.4,41.4-10.2,79.6-4.3,118.2,12.3,2.6-7.5,5.3-15,8.1-22.4,2.8-7.4,5.7-14.8,8.7-22.2,3-7.4,6.1-14.7,9.2-22,3.2-7.3,6.4-14.5,9.8-21.7,3.4-7.2,6.8-14.4,10.3-21.5,3.5-7.1,7.2-14.2,10.9-21.2,3.7-7,7.5-14,11.4-20.9,3.9-6.9,7.9-13.8,11.9-20.7,4.1-6.8,8.2-13.6,12.4-20.4,4.2-6.7,8.5-13.4,12.9-20,4.4-6.6,8.9-13.2,13.4-19.7,4.6-6.5,9.2-13,13.9-19.4,4.7-6.4,9.5-12.7,14.4-19,4.9-6.3,9.8-12.5,14.9-18.6,5-6.2,10.1-12.2,15.3-18.3,5.2-6,10.4-12,15.8-17.9,5.3-5.9,10.7-11.7,16.2-17.5,5.5-5.8,11-11.4,16.6-17.1,5.6-5.6,11.3-11.2,17.1-16.6,5.8-5.5,11.6-10.9,17.5-16.2,5.9-5.3,11.9-10.6,17.9-15.8,6-5.2,12.1-10.3,18.3-15.3,6.2-5,12.4-10,18.6-14.9,6.3-4.9,12.6-9.7,19-14.4,6.4-4.7,12.9-9.4,19.4-13.9,6.5-4.6,13.1-9,19.7-13.4,6.6-4.4,13.3-8.7,20-12.9,6.7-4.2,13.5-8.4,20.4-12.4,6.8-4.1,13.7-8,20.7-11.9,6.9-3.9,13.9-7.7,20.9-11.4,7-3.7,14.1-7.3,21.2-10.9,7.1-3.5,14.3-7,21.5-10.3,9.6-4.5,19.4-8.9,29.2-13-71.1-35.9-143.8-68.7-212.1-110-141.8-85.6-258.9-214.7-311.7-373.7-35.3-106.3-36.8-215.9,14.2-317.5,10-19.9,32.1-50.5,38.9-67.8,11.3-29,17.2-94.8,26.1-130.6,28.5-115.5,61-203.9,111.2-311.2-31.6-68.8-33.7-127.3-11.9-200.3,14.6,8.4,29.2,16.8,44.4,24.3.9-45.4,2.8-93.4,9.8-138.2,38.2,17,72.9,41.2,111.2,57.2,10.6-70.4,42.2-132.3,78.8-192.4,9.5-15.6,19.2-33.2,31.4-46.9Z"/>
  <path class="st0" d="M2609.8,1167.3c3.5,13.6-3.5,33.8-7.9,46.9-15.2,45.1-43.4,85.7-87.2,106.8-37.9,18.3-70.8,15.5-109.8,1.6l-1.3-.7,1-1.3c8.1,2.6,16.1,4.7,24.5,6.3,19.1-9.4,39.3-17.4,58-27.4,29.3-15.7,80.5-55.9,106.8-78.9,10.8-9.4,15.3-39.4,15.9-53.4Z"/>
  <path class="st2" d="M2402.1,2357.6c63.4,8.9,104.5,41.8,142.5,92.1,13.9,18.3,28.3,39.6,37.3,60.7-1.5,1.9-2.8,3.2-3.6,5.4l-7.1,1.6c-2.6-1.3-4.3-2.4-5.9-4.9-1.2-1.8-2.3-3.6-3.5-5.3-23.1-34.1-66.7-76.6-104.9-93.3-15.5-6.7-31.4-9.5-47.9-12.6-3.4-14.2-4.8-29.3-6.8-43.8Z"/>
  <path class="st2" d="M1059.3,2337.1c2,36.6-6.3,74.7-17.1,109.5-6.2-11.9-12.8-29.7-27-33.7-27.6-7.9-75.8,21.2-98.4,35.1-38.2,23.5-69,55-98.3,88.7-2.6-6.1-5.9-12.4-7.8-18.7,14.6-7.6,53.3-59.3,80.7-77.5,22.7-15,45.8-29.9,70.8-40.9,24.2-10.7,55.4-16,76.4-32.1,13-10,18.7-13.8,20.7-30.3Z"/>
  <path class="st4" d="M2457.8,2483.6c49.8,43.9,94.5,97.1,121.9,158.2-30.7-9.4-64.4-12-96.1-16.1-8.9-47.3-15.4-95.1-25.8-142.1Z"/>
  <path class="st4" d="M2411,954.7c4.8.3,8.6,2.1,12.6,4.5,17.8,10.7,28.7,24.8,33.3,45.3,3.4,15,1.9,30.8-6.8,43.7-10,14.9-22.4,18.9-39,22.1-14.1-.5-27.2-2.2-37.2-13.1-15.5-16.9-13.3-44.6-12.4-65.8,14.9-14.1,32.3-25.6,49.5-36.6Z"/>
  <path class="st0" d="M843.6,1159.7c33.6,47,55.1,91.4,107.7,121.7,46.6,26.8,87.6,25.8,138.1,12.1l-19.3,13.4c-23.3,14.2-46.1,24.8-73.6,27.1-1.9.2-3.9.3-5.8.4-1.9,0-3.9,0-5.8,0-1.9,0-3.9,0-5.8-.2-1.9-.1-3.9-.3-5.8-.5-1.9-.2-3.8-.5-5.8-.8-1.9-.3-3.8-.7-5.7-1.1-1.9-.4-3.8-.9-5.6-1.4-1.9-.5-3.7-1.1-5.6-1.7-1.8-.6-3.7-1.2-5.5-1.9-1.8-.7-3.6-1.4-5.4-2.2-1.8-.8-3.5-1.6-5.3-2.5-1.7-.9-3.4-1.8-5.1-2.7-1.7-1-3.3-2-5-3-1.6-1-3.2-2.1-4.8-3.2-1.6-1.1-3.1-2.3-4.7-3.5-1.5-1.2-3-2.4-4.5-3.7-38.9-33.7-63.6-95.9-66.9-146.3Z"/>
  <path class="st5" d="M2807.1,2862.3c13.7,10.4,25.9,23.4,39.8,33.9,28.2,21.4,59.2,37.5,90.3,54.1-19.3,7.4-39,13.5-58.8,19.7-36,10.5-73.5,18-110.6,23.3,23.3-41.5,38.3-83.1,39.3-131Z"/>
  <path class="st4" d="M1024.7,953.1c1.8,0,3.5,0,5.3.2,20.9,1.3,46.1,28.7,59.3,43.4.2,14.1.6,29.8-4.6,43.2-6.6,16.9-20,24.9-35.9,31.4-8.3,1.3-17.5,1.7-25.6-.5-14.4-3.9-26-13.5-32.8-26.7-8.6-16.6-9.6-37.2-3.3-54.6,6.9-19.2,19.9-28.4,37.6-36.4Z"/>
  <path class="st0" d="M737.7,870.3c16.9,19.4,31.2,41.2,43.8,63.6-13,58.4-29.4,95-31.9,158.2-36.4,30.4-67.9,62-96.1,100.3-1.9-21,6.8-46.7,11.4-67.4,19.3-87.5,41.1-170.8,72.8-254.8Z"/>
  <path class="st4" d="M2588.1,873c1,.4,2.1.7,3,1.3,6.7,4.6,13.7,15.9,18.6,22.4,33.5,43.9,54.8,91.3,65.1,145.7,13.5,71.1,6.8,157.5-35.6,218.5-31.8,45.7-73.9,72.2-128.3,82.2l-25.9,2.5c16.1-5.5,31.9-10.7,46.7-19.2,45.4-26.2,75-78.6,88.1-128,19.2-72.9,9.8-163.7-19-233-11.7-28.2-27.7-54.2-43.1-80.6l30.3-11.8Z"/>
  <path class="st8" d="M749.6,1092.1c.6,78.7,10.6,161.2,69.1,219.6,17.6,17.6,37,27.7,59,38.5-15.5,1.2-33.3-1.9-48.6-4.8-80.6-15.2-138.7-55.3-208.3-94.1,9.4-20.4,21.1-39.7,32.7-58.8,28.2-38.3,59.7-69.9,96.1-100.3Z"/>
  <path class="st4" d="M850.1,864.5c18.6,6,36.8,12.3,55,19.4-18,18.2-35.5,35.2-48.8,57.4-41.9,69.8-49.3,163.8-29.3,241.6,17,66.1,47.6,123.7,107.5,159.2l1.1.9v1.6c-32.9-2.2-65.6-16.7-90.9-37.3-45.4-36.9-67.1-94.8-73.2-151.6-10.7-100.2,14.2-212.1,78.6-291.3Z"/>
  <path class="st6" d="M2441.9,3077.1c19.8,19.6,35.9,41.5,50.3,65.2,27.4,45.2,79.5,154.5,79.9,206.4v2.4c-25.6-7.3-52.1-10.4-77.9-16.5-6.8-1.6-18.8-4-24-8.4-5.4-4.5-9.4-13.2-12.4-19.5-9.1-18.9-15.6-39.3-23.9-58.6-13.5-30.7-29.1-60.3-46.7-88.8,19.7-25.7,40.2-53.2,54.7-82.3Z"/>
  <path class="st0" d="M2695.2,804.2c.5.3,1,.6,1.4,1,7.4,7,13.7,28,17.7,38.1,38.2,97.7,64.7,204.8,74.5,309.3-17.9-7.1-35.4-14.8-52.9-22.7-12.4-5.7-24.1-11.7-35.7-18.8-3.4-94.9-25.8-170.4-88.6-242.5,37-14.4,62.1-30.3,83.6-64.4Z"/>
  <path class="st8" d="M2699,1124.7c30,12.7,60.4,25.8,89.8,39.9,13.6,30.4,29.2,61.5,39.2,93.3-47.9,42.7-118,72.7-179.5,90.3-21.4,6.1-45.5,9.7-66,17.9-39.4,12.2-75.7,14.7-116.6,9.6-9.8-1.2-32.7-5-38.7-12.8,60.1,11.9,117.7,7.3,169.9-27.2,52.5-34.7,83.7-90.8,95.6-151.6,3.9-19.6,5.1-39.5,6.3-59.4Z"/>
  <path class="st5" d="M2483.6,2625.6c31.7,4.1,65.4,6.7,96.1,16.1,6.8,14,12.8,28.2,18.8,42.6-32.9,27.1-58.6,59.3-76,98.3-15.5,34.8-17.5,67.1-14.5,104.7.8,10.3.9,21.1,4.7,30.8,4.1,3.4,7.2,4.5,12.5,4.5,38.5-.3,96.4-31.7,122.7-59.8,8.4,37.1,17.4,71.2,36.9,104.2,6.8,11.4,15.1,21.9,21.7,33.3l1.9,3.2c-38.9,5.7-159.6,11.2-193.3-1.4-11.7-4.4-23.3-14.8-33.3-22.2,2.6-38,8.9-75.9,11.6-114.1,5.8-82,.4-158.9-9.9-240.2Z"/>
  <path class="st2" d="M2387.2,3159.4c17.6,28.5,33.2,58.1,46.7,88.8,8.3,19.3,14.8,39.7,23.9,58.6,3,6.3,7.1,15,12.4,19.5,5.2,4.4,17.2,6.8,24,8.4,25.8,6.1,52.4,9.2,77.9,16.5-3.4,12.2-7.9,22.5-16,32.3-23.9,29.1-63.4,44.3-100.1,47.6-39.7,3.5-86.7-5.5-117.8-31.8-7.3-6.1-13.6-11.2-14.4-21.1,3.6-7.9,11.3-11.5,17.3-17.4,3.2-3.2,5.6-7.4,4.9-12.1-4.3-27.2-58.3-69.6-78.2-87.2,43.9-30.4,83.6-62.2,119.5-102.1Z"/>
  <path class="st1" d="M981.6,343.4c41.6,85.9,66.2,141.9,141.4,206.1,11.6,9.9,24.7,24.7,38.9,30.4.3,10.9-.3,21.4-1.2,32.2-86-45-134.4-102.4-178.5-186.8-1,3.5-1.9,6.9-2.8,10.4-.8,3.5-1.6,7-2.2,10.6-.7,3.5-1.2,7.1-1.7,10.7-.5,3.6-.9,7.1-1.2,10.7-.3,3.6-.5,7.2-.6,10.8-.1,3.6-.1,7.2,0,10.8,0,3.6.2,7.2.5,10.8s.6,7.2,1,10.7c.4,3.6.9,7.1,1.6,10.7.6,3.5,1.3,7.1,2.1,10.6.8,3.5,1.7,7,2.6,10.5,1,3.5,2,6.9,3.1,10.3,1.1,3.4,2.4,6.8,3.7,10.1,1.3,3.4,2.7,6.7,4.2,10,1.5,3.3,3,6.5,4.7,9.7,1.6,3.2,3.3,6.4,5.1,9.5,5.6,9.9,11.7,19.7,18,29.2-48.7-10-96.9-19.8-144.6-33.9,13.7,33.4,31.3,62.4,54.2,90.3-46.3-6.4-93.3-9.5-139.3-16.4,9,23.5,17,49.9,33.6,69.3-9.3,4.1-19.8,7.5-24.7,17.1-7.8-.4-12.7-5.7-17.6-11.4-28.8-33.3-34.5-90-31.6-131.9,32.4,10.7,66,17.3,99.4,24.4-2.8-2.5-5.5-5.1-8.1-7.9-34.5-36.8-32.1-80.9-30.2-127.5,40,25.9,83.9,46.2,126.4,67.6-3-7.1-5.9-14.6-7.6-22.1-14.6-64.1,19.4-142,51.6-195.6Z"/>
  <path class="st1" d="M2327.1,510.5c.7,10.3-.5,30,7.1,37.2,15.4-2.3,38.1-36.8,47.2-49,36.7-49.5,68.8-100.1,92.2-157.3,40.5,53.3,55.1,130.9,46,196.5-.7,5-1.5,10-2.5,14.9,48.6-14.9,84.9-40.4,126.1-69.1-.4,48.2-6.4,96.9-31.8,138.9,28.9-7.6,54.8-21.2,81.5-34.2,4.4,42,3.3,101.2-22.6,137-13,.8-26.2,0-39.2-.4,13.3-27,27-53.3,38.5-81.1-41.6,9.9-83.9,14.1-125.6,23.1,33-30.9,47.9-66.2,62.1-108.1-55.4,29.7-113.8,53.9-170.6,80.9,36.8-69.6,44.3-134.2,36-211.5-12.8,23.4-23,47.9-37.6,70.5-32.7,50.8-82.7,87.5-125.7,129.1.7-21.1,3.5-40.8-.5-61.7-20.8,19.8-67.1,79.2-84.6,89.4,28.8-58.8,52.7-102.7,104-145.3Z"/>
  <path class="st6" d="M2465.8,2184.1c71,49.5,137.5,110.2,194.2,175.6,9.3,10.8,21.8,23.4,27.6,36.2-26.1,43.9-60.4,88.9-105.7,114.5-9-21.2-23.4-42.4-37.3-60.7-38-50.3-79.1-83.2-142.5-92.1-3.6-56.3,7.8-112.2,46-155.5,5.5-6.3,11.5-12.4,17.7-17.9Z"/>
  <path class="st5" d="M606.4,1559.7l20.1,3.6c2,16.6,16.4,36,25.1,50.3,44.4,73.6,87.4,133.5,155.9,187.3,110.8,87.2,242,140.9,364.9,208,72,39.3,142.9,80.7,214.9,120.1,57.8,31.7,115.5,64,178.6,84.1,74.2,23.7,151,29.8,228.3,20.5,184.1-22.2,338-150.8,496.1-237.8,81.5-44.8,166.9-82.1,249.4-124.8,20.8-10.8,106.4-63.1,120.8-65.6-66.5,63.5-168.7,109.9-250.3,151.1-45,23.1-89.6,46.9-133.8,71.5-107.1,59.9-209.6,131.6-322.4,180.3-135.3,58.4-296.1,64.1-433.3,9.2-77.2-30.9-150.8-74.8-222.9-116-37.1-21.2-74.9-41.4-112.5-61.8-175-95.4-387.8-172.1-506.2-341.3-30-42.9-52.2-90.6-72.6-138.6Z"/>
  <path class="st6" d="M942.1,2182.4c11.8,7.8,23.2,16,34.3,24.7,41.6,32.9,76.8,75.8,82.9,130-2,16.5-7.7,20.3-20.7,30.3-21,16.1-52.2,21.4-76.4,32.1-24.9,11-48.1,25.9-70.8,40.9-27.5,18.2-66.2,70-80.7,77.5-22.7-54.1-47.5-107.5-71.7-161,49.7-69.8,129.2-131.8,203.1-174.5Z"/>
  <path class="st6" d="M879.6,3362.8c4.4-110.1,83-224.8,141.4-315.1,40.2,87.3,90.6,153.9,164,215.9-27.2,22.2-43.6,41.9-57.3,74.3,0,.7-.2,1.4-.2,2-2.2,23.4,14.3,57.7-6.8,74.7-8.4,6.7-21.1,11.4-31.3,14.7-33.2,8.1-65.9,9.8-99.6,3.2-44.9-8.8-84.4-31.6-110.2-69.9Z"/>
  <path class="st2" d="M1056.8,3337.5c23.6-.6,47.2-.5,70.9.5,0,.7-.2,1.4-.2,2-2.2,23.4,14.3,57.7-6.8,74.7-8.4,6.7-21.1,11.4-31.3,14.7-4.1-22.8-24-68-32.6-92Z"/>
  <path class="st0" d="M2581.9,2510.4c45.4-25.7,79.6-70.6,105.7-114.5,57.7,58.2,90.5,164.8,117.1,241.5,46.2-.9,87.7,1.9,122.6,35.7,7.9,7.6,14.2,16.4,20.2,25.6-41-2.2-81.2-3.9-122.2-1.4,40.4,19.3,61.3,23.9,77.7,69.5,6.3,17.6,17.4,54.5,9.4,72.2-2.4,5.3-5.1,6.6-10.2,9-23.9,0-58.3-31.5-74.5-47.8-20.6-20.6-37.6-44.8-53.9-68.8-2.8,56.9-3.2,120.5-34,170.7-39.9-42.4-67-95.8-65.6-155.3v-3c-18.5,33.4-54.7,86.7-94,97.4-4.5,1.2-8.7,1.8-13.1-.1-8.7-9.8-10.3-19.2-9.7-32.1,1.6-35.7,19.5-68.2,45.9-91.6,40.7-36,99.5-54.8,151-69-36.8,1.3-72.6,1.9-109.3-.4-8.9-19.7-18.3-39.1-28.2-58.2-9.9-18.8-33.6-52-37.1-70.7-.2-1.1-.7-2-1.1-3.1.8-2.3,2.1-3.6,3.6-5.4Z"/>
  <path class="st6" d="M1262.8,2157c166.2,85.1,279.4,169,477.4,163.7,52.8-1.4,105.3-7.8,155.7-24.1,106.5-34.4,204.9-95.8,301-152.1-11.9,47.6-24.6,94.9-37.6,142.2-.6.2-1.2.4-1.8.5-30.9,9.9-61.2,29.9-90.1,44.9-30.6,15.8-62.1,29.9-93.6,43.6-208.2,91-399.3,58.1-596.8-41.3-13.3-6.7-71.6-40.5-81.6-38l-3.1-8.9c-12.6-42.8-25.6-85.9-29.6-130.5Z"/>
  <path class="st6" d="M1254.7,3122.6c48.1,22.9,97.4,39.2,148.8,53,179.5,48,363.6,58.1,546.2,21.9,50.7-10,101.5-22.6,149.5-42.2,39.1-15.9,74.4-38.9,110.8-59.9-39.5,95.3-119.4,180-215.2,219.4-147.6,60.8-397.6,58.6-544.9-3.7-86.5-36.6-154.3-104.2-195.3-188.6Z"/>
  <path class="st0" d="M727.7,2368.6c12.2,13.3,67.1,159.8,75.7,186.7-24.4,54.1-47.5,108.7-53.4,168.3,10.2,13,21,24.7,30,38.7,27,41.9,40,82.9,29.6,132.2-42.7-41.4-67.4-82.5-85.4-138.9-11.9,22.9-23.2,46.4-36.5,68.4-13.9,23.1-29.9,45-44.3,67.8-12.3,19.6-23.2,40.2-34.2,60.6-28.3-37.2-42.5-70.7-46.3-117.4.9-18,1.4-36.2,4.6-54-45.2,29.4-95.5,47.4-143.7,70.9,0-.8,0-1.5,0-2.3,1.8-70,16-101.9,66.3-149.3-47.4-25.3-80.1-40.5-133.5-49,2.9-2.6,5.9-5.1,9-7.4,3.1-2.4,6.3-4.6,9.5-6.8,3.3-2.1,6.6-4.1,10-6,3.4-1.9,6.9-3.7,10.4-5.3,3.5-1.6,7.1-3.1,10.8-4.5,3.6-1.4,7.3-2.6,11.1-3.7,3.7-1.1,7.5-2.1,11.3-2.9,3.8-.8,7.6-1.5,11.5-2.1,53-7.4,83.9,20.5,123,50.5,20-87.6,107.4-224.8,164.3-294.5Z"/>
  <path class="st8" d="M3502.2,1962.5c1.6,2.3,3,4.5,4.1,7.1,10.3,24.8,17.3,51.6,25.1,77.3,47.6,157.3,50.2,302.6-16.9,455.9-71,162.2-213.8,286.3-369.7,364.8-50.7,25.5-104,45.4-156.9,65.9l-25,9.7c16.4-59.3,8.7-116-14.1-172.1,158.3-42.3,309.2-115.1,415.9-242.6,104.8-125.2,150-264.6,147.7-427.1-.7-46.4-6.2-92.8-10.3-139Z"/>
  <path class="st6" d="M2308.2,628.1c43-41.6,93-78.3,125.7-129.1,14.5-22.6,24.8-47.1,37.6-70.5,8.4,77.3.8,141.8-36,211.5,56.8-27,115.2-51.2,170.6-80.9-14.2,41.9-29.1,77.1-62.1,108.1,41.7-9,84-13.3,125.6-23.1-11.5,27.9-25.2,54.1-38.5,81.1-154,.9-279.3,82.5-386.8,185.3-37.1,35.5-71.9,74.7-112.2,106.5-7.4,5.8-18.1,15.2-28,14-2.9-2.4-4.2-2.9-5.8-6.5-14.9-34.5,52-172.7,67.3-213-44.8,16.3-87.7,38.5-133,53,10.9-68.9,42.3-144,85.6-198.9,12.2-15.5,27.5-28.3,39.8-43.5l2.3-2.9,4.3-.5c.4,10.1-8.8,24.4-11.5,34.9-3,11.4-5.3,22.9-6.7,34.6-1.5,11.7-2.1,23.4-2,35.2,32.6-12.8,59.2-38.7,78.6-67.5,17.5-10.2,63.8-69.6,84.6-89.4,4.1,20.9,1.2,40.6.5,61.7Z"/>
  <path class="st8" d="M626.5,1563.2c25.7,5,52,9.1,77.5,15.3,27.2,94.7,184.6,190.6,268.4,237.1,87.8,48.8,176.6,94.7,263.3,145.6,156,91.4,288.6,187.8,477.6,190.1,14.4.2,28.7,0,43.1-.9,14.3-.8,28.6-2.2,42.9-4,14.2-1.9,28.4-4.2,42.5-7.1,14.1-2.9,28-6.3,41.8-10.2,133.2-38.4,259.7-136.6,380.4-205.5,110.2-62.9,226.5-116.2,329.5-191.1,15-10.9,29.6-22.3,43.9-34.2,14.3-11.8,28.2-24.1,41.8-36.8,13.5-12.7,26.7-25.8,39.4-39.3,12.7-13.5,25.1-27.4,36.9-41.6,22.7,7.6,56,1.7,80.1,1.7-33.1,74.3-77.9,140.8-139.3,195-10.6,9.3-23.6,21.8-35.9,28.4-14.4,2.5-100,54.8-120.8,65.6-82.5,42.8-168,80-249.4,124.8-158.1,86.9-312,215.5-496.1,237.8-77.2,9.3-154,3.3-228.3-20.5-63-20.2-120.8-52.5-178.6-84.1-72-39.4-142.9-80.8-214.9-120.1-122.9-67.1-254.1-120.9-364.9-208-68.5-53.8-111.5-113.7-155.9-187.3-8.6-14.3-23.1-33.7-25.1-50.3Z"/>
  <path class="st0" d="M2406.7,2153.3c16.4,8.8,32.7,17.9,48.9,27.1-44.8,46-66,99.1-65.1,163.7.8,61.9,19.2,125.5,29.7,186.3,8.1,44.4,14.2,89,18.2,134,4,44.9,5.9,90,5.7,135.1,0,24.9,3.1,57.3-6.3,80.6-15.1,37.5-57.4,81-85.7,110.5-39.1,40.6-82,73.3-131.3,100.7,23.8-52.2,40.2-113,45.4-170,.8-8.5,2.9-22.9-.7-30.7-.8-1.8-1.6-2.4-2.8-3.6-10.5,0-37.9,26.2-46.9,33.3-15.3,12.1-31.1,23.5-47.4,34.2-16.3,10.7-33,20.6-50.2,29.8-19.8,10.8-43.9,20.8-61.6,34.3l1.7,2.5c-29.9,16.8-70.2,23.9-103,35,30.1-23.5,58.9-47.5,83.9-76.6,17-19.9,32.5-43.5,51-61.8,16.5-26.6,36.4-51.2,53.1-77.8,77-123.8,138.9-262.9,141.9-410.8-12.8,20.1-26,38.9-42,56.6-44.8,60.6-143.2,117-211.6,144.5-.3-5.3-1-12.1.3-17.3,4.2-17.4,33.7-54.8,43.4-76.8,17.1-38.8,35.4-78.1,49.9-117.9,16.5-45.2,29.6-91.6,46.4-136.6,48.4-26.2,96.5-52.8,144.4-79.8,29.8-16.6,59.6-34.9,90.9-48.4Z"/>
  <path class="st7" d="M2289.1,2411.7c-13.2,17.6-28.5,48.5-45.5,60.8v-1.1c17-21.8,30.4-46.8,48.8-67.4,0,39.5,0,78.1-7.2,117.2-20.3,109.7-104.1,309.8-182.2,388.1-3.8,3.9-6.8,6-12,8-.3.1-.6.2-.9.4,16.5-26.6,36.4-51.2,53.1-77.8,77-123.8,138.9-262.9,141.9-410.8-12.8,20.1-26,38.9-42,56.6l-1.2-3.5c5.7-7.3,11.2-14.6,17.4-21.4,8.9-9.6,13.4-24.2,23.2-32.5l3.3.3c12.4,27.9-18.8,155.6-31.1,188.2-2.8,7.4-8.6,16.7-8.1,24.6,5.4-3.8,7.2-9.1,8.3-15.4,1.2-7,2.3-11.8,5.4-18.4,5.2-10.7,6.2-22.6,9.3-34,16.6-61.3,19.8-98.7,19.6-161.9Z"/>
  <path class="st1" d="M969.8,1497.9c43.6.8,89.1,9.7,131.4,19.6,33.8,8,67.1,17.4,100.2,28.1,33,10.7,65.6,22.6,97.6,35.9,154.1,62.7,258.8,121.9,430.6,121,145.3-.8,234.5-49.3,363.5-102.6,114.2-47.1,275.5-101,400-98.6,15.5,33.9,21.8,72.9,21.6,110-.4,69.2-29,133.5-78,182-51-56.2-121.4-86.9-196.8-90.6-180.1-8.7-315.5,97.2-488.6,103.8-17.1.8-34.3.8-51.4.2-17.1-.6-34.2-1.9-51.2-3.9-17-2-33.9-4.7-50.8-8-16.8-3.4-33.5-7.4-49.9-12.1-129.4-36.6-221.2-104.3-366.2-90.9-34,3.1-68.2,10.8-97.8,28.4-4.6,2.7-9.1,5.7-13.4,8.9-5.1,3.8-10,7.8-14.7,12.2-17,15.7-33.6,36.1-40.7,58.2-7.4-9.3-14.1-19-20.2-29.3-6-10.2-11.3-20.8-15.9-31.8-31.9-74.7-39.7-164.2-9.2-240.4Z"/>
  <path class="st2" d="M1015.1,1799.4c7.2-22.2,23.8-42.6,40.7-58.2,4.7-4.3,9.6-8.4,14.7-12.2,4.3-3.2,8.8-6.2,13.4-8.9,29.6-17.6,63.8-25.3,97.8-28.4,145-13.4,236.7,54.4,366.2,90.9,16.5,4.7,33.1,8.7,49.9,12.1,16.8,3.4,33.7,6,50.8,8,17,2,34.1,3.3,51.2,3.9,17.1.6,34.3.6,51.4-.2,173.2-6.5,308.6-112.5,488.6-103.8,75.4,3.7,145.8,34.4,196.8,90.6-29.4,23.1-62.4,40.1-95.1,58.1-38.4,20.8-76.5,42-114.4,63.6-193.9,111.9-330.2,233.8-572.4,205.5-56.1-6.5-108.9-22.3-160.5-44.7-88.2-38.3-169.2-93.9-252.4-141.9-66.7-38.5-136.6-72-202.5-111.5-7-4.2-12.8-7.7-17.9-14.2-2.2-2.8-4.3-5.8-6.3-8.7Z"/>
  <path class="st8" d="M950.7,2176.7c22.6-11.8,45.1-23.8,68.5-34.1,48.4,20.6,94.6,48.6,140.2,74.7,43,24.7,86.3,48.5,129.7,72.4l3.2-2.2,3.1,8.9c9.9-2.5,68.3,31.4,81.6,38,197.5,99.3,388.5,132.3,596.8,41.3,31.5-13.8,63.1-27.8,93.6-43.6,28.9-15,59.2-34.9,90.1-44.9.6-.2,1.2-.4,1.8-.5-37.6,124.9-82.9,241.9-152.2,352.8l24.3-9.4c68.4-27.5,166.8-83.9,211.6-144.5,16-17.7,29.2-36.6,42-56.6-3,147.9-64.8,287-141.9,410.8-16.6,26.7-36.6,51.3-53.1,77.8-18.5,18.3-34,41.9-51,61.8-24.9,29.1-53.8,53.1-83.9,76.6,32.7-11,73.1-18.2,103-35,61.7-16.4,152.2-79.7,200.1-121.4-3.6,64.1-20.3,137.3-48.2,195.7-36.4,21.1-71.8,44-110.8,59.9-48,19.6-98.8,32.2-149.5,42.2-182.7,36.1-366.7,26.1-546.2-21.9-51.4-13.7-100.7-30-148.8-53l-7-9.9c-7.6,0-11.9-2-18.4-5.9-37.2-22.3-70.7-54.3-99.5-86.7-104.2-117.3-120.7-243.7-106-393.9,4.6-47,10.8-94.3,20-140.6,11-55.2,37.2-112.8,22.7-169.6-15.4-60.6-63.4-108.5-115.9-139.2Z"/>
  <path class="st0" d="M950.7,2176.7c22.6-11.8,45.1-23.8,68.5-34.1,48.4,20.6,94.6,48.6,140.2,74.7,43,24.7,86.3,48.5,129.7,72.4l3.2-2.2,3.1,8.9c34,120.3,78,247.6,153.8,348.6-112.1-46.4-212.9-119-282-220,3,157.8,64.4,324,158.2,450.3,29.3,39.5,63.7,75.4,99.1,109.5,25.8,24.7,52.8,50.6,81.9,71.3-124.8-26.7-237.3-61-330.9-154.3,16,74.2,39.9,142.1,72,210.8-7.6,0-11.9-2-18.4-5.9-37.2-22.3-70.7-54.3-99.5-86.7-104.2-117.3-120.7-243.7-106-393.9,4.6-47,10.8-94.3,20-140.6,11-55.2,37.2-112.8,22.7-169.6-15.4-60.6-63.4-108.5-115.9-139.2Z"/>
  <path class="st0" d="M1476.9,376c131.9-34.6,370.5-31.5,504.3-.7,95.6,15.6,265.7,72.1,345.8,125.6-24.3,20.7-47.3,42-65.8,68.2-35.1,49.7-52.9,106.4-105.4,142.3.3-42.1,12.7-78.8,27.3-118-5.6,5.5-21.8,18.2-23.1,25.1l.4.5-2.3,2.9c-12.3,15.3-27.6,28.1-39.8,43.5-43.3,54.9-74.7,130-85.6,198.9,45.3-14.6,88.2-36.7,133-53-15.3,40.3-82.2,178.5-67.3,213,1.5,3.6,2.9,4.1,5.8,6.5,9.9,1.2,20.6-8.2,28-14,40.3-31.8,75.1-71,112.2-106.5,107.4-102.8,232.7-184.5,386.8-185.3,13,.4,26.2,1.2,39.2.4,5,2.2,8.1,2.5,10.4,8,4.5,10.7-1.7,33.5-7,43.1-18.2,32.8-105,57.6-141.4,73.6-140.8,62-310.2,164.9-264.5,346.1,14.2,56.4,51.3,108.3,101.6,137.8,18.7,11,38.9,18.6,57.9,28.9,6,7.7,28.9,11.5,38.7,12.8,41,5.1,77.2,2.7,116.6-9.6,19.4,9.5,88.8-13.3,109-20.3,50.4-17.4,102.5-41.1,141.1-78.8,39.7,104.7,44.2,183.3,12.2,291.3-77-1.6-109-27.4-177.3-52.6-75.5-27.8-158.3-33-237.7-26-134.7,11.9-260.3,57.6-384.5,108.7-66.2,27.2-131.8,57.5-202.2,72.4-64.1,13.6-133,14.2-198.2,7.3-120.9-12.9-232.8-72.1-343.7-117.7-150.5-61.8-348.3-108.7-507.6-53.7-2.1.7-4.2,1.5-6.3,2.2-22.4,8.2-46.6,18.4-63.8,35.4-13.8,13.7-18.6,25-19.5,44.1-25.5-6.1-51.8-10.3-77.5-15.3l-20.1-3.6c-6.7-25.8-15.9-50.7-20.8-77-11.7-62.8-3.9-126.2,15.9-186.5,4.9-14.9,10.5-31.9,19.4-44.9,69.6,38.8,127.7,78.9,208.3,94.1,15.3,2.9,33,6.1,48.6,4.8,7.6.2,17.1,3.8,24.7,5.4,21.4,4.6,42.4,8.6,64.4,8.8,59.5.8,116.6-26.8,158.3-68.4,45.4-45.3,74.4-113.2,73.9-177.5-.3-49-17.7-90.2-52.7-124.4-66.5-64.8-208.1-141.2-298.3-162.1-31.9-7.4-62.8-8.3-95.4-8.1,8.9-14.6,46.7-63.4,46.5-76.2,4.9-9.6,15.5-13.1,24.7-17.1-16.6-19.4-24.7-45.8-33.6-69.3,46,6.9,93,10,139.3,16.4-22.9-27.9-40.6-56.9-54.2-90.3,47.7,14,95.9,23.8,144.6,33.9-6.4-9.5-12.4-19.2-18-29.2-1.8-3.1-3.5-6.3-5.1-9.5-1.6-3.2-3.2-6.4-4.7-9.7-1.5-3.3-2.9-6.6-4.2-10-1.3-3.4-2.5-6.7-3.7-10.1-1.1-3.4-2.2-6.9-3.1-10.3-1-3.5-1.8-7-2.6-10.5-.8-3.5-1.5-7-2.1-10.6-.6-3.5-1.1-7.1-1.6-10.7-.4-3.6-.8-7.1-1-10.7s-.4-7.2-.5-10.8c0-3.6,0-7.2,0-10.8.1-3.6.3-7.2.6-10.8.3-3.6.7-7.2,1.2-10.7.5-3.6,1-7.1,1.7-10.7.7-3.5,1.4-7.1,2.2-10.6.8-3.5,1.7-7,2.8-10.4,44.1,84.4,92.5,141.8,178.5,186.8.9-10.8,1.5-21.3,1.2-32.2,3.8-15.9,7.9-29.1,17.5-42.7l4.8-4.9,3.5.7c6.4,11.3,8.3,25.1,12.4,37.5,11.1,33.1,38,69.8,67,89-2.3-12.7-34.8-45-43.7-60.6-14.4-25.5-22.8-52.2-31.3-80.1-24,18.5-20.1,24.9-35.9,43.3h-4.3c-11.9-8-21.7-20.8-31.4-31.4,66.8-63.2,263.9-145.8,356.4-154.7Z"/>
  <path class="st7" d="M1389.1,1342c26.4-1.5,50.5,5.7,72.6,19.8,38,24.2,61.1,59.6,71,103-21.4-4.3-39.2-12.4-57.7-23.8-19.1-11.8-59.7-56.4-74.4-61-5.6-1.8-7.3-.7-12.4,1.4-12.5,13.4-6.9,27.1-6.9,43.1h-2.6c-5.4-3.1-9.5-5.6-12.6-11.2-6.5-11.7-5.1-29.1-1.6-41.5,4.4-15.8,10.4-22,24.5-29.8Z"/>
  <path class="st7" d="M2039,1338.3c10.8-.4,21.6.9,30.6,7.5,8.6,6.4,12.9,16.6,13.8,27.1,1.5,17.5-3.7,31.7-14.6,45-1.9,2.4-.8,1.8-3.6,2,2.3-12.5,6.5-25.7.8-37.7-4.4-3.5-6.7-5-12.5-5.1-21.5-.2-56.9,45.4-72.8,61.1-14.8,11.4-45,30.8-64.2,31.1-3.6,0-2.2.4-5-2.3-.9-15.3,12.4-39.2,20.8-51.8,23.8-35.9,64.1-68,106.8-76.8Z"/>
  <path class="st6" d="M982.1,425.4c44.1,84.4,92.5,141.8,178.5,186.8.9-10.8,1.5-21.3,1.2-32.2,3.8-15.9,7.9-29.1,17.5-42.7l4.8-4.9,3.5.7c6.4,11.3,8.3,25.1,12.4,37.5,11.1,33.1,38,69.8,67,89,5.4,5,8.9,7.7,9.2,15.7.2,6.9,0,13.8.3,20.8,1.7,3,2.9,4.5,5.7,6.4l1.6-2.3c-3-18.4-1-84.4,6.8-99.6,2,1.4,2.7,1.8,4.5,3.9,7.5,8.6,23.2,30.9,22.9,41.8,10.5,15.6,22.3,30.7,32.1,46.7,30.2,49.5,56.1,116.3,64.1,173.5-42.2-15.3-82-36.6-124.2-52,19.8,41.2,76.2,165.4,62.1,206.6-1.5,4.4-3.1,5.9-6.9,8.2-10.3,1.6-18-3.7-26-9.7-31.9-23.6-61.5-54.6-90.2-82.1-94.6-90.7-197.9-193.1-335.2-207.3-23.3-2.4-46.5-1.1-69.9.7-16.6-19.4-24.7-45.8-33.6-69.3,46,6.9,93,10,139.3,16.4-22.9-27.9-40.6-56.9-54.2-90.3,47.7,14,95.9,23.8,144.6,33.9-6.4-9.5-12.4-19.2-18-29.2-1.8-3.1-3.5-6.3-5.1-9.5-1.6-3.2-3.2-6.4-4.7-9.7-1.5-3.3-2.9-6.6-4.2-10-1.3-3.4-2.5-6.7-3.7-10.1-1.1-3.4-2.2-6.9-3.1-10.3-1-3.5-1.8-7-2.6-10.5-.8-3.5-1.5-7-2.1-10.6-.6-3.5-1.1-7.1-1.6-10.7-.4-3.6-.8-7.1-1-10.7s-.4-7.2-.5-10.8c0-3.6,0-7.2,0-10.8.1-3.6.3-7.2.6-10.8.3-3.6.7-7.2,1.2-10.7.5-3.6,1-7.1,1.7-10.7.7-3.5,1.4-7.1,2.2-10.6.8-3.5,1.7-7,2.8-10.4Z"/>
  <path class="st7" d="M1276.5,695.9c1.7,3,2.9,4.5,5.7,6.4l1.6-2.3c-3-18.4-1-84.4,6.8-99.6,2,1.4,2.7,1.8,4.5,3.9,7.5,8.6,23.2,30.9,22.9,41.8-7.8-10-15.7-20-23.3-30.2-.9,30.8,2.6,61.3,2.3,91.9l-3.3,2.1.7,1.5,2.3-.7-1.5,2.6c-8.9.9-17.3-4.4-24.8-8.7l6-8.6Z"/>
  <path class="st1" d="M1179.4,537.2l4.8-4.9,3.5.7c6.4,11.3,8.3,25.1,12.4,37.5,11.1,33.1,38,69.8,67,89,5.4,5,8.9,7.7,9.2,15.7.2,6.9,0,13.8.3,20.8l-6,8.6c-43.1-31.6-76.1-75.5-84.5-129.5-1.8-11.6-.3-28.1-6.7-37.8Z"/>
  <path class="st8" d="M1476.9,376c131.9-34.6,370.5-31.5,504.3-.7-16.5,15-35.2,30.9-43.9,52-20.5,49.4,42.6,63.5,57,102,5.8,15.5,3.9,34.1-3.3,48.9-20.4,42-80,44.4-119,58.2-64.3,22.9-56.2,71.6-80.1,121.6-13.8,28.7-35,47.3-65.1,57.9-90-31.1-55.3-119.8-116.2-163.6-42.4-30.4-111.3-17.5-145-60.1-48.8-61.6,40.2-96,44.5-145.6,2.5-28.2-16-50.5-33.1-70.5Z"/>
</svg>