<?xml version="1.0" encoding="UTF-8"?>
<svg id="_x2014_ÎÓÈ_x5F_1" xmlns="http://www.w3.org/2000/svg" version="1.1" viewBox="0 0 4000 4000">
  <!-- Generator: Adobe Illustrator 29.2.1, SVG Export Plug-In . SVG Version: 2.1.0 Build 116)  -->
  <defs>
    <style>
      .st0 {
        fill: #954414;
      }

      .st1 {
        fill: #d84b28;
      }

      .st2 {
        fill: #762c04;
      }

      .st3 {
        fill: #f0b01a;
      }

      .st4 {
        display: none;
      }

      .st4, .st5 {
        fill: #fefefe;
      }

      .st6 {
        fill: #5c0a01;
      }

      .st7 {
        fill: #c96410;
      }

      .st8 {
        fill: #db8111;
      }
    </style>
  </defs>
  <path class="st4" d="M0,0h4000v4000H0V0Z"/>
  <path class="st0" d="M796,2195.1c7,71.2,10.3,141.6,22.5,212.3l17.3,83.8c4.2,17.6,11,37.2,12.2,55.1-6,30.5-8.3,61-9.9,92.1-.6,11.4.6,23.8-1.4,35.1-.8,4.7-2.4,8.1-5.8,11.6-5.9,1.4-7.5,1.4-12.7-1.9-14.6-9.4-26.4-25.4-37.4-38.7-11.8-14.2-25.9-29.6-34.2-46.1l-32.9,88.5c-6.5,16.6-12.4,34-21,49.7v.4c-3.4,9.9-8.5,21.1-18,26.2-6.7.1-10.7-1.3-15.6-5.9-14.2-13.4-24.7-32.3-32.9-49.8-19.2-41-28.2-81.5-31-126.6-37.5,9.1-75,18.3-113.3,23.5-12.6,1.7-26.4,4.7-38.6.9-3.8-3.9-5.3-6.8-5-12.4.3-7,7.1-16.5,10.8-22.5,24.7-39.6,57.1-68.2,93.6-96.4-24.2-24.2-50.2-55.7-68.2-84.8-4.6-7.5-9.5-16-5.9-24.9,1.8-4.6,4.4-5.8,9-7.2,15-4.4,33.4,1.9,47.9,6,40.3,11.6,78.8,28.1,116.1,47.3,48.1-45.6,84.1-109,120.6-164.3l34-51.1Z"/>
  <path class="st2" d="M796,2195.1c7,71.2,10.3,141.6,22.5,212.3l17.3,83.8c4.2,17.6,11,37.2,12.2,55.1-6,30.5-8.3,61-9.9,92.1-.6,11.4.6,23.8-1.4,35.1-.8,4.7-2.4,8.1-5.8,11.6-5.9,1.4-7.5,1.4-12.7-1.9-14.6-9.4-26.4-25.4-37.4-38.7-11.8-14.2-25.9-29.6-34.2-46.1l-32.9,88.5c-6.5,16.6-12.4,34-21,49.7-6.5-13.5,1-47.6,3-62.9,7.9-62.3,16-124.4,30.8-185.6l21.8-86.2c4-14.5,10.4-30,12.8-44.8,1.8-11.5.4-24,.6-35.7.5-24.8,3.6-50.6.3-75.2l34-51.1Z"/>
  <path class="st2" d="M1208.1,402.5l4.1-6.8c12.7-17.8,28.6-33.7,44.6-48.4,65-59.6,147.3-99.3,232.1-121.8,32.5-8.6,65.7-13.4,98.7-19.4l-35.6,44.2-110.7,147.1,3.3-.2c8.3-.7,17.1-5,24.9-7.8,12.1-4.3,24.3-8.4,36.8-11.5,64.3-16.3,127.1-18.7,192.8-12.8-1.4,4.6-8.7,10.6-12.2,14.3l-31.4,34.3c-27.5,31.6-52.3,64.3-76.2,98.7-10.2,14.6-22.4,30.2-29.8,46.4-8.4-.8-17.9-5.3-25.8-8.2l-48.6-17.5c-33.6-11.1-68-19.9-102.8-26.4l-76.3-12.3-88.2-5.9c-44.8-1.8-89.7-2-134.4,2.3-24,2.3-50.7,9.9-74.6,9.1l7.5-19.5c33.9-81,101.8-150.7,172-201.8,23.4-17.1,48.5-34.2,75.4-45.3-19.9,55.9-38,109.7-49.5,168.2l3.8,1.2Z"/>
  <path class="st2" d="M1253.6,3138.6c12.2,3.8,27.6,17.9,38.5,25.5l60.2,38.9,115.7,63.1c22.2,11,45.8,20.6,67.2,32.9l-17.2,5.1c-53.3,17.7-100.2,55.6-124.9,106.2-12,24.6-20.3,53.9-19.9,81.5,0,4.3-.6,11.8.7,15.8,1.3,4.3,8.2,9.3,11.5,12.3,8.5,8,16.6,16.6,23.8,25.9,21,27,33.2,55.3,44.1,87.5l-91.9-27.7c-14.9-3.7-31.4-8.6-46.8-9.1-68.7-2.3-142.5,59.1-188.8,103.8-10.4-35.6-12.7-70.5-18.4-106.9-17.7-11.6-37.7-18.1-58-23.7-51.3-14.3-104.2-18.1-157.2-14.4,9.9-21.7,25.6-39.3,44.1-54.4,60.2-49.1,149.9-58.5,224.4-51.1l-4.2-75.7c1.8-70.3,22.2-148.1,66.3-204.3,8.9-11.4,20.4-21.3,31-31.2Z"/>
  <path class="st8" d="M3415.9,1979.4c189.6,179,355,412,363.1,681.8,5.4,178.7-72.7,357-194.7,485.9-178.5,188.6-425.8,292.2-677,340.8-97.4,18.9-197.6,31-296.9,33.5h-140.3c2-56.7,18.6-105.5,38.2-158.2,3.4-9,5.9-23.2,12.8-29.7,124.9,7.7,250.3,6.8,374.4-10.6,108.7-15.2,214.9-39.7,318-77.6,93.2-34.2,185.9-81.7,260.3-148.3,33.3-29.8,62-64.1,88.8-99.8,58.9-78.5,102.8-177.3,118.4-274.4,34.2-212.5-40.4-430.2-159.4-604.7l-46.3-61.4-47.9-56.1c-2.4-3.1-9.3-10-10.4-13.5-.8-2.4-.7-5.1-1.1-7.6Z"/>
  <path class="st0" d="M998.8,499.8c23.9.8,50.6-6.8,74.6-9.1,44.7-4.3,89.6-4.1,134.4-2.3l88.2,5.9,76.3,12.3c34.8,6.5,69.2,15.3,102.8,26.4l48.6,17.5c8,3,17.4,7.4,25.8,8.2,23,9.8,44.5,22.1,66,35,5.2,3.1,22.1,15.9,25.9,16.1,6.7.3,18.7-4.2,25.8-5.5,24.7-4.7,50.4-4.6,75,.7,30.7,6.7,57.5,24.2,80.3,45.2,53,49,82.2,110.2,111.1,174.9l50.8,120.1c54.7,135.9,101.6,274.8,93,423.3-1.5,25.8-3.9,59.4-14.2,83.2-10.9,25.2-36.3,47.7-56.7,65.6-59.8,52.9-128.3,96-197.7,135.1-54.7,30.9-111.7,60.6-170.1,83.9l8.5,45.5-144.1,64.9-42.6,17.9c-5.6,2.1-12.4,5.5-18.4,5.1l-1.1.8c-38.3,11-75.1,23.9-114.2,32.5-60.3,13.4-122.3,19.7-183.9,22.3-59.8,2.5-123.8,2.9-181.1-16.7-42.7-14.7-84.7-36.4-124-58.6-9.2-5.2-27.8-14.1-32.4-23.6l2.1-19.3c-3.6-5.2-11.6-7.1-17.4-9.6l-41.6-19.3c-56.6-27.8-113.7-59.8-165.6-95.6-84.3-58.2-160.6-121.2-232.2-194.6-49.6-50.9-108.7-113.5-121.5-185.8-26-146.3,41.5-309.5,116.1-431.7,28.2-46.1,61-89.7,91.7-134.1l76.2-112.9c46.7-66.5,137.5-95.3,215.3-77.4,12.8,2.9,24.9,6.5,37,11.4,5.1,2,17.7,10.2,22.2,10.7,4.2.4,20.4-10.5,24.7-12.6,15.2-7.7,31.2-14.2,47.2-20.2,45.5-17.2,91.1-27.3,138.9-35.6Z"/>
  <path class="st6" d="M827,1170.7c9.6.9,16.2,4.2,23.2,11,13.3,13,24.5,32.6,25.2,51.2l-10.4-.3c-11-.9-20.1-10.3-26.6-18.7-11-14.3-14.1-25.7-11.4-43.2Z"/>
  <path class="st6" d="M1128.6,1209.3c7.4,0,8.5-.5,14.9,3.8l.2,4.7c-9.7,19.4-32.5,32.4-51.1,42.2l-2.1.2c-6.9.2-8.3-.1-13.5-4.8-1.3-6.7,1.1-11.6,4.7-17.1,11-17.1,28-24.3,46.8-29Z"/>
  <path class="st2" d="M1511.7,1785.8c12.2-8.4,30.7-12.2,44.7-17.4l82.4-31.8,8.5,45.5-144.1,64.9-42.6,17.9c-5.6,2.1-12.4,5.5-18.4,5.1,5.1-10.6,15.4-20.9,23.1-29.8l46.3-54.2Z"/>
  <path class="st3" d="M620.6,660.6c11.1-1.2,23.2-1.5,34.4-.3,40.9,4.6,75.6,33.3,100,64.6,51,65.4,68.8,167.9,58.1,248.9-1.4,10.8-2.4,21.1-5.4,31.6-6.2,21.5-21.9,34.8-41.1,45.1-55.6,29.7-111.4,17.8-168.7.5-74.7-26.3-146.8-62.3-212.6-106.4,3.9-49,32.2-106.9,59.6-147.4,42.4-62.7,98.8-122,175.8-136.7Z"/>
  <path class="st6" d="M642.1,742.4c18.7-.8,33.3,1.3,49.7,11.1,25.2,15,43,43.7,50.1,71.8,9.9,38.9,5.2,89.5-15.4,124.4-13.7,23.2-31.7,34.5-57.5,41.3-17.8,1.8-33.6,1.1-49.9-7.4-27-14-42-41.7-50.4-69.8-12.4-41.5-4.9-89,15.9-126.5,12.2-22,33.4-38.2,57.5-45Z"/>
  <path class="st5" d="M661.9,845.6l11.9-.2c5.1.6,8,3.3,11.1,7.3,3.9,5,3.6,10.9,2.5,16.9-1.5,8.4-6.6,12-13.2,16.7-6.1.5-13.9.6-18.9-3.3-5.6-4.4-7.4-11.1-7.1-18,.5-9.5,7-13.7,13.8-19.3Z"/>
  <path class="st5" d="M619.7,759.9c7.1-.8,16.1-1.2,22.9,1.2,11,3.9,18.6,13,22.9,23.6,5.7,14.2,3,31.9-3.6,45.4-5.9,11.9-14.9,18.9-27.2,23.3-7.4,1.1-14.4,1.5-21.8,0-9-1.9-16.9-9.1-21.3-16.9-6.9-12.2-8.3-30.6-3.8-43.7,5.6-16.4,17.3-25.1,31.9-32.8Z"/>
  <path class="st3" d="M1655.4,705.9c17.2-1.3,36.2,0,53,4l3.5.9c42.3,10.4,77.2,32.6,108.5,62.5,60.1,57.6,99.8,144.3,113.2,225.9,4.2,25.6,5.1,51.1,5.9,77-38.2-.9-77.2-.1-115.1,4.9-55,7.3-108.3,21.9-161.3,38-22.3,7.3-47.4,18.2-70.7,21.4-16.9,2.3-35.8,0-52.5-2.6-38.6-5.9-78.4-17.4-110.2-41-15.6-11.6-26.4-28.4-28.7-48-1.7-14.3.2-29.1,1.6-43.3,7.5-73.9,39.9-151.7,87.4-208.8,43.9-53,96.8-84.1,165.6-90.8Z"/>
  <path class="st6" d="M1647.5,799.3c19.4-1.2,38,3.5,54.6,13.4,24.6,14.6,39.4,42.9,46.4,69.9,11.9,45.7,4.9,101.6-20.5,141.9-15.9,25.2-39.1,37.7-67.4,44.1-23.3.4-41.2-2.8-60.5-17.2-29.2-21.7-44.4-55.4-49.8-90.4-5.9-38.9,2.9-83.6,25.6-116.2,18.4-26.5,39.9-39.8,71.5-45.4Z"/>
  <path class="st5" d="M1626.3,913.8c6.4-.8,15.2-1.2,20.4,3.4,5.3,4.7,6.6,8.5,7.3,15.4-2.7,7.6-5.8,10.5-12.1,15.6-5.5.8-12,1-17-2-4.2-2.5-8.1-8.5-8.7-13.3-1-8.5,4.6-13.7,10-19.1Z"/>
  <path class="st5" d="M1674.4,818.7c9-.3,16.5.1,24.8,3.7,15,6.5,26.8,20.6,32.2,35.9,4.3,12.1,2.6,26.8-3,38.2-7.3,14.8-18.8,21.5-33.7,26.9-7.3.3-15.2,1-22.2-1.5-14.3-4.9-26.5-19.2-32.7-32.6-5.6-12.2-7.6-26.5-2.2-39.2,6.8-16.2,21.3-25.2,36.8-31.5Z"/>
  <path class="st6" d="M766.5,1547.7c-46.9-34.7-90-69.5-128.8-113.2-75.3-84.8-131.9-183.2-220.1-256.3-23.6-19.5-50.6-39.2-78.5-52.2,3.5-1.7,1.8-1.6,5.3-.4,39.3,14.2,76.6,31.8,112.6,52.8l111.4,69.7c173.6,103,369.2,165.2,572.4,161.7,168.2-2.9,332.9-39.7,492.8-89.6l120.3-39.2c35.5-11.7,72.8-25.8,110.4-27.8,50.8-2.7,83.6,11.7,123.7,41.5-43.5-20.1-93.7-28-139.6-11.2-58.7,21.4-114.7,57.2-167.1,90.9-93,59.9-177.9,131.7-273.2,188.1-7.5,4.4-27.3,17.8-35.2,17.3-9.9,7.5-23.5,12.9-34.8,18.3-49.3,23.6-99.8,39.8-153.3,50.5-46.4,9.2-97.4,13.2-144.6,8.3-99.3-10.3-191.7-54.4-273.7-109.2Z"/>
  <path class="st1" d="M766.5,1547.7c86.1-74.3,213.5-88.5,322.9-80.2,98.9,7.5,214.3,37.2,283.5,112.4-9.9,7.5-23.5,12.9-34.8,18.3-49.3,23.6-99.8,39.8-153.3,50.5-46.4,9.2-97.4,13.2-144.6,8.3-99.3-10.3-191.7-54.4-273.7-109.2Z"/>
  <path class="st0" d="M1647.4,1782c13.3,74.2,29.4,150.1,54.6,221.3,52.4,148,149.3,280.2,278.7,370,37.5,26,78.1,51.7,120.4,69.1,43.4,17.9,90,27.8,135.2,40.1,88.6,24.1,171.2,55.4,247.9,106.8,45.3,30.4,86.4,67.1,121.5,108.9,41.6,49.7,76,105,117.9,154.3,25.5,30,53,58,88.6,76.1,68.3,34.8,160.9,33.8,234.8,20.1,111.5-20.7,227.3-99.8,290.8-193.5,56-82.8,75.6-168.1,56.4-266.5-13.5-69.3-40.4-136.1-77-196.5-50.1-82.8-117.2-157.1-176.1-233.7-50.5-65.8-95.6-132.2-131.8-207.1-40.5-83.8-62.8-170.9-59.3-264.2,3.6-96.5,37.5-193.9,91.3-273.7,51.3-75.9,122-145.2,198.5-195.6l113.6-68.9c-116,124.3-214.7,281.4-209,457.5,6.4,194.6,136.3,345.8,271.4,472.5.4,2.5.3,5.1,1.1,7.6,1.1,3.4,8,10.4,10.4,13.5l47.9,56.1,46.3,61.4c119,174.6,193.7,392.3,159.4,604.7-15.7,97.1-59.5,195.9-118.4,274.4-26.8,35.7-55.4,70-88.8,99.8-74.4,66.6-167.2,114.1-260.3,148.3-103.1,37.9-209.3,62.4-318,77.6-124.2,17.3-249.5,18.3-374.4,10.6-6.8,6.5-9.4,20.7-12.8,29.7-19.6,52.7-36.2,101.5-38.2,158.4-16.8-.5-37.3-3.4-53.7,0,6.7,15.5,14.2,30.5,24.6,44,21.6,28.2,49.9,51.4,68.1,82.1,16.1,27.1,23.8,58.6,30,89.2-47.1-27.3-104-67.9-160.5-66.4-72.4,1.9-136.6,70-182.8,119l-1-1.8-1.6-3c-8.8-16.6-15.7-34.6-20.4-52.8-2.9-11.4-4.1-28.7-9.8-38.8-1.9-3.3-5.6-6-8.6-8.4-12.2-9.8-26.4-15.4-40.9-20.9-54.6-20.5-117.6-21.1-174.8-14.8,13.3-28.4,31.2-53.1,54.5-73.9,62.2-55.7,134-61.3,213.4-56.5l-27.6-63.9-33-3.9c-37.2-3.4-74.6-10.2-111.6-15.9-111.6-17.3-221.9-39.7-329.6-74.1l-169.6-61.6c-21.4-12.3-45.1-21.9-67.2-32.9l-115.7-63.1-60.2-38.9c-10.9-7.5-26.3-21.7-38.5-25.5-9.3-9.5-21.9-17.7-32.3-26.2l-57.8-49.9c-58.8-54.9-114.2-116-159.5-182.6-32.1-47.3-59.6-97.7-84.5-149.1-18.9-39-34.5-79-48.8-119.9-6.7-19.3-11.6-44.1-21.3-61.8l-1.5-2.7c-1.2-17.9-8-37.6-12.2-55.1l-17.3-83.8c-12.3-70.8-15.5-141.1-22.5-212.3l.9-259.7c1.9-36.1,3.3-73,8.8-108.8,4.6,9.4,23.2,18.4,32.4,23.6,39.3,22.1,81.3,43.9,124,58.6,57.3,19.6,121.3,19.2,181.1,16.7,61.6-2.6,123.6-8.9,183.9-22.3,39.1-8.7,75.8-21.5,114.2-32.5l1.1-.8c6,.4,12.8-2.9,18.4-5.1l42.6-17.9,144.1-64.9Z"/>
  <path class="st0" d="M1377.8,2755.7c5-18.7,86.6-92,105.5-107.7,6.6,14.2,15.9,27,24.5,40.1l-.2,1.1c-40.6,25.4-84.9,49.4-129.8,66.6Z"/>
  <path class="st2" d="M1450.7,2068c-.4,13.5-3.2,26.8-3.4,40.5-.8,49,10.1,102.7,21.3,150.4,7.3,31,18,63.1,22.2,94.6l-61.6,64.9-11.2,11.4h-1.9c-1-8.9,40.2-40.5,45.7-53,.6-1.4-.9-10.4-1.1-12.2l-5.3-45.2-11.1-118.4c-2.5-39.1,0-76.5,2.9-115.3.5-6.3,1.6-11.6,3.5-17.6Z"/>
  <path class="st2" d="M2456.5,3327.6c0-10.2,21.4-32,27.8-40.5,8.1-10.9,15.5-22.3,22.6-33.9,30.7-50.6,51.9-107.4,71.1-163.2-1.3,38.2-11.1,79.3-20.2,116.4-10.3,42.1-21.8,85.7-37.5,126.1l-63.8-4.8Z"/>
  <path class="st2" d="M2093.3,3118.9c.9-15.8,7.3-32.6,11.9-47.8,21.5-70.8,55.9-127.1,111.1-176.6l67.8-50.6c-5,8.8-12.3,14.7-18.8,22.3l-30.7,38.8c-36.9,50.1-66.4,107-82.2,167.4-5.6,21.4-8.2,42.8-12.1,64.5l-46.9-17.9Z"/>
  <path class="st7" d="M2456.5,3327.6l63.8,4.8.6,1c-6.8,6.5-9.4,20.7-12.8,29.7-19.6,52.7-36.2,101.5-38.2,158.4-16.8-.5-37.3-3.4-53.7,0-11.8-22.8-10.7-64.2-7.1-88.8l4.6-25.8c6.2-22.8,16.6-43.4,29.2-63.2,3.7-5.9,7.2-12.6,13.4-16.1Z"/>
  <path class="st7" d="M2093.3,3118.9l46.9,17.9c-6.7,77.5-7.5,158.6,11.3,234.7,7.1,28.6,17.6,55.4,27.5,83l-33-3.9c-3-8.6-8.7-16.6-13.2-24.6-6.9-12.3-13.2-25.2-18.6-38.3-34-82-41.6-182.4-21.9-268.6l.9-.2Z"/>
  <path class="st2" d="M1483.3,2648l2.3-1.1c7.2-3.7,13.9-11,19.9-16.3l41.6-38.3,101.7-95.2c15.9-15.7,33.6-31.6,46.5-49.8l1.8-2.5c9.5-13.5,13.9-28.7,16.9-44.8,9-48.4,1.5-104.6-7.3-152.7-14.4-78.6-36.5-163.1-72.5-234.6l2.1-.9c55.9,91.6,95.3,201,106.6,308.1,4.1,38.8,5.1,79.1-4.5,117.2-12.2,48.6-52.8,90.8-86.9,125.3-45.4,46-92.8,86-143.7,125.7-8.6-13.1-17.8-25.9-24.5-40.1Z"/>
  <path class="st8" d="M805.7,1826.7c4.6,9.4,23.2,18.4,32.4,23.6,39.3,22.1,81.3,43.9,124,58.6,57.3,19.6,121.3,19.2,181.1,16.7,61.6-2.6,123.6-8.9,183.9-22.3,39.1-8.7,75.8-21.5,114.2-32.5l-.6,1.5c-9.1,21.1-21.9,41-31.6,61.9-36.4,78.2-61.7,162.2-63.3,249.2-1.3,71.6,6,143.1,25.2,212.2,2.2,7.8,19,56.4,17.2,60.3-2.7,5.9-18,17.5-23.1,22.5l-66.3,64.4c-10.5,10.4-21.9,25.6-34.1,33.5-40.2-21.7-79.8-41.2-122.3-58.1-12.3-4.9-32.7-15.9-45.9-11.6-3.1,1-7.4,3.2-8.5,6.4-9.5,26.3,33.7,108.1,46.1,132.5-45.9,22.9-96.3,54.9-123.5,99.6v6.3c3.6,3.7,7,6.5,11.9,8.2,14.4,5,33.8,5.5,49,6.9l97,8.7c-1.8,44.7-2.6,87.6,3.4,132.1,2,14.9,4.7,35.9,14.7,47.4,12.5-.4,20.5-9.4,29.7-17.2,62.5-52.5,103.2-126.1,161.6-182,44.9-17.2,89.1-41.2,129.8-66.6,27.8,36.4,55.5,72.8,86.4,106.6,90.2,98.5,196.2,178.1,314.7,239.4l183.7,83.9c-19.7,86.2-12.1,186.6,21.9,268.6,5.4,13,11.7,26,18.6,38.3,4.4,8,10.1,16,13.2,24.6-37.2-3.4-74.6-10.2-111.6-15.9-111.6-17.3-221.9-39.7-329.6-74.1l-169.6-61.6c-21.4-12.3-45.1-21.9-67.2-32.9l-115.7-63.1-60.2-38.9c-10.9-7.5-26.3-21.7-38.5-25.5-9.3-9.5-21.9-17.7-32.3-26.2l-57.8-49.9c-58.8-54.9-114.2-116-159.5-182.6-32.1-47.3-59.6-97.7-84.5-149.1-18.9-39-34.5-79-48.8-119.9-6.7-19.3-11.6-44.1-21.3-61.8l-1.5-2.7c-1.2-17.9-8-37.6-12.2-55.1l-17.3-83.8c-12.3-70.8-15.5-141.1-22.5-212.3l.9-259.7c1.9-36.1,3.3-73,8.8-108.8Z"/>
</svg>