<?xml version="1.0" encoding="UTF-8"?>
<svg id="Layer_1" xmlns="http://www.w3.org/2000/svg" version="1.1" viewBox="0 0 4096.1 2246.8">
  <!-- Generator: Adobe Illustrator 29.2.1, SVG Export Plug-In . SVG Version: 2.1.0 Build 116)  -->
  <defs>
    <style>
      .st0 {
        fill: #386689;
      }

      .st1 {
        fill: #19191f;
      }

      .st2 {
        fill: #325c7c;
      }

      .st3 {
        fill: #c1e5f2;
      }

      .st4 {
        fill: #b7dfeb;
      }

      .st5 {
        fill: #5096bc;
      }

      .st6 {
        fill: #3c6d90;
      }

      .st7 {
        fill: #f0a45f;
      }

      .st8 {
        fill: #447b9f;
      }

      .st9 {
        fill: #2f597c;
      }

      .st10 {
        fill: #b1dbe9;
      }

      .st11 {
        fill: #fefefe;
      }

      .st12 {
        fill: #9ecbdd;
      }

      .st13 {
        fill: #19293c;
      }

      .st14 {
        fill: #25496a;
      }

      .st15 {
        fill: #2e587c;
      }
    </style>
  </defs>
  <path class="st5" d="M114.8,431c0-10.2.1-20.5.1-30.7,8.9,6,10.9,16,15.3,24.8,14.5,29,40.4,44.4,63.1,35.1,42.6-17.5,77.9-43.8,93.7-89.9,20.6-21.9,29.4-47.9,23.9-77.6-6.4-33.9-19.5-65.8-41.2-92.2-20.3-24.8-40.4-54.9-81.5-43.2-3.2.9-7.6-2.7-11.5-4.1,30-66,100.9-76.1,162.5-67.8,26.5,3.6,51.9,11.9,76.6,22.1,20.9,8.6,41.2,8.8,63.2,3.9,96-21.3,192.8-36.6,291.5-38.1,78.3-1.2,154,12.7,228.2,36.4,20.5,6.6,39.3,7.7,60.1-.4,88.9-34.3,161.5,2.1,226.2,58.7,29.9,26.1,62.8,47.8,92.1,74.9,94.8,87.6,131.8,193.2,109.6,320-18.8-38.2-28-41.7-64.6-24.9-10,1.8-20.1,3.5-30.1,5.3-23.1-21.8-35.5-18.2-44.5,12.7-84.1,41.9-171.4,72.2-266.4,76.1-28.4-10-56.2.4-84.3,1.8-105.2,7.1-210.5,13.3-316,14.5-68.9.7-137.9,2-206.9-3.6-82.2-6.7-161.8-25.8-241.6-44.4-18.1-13.1-37.9-21.3-60.6-21.8l.3.2c-2.4-1.7-4.9-3.4-7.3-5.2-7.2-2.1-14.4-4.2-21.6-6.3-20.8-43.1-23.3-90.1-28.9-136.4,0,0,.4.1.4.1ZM1266.9,256.2c1.5-53.5-4.2-66.3-36.8-75.7-14.2-4.1-29.4-6.9-44.1-6.7-98.6,1.4-195.5,56.1-235.6,158.3-19.1,48.6-11,89.6,23.3,117.4,35,35,74.4,63.9,118.2,86.9,66.1,34.5,135.2,22.7,180.4-32.1,26.2-31.9,35.4-70.8,38.7-111.4,4.2-51.9-16.5-95.4-44.3-136.7ZM600.4,554.1c-2.8,12,1.9,19.2,12.1,21.9,11.1,2.9,52.3-24.8,52.9-35.4.8-13.3-7.4-19.3-19.4-21.1-21.1-3.1-42.8,13.9-45.6,34.6ZM321.6,537.2c.7-14.9-19.1-37.9-33.2-38.4-10.1-.4-15.2,4.9-15.6,14.9-.5,14.2,20.8,34.2,36.8,35,8.5.4,12.4-3.1,12-11.5ZM565.5,192.7c-26.6,8.4-38.5,4.9-29.4-19.4,1.6-4.3-.8-8.8-6.1-8-12.9,2.1-23.1,7.2-25.3,22.4-2.2,15.1,6.6,19.7,18.2,20.2,12.6.6,26.5,3.9,42.5-15.2ZM1425.4,423.2c-2.8-11-7.5-19.3-19.8-19.2-13.3,0-22.8,6.2-23,20.3-.2,12.7,10.5,16.7,20.5,17.5,12.5,1,18.9-7.9,22.4-18.6ZM525.3,532.8c-.2-9.2-2.9-17.3-13.6-16.7-11.7.7-20.4,7.2-21.6,19.8-1,10.5,4,17.6,15.4,17.8,14,.2,17.6-9.8,19.8-20.9ZM416.6,327.4c-.8-13-9.8-14.9-19.2-13.9-9.2,1-24.2-6.7-24.6,11.1-.2,11.2,8,17.6,19.3,18.5,12.3,1.1,20.4-4.2,24.4-15.8ZM629.9,167.9c-3.1-9.9-10.3-15-20.6-13.5-10.1,1.4-17,8.1-15.7,18.8,1.2,10,10.3,13.1,18.7,12.7,10.2-.5,16.2-7.2,17.6-18ZM717.7,248.3c0,.4,0,.7.1,1,7.3-.9,14.8-1.5,21.9-3.3,2.1-.6,3.9-4.7,4.7-7.5.2-1-2.8-4-4.7-4.3-12.1-2.1-24.4-4.1-36.6-5.4-5.4-.6-9.9,2.1-10.4,8.2-.6,7,2.9,10.9,10.1,11.2,4.9.2,9.9,0,14.9,0ZM1398.1,348.9c9.1.1,17.2-2.4,17.4-12.9.2-9-6.4-12.7-15-12.7-9.2,0-17.1,2.9-17.6,13.1-.4,9.4,7,12.1,15.2,12.5ZM850.1,328c-7.5,0-13.6,2.1-12.6,11.1.8,8.7,6.2,13.5,14.8,13.5,8.4,0,15.2-3.6,14.3-13.1-.9-9.2-8.6-11.1-16.5-11.6ZM875.1,149.6c-7.6,1.1-12.5,5.2-11.8,12.9.7,7.9,6.6,10.8,13.9,10.4,6.1-.3,12-2.8,12.1-9.6.1-8.8-6.8-12.1-14.2-13.8ZM728,184.9c17.2,3.4,27.5,7.2,38.6-3.4-12.5-3.9-22.2-5.3-38.6,3.4Z"/>
  <path class="st2" d="M1432,693.4c69.3,12.9,139.2,10.1,209.1,8.1,133.5-3.9,264.9-27.6,396.8-44.9,213.3-28,423.3-16.5,630.4,44.6,82.9,24.4,166.1,49.4,253.9,48.7,5.5,15.2,18.7,8.6,28,8,24.7-1.8,49.1-7.1,73.8-8.9,107.3-7.9,195.5-54.4,273.1-127.2,102.7-96.4,182.1-214.1,287.2-308.1,4.5-4,7.8-8.7,7.9-15.1,6.3,0,10.6-3.6,15-7.5,42.6-37.8,88.7-70.8,138.6-98.3,6.4-3.5,12.2-13.1,21.2-4.1-49.4,54.9-104.5,104.1-150.5,162.3-55.4,70.2-112.7,138.7-169.6,207.7-29.5,35.8-59.1,71.4-89.5,106.4-22.4,25.8-46.2,50.4-69.3,75.5-6.4,3-16.5,1.4-15.8,13-13.7,4.9-27.4,9.7-31.5,26.1-20.8.8-40.8,3.3-52.9,23.6-30.9,8.5-61.7,17.5-92.7,25.4-40.9,10.4-82.6,14.8-124.8,15-48.5.2-96.9,9.8-145.5.2-15.6-3-31.7-2.5-38.1-21.1,5.4-6.8,9.5-13.9.8-20.9-6-4.8-12.5-3.6-17.5,1.3-7.1,7.1-3.3,12.9,3.4,17.9-2.7,5.2-6.6,5.3-12.3,4.8-58.9-5.4-115.6-24.6-174.8-29-8.5-.6-20.5-.5-26.1-11.3,4.6-6.7,12.4-16.1.9-20-14.4-4.8-28.7-.6-33.1,17.7-3.9,0-7.9.2-11.9.3-16.2-20-28.8-9.1-40.9,4.8-28.6,3.3-57.1,7.2-85.8,9.9-92.9,8.6-183.4,30.5-274.9,47-43.7,7.8-87,18.2-130.4,27.4-.3-10.9-.4-22.4-16.3-20.8-6.8.6-14.4,4-13.3,11.7,1.8,13,13.1,12.3,23,12.3-28.7,18.4-61.8,19.6-94,22.1-42.8,3.3-85.6-1-128.3-4.9,3.7-11.8-.1-20.7-12.5-21.2-13.7-.5-18.7,8.1-14.9,21.4-31.4.1-62.9.4-94.3.5-1.5-13.4-6.8-23.4-21.6-25.4-19.4-2.5-35.7,1.6-45.7,20.3-27.3-1.2-54.6-2.4-82-3.6-9.9-10.2-20.3-5.1-30.6-.7-68-.9-135.7-4.3-199.9-30.6-1.4-.6-3.3-.2-5-.2-1.1-2.9-2.2-5.8-3.4-8.8,29.9-20.3,65.1-32.1,92.1-56.7,26.2-24,57.7-44.1,69.3-80.9,6.2-8.7,13-16.3,25.2-13.7ZM1831.2,771.9c9.4,19,25.9,19.2,42.8,14.8,13.6-3.6,27.1-13.4,25.4-27.2-2.4-19.5-11-39.9-30.7-48.8-20.5-9.2-36.7,4.9-51.6,16.8-7.4,5.8-5.6,13.1,2.1,18.5-9,14.5-2,21.8,11.9,25.9ZM1555,784.3c-8.7,3.4-21.8,3.1-21.7,15.3,0,13.1,13.2,11.1,22.1,13.1,13.8,5.4,27.6,10.6,41.2,16.3,24.1,10,33.1-7.9,41.5-23.6,8.5-16-2.4-38.4-21.3-46.3-17.9-7.4-35.4-6.1-43.6,13.4-4.3,10.2-9.7,11.7-18.3,11.8ZM2189.9,776.9c-2.6-7.5-9.1-10-17.1-9.6-7.7.4-16.2,1.7-14.7,12.2,1.2,8.6,9.3,11.6,16.8,12.3,8.8.8,13.3-5.2,15-14.9ZM1424.6,814c-1.2-7.1-5.1-12.2-12.5-12.2-8.2,0-14.3,4.8-14,13.4.2,7.8,7,10.6,13.8,10.8,7.5.3,11.6-4.5,12.8-12Z"/>
  <path class="st15" d="M1432.2,2088.5c-.9-9,1.9-17.3,5.8-25.3,1.2-2.7,2.4-5.5,3.5-8.2-3.4-7.4-.1-14.5,1-21.8,7.8-12.9,6.7-24.6-3.8-35.9-9.3-10-19.6-10.1-31.8-6.5-45.7,13.4-86.3,37.1-126.5,61.7-14.1,8.6-28.4,18.4-44.1,22.6-14,3.8-35.3,15.7-39.8-13.7,35.1-39.4,80.1-65.6,124.2-93.1,20.8-12.9,44.8-20.9,61.5-40-3.6-15.2-16.1-15.1-27.5-14.7-39.5,1.5-78.9-2.9-118.5,4.1-36.4,6.5-38.5,3-39.5-31.9.3-3.9,2.2-6.4,6.2-7.3,4.5-.7,8.2-2.4,8.9-7.7,1.6-.9,3.2-1.8,4.8-2.7,6.7-.1,14.4,1.3,15.6-8.7,33.6-17.1,70.6-17.5,106.9-20.5,32.3-2.6,64.8-3,96.6-10.2,24.7-5.7,46-17.4,54.2-42.9,21.3-65.8,51-128.1,75.1-192.7,18.2-48.9,8.7-92.7-17.1-135.2-31.8-78.1-63.6-156.3-95.4-234.5-1.7-8-3.2-16.1-5.1-24.1-12-50.4-10.4-98.6,23.5-141.4,4-3,7.9-6.1,11.9-9.2,25.3-19.9,55.1-24,84.9-18.7,58.7,10.4,104.8,41.6,143.1,87.7,21.3,25.8,35.3,56,57,81,0,2.8,0,5.6,0,8.3-2.2,23.8,14.8,41.6,19.8,63.5,15.7,70.2,27.9,140.7,36.4,212.3,14.2,120.9-14.2,229.9-77.3,331.9-5.7,9.2-13,15-24.4,13.8-5.2-4.6-9.9-12.8-17.8-4.9-3.1,3-6.1,9.1-5.1,12.7,3.1,11.4,12.6,6.5,20.2,6.1,14.4,13.4-.4,24.1-6.4,30.8-27.2,31-34.9,71.7-55.8,105.6-2.4,5.4-6.2,9-12.2,9.9-2.6,1.9-5.1,3.8-7.6,5.8-37.9,31.6-79.9,58.6-109.9,99-1.7,2.6-3.4,5.2-5.1,7.8l.4,1.4-1.2.8c-4.2.6-7.7,2.2-9.9,6.3-17.3,31.6-38.7,61.2-44.6,98.1-2.9,17.8-10.8,31.5-32,31-1.8.2-2.8-.6-3-2.4-.5-3.6-1.9-6.8-5.8-7.9-7.1-7.1-9-15.9-8.1-25.5,6.5-14.7,5.7-29.5.5-44.3.5-3.5,1.2-7.1,1.7-10.6,11.6-18.5,13.6-38.8,11.9-59.9ZM1607.7,1818.3c.7-9.5-2.1-16.3-13.2-15.5-6.5.5-10.9,5.1-10.5,11.2.7,12,9.9,10.4,18,9.6.9,2,1.7,4,2.6,6-3.5,14.2,4.6,21,16.8,21.5,10.5.5,12.7-7.9,12.3-17.5-.7-14.3-8.2-16.6-20.1-12.9-2-.8-3.9-1.7-5.8-2.6ZM1651.9,1240c-2.1-12.1-5.6-22.2-13.8-29.7-3.2-2.9-8.3-1.5-11.1,1.9-7.2,8.9-4.7,18.6-1.2,28.2.3.8.5,1.5.7,2.4,2.9,10.6,2.2,28.1,15.5,26.4,9.8-1.2,3.8-20.5,10-29.2ZM1674.2,1386c7.9-3.6,17.1-9.7,15.7-16.9-1.8-9.1-4.2-22.5-15.9-24.6-8.4-1.5-15.8,6.7-15.9,15.5-.1,11.1,5.8,20.2,16,26ZM1579.4,1163.9c10.3-.7,15.3-6.8,15.2-16.1,0-8-3.6-14.8-13.1-14.6-9.4.2-16,5.9-16.9,14.9-.8,9.5,5.4,15,14.8,15.9ZM1647.4,1908.8c-.4-6.8-5.2-10.5-12.9-10.3-10,.2-15.6,6.4-15.2,15.8.4,8.8,7.6,12.8,15.9,11.9,8.6-1,12.1-7.6,12.2-17.4ZM1569.9,1102.7c8.4-.9,13.9-5.4,14.2-13.8.2-8.9-6.3-13.4-14.2-13.3-7.6,0-14.7,3.9-14.4,13.2.3,8.8,6.9,12.1,14.4,13.9ZM1629.9,1096.9c8.1-1.3,14.3-5.3,13.7-14.4-.5-7.7-6.5-11.7-13.6-12.1-9.5-.6-13,6-13.1,14.4-.1,8.4,5.6,11.2,13.1,12.1ZM1746.1,1534.8c-1.7-6.3-4.9-11.7-13-11.6-7.6,0-13.1,4-13.6,11.5-.6,8.9,4.8,13.8,13.7,13.4,7.6-.3,11.6-5.3,12.8-13.2ZM1732.8,1758c-1.1-8.3-7.1-10.4-14.2-10.4-8.2,0-12,4.9-12.1,12.6,0,7.9,3.8,13.1,12,12.4,8.1-.7,13.6-5.4,14.3-14.5ZM1722.5,1264.1c-2-5.5-5.6-11-13.4-10.2-8,.8-10.6,7.1-10.5,14.2,0,8,4.6,12.3,12.6,11.2,7.5-1.1,11-6.4,11.3-15.2ZM1786.4,1534.9c.6,7.7,5.1,12.3,12.5,12,7.3-.3,11.9-5.4,12.3-12.8.4-8.4-5.3-11.1-12.7-11.2-8.1-.2-11.7,4.4-12.1,12ZM1660.7,1783.6c-7.7.8-12.3,5-11.9,12.7.4,6.7,5.8,10.2,11.9,10.2,7.8,0,11.8-4.9,11.5-12.9-.4-7-4.8-9.9-11.5-10.1ZM1738.3,1356.2c-6.6.8-10.6,4.4-10.9,11-.4,6.8,3.2,10.8,10.2,11,7.9.1,12.8-4,12.6-11.7-.2-6.7-5.6-9.4-11.8-10.3Z"/>
  <path class="st9" d="M4022.6,1703.2c5.9,3.4,9.1,8.5,9,15.4-6.8,26.2-22,19.3-37.5,9.1-49.1-31.9-90.7-74.2-144.3-100.1-31.1-15-58.8-36.9-91.7-48.8-25.1-9-49.2-7-70.8,10-3.5,3.1-7,6.2-10.5,9.4-1.4,2-3,4-4.4,6.1-16.7,43.4-18.8,90.6-34.9,134.2-3.1,8.4-6.8,16.6-10.2,24.9-10,1.5-14.9-4.1-19-12.4-10.3-20.9-28.4-37.8-30.9-62.6-.1-.8-.5-1.7-.3-2.4,15.7-84-24.8-135.3-97.1-169.3-29.2-13.7-56.6-31-84.8-46.6,5.2-3.5,10.3-10.7,3.9-13.4-9.4-3.8-13.9,5.1-15.7,13.8l.4-.7c-25.1,3.4-50,3.5-74.5,14.2-51.4,22.6-104.5,41.7-157,61.7-7,2.7-15.8,10.4-22.6,3.1-5.6-6,1.1-14.5,3.8-20.8,20.4-46.9,16.3-92.9.2-140.2-8-23.5-24.2-43.7-26.4-69.2,75-20.3,144.3-55.5,216.7-82.8,64.3-24.3,125.5-21.3,185.4,11.4,43.1,23.6,86.3,47,128.4,72.2,26.4,15.8,53.1,20.5,83.5,16.9,65.4-7.6,130.1-19.8,195.1-29.8,15.1-2.4,31.8-6.1,39.1,11.8,8,19.8-6.4,31.8-21.1,40.1-49,27.9-102.7,37.3-158.4,38.8-11.4.3-30.5-5.5-32,8.8-1.9,17,18.1,20.1,31.4,21.7,76.1,9.4,152.2,17.3,228.3,26,20.6,2.4,41.2,5.6,61.7,9.1,16.5,2.8,32.7,9.1,30.9,29.2-1.7,20.2-20.6,19.7-34.9,20.4-25.8,1.3-51.7.3-77.4.2-58.3-.1-116.7-.5-174.9-.2-11.2,0-26.1-1.8-30.2,11.9-4.5,15.4,10.3,21.4,20.6,27.3,60.8,34.7,121.9,68.6,179.3,108.8,8.8,6.2,18.1,11.8,24.2,21.1,0,13.3,7,20.2,19.9,21.7ZM3417.2,1448.5c5.9-1.4,15.2,2.9,15.4-8.8-8.3-2.4-12.3,2.6-15.6,8.5-2.1.6-4.4,1.3-6.5,2,.5.7.8,1.2,1.3,1.9,1.8-1.2,3.6-2.5,5.4-3.7ZM3421.8,1346.6c-9.2,1.4-14.3,6.8-14.2,16.4,0,8.5,4.1,14.5,13,14.2,9.7-.4,14.6-7.4,14.8-16.2.3-8-4.5-13.6-13.6-14.4ZM3593.9,1512.1c8-.1,12.6-4.5,13.3-12,.8-8.4-2.7-15.1-11.7-16.2-8-1-12.4,4.2-13.1,11.8-.9,8.6,3.2,14.2,11.6,16.5ZM3370.9,1307.1c-1.3-7.3-6.4-9.5-12.6-9-8.3.6-14.4,4.9-14.5,13.5,0,6.9,5.8,9.9,12,9.1,7.9-1,13.5-5.5,15-13.7ZM3678.3,1519.3c-.4-7.5-3.3-13.4-11.2-13.4s-14.3,3.4-15,12.6c-.7,8.8,3.3,14.6,12.3,14.5,8.5,0,13-5.5,14-13.7ZM3605.6,1438.1c-1.4-7-5.6-12.5-12.5-12.9-8.6-.3-13.4,6-13.3,14.1.2,7.5,5.3,12.1,12.9,11.2,6.8-.8,11.8-4.9,12.9-12.5ZM3435.1,1290.2c-1.6-6.2-4.2-12.2-12.7-11.6-6.9.5-10.5,5.1-10.7,11.4-.3,8.1,5.2,11.9,12.7,12,6.8,0,10-4.6,10.8-11.8Z"/>
  <path class="st15" d="M157.3,1279c17.5-17.1,39.4-15.1,60.7-13,53.5,5.5,102.8,26.3,152.1,45.6,36.9,14.5,70.6,17.2,106.9-4,40.1-23.4,84.3-38.9,127.8-55.2,25.8-9.7,45.9-25.2,61.6-48,17.8-25.9,36.8-51.1,59.6-73.1,29.9,24.1,65.3,38.4,99,55.9,10.4,5.4,21.2,10.2,28.2,19.7,24.9,33.7,49.4,67.6,74.1,101.6-38.9,56.2-89.2,98.6-152.8,124-72.7,28.9-145.9,56.3-218.7,84.8-27.2,10.7-51.6,26.8-75.8,43.1-34.7,23.3-51.2,58.1-62.2,96.5-7.1,24.8-12.9,50.1-26.5,72.4-7.9,13-16.5,26.5-34.5,24-18.3-2.5-26.2-17.1-30-32.9-11.8-48.7,6.1-89.6,35.3-127.1,1.7-2.5,3.3-5.1,5-7.6.1-2.5.2-5,.4-7.4,10.9-15.8,6.8-22.6-13.8-24.9-29.2-3.3-55.9,7.5-82.4,15.8-64.8,20.5-130.4,40.1-179.6,91.9-10.3,10.9-23.6,28.5-37.4,23.1-14.9-5.8-4.5-27-7.1-41.2,8-22.2,25.8-36.2,43.1-50.1,44.6-36,94.1-64.6,145.4-89.9,2.1-1.3,4.3-2.6,6.4-3.9,3.4-1.9,6.9-3.8,10.4-5.6,3.4-2,7.3-3.5,10.3-6.1,6.7-5.9,22.1-4.7,18.2-19.1-3-11-14.2-12.1-23.7-15.1-32.5-9.9-65.5-15.2-99.5-14.9-21.5.2-44,4-64.2-1.2-18.8-4.8-44.4,8.4-56.3-17.8,39.9-18.7,83.1-22.1,126.1-25.2,54-3.9,107.8,3.5,161.7,4.6,16.4-6.5,12.9-15.9,1.4-22.6-20.6-11.9-40.2-25.4-63-33.5-34.8-12.3-72.5-13.7-106.4-29.2h.1c0-11.4.2-23,.3-34.5ZM731.3,1358.5c-4.2-8.8-9.7-16.5-17.1-14-12.1,4-26.4,9.3-29.9,23-2.3,9,7.9,10.9,15.7,10.8,15-.1,21.4-12.7,31.3-19.8ZM750.4,1280.1c-.6-6.9-4-9.3-8-10.5-7.9-2.2-14.6.5-20.1,6.4-4.4,4.6-6.2,9.8-2.7,15.7,5.2,8.7,12.9,12.5,22.9,11.3-2.6-9.9-.3-18.3,7.8-23ZM638.9,1318.7c-9.1,5.9-24.8,4.4-26.1,21-.4,4.5,2.6,7.4,7.8,7.4,7.7,0,30.6-18.4,29.2-23.8-1.3-5.5-6.1-4.2-10.9-4.6ZM662.3,1252.2c-8.4.2-14.5,3.3-15,12.7-.6,9.2,4.2,13.7,13.2,14,8.8.4,14.7-3.6,15.1-12.5.4-8.5-4-14-13.3-14.2ZM491.4,1358.6c7.7-.2,13.1-4,13.8-11.6.8-8-4.6-12.3-12.1-13-7.8-.7-13.1,3.7-13.6,11.3-.6,7.8,3.9,12.4,11.8,13.2ZM490.1,1449.8c-6.9,1.8-13.2,5.1-13.2,14.3,0,8,5.2,12.7,12.4,12.6,7.4,0,11.9-5.5,12.6-13,.9-7.9-3.2-12.3-11.9-14ZM361.5,1473.7c7.9-.4,12.1-5.6,13.1-12.4,1.1-7.9-3.9-12.1-11.5-12.4-8.1-.4-11.9,5.3-12.8,12.1-1.1,7.8,3.6,11.9,11.2,12.7ZM609.7,1274.6c-7.4,1.1-14.4,4.2-15.6,12.6-1.1,8,4.9,11.5,12.4,11.5,8.7,0,14.1-4.4,14.4-13.1.3-6.8-4.4-10-11.2-11ZM420.5,1497.6c-7.3.1-12.9,2.8-13.6,10.9-.9,9.1,3.8,14.2,12.6,14.1,7.4,0,11.9-5,12.6-12.5.8-8.1-3.8-11.9-11.6-12.5ZM334.1,1503.2c7.3-1.3,12.8-5.3,12.5-13-.2-8.2-6.2-11.5-13.8-10.3-7.5,1.2-11.9,5.9-11,13.9.7,7.1,5.6,9.6,12.3,9.4ZM674.1,1326.6c6.2-2.3,12.7-4.4,12.7-12.9,0-5.5-1.9-9.9-8.4-9.4-6.8.5-10.1,5.2-10.8,11.4-.6,5-.5,10.1,6.6,10.9ZM443.2,1363.7c6.9-.8,9.9-4.9,9.6-11.5-.4-6.9-4.4-10.1-11.2-9.5-6.5.6-10.6,4.1-9.7,11.2.7,6.5,4.6,9.9,11.4,9.8Z"/>
  <path class="st4" d="M1470.8,1057.8c-34,42.8-35.5,90.9-23.6,141.4,1.9,8,3.4,16.1,5.1,24.1-14,1.5-15,14.5-19.2,23.5-16.7,35.6-44.9,50.2-83.2,51.9-31.7,1.3-63.2-2.1-93.9-6.6-110.8-16.3-215.1-51.4-308.5-115.8-17.8-12.2-33.2-30.4-57.3-32.1-17.2-22.2-28.6-47.8-43.1-71.7-10.1-16.5-13.5-37-29.9-49.6-2.2-27.2-18.7-48.7-28.9-72.7-3.9-8.9-10.5-16.9-10.8-27.2,35.6-1.2,71.1-.8,106.9-3.7,74.4-6,146.2-27.1,220.5-33.8,47.9-4.3,92.8-23.7,137.1-42.3,1,.6,2.1.9,3.3,1.2,1.2,2.9,2.2,5.8,3.4,8.8,5.8,14.7,11.6,29.4,17.3,44.1-3.2,25-15.2,54.7,4.4,73.4,55.5,52.8,121.8,85.1,200.3,86.9Z"/>
  <path class="st4" d="M2622.1,1373c-99.9,50.8-205.9,83.4-315.4,104.9-105.4,20.7-212.1,29.1-319.6,25.4-55.4-50.1-85.4-116.5-116-182.3-16.6-35.8-35.8-70.1-58.8-102.2,3.2.7,6.6,1,9.6,2.1,184.7,71.2,372,76.2,562.2,23.6,72.2-20,141.3-48.3,212.2-71.8,8.8,13.6,9.2,29.3,10.8,44.7,5.1,51.8,10.1,103.6,15.1,155.5Z"/>
  <path class="st0" d="M3012.5,1610c-41.1,8-76.8-6-110.5-27.5-49.2-31.4-84.6-76.5-119.5-122.1-29.8-38.9-51.2-83.1-79.9-122.6-15.4-33-30.8-66-46.1-99,9.4-9.9,5.7-14.1-6.4-14.5-10.4-18.9-17.8-39-23.7-59.7,2.4-7.4,16.4-4.5,14.4-14.4-2-10.2-12-5.5-18.6-6.8-5.8-3.6-4.8-9.5-4.9-15,34.5-3.9,68.6-5.9,95.1,22.9,13.7,14.9,28.1,21.2,45.8,6.8,4.1,4.2,5.6,12.2,14.5,8.9,10.6-3.9,15.1-11.4,13.9-22.5,11.2-11.6,24.3-18.6,8.6-40.8-11.1-15.7-3.3-42,8.9-61.4-32.6-9.8-36.6-17.8-27-53.8,15,14.1,30.5,27.8,44.9,42.5,8.9,9.1,22.1,16,20.4,32.1-3.6.9-8,.8-7.8,6.3,0,.6,1,1.5,1.6,1.6,5.6.3,5.4-4.2,6.3-7.8,8-.5,13.9,2.2,19.2,8.9,18.9,24.1,38.6,47.5,57.8,71.3,71.7,89,128.2,185.7,145,300.8,9.3,62.6,1.6,121.9-51.9,165.8ZM2877.2,1297.1c.2-18.8-19.7-37.9-38.9-38.1-10.2,0-17.9,4.6-18.9,15.4-1,10.9,30.5,42.4,41.9,41.9,12.5-.5,17-8.4,15.8-19.2ZM2894,1188.3c10.2.6,19.8-.7,16.7-14.3-4.5-20.3-17.4-33.9-37.7-39-10.5-2.6-15.4,4.1-15.6,14.1-.3,14.1,22.4,38.3,36.6,39.1ZM2944.2,1255.6c.4-7.8-4.5-11.8-11.7-12.8-8.8-1.2-14.6,2.9-15.2,12.1-.5,8.2,2.7,15.7,12,15.6,8.2,0,13-6.3,14.9-14.9ZM2927.8,1402.4c-.4-8.2-4.9-12.9-12.3-13.3-8.6-.5-14.6,4.9-15.4,13-.8,8.8,5.8,13.9,13.9,14.1,8.8.4,13.1-5.6,13.9-13.8ZM2987.1,1401.9c-.4-5.6-3.5-11-11.1-11.8-7.7-.8-12.3,4-13,11.2-.8,8.2,2.9,15,11.7,15.1,7.2,0,11.2-5.4,12.4-14.5ZM2851.1,1209.1c6.4-.7,10.7-3.8,10.3-10.8-.4-7-4.8-10.1-11.3-9.9-7.4.3-12.9,4.2-11.9,12.1.9,6.5,6.6,8.6,12.9,8.6ZM2827.8,1181.8c4.7-1.2,8.3-3.9,7.7-8.5-.7-5.6-2-12.2-9.3-12.7-4.4-.3-7.9,3.5-7.4,8.1.7,5.6,2.5,11.3,9,13.1Z"/>
  <path class="st8" d="M3288.3,740.3c23.1-25.1,47-49.8,69.3-75.5,30.4-34.9,60.1-70.5,89.5-106.3,56.8-69,114.2-137.5,169.6-207.7,45.9-58.2,101.1-107.5,150.5-162.3,17.9-5.5,28.7-21.9,45.1-29.7,14,0,24.4-9.6,36.8-13.8,17.1-5.9,32.7-18.8,52.8-12.4-80.1,83.8-141.4,179.8-186.3,286.4-21.9,52-44.2,103.9-65.3,156.2-25.2,62.6-54.2,123-92.9,178.5-8.9,8.4-19.1,15.8-26.5,25.4-40.5,52.8-89.2,96.6-143.6,134.4-1.1-4-2.8-7.9-3.1-11.9-2.2-24.6-1.6-49.4-28.4-64.3-8.5-4.8-1.7-14.8,7-19.1,7.6,4.1,15.5,6.8,21.3-2.1,6.4-9.6,1-16.6-6.7-22.4-3.6-20.4-31.6-37.8-65.2-40.4,1.3-21.3-13.8-12.5-23.8-13.1ZM3531,535.3c-.5-8.2-6.8-14-15.8-18.1-10.3-4.6-18.3-.5-24.3,7-18.2,22.9-34.2,47.2-45.8,74.1-3.7,8.6-6.1,18.1,2.3,25.4,7.9,6.9,17,4.7,25.8.9,20.5-8.7,58-65.2,57.8-89.4ZM3472.4,710.6c-.7-8.9-7.5-13.7-16.7-12.3-16.6,2.6-27.9,17.1-44.5,21.5-6.2,1.6-6.1,13.9,1,19.2,22.2,16.4,29.5-23,51-14.3,4.1,1.7,9.5-5.6,9.3-14Z"/>
  <path class="st10" d="M143.3,567.2c7.2,2.1,14.3,4.2,21.6,6.3,2.4,1.8,4.9,3.4,7.3,5.2l-.3-.2c18.3,13.8,38.8,22.8,60.5,29.4,11.4,4.8,22.6,10.2,34.2,14.2,126.6,44.8,256.3,71.8,391.2,58.7,113.2-11,226.1-25.5,339.2-38.5,28.5,0,56.2-5.9,84.2-10.4,95-3.9,182.3-34.2,266.4-76.1,6.6-.7,13.2-1.3,19.8-2,3.1,12.7-15.4,16-13.5,24.3,6.3,27.4-16.2,30.2-30.9,39.6-29.2,18.6-63.7,23.2-95.4,35.2-85.2,32.3-168.3,70.5-257,93.5-28.9,7.5-57.6,15.4-86.2,23.6-5.3,1.5-12.1,4.2-10.9,11.5,1.3,7.7,8.8,5.5,14.1,6.8,10.2,2.4,24.3-7.4,29.7,9.6-113.3-.1-226.5,1.5-339.6-13.3-103-13.5-203-35.5-300.7-70.3-18.6-6.6-33.9-21.8-55.2-20.8h.2c-2-4.4-5.8-5.3-10.1-5.1h.2c-2-1.6-4.1-3.3-6.1-5-31.6-32.9-55.6-70-62.8-116.2Z"/>
  <path class="st12" d="M221.8,693.7c21.3-.9,36.7,14.2,55.2,20.8,97.7,34.8,197.7,56.8,300.6,70.3,113.1,14.9,226.3,13.1,339.6,13.4,67.6-5.5,135.2-9.5,203.1-9.9,5.7,0,11.4-2.1,17.1-2.3,36.7-1.6,73.5-8.7,109.7,3.5-15.8,3.9-21.7,12.2-13.7,28.2,4,8.1,5.8,17.2,8.6,25.8-44.3,18.6-89.3,38.1-137.1,42.4-74.3,6.7-146.1,27.8-220.5,33.8-35.8,2.9-71.2,2.4-106.9,3.7-15-32.1-27-57.4-75.2-57.7-102-.7-202.8-20.2-299.2-56.4-55.5-20.8-108.3-46.9-154.9-84-10.6-8.4-24.4-15.4-26.4-31.4Z"/>
  <path class="st12" d="M890.3,1144.3c24,1.7,39.5,19.8,57.3,32.1,93.4,64.3,197.7,99.5,308.5,115.8,30.6,4.5,62.2,7.9,93.9,6.5,38.4-1.6,66.5-16.2,83.2-51.8,4.2-9,5.2-22,19.2-23.6,31.8,78.1,63.6,156.4,95.4,234.5-46.6-2.8-91.4-15.9-136.9-24.8-71.6-14-142.9-29.8-214.5-43.8-81.9-16.1-149.6-57.7-209.3-114.3-6.6-6.2-13.9-11.6-20.9-17.4-1.1-7.1-6.4-11.3-10.5-16.5-24.2-30.6-47.9-61.5-65.3-96.7Z"/>
  <path class="st3" d="M1247.3,789.4c-36.2-12.2-73.1-5.1-109.7-3.5-5.8.3-11.4,2.3-17.1,2.3-67.9.4-135.5,4.5-203.1,9.9-5.4-16.9-19.6-7.2-29.7-9.5-5.4-1.2-12.9.9-14.1-6.7-1.2-7.3,5.6-10,10.9-11.5,28.7-8.2,57.4-16.1,86.2-23.6,88.6-23,171.8-61.2,257-93.5,31.8-12,66.2-16.6,95.4-35.2,14.6-9.3,37.2-12.1,30.9-39.5-2-8.3,16.5-11.6,13.5-24.3,8.2-3.6,16.5-7.1,24.8-10.7,10-1.8,20.1-3.5,30.1-5.3,26.2,7,44,25.1,60.1,45.5-4.8,28.9-19,53.5-34.7,77.6-6.5,9.9-17.1,18.4-15.4,32.4-12.2-2.5-19,5.1-25.3,13.6-47,39.4-97.5,72-159.6,82.3Z"/>
  <path class="st14" d="M3012.5,1610c53.5-43.9,61.1-103.2,52-165.8-16.8-115.1-73.3-211.8-144.9-300.8-19.2-23.8-38.9-47.2-57.9-71.3-5.3-6.7-11.1-9.4-19.2-8.9h-.1c1.7-16.1-11.4-23.1-20.4-32.2-14.5-14.6-29.9-28.4-44.9-42.5-10-10-23-17-30.1-30h.2c10.2-1.8,17,5,24.5,9.9,40.4,25.8,79.2,53.6,115.4,85.1,10.8,15,27.3,23.6,40.9,35.4,30.4,33.2,60.8,66.5,91.2,99.8,25.8,40.3,53.8,79.2,76.3,121.5,2.6,4.9,6.6,7.2,11.6,8.4,2.1,25.5,18.3,45.7,26.4,69.2,16.1,47.4,20.2,93.4-.2,140.2-2.7,6.2-9.4,14.8-3.8,20.8,6.8,7.2,15.5-.5,22.6-3.2,52.6-20,105.5-39.1,157-61.7,24.5-10.7,49.4-10.9,74.5-14.2-103.5,56.3-207,112.4-324.2,135.8-15.5,3.2-31.1,5.7-46.9,4.6Z"/>
  <path class="st4" d="M3387.2,913.7c54.4-37.8,103.1-81.6,143.6-134.4,7.3-9.6,17.6-17,26.5-25.4-11.8,38.8-38.2,69-60.5,101.6-72.4,105.9-170.8,181.2-283.4,240.5-50.8,26.7-102.4,51.2-153.9,76.2-8.4,4.1-16.8,6.9-26.1,7.3-19.6-35-49.8-60.9-76.2-90.1,9.9-.6,19.8-1.2,29.6-1.8,3.1-1.1,6.1-2.6,9.2-3,146.8-19.3,274.5-82.2,391-170.8Z"/>
  <path class="st14" d="M1722.1,1828.5c11.4,1.1,18.7-4.6,24.5-13.8,63.1-102,91.5-211,77.3-331.9-8.4-71.6-20.7-142.1-36.4-212.3-4.9-21.8-21.9-39.6-19.7-63.4,7.2,3.9,9.5,11.3,12.3,18.1,37.3,88.5,73.8,177.3,87.6,273.4,22.4,181.3-67,319.1-175.5,449.2-9.8,11.8-23.2,20.8-34.8,31,20.9-34,28.6-74.6,55.9-105.6,5.9-6.7,20.8-17.4,6.3-30.8.9-4.6,1.7-9.3,2.6-13.9Z"/>
  <path class="st14" d="M3592.2,298.3c-.1,6.4-3.3,11.1-7.9,15.1-105.1,94-184.5,211.8-287.2,308.1-77.6,72.8-165.8,119.4-273.1,127.2-24.7,1.8-49.1,7.2-73.8,8.9-9.2.6-22.3,7.2-28-8,112.3-4.1,216.4-33.4,307.9-101.3,53.3-39.6,96.5-88.9,136.7-141.2,57.3-74.6,113.9-149.6,178.5-218.2,29.6-31.5,60.8-61.3,96.4-86.1-.3,12.6-7.7,21.2-16.1,29.6-13.5,13.3-27,26.7-40.2,40.3-11.8,12.1-11.9,21.5,6.8,25.6Z"/>
  <path class="st14" d="M890.3,1144.3c17.4,35.2,41.1,66.1,65.4,96.7,4.1,5.2,9.4,9.5,10.5,16.5-13.2,16.8-22.8,36.4-39.1,50.9-24.6-33.9-49.2-67.8-74.1-101.5-7.1-9.6-17.9-14.4-28.2-19.7-33.7-17.4-69.1-31.8-99-55.8,30.5-36.1,60.9-72.1,91.4-108.2,16.5,12.5,19.9,33,29.9,49.6,14.5,23.7,25.9,49.3,43.1,71.5Z"/>
  <path class="st1" d="M147.8,247.6c23.7,19.6,36.1,16.8,50.9-10.9,2.7-5,5.6-10,8.4-14.9,11.6-.1,17.6,8.3,23.8,16,37.9,47.1,34,139.2-8,193.6-22.7,29.4-48.4,29-71.4-.6-17.2-22.2-25.7-48.5-27.6-75-2.7-37.6-1.6-76,23.8-108.1Z"/>
  <path class="st12" d="M1867.6,1498.5c-13.8-96.1-50.3-184.9-87.6-273.4-2.8-6.7-5.1-14.2-12.3-18.1,0-2.7,0-5.5,0-8.3,17.3,1.1,30.4,11.6,44.5,20.1,23,32.1,42.2,66.4,58.8,102.2,30.6,65.9,60.6,132.2,116,182.3-40,2-79.7-1.3-119.5-4.8Z"/>
  <path class="st2" d="M3901.9,132.5c-20-6.4-35.6,6.6-52.8,12.4-12.4,4.2-22.7,13.9-36.8,13.8,4.8-22,5.8-44.4,4.8-66.8C3885.2,50.5,4020.4,2.9,4085.8,0c-72.1,37.5-127,86.4-183.9,132.6Z"/>
  <path class="st9" d="M3817.1,91.9c.8,22.4,0,44.8-4.8,66.8-16.4,7.8-27.2,24.1-45.1,29.7-9.1-9-14.9.6-21.2,4.1-49.9,27.5-96,60.5-138.6,98.3-4.5,4-8.8,7.6-15.1,7.5-18.7-4.2-18.6-13.6-6.7-25.7,13.3-13.5,26.7-26.9,40.2-40.3,8.3-8.2,15.8-16.9,16.1-29.6l-.2.2c14.4,1.1,23.2-5,25.7-19.4h.2c7.3-.3,14.6-.4,14.6-10.7,1.1-3.7,3.7-5,7.3-5,12.8-1.2,25.1-3.1,27.7-19.1l.8-1.2,1.3.4c2.7-1.8,5.2-3.5,7.9-5.2l-.4.2c7.4.2,14.9.8,15.5-9.8h0c10.5-.7,21.6-.5,25-14,14.3-13.5,32.3-20.3,50.1-27.4Z"/>
  <path class="st12" d="M2656.6,1238.6c15.4,33,30.8,66.1,46.1,99.1-26.9,11.8-52.3,26.8-80.7,35.3-5-51.8-10-103.6-15.1-155.4-1.5-15.4-2-31.1-10.8-44.8.5-1.2.8-2.5,1.1-3.9,7.3.4,13.7-2.3,19.9-5.8,3.1.4,6.2.9,9.3,1.4,5.9,20.6,13.3,40.7,23.8,59.7,1.3,5.1,1.3,10.8,6.4,14.4Z"/>
  <path class="st7" d="M147.8,247.6c-25.4,32.1-26.5,70.6-23.8,108.1,1.9,26.5,10.3,52.9,27.6,75.1,23.1,29.7,48.7,30.1,71.4.6,41.9-54.4,45.9-146.4,8-193.6-6.2-7.7-12.1-16.1-23.8-16.1.2-9.4-4.4-16.5-10.6-22.9,23.8.2,36.2,18.1,48.2,33.9,30.5,40.4,41.6,87.6,42.1,137.6-15.8,46.1-51.1,72.3-93.7,89.9-22.7,9.4-48.6-6-63.1-35.1-4.4-8.8-6.4-18.9-15.3-24.9-.8-40.2-7.6-80.6,3.2-120.2,5.7-20.8,9.8-43.3,31.2-56.9,5.6,9.8-5.2,16.5-1.6,24.5Z"/>
  <path class="st14" d="M3687.3,1589c21.7-17,45.8-19,70.8-10,32.9,11.9,60.5,33.8,91.7,48.8,53.6,25.9,95.2,68.2,144.3,100.1,15.6,10.2,30.7,17,37.5-9.1,7.1,13.9,4,26-7.9,35.3-11.7,9.1-24.1,4.9-34.9-2-29.4-18.8-58.6-37.9-87.3-57.6-45.3-30.9-91.2-60.9-138.7-88.2-23.2-13.3-47.2-25-75.5-17.3Z"/>
  <path class="st14" d="M47,1642.9c2.6,14.2-7.9,35.4,7.1,41.2,13.8,5.4,27.1-12.2,37.4-23.1,49.1-51.9,114.8-71.4,179.6-91.9,26.4-8.4,53.2-19.1,82.4-15.8,20.6,2.4,24.6,9.1,13.8,24.9-23.8-2.7-46.4,3.6-68.7,10.1-74.6,21.8-146.9,48.6-205.5,102.7-13.3,12.3-29,15.1-42.9,3.2-17.7-15-14.9-33.4-3.2-51.4Z"/>
  <path class="st14" d="M37.1,1419.3c11.9,26.2,37.6,13,56.3,17.8,20.2,5.2,42.7,1.4,64.2,1.2,34-.4,67,5,99.5,14.9,9.6,2.9,20.8,4.1,23.7,15.1,3.9,14.4-11.5,13.2-18.2,19.1-2.9,2.6-6.8,4.1-10.3,6.1,15.8-17.3-3.2-16.8-10.8-18.2-48.5-9.6-97.4-10.2-146.4-4.2-18.1,2.2-36.1,5.9-54.2,7.8-15.9,1.6-33.4,2.3-39.5-17.1-6.6-20.7,8.8-29.9,24-37.9,3.6-2,7.7-3,11.6-4.4Z"/>
  <path class="st6" d="M287,370.4c-.5-50-11.6-97.1-42.1-137.6-12-15.9-24.5-33.8-48.2-33.9-8.9.1-17.7-1.2-26.6,2.6-4.9,2.2-9.8,12.4-16.2,3.7-3.6-4.8,0-10.9,2.9-16,6.8-12,13.4-24.1,19.9-36.1,3.9,1.5,8.2,5.1,11.4,4.1,41.1-11.7,61.2,18.4,81.6,43.2,21.7,26.5,34.7,58.4,41.2,92.2,5.6,29.8-3.2,55.7-23.9,77.6Z"/>
  <path class="st14" d="M1196.6,2061.5c4.4,29.4,25.8,17.4,39.8,13.7,15.6-4.2,29.9-13.9,44.1-22.6,40.2-24.6,80.8-48.3,126.5-61.7,12.1-3.5,22.5-3.4,31.8,6.5,10.4,11.2,11.6,22.9,3.8,35.9-4-30.8-8.6-34.6-37.9-21.8-63,27.7-123.7,59.9-179.6,100.5-7.4,5.4-14.4,11.2-22.4,15.4-12.1,6.4-24.3,5.6-33.9-5.2-9.3-10.6-6.3-21.8.9-31.9,7.7-10.7,15.9-21.2,27.1-28.8Z"/>
  <path class="st14" d="M3577.3,1688.5c2.5,24.8,20.7,41.7,30.9,62.6,4.1,8.2,9,13.9,19,12.4-3.5,10.1-6.1,20.5-10.7,30.1-5.1,10.6-12.4,20.7-26.2,19.1-14-1.6-21-11.9-25.2-24.3-3.3-9.7-3.3-19.6-1.5-29.4,4.4-23.5,9.1-47,13.7-70.5Z"/>
  <path class="st14" d="M1196.7,1885.8c1,34.8,3.1,38.3,39.5,31.8,39.6-7,79.1-2.6,118.5-4.1,11.5-.5,23.9-.5,27.5,14.7-37.4-8.7-74.5-.5-111.6,2.1-17.4,1.2-34.9,3.3-52.2,2.2-31.4-2-38.7-18.8-21.6-46.8Z"/>
  <path class="st14" d="M156.9,1313.5c33.9,15.5,71.6,17,106.4,29.2,22.9,8,42.4,21.6,63,33.5,11.6,6.6,15.1,16-1.3,22.6-23.6-27.2-57.4-36.5-88.8-49.6-18.2-7.6-37.8-11.8-56.4-18.4-9.2-3.2-18.6-7.2-22.9-17.4Z"/>
  <path class="st12" d="M2957.3,1089.3c26.4,29.2,56.6,55.2,76.2,90.2-3.8,4.6-8.3,8.1-14.2,9.2-30.4-33.2-60.8-66.5-91.2-99.8,9.7.1,19.5.3,29.2.4Z"/>
  <path class="st14" d="M1435.1,2238.9c21.2.5,29.1-13.2,32-31,5.9-36.9,27.3-66.5,44.6-98.1,2.3-4.1,5.7-5.7,9.9-6.3-18.8,37.1-28.4,77.2-38.7,117.2-6.6,26.2-28.3,33.8-47.9,18.3Z"/>
  <path class="st12" d="M1482.1,583.4c-16.1-20.3-33.9-38.4-60.1-45.5,36.6-16.8,45.7-13.3,64.6,24.9.8,7.3,1.5,14.7-4.5,20.6Z"/>
  <path class="st14" d="M1432.2,2088.5c1.8,21-.3,41.3-11.8,59.8,1.2-20.5,5.1-40.4,11.8-59.8Z"/>
  <path class="st14" d="M1418.6,2158.8c5.1,14.9,5.9,29.6-.6,44.3-3.4-14.8-2.2-29.5.6-44.3Z"/>
  <path class="st14" d="M157.3,1279c-.1,11.5-.2,23.1-.2,34.7-9.3-11.6-13-23.2.2-34.7Z"/>
  <path class="st14" d="M3667.3,183.6c-2.5,14.5-11.3,20.6-25.6,19.4,7-8.5,15.6-14.8,25.6-19.4Z"/>
  <path class="st14" d="M3717.1,148.9c-2.7,15.9-14.9,17.9-27.7,19,8-8.3,17.3-14.5,27.7-19Z"/>
  <path class="st14" d="M4022.6,1703.2c-12.9-1.5-19.8-8.5-19.9-21.8,8.5,5.6,15.6,12.5,19.9,21.8Z"/>
  <path class="st14" d="M3383.2,1470.5c1.8-8.7,6.3-17.7,15.7-13.8,6.4,2.6,1.3,9.8-3.9,13.4-3.9.1-7.9.3-11.8.5Z"/>
  <path class="st14" d="M3767.1,119.3c-3.4,13.4-14.5,13.3-25,14,7.3-6.5,15.1-12.2,25-14Z"/>
  <path class="st14" d="M3742.1,133.3c-.5,10.6-8.1,10.1-15.5,9.8,3.9-5.2,9.3-8.1,15.5-9.8Z"/>
  <path class="st14" d="M3682,173c0,10.2-7.3,10.4-14.6,10.6,4.9-3.6,9.7-7.1,14.6-10.6Z"/>
  <path class="st14" d="M1232,1859.5c-1.2,10.1-8.9,8.6-15.6,8.7,3.9-5.3,9.4-7.5,15.6-8.7Z"/>
  <path class="st12" d="M211.9,688.6c4.3-.1,8.2.7,10.2,5.1-4.6.7-8.1-.9-10.2-5.1Z"/>
  <path class="st14" d="M1426.2,2228.6c3.9,1.2,5.3,4.2,5.8,7.9-3.6-1.4-5.4-4-5.8-7.9Z"/>
  <path class="st14" d="M1211.7,1870.9c-.6,5.2-4.3,7-8.9,7.7,3-2.6,5.9-5.1,8.9-7.7Z"/>
  <path class="st14" d="M242,1499c-2.1,1.3-4.3,2.6-6.4,3.9,2.1-1.3,4.3-2.6,6.4-3.9Z"/>
  <path class="st14" d="M3727.1,142.8c-2.7,1.8-5.2,3.5-7.9,5.2,2.6-1.8,5.3-3.5,7.9-5.2Z"/>
  <path class="st14" d="M1637.4,1994.4c2.6-1.9,5.1-3.8,7.6-5.8-2.6,1.9-5.1,3.8-7.6,5.8Z"/>
  <path class="st14" d="M366.8,1585.7c-1.7,2.5-3.3,5.1-4.9,7.6,1.6-2.5,3.3-5.1,4.9-7.6Z"/>
  <path class="st14" d="M1441.5,2054.9c-1.2,2.7-2.4,5.4-3.6,8.1-.3-3.3-.2-6.5,3.6-8.1Z"/>
  <path class="st7" d="M114.8,431l-.4-.2s.4.2.4.2Z"/>
  <path class="st14" d="M1522.4,2101.2c1.7-2.6,3.4-5.2,5.1-7.8-1.7,2.6-3.4,5.2-5.1,7.8Z"/>
  <path class="st12" d="M206,683.5c2,1.7,4.1,3.4,6.1,5.1-2-1.7-4.1-3.4-6.1-5.1Z"/>
  <path class="st14" d="M3672.4,1604.3c1.4-2,3-4,4.4-6-1.5,2-2.9,4-4.4,6Z"/>
  <path class="st7" d="M1266.9,256.2c27.8,41.3,48.5,84.7,44.2,136.6-3.4,40.6-12.4,79.5-38.7,111.5-45.1,54.9-114.3,66.7-180.4,32.1-43.8-22.9-83.2-51.9-118.2-86.9,4-41.8,16.6-80,36.6-117.6,42.9-81.1,165.3-141.4,256.6-75.7ZM1098.1,308c-24.1,42-39,85.9-31.3,135.3,7.6,48.4,40.2,86.5,81.1,93.5,38.7,6.6,81.3-19.1,102.9-63.6,20.2-41.5,22.7-84.7,7.6-128.3-15.1-43.5-44.9-64.9-91.5-67.2-1.6-28.5-13.1-36.2-39.3-25.6-25.1,10.2-31.9,30.8-29.6,55.9Z"/>
  <path class="st6" d="M1266.9,256.2c-91.2-65.8-213.6-5.4-256.5,75.7-19.9,37.7-32.5,75.9-36.6,117.7-34.3-27.8-42.4-68.7-23.3-117.4,40.1-102.2,136.9-156.8,235.6-158.2,14.7-.2,29.9,2.6,44.1,6.7,32.6,9.4,38.3,22.1,36.8,75.7Z"/>
  <path class="st14" d="M996.9,642.5c-113,13-225.9,27.5-339.2,38.5-134.9,13.1-264.6-14-391.2-58.7-11.6-4.1-22.8-9.5-34.2-14.2v-7.6c79.8,18.6,159.3,37.7,241.6,44.4,69,5.7,137.9,4.4,206.8,3.7,105.4-1.1,210.8-7.4,316-14.5.1,2.9.1,5.7.1,8.6Z"/>
  <path class="st13" d="M600.4,554.1c2.7-20.6,24.4-37.7,45.5-34.6,12.1,1.8,20.2,7.8,19.4,21.1-.6,10.6-41.8,38.3-52.9,35.4-10.1-2.7-14.8-9.8-12-21.9Z"/>
  <path class="st13" d="M321.6,537.2c.4,8.4-3.5,11.9-12,11.5-16-.8-37.3-20.7-36.8-35,.3-10,5.4-15.2,15.6-14.9,14.1.4,33.9,23.4,33.2,38.4Z"/>
  <path class="st8" d="M565.5,192.7c-16.1,19.1-29.9,15.8-42.6,15.2-11.6-.6-20.5-5.1-18.2-20.2,2.2-15.2,12.4-20.4,25.3-22.4,5.2-.8,7.6,3.7,6.1,8-9,24.3,3,27.9,29.4,19.4Z"/>
  <path class="st10" d="M1425.4,423.2c-3.5,10.7-9.9,19.6-22.4,18.6-9.9-.7-20.6-4.8-20.4-17.5.2-14.1,9.7-20.2,23.1-20.3,12.3,0,17.1,8.2,19.8,19.2Z"/>
  <path class="st13" d="M525.3,532.8c-2.2,11.1-5.8,21.1-19.8,20.8-11.4-.2-16.4-7.2-15.4-17.8,1.2-12.5,9.9-19.1,21.6-19.8,10.7-.6,13.3,7.5,13.6,16.8Z"/>
  <path class="st8" d="M416.6,327.4c-4,11.5-12.2,16.9-24.4,15.8-11.3-1-19.6-7.4-19.3-18.5.4-17.8,15.3-10.1,24.6-11.1,9.5-1.1,18.4.9,19.2,13.8Z"/>
  <path class="st10" d="M629.9,167.9c-1.3,10.8-7.4,17.5-17.5,18-8.3.3-17.4-2.8-18.7-12.7-1.3-10.6,5.6-17.3,15.7-18.8,10.2-1.5,17.3,3.6,20.5,13.5Z"/>
  <path class="st8" d="M717.7,248.3c-4.9,0-9.9.2-14.9,0-7.1-.3-10.6-4.2-10.1-11.2.5-6.1,4.9-8.8,10.3-8.2,12.2,1.4,24.5,3.2,36.6,5.4,1.8.3,5,3.3,4.7,4.3-.8,2.8-2.6,7-4.7,7.5-7.1,1.8-14.6,2.2-21.9,3.3,0-.4,0-.7-.1-1Z"/>
  <path class="st8" d="M1392,543.3c-8.2,3.6-16.5,7.2-24.8,10.8-6.6.6-13.2,1.3-19.8,1.9,9.1-31,21.4-34.5,44.6-12.7Z"/>
  <path class="st10" d="M1398.1,348.9c-8.2-.4-15.6-3.2-15.1-12.5.5-10.2,8.4-13.2,17.6-13.1,8.5,0,15.2,3.8,15,12.7-.3,10.4-8.4,13.1-17.5,12.9Z"/>
  <path class="st6" d="M996.9,642.5c0-2.8,0-5.7,0-8.6,28.1-1.4,56-11.9,84.3-1.8-28,4.5-55.7,10.3-84.2,10.4Z"/>
  <path class="st6" d="M232.3,600.3v7.6c-21.7-6.6-42.2-15.6-60.5-29.4,22.6.5,42.4,8.7,60.5,21.8Z"/>
  <path class="st10" d="M850.1,328c7.9.5,15.6,2.4,16.4,11.6.8,9.4-5.9,13.1-14.3,13.1-8.6,0-14-4.9-14.9-13.5-.8-9,5.2-11,12.7-11.1Z"/>
  <path class="st10" d="M875.1,149.6c7.4,1.8,14.3,5,14.2,13.8-.1,6.8-6,9.2-12.1,9.6-7.3.3-13.2-2.5-13.9-10.4-.7-7.8,4.2-11.8,11.8-13Z"/>
  <path class="st8" d="M728,184.9c16.4-8.7,26.1-7.4,38.6-3.4-11.2,10.7-21.4,6.8-38.6,3.4Z"/>
  <path class="st6" d="M172.2,578.7c-2.4-1.7-4.9-3.4-7.3-5.2,2.4,1.8,4.8,3.5,7.3,5.2Z"/>
  <path class="st6" d="M2597.3,1168.9c-.2,1.4-.5,2.6-1.1,3.9-70.9,23.4-140,51.8-212.2,71.8-190.2,52.5-377.4,47.5-562.2-23.6-3-1.1-6.4-1.5-9.6-2.1-14.1-8.5-27.1-19-44.5-20.1-21.7-25.1-35.7-55.3-57.1-81.1-38.2-46.1-84.4-77.3-143.1-87.7-29.9-5.3-59.6-1.1-84.9,18.7-35.7-14.8-73.4-24.3-107-44.3-45.2-26.8-76.1-68-109.5-106.8-5.8-14.7-11.5-29.4-17.3-44.1,1.6,0,3.5-.4,4.9.2,64.1,26.4,131.9,29.7,199.9,30.6-1.2,10,1.4,18.4,12.8,18.7,11.1.2,17.8-6.1,17.9-17.9,27.3,1.2,54.6,2.4,82,3.6,0,17.2,11.4,26,25.8,27.9,18.1,2.5,33.8-4,41.5-22.8,31.5-.1,62.9-.4,94.3-.5,9.1,4.4,18.3,6,27.4-.2,42.7,3.9,85.5,8.3,128.3,4.9,32.2-2.5,65.3-3.7,94-22.1,2.2-1,4.3-2.1,6.5-3.2,43.4-9.2,86.7-19.5,130.4-27.4,91.5-16.5,182-38.4,274.9-47,28.7-2.6,57.2-6.5,85.8-9.9,14.6,6.4,28.8,10,40.9-4.8,4,0,7.9-.2,11.9-.3,10.6,2.7,21,7.1,32.1,2.2,5.5,10.8,17.6,10.7,26.1,11.3,59.2,4.3,115.9,23.5,174.9,29,5.6.5,9.6.4,12.3-4.8,4.5.5,8.9,1.1,13.3,1.7,6.4,18.5,22.5,18,38.1,21.1,48.6,9.5,97,0,145.5-.2,42.2-.1,83.9-4.6,124.8-15,31.1-7.9,61.8-16.9,92.7-25.4,6.5,22.1,23.9,26.1,43,23.5,16.7-2.2,33.1-7.8,30.5-30.7,17.3-7.6,8.6-26.7,17-38.3,12.4,8.5,22.9,1.4,33.5-4.2,33.6,2.6,61.6,20,65.2,40.4-21-1.4-15.2,13.1-14.5,24.5-8.6,4.3-15.5,14.3-7,19,26.8,14.9,26.2,39.7,28.4,64.3.4,4,2,8,3.1,11.9-116.5,88.6-244.2,151.5-391,170.8-3.1.4-6.2,2-9.2,3-1.7-2.6-3.9-7.6-5.1-7.4-30.5,5.1-48.8-16.3-67.8-33.1-15.2-13.5-20.3-4.7-27,6.6-36.1-31.5-75.1-59.3-115.3-85.1-7.6-4.8-14.4-11.7-24.5-10-.8-.7-1.5-1.4-2.3-2.1.7.7,1.4,1.5,2.1,2.2,7,13,20.1,19.9,30.1,29.9-9.5,36.1-5.5,43.9,27,53.8-12.2,19.4-20.1,45.6-8.9,61.4,15.7,22.2,2.6,29.2-8.6,40.8-17.2-11.6-27.6-9-28.4,13.6-17.8,14.3-32.1,8-45.8-6.8-26.4-28.8-60.6-26.7-95.1-22.8-12.3-34.5-16.3-71.6-31.7-107.6-11.2,30.8-8.7,57.8-.3,85.4,6.1,20.4,8.2,41.9,12.1,62.8ZM2228,929.1c-1.7,7.5-3.4,15.7,6.6,18.2,12.3,3.1,20.7-2.3,24.5-14.6,18.1-1.4,40-.5,42.3-24.4,2.3-24-19.7-30.7-37.1-32.1-25.3-2-51.2.4-76.5,4-16.4,2.3-19.5,17.8-7,29.5,13,12.2,28.8,19.4,47.2,19.3ZM1907.9,1004.6c.4,18.7-3.5,39.4,18,50.1,21.8,10.9,62.1,1.8,78.6-16.2,6.2-6.8,8.4-13.6,5.9-22.6-7-25.8-28.2-40.1-54.4-35.6-13.8,2.4-27.4,5.7-41.2,8.6-4.9-11.4-13.7-13-24-8.9-5.6,2.2-9.6,7.1-7.4,13.5,4.1,12,15.1,10.2,24.5,11.2ZM2981.8,899.9c.1,21.3,22.3,44.2,42.1,43.3,22.1-1,46.1-26.9,47-50.8.6-15.9-20.2-37.9-36.4-38.5-25.2-.9-52.8,23.1-52.7,46ZM2404.4,1132.6c14.7-3.8,33-8.7,51.3-13.4,9.5-2.4,18-6,15.6-18-2.1-10.9-9.8-19.2-20.7-17.1-21.6,4-42.2,12.2-60.9,24.1-5.5,3.6-9.7,9.9-6.2,17.1,3.3,6.9,10.1,7.9,20.8,7.3ZM2202.2,1192.9c-11.8,5-28.8,6.1-28.3,24.8.3,11.9,9.6,20.6,22,18.8,16.1-2.2,28.4-13.3,29.8-29.2,1.1-12.7-12.9-11.9-23.4-14.4ZM2079.4,1261.9c14.5-.2,38.1-12.9,36.1-19.6-3.8-12.9-14.8-19.5-28-18.2-13.7,1.3-27.7,7-28.7,22.3-.7,11.3,12,13.7,20.6,15.5ZM3332.2,919c-2.8-3.9,2.3-11.9-7-13.1-9-1.2-34.5,24.1-35.3,35.5-.7,9.2,6.2,12.3,12.9,10.8,16.8-3.8,27-14.8,29.4-33.2ZM2491,893c-8.6.2-16.8,3.1-17.1,13.1-.3,10.6,7.4,16.1,17.5,16.4,9.3.3,15.9-4.6,15.9-14.6,0-10.1-6.6-14.1-16.3-14.9ZM2537.1,854.5c-9,1.5-17.1,5.2-16.6,15.1.5,9.6,8.5,13.9,17.7,13.4,9.1-.5,16.8-5.4,16.7-14.8-.2-10.1-9.6-12-17.8-13.6ZM2115.9,1013.5c.5-8.5-5.6-11.6-12.1-12.9-8.5-1.8-14.8,1.9-16,10.9-1.2,8.6,3.2,14.9,12.1,15.1,8.1.2,13.6-4.9,16-13.1ZM2276.5,1106.2c-1.5-9.1-7.6-12.5-16-11.9-8,.6-15.5,4.6-15.7,13.1-.2,9.5,7.7,11.8,15.9,11.6,8.3-.3,14.5-3.4,15.8-12.8ZM3046.3,1002c-1.7-8.1-7.7-11-14.5-10.9-7.9.2-14.9,3.6-14.8,13.1.2,9.2,6.4,13.6,14.8,12.5,7.9-1.1,12.8-6.8,14.5-14.7ZM2071.3,1102.2c-.7-9-6.3-12.9-14.6-13.1-7.6-.2-12.6,4.6-13.3,11.6-.8,8.5,4.8,14.2,12.9,14.7,8.6.7,12.8-5.6,15-13.3ZM1853.7,1142.9c-7.6.4-15.9,1-15.5,11.1.2,7.7,6.6,11,13.7,11.2,7.4.2,12.6-4.5,14-11.4,1.9-9.3-5.4-10.3-12.3-11ZM1917.2,1152.2c.3-7.4-3.8-11.4-10.1-12.2-8.7-1.2-14.7,3.6-16.6,11.6-1.6,6.9,3.3,10.9,9.8,11.6,8.4.9,14.3-2.9,16.8-11ZM3109.1,914.6c-7.3,1-13.3,4.8-14.1,12-.9,8.7,6,11.2,13.3,10.6,7.3-.6,13-4.7,12.9-12.5,0-7.1-5.8-9.3-12.1-10ZM2919.9,903.5c-1.1-7-5.4-10.5-12-10.1-8.3.5-14.7,4.5-14.5,13.5.2,6.6,5.5,10.5,11.8,10.4,8.6-.2,13.1-5.8,14.7-13.9ZM1992.6,1150.4c-.6-7.6-4.8-11.8-12.6-11.7-6.4.1-11,3.7-11.8,10.2-.9,7.9,4,12.5,11.2,13.2,7.5.7,12-3.9,13.1-11.6ZM3166,956c7-1,11.4-5.1,11.3-12.9-.1-7.2-4.9-10.1-11.4-10.2-7.4-.1-13.2,3.1-13.6,11.1-.5,8.6,6.4,10.3,13.7,12ZM2722.7,940c-.8,1.1-1.6,1.9-2,3-.2.4,1.1,1.7,1.4,1.6,1.1-.2,2.2-.9,3.3-1.4-.9-1.1-1.8-2.1-2.8-3.2Z"/>
  <path class="st14" d="M1247.3,789.4c62.1-10.3,112.5-42.9,159.5-82.4-11.6,36.8-43,56.8-69.3,80.9-26.9,24.6-62.2,36.4-92.1,56.8-1.2-.2-2.3-.6-3.4-1.2-2.8-8.6-4.5-17.8-8.5-25.8-8-16.1-2-24.2,13.7-28.2Z"/>
  <path class="st13" d="M1555,784.3c8.6,0,14-1.6,18.3-11.8,8.2-19.5,25.7-20.8,43.5-13.4,18.8,7.9,29.9,30.3,21.3,46.3-8.4,15.7-17.4,33.6-41.5,23.6-13.6-5.7-27.4-10.8-41.2-16.3,5.7-9.6,4.6-19.1-.5-28.4Z"/>
  <path class="st13" d="M1819.2,746c-7.7-5.4-9.5-12.7-2.1-18.5,15-11.8,31.1-26,51.6-16.7,19.6,8.8,28.2,29.2,30.6,48.7,1.8,13.8-11.8,23.6-25.4,27.2-16.9,4.5-33.4,4.2-42.8-14.8,19.7-19.5,2.5-22.1-11.9-25.9Z"/>
  <path class="st13" d="M3261.5,795.9c2.7,22.8-13.8,28.4-30.5,30.7-19.1,2.5-36.5-1.4-43-23.5,12.1-20.3,32.1-22.7,52.9-23.6,6.9,5.5,13.7,11,20.6,16.5Z"/>
  <path class="st13" d="M1633.6,893.7c-7.6,18.9-23.4,25.3-41.5,22.8-14.3-1.9-25.8-10.8-25.8-27.9,9.9-18.7,26.2-22.8,45.6-20.2,14.8,2,20.2,12.1,21.6,25.4Z"/>
  <path class="st8" d="M3261.5,795.9c-6.9-5.5-13.7-11-20.5-16.5,4.1-16.4,17.9-21.2,31.5-26.1,2,1.4,4,2.9,6,4.2-8.4,11.7.3,30.8-17,38.4Z"/>
  <path class="st12" d="M2560.3,785.4c-11.1,4.8-21.6.5-32.1-2.2,4.3-18.4,18.7-22.5,33.1-17.7,11.4,3.8,3.7,13.3-.9,20Z"/>
  <path class="st12" d="M1984.3,872.7c-2.2,1.1-4.3,2.1-6.5,3.2-9.9,0-21.2.7-23-12.3-1.1-7.7,6.5-11,13.3-11.7,15.8-1.6,15.9,9.8,16.3,20.8Z"/>
  <path class="st12" d="M3278.5,757.6c-2-1.4-4-2.8-6-4.2-.8-11.6,9.4-10,15.8-13,10,.6,25.1-8.2,23.8,13.1-10.6,5.6-21.1,12.7-33.5,4.2Z"/>
  <path class="st12" d="M1755.4,893c-9.1,6.2-18.2,4.7-27.4.2-3.9-13.3,1.2-22,14.9-21.4,12.3.5,16.2,9.4,12.5,21.2Z"/>
  <path class="st12" d="M1484.4,885c0,11.8-6.8,18.2-17.8,17.9-11.4-.3-14-8.7-12.8-18.7,10.3-4.4,20.6-9.5,30.6.7Z"/>
  <path class="st12" d="M2516.3,783.5c-12.1,14.8-26.3,11.2-40.9,4.9,12.2-14,24.8-24.9,40.9-4.9Z"/>
  <path class="st12" d="M2189.9,776.9c-1.7,9.6-6.2,15.7-15,14.9-7.5-.6-15.5-3.8-16.8-12.3-1.5-10.5,7-11.8,14.7-12.2,8-.4,14.5,2.1,17.1,9.6Z"/>
  <path class="st12" d="M1424.6,814c-1.2,7.5-5.4,12.3-12.8,12.1-6.7-.2-13.6-3-13.8-10.8-.2-8.5,5.9-13.4,14-13.4,7.4-.1,11.4,5,12.5,12.1Z"/>
  <path class="st10" d="M1819.2,746c14.5,3.8,31.6,6.4,12,25.9-13.9-4.1-20.9-11.4-12-25.9Z"/>
  <path class="st12" d="M1555,784.3c5.1,9.4,6.2,18.9.4,28.4-8.9-2-22.1,0-22.1-13.1-.1-12.2,13-12,21.7-15.3Z"/>
  <path class="st12" d="M2786.8,822.7c-4.5-.5-8.9-1.1-13.3-1.7-6.7-4.9-10.5-10.8-3.4-17.9,5.1-5,11.6-6.2,17.5-1.3,8.8,7,4.6,14.1-.8,20.9Z"/>
  <path class="st5" d="M1266.2,897.5c33.3,38.7,64.2,79.9,109.4,106.8,33.7,20,71.4,29.6,107.1,44.3-4,3.1-7.9,6.1-11.9,9.2-78.5-1.8-144.8-34.1-200.3-86.9-19.6-18.6-7.5-48.4-4.3-73.3Z"/>
  <path class="st13" d="M1651.9,1240c-6.2,8.6-.2,27.9-10,29.2-13.4,1.8-12.6-15.7-15.5-26.4-.2-.8-.4-1.6-.7-2.3-3.4-9.5-5.9-19.2,1.2-28.1,2.8-3.5,7.9-4.8,11.1-1.9,8.2,7.4,11.8,17.6,13.8,29.6Z"/>
  <path class="st14" d="M1674.2,1386c-10.2-5.9-16.2-14.9-16.1-26,.1-8.7,7.4-17,15.9-15.5,11.6,2.1,14.1,15.4,15.9,24.6,1.4,7.2-7.8,13.3-15.7,16.9Z"/>
  <path class="st12" d="M1613.5,1821c11.8-3.8,19.3-1.5,20.1,12.9.5,9.6-1.7,18-12.3,17.5-12.2-.5-20.2-7.3-16.8-21.5,3-2.9,6-5.9,9-8.8Z"/>
  <path class="st12" d="M1579.4,1163.9c-9.4-.9-15.6-6.4-14.8-15.9.8-9,7.4-14.6,16.9-14.9,9.5-.2,13.1,6.6,13.1,14.6,0,9.3-4.9,15.4-15.2,16.1Z"/>
  <path class="st12" d="M1647.4,1908.8c0,9.8-3.5,16.3-12.2,17.4-8.2.9-15.4-3.1-15.9-11.9-.5-9.3,5.1-15.6,15.1-15.8,7.7-.2,12.5,3.4,12.9,10.3Z"/>
  <path class="st12" d="M1569.9,1102.7c-7.6-1.8-14.1-5.2-14.5-13.9-.3-9.3,6.8-13.1,14.4-13.2,7.9-.1,14.4,4.4,14.2,13.3-.2,8.4-5.7,13-14.1,13.8Z"/>
  <path class="st12" d="M1629.9,1096.9c-7.4-.9-13.2-3.7-13-12.1.2-8.4,3.7-15,13.2-14.4,7,.4,13.1,4.4,13.6,12.1.5,9.1-5.6,13.1-13.7,14.4Z"/>
  <path class="st12" d="M1746.1,1534.8c-1.2,7.9-5.2,12.9-12.8,13.2-8.9.4-14.3-4.6-13.7-13.4.5-7.4,5.9-11.4,13.6-11.5,8.1,0,11.4,5.2,13,11.6Z"/>
  <path class="st12" d="M1732.8,1758c-.7,9.1-6.1,13.8-14.3,14.6-8.2.8-12.1-4.5-12-12.3,0-7.7,3.8-12.7,12.1-12.6,7.1,0,13.1,2,14.2,10.3Z"/>
  <path class="st12" d="M1722.5,1264.1c-.4,8.9-3.8,14.2-11.3,15.2-8,1.1-12.6-3.2-12.6-11.2,0-7.1,2.5-13.4,10.5-14.2,7.9-.8,11.5,4.8,13.4,10.2Z"/>
  <path class="st12" d="M1786.4,1534.9c.4-7.6,4-12.1,12.1-12,7.3.1,13,2.9,12.7,11.2-.3,7.4-4.9,12.4-12.3,12.8-7.4.3-11.9-4.3-12.5-12Z"/>
  <path class="st12" d="M1722.1,1828.5c-.9,4.6-1.8,9.2-2.6,13.8-7.6.3-17.1,5.3-20.2-6.1-1-3.6,2-9.7,5-12.7,7.9-7.8,12.6.4,17.8,5Z"/>
  <path class="st12" d="M1660.8,1783.7c6.7.1,11.1,3.1,11.4,10.1.4,7.9-3.6,12.9-11.4,12.9-6.1,0-11.5-3.5-11.9-10.2-.4-7.8,4.2-12,11.9-12.8Z"/>
  <path class="st12" d="M1738.3,1356.2c6.2.9,11.6,3.6,11.8,10.2.2,7.8-4.7,11.9-12.6,11.7-7-.1-10.6-4.1-10.2-11,.4-6.6,4.4-10.2,11-11Z"/>
  <path class="st12" d="M1602,1823.8c-8.2.7-17.4,2.3-18-9.6-.4-6.1,4.1-10.7,10.5-11.2,11.1-.9,13.8,5.9,13.2,15.4-1.9,1.8-3.8,3.6-5.7,5.5Z"/>
  <path class="st5" d="M1602,1823.8c1.9-1.9,3.8-3.7,5.6-5.5,2,.9,3.9,1.8,5.8,2.6-3,2.9-6,5.9-9,8.8-.8-2-1.6-4-2.5-6Z"/>
  <path class="st12" d="M3421.8,1346.6c9.1.7,13.9,6.3,13.6,14.4-.2,8.8-5.2,15.9-14.8,16.2-8.9.3-13-5.7-13-14.2,0-9.6,5.1-15,14.2-16.4Z"/>
  <path class="st12" d="M3593.9,1512.1c-8.3-2.3-12.5-7.9-11.6-16.5.8-7.6,5.2-12.7,13.1-11.8,9,1.1,12.4,7.8,11.7,16.2-.7,7.6-5.2,12-13.3,12.1Z"/>
  <path class="st12" d="M3370.9,1307.1c-1.5,8.2-7,12.8-14.9,13.7-6.3.7-12-2.2-12-9.1s6.2-13,14.5-13.5c6.2-.4,11.3,1.7,12.5,9Z"/>
  <path class="st12" d="M3678.3,1519.3c-.9,8.2-5.5,13.7-14,13.8-9,0-12.9-5.8-12.3-14.5.6-9.2,7.1-12.6,15-12.6,8,0,10.9,5.8,11.2,13.3Z"/>
  <path class="st12" d="M3605.6,1438.1c-1.1,7.6-6.1,11.6-12.9,12.5-7.6.9-12.8-3.7-12.9-11.1-.2-8.2,4.7-14.5,13.3-14.1,7,.2,11.1,5.8,12.5,12.8Z"/>
  <path class="st12" d="M3435.1,1290.2c-.7,7.1-4,11.8-10.8,11.8-7.4,0-12.9-3.8-12.7-12,.2-6.3,3.8-10.9,10.7-11.4,8.5-.6,11.1,5.3,12.7,11.6Z"/>
  <path class="st14" d="M3417,1448.2c3.3-6,7.2-10.9,15.6-8.5-.2,11.7-9.5,7.4-15.4,8.8l-.2-.2Z"/>
  <path class="st14" d="M3417.2,1448.5c-1.8,1.2-3.6,2.4-5.4,3.7-.5-.7-.8-1.2-1.3-1.9,2.1-.7,4.4-1.3,6.5-2,0,0,.2.2.2.2Z"/>
  <path class="st14" d="M731.3,1358.5c-10,7.1-16.3,19.8-31.4,19.8-7.8,0-17.9-1.8-15.6-10.8,3.5-13.8,17.6-19,29.8-23,7.5-2.4,13,5.1,17.2,14Z"/>
  <path class="st13" d="M750.4,1280.1c-8.1,4.7-10.4,13.1-7.9,23-10.1,1.2-17.8-2.6-23-11.3-3.5-6-1.6-11.1,2.7-15.7,5.5-5.9,12.2-8.6,20.1-6.4,4,1.1,7.5,3.5,8.1,10.4Z"/>
  <path class="st13" d="M638.9,1318.7c4.9.4,9.6-.9,11,4.7,1.4,5.4-21.6,23.8-29.2,23.8-5.1,0-8.1-3-7.8-7.4,1.2-16.7,17-15.2,26-21.1Z"/>
  <path class="st12" d="M662.3,1252.2c9.2.2,13.7,5.8,13.2,14.3-.4,8.9-6.4,12.9-15.1,12.5-9-.4-13.8-4.9-13.2-14.1.5-9.4,6.6-12.5,15.1-12.8Z"/>
  <path class="st12" d="M491.4,1358.6c-7.9-.8-12.4-5.5-11.8-13.2.5-7.7,5.8-12.1,13.6-11.3,7.4.7,12.9,4.9,12.1,12.9-.8,7.6-6.1,11.3-13.8,11.6Z"/>
  <path class="st12" d="M490.1,1449.8c8.6,1.7,12.8,6.2,11.9,14-.8,7.4-5.2,12.9-12.6,13-7.2,0-12.4-4.7-12.4-12.6,0-9.3,6.2-12.6,13.1-14.4Z"/>
  <path class="st12" d="M361.5,1473.7c-7.6-.9-12.4-4.9-11.3-12.7,1-6.9,4.7-12.5,12.8-12.1,7.6.4,12.6,4.6,11.5,12.4-.9,6.8-5.1,12-13,12.4Z"/>
  <path class="st12" d="M609.7,1274.6c6.9,1,11.5,4.2,11.3,11-.4,8.7-5.8,13.1-14.4,13.1-7.6,0-13.4-3.5-12.4-11.5,1.1-8.3,8.1-11.4,15.5-12.6Z"/>
  <path class="st12" d="M420.5,1497.6c7.8.5,12.3,4.4,11.6,12.4-.6,7.5-5.2,12.4-12.6,12.5-8.8.1-13.6-5.1-12.7-14.1.7-8,6.3-10.7,13.6-10.8Z"/>
  <path class="st12" d="M334.1,1503.2c-6.7.2-11.6-2.3-12.3-9.4-.9-8,3.6-12.8,11-14,7.6-1.2,13.6,2.1,13.8,10.3.2,7.8-5.2,11.8-12.5,13.1Z"/>
  <path class="st14" d="M674.1,1326.6c-7-.7-7.1-5.9-6.6-10.9.8-6.2,4.1-10.9,10.9-11.4,6.5-.5,8.4,3.9,8.4,9.4,0,8.5-6.4,10.6-12.7,12.9Z"/>
  <path class="st12" d="M443.1,1363.7c-6.8,0-10.6-3.3-11.4-9.9-.8-7.1,3.2-10.5,9.7-11.2,6.8-.7,10.9,2.6,11.2,9.5.4,6.7-2.6,10.8-9.5,11.6Z"/>
  <path class="st15" d="M2597.3,1168.9c-3.9-20.9-6-42.4-12.1-62.7-8.4-27.6-10.8-54.6.3-85.4,15.5,36,19.5,73.1,31.7,107.6.1,5.5-.9,11.4,4.9,15.1.8,7.2-1.2,13.6-5,19.7-6.1,3.5-12.6,6.2-19.8,5.8Z"/>
  <path class="st13" d="M2877.2,1297.1c1.1,10.8-3.3,18.7-15.8,19.2-11.4.5-42.9-31-41.9-42,1-10.7,8.7-15.4,18.9-15.3,19.2.1,39,19.4,38.8,38.1Z"/>
  <path class="st13" d="M2894,1188.3c-14.2-.9-36.9-25-36.6-39.2.2-10,5.2-16.7,15.6-14.1,20.2,5.1,33.2,18.6,37.7,39,3.1,13.6-6.5,14.9-16.7,14.3Z"/>
  <path class="st10" d="M2944.2,1255.6c-2,8.5-6.7,14.9-14.9,14.9-9.2.1-12.3-7.4-12-15.6.5-9.2,6.4-13.3,15.2-12.1,7.3,1,12.1,5,11.7,12.8Z"/>
  <path class="st12" d="M2758.2,1158.1c.8-22.6,11.2-25.1,28.4-13.6,1.2,11.1-3.3,18.5-13.9,22.5-8.9,3.4-10.4-4.6-14.5-8.9Z"/>
  <path class="st12" d="M2927.8,1402.4c-.8,8.2-5,14.2-13.9,13.8-8.2-.4-14.7-5.4-13.9-14.1.8-8.1,6.7-13.5,15.4-13,7.4.5,11.9,5,12.3,13.3Z"/>
  <path class="st12" d="M2987.1,1401.9c-1.1,9-5.2,14.6-12.4,14.5-8.9,0-12.6-6.8-11.7-15.1.8-7.3,5.3-12,13-11.2,7.6.8,10.7,6.3,11.1,11.9Z"/>
  <path class="st12" d="M2851.1,1209c-6.2,0-12-2-12.9-8.5-1-7.9,4.5-11.8,11.9-12.1,6.5-.3,11,2.9,11.3,9.9.3,7-3.9,10.1-10.3,10.7Z"/>
  <path class="st6" d="M2827.8,1181.8c-6.5-1.8-8.3-7.4-8.9-13.1-.5-4.6,3-8.4,7.4-8.1,7.3.5,8.6,7.1,9.3,12.6.6,4.6-3,7.3-7.7,8.6Z"/>
  <path class="st6" d="M2617.1,1163.1c3.7-6,5.8-12.5,5-19.7,6.7,1.2,16.6-3.5,18.6,6.7,2,9.8-12,6.9-14.4,14.3-3.1-.5-6.2-.9-9.3-1.4Z"/>
  <path class="st6" d="M2656.6,1238.6c-5.1-3.5-5.1-9.3-6.4-14.5,12.1.4,15.8,4.5,6.4,14.5Z"/>
  <path class="st6" d="M2842.5,1063.2c-.9,3.6-.8,8.1-6.3,7.8-.6,0-1.5-1-1.6-1.6-.3-5.5,4.2-5.3,7.8-6.3,0,0,.1,0,.1,0Z"/>
  <path class="st13" d="M3531,535.3c.2,24.2-37.3,80.6-57.8,89.4-8.8,3.8-18,5.9-25.8-.9-8.3-7.2-6-16.8-2.3-25.4,11.7-26.9,27.7-51.2,45.8-74.1,5.9-7.5,13.9-11.6,24.3-7,9,4,15.3,9.8,15.8,18.1Z"/>
  <path class="st12" d="M3472.4,710.6c.2,8.4-5.2,15.7-9.3,14.1-21.4-8.6-28.8,30.8-51,14.3-7-5.2-7.2-17.6-1-19.2,16.7-4.3,27.9-18.9,44.5-21.5,9.3-1.5,16.1,3.3,16.8,12.2Z"/>
  <path class="st12" d="M3362.7,818.3c-.7-11.4-6.5-25.9,14.5-24.5,7.8,5.8,13.1,12.8,6.7,22.4-5.9,9-13.7,6.2-21.2,2.1Z"/>
  <path class="st2" d="M2887.1,1053.5c6.7-11.4,11.8-20.1,27-6.6,19,16.8,37.2,38.2,67.7,33.1,1.2-.2,3.3,4.9,5.1,7.4-9.9.6-19.8,1.2-29.6,1.8-9.8-.1-19.5-.3-29.2-.4-13.7-11.8-30.1-20.4-41-35.4Z"/>
  <path class="st1" d="M1166.9,277.7c46.6,2.4,76.4,23.8,91.5,67.2,15.1,43.6,12.6,86.8-7.6,128.3-21.6,44.6-64.3,70.3-102.9,63.6-40.8-7-73.5-45.1-81.1-93.5-7.8-49.4,7.2-93.3,31.3-135.3,22.1,16.2,34.9,15.1,52.3-5.8,6.2-7.6,11.1-16.3,16.6-24.5Z"/>
  <path class="st11" d="M1166.9,277.7c-5.4,8.2-10.3,16.9-16.6,24.5-17.4,20.9-30.2,22.1-52.3,5.8-2.4-25.1,4.4-45.7,29.6-55.9,26.2-10.7,37.7-2.9,39.3,25.6Z"/>
  <path class="st13" d="M1914.8,988.8c13.7-2.9,27.3-6.2,41.2-8.6,26.3-4.5,47.5,9.7,54.4,35.6,2.4,9,.2,15.9-5.9,22.6-16.4,18-56.8,27.1-78.6,16.2-21.5-10.7-17.6-31.3-18-50.1,2.3-5.2,4.6-10.5,6.9-15.8Z"/>
  <path class="st13" d="M2981.8,899.9c-.1-22.9,27.5-46.9,52.7-46,16.3.6,37,22.6,36.4,38.5-1,23.8-24.9,49.7-47,50.8-19.8.9-42-21.9-42.1-43.3Z"/>
  <path class="st13" d="M2228,929.1c-18.4,0-34.1-7-47.2-19.3-12.4-11.8-9.3-27.2,7-29.6,25.2-3.5,51.2-5.9,76.5-4,17.4,1.3,39.5,8.1,37.1,32.1-2.3,23.8-24.2,23-42.3,24.4-9-13.5-19.5-12.7-31.1-3.6Z"/>
  <path class="st13" d="M2404.4,1132.6c-10.7.5-17.5-.4-20.8-7.3-3.5-7.2.6-13.6,6.2-17.1,18.6-11.9,39.2-20.1,60.8-24.1,11-2,18.5,6.2,20.7,17.1,2.4,12-6.2,15.5-15.6,18-18.3,4.7-36.6,9.6-51.3,13.4Z"/>
  <path class="st13" d="M2202.2,1192.9c10.5,2.5,24.5,1.7,23.4,14.4-1.4,16-13.6,27-29.7,29.2-12.3,1.8-21.6-7-22-18.8-.5-18.8,16.4-19.8,28.3-24.8Z"/>
  <path class="st13" d="M2079.4,1261.9c-8.5-1.7-21.3-4.1-20.6-15.5.9-15.2,15-20.9,28.7-22.3,13.3-1.2,24.2,5.4,28,18.2,2,6.7-21.6,19.3-36.1,19.6Z"/>
  <path class="st13" d="M3332.2,919c-2.4,18.4-12.6,29.3-29.4,33.1-6.7,1.5-13.6-1.6-12.9-10.8.8-11.4,26.2-36.7,35.3-35.5,9.3,1.2,4.2,9.3,7,13.2Z"/>
  <path class="st12" d="M2491,893c9.7.7,16.3,4.8,16.3,14.9,0,10-6.6,14.9-15.9,14.6-10.1-.3-17.8-5.7-17.5-16.4.3-10,8.5-12.9,17.1-13.1Z"/>
  <path class="st12" d="M2537.1,854.5c8.2,1.6,17.6,3.6,17.8,13.6.2,9.4-7.6,14.3-16.7,14.8-9.2.5-17.1-3.8-17.7-13.4-.5-9.9,7.6-13.6,16.6-15.1Z"/>
  <path class="st12" d="M2115.9,1013.5c-2.3,8.2-7.8,13.3-15.9,13.1-8.9-.2-13.3-6.4-12.1-15.1,1.2-8.9,7.5-12.7,16-10.9,6.5,1.3,12.5,4.4,12.1,12.9Z"/>
  <path class="st12" d="M2276.5,1106.2c-1.2,9.4-7.5,12.5-15.8,12.8-8.2.2-16.2-2.1-15.9-11.6.2-8.6,7.6-12.6,15.7-13.1,8.4-.7,14.6,2.8,16,11.9Z"/>
  <path class="st12" d="M3046.3,1002c-1.7,7.9-6.6,13.6-14.5,14.6-8.4,1.1-14.6-3.2-14.8-12.4-.2-9.5,6.8-12.9,14.8-13.1,6.8-.2,12.9,2.7,14.6,10.9Z"/>
  <path class="st12" d="M1914.8,988.8c-2.3,5.3-4.6,10.5-6.9,15.8-9.5-1-20.4.7-24.5-11.2-2.2-6.4,1.7-11.2,7.4-13.5,10.2-4.2,19.1-2.5,24,8.8Z"/>
  <path class="st12" d="M2071.3,1102.2c-2.2,7.7-6.4,13.9-14.9,13.3-8.2-.6-13.7-6.2-12.9-14.7.6-7.1,5.6-11.8,13.3-11.6,8.1.3,13.7,4.1,14.5,13.1Z"/>
  <path class="st12" d="M2228,929.1c11.5-9.1,22.1-9.9,31.1,3.6-3.7,12.3-12.2,17.7-24.5,14.6-10-2.4-8.3-10.6-6.6-18.2Z"/>
  <path class="st10" d="M1853.7,1142.9c6.8.7,14.1,1.6,12.2,11-1.4,6.8-6.6,11.5-14,11.4-7-.2-13.5-3.5-13.7-11.2-.2-10.1,7.9-10.8,15.6-11.1Z"/>
  <path class="st12" d="M1917.2,1152.2c-2.5,8.1-8.5,11.8-16.8,11-6.5-.6-11.5-4.7-9.8-11.6,1.9-8,7.9-12.8,16.6-11.6,6.2.8,10.3,4.8,10,12.2Z"/>
  <path class="st12" d="M3109.1,914.6c6.3.7,12,2.9,12.1,10,0,7.8-5.5,11.9-12.9,12.5-7.3.6-14.2-1.8-13.3-10.6.8-7.2,6.8-11,14.1-12Z"/>
  <path class="st12" d="M2919.9,903.5c-1.6,8-6.1,13.7-14.6,13.9-6.3,0-11.6-3.8-11.8-10.4-.2-9.1,6.2-13,14.5-13.5,6.6-.4,10.9,3,12,10.1Z"/>
  <path class="st12" d="M1992.6,1150.4c-1.1,7.9-5.6,12.4-13.1,11.6-7.1-.7-12.1-5.2-11.2-13.2.7-6.4,5.3-10.1,11.7-10.2,7.7-.1,11.9,4.1,12.5,11.7Z"/>
  <path class="st10" d="M3166,956c-7.3-1.6-14.2-3.4-13.6-12,.5-8,6.2-11.2,13.6-11.1,6.4.1,11.2,3,11.4,10.2,0,7.9-4.4,12-11.4,13Z"/>
  <path class="st14" d="M2722.7,940c.9,1.1,1.8,2.1,2.8,3.2-1.1.5-2.2,1.2-3.3,1.4-.4,0-1.5-1.2-1.4-1.6.5-1,1.3-1.9,2-3Z"/>
  <path class="st14" d="M2747.1,958.5c-.7-.8-1.4-1.5-2.1-2.2.8.7,1.5,1.4,2.3,2.1,0,0-.2.1-.2.1Z"/>
</svg>