<?xml version="1.0" encoding="UTF-8"?>
<svg id="_x3C_Layer_x3E_" xmlns="http://www.w3.org/2000/svg" version="1.1" viewBox="0 0 4695 4695">
  <!-- Generator: Adobe Illustrator 29.2.1, SVG Export Plug-In . SVG Version: 2.1.0 Build 116)  -->
  <defs>
    <style>
      .st0 {
        fill: #b70000;
      }

      .st1 {
        fill: #69c3fa;
      }

      .st2 {
        fill: #e50000;
      }

      .st3 {
        fill: #ed484f;
      }

      .st4 {
        fill: #3b4951;
      }
    </style>
  </defs>
  <path class="st4" d="M240.3,2876.4s69.7-45.2,65.5-24c-4.2,21.2,53.1,4.3,39.6,41.1-13.5,36.7,56.6,28.9,48.1,53.4-8.5,24.5,31.1-2.4,18.4,27.3-12.7,29.7,43.1,22.6,43.1,22.6l-49.5-255.1s65.8-39.3,60.1-11c-5.7,28.3,43.9,19.8,32.6,53.8-11.3,34,29.7,29.7,18.4,60.9-11.3,31.1,27.7,13.5,21.2,43.9-6.5,30.4,46.7,51,46.7,51l26.9-117.5-48.3-149.7s92.2-17.4,79.4,6.7c-12.7,24.1,39.6,12.7,24.1,49.5-15.6,36.8,35.4,15.6,18.4,62.3-17,46.7,51,26.9,22.6,73.6-28.3,46.7-8.5,118.9-8.5,118.9l-203.8,121.7-135.9-55.2-119.2-174.2Z"/>
  <path class="st2" d="M448.8,3210.3s-254.3-280.5-208.5-333.9c45.8-53.4,119.5,134.8,175.5,111.9,55.9-22.9-66.1-221.2-10.2-246.6,55.9-25.4,76.3,185.6,139.9,180.5,63.6-5.1-45.8-239,17.8-249.2,63.6-10.2,150,273.4,94.1,384.6-55.9,111.2-172.8,193.5-208.5,152.8Z"/>
  <path class="st2" d="M804,3708.9c-9.2,41.6-53.6,138.5-31.4,145.7,22.3,7.1,43.5-69.6,55.9-51.8,12.4,17.9-14.1,69.6,17.7,71.4,31.8,1.8,15.9-67.8,31.8-69.6,15.9-1.8,7.1,57.1,31.8,50,24.7-7.1,0-60.1,19.4-69.3,19.4-9.2,15.9,64,45.9,33.6,30-30.4,49.5-175.2-14.1-193-63.6-17.7-142.6,17.7-157,83Z"/>
  <path class="st2" d="M1196.2,2378.6s429.3-440.7,451.5-394.5c22.2,46.1,238.5-181.3,277.3-131.4,38.8,49.9,216.3-160.8,277.3-110.9,61,49.9,439.9-255.1,464-205.2,24.1,49.9,380.3-194.1,418.4-133.1,38.2,61,304.4-149.7,332.1-110.9,27.7,38.8,310.6-216.3,404.8-166.4,94.3,49.9,506.4-268.6,638.6-472.6l-400.1,594.6-787.5,432.6-959.4,495.8-659.9,225.1-457.1-23.1Z"/>
  <path class="st3" d="M4455.3,662.3c2.1-3.2,3.2-5.3,3.7-6.4-10.6,35.6-174.4,547.6-470.5,821.4-306.8,284.4-348.2,164.8-672,369.5-323.8,204.7-153.1,320.6-320.6,518.3-166.9,197.7-311,365.2-668.8,598.6-358.3,232.9-980.9,343.4-1038.8,462.5-58.5,119.1-362,346.6-566.7,358.3-200.4,11.2-386-133.4-428.5-189.8-2.1-2.1-3.2-3.7-3.2-3.7-6.4-9-10.6-22.3-13.3-39.3-1.1-4.8-1.6-10.1-2.1-15.4-8-87.7,23.4-242.4,94.6-331.7,90.9-113.2,289.7-324.3,409.4-462,238.7-274.9,619.3-515.1,1000-702.8,380.6-187.1,738.4-221.2,1062.2-397.7,324.3-176,636.4-198.8,943.6-295.1,285-89.8,624.1-611.9,670.9-684.7Z"/>
  <path class="st2" d="M4459,655.9c-10.6,35.6-174.4,547.6-470.5,821.4-306.8,284.4-348.2,164.8-672,369.5-323.8,204.7-153.1,320.6-320.6,518.3-166.9,197.7-311,365.2-668.8,598.6-358.3,232.9-980.9,343.4-1038.8,462.5-58.5,119.1-362,346.6-566.7,358.3-167.5,9.6-324.3-89.8-396.1-155.8-14.4-12.8-25.5-24.5-32.4-34-2.1-2.1-3.2-3.7-3.2-3.7-.5-1.1-1.1-1.6-1.6-2.7-5.3-9-9-21.3-11.7-36.7,60.1,36.2,170.7,77.6,350.3,63.8,303-22.9,434.9-211.6,569.4-361,134.5-148.9,564.6-328,799.6-467.8,234.4-139.8,485.4-256.8,694.8-551.8,208.9-295,217.4-265.3,369.5-441.2,152-176,560.3-237.6,790.5-373.2,215.3-126.5,561.9-688.5,604.5-758.1,2.1-3.2,3.2-5.3,3.7-6.4Z"/>
  <path class="st3" d="M4460,653.8l-.5,1.6-.5.5v-.5c.5-1.1,1.1-1.6,1.1-1.6Z"/>
  <path class="st0" d="M4459.5,655.4c-10.1,31.9-173.8,547-471,821.9-306.8,284.4-348.2,164.8-672,369.5-323.8,204.7-153.1,320.6-320.6,518.3-166.9,197.7-311,365.2-668.8,598.6-358.3,232.9-980.9,343.4-1038.8,462.5-58.5,119.1-362,346.6-566.7,358.3-200.4,11.2-386-133.4-428.5-189.8,21.3,21.8,203.9,181.6,511.2,114.1,340.2-75,227.7-251.8,467-432.5,239.2-181.3,471-244,919.7-393.4,448.7-148.8,705.5-777.8,893.7-989.9,187.7-212.1,315.8-216.4,692.2-365.2,365.2-144.1,664-829.3,682.1-871.9v-.5h.5Z"/>
  <path class="st0" d="M772.7,3629.9s-223.8,131.3-447.1-1.1c-14.4-12.8-25.5-24.5-32.4-34-2.1-2.1-3.2-3.7-3.2-3.7-.5-1.1-1.1-1.6-1.6-2.7,81.9,38.8,250.9,93,484.3,41.5Z"/>
  <path class="st2" d="M1420.7,3261.7c-49.8,107.6,9.8,249.9,2.9,316.3-6.9,66.4-94,236.8-98.1,269.7-4.1,32.9-99.5,118.5-77.8,140.2,21.7,21.7,62.8-36.2,72.4-19.3,9.7,16.9-6.2,67.6,11.4,72.4,17.6,4.8,32.1-86.9,53.8-77.2,21.7,9.7-7.2,72.8,21.7,77.4,29,4.6,19.3-89.5,43.5-82.3,24.1,7.2,4.8,74.8,38.6,65.2,33.8-9.7,9.7-135.2,16.9-178.6,7.2-43.4,36.2-161.8,55.5-257.1,19.3-95.3,82.1-385,0-375.3-82.1,9.7-103-33.1-140.8,48.6Z"/>
  <path class="st2" d="M2775.4,2518.9c.2,79.6,24,241.7,68.8,291.3,44.8,49.6,308.5,30.3,344.6,52.6,36.2,22.3,161.8,58.3,149.4,19.3-12.4-39-120.9-46.4-98.7-58,22.3-11.6,125.2,13.5,125.2-14.4s-103-19.5-108.5-41.7c-5.6-22.3,103-5.6,108.5-33.4,5.6-27.8-103-5.6-111.3-27.8-8.3-22.3,138.3-2.8,111.5-39-26.8-36.2-105.9-11.1-172.7,2.8-66.8,13.9-197.6,90.4-225.4,21.5-27.8-68.8,75.1-383.3-13.9-377.7-89,5.6-177.7,120.5-177.5,204.4Z"/>
  <g>
    <path class="st2" d="M960.3,3474.1c0,41.1-28.9,91.2-64.5,111.8-35.6,20.6-64.5,3.9-64.5-37.3s28.9-91.2,64.5-111.8c35.6-20.6,64.5-3.9,64.5,37.3Z"/>
    <path class="st1" d="M943.9,3483.6c0,30.7-21.5,68-48.1,83.3-26.6,15.3-48.1,2.9-48.1-27.8s21.5-68,48.1-83.3c26.6-15.3,48.1-2.9,48.1,27.8Z"/>
    <path class="st4" d="M928.3,3492.6c0,20.7-14.5,45.9-32.5,56.3-17.9,10.4-32.5,2-32.5-18.8s14.5-45.9,32.5-56.3c17.9-10.4,32.5-2,32.5,18.8Z"/>
  </g>
  <path class="st4" d="M853.8,2865.3s78.5-15.5,64.3,0c-14.2,15.5,56.8,0,17,41.1-39.8,41.2,31.2,45.5,0,76.7-31.2,31.2,34.1,29.8,1.4,62.5-32.7,32.7,35.9,24.1,10.8,48.3-25,24.2,26.1,39.8,26.1,39.8l89.9-308.9s83.4-12.1,59.2,13.5c-24.1,25.6,31.2,27-1.4,56.8-32.7,29.8,9.9,38.4-17,68.2-27,29.8,31.2,21.3-2.8,52.6-34.1,31.2,7.1,17-17,44-24.1,27-7.1,90.9-7.1,90.9l148.8-243.4s82.7,33.1,61.4,43.1c-21.3,9.9,32.6,32.7,3.5,52.6-29.1,19.9,11.6,32.5-25.7,56.8-37.4,24.3,3.8,46.9-28.9,71-32.7,24.1,28.4,38.4-15.6,55.4-44,17,15.6,14.2-36.9,41.2-52.6,27,11.6,20.6-55.4,48.3-67,27.7-143.5,14.2-143.5,14.2l-100.9-95-22.7-199.1-7.5-130.6Z"/>
  <path class="st2" d="M847.5,3277.4c-42.7-75.1-52.6-405,6.3-412.1,58.9-7.1,14.2,266.3,69.1,267.9,54.9,1.6,70.7-340.8,140.5-308.4,69.8,32.4-56.6,270.5.6,278.5,57.2,8,106.8-256.1,174.1-186.8,67.3,69.2-60,300.7-176.9,386.9-116.8,86.2-176.3,40-213.8-25.9Z"/>
  <path class="st2" d="M635.6,3317.6c0,13.5-10.9,24.5-24.4,24.5s-24.5-10.9-24.5-24.5,10.9-24.4,24.5-24.4,24.4,10.9,24.4,24.4Z"/>
  <path class="st2" d="M656.8,3103.2c0,9.2-7.5,16.7-16.7,16.7s-16.7-7.5-16.7-16.7,7.5-16.7,16.7-16.7,16.7,7.5,16.7,16.7Z"/>
  <path class="st2" d="M766.4,3175.1c0,7.3-5.9,13.2-13.2,13.2s-13.2-5.9-13.2-13.2,5.9-13.2,13.2-13.2,13.2,5.9,13.2,13.2Z"/>
  <path class="st2" d="M1173.2,2623.6c0,9.2-7.5,16.7-16.7,16.7s-16.7-7.5-16.7-16.7,7.5-16.7,16.7-16.7,16.7,7.5,16.7,16.7Z"/>
  <path class="st2" d="M1256.8,2731.1c0,13.8-11.2,25-25,25s-25-11.2-25-25,11.2-25,25-25,25,11.2,25,25Z"/>
  <path class="st2" d="M1405.5,2560.2c0,10.1-8.2,18.4-18.4,18.4s-18.4-8.2-18.4-18.4,8.2-18.4,18.4-18.4,18.4,8.2,18.4,18.4Z"/>
  <path class="st2" d="M1522.2,2699.3c0,17.9-14.5,32.4-32.4,32.4s-32.4-14.5-32.4-32.4,14.5-32.4,32.4-32.4,32.4,14.5,32.4,32.4Z"/>
  <path class="st2" d="M1672.3,2520.8c0,9.8-8,17.8-17.8,17.8s-17.8-8-17.8-17.8,8-17.8,17.8-17.8,17.8,8,17.8,17.8Z"/>
  <path class="st2" d="M1591.3,2437.1c0,13.7-11.1,24.8-24.8,24.8s-24.8-11.1-24.8-24.8,11.1-24.8,24.8-24.8,24.8,11.1,24.8,24.8Z"/>
  <path class="st2" d="M1800.3,2297.4c0,9.4-7.6,17-17,17s-17-7.6-17-17,7.6-17,17-17,17,7.6,17,17Z"/>
  <path class="st2" d="M1911.1,2471.7c0,11.3-9.2,20.5-20.5,20.5s-20.5-9.2-20.5-20.5,9.2-20.5,20.5-20.5,20.5,9.2,20.5,20.5Z"/>
  <path class="st2" d="M2091.5,2306.9c0,14.6-11.9,26.5-26.5,26.5s-26.5-11.8-26.5-26.5,11.8-26.5,26.5-26.5,26.5,11.9,26.5,26.5Z"/>
  <path class="st2" d="M2122.8,2487.3c0,8.6-7,15.7-15.7,15.7s-15.7-7-15.7-15.7,7-15.7,15.7-15.7,15.7,7,15.7,15.7Z"/>
  <path class="st2" d="M1890.6,2599.7c0,11.6-9.4,21.1-21.1,21.1s-21.1-9.4-21.1-21.1,9.4-21.1,21.1-21.1,21.1,9.4,21.1,21.1Z"/>
  <path class="st2" d="M2226.5,2093.6c0,9-7.3,16.2-16.2,16.2s-16.2-7.3-16.2-16.2,7.3-16.2,16.2-16.2,16.2,7.3,16.2,16.2Z"/>
  <path class="st2" d="M2473.2,2008c0,13.2-10.7,24-24,24s-24-10.7-24-24,10.7-24,24-24,24,10.7,24,24Z"/>
  <path class="st2" d="M2462,2187.6c0,15.5-12.6,28.1-28.1,28.1s-28.1-12.6-28.1-28.1,12.6-28.1,28.1-28.1,28.1,12.6,28.1,28.1Z"/>
  <path class="st2" d="M2639.7,2027.7c0,10.9-8.8,19.7-19.7,19.7s-19.7-8.8-19.7-19.7,8.8-19.7,19.7-19.7,19.7,8.8,19.7,19.7Z"/>
</svg>