<svg width="78" height="78" viewBox="0 0 78 78" fill="none" xmlns="http://www.w3.org/2000/svg">
<g clip-path="url(#clip0_719_10763)">
<path d="M50.7822 19.7411V21.7716C50.8386 24.4144 48.9754 26.7148 46.3742 27.2103C45.0514 27.4198 43.6964 27.1056 42.6035 26.3321C42.301 26.1065 41.9381 25.9816 41.563 25.9695H40.7403C39.8006 25.9695 39.0424 26.7309 39.0424 27.6656V39.0024H26.3873C26.0364 39.0024 25.7097 38.8936 25.4395 38.7083C25.3508 38.6479 25.2661 38.5794 25.1895 38.5028C24.883 38.1966 24.6934 37.7736 24.6934 37.3063V36.4804C24.7015 36.1057 24.8265 35.7432 25.0524 35.441C25.8267 34.3492 26.1412 32.9956 25.9315 31.6741C25.8106 31.0336 25.5766 30.4373 25.258 29.9055C25.1774 29.7726 25.0927 29.6437 25.004 29.5188C24.8225 29.265 24.6168 29.0313 24.399 28.8178C24.2902 28.709 24.1772 28.6083 24.0603 28.5116C23.6812 28.1974 23.2618 27.9395 22.8101 27.7421C22.6972 27.6897 22.5842 27.6414 22.4673 27.5971C21.8503 27.3715 21.1808 27.2546 20.4912 27.2708H18.4626C18.0956 27.2627 17.7367 27.2909 17.3899 27.3554C17.156 27.3956 16.9261 27.4521 16.7043 27.5246C16.4825 27.5931 16.2647 27.6817 16.055 27.7784C15.9824 27.8106 15.9139 27.8428 15.8453 27.8791C15.7082 27.9516 15.5751 28.0282 15.446 28.1087C15.1234 28.3102 14.8209 28.5479 14.5467 28.8218C14.4378 28.9306 14.333 29.0394 14.2281 29.1562C14.1313 29.273 14.0345 29.3939 13.9418 29.5188C13.7119 29.837 13.5183 30.1755 13.361 30.538C13.2078 30.9006 13.0908 31.2793 13.0142 31.6782C13.0061 31.7265 12.9981 31.7749 12.994 31.8232C12.9779 31.9159 12.9699 32.0045 12.9658 32.0972C12.9537 32.218 12.9497 32.3389 12.9497 32.4597C12.9457 33.5153 13.2723 34.5587 13.8934 35.437C14.1152 35.7391 14.2442 36.1057 14.2523 36.4804V37.3063C14.2523 38.241 13.4941 38.9984 12.5545 38.9984H1.20996V9.02873C1.20996 4.70994 4.71454 1.20898 9.03779 1.20898H39.0384V13.8471C39.0384 14.7817 39.7966 15.5432 40.7322 15.5432H41.559C41.9381 15.5311 42.301 15.4062 42.6035 15.1806C43.6964 14.4071 45.0514 14.0928 46.3742 14.3023H46.3783C48.9754 14.8019 50.8386 17.0942 50.7822 19.7411Z" fill="#E03102"/>
<path d="M40.2522 40.2106H26.3872C25.8024 40.2106 25.2378 40.0374 24.7538 39.703C24.6006 39.5983 24.4594 39.4814 24.3344 39.3565C23.7859 38.8086 23.4835 38.0794 23.4835 37.3059V36.48C23.4956 35.8234 23.7053 35.2231 24.0844 34.7155C24.6611 33.9017 24.899 32.8784 24.7377 31.8591C24.653 31.4119 24.4756 30.9486 24.2215 30.5216C24.161 30.4208 24.0924 30.3161 24.0199 30.2154C23.8908 30.0381 23.7335 29.8528 23.5561 29.6796C23.4674 29.5909 23.3827 29.5144 23.2939 29.4419C23.0036 29.2001 22.6769 29.0027 22.3301 28.8496C22.2172 28.7973 22.1325 28.761 22.0437 28.7248C21.5638 28.5515 21.0476 28.4669 20.5274 28.479H18.4706C18.1601 28.4709 17.8818 28.4951 17.6197 28.5435C17.4261 28.5757 17.2527 28.62 17.0873 28.6724C16.9179 28.7248 16.7526 28.7892 16.5671 28.8738C16.5026 28.902 16.4582 28.9222 16.4138 28.9463C16.3049 29.0068 16.1961 29.0672 16.0912 29.1317C15.8412 29.2888 15.6113 29.4701 15.4056 29.6755C15.333 29.7481 15.2604 29.8206 15.1919 29.8971L15.1515 29.9455C15.0951 30.0099 15.0386 30.0784 14.9822 30.1509L14.9217 30.2355C14.7442 30.4772 14.595 30.7391 14.474 31.0171C14.353 31.2991 14.2643 31.5932 14.2038 31.9034L14.1877 32.0283C14.1796 32.0686 14.1796 32.1089 14.1756 32.1492V32.2177C14.1635 32.2982 14.1595 32.3788 14.1595 32.4594C14.1595 33.2812 14.4055 34.0668 14.8813 34.7396C15.2362 35.2271 15.45 35.8395 15.4621 36.4559V37.3059C15.4621 38.9053 14.1595 40.2066 12.5544 40.2066H0V9.02836C0 4.04886 4.05305 0 9.03769 0H40.2482V13.8467C40.2482 14.1166 40.466 14.3342 40.7321 14.3342H41.5589C41.6516 14.3342 41.7766 14.2899 41.8775 14.2133C43.2325 13.2545 44.8497 12.8637 46.4629 13.0933H46.487L46.604 13.1135C49.79 13.7258 52.0524 16.5177 51.9879 19.7528V21.7712C52.0565 24.9901 49.79 27.7901 46.5959 28.3984C44.9102 28.6643 43.2567 28.2816 41.8976 27.3187C41.7726 27.2261 41.6476 27.1818 41.5185 27.1777H40.7362C40.466 27.1777 40.2482 27.3953 40.2482 27.6652V40.2106H40.2522ZM20.6403 26.0618C21.3904 26.0618 22.1526 26.1947 22.8826 26.4646C23.0399 26.5251 23.181 26.5855 23.3222 26.65C23.8505 26.8796 24.3667 27.1979 24.8345 27.5846C24.9797 27.7055 25.1208 27.8304 25.2579 27.9674C25.5322 28.2333 25.7782 28.5233 25.9919 28.8214C26.1008 28.9745 26.2016 29.1276 26.2944 29.2847C26.7017 29.9616 26.976 30.6908 27.1211 31.4562C27.3873 33.1362 27.0042 34.788 26.0403 36.1457C25.9476 36.2705 25.9072 36.3874 25.9032 36.5123V37.314C25.9032 37.4872 25.9919 37.604 26.0444 37.6564C26.0645 37.6766 26.0887 37.6967 26.121 37.7169C26.1774 37.7571 26.2702 37.8015 26.3872 37.8015H37.8325V27.6733C37.8325 26.0698 39.1351 24.7686 40.7402 24.7686H41.5629C42.2283 24.7887 42.8252 24.9982 43.3293 25.3729C44.1439 25.949 45.1683 26.1867 46.1886 26.0255C48.1809 25.6468 49.6206 23.8702 49.5762 21.8074V19.7367V19.7246C49.6206 17.678 48.197 15.9094 46.1886 15.5065C45.1683 15.3454 44.148 15.5831 43.3091 16.1793C42.8333 16.5339 42.2324 16.7434 41.6032 16.7635H40.7362C39.1351 16.7635 37.8325 15.4622 37.8325 13.8588V2.41723H9.03769C5.38793 2.41723 2.41973 5.38237 2.41973 9.02836V37.7894H12.5544C12.8246 37.7894 13.0423 37.5718 13.0423 37.3059V36.48C13.0423 36.3834 12.994 36.2585 12.9173 36.1497C12.139 35.0458 11.7357 33.7768 11.7397 32.4513C11.7397 32.3063 11.7438 32.1572 11.7599 32.0082C11.768 31.8833 11.776 31.7705 11.7962 31.6617C11.8043 31.6013 11.8123 31.5449 11.8204 31.4844C11.9172 30.9768 12.0583 30.5135 12.2479 30.0663C12.389 29.744 12.5503 29.4378 12.7318 29.1478V29.1196L12.9698 28.7932C12.9859 28.7731 13.002 28.7489 13.0181 28.7288V28.6925L13.3287 28.3461C13.4497 28.2131 13.5666 28.0882 13.6916 27.9633C14.0264 27.6289 14.4014 27.3348 14.8047 27.081C14.958 26.9844 15.1152 26.8957 15.2806 26.8071C15.3734 26.7587 15.4661 26.7144 15.5629 26.6701C15.8331 26.5452 16.0912 26.4445 16.3453 26.3639C16.6034 26.2793 16.8897 26.2068 17.1841 26.1585C17.5955 26.0819 18.0391 26.0497 18.4908 26.0577H20.4911C20.5395 26.0577 20.5919 26.0577 20.6403 26.0577V26.0618Z" fill="#665251"/>
<path d="M38.8327 64.6493C38.8327 64.6493 39.0384 65.2375 39.0384 65.4591V76.7919H9.03779C8.09006 76.7919 7.18669 76.6267 6.34785 76.3205C6.22687 76.2762 6.10991 76.2279 5.99296 76.1795C5.52111 75.9821 5.0775 75.7404 4.66211 75.4584C4.55725 75.3859 4.4524 75.3133 4.35158 75.2408C4.15397 75.0918 3.96039 74.9306 3.77487 74.7614C2.19802 73.3312 1.20996 71.2645 1.20996 68.9721V39.0025H12.5545C13.4941 39.0025 14.2523 38.2451 14.2523 37.3104V36.4846C14.2442 36.1099 14.1152 35.7433 13.8934 35.4411C13.2723 34.5629 12.9457 33.5194 12.9497 32.4639C12.9497 32.343 12.9537 32.2222 12.9658 32.1013C12.9699 32.0087 12.9779 31.92 12.994 31.8274C12.9981 31.779 13.0061 31.7307 13.0142 31.6823C13.0908 31.2835 13.2078 30.9048 13.361 30.5422C13.5183 30.1796 13.7119 29.8412 13.9418 29.527C14.0345 29.398 14.1313 29.2772 14.2281 29.1644C14.333 29.0435 14.4378 28.9347 14.5467 28.826C14.8209 28.552 15.1234 28.3143 15.446 28.1129C15.5751 28.0323 15.7082 27.9558 15.8453 27.8832C15.9139 27.847 15.9824 27.8148 16.055 27.7825C16.2647 27.6858 16.4825 27.5972 16.7043 27.5287C16.9261 27.4562 17.156 27.3998 17.3899 27.3595C17.7367 27.2951 18.0956 27.2669 18.4626 27.2749H20.4912C21.1808 27.2588 21.8503 27.3756 22.4673 27.6012C22.6447 27.6697 22.8101 27.7422 22.9835 27.8309C23.3989 28.0404 23.7981 28.2901 24.153 28.5963C24.2377 28.6688 24.3184 28.7454 24.399 28.826C24.6168 29.0395 24.8225 29.2732 25.004 29.527C25.0927 29.6519 25.1774 29.7808 25.258 29.9137C25.5766 30.4455 25.8106 31.0418 25.9315 31.6823C26.1412 33.0037 25.8267 34.3574 25.0524 35.4492C24.8265 35.7513 24.7015 36.1139 24.6934 36.4886V37.3145C24.6934 37.7818 24.883 38.2048 25.1895 38.511C25.2661 38.5875 25.3508 38.656 25.4395 38.7165C25.7097 38.9018 26.0364 39.0106 26.3873 39.0106H39.0384V51.6486C39.0384 51.9991 38.9336 52.3255 38.748 52.5954C38.6875 52.6881 38.619 52.7686 38.5424 52.8452C38.2359 53.1514 37.8124 53.3407 37.3406 53.3407H36.5179C36.4251 53.3407 36.3323 53.3286 36.2396 53.3125C36.1025 53.2883 35.9694 53.248 35.8403 53.1916C35.7113 53.1352 35.5863 53.0668 35.4733 52.9822C34.7918 52.4987 33.4851 52.2731 32.6019 52.1724C31.9123 52.0958 31.2106 52.1724 30.5694 52.4463C30.5694 52.4463 30.5613 52.4463 30.5573 52.4504C30.4161 52.5108 30.275 52.5793 30.1378 52.6558C30.0007 52.7283 29.8676 52.8089 29.7345 52.8935C29.67 52.9378 29.6095 52.9822 29.545 53.0265C29.42 53.1151 29.299 53.2118 29.182 53.3125" fill="#FCD836"/>
<path d="M40.2483 77.9992H9.03782C7.9691 77.9992 6.92459 77.8179 5.9325 77.4553C5.79538 77.407 5.6623 77.3506 5.52921 77.2942C4.98477 77.0686 4.46856 76.7866 3.98058 76.4562C3.8596 76.3757 3.75071 76.2951 3.64182 76.2185C3.39581 76.0332 3.16997 75.8479 2.95623 75.6505C1.07691 73.9463 -0.00390625 71.509 -0.00390625 68.9668V37.7886H12.5505C12.8207 37.7886 13.0384 37.571 13.0384 37.3051V36.4793C13.0384 36.3826 12.99 36.2577 12.9134 36.1489C12.1351 35.045 11.7318 33.776 11.7358 32.4505C11.7358 32.3055 11.7399 32.1564 11.756 32.0074C11.764 31.8825 11.7721 31.7697 11.7923 31.6609C11.8003 31.6005 11.8084 31.5441 11.8165 31.4837C11.9133 30.976 12.0544 30.5127 12.244 30.0655C12.3851 29.7432 12.5464 29.4371 12.7279 29.147V29.1188L12.9658 28.7925C12.982 28.7723 12.9981 28.7482 13.0142 28.728V28.6918L13.3248 28.3453C13.4458 28.2123 13.5627 28.0874 13.6877 27.9626C14.0225 27.6282 14.3975 27.3341 14.8008 27.0803C14.9541 26.9836 15.1113 26.8949 15.2767 26.8063C15.3694 26.758 15.4622 26.7136 15.559 26.6693C15.8292 26.5444 16.0873 26.4437 16.3414 26.3632C16.5995 26.2785 16.8858 26.206 17.1802 26.1577C17.5916 26.0811 18.0352 26.0449 18.4869 26.057H20.4872C21.2857 26.0368 22.1003 26.1738 22.8787 26.4558C23.0965 26.5404 23.3021 26.629 23.5239 26.7419C24.0724 27.0158 24.5362 27.322 24.9395 27.6725C25.0443 27.7651 25.1492 27.8578 25.25 27.9585C25.5242 28.2244 25.7703 28.5145 25.984 28.8126C26.0929 28.9657 26.1937 29.1188 26.2865 29.2759C26.6938 29.9527 26.968 30.6819 27.1132 31.4474C27.3794 33.1274 26.9963 34.7791 26.0324 36.1368C25.9396 36.2617 25.8993 36.3785 25.8953 36.5034V37.3051C25.8953 37.4784 25.984 37.5952 26.0364 37.6476C26.0566 37.6677 26.0808 37.6879 26.113 37.708C26.1695 37.7483 26.2623 37.7926 26.3792 37.7926H40.2402V51.6393C40.2402 52.2275 40.0668 52.7915 39.7361 53.271C39.6514 53.4039 39.5305 53.5489 39.3893 53.6899C38.8408 54.2379 38.1109 54.54 37.3325 54.54H36.5098C36.3122 54.54 36.1388 54.5118 36.0259 54.4957C35.792 54.4554 35.5661 54.3869 35.3484 54.2902C35.1225 54.1935 34.9209 54.0727 34.7394 53.9397C34.4974 53.7665 33.7473 53.5127 32.4608 53.3676C31.9486 53.3112 31.4607 53.3717 31.0453 53.553C30.9283 53.6013 30.8275 53.6537 30.7267 53.7061C30.6017 53.7745 30.5008 53.835 30.404 53.8954L30.2306 54.0163C30.15 54.0727 30.0572 54.1452 29.9725 54.2217L28.3916 52.3927C28.5489 52.2598 28.6981 52.1429 28.8433 52.0382L29.0853 51.873C29.2466 51.7723 29.4079 51.6756 29.5733 51.587C29.7144 51.5064 29.8959 51.4177 30.0814 51.3372C30.892 50.9907 31.8075 50.8618 32.735 50.9665C34.3079 51.1438 35.4653 51.4903 36.1711 51.9898C36.2154 52.0221 36.2558 52.0462 36.3243 52.0785C36.3646 52.0946 36.405 52.1067 36.4493 52.1147C36.4695 52.1147 36.4937 52.1228 36.5219 52.1228H37.3406C37.51 52.1228 37.6229 52.0462 37.6874 51.9818C37.7197 51.9495 37.7318 51.9334 37.7358 51.9254C37.8044 51.8246 37.8286 51.736 37.8286 51.6393V40.2099H26.3873C25.8025 40.2099 25.2379 40.0366 24.754 39.7022C24.6007 39.5975 24.4596 39.4807 24.3345 39.3558C23.7861 38.8079 23.4836 38.0787 23.4836 37.3051V36.4793C23.4957 35.8226 23.7054 35.2223 24.0845 34.7147C24.6612 33.9009 24.8991 32.8776 24.7378 31.8583C24.6531 31.4111 24.4757 30.9478 24.2216 30.5208C24.1611 30.4201 24.0926 30.3153 24.02 30.2146C23.8909 30.0373 23.7336 29.852 23.5562 29.6788C23.4876 29.6103 23.4271 29.5579 23.3667 29.5015C23.1166 29.284 22.8141 29.0906 22.4472 28.9053C22.302 28.8328 22.1729 28.7764 22.0439 28.724C21.564 28.5507 21.0477 28.4661 20.5275 28.4782H18.4707C18.1602 28.4702 17.8819 28.4943 17.6198 28.5427C17.4262 28.5749 17.2528 28.6192 17.0875 28.6716C16.9181 28.724 16.7527 28.7884 16.5672 28.873C16.5027 28.9012 16.4583 28.9214 16.414 28.9456C16.3051 29.006 16.1962 29.0664 16.0913 29.1309C15.8413 29.288 15.6114 29.4693 15.4057 29.6748C15.3331 29.7473 15.2606 29.8198 15.192 29.8963L15.1517 29.9447C15.0952 30.0091 15.0387 30.0776 14.9823 30.1501L14.9218 30.2348C14.7443 30.4765 14.5951 30.7383 14.4741 31.0163C14.3532 31.2983 14.2644 31.5924 14.2039 31.9026L14.1878 32.0275C14.1797 32.0678 14.1797 32.1081 14.1757 32.1484V32.2169C14.1636 32.2975 14.1596 32.378 14.1596 32.4586C14.1596 33.2805 14.4056 34.0661 14.8815 34.7389C15.2364 35.2263 15.4501 35.8387 15.4622 36.4551V37.3051C15.4622 38.9046 14.1596 40.2058 12.5545 40.2058H2.41986V68.9668C2.41986 70.8281 3.2103 72.6128 4.58955 73.8617C4.75086 74.0108 4.91621 74.1478 5.08156 74.2727C5.15415 74.325 5.25094 74.3935 5.35176 74.462C5.69456 74.6957 6.06962 74.9011 6.46081 75.0623C6.5576 75.1026 6.65842 75.1429 6.76327 75.1832C7.48516 75.445 8.25141 75.582 9.03782 75.582H37.8286V65.5142C37.8084 65.4175 37.7479 65.208 37.6915 65.0469L39.9741 64.2492C40.1556 64.7689 40.2483 65.1758 40.2483 65.4578V77.9992Z" fill="#665251"/>
<path d="M13.0143 31.6772C13.0062 31.7256 12.9982 31.7739 12.9941 31.8223C12.9941 31.7739 13.0022 31.7256 13.0103 31.6772C13.0869 31.2784 13.2039 30.8957 13.3611 30.5371C13.2079 30.8997 13.0909 31.2784 13.0143 31.6772Z" fill="#FCD836"/>
<path d="M14.1999 31.9321L11.7842 31.8233C11.7842 31.6742 11.8043 31.5534 11.8164 31.4809C11.9173 30.9611 12.0624 30.4938 12.252 30.0547L14.4741 31.0095C14.3531 31.2996 14.2644 31.5856 14.2039 31.8918L14.1958 31.9321H14.1999Z" fill="#665251"/>
<path d="M16.704 27.5234C16.4822 27.5919 16.2644 27.6806 16.0547 27.7772C16.2644 27.6765 16.4822 27.5919 16.704 27.5234Z" fill="#FCD836"/>
<path d="M16.5627 28.8731L15.5303 26.6855C15.7924 26.5606 16.0666 26.4518 16.3449 26.3672L17.0587 28.6756C16.9095 28.72 16.7442 28.7844 16.5587 28.8731H16.5627Z" fill="#665251"/>
<path d="M39.0424 38.9971V51.6392C39.0424 51.9897 38.9335 52.316 38.748 52.586C38.9335 52.316 39.0383 51.9897 39.0383 51.6392V39.0011H26.3872C26.0363 39.0011 25.7097 38.8924 25.4395 38.707C25.7097 38.8924 26.0363 38.9971 26.3872 38.9971H39.0424Z" fill="#FCD836"/>
<path d="M39.7443 53.2719L37.748 51.9022C37.8004 51.8256 37.8246 51.737 37.8246 51.6403V40.2108H26.3833C25.7985 40.2108 25.2339 40.0376 24.75 39.7032L26.1212 37.709C26.1978 37.7614 26.2865 37.7855 26.3833 37.7855H40.2484V51.6363C40.2484 52.2204 40.075 52.7844 39.7402 53.2679L39.7443 53.2719Z" fill="#665251"/>
<path d="M38.9056 64.7975C38.8854 64.7451 38.8612 64.6968 38.833 64.6484C38.8451 64.6686 38.8532 64.6847 38.8653 64.7048C38.8814 64.733 38.8935 64.7693 38.9056 64.7975Z" fill="#F9B438"/>
<path d="M37.8168 65.3047L37.7967 65.2684L37.7725 65.212C37.7725 65.2161 37.7765 65.2241 37.7805 65.2281C37.7805 65.2281 37.7886 65.2483 37.7926 65.2563C37.7926 65.2563 37.7926 65.2563 37.7926 65.2604L37.9781 65.1516L37.9418 65.1637L39.8655 64.0195L39.9059 64.092C39.9462 64.1646 39.9825 64.2371 40.0107 64.3096C40.0188 64.3257 40.0268 64.3459 40.0309 64.366L37.7926 65.2725C37.7926 65.2725 37.8047 65.2966 37.8128 65.3087L37.8168 65.3047Z" fill="#665251"/>
<path d="M39.0424 38.998V51.6402C39.0424 51.9907 38.9336 52.317 38.748 52.5869C38.9336 52.317 39.0384 51.9907 39.0384 51.6402V38.998H39.0424Z" fill="#F9B438"/>
<path d="M39.7443 53.2714L37.748 51.9017C37.8005 51.8251 37.8247 51.7365 37.8247 51.6398V37.7891H40.2444V38.9977V51.6398C40.2444 52.224 40.071 52.788 39.7363 53.2714H39.7443Z" fill="#665251"/>
<path d="M38.9056 64.7975C38.8854 64.7451 38.8612 64.6968 38.833 64.6484C38.8451 64.6686 38.8532 64.6847 38.8653 64.7048C38.8814 64.733 38.8935 64.7693 38.9056 64.7975Z" fill="#FCD836"/>
<path d="M37.8168 65.3047L37.7967 65.2684L37.7725 65.212C37.7725 65.2161 37.7765 65.2241 37.7805 65.2281C37.7805 65.2281 37.7886 65.2483 37.7926 65.2563C37.7926 65.2563 37.7926 65.2563 37.7926 65.2604L37.9781 65.1516L37.9418 65.1637L39.8655 64.0195L39.9059 64.092C39.9462 64.1646 39.9825 64.2371 40.0107 64.3096C40.0188 64.3257 40.0268 64.3459 40.0309 64.366L37.7926 65.2725C37.7926 65.2725 37.8047 65.2966 37.8128 65.3087L37.8168 65.3047Z" fill="#665251"/>
<path d="M76.7903 39.002V68.9756C76.7903 73.2904 73.2857 76.7913 68.9625 76.7913H38.9578V65.4545C38.9578 65.2329 38.9135 65.0114 38.8288 64.8059C38.8288 64.8059 38.8274 64.8032 38.8247 64.7978C38.8126 64.7696 38.8005 64.7334 38.7844 64.7052C38.7723 64.685 38.7642 64.6689 38.7521 64.6488C38.7279 64.6004 38.6997 64.5521 38.6715 64.5118C38.6674 64.5118 38.6674 64.5037 38.6674 64.5037C38.6312 64.4514 38.5949 64.403 38.5505 64.3547C38.5384 64.3345 38.5223 64.3144 38.4981 64.2983C38.486 64.2862 38.4739 64.2701 38.4618 64.258C38.4618 64.258 38.4577 64.2499 38.4497 64.2459C38.4053 64.1976 38.3529 64.1532 38.3005 64.117C38.2722 64.0888 38.244 64.0686 38.2117 64.0485C38.2117 64.0485 38.209 64.0485 38.2037 64.0485C38.127 63.9921 38.0423 63.9437 37.9496 63.9075C37.7399 63.8108 37.51 63.7584 37.264 63.7584L36.4413 63.7625C36.3445 63.7625 36.2518 63.7745 36.159 63.7907C36.1267 63.7987 36.0945 63.8068 36.0622 63.8148C36.0017 63.8269 35.9453 63.843 35.8888 63.8632C35.8444 63.8793 35.8041 63.8954 35.7597 63.9155C35.6307 63.9679 35.5057 64.0404 35.3927 64.125C34.2998 64.8986 32.9488 65.2168 31.622 65.0033C31.6139 65.0033 31.6059 64.9993 31.5978 64.9993C31.0534 64.8905 30.5452 64.7092 30.0774 64.4554C29.5894 64.1976 29.1498 63.8632 28.7707 63.4764C28.6619 63.3676 28.561 63.2508 28.4602 63.134C27.6536 62.1631 27.1899 60.9101 27.2181 59.5686V57.5341C27.1818 55.8662 27.9117 54.3393 29.1055 53.312C29.2224 53.2112 29.3434 53.1145 29.4684 53.0259C29.533 52.9816 29.5935 52.9373 29.658 52.893C29.7911 52.8084 29.9242 52.7278 30.0613 52.6553C30.1984 52.5828 30.3395 52.5143 30.4807 52.4498C30.8437 52.2927 31.2268 52.1759 31.626 52.0993C32.9488 51.8858 34.3039 52.2041 35.3927 52.9776C35.5057 53.0622 35.6307 53.1307 35.7597 53.1871C35.8888 53.2435 36.0219 53.2838 36.159 53.3079C36.2518 53.324 36.3445 53.3361 36.4373 53.3361H37.26C37.7318 53.3361 38.1553 53.1468 38.4618 52.8406C38.5384 52.7641 38.607 52.6835 38.6674 52.5908C38.853 52.3209 38.9618 51.9946 38.9618 51.6441V39.002H50.3063C51.242 39.002 52.0042 39.7594 52.0042 40.698V41.5239C51.9921 41.8986 51.8671 42.2612 51.6412 42.5633C50.8669 43.6551 50.5524 45.0088 50.7621 46.3302C51.2621 48.9287 53.5568 50.786 56.2065 50.7336H58.239C60.8846 50.786 63.1833 48.9287 63.6794 46.3302C63.8931 45.0047 63.5786 43.6551 62.8002 42.5633C62.5784 42.2612 62.4534 41.8986 62.4413 41.5199V40.698C62.4413 39.7634 63.1995 39.006 64.1351 39.006H76.7903V39.002Z" fill="#F78004"/>
<path d="M68.9619 77.9996H37.7474V65.4541C37.7474 65.3977 37.7353 65.3373 37.7151 65.2849L37.703 65.2608L37.4368 65.0029C37.4005 64.9868 37.3602 64.9747 37.3199 64.9707H36.4609C36.4367 64.9707 36.4125 64.9707 36.3923 64.9747L36.2108 65.0352C36.2108 65.0352 36.1625 65.0553 36.1141 65.0916C34.755 66.0544 33.1378 66.4452 31.5246 66.2115H31.4641L31.3472 66.1833C30.6858 66.0504 30.0647 65.8248 29.4961 65.5186C28.9194 65.2164 28.379 64.8095 27.9031 64.3221C27.7821 64.2012 27.6611 64.0642 27.5401 63.9232C26.5118 62.6864 25.9714 61.1354 26.0036 59.544V57.5337C25.9593 55.5757 26.8021 53.6943 28.3104 52.3971C28.4677 52.2641 28.6169 52.1473 28.7621 52.0425L29.0041 51.8774C29.1654 51.7766 29.3267 51.68 29.4921 51.5913C29.6493 51.5067 29.8107 51.4302 29.972 51.3536C30.4358 51.1522 30.9076 51.0072 31.3915 50.9145C33.0733 50.6446 34.7267 51.0273 36.0858 51.9942C36.1302 52.0264 36.1705 52.0506 36.2391 52.0828C36.2794 52.0989 36.3197 52.111 36.3641 52.1191C36.3843 52.1191 36.4085 52.1271 36.4367 52.1271H37.2554C37.4247 52.1271 37.5377 52.0506 37.6022 51.9861C37.6345 51.9539 37.6466 51.9378 37.6506 51.9297C37.703 51.8532 37.7474 51.7605 37.7474 51.6437V37.793H50.3017C51.9068 37.793 53.2095 39.0942 53.2095 40.6977V41.5236C53.1893 42.1883 52.9796 42.7846 52.6045 43.2841C52.0278 44.0979 51.7899 45.1212 51.9512 46.1405C52.3343 48.1266 54.1169 49.5649 56.1777 49.5246H58.2344C60.3275 49.5689 62.102 48.1266 62.4851 46.1042C62.6424 45.1212 62.4044 44.1019 61.8076 43.264C61.4486 42.7765 61.243 42.1802 61.2268 41.5558V40.6936C61.2268 39.0942 62.5294 37.793 64.1305 37.793H77.9955V68.9752C77.9955 73.9507 73.9425 77.9996 68.9579 77.9996H68.9619ZM40.1671 75.5823H68.9619C72.6117 75.5823 75.5799 72.6172 75.5799 68.9752V40.2102H64.1345C63.8684 40.2102 63.6506 40.4278 63.6506 40.6936V41.5155C63.6506 41.6122 63.699 41.7371 63.7756 41.8459C64.7516 43.2156 65.1387 44.8714 64.8726 46.5192C64.2596 49.7381 61.4607 51.9982 58.2143 51.9378H56.2059C52.9917 52.0063 50.1848 49.7381 49.5718 46.5554C49.3056 44.8714 49.6887 43.2197 50.6526 41.862C50.7454 41.7371 50.7897 41.6122 50.7938 41.4833V40.6977C50.7938 40.4277 50.576 40.2102 50.3058 40.2102H40.1711V51.6437C40.1711 52.2279 39.9977 52.7919 39.663 53.2753C39.5783 53.4083 39.4573 53.5533 39.3162 53.6943C38.7677 54.2422 38.0377 54.5444 37.2594 54.5444H36.4367C36.2391 54.5444 36.0657 54.5162 35.9527 54.5001C35.7188 54.4598 35.493 54.3913 35.2752 54.2946C35.0494 54.1979 34.8477 54.077 34.6663 53.9441C33.8637 53.376 32.8192 53.1303 31.819 53.2914C31.5408 53.3438 31.2423 53.4365 30.9641 53.5573C30.8673 53.6017 30.7463 53.6621 30.6293 53.7225C30.5285 53.7749 30.4277 53.8353 30.3309 53.8998L30.1575 54.0206C30.0768 54.077 29.9841 54.1496 29.8994 54.2261C28.9396 55.052 28.4032 56.2485 28.4314 57.5055V59.5642C28.4113 60.5995 28.754 61.5825 29.3953 62.3561C29.4638 62.4326 29.5405 62.5293 29.6292 62.6139C29.9397 62.9322 30.2785 63.186 30.6455 63.3794C30.9842 63.5606 31.3432 63.6976 31.7263 63.7822H31.7545L31.8553 63.8064C32.8555 63.9595 33.8637 63.7178 34.6945 63.1296C34.8639 63.0047 35.0695 62.8838 35.2833 62.7952C35.3478 62.767 35.4083 62.7428 35.4769 62.7186C35.5817 62.6824 35.6866 62.6502 35.7955 62.626L35.9527 62.5897C35.985 62.5857 36.0213 62.5776 36.0536 62.5736V62.5454H37.2634C37.6708 62.5414 38.0579 62.626 38.4249 62.7871C38.4612 62.8032 38.4975 62.8194 38.5338 62.8355H38.558L38.683 62.912C38.7435 62.9483 38.804 62.9845 38.8605 63.0248C38.9129 63.0571 38.9855 63.1054 39.0621 63.1739C39.0863 63.194 39.1105 63.2142 39.1347 63.2343L39.6549 63.4881V63.8185L39.8727 64.1327L40.03 64.2858V64.592C40.1187 64.87 40.1631 65.16 40.1631 65.4541V75.5823H40.1671Z" fill="#665251"/>
</g>
<defs>
<clipPath id="clip0_719_10763">
<rect width="78" height="78" fill="white"/>
</clipPath>
</defs>
</svg>
