<svg width="72" height="72" viewBox="0 0 72 72" fill="none" xmlns="http://www.w3.org/2000/svg">
<mask id="mask0_719_10850" style="mask-type:luminance" maskUnits="userSpaceOnUse" x="0" y="0" width="72" height="72">
<path d="M72 0H0V71.9919H72V0Z" fill="white"/>
</mask>
<g mask="url(#mask0_719_10850)">
<path d="M5.83398 4.80078H56.0882V70.7937H5.83398V4.80078Z" fill="#FCD836"/>
<path d="M56.0923 1.19935V8.39733H9.42329C7.44089 8.39733 5.83398 6.78656 5.83398 4.79632C5.83398 2.80608 7.44089 1.19531 9.42329 1.19531H56.0882L56.0923 1.19935Z" fill="#FCD836"/>
<path d="M30.9512 52.7925L56.0763 27.6016L63.2549 34.7995L38.1298 59.9905L30.9512 52.7925Z" fill="#F78004"/>
<path d="M56.0801 27.601L59.6694 24L66.848 31.198L63.2587 34.799L56.0801 27.601Z" fill="#F9B438"/>
<path d="M59.6777 23.9963L62.7704 20.8919C63.7071 19.9553 65.2212 19.9553 66.1538 20.8919L69.949 24.6988C70.8817 25.6354 70.8817 27.1573 69.949 28.0939L66.8563 31.1984L59.6777 24.0004V23.9963Z" fill="#E03102"/>
<path d="M30.9627 52.791L29.7676 61.188L38.1453 59.989V52.791H30.9667H30.9627Z" fill="#F9B438"/>
<path d="M52.4986 17.9978C52.4986 17.3358 51.9616 16.7988 51.3035 16.7988H24.9793C24.3171 16.7988 23.7842 17.3358 23.7842 17.9978C23.7842 18.6599 24.3212 19.1968 24.9793 19.1968H51.3035C51.9656 19.1968 52.4986 18.6599 52.4986 17.9978Z" fill="#E03102"/>
<path d="M51.304 23.9961H41.7312C41.0691 23.9961 40.5361 24.533 40.5361 25.1951C40.5361 25.8572 41.0731 26.3941 41.7312 26.3941H51.304C51.9662 26.3941 52.4991 25.8572 52.4991 25.1951C52.4991 24.533 51.9621 23.9961 51.304 23.9961Z" fill="#E03102"/>
<path d="M71.9999 26.398C71.9999 25.4412 71.6244 24.5248 70.9501 23.8547L67.1549 20.0478C65.7539 18.6429 63.4808 18.6429 62.0798 20.0478L57.4368 24.7024V1.19899C57.4368 0.536922 56.8998 0 56.2417 0H9.57268C6.93218 0 4.78829 2.15172 4.78829 4.8V12.0666C1.99034 12.3815 0.00390625 13.7944 0.00390625 15.599C0.00390625 17.4035 1.99034 18.8165 4.78829 19.1314V21.6626C1.99034 21.9775 0.00390625 23.3904 0.00390625 25.195C0.00390625 26.9995 1.99034 28.4124 4.78829 28.7273V31.2585C1.99034 31.5734 0.00390625 32.9864 0.00390625 34.7909C0.00390625 36.5955 1.99034 38.0084 4.78829 38.3233V40.8545C1.99034 41.1694 0.00390625 42.5823 0.00390625 44.3869C0.00390625 46.1914 1.99034 47.6044 4.78829 47.9193V50.4505C1.99034 50.7653 0.00390625 52.1783 0.00390625 53.9828C0.00390625 55.7874 1.99034 57.2003 4.78829 57.5152V60.0464C1.99034 60.3613 0.00390625 61.7743 0.00390625 63.5788C0.00390625 65.3833 1.99034 66.7963 4.78829 67.1112V70.7768C4.78829 71.4389 5.32528 71.9758 5.98338 71.9758H56.2376C56.8998 71.9758 57.4327 71.4389 57.4327 70.7768V42.4774L70.9461 28.9292C71.6203 28.255 71.9999 27.3386 71.9958 26.3859V26.3778L71.9999 26.398ZM32.0008 53.9949H36.9467V58.9524L31.1771 59.78L32.0008 53.9949ZM33.8499 51.5929L56.0882 29.2925L57.9859 31.1939L37.6451 51.5929H33.8499ZM39.3368 53.2885L59.6775 32.8895L61.5751 34.7909L39.3368 57.0913V53.2844V53.2885ZM57.7799 27.597L59.6775 25.6955L65.1645 31.198L63.2668 33.0994L57.7799 27.597ZM50.8072 31.198H16.6019V26.398H36.9426C37.6048 26.398 38.1377 25.8611 38.1377 25.199C38.1377 24.5369 37.6007 24 36.9426 24H16.6019V9.6H54.8932V27.1004L50.8072 31.198ZM9.4233 2.39798H54.8932V7.19798H9.4233C8.10305 7.19798 7.02908 6.12414 7.02908 4.8C7.02908 3.47586 8.09901 2.40202 9.4233 2.40202V2.39798ZM2.2447 15.599C2.2447 15.3568 3.08449 14.7189 4.63891 14.4848V16.7132C3.08449 16.4791 2.2447 15.8412 2.2447 15.599ZM2.2447 25.195C2.2447 24.9527 3.08449 24.3149 4.63891 24.0807V26.3092C3.08449 26.075 2.2447 25.4372 2.2447 25.195ZM2.2447 34.795C2.2447 34.5527 3.08449 33.9149 4.63891 33.6807V35.9092C3.08449 35.675 2.2447 35.0372 2.2447 34.795ZM2.2447 44.395C2.2447 44.1527 3.08449 43.5149 4.63891 43.2807V45.5092C3.08449 45.275 2.2447 44.6372 2.2447 44.395ZM2.2447 53.9949C2.2447 53.7527 3.08449 53.1149 4.63891 52.8807V55.1092C3.08449 54.875 2.2447 54.2372 2.2447 53.9949ZM2.2447 63.5909C2.2447 63.3487 3.08449 62.7108 4.63891 62.4767V64.7051C3.08449 64.471 2.2447 63.8331 2.2447 63.5909ZM7.02908 67.1273C9.82704 66.8124 11.8135 65.3995 11.8135 63.5949C11.8135 62.9329 11.2765 62.396 10.6184 62.396C9.96028 62.396 9.4233 62.9329 9.4233 63.5949C9.4233 63.8372 8.58351 64.475 7.02908 64.7092V57.5314C9.82704 57.2165 11.8135 55.8035 11.8135 53.999C11.8135 53.3369 11.2765 52.8 10.6184 52.8C9.96028 52.8 9.4233 53.3369 9.4233 53.999C9.4233 54.2412 8.58351 54.8791 7.02908 55.1132V47.9354C9.82704 47.6205 11.8135 46.2076 11.8135 44.403C11.8135 43.741 11.2765 43.204 10.6184 43.204C9.96028 43.204 9.4233 43.741 9.4233 44.403C9.4233 44.6452 8.58351 45.2831 7.02908 45.5172V38.3394C9.82704 38.0246 11.8135 36.6116 11.8135 34.8071C11.8135 34.145 11.2765 33.6081 10.6184 33.6081C9.96028 33.6081 9.4233 34.145 9.4233 34.8071C9.4233 35.0493 8.58351 35.6871 7.02908 35.9213V28.7435C9.82704 28.4286 11.8135 27.0156 11.8135 25.2111C11.8135 24.549 11.2765 24.0121 10.6184 24.0121C9.96028 24.0121 9.4233 24.549 9.4233 25.2111C9.4233 25.4533 8.58351 26.0912 7.02908 26.3253V19.1475C9.82704 18.8326 11.8135 17.4197 11.8135 15.6151C11.8135 14.9531 11.2765 14.4161 10.6184 14.4161C9.96028 14.4161 9.4233 14.9531 9.4233 15.6151C9.4233 15.8574 8.58351 16.4952 7.02908 16.7294V8.97023C7.75583 9.39411 8.58351 9.61615 9.4233 9.61615H14.2077V69.6101H7.02908V67.1435V67.1273ZM54.8932 69.5899H16.6019V47.9919H30.9591C31.6212 47.9919 32.1542 47.455 32.1542 46.7929C32.1542 46.1309 31.6172 45.5939 30.9591 45.5939H16.6019V40.7939H27.3698C28.0319 40.7939 28.5649 40.257 28.5649 39.595C28.5649 38.9329 28.0279 38.396 27.3698 38.396H16.6019V33.596H48.413L43.6286 38.396H32.1582C31.4961 38.396 30.9631 38.9329 30.9631 39.595C30.9631 40.257 31.5001 40.7939 32.1582 40.7939H41.2344L30.1153 51.9441C29.9295 52.1258 29.8125 52.364 29.7761 52.6224L28.581 61.0193C28.4882 61.6733 28.9404 62.2829 29.5944 62.3758C29.651 62.3838 29.7075 62.3879 29.764 62.3879C29.8205 62.3879 29.8771 62.3838 29.9336 62.3758L38.3113 61.1768C38.5657 61.1404 38.8039 61.0193 38.9856 60.8377L54.8932 44.8875V69.5859V69.5899ZM69.105 27.2458L66.8561 29.4984L61.3692 23.996L63.6181 21.7433C64.0865 21.275 64.8415 21.275 65.3098 21.7433L69.105 25.5502C69.5693 26.0185 69.5693 26.7775 69.105 27.2458Z" fill="#665251"/>
</g>
</svg>
