<svg width="71" height="69" viewBox="0 0 71 69" fill="none" xmlns="http://www.w3.org/2000/svg">
<g clip-path="url(#clip0_719_10943)">
<path d="M45.2217 7.96641L25.9153 1.70976C24.702 1.3155 23.3901 1.3155 22.1806 1.70976L1.1377 8.52649V67.8946L22.8517 60.8605C23.6252 60.61 24.4669 60.61 25.2404 60.8605L45.2937 67.3567C46.3705 67.7067 47.5345 67.7067 48.6113 67.3567L69.859 60.4736V1.10547L48.6834 7.96641C47.5573 8.3312 46.3402 8.3312 45.2179 7.96641H45.2217Z" fill="#FFE77B"/>
<path d="M1.13746 69.0006C0.902382 69.0006 0.667307 68.9305 0.47394 68.7905C0.178201 68.5842 0 68.2489 0 67.8951V8.52699C0 8.05166 0.314696 7.62792 0.777262 7.47685L21.8164 0.663807C23.2534 0.199533 24.8345 0.199533 26.2714 0.663807L45.5779 6.91677C46.4651 7.20418 47.4395 7.20418 48.3267 6.91677L69.5023 0.0558291C69.8474 -0.0547124 70.2303 0.000558378 70.5261 0.206903C70.8218 0.413247 71 0.748556 71 1.10229V60.4704C71 60.9458 70.6853 61.3695 70.2227 61.5206L48.9751 68.4036C47.6746 68.8274 46.2376 68.8237 44.9371 68.4036L24.8837 61.9075C24.3453 61.7343 23.7539 61.7343 23.2155 61.9075L1.49765 68.9453C1.38011 68.9821 1.25878 69.0006 1.13746 69.0006ZM24.0458 59.5677C24.5728 59.5677 25.0999 59.6488 25.6003 59.8109L45.6537 66.307C46.4916 66.5797 47.413 66.5797 48.2509 66.307L68.7213 59.6745V2.63882L49.0433 9.01338C47.6935 9.45186 46.2073 9.45186 44.8575 9.01338L25.5548 2.76041C24.5804 2.44721 23.5112 2.44721 22.5368 2.76041L2.27491 9.32289V66.3586L22.4913 59.8109C22.9918 59.6488 23.5188 59.5677 24.0458 59.5677Z" fill="#665251"/>
<path d="M24.4743 2.48047L24.0459 59.9178V59.5678C24.6791 59.6231 25.9682 59.9805 26.5711 60.1758L45.8699 66.3735L46.0215 66.4066L46.6396 66.484L46.8178 9.33773L46.1732 9.30088C46.1163 9.29719 45.3884 9.15718 45.3315 9.13875L26.1426 2.90421C25.7217 2.71629 24.9634 2.52837 24.4743 2.48047Z" fill="#FCD836"/>
<path d="M22.9843 16.2159C23.2497 16.3669 23.4165 16.6801 23.4203 17.2107C23.4468 19.031 22.9956 20.7886 22.9009 22.5794C22.8591 23.3458 23.1928 23.8985 23.5227 24.5912C24.0193 25.6266 23.3672 26.3046 23.4772 27.3437C23.5075 27.6053 23.7426 27.7085 23.7464 27.9922C23.7805 29.5361 21.4752 32.8634 19.4164 32.4507C18.1842 32.2039 19.3558 30.2141 18.7567 29.3519C18.5292 29.0313 16.9102 28.5449 16.4211 28.5597C14.8022 28.6039 15.8638 30.3173 16.1823 30.9695C16.8268 32.2923 17.0543 33.6999 17.9567 34.9969C17.4486 34.5621 16.8685 34.2157 16.2391 33.9725C15.3216 33.6077 14.5178 33.9946 13.7254 33.6409C12.55 33.125 12.459 31.8759 11.8486 30.9695C11.2685 30.1109 9.66086 30.0851 8.89877 29.1308C8.15184 28.1912 8.33383 27.0342 8.68644 26.0062C9.10351 24.7939 9.66844 23.9169 10.5443 22.8668C11.1585 22.1409 12.0192 21.065 10.9045 20.387C9.8694 19.7532 8.7926 20.0811 7.86368 20.5712C6.88168 21.0871 6.40774 21.1129 6.13096 19.9817C5.85038 18.8578 7.41249 18.0619 8.20113 17.3839C11.0675 14.9299 15.3368 16.1422 17.7292 18.4488C17.8695 18.5851 21.6686 15.4716 22.9767 16.2159H22.9843ZM13.0315 41.7878C13.2628 43.0627 14.7832 42.2816 15.1927 43.2691C15.5188 44.0502 14.6088 45.1041 14.5747 45.841C16.7548 46.32 17.9984 48.0555 17.9908 50.1853C17.9719 53.2473 19.0259 56.4198 21.5207 58.2032C21.6876 57.5842 21.8771 56.932 21.9606 56.2651C22.2828 53.6636 21.7482 51.3717 23.7919 49.2457C24.6753 48.3282 24.4971 47.9671 24.4288 46.8138C24.3909 46.2279 24.516 44.8277 25.0051 44.5108C25.6194 44.7945 26.863 44.953 27.409 44.485C27.7692 44.1681 28.19 42.3958 28.2659 41.9168C28.5047 40.4171 27.9587 39.2196 27.0601 38.081C26.3208 37.1414 25.1758 36.3455 23.9776 36.106C22.7985 35.8702 21.5207 36.0249 20.4098 35.5017C19.8904 35.2548 19.443 34.9121 18.9084 34.68C18.2676 34.4036 17.0126 34.1973 16.5311 33.7072C17.2401 34.4257 17.7482 35.4833 17.7292 36.4892C17.7065 37.5393 17.0695 37.6757 16.2467 38.1657C15.0827 38.8548 12.7358 40.1555 13.0315 41.7878ZM29.1303 13.0286C26.2184 12.3359 24.1028 14.6904 24.971 17.4281C26.3928 21.9198 29.3464 14.8599 29.1303 13.0286ZM28.008 24.9671C28.0725 26.1646 28.463 27.3253 29.6308 27.5869C30.3853 27.7527 31.2384 27.4395 31.701 26.651C32.3493 25.5345 30.5711 22.5757 32.5768 22.7194C34.0176 22.8226 34.0745 24.9892 34.5219 25.9251C34.6356 25.9841 34.7721 25.9841 34.8858 25.9251C35.2157 25.015 35.0299 23.9722 35.1171 23.0473C36.8119 22.6015 37.7409 25.0297 38.1314 26.2383C38.4575 27.2405 39.1172 27.5795 37.4148 27.9664C36.4972 28.1765 35.8299 27.9775 35.2119 27.2553C34.1844 27.9333 33.6271 28.6813 32.5086 29.2413C29.3578 30.8221 28.5199 35.4575 30.1882 38.6042C31.3332 40.7635 33.9797 38.7958 35.356 38.1399C35.2953 39.3522 36.3987 40.5682 36.7816 41.6994C37.8925 44.9714 37.0925 48.0924 37.0698 51.4528C37.066 52.1308 37.2366 54.7101 38.1238 54.8649C39.1437 55.0417 40.0234 51.9908 40.2471 51.2796C41.176 48.3466 41.1874 45.3178 42.8632 42.6021C43.5116 41.5483 44.6831 40.6677 44.1447 39.3375C43.6026 37.9999 40.8613 37.742 41.1608 36.0028C41.0774 36.4966 43.8831 39.0169 44.5201 39.0832C47.4813 39.3854 44.6869 35.5533 45.5779 34.5879C47.0111 33.0366 48.0614 36.8761 48.1372 37.6057C48.3609 39.5917 47.9363 41.563 47.9021 43.5491C47.8908 44.3782 47.6557 47.7976 49.2557 47.3038C50.5031 46.9206 49.8927 44.2713 50.0595 43.3464C50.215 42.4879 51.1477 39.2269 51.906 38.8327C53.5705 37.9815 54.4615 41.622 56.5051 41.5483C56.9904 39.8644 56.5582 39.0537 57.8852 37.8304C58.8634 36.9277 60.3573 36.3455 60.9374 34.9969C61.3886 33.9578 61.5364 31.8391 61.2255 30.7595C60.6341 28.7034 58.6208 29.5251 56.7326 29.0497C56.6492 27.9959 57.779 27.4874 57.8208 26.3857C57.8473 25.8367 56.9525 25.833 57.0473 25.1439C57.1079 24.7128 57.7715 24.0164 58.0596 23.659C59.0568 22.3841 60.4634 21.6029 61.9156 22.9773C62.109 22.0598 61.9042 20.9876 60.7895 20.995C60.7099 19.8601 59.9288 17.2071 58.6852 16.6138C57.5174 16.0464 57.4643 16.8533 56.5165 17.745C55.47 18.7288 54.1695 19.3663 53.2861 20.3243C52.4671 21.216 50.7875 23.3679 49.6386 22.5167C49.0244 22.0561 49.1647 20.4201 48.7059 19.7458C48.0955 18.8468 47.705 18.6846 46.5713 18.5188C46.6926 18.3198 46.7192 17.8187 46.8708 17.5903C46.522 17.7082 45.9078 17.594 45.5628 17.7082C45.5097 16.3043 47.7164 16.2527 48.2244 15.291C47.2614 15.2136 46.3704 15.1842 45.5286 15.7184C44.85 16.1495 44.6907 17.1481 44.0537 17.4429C42.4348 18.213 38.5485 15.6042 36.7702 15.2247C34.1958 14.6757 32.8233 15.7295 31.7995 18.0398C31.1209 17.9145 30.3133 17.6971 29.7825 18.2277C30.1844 18.7436 30.7872 18.9905 31.4659 19.0826C31.5228 19.3331 31.5228 19.5911 31.4659 19.8416C30.901 19.9595 29.4602 20.866 29.1152 21.1829C28.3682 21.8682 28.2545 22.1409 28.1066 23.1616C28.0156 23.7622 27.9853 24.3702 28.0118 24.9744L28.008 24.9671ZM54.3288 48.1439C53.6539 49.4483 52.2548 54.3858 53.9875 54.7212C56.088 55.1191 56.9525 51.8029 59.0302 52.2892C59.216 53.2546 59.9743 53.5052 60.5506 52.713C60.9108 52.2229 60.5089 50.6532 60.4255 50.1226C60.1298 48.1845 59.7393 47.0091 60.217 45.0377C59.8189 45.3694 58.7421 47.0127 58.3554 47.1233C56.7288 47.5949 57.6463 45.6973 58.071 45.0819C55.1629 46.051 52.9183 49.5699 53.1496 52.584" fill="#F78004"/>
</g>
<defs>
<clipPath id="clip0_719_10943">
<rect width="71" height="69" fill="white"/>
</clipPath>
</defs>
</svg>
