<svg width="62" height="60" viewBox="0 0 62 60" fill="none" xmlns="http://www.w3.org/2000/svg">
<path d="M30.9638 39.6336L21.8721 48.4091V48.4237L30.9714 39.6409C30.9714 39.6409 30.9714 39.6409 30.9638 39.6409V39.6336ZM41.0184 29.9155C41.0184 29.9155 41.0184 29.9155 41.0184 29.9082L41.0109 29.9155C42.0945 33.0794 42.0945 36.477 41.0109 39.6372C41.0109 39.6372 41.0184 39.6372 41.0222 39.6372C42.1096 36.477 42.1096 33.083 41.0222 29.9192L41.0184 29.9155ZM32.2853 31.6217C32.4439 31.9176 32.5798 32.2245 32.6893 32.535C32.5798 32.2208 32.4477 31.9176 32.2853 31.6217ZM31.0356 39.5642L30.9638 39.6336L21.8721 48.4091V48.4237L30.9714 39.6409L31.0394 39.5715H31.0318L31.0356 39.5642Z" fill="#5A5A5A"/>
<path d="M41.0078 39.6364C41.0078 39.6364 41.0153 39.6364 41.0191 39.6364C40.2715 41.7956 39.0142 43.8305 37.2283 45.5549L28.0611 54.4072C22.0766 60.1978 12.1014 60.5157 5.78848 54.4072C-0.350737 48.4631 -0.350737 38.8107 5.7847 32.8739L14.952 23.9998C16.7152 22.2937 18.7918 21.0515 21.0685 20.3318C19.9812 23.4956 19.9812 26.8897 21.0685 30.0535L11.9654 38.8363C9.24697 41.4777 9.2583 45.8143 11.9654 48.4192C14.6613 51.0278 19.0939 51.1045 21.869 48.4192L30.9683 39.6364L31.0363 39.567C31.4629 39.1542 31.8216 38.7011 32.1123 38.2189C32.1576 38.1458 32.1992 38.0764 32.2407 37.9997C32.3615 37.7805 32.471 37.5503 32.5654 37.3238C32.6069 37.2215 32.6447 37.1229 32.6824 37.0169C33.0902 35.8807 33.1771 34.6568 32.9467 33.4841C32.8863 33.1589 32.7995 32.8447 32.6824 32.5342C32.573 32.22 32.4408 31.9168 32.2785 31.6208C32.1199 31.3249 31.9386 31.0399 31.7272 30.7659C31.5195 30.4919 31.293 30.2289 31.0363 29.9804C28.3178 27.339 28.3178 23.0353 31.0363 20.3975L31.108 20.3281C33.3847 21.0515 35.4613 22.2937 37.2208 23.9962C39.0029 25.7206 40.264 27.7555 41.0115 29.9037L41.004 29.911C42.0876 33.0749 42.0876 36.4726 41.004 39.6328L41.0078 39.6364Z" fill="#FFB400"/>
<path d="M16.9225 60.0011C12.588 60.0011 8.2498 58.4046 4.94988 55.2115C1.75945 52.1244 0 48.0143 0 43.6375C0 39.2607 1.75568 35.1506 4.94988 32.0635L14.1172 23.1894C16.0125 21.3553 18.2289 20.0255 20.7019 19.24L22.9333 18.5312L22.1933 20.6868C21.1814 23.6314 21.1814 26.7441 22.1933 29.6851L22.4236 30.3573L12.8032 39.6407C11.7159 40.6965 11.1155 42.1177 11.1155 43.6339C11.1155 45.1464 11.7159 46.5566 12.8032 47.6051C13.8982 48.6609 15.3518 49.2491 16.8998 49.2565C18.4592 49.2674 19.9317 48.6792 21.0417 47.6051L30.2241 38.7383C30.5715 38.3949 30.8622 38.0295 31.1038 37.6313C31.1416 37.5728 31.1718 37.5217 31.202 37.4669C31.3039 37.2842 31.3946 37.0942 31.4776 36.8933C31.5116 36.8093 31.5456 36.7252 31.5758 36.6376C31.9156 35.6913 31.9911 34.6757 31.7948 33.6929C31.7419 33.4189 31.6702 33.1632 31.5796 32.9111C31.4852 32.6371 31.3757 32.3886 31.2435 32.1512L31.1454 31.9722C31.0359 31.7858 30.915 31.6068 30.7867 31.4351C30.6092 31.1976 30.4167 30.9821 30.209 30.7811C27.0299 27.6904 27.0299 22.6669 30.209 19.5798L30.798 19.0135L31.4889 19.2327C33.962 20.0182 36.1783 21.3444 38.0699 23.182C39.9351 24.9868 41.3056 27.1241 42.1438 29.5353L42.3779 30.2076L42.3553 30.2295C43.2841 33.3714 43.235 36.6558 42.208 39.7795V39.8124L42.1476 39.9914C41.3132 42.4063 39.9389 44.5472 38.0699 46.352L28.9026 55.2042C25.6027 58.3973 21.2683 59.9938 16.93 59.9938L16.9225 60.0011ZM19.3389 22.2723C18.0514 22.9227 16.8621 23.7702 15.7898 24.8078L6.6225 33.682C3.8776 36.338 2.36733 39.8745 2.36733 43.6375C2.36733 47.4005 3.8776 50.937 6.6225 53.5931C12.3011 59.0878 21.5439 59.0878 27.2225 53.5931L36.3935 44.7408C37.8849 43.3014 39.0063 41.6135 39.735 39.7247L39.8898 39.2753C40.8979 36.3307 40.8979 33.218 39.8898 30.2733L39.7501 29.8605C39.0214 27.9571 37.8962 26.2582 36.3935 24.8078C34.9474 23.4086 33.2937 22.3527 31.4587 21.6622C29.6313 23.8725 29.771 27.1241 31.8816 29.1736C32.1723 29.455 32.448 29.7655 32.6934 30.0943C32.9275 30.4012 33.1465 30.741 33.3352 31.0917L33.4712 31.3511C33.6033 31.6178 33.7204 31.8954 33.8147 32.1731C33.9431 32.5165 34.0488 32.8965 34.1206 33.2801C34.3924 34.6465 34.2867 36.0713 33.811 37.3938C33.7732 37.5034 33.7279 37.613 33.6864 37.7226C33.558 38.0295 33.4296 38.2962 33.2937 38.5446C33.2522 38.6214 33.1993 38.709 33.1465 38.7931C32.7878 39.3813 32.3649 39.911 31.8816 40.375L31.4625 40.7769L22.7106 49.2272C21.1512 50.7361 19.0897 51.5544 16.8847 51.5471C14.7099 51.5362 12.6673 50.7105 11.1344 49.2272C9.60149 47.7512 8.75574 45.7674 8.75196 43.6375C8.75196 41.5112 9.59393 39.5165 11.1306 38.0259L19.7278 29.729C19.0029 27.2812 18.8745 24.7494 19.3351 22.2723H19.3389Z" fill="#665251"/>
<path d="M30.9717 39.6358L31.0434 39.5664L30.9755 39.6358H30.9717Z" fill="#5A5A5A"/>
<path d="M32.6892 32.5344C32.5759 32.2239 32.4437 31.9207 32.2852 31.6211C32.4475 31.9134 32.5834 32.2203 32.6892 32.5344Z" fill="#5A5A5A"/>
<path d="M41.0191 39.6333C41.0191 39.6333 41.0116 39.6333 41.0078 39.6333C42.0914 36.4731 42.0914 33.0755 41.0078 29.9116L41.0154 29.9043C41.0154 29.9043 41.0154 29.9043 41.0154 29.9116C42.1028 33.0755 42.1028 36.4695 41.0154 39.6297L41.0191 39.6333Z" fill="#5A5A5A"/>
<path d="M49.6046 50.3374L47.1316 47.9444C46.4444 47.2795 46.4444 46.2054 47.1316 45.5514C47.8188 44.8865 48.9288 44.8865 49.6046 45.5514L52.0777 47.9444C52.7649 48.6093 52.7649 49.6834 52.0777 50.3374C51.3905 51.0023 50.2805 51.0023 49.6046 50.3374Z" fill="#FCD836"/>
<path d="M12.4826 14.4134L10.0095 12.0204C9.32235 11.3555 9.32235 10.2814 10.0095 9.6274C10.6967 8.97344 11.8067 8.96248 12.4826 9.6274L14.9556 12.0204C15.6428 12.6853 15.6428 13.7594 14.9556 14.4134C14.2685 15.0673 13.1584 15.0783 12.4826 14.4134Z" fill="#FCD836"/>
<path d="M53.0251 35.6843C53.2705 34.7819 54.2371 34.2375 55.1734 34.486L58.5564 35.3664C59.489 35.6039 60.0365 36.5392 59.7948 37.4452C59.5532 38.3513 58.5828 38.892 57.6465 38.6435L54.2635 37.7631C53.3309 37.5256 52.7683 36.6013 53.0251 35.6843Z" fill="#FCD836"/>
<path d="M2.30633 22.5319C2.55175 21.6295 3.51832 21.0852 4.45468 21.3336L7.83766 22.2141C8.77025 22.4516 9.31772 23.3868 9.07608 24.2929C8.83444 25.1989 7.86409 25.7396 6.92773 25.4912L3.54475 24.6107C2.61216 24.3733 2.04959 23.4489 2.30633 22.5319Z" fill="#FCD836"/>
<path d="M36.5974 56.5924L35.6875 53.3189C35.4421 52.4165 35.9895 51.4885 36.9259 51.2401C37.8623 50.9917 38.8175 51.5324 39.0742 52.4384L39.9842 55.7119C40.2296 56.6143 39.6821 57.5422 38.7458 57.7907C37.8018 58.0282 36.8541 57.4874 36.5974 56.5924Z" fill="#FCD836"/>
<path d="M23.0163 7.51634L22.1064 4.24288C21.861 3.34049 22.4085 2.41252 23.3448 2.16409C24.2774 1.92662 25.2364 2.45636 25.4932 3.36241L26.4031 6.63587C26.6485 7.53826 26.1011 8.46623 25.1647 8.71466C24.2208 8.95213 23.2731 8.41143 23.0163 7.51634Z" fill="#FCD836"/>
<path d="M56.2946 27.0804L47.1235 35.929C45.9871 37.0286 44.6845 37.942 43.2913 38.6544C43.0911 38.7567 42.891 38.8517 42.6871 38.9467C42.5474 39.0088 42.4153 39.0709 42.2756 39.1257C42.0679 39.2097 41.8641 39.2974 41.6526 39.3741C41.445 39.4508 41.2335 39.5239 41.0259 39.597C42.1132 36.4368 42.1132 33.0428 41.0259 29.8789L50.129 21.0998C51.8846 19.4009 52.5076 16.997 51.9904 14.8013C51.979 14.7465 51.9677 14.6917 51.9488 14.6369C51.9224 14.5273 51.8922 14.4213 51.8582 14.3117C51.7902 14.0962 51.7147 13.8843 51.6203 13.676C51.4995 13.3947 51.356 13.1207 51.1937 12.8576C50.8992 12.3754 50.5405 11.926 50.1176 11.5132C48.8339 10.271 47.082 9.57323 45.7417 9.57323C45.6359 9.52574 45.2168 9.50382 45.1715 9.55131C43.2913 9.55131 41.5658 10.2162 40.2254 11.5168L31.1223 20.2997L31.0506 20.3691C28.3321 23.0105 28.3321 27.3142 31.0506 29.952C31.3073 30.2004 31.5376 30.4634 31.7415 30.7375C31.9492 31.0115 32.1342 31.2964 32.2928 31.5887C32.4513 31.8883 32.5873 32.1915 32.6968 32.5021C32.81 32.8126 32.9007 33.1304 32.9611 33.4519C33.1952 34.6247 33.1045 35.8486 32.6968 36.9848C32.659 37.0907 32.6175 37.1894 32.5797 37.2917C32.4853 37.5218 32.3758 37.7484 32.255 37.9676C32.2135 38.0443 32.172 38.1137 32.1266 38.1868C31.8321 38.669 31.4735 39.122 31.0506 39.5349H31.043L30.9713 39.6006C29.68 39.1841 28.4605 38.6069 27.3278 37.8835C26.8294 37.5584 26.3461 37.2113 25.8779 36.8313C25.5268 36.55 25.1908 36.2505 24.8661 35.9326C23.084 34.2082 21.8229 32.1732 21.0753 30.0177C19.9879 26.8539 19.9879 23.4599 21.0753 20.296C21.8229 18.1405 23.0802 16.1092 24.8661 14.3811L34.0371 5.5289C40.1952 -0.433466 50.4008 -0.188688 56.3097 5.5289C62.2186 11.2465 62.4338 21.1472 56.2984 27.084L56.2946 27.0804Z" fill="#F78004"/>
<path d="M31.2704 40.926L31.1118 40.8456L30.5908 40.6776C29.2051 40.2282 27.8874 39.6071 26.6716 38.8326C26.128 38.4782 25.6031 38.1019 25.1123 37.7C24.7461 37.4078 24.376 37.079 24.0211 36.7319C22.156 34.9271 20.7854 32.7862 19.951 30.375C18.7768 26.9554 18.7768 23.3458 19.951 19.9298C20.7854 17.5222 22.156 15.3813 24.0249 13.5693L33.1997 4.71338C36.3713 1.64086 40.6567 -0.0324052 45.2705 0.000475532C49.7522 0.0333562 54.0791 1.75411 57.1412 4.71338C63.6277 10.9899 63.624 21.5995 57.1298 27.887L47.9588 36.7392C46.7619 37.8973 45.3762 38.8838 43.8433 39.6656C43.6357 39.7715 43.4242 39.8702 43.2128 39.9688L43.1184 40.0127C42.9862 40.0711 42.8579 40.1296 42.7257 40.1807C42.5181 40.2647 42.2991 40.3561 42.0801 40.4401C41.8611 40.5241 41.6383 40.5972 41.4193 40.6739L41.2268 40.7397H39.3843L39.8978 39.2345C40.9096 36.2935 40.9096 33.1844 39.8978 30.2398L39.6674 29.5675L49.2878 20.2879C50.7037 18.9178 51.2776 16.9596 50.8321 15.0525L50.8207 14.9941C50.8207 14.9941 50.8132 14.9685 50.8094 14.9539L50.7943 14.9027C50.7716 14.8151 50.749 14.731 50.7226 14.6434C50.6621 14.4534 50.598 14.2817 50.5262 14.1173C50.4243 13.8798 50.3035 13.6496 50.1713 13.4377C49.9221 13.0322 49.6201 12.6559 49.2765 12.3198C48.1362 11.2165 46.6411 10.7123 45.7349 10.7123H45.4819L45.4291 10.6904H45.1648C43.5752 10.6904 42.1556 11.253 41.0531 12.3198L31.8783 21.172C29.6167 23.3677 29.6167 26.9407 31.8783 29.1401C32.169 29.4214 32.4446 29.732 32.69 30.0608C32.9241 30.3676 33.1431 30.7074 33.3319 31.0581L33.4678 31.3248C33.5962 31.5879 33.7095 31.8582 33.8076 32.1286C33.9398 32.4866 34.0455 32.8666 34.1172 33.2502C34.3891 34.6166 34.2834 36.0414 33.8076 37.3639C33.7699 37.4735 33.7246 37.5831 33.683 37.6927C33.5547 37.9996 33.4263 38.2663 33.2904 38.5148C33.2488 38.5915 33.196 38.6792 33.1431 38.7632C32.7844 39.3514 32.3616 39.8811 31.8783 40.3451L31.2704 40.9333V40.926ZM45.1308 2.28751C41.2041 2.28751 37.5644 3.71965 34.8648 6.33184L25.69 15.1841C24.0815 16.7441 22.9035 18.5817 22.1862 20.6532C21.1743 23.5942 21.1743 26.7069 22.1862 29.6516C22.9035 31.7231 24.0815 33.5644 25.69 35.1171C25.9958 35.4167 26.3054 35.6907 26.6188 35.9428C27.0492 36.2935 27.5023 36.6223 27.9705 36.9255C28.8011 37.4553 29.6922 37.901 30.6248 38.259C30.7947 38.0508 30.9532 37.8316 31.0967 37.5978C31.1345 37.5393 31.1647 37.4881 31.1949 37.4333C31.2968 37.2507 31.3874 37.0607 31.4705 36.8598C31.5045 36.7757 31.5385 36.6917 31.5687 36.604C31.9085 35.6578 31.984 34.6421 31.7877 33.6594C31.7348 33.3854 31.6631 33.1296 31.5724 32.8775C31.4781 32.6108 31.361 32.3551 31.2289 32.1067L31.1798 32.0153C31.059 31.8034 30.9268 31.5988 30.7796 31.4052C30.6021 31.1677 30.4095 30.9522 30.2019 30.7513C27.0228 27.6605 27.0228 22.637 30.2019 19.5499L39.3767 10.694C40.8945 9.22534 42.839 8.43255 45.0062 8.39602C45.312 8.34122 45.6179 8.3741 45.8482 8.41794C47.5586 8.45813 49.5483 9.34225 50.9453 10.694C51.4324 11.1653 51.8552 11.6914 52.2026 12.265C52.3876 12.5682 52.5575 12.8934 52.701 13.2258C52.8029 13.4633 52.8936 13.7081 52.9766 13.9748C53.0144 14.0953 53.0484 14.2159 53.0786 14.3365C53.1012 14.4132 53.1201 14.4863 53.1352 14.5666C53.7544 17.2409 52.9389 19.981 50.9529 21.9063L42.3557 30.1996C43.0769 32.6401 43.209 35.1646 42.7522 37.6343C44.0699 36.9584 45.2592 36.1145 46.2824 35.1207L55.4534 26.2722C61.0376 20.8651 61.0452 11.7352 55.4648 6.33549C52.8369 3.79272 49.1141 2.32039 45.2479 2.29117C45.2063 2.29117 45.1686 2.29117 45.127 2.29117L45.1308 2.28751Z" fill="#665251"/>
<path d="M41.0229 34.7656L41.0186 34.77V34.7656H41.0229Z" fill="#FF9F00"/>
</svg>
