<svg width="81" height="71" viewBox="0 0 81 71" fill="none" xmlns="http://www.w3.org/2000/svg">
<g clip-path="url(#clip0_719_10972)">
<path d="M20.3916 34.9594C20.3881 49.0979 31.8554 60.5649 46.0074 60.5685C60.1594 60.572 71.6374 49.1156 71.6409 34.9771V34.9594C71.6409 20.8209 60.17 9.35742 46.0145 9.35742C31.8589 9.35742 20.3916 20.8209 20.3916 34.9594Z" fill="#F9B438"/>
<path d="M25.1914 34.959C25.1914 46.4472 34.5152 55.7622 46.0144 55.7622C57.5136 55.7622 66.8374 46.4472 66.8374 34.959C66.8374 23.4708 57.5171 14.1559 46.018 14.1523C34.5188 14.1523 25.1949 23.4638 25.1914 34.952V34.9555V34.959Z" fill="#FFFCEE"/>
<path d="M46.1242 57.7207C33.5992 57.7207 23.4053 47.5399 23.4053 35.0234C23.4053 22.5069 33.5957 12.3262 46.1242 12.3262C58.6527 12.3262 68.8431 22.5069 68.8431 35.0234C68.8431 47.5364 58.6527 57.7207 46.1242 57.7207ZM46.1242 14.5418C34.8196 14.5418 25.6266 23.7296 25.6266 35.0234C25.6266 46.3173 34.8231 55.5015 46.1242 55.5015C57.4253 55.5015 66.6253 46.3137 66.6253 35.0234C66.6253 23.7331 57.4288 14.5418 46.1242 14.5418Z" fill="#665251"/>
<path d="M46.1242 62.5163C30.95 62.5163 18.6055 50.1836 18.6055 35.0238C18.6055 19.864 30.95 7.53125 46.1242 7.53125C61.2985 7.53125 73.643 19.864 73.643 35.0238C73.643 50.1836 61.2985 62.5163 46.1242 62.5163ZM46.1242 9.74691C32.1739 9.74691 20.8232 21.0867 20.8232 35.0238C20.8232 48.9609 32.1739 60.3007 46.1242 60.3007C60.0746 60.3007 71.4252 48.9609 71.4252 35.0238C71.4252 21.0867 60.0746 9.74691 46.1242 9.74691Z" fill="#300604"/>
<path d="M46.1239 62.5155C30.9497 62.5155 18.6051 50.1827 18.6051 35.0229C18.6051 19.8632 30.9497 7.53041 46.1239 7.53041C61.2981 7.53041 73.6427 19.8632 73.6427 35.0229C73.6427 50.1827 61.2981 62.5155 46.1239 62.5155ZM46.1239 9.74607C32.1735 9.74607 20.8229 21.0859 20.8229 35.0229C20.8229 48.96 32.1735 60.2998 46.1239 60.2998C60.0743 60.2998 71.4249 48.96 71.4249 35.0229C71.4249 21.0859 60.0743 9.74607 46.1239 9.74607ZM19.8254 15.3718L18.0498 14.0431C21.6117 9.29375 26.3479 5.49851 31.742 3.07082L32.6546 5.09213C27.6 7.36432 23.1645 10.9193 19.8254 15.3718ZM72.532 15.5237C66.3562 7.19117 56.4841 2.21566 46.1239 2.21566V0C57.1845 0 67.7251 5.31122 74.3183 14.2057L72.5356 15.5237H72.532Z" fill="#665251"/>
<path d="M45.0134 16.1992H47.2312V18.9626H45.0134V16.1992ZM37.6598 18.1675L39.0428 20.5599L37.1221 21.6695L35.7391 19.2771L37.6598 18.1675ZM30.3591 24.6519L32.7538 26.0336L31.6431 27.9525L29.2485 26.5708L30.3591 24.6519ZM27.2783 33.9174H30.0443V36.1331H27.2783V33.9174ZM31.6431 42.098L32.7538 44.0169L30.3591 45.3986L29.2485 43.4797L31.6431 42.098ZM37.1221 48.3846L39.0428 49.4942L37.6598 51.8865L35.7391 50.7769L37.1221 48.3846ZM45.0134 51.0879H47.2312V53.8513H45.0134V51.0879ZM55.1225 48.3846L56.5055 50.7769L54.5849 51.8865L53.2019 49.4942L55.1225 48.3846ZM60.605 42.098L62.9997 43.4797L61.889 45.3986L59.4944 44.0169L60.605 42.098ZM62.2038 33.9174H64.9698V36.1331H62.2038V33.9174ZM61.889 24.6519L62.9997 26.5708L60.605 27.9525L59.4944 26.0336L61.889 24.6519ZM54.5849 18.1675L56.5055 19.2771L55.1225 21.6695L53.2019 20.5599L54.5849 18.1675Z" fill="#665251"/>
<path d="M42.9127 42.5172L41.0098 41.3758L45.0102 34.7111V23.2441H47.228V35.326L42.9092 42.5172H42.9127Z" fill="#665251"/>
<path d="M23.9317 49.3202C22.7397 50.1648 21.286 50.663 19.7119 50.663C15.6726 50.663 12.3936 47.3908 12.3936 43.3517C12.3936 39.3127 15.669 36.0404 19.7119 36.0404C19.719 36.0404 19.7296 36.0404 19.7367 36.0404C19.7226 35.7012 19.7119 35.3584 19.7119 35.0156C19.7119 31.443 20.4264 28.04 21.714 24.9303C21.5937 24.8066 21.4274 24.7324 21.2435 24.7324H18.1839C17.8514 24.7324 17.572 24.9763 17.526 25.3049L17.1228 28.1142C17.0839 28.3934 16.8681 28.6125 16.5922 28.6725C15.2269 28.9623 13.9075 29.4394 12.6766 30.0966C12.4255 30.2309 12.1213 30.1991 11.9091 30.0083L9.79387 28.1142C9.54627 27.8916 9.17487 27.8881 8.9202 28.1001L6.57509 30.0648C6.32042 30.2769 6.26382 30.6444 6.43714 30.9271L7.93688 33.3371C8.08544 33.5774 8.06422 33.8813 7.8909 34.1039C7.03138 35.2029 6.32749 36.415 5.804 37.7083C5.69788 37.9698 5.44321 38.143 5.16378 38.1324L2.32701 38.0405C1.99452 38.0299 1.70802 38.2631 1.64788 38.5882L1.11732 41.599C1.06072 41.9241 1.25173 42.2421 1.56653 42.3481L4.26889 43.2316C4.53771 43.3199 4.7181 43.5673 4.72871 43.85C4.7747 45.1999 5.00107 46.5851 5.42553 47.988C5.50688 48.253 5.42199 48.5393 5.20269 48.7124L2.99906 50.4404C2.73732 50.6454 2.66657 51.0093 2.83282 51.2956L4.36439 53.9424C4.53064 54.2286 4.88081 54.3487 5.18854 54.2286L7.62208 53.2533C7.88029 53.1508 8.18094 53.2144 8.36487 53.4229C9.3305 54.5219 10.4659 55.4548 11.7322 56.1898C11.9763 56.3312 12.1001 56.6209 12.0399 56.8966L11.4917 59.5115C11.4245 59.8366 11.6049 60.1618 11.9161 60.2748L14.7918 61.3208C15.1031 61.4339 15.4497 61.2996 15.6054 61.0098L16.9424 58.508C17.0733 58.2606 17.3491 58.1263 17.6286 58.1652C19.0611 58.3595 20.4583 58.3489 21.8024 58.1652C22.0818 58.1263 22.3577 58.2606 22.4921 58.508L23.8327 61.0098C23.9883 61.3031 24.335 61.4339 24.6462 61.3208L27.5219 60.2748C27.8332 60.1618 28.0136 59.8366 27.9464 59.5115L27.3627 56.734C27.3061 56.4584 27.4299 56.1792 27.6705 56.0273C28.1338 55.7375 28.5724 55.4195 28.9969 55.0802C27.0409 53.4123 25.336 51.4652 23.9388 49.3096L23.9317 49.3202Z" fill="#F78004"/>
<path d="M24.4131 62.4758C23.7587 62.4758 23.1574 62.1154 22.8462 61.5394L21.6506 59.3061C20.4409 59.458 19.0827 59.4615 17.7704 59.3061L16.5749 61.5359C16.1681 62.2956 15.2166 62.6631 14.4031 62.3663L11.5274 61.3203C10.6997 61.0199 10.2151 60.1471 10.399 59.2884L10.8836 56.9844C9.71992 56.2741 8.66232 55.4048 7.74267 54.4012L5.59917 55.2599C4.79625 55.5815 3.83061 55.2458 3.39909 54.5002L1.86751 51.8499C1.42891 51.0901 1.61638 50.1077 2.30965 49.5671L4.27629 48.0228C3.9155 46.7507 3.6962 45.4644 3.629 44.1852L1.22022 43.3971C0.385461 43.125 -0.127421 42.2663 0.0246751 41.4041L0.555243 38.3934C0.703802 37.5453 1.43952 36.9269 2.30258 36.9269L4.89175 37.0117C5.40109 35.8173 6.05546 34.6935 6.83716 33.6546L5.50013 31.5026C5.03677 30.7569 5.1924 29.771 5.86799 29.2056L8.2131 27.2409C8.86393 26.6931 9.90031 26.7108 10.537 27.2797L12.4223 28.9689C13.5789 28.3823 14.8028 27.937 16.069 27.6437L16.4263 25.1383C16.5501 24.269 17.307 23.6152 18.1842 23.6152H21.2474C21.7214 23.6152 22.1706 23.8025 22.5066 24.1418L23.023 24.6648L22.74 25.3432C21.4667 28.4141 20.8229 31.6651 20.8229 35.0045C20.8229 35.3331 20.8371 35.6618 20.8477 35.9869L20.8901 37.1389H19.6734C16.2671 37.1565 13.5046 39.9305 13.5046 43.3406C13.5046 46.7507 16.2883 49.5423 19.7123 49.5423C20.9998 49.5423 22.2342 49.1465 23.2918 48.4009L24.2362 47.733L24.8623 48.7048C26.1993 50.7721 27.8335 52.6379 29.7082 54.2351L30.7375 55.1115L29.6763 55.949C29.259 56.2776 28.8734 56.5568 28.5055 56.8006L29.0255 59.2778C29.2059 60.133 28.7213 61.0093 27.8972 61.3097L25.0215 62.3557C24.8269 62.4264 24.6218 62.4652 24.4166 62.4617L24.4131 62.4758ZM21.8947 57.0551C22.5526 57.0551 23.1539 57.412 23.4652 57.988L24.6218 60.1542L26.7759 59.3697L26.2701 56.9703C26.118 56.2458 26.4399 55.4931 27.073 55.0974C27.1225 55.0656 27.1756 55.0338 27.2251 54.9984C25.881 53.7298 24.6678 52.3269 23.6031 50.8145C22.404 51.4435 21.0776 51.7686 19.7123 51.7686C15.0645 51.7686 11.2869 47.991 11.2869 43.3512C11.2869 39.086 14.4809 35.5487 18.6052 35.0045C18.6052 31.8559 19.1357 28.7816 20.1792 25.8415H18.5698L18.2231 28.2692C18.117 29.0042 17.5546 29.6014 16.8224 29.7569C15.5597 30.0254 14.3394 30.4672 13.1969 31.075C12.5567 31.4177 11.7148 31.3223 11.1701 30.8347L9.34144 29.1985L7.58703 30.6721L8.88516 32.757C9.27778 33.386 9.22826 34.2059 8.76843 34.7925C7.97258 35.8102 7.32175 36.9339 6.83716 38.1283C6.56127 38.8068 5.91398 39.245 5.18887 39.245L2.67751 39.1637L2.28136 41.4182L4.61585 42.1815C5.32328 42.4112 5.8114 43.0685 5.83616 43.8177C5.8786 45.0969 6.09791 46.3938 6.48699 47.6694C6.70275 48.3797 6.46577 49.1289 5.88568 49.5847L3.98271 51.076L5.12874 53.0584L7.20502 52.2244C7.88769 51.9488 8.71184 52.1432 9.19288 52.6944C10.0772 53.7015 11.1206 54.5602 12.2808 55.2316C12.9387 55.6133 13.2747 56.3731 13.1191 57.1257L12.6486 59.3626L14.8028 60.1436L15.9594 57.9809C16.306 57.3342 17.0241 56.9632 17.7704 57.0621C19.0685 57.2353 20.3773 57.2353 21.6435 57.0621C21.7249 57.0515 21.8098 57.0445 21.8911 57.0445L21.8947 57.0551Z" fill="#665251"/>
<path d="M19.7125 51.7723C15.0648 51.7723 11.2871 47.9947 11.2871 43.3549C11.2871 38.7151 15.0683 34.9375 19.7125 34.9375H20.8055L20.8444 36.0047C21.0177 40.5279 22.4078 44.9239 24.8626 48.7191L25.4391 49.6131L24.5725 50.228C23.14 51.2422 21.4599 51.7758 19.7125 51.7758V51.7723ZM18.6974 37.238C15.7545 37.7221 13.5049 40.2805 13.5049 43.3584C13.5049 46.7791 16.2886 49.5601 19.7125 49.5601C20.6428 49.5601 21.5589 49.3516 22.3972 48.9453C20.2961 45.3762 19.0299 41.3689 18.6974 37.238Z" fill="#665251"/>
<path d="M33.939 63.845L35.4388 65.4775L33.3377 67.3964L34.2079 70.0962L32.0962 70.7746L30.791 66.7179L33.939 63.8379V63.845Z" stroke="#665251" stroke-miterlimit="10"/>
<path d="M74.5059 18.4068L76.4371 17.3184C79.3588 22.4847 80.9328 28.3401 80.9894 34.2521L78.7716 34.2733C78.7186 28.7359 77.2436 23.248 74.5059 18.4068Z" fill="#665251"/>
<path d="M46.0534 70.5129C41.1651 70.5129 36.4325 69.527 31.9863 67.5869L32.8635 65.5869C37.0303 67.4067 41.4693 68.329 46.0534 68.329C54.2596 68.329 62.119 65.2971 68.1887 59.7915C74.216 54.3248 77.9936 46.8792 78.8213 38.8223L80.9966 39.0449C80.1124 47.6354 76.0836 55.5793 69.6566 61.4064C63.1837 67.276 54.8007 70.5094 46.0499 70.5094L46.0534 70.5129Z" fill="#665251"/>
</g>
<defs>
<clipPath id="clip0_719_10972">
<rect width="81" height="71" fill="white"/>
</clipPath>
</defs>
</svg>
