<svg width="116" height="106" viewBox="0 0 116 106" fill="none" xmlns="http://www.w3.org/2000/svg">
<path d="M84.0478 31.621L80.2518 42.1546C77.6626 41.8778 75.0946 42.9393 73.4553 44.9262C73.4007 45.0734 68.147 51.4911 63.3556 57.3287C62.6136 58.2242 61.9704 59.0748 61.2541 59.8957L51.8214 56.454C51.7972 55.3601 51.8427 54.2937 51.842 53.1286C51.883 45.5592 52.0107 37.2701 51.9901 37.0968C51.9545 34.1686 50.3151 31.4826 47.7252 30.0408L51.4431 19.7256L84.0478 31.621Z" fill="#FFE77B"/>
<path d="M66.4412 51.792L69.8404 42.3606C71.2418 38.7021 69.4341 34.6276 65.7452 33.2C62.0562 31.7723 57.9781 33.5346 56.5767 37.1932L56.4419 37.5622L53.0427 46.9935C52.7495 47.8027 53.1819 48.7102 53.9977 49.0093C54.8134 49.3084 55.7215 48.8862 56.0146 48.077L57.0511 45.2037L64.4782 47.9132L63.4417 50.7866C63.1485 51.5958 63.5808 52.5032 64.3966 52.8023C65.2124 53.1014 66.1204 52.6793 66.4136 51.8701L66.4392 51.7954L66.4412 51.792ZM65.5679 44.8871L58.1408 42.1776L59.4159 38.6422C60.0839 36.552 62.2543 35.4275 64.3608 36.1112C66.4672 36.7949 67.6167 38.965 66.9487 41.0553L66.8138 41.4243L65.5388 44.9596L65.5643 44.885L65.5679 44.8871Z" fill="#665251"/>
<path d="M54.9265 29.2216C55.6751 29.6698 56.6416 29.4325 57.0853 28.6915C57.529 27.9505 57.2818 26.9864 56.5332 26.5382C55.7846 26.0899 54.8181 26.3273 54.3744 27.0683C53.9307 27.8093 54.1779 28.7733 54.9265 29.2216Z" fill="#665251"/>
<path d="M75.7243 36.8075C76.473 37.2558 77.4395 37.0184 77.8832 36.2774C78.3269 35.5364 78.0797 34.5724 77.3311 34.1241C76.5825 33.6759 75.6159 33.9132 75.1722 34.6542C74.7285 35.3952 74.9757 36.3593 75.7243 36.8075Z" fill="#665251"/>
<path d="M51.9474 62.4822L52.1635 34.1392C52.1691 31.5576 50.069 29.4574 47.5003 29.3539L19.0171 28.8837C16.4229 28.8548 14.3314 30.926 14.2505 33.4815L14.0344 61.8245C14.0288 64.4061 16.1289 66.5063 18.6976 66.6098L47.1808 67.08C49.6196 67.3046 51.7813 65.5075 51.956 63.1549C52.0362 62.9331 51.9404 62.7337 51.9453 62.4857L51.9474 62.4822ZM47.2255 63.93L18.7423 63.4598C17.8924 63.4812 17.1597 62.7158 17.2037 61.8995L17.4184 33.5508C17.3892 32.7048 18.1517 31.9825 18.9725 32.0337L47.4557 32.5039C48.2764 32.555 49.0382 33.2479 48.9942 34.0642L48.7781 62.4073C48.8073 63.2533 48.1456 63.927 47.2993 63.9505L47.224 63.9244L47.2255 63.93Z" fill="#665251"/>
<path d="M47.2262 63.9288L18.743 63.4586C17.8932 63.48 17.1605 62.7146 17.2045 61.8982L17.4191 33.5496C17.3899 32.7036 18.1524 31.9813 18.9732 32.0325L47.4564 32.5027C48.2771 32.5538 49.0389 33.2467 48.9949 34.063L48.7789 62.4061C48.808 63.2521 48.1463 63.9258 47.3 63.9493L47.2248 63.9232L47.2262 63.9288Z" fill="#F9B438"/>
<path d="M20.7605 60.4638C21.5091 60.912 22.4756 60.6747 22.9193 59.9337C23.363 59.1927 23.1158 58.2286 22.3672 57.7804C21.6186 57.3321 20.652 57.5695 20.2084 58.3105C19.7647 59.0515 20.0119 60.0155 20.7605 60.4638Z" fill="#665251"/>
<path d="M20.7712 37.1298C21.5198 37.578 22.4864 37.3407 22.9301 36.5997C23.3737 35.8587 23.1266 34.8946 22.3779 34.4464C21.6293 33.9981 20.6628 34.2355 20.2191 34.9765C19.7754 35.7175 20.0226 36.6815 20.7712 37.1298Z" fill="#665251"/>
<path d="M43.9997 37.7157C44.7483 38.164 45.7149 37.9266 46.1586 37.1856C46.6023 36.4446 46.3551 35.4806 45.6065 35.0323C44.8578 34.5841 43.8913 34.8214 43.4476 35.5624C43.0039 36.3034 43.2511 37.2675 43.9997 37.7157Z" fill="#665251"/>
<path d="M43.2019 61.1513C43.9505 61.5995 44.917 61.3622 45.3607 60.6212C45.8044 59.8802 45.5572 58.9161 44.8086 58.4679C44.06 58.0196 43.0934 58.257 42.6498 58.998C42.2061 59.739 42.4533 60.703 43.2019 61.1513Z" fill="#665251"/>
<path d="M104.269 59.798L82.1045 41.7926C80.0676 40.2179 77.117 40.4727 75.4777 42.4597L57.5841 64.3559C55.9498 66.0948 55.9647 68.8497 57.8 70.5215C57.9946 70.6759 58.1195 70.8027 58.314 70.9571L80.4781 88.9625C82.5151 90.5372 85.4657 90.2823 87.105 88.2954L104.999 66.3992C106.563 64.3862 106.28 61.4474 104.269 59.798ZM102.525 64.4115L84.6314 86.3078C84.0684 86.9365 83.0922 87.0811 82.4553 86.5151L60.2912 68.5097C59.6288 68.0184 59.4747 67.0455 59.9625 66.3907L77.8561 44.4945C78.4191 43.8658 79.3953 43.7212 80.0321 44.2872L102.196 62.2926C102.833 62.8585 102.987 63.8314 102.424 64.4601L102.525 64.4115Z" fill="#665251"/>
<path d="M102.548 64.3726L84.6541 86.2688C84.0911 86.8975 83.1149 87.0421 82.4781 86.4762L60.314 68.4708C59.6516 67.9794 59.4975 67.0066 59.9852 66.3518L77.8789 44.4555C78.4418 43.8268 79.418 43.6823 80.0549 44.2482L102.219 62.2536C102.856 62.8196 103.01 63.7924 102.447 64.4211L102.548 64.3726Z" fill="#FCD836"/>
<path d="M82.1032 83.1415C82.8519 83.5897 83.8184 83.3524 84.2621 82.6114C84.7058 81.8704 84.4586 80.9063 83.71 80.4581C82.9614 80.0099 81.9948 80.2472 81.5511 80.9882C81.1074 81.7292 81.3546 82.6933 82.1032 83.1415Z" fill="#665251"/>
<path d="M96.9656 65.2196C97.7142 65.6679 98.6807 65.4305 99.1244 64.6895C99.5681 63.9485 99.3209 62.9845 98.5723 62.5362C97.8237 62.088 96.8571 62.3253 96.4134 63.0663C95.9697 63.8073 96.2169 64.7714 96.9656 65.2196Z" fill="#665251"/>
<path d="M78.8269 50.2685C79.5755 50.7167 80.542 50.4794 80.9857 49.7384C81.4294 48.9974 81.1822 48.0333 80.4336 47.585C79.685 47.1368 78.7184 47.3741 78.2748 48.1151C77.8311 48.8561 78.0783 49.8202 78.8269 50.2685Z" fill="#665251"/>
<path d="M64.4392 69.1942C65.1878 69.6425 66.1543 69.4051 66.598 68.6641C67.0417 67.9231 66.7945 66.9591 66.0459 66.5108C65.2973 66.0626 64.3308 66.2999 63.8871 67.0409C63.4434 67.7819 63.6906 68.746 64.4392 69.1942Z" fill="#665251"/>
<path d="M52.337 23.3057C52.6302 22.4965 53.5361 22.0779 54.354 22.3735L81.0922 32.1245C81.908 32.4236 82.3368 33.329 82.0471 34.1403L79.1783 42.0948C80.2773 42.0806 81.3238 42.2101 82.3597 42.5889L85.0155 35.2217C85.8916 32.792 84.6037 30.0703 82.1542 29.1765L55.416 19.4255C52.9666 18.5317 50.2432 19.789 49.3671 22.2187L46.7113 29.5859C47.7507 29.9668 48.6367 30.5399 49.4681 31.2602L52.337 23.3057Z" fill="#665251"/>
<path d="M38.8677 47.7083L38.8933 47.6337C39.939 46.5981 40.5169 45.2255 40.5524 43.7365C40.568 40.659 38.0291 38.1493 34.9364 38.1061L28.4253 37.9808C27.5755 38.0022 26.8365 38.6533 26.8421 39.5704L26.8474 55.41C26.8766 56.256 27.5631 56.9227 28.3859 56.9704L34.7948 57.1386C37.8874 57.1819 40.3609 54.7523 40.4517 51.7009C40.4836 50.2098 39.8411 48.7267 38.7946 47.6787L38.8698 47.7048L38.8677 47.7083ZM30.0996 45.9286L30.0512 41.1605L34.8897 41.2596C36.2379 41.2526 37.3341 42.4013 37.3533 43.7432C37.2994 45.0554 36.1784 46.0649 34.9068 46.1037L29.9932 45.9785L30.094 45.9299L30.0996 45.9286ZM36.7507 53.3529C36.2679 53.7598 35.6637 54.0419 34.9878 54.0443L30.1494 53.9453L30.1302 49.1047L34.9686 49.2038C36.9636 49.2668 38.3048 51.8357 36.7507 53.3529Z" fill="#665251"/>
<path d="M81.5488 73.2035L78.165 70.4673C75.6127 68.4514 75.1213 64.6869 77.1972 62.1944C79.2731 59.702 82.9493 59.2898 85.5017 61.3057L88.8854 64.0419C89.5223 64.6079 90.5737 64.4894 91.087 63.7599C91.6003 63.0305 91.5215 62.0837 90.7838 61.5663L87.4001 58.8301C83.4477 55.8054 77.7715 56.4025 74.6193 60.2532C71.5402 64.1334 72.1658 69.8625 76.1644 72.9858L79.5481 75.722C80.2106 76.2134 81.2364 76.1695 81.7497 75.4401C82.2375 74.7852 82.1842 73.7639 81.4466 73.2464L81.5474 73.1979L81.5488 73.2035Z" fill="#665251"/>
<path d="M51.8794 58.1461L60.2727 61.2069L62.3742 58.6398L51.9035 54.8228L51.8829 58.1482L51.8794 58.1461Z" fill="#665251"/>
</svg>
