<svg width="67" height="77" viewBox="0 0 67 77" fill="none" xmlns="http://www.w3.org/2000/svg">
<g clip-path="url(#clip0_719_10986)">
<path d="M6.44336 14.3413L19.0229 1.9668L20.5948 6.60991L25.3148 8.15619L26.8867 12.7951L31.6024 14.3413L33.1743 18.9802L37.89 20.5307L25.3105 32.9053L6.44336 14.3413Z" fill="#FFFCEE"/>
<path d="M25.3099 34.4049L4.91406 14.3414L19.493 0L21.4449 5.76884L26.1649 7.31513L27.7368 11.954L32.4525 13.5003L34.0244 18.1391L39.8845 20.0635L25.3099 34.4006V34.4049ZM7.96717 14.3414L25.3099 31.4015L35.89 20.9938L32.3186 19.8214L30.7467 15.1825L26.031 13.6362L24.4591 8.99735L19.7391 7.45107L18.5473 3.93369L7.96717 14.3414Z" fill="#665251"/>
<path d="M19.0272 10.6661L9.46622 19.9523C9.05165 20.3389 8.39525 20.3304 7.99364 19.9268C7.60498 19.536 7.60498 18.9158 7.99364 18.525L17.5546 9.23877C17.9691 8.8522 18.6255 8.8607 19.0272 9.26426C19.4158 9.65508 19.4158 10.2753 19.0272 10.6661ZM21.968 13.525L12.407 22.8113C11.9925 23.1978 11.3361 23.1893 10.9345 22.7858C10.5458 22.395 10.5458 21.7747 10.9345 21.3839L20.4954 12.0977C20.91 11.7111 21.5664 11.7196 21.968 12.1232C22.3566 12.514 22.3566 13.1342 21.968 13.525ZM24.9088 16.3797L15.3479 25.6659C14.9333 26.0525 14.2769 26.044 13.8753 25.6405C13.4866 25.2496 13.4866 24.6294 13.8753 24.2386L23.4362 14.9524C23.8508 14.5658 24.5072 14.5743 24.9088 14.9779C25.2975 15.3687 25.2975 15.9889 24.9088 16.3797ZM27.8496 19.2387L18.2887 28.5249C17.8741 28.9115 17.2177 28.903 16.8161 28.4994C16.4275 28.1086 16.4275 27.4884 16.8161 27.0975L26.3771 17.8113C26.7916 17.4247 27.448 17.4332 27.8496 17.8368C28.2383 18.2276 28.2383 18.8478 27.8496 19.2387ZM30.7948 22.0933L21.2339 31.3796C20.8193 31.7661 20.1629 31.7576 19.7613 31.3541C19.3726 30.9633 19.3726 30.343 19.7613 29.9522L29.3222 20.666C29.7368 20.2794 30.3932 20.2879 30.7948 20.6915C31.1835 21.0823 31.1835 21.7025 30.7948 22.0933Z" fill="#665251"/>
<path d="M64.6204 74.6678C62.8801 76.3713 60.0688 76.3713 58.3328 74.6678L19.0224 35.9979C17.2907 34.2859 17.2907 31.5205 19.0224 29.8128C20.7627 28.1093 23.574 28.1093 25.31 29.8128L64.6204 68.4827C66.3521 70.1819 66.3521 72.9686 64.6204 74.6678Z" fill="#FFB400"/>
<path d="M61.4767 77.0008C60.0602 77.0008 58.6481 76.474 57.5729 75.4205L18.2581 36.7506C16.1119 34.6308 16.1119 31.1814 18.2581 29.0659C20.4173 26.9546 23.9195 26.9546 26.0744 29.0659L65.3892 67.7401C66.4299 68.7638 67.0042 70.1274 67.0042 71.5845C67.0042 73.0416 66.4299 74.4052 65.3892 75.429C64.3139 76.4825 62.8974 77.0093 61.4853 77.0093L61.4767 77.0008ZM22.1663 29.6011C21.3026 29.6011 20.4389 29.924 19.7825 30.5654C18.4784 31.8526 18.4784 33.9554 19.7825 35.251L59.0929 73.9167C60.4057 75.1996 62.5433 75.1996 63.8561 73.9167C64.4866 73.2965 64.8364 72.4639 64.8364 71.576C64.8364 70.6882 64.4866 69.8556 63.8561 69.2354L24.5457 30.5654C23.8893 29.924 23.0256 29.6011 22.1663 29.6011Z" fill="#665251"/>
<path d="M26.8863 37.5445C25.146 39.248 22.3347 39.248 20.5987 37.5445L1.72296 18.9806C0.859275 18.1267 0.859275 16.7418 1.72296 15.888L4.86675 12.7954C5.73475 11.9458 7.14255 11.9458 8.01055 12.7954L26.8776 31.3551C28.6093 33.0586 28.6093 35.841 26.8776 37.5445H26.8863Z" fill="#F78004"/>
<path d="M23.7382 39.8771C22.3217 39.8771 20.9096 39.3503 19.8343 38.2968L0.962901 19.7329C-0.319665 18.4669 -0.319665 16.4066 0.962901 15.1407L4.11102 12.0439C5.40222 10.7822 7.49232 10.7822 8.77921 12.0439L27.6506 30.6079C28.6914 31.6316 29.2657 32.9952 29.2657 34.4523C29.2657 35.9094 28.6914 37.273 27.6506 38.2968C26.5753 39.3546 25.1589 39.8813 23.7468 39.8813L23.7382 39.8771ZM6.44295 13.2206C6.1493 13.2206 5.85565 13.3311 5.63109 13.5477L2.4873 16.6403C2.04682 17.0778 2.04682 17.7958 2.4873 18.2333L21.3544 36.793C22.6672 38.0759 24.8048 38.0759 26.1176 36.793C26.7481 36.1685 27.0979 35.3402 27.0979 34.4523C27.0979 33.5645 26.7481 32.7319 26.1133 32.1074L7.25049 13.5477C7.03026 13.3311 6.7366 13.2206 6.44295 13.2206Z" fill="#665251"/>
</g>
<defs>
<clipPath id="clip0_719_10986">
<rect width="67" height="77" fill="white"/>
</clipPath>
</defs>
</svg>
