<svg width="59" height="86" viewBox="0 0 59 86" fill="none" xmlns="http://www.w3.org/2000/svg">
<g clip-path="url(#clip0_719_10815)">
<path d="M33.6164 44.9766H47.1542C47.1542 48.6565 44.1248 51.6379 40.3833 51.6379C36.6417 51.6379 33.6123 48.6565 33.6123 44.9766H33.6164Z" fill="#BEE7F4"/>
<path d="M47.154 38.3145V44.9758H33.6162V38.3145H47.154Z" fill="#BEE7F4"/>
<path d="M40.3834 1.66602C31.0398 1.66602 23.458 9.1275 23.458 18.3234C23.458 28.3194 31.9207 31.6501 33.6124 38.3114H47.1502C48.8419 31.6501 57.3046 28.3153 57.3046 18.3234C57.3046 9.1275 49.7228 1.66602 40.3792 1.66602H40.3834Z" fill="#FCD836"/>
<path d="M49.5374 15.9751C50.163 16.5763 50.5376 17.4089 50.5376 18.3228C50.5376 19.2367 50.163 20.0735 49.5374 20.6706C48.9282 21.2879 48.0803 21.6535 47.15 21.6535H43.7666V18.3228C43.7666 16.491 45.2896 14.9922 47.15 14.9922C48.0803 14.9922 48.9282 15.3577 49.5374 15.9751Z" fill="#FCD836"/>
<path d="M36.9954 18.3228V21.6535H33.6119C31.7515 21.6535 30.2285 20.1547 30.2285 18.3228C30.2285 17.4049 30.599 16.5722 31.2287 15.9751C31.8379 15.3577 32.6858 14.9922 33.6161 14.9922C34.5463 14.9922 35.3942 15.3577 36.0034 15.9751C36.629 16.5763 37.0036 17.4089 37.0036 18.3228H36.9954Z" fill="#FCD836"/>
<path d="M15.0398 27.665L15.8425 30.9022L2.69155 34.0785L1.88891 30.8413C0.999839 27.2669 3.22664 23.66 6.85703 22.7786C8.66399 22.34 10.4915 22.673 11.9774 23.5463C13.4551 24.4399 14.5953 25.8818 15.0357 27.6609L15.0398 27.665Z" fill="#E03102"/>
<path d="M23.9561 82.21C23.8408 83.2174 23.0999 84.0297 22.1162 84.2694C21.1324 84.509 20.0952 84.1231 19.5189 83.2823L12.3281 72.9126L25.479 69.7363L23.9561 82.21Z" fill="#F9B438"/>
<path d="M15.8433 30.9023L17.4486 37.3728L4.29766 40.5491L2.69238 34.0787L15.8433 30.9023Z" fill="#F9B438"/>
<path d="M10.8701 38.9651L17.4476 37.377L25.4781 69.7371L18.9006 71.3253L10.8701 38.9651Z" fill="#F78004"/>
<path d="M4.29688 40.553L10.8744 38.9648L18.9049 71.325L12.3274 72.9132L4.29688 40.553Z" fill="#F78004"/>
<path d="M6.45388 21.1659C1.92207 22.2626 -0.864523 26.7793 0.242704 31.2432L10.7552 73.6075L18.1189 84.2331C19.0862 85.6263 20.852 86.2924 22.5149 85.8903C24.1778 85.4882 25.4332 84.0909 25.639 82.4175L27.1948 69.6391L16.6824 27.2748C15.5751 22.815 10.9898 20.0773 6.45388 21.17V21.1659ZM7.25652 24.3991C9.97314 23.7411 12.7268 25.3861 13.3936 28.0628L13.797 29.6794L3.93484 32.0636L3.53146 30.4471C2.86877 27.7703 4.5399 25.0571 7.26063 24.4031L7.25652 24.3991ZM15.0977 73.9568L23.5027 71.9259L23.0746 75.4597L17.1351 76.8935L15.0977 73.9568ZM13.5665 70.8942L6.33863 41.7713L9.62739 40.9752L16.8552 70.0981L13.5665 70.8942ZM20.144 69.3061L12.9161 40.1831L16.2049 39.387L23.4327 68.51L20.144 69.3061ZM5.53599 38.5381L4.73336 35.3009L14.5955 32.9166L15.3981 36.1539L5.53599 38.5381ZM20.9096 82.3444L19.1644 79.8301L22.6425 78.9893L22.272 82.0154C22.1979 82.6246 21.2594 82.848 20.9055 82.3444H20.9096Z" fill="#665251"/>
<path d="M31.92 38.5788V44.9761C31.92 49.5699 35.715 53.3068 40.3827 53.3068C45.0503 53.3068 48.8454 49.5699 48.8454 44.9761V38.5788C49.4669 36.3082 51.0228 34.4195 52.838 32.2505C55.7275 28.7899 58.9998 24.8703 58.9998 18.3267C58.9998 8.22104 50.6482 0 40.3827 0C30.1172 0 21.7656 8.22104 21.7656 18.3227C21.7656 24.8662 25.042 28.7899 27.9274 32.2464C29.7385 34.4195 31.2985 36.3082 31.92 38.5747V38.5788ZM35.3034 19.988H33.6117C32.6774 19.988 31.92 19.2406 31.92 18.3227C31.92 17.4047 32.6774 16.6573 33.6117 16.6573C34.5461 16.6573 35.3034 17.4047 35.3034 18.3227V19.988ZM42.0744 36.6454H38.691V23.3187H42.0744V36.6454ZM45.4578 39.9801V43.3107H35.3034V39.9801H45.4578ZM40.3827 49.972C38.1765 49.972 36.316 48.5748 35.6163 46.6414H45.145C44.4453 48.5748 42.5848 49.972 40.3786 49.972H40.3827ZM40.3827 3.33066C48.7836 3.33066 55.6163 10.057 55.6163 18.3227C55.6163 23.672 52.875 26.954 50.2201 30.1343C48.5614 32.1205 46.8573 34.1717 45.9188 36.6494H45.4619V23.3227H47.1537C49.9526 23.3227 52.2329 21.0806 52.2329 18.3267C52.2329 15.5729 49.9526 13.3308 47.1537 13.3308C44.3547 13.3308 42.0785 15.5729 42.0785 18.3267V19.9921H38.6951V18.3267C38.6951 15.5729 36.4148 13.3308 33.6158 13.3308C30.8169 13.3308 28.5366 15.5729 28.5366 18.3267C28.5366 21.0806 30.8169 23.3227 33.6158 23.3227H35.3076V36.6494H34.8507C33.9081 34.1717 32.2081 32.1246 30.5494 30.1343C27.8945 26.958 25.1532 23.672 25.1532 18.3227C25.1532 10.057 31.9859 3.33066 40.3868 3.33066H40.3827ZM45.4578 19.988V18.3227C45.4578 17.4007 46.2152 16.6573 47.1495 16.6573C48.0839 16.6573 48.8412 17.4047 48.8412 18.3227C48.8412 19.2406 48.0839 19.988 47.1495 19.988H45.4578Z" fill="#665251"/>
</g>
<defs>
<clipPath id="clip0_719_10815">
<rect width="59" height="86" fill="white"/>
</clipPath>
</defs>
</svg>
