<?xml version="1.0" encoding="UTF-8"?>
<svg id="Layer_2" data-name="Layer 2" xmlns="http://www.w3.org/2000/svg" viewBox="0 0 473 454.3">
  <defs>
    <style>
      .cls-1 {
        fill: #767575;
      }

      .cls-1, .cls-2, .cls-3, .cls-4, .cls-5, .cls-6, .cls-7 {
        fill-rule: evenodd;
      }

      .cls-2 {
        fill: #5a5a5a;
      }

      .cls-3 {
        fill: #efecee;
      }

      .cls-4 {
        fill: #6b6a6a;
      }

      .cls-5 {
        fill: #ffb400;
      }

      .cls-6 {
        fill: #787778;
      }

      .cls-7 {
        fill: #ffd966;
      }
    </style>
  </defs>
  <g id="Layer_1-2" data-name="Layer 1">
    <path class="cls-5" d="M362.5,130.1c1.8-1.8,2.8-4.2,4.7-6.3l5-5.1s.1,0,.2-.1l2.9-3c.9-1.2,2-1.9,2.9-2.8,8.6-7.8,7.8-2.4-5.5-16.3-4-4.2-5.7-5.8-8.8-10.5-.4-.7-.8-.9-1.3-1.5-1.3.7-1.9,1.3-2.7,2.6l-10.1,12c-1,1-2,1.6-3,2.7-1.7,1.9-3.9,3.4-5,4.5s-.5-.3-.6,1c0,1,5.8,5.5,6.9,6.6.6.5,1,.8,1.5,1.3,1,1,1.8,1.8,2.9,2.8l10.2,12.2h-.2v-.1Z"/>
    <path class="cls-5" d="M152.7,107.3c1.5-.7.4-.2,2-1.9l4.4-5.1c3.6-4.4,7.7-8.8,12.2-12.5.5-.4.9-.8,1.5-1.4.3-.3.4-.4.6-.7l.3-.3c.7-.8-.2,0,.4-.5-1.1-2.4-3.7-3.8-5.6-5.5-5.4-4.9-6.4-6.6-10.7-11.4l-2.5-2.8c-.8-1.2-1.1-2.5-2.5-3.2l-1.3,1.1c-.4.5-.6,1.2-1,1.8-1.9,2.7-4,5-6.2,7.4-.6.7-.6.8-1.4,1.5-1,.9-1.7,1.6-2.8,2.6-.7.6-1,1-1.4,1.4l-7.2,6.7c-.2.8,1.6,2.2,2.3,2.8l5.8,5.2c3.5,2.9,2.8,2.6,5.5,5.6l6.3,7.6c.7,1,.5.9,1.4,1.5h-.1v.1Z"/>
    <path class="cls-2" d="M339.1,170.5c-2.2.4-8.5.4-11,.4s-3.8,0-5.7.1c-2,0-3.2.5-5,.7-1.7.2-3.6.1-5.3.4-1.6.2-2.6.7-4.8.8-3,.1-2.4.5-4.5,1l-14.9,2.7c-.6,0-.3,0-.9.2-4.2,1.5-8.3,2.3-12.3,3.5-1.3.4-.5.4-1.9.8-6,1.8-16.2,2.9-14.5,11.2.3,1.5.9,2.8,2,3.7,1,.7,2.4,1.6,3.9,1.8,2.1.3,7.1-1.6,8.9-2.3.9-.4,1.2-.3,2.3-.6l13.7-3.7c3.8-1.3,18.4-3.6,19.1-3.9l2.3-.5c2.5-.1,3.2-.4,5.1-.7,1.8-.3,4-.2,5.7-.4,2-.2,2.9-.7,4.7-.8l16.7-.5c3.9,0,7.2.4,11,.5h5.7c2.1,0,3.4.6,5.1.8,3.5.4,6.9.5,9.8,1.6l7.2,1.3c1.4.2,1.4.5,2.1.7.9.3,1.8.1,2.6.3,1.4.3.5.5,2,.8,1.1.2,1.6,0,2.5.4,3.3,1.1,8.1,2.8,11.3,1.3,1.1-.5,2.1-1.9,2.7-2.9,1.5-2.6,1-6.2-1.5-8.5-1.4-1.3-7.7-2.9-10.4-3.8l-11.6-2.9c-.9-.3-1.7-.2-2.6-.3-2.3-.2-.3-.4-4.7-.9-1.2-.1-1.2-.4-2.1-.6-1.7-.5-3.7-.1-5.5-.3-1.9-.3-2.5-.8-5-.8-5.2,0-19-1.1-22.1-.5h-.1v-.1Z"/>
    <path class="cls-2" d="M124.4,273.9c6.8-1.2,15.3,0,22.1.4,2.8.2,22.7,2.4,25.5,3.3l31.3,8.4c3.3,1.3,6.6,1.6,9.1-.7,2.5-2.3,3-5.8,1.7-8.6,0-.2-.9-1.2-1.3-1.5-1.9-1.8-5.8-2.2-8.1-3.2-.6-.3-1.4-.4-2.1-.7-.9-.3-1.3-.3-2.2-.6-.9-.3-.7-.4-2-.8l-22.7-5.6c-1.7-.2-3.2-.7-4.8-.9-4-.5-7.2-1.7-9.2-2-2-.2-4,.1-5.7-.4l-15.6-1.3c-7.1,0-15.6-.4-22.3.4-3,.4-7.9.3-10.8.9-1.7.3-3.2.5-5.1.6-2.1.1-2.6.8-4.7.9-2.6.2-2.6.6-4.7.9-1.9.3-2.5.7-4.8,1-2,.3-.5.2-2.1.7-.8.3-1.6.2-2.5.4l-9,2.7c-3.4,1.6-4.4,1.2-5.7,3.8-1,2.1-2.1,3.5-.1,6.7,1.8,2.8,3.6,3.6,7.1,3.4,1.4-.1,1.2-.2,2.2-.6l11.1-3c.9-.2,1.8-.2,2.7-.3,2.3-.3,8.5-2.1,11.7-2.4,1.7-.2,3.5-.2,5.2-.5,5-.8,13.5-.7,15.9-1.1h0v-.3h-.1Z"/>
    <path class="cls-2" d="M329.9,215.5c-4.6.6-10.9.3-15.8,1.4-2.3.5-7.7.6-12.3,1.9l-9.5,1.9c-.9.2-1.8.1-2.6.3l-4.3,1.3c-4.1,1.7-7.4,1.5-13.2,3.8-1,.4-1.2.3-2.3.6-2.5.6-8.4,2.6-10,4.2s-1.6,2.2-1.8,3.9c-.5,3.5,1.8,6.2,4.1,7.2,4.4,1.9,12.8-2.9,15.7-3.4,1.3-.2,1.2-.4,2.1-.7.9-.3,1.6-.2,2.5-.4,1.4-.4.7-.5,2-.7,1.8-.3,3.1-.6,4.7-1.1,1-.3,1.1-.6,2-.7,5.1-1,12.2-2,17-3.1l20.8-2.3c7.3-.2,14.9-.6,22.4-.2,3.4.2,7.1.6,10.4.8,4.8.3,2.6.4,4.8.8,2.4.4,8,.7,10.1,1.4,3.2,1.1,7.3.8,10.5,2.1l1.3.4c1.8.4,2.5,1.1,6.5,1.9,2.3.5,6.1,1.4,8.7-1.6,2.4-2.8,2.6-8.3-3.2-11-.9-.4-3.4-1-4.4-1.3l-4.5-1.2c-9.7-2.5-18.5-4.4-28.7-5.4-3.4-.3-7-.4-10.6-.7-5.3-.5-17.6-.6-22.6,0h.2v-.1Z"/>
    <path class="cls-2" d="M264.3,317.7c-1.7,1.6-1.4.7-3,1.7-.9.6-1.6,1.3-2.3,2.4l-.5,1.9c-.2,2.2,0,4.1,1.5,5.6,4.1,4.3,9.4.4,14.5-.6.9.1,2.7-.6,3.9-1,.8-.2,1.2-.5,1.8-.7.9-.2,1.3-.2,2.1-.5l16.2-4c2.7-.7,6-.8,8.6-1.5,3.2-.9,6.8-.3,9.5-1,1.7-.4,2.8-.4,4.8-.4s2.3-.5,4.1-.8c9-1.3,30,0,39.4.7l8.4,1.5c1.6.4,3.2.1,4.7.5,2.2.4-.1.5,4.5.7,2.1.1.6,0,2,.6l8,2.1c1.7.4,0,.1,1.7.7,7.2,2.4,12-1.7,10.9-7.8-.4-2-3.2-4.4-5.6-4.9-2.7-.5-4.3-1.3-5.8-1.7-.8-.2-1.5-.1-2.2-.4h-.2c-5-2-4.6-1.1-7.6-2.1-3.6-1.1-7.1-1.3-8.5-1.6l-8.8-1.5c-1.9,0-2.9,0-4.6-.5-4.4-.9-34.8-.9-39.7,0-1.6.3-3,.4-4.6.5-3.9.1-2.6.5-4.2.8-1.4.3-3.4,0-4.9.3l-8.3,1.7c-4.1.5-2.5.5-4.4.8-2.3.3-2.2.1-4.1.8-.9.3-1.1.2-2.1.4l-10,2.6c-5,.9-14,4.4-15.4,4.5h0l.2.2h0Z"/>
    <path class="cls-2" d="M130.4,304.8c-3.8,0-7.8,0-11.4.3-2.4.2-14.4.7-16.1,1.2-3.1.8-6.6,1-9.7,1.6l-11.3,2.8c-.9.2-1,.4-2.3.6-5.3,1-13.9,2.7-12.3,10.3l2.2,3.5c1.1,1,2.3,1.7,4.1,1.7,2.8.1,12.3-2.8,15.8-4.1.7-.3,1.6-.2,2.5-.3,1.6-.2,1.2-.4,2.3-.6.9-.2,1.7,0,2.6-.3,3.4-1.1.5-.5,4.6-.9,1.8-.2,1.2-.3,2.3-.6.6-.1,2.1-.2,2.5-.3,4.1-.4,3.7-.6,4.9-.7,3.2-.3,7.8-.2,11-.3,3.5-.1,7.5-.7,10.9-.3,3.5.4,7.2.4,10.9.5,8.4.1,10.4,1.4,15.3,1.9,3.7.4,6.5.7,9.8,1.6,1.5.4,2.2,0,3.9.6,1.1.5,0,.1.8.4,1.3.4,3.4.3,5,.7l9.2,2.3c.8.2,1.1.5,2,.7s1.5.2,2.4.4c1.5.4,3.3.8,4.6,1.2l4.3,1.3c2.6.6,5.8,2.8,9.1,1.4,2.2-.9,3.6-2.6,3.8-4.9.4-4.6-.3-4.2-.9-5l-.6-1c-.9-1.2-3-2-4.5-2.5s-2.9-.8-4.3-1.4c-2.1-.8-1.7,0-3.5-.9-3.5-1.8-8.3-2.6-12.2-3.4-.9-.2-1.1-.5-2.1-.7-1.1-.3-1.4-.2-2.4-.5-1.1-.4-.9-.4-2.3-.6-3.1-.4-6-1.5-9.5-1.9-1.9-.2-2.4-.8-4.5-1-1.9-.3-3-.7-5-.8-4.2-.2-6.6-.6-10.4-1-9.4-1-11.7-1-21.8-1h.3Z"/>
    <path class="cls-2" d="M86.5,219.8c-.8.6-1.9.8-2.9,1.1l-9.6,2.8c-8.3,2.1-7.2,9.5-4.2,11.6l2.7,1.4c2.3.7,10.5-1.8,13.4-2.8,1.4-.4,5.3-1.3,7.2-1.3l7.7-1.4c2.1-.7,14.3-1.9,16.9-1.9h27.8c2.3,0,10.2,1.5,12.3,1.7,1.4.1,3,0,4.4.2,1.5.1,2.2.6,3.8.8l8.2,1.3c1.1.5,13,2.8,15.1,3.5l10.6,3.3c3.1.8,10.6,4.8,13.7-.8,1-1.9,1.6-5.3.2-7.4-2.2-3.2-7.1-3.6-10.6-4.9h-.2c-5.4-2.3-9.3-2.7-11.4-3.7-1.8-.9-1.9-.1-3.7-.8-1.6-.6.3-.3-1.5-.6-2.9-.5-5-1.2-7.8-1.7l-12-2c-1.6-.1-2.7-.4-4.1-.6-3.8-.6-3.8,0-8.2-.9-10.5-2.2-28.1-1.2-40-1-3.9,0-1.9.1-4.1.6-1.4.3-2.8.2-4.3.4-1.2.2-2.3.6-3.6.7l-8.4,1.1c-1.5.4-5.7,1.6-7.3,1.5h0v-.2h-.1Z"/>
    <path class="cls-2" d="M342.3,273.5c11.9,0,15.4.6,26.4,1.9,1.5.2,2.9.7,4.8.9,3.5.3,6.5,1.1,9.5,2.1,1.4.5,3,.6,4.6,1.1,3.8,1.2,10.6,3.6,13.8,2.2,3.8-1.6,5.8-7.4,2.2-11.1-1.9-2-12.2-4.3-15.1-5.1-.8-.2-1.5-.2-2.3-.5-2.5-.8-1.7.2-5.7-1.2l-18.5-3.1c-15.6-.6-25.7-1.3-41.3.2-1.5.1-1.1.3-2.5.6l-27.3,4.1c-.8.2-.6.5-2.1.7l-18.1,4.9c-2.6,1-7.2,2.2-8.4,2.9-5.4,3.2-5,8.3-2.2,11.1,3.9,3.8,7.8.9,11,.4l10.9-3.3c.9-.2,1.6-.2,2.5-.4.7-.2,1.2-.4,2.2-.6l6.8-1.7c1.5-.5,6.1-.9,7.8-1.2,1.7-.3,2.7-1.3,9-2.1,13-1.5,17.3-2.6,32.1-2.5h0v-.3h-.1Z"/>
    <path class="cls-2" d="M81.2,176.2c-.5.6-.1.4-.9.8-.3.2-.7.3-1.2.4l-6.6,1.9c-8.1,2.8-5.1,12.2.4,12.7,4.5.4,7.2-1.9,10.2-1.9l5.8-1.4c1-.3,1.3-.2,2.3-.3,2.3-.3-.3-.5,4.1-.9l8.1-1.6c1.5-.3,3.2-.1,4.8-.3,1.6-.2,2.5-.7,4.1-.8,5-.2,9.1,0,14.5-.5,4.3-.4,13.8.3,19,.4,1.3,0,3.7,0,5,.2,1,.2.5.3,2,.5l11,1.3,20.5,4.4c1.4.4,2.5.6,3.7,1s2.6.9,3.8,1.1c4.2.6,8.5,2.7,11.3,3.6,2.4.7,6.4,1.3,8.7-.2,1.7-1.1,3.3-4.1,3-6.6-.4-2.6-2.3-4.5-4.5-5.5l-21.3-6.2c-.6-.2-.6-.3-1.5-.6l-12.3-2.8c-1.6-.2-2.5-.5-4-.8-5.5-1.2-11.7-1.9-17.8-2.2-1.8,0-2.8-.5-4.4-.7-3.9-.3-8.7.1-14.3-.5l-19.5.4c-7.1.1-5.3.6-9.1.9-2.8.2-6,.6-8.6,1.2-1.5.3-2.6.6-4.4.7-2,.2-2.3.7-4.1.9-1.7.2-7.2,1.7-7.8,1.6h0v-.2Z"/>
    <path class="cls-2" d="M243.1,138.1c0-2.2.5-1.8,2.2-2.5l22.9-9.2c.9-.3.8-.4,1.8-.7,5.4-1.6,10.8-3.6,16.4-4.6l7.4-1.8c1.7-.3,2.2-.7,3.5-.9,1.8-.3,2.4-.1,4.2-.6,5.1-1.4,14.4-2.3,19.9-3.1,6-.9,6.2,0,10.5,3.2,2.5,1.9,4.6,4,7.2,6.4,3,2.8,6.2,6.1,8.9,9.4l4.8,7.2c.9,1.6,1.6,2.6,2.9,3.7,4.4,3.4,9.4,2.9,13.7-.2,1.7-1.2,2.8-3.4,3.9-5.2,3.1-5.2,6.3-8.4,10.3-12.7l2.2-2.2c4.3-3.8,3-5.1,8.9-2.8,2.8,1.1,5.9,1.6,8.6,2.8.8.3.9.2,1.8.5,3.1.9,6.7,3,9.5,4.3l3.2,1.3c1,.4,2.3,1,3.2,1.6,3.5,2.4,4.4,3.7,6.3,7.3,1.2,2.2,1.6,4.4,1.6,7.6v232.1c0,2.6,0,7-1.7,9,0,0-.1,0-.1.2,0,0-.1,0-.1.2l-.9,1.1c-1.2,1.5-3,3.4-4.7,4.4-.6.4-1.8.9-2.6,1.2-3.7,1.6-8.6,1.8-12.2,0l-8.5-2.5c-.9-.2-.6-.3-1.4-.5l-19.1-4.8c-1,0-2.4-.2-3.4-.4l-19.7-2.3c-13.7-.2-22.7,0-36,1-1.4,0-1.8.5-3.1.6-2,.2-5-.3-6.8.4-1.4.6-.9.6-3,.8l-40.8,10.5c-1.9.8-4,1-5.9,1.8l-6.3,2.8c-2,.8-8.2,3.2-9.4,3V138.2h0l-.1-.1ZM472.9,189.5v191c0,5.2,0,8.2-.2,8.5l-5,16.5v.4c-2.1,5-5.9,10.9-9.7,14.9l-5.2,5.2c-3,2.6-6.1,4.9-9.5,6.9l-5.6,2.9h-.2l-2.7,1c-.7.3.2,0-.6.3-2.6,1.1-5.2,1.8-8.1,2.3-1,.2-.5,0-1.5.4-1.3.4-2.1.4-3.6.5-1.7,0-2.2.4-3.5.6-4.4.5-11.4-.2-15.7-1l-16-4.5c-2.5-.7-3.7-1.4-6.4-1.8-1.4-.2-1.4-.7-3.2-.9-2.3-.2-1.6-.5-3.3-.8-1.8-.4-1.7,0-3.5-.6-1.5-.6-1.8-.4-3.7-.4-2.9,0-4.3-1-7.2-1s-2.4-.3-3.9-.6l-11.9-.4c-3.1,0-5,.3-7.9.3s-4.8.6-7.6.6-4.5.3-7.7.9c-1.3.2-2.5,0-3.9.2-1.4.3-2.1.7-3.3.8-4,.3-3.8.5-7.2,1-1.6.2-1.1.7-3.2.9l-21.4,5.7c-1,.3-.5.2-1.4.5-.7.3-.9.3-1.7.5l-10.7,4.1h-.2l-9,3.9h-.2l-2.1,1s-.3.2-.4.2c0,0-.3.2-.6.3-.2,0-.5.2-.7.3l-6.8,2.7c-.9.2-1.1.2-1.8.4l-8.7,1.1c-1.5,0-1.7-.5-3.6-.5s-2.5-.2-3.7-.4l-4.1-1.3c-.4-.2-.3,0-.7-.2-.9-.3-.5,0-1.4-.5l-6.6-3.1c-.3,0-.4,0-.7-.3-.8-.3-.6-.3-1.3-.6l-5.6-2.6c-.9-.4-.6-.3-1.6-.6l-29.4-9.7c-1.3-.4-2.1,0-3.5-.6l-3.4-.7c-1.7-.4-1-.7-3.3-.8-1.9,0-2-.6-3.2-.9-1.2-.2-2.6,0-3.9-.2-1.2-.3-1.9-.7-3.3-.8-1.7,0-2.3,0-3.8-.3-3.5-1-7.6-.6-11.5-1.1l-11.8-.5c-3,0-4.8.3-7.9.3l-11.5,1.2c-3.1.8-3.2,0-7.1,1.1-1.3.4-2.1,0-3.5.6l-19.5,5.4c-1.3.3-.4.2-1.6.6l-6.5,1.7c-1.9.7-3.6.3-5.5.5-4.3.5-1.1.6-7.6.6s-4.3-.4-7.9-.6c-1,0-1.2,0-2-.2l-1.6-.3c-.8-.3.3,0-.9-.3h-.8l-6.3-1.9c-.7-.2-.7-.3-1.3-.6l-1.7-.5c-3.5-1.4-8.9-4.5-11.8-6.8l-8.3-7.5-.2-.2-2.2-2.2c-1.4-1.6-2.5-3.1-3.7-4.8-.6-.8-1-1.6-1.6-2.5l-7-15.7c-.2-.8,0-1.2-.3-2-.2-.9-.3-.3-.7-1.6l-.5-3.6C.3,388.9.1,388.1,0,387v-41.3c0-.13.13-.4.4-.8l1.8-2.3c1.3-1.1,2.7-1.1,4.1-1.9.9.7,1.4.7,2.5,1,.8.2,1.7.6,2.4,1.1,1.1.8,2.1,3,2.5,4.5,1,4.1-.6,31.7.3,37.8,0,.9.5,1.6.6,2.7.2,1.3,0,1.9.5,3,2,4.6,1.1,5,3.8,10.1.4.8.8,1.4,1.2,2.2,1,1.9,1.4,2.7,2.7,4.2,4.6,5.1,2.3,3.6,7.7,8,0,0,.8.6.9.7l1.8,1.6c1.9,1.9,8.4,5,11.3,6,4.6,1.7,9.5,2.7,14.6,2.8,2.4,0,4-.5,6.3-.6,4.7-.2,2.6-.3,6.1-1,1.9-.4,3.9-1,5.3-1.6,4.7-1.7,21.9-6.4,27.7-6.9,3.9-.3,8.5-1.5,12.3-1.6,7.7-.2,20.4-.7,27.7,0l9.4,1c1.4.3,1.1.5,2.6.7l9.4,1.1c1.2.2,1.2.5,2.7.7,6.4,1,18.5,4,25.1,6.2l13,4.4c3.3,1.4,6.9,2.5,10,3.9,1.5.7,2.9,1.6,4.5,2.3l4.9,2.1c4.3,2.2,9.8,2.9,14.9,2.3l9.8-4c8-4.2,16.5-6.9,25-10.3l.9-.3c.5,0,.9,0,1.4-.2,1.3-.3,1.3-.6,2.7-.8,2.7-.5,5.6-1.8,7.8-2.6l5.7-1.2c1.9-.3,1-.5,2.6-.9,1.1-.3,2,0,3.2-.4,4.1-.9,8.6-1.4,11.7-2,1.9-.4,4-.5,6-.9,8-1.7,35.3-2.1,40.1-.9,2.1.5,4,.5,6.4.6,1.4,0,1.8.4,2.9.5,4,.7,3.4-.2,8.8,1.6,1.6.5,8.1,1.1,9,1.5,1.6.7-.5-.2.6.3,2.6,1.2,6.8,2.7,9.6,3.3,2.8.6,5.1,1.8,7.7,2.6,1.7.5,11.2.8,13.4.6,5.2-.4,10.9-1.8,15.5-3.8l5.2-2.6h.2l8-6.2c1.2-1.2,2.3-2.2,3.3-3.6.9-1.3,2.2-2.8,2.9-4.1,1.6-3.1,3.6-5.7,4.8-9.1,3.3-9.9,3.1-13.2,3.1-24.4v-166.5c0-4.5,0-9.3-.2-13.6-.5-6.9-.6-4.6-1.6-8.9-.6-2.6-1.7-5.5-2.9-7.5-.9-1.7-1.5-2.9-2.5-4.4-.3-.4-.5-.7-.8-1.1-.2-.2-.4-.7-.6-1-1.2-2.1-3.1-3.5-4.5-5.3-1.8-1.8-1.7-2.6-3.4-2.7-.6,9.4,0,20.8,0,30.4v184.5c0,5.3.2,9.8-1.6,14-1.8,4-2.7,6.5-5.8,9.7-2.5,2.6-2.3,3-5.8,5.5-.8.6-1.5,1-2.4,1.4-8.7,4.6-16.8,4.3-25.5,1.6l-17.7-5.3c-5.2-.4-5.6-1.6-9.5-1.9l-10.2-1.5c-9.5-1.4-19.3-1.3-29.6-1.2-2.1,0-4.9.2-7,.5-2.4.3-4.8.2-7.1.5-1.4.2-1,.6-2.8.8-3.2.2-7.4.5-10.3,1.4-1.1.4-6.3.8-9.6,1.7-1.3.4-1.9.4-3.4.7-1.1.2-1.4.7-2.9.8-3.2.2-9.5,1.9-12.5,3.1l-16.9,5.8c-1.2.5-2,.4-3.2.9l-13.3,5.6h-.2l-5.2,2.4c-3.9,2.1-7.6,0-11.6-2.1-3-1.6-11-5-13.6-5.7-1.6-.4-.5,0-1.3-.5-4.9-2.5-13.8-4.7-18.4-6.5l-9.5-2.3c-1.7-.4-4.4-1.4-5.9-1.6-1.2-.2-2.5-.2-3.4-.4-4.8-1.4-9.4-1.8-9.8-1.9-4-1.3-15.2-2.2-20.2-2.7-7.6-.9-14.6-.6-22.4-.6s-9.4.8-14.5,1l-9.4,1.7c-5.5.3-4.2.7-7.3.9l-12,3.3c-2.5,1.1-12.1,4-14.5,4.3-10.1,1.3-8.3.7-16.6-1.3-1.6-.4-3.8-2-5.2-2.7-3.6-1.7-5.8-4.3-8.1-7.4-2.6-3.6-3.9-5.9-4.9-10.2-1.2-5.3-1.1-3.8-1.1-10.6v-184.8c0-10.1.4-20.9,0-30.9-1.8,0-2.4,1.3-3.3,2.4l-5.2,6.1c-1.1,1.8-1.2,1.7-2.1,3.9-1.7,1.7-2.7,5.6-3.3,7.2-.4,1.1-1,2.6-1.3,3.9-1.6,5.8-1.2,18.4-1.2,24.7v105c0,3.6.5,6.8-1.2,9.2-1.8,2.5-3.6,3.1-6.4,3.9-.5-.2-1.3-.5-2-.8-2.7-.9-3.9-2.8-4.3-5.2v-134.5c.2-.9.2-.5.3-.7v-.2l1.2-6.1c.2-1.6.4-1,.7-2.1.9-2.4,1.5-5,2.7-7.4s3.1-6.1,5-8.9l7-8.5c.5-.6.8-.8,1.5-1.4l6.2-5.1c9.7-6.7,3-2.3,7.3-12.3.4-.8.4-1.2.8-2l3.2-5.3c1-1.3,1.5-1.9,2.7-3l6.4-5c.7-.3,1.2-.7,1.8-1l5.4-2.5.2-.1.6-.3,7.3-3.1c.4-.1.3,0,.7-.2l4.6-1.7c.9-.3.3,0,.9-.4,1.4-.6.7-.2,2.2-.7.8-.2.4-.2,1.1-.5.7-.3,0,0,1-.3l2.1-.7c.6-.2.6-.1,1.3-.3.9-.3.3,0,.9-.3,1.2-.5.9-.3,2.2-.6,1.2-.3.6-.3,2.2-.7.7-.2,1.6-.3,2.3-.5s1.6-.4,2.3-.6c1-.3,1.2-.4,1.9-.6.9-.2,1.7-.2,2.5-.4l11.8-2.4c2.1-.4,2.8,0,5.1-.6,1.9-.6,3-.5,5.2-.4,2.4,0,3-.4,5-.7,3.2-.4,7.1-.3,10.7-.3-.8-1.1-2.7-2.3-3.9-3.3-.33-.27-.67-.57-1-.9l-.5-.4s-.1,0-.2-.1l-4-3.3c-1.5-1.5-3.3-5-2.9-7.2.3-1.7,1-3.6,2-4.9,2.1-2.8,5.4-4.5,7.9-6.9.2-.2.1-.2.5-.5.2-.2.7-.5.9-.7,2.8-2.1,5.3-4.6,7.7-7.1,0,0,.1-.1.1-.2l1.1-1.1c2.1-2,3.8-4.4,5.6-6.7.4-.5.3-.4.6-.9l.8-1.1c2.6-3.7,4.6-8.7,9.8-9.1,5.4-.4,8.5.3,11.6,4.6l3,4.6c.3.5.3.6.7,1.2l3.8,4.7c3.4,4.5,7.7,7.8,11.8,11.6l.2.2s.3.2.3.3l7.6,6.3c.4.4,1.3,1.5,1.5,1.9l1,2.5c.7,1.9,0,4.1-.6,5.9-1.2,3.3-4.7,4.8-7.1,7,0,0-.1.1-.2.2l-.7.6c-.2.2-.6.5-.9.7-.7.5-1.3.9-2,1.5l-4.3,3.9s-.1.1-.2.2c0,0-.1.1-.1.2-.5.7-.3-.2-.4,1.1,3.1.3,6,1.3,9.1,1.9l12.8,3.3c.9.4,0,.2,1.2.4l2.8,1c.7.2.5,0,1.3.3l4,1.4c2.5,1.1,5.5,1.4,8.1,2.6l.4.2h.2l3.6,1.4s.3.2.4.2l5.7,2.2c2.8.9,9.3,4.8,11.5,4.6,1.2,0,1.3-.3,2.1-.7l35.1-13.2c1.6-.3.6-.2,1.9-.7l2.3-.5c.6-.2-.1,0,.9-.4l14-3.3c1.3-.4.7-.3,2.3-.5.5,0,1.5-.2,2.2-.4l9.2-1.5c1.9-.2,2.4-.9,4.8-.9s2.8,0,4.9-.5c3.1-.6,8.1,0,10.8-1.5,1.3-.7,2.5-2.1,3.6-3,.5-.4.2-.2.7-.5,0,0,.3-.2.4-.3,0,0,.1,0,.2-.1l11.3-10.4c.27-.27.5-.53.7-.8l1.7-2c1.6-2,3.2-4,4.5-6.2.8-1.3,1.4-1.9,2.1-3.2l1.4-2s.1-.1.2-.2l.9-.9c2.2-2.2,4.6-2.7,7.8-2.7s5.4,1.1,7.5,3.2c.5.5.9.9,1.3,1.5l3,4.9c1.2,2,2.9,3.5,4.1,5.3l4.6,4.9.6.6,10,8.9c4.2,4,7.7,4.7,7.7,12.2,1.5,0,1.5.5,2.6.8l21.1,8.6c1.9.8,3.6,1.9,5.2,3,0,0,.1,0,.2.1l1.2,1c3.2,2.4,6.2,5.8,7.8,9.5.1.3.1.4.3.7.3.7.4.8.7,1.5.3,1,.1.5.5,1.4.6,1.2.2.2.5,1.7.2,1.1.2.8.6,1.6.6,1.6,0,2.1.3,3.8.3,2,6.6,5.1,8.5,6.9l8.6,8.7v.2l4.3,6.1c1.5,1.9,2.4,4.4,3.5,6.6l.7,1.5c.3.8.3.7.6,1.3l1.5,4.8v.2l1.7,7.5c.4,1.8.5.4.6,3.2h-.2.1ZM43.9,147.2c0-4.5.5-5.8,2-9.1.6-1.4,1.2-2.2,2.2-3.1,2.5-2.4,1.5-1.1,3.9-3,1.2-1,12.5-6,13.4-6.3,3-1,5-2,8.1-2.9l8.4-2.5,27.2-5.3c2.9-.5,6.9-.3,10.1-.7,1.8-.2,17.1-.8,19.7-.5l.8.2c.6.3,3.7,5.1,4.6,6.4.7,1,1.6,2.1,2.6,2.7,0,0,.3.2.4.2,0,0,.1,0,.2.1,0,0,.1,0,.2.1l2.9,1.1c7.8,1.2,10.7-3.7,13.2-8.1,2.9-.2,6.3,1.2,9.1,1.5,3.5.4,2.9.7,4.5.9.9.1,1.9,0,2.8.2l8.5,2.1c.9.4-.2,0,.9.4l8.7,2.9c.9.3,1.5.2,2.4.5l5.9,2c1.6.7,1.9.9,3.8,1.5l18.7,7.6v269c-1,0-12.7-4.5-15.1-5.5-.4-.2-.87-.37-1.4-.5l-18-5.9c-3-1.2-5.2-1.3-7.3-1.8l-5.6-1.5c-1.5-.3-2,0-3.3-.6-1-.3-2-.4-3-.7l-15.8-2.4c-4.7-.5-8.5-1.1-13.4-1.4-11.7-.6-16.8-.7-28.7-.5-1.7,0-1.9.3-3.2.5-1.1.2-2.3,0-3.4.2-3.3.2-9.1,1.5-13,1.8-2.7.2-3.6.8-6.1,1.1l-9,2c-3.9,1.6-9.1,2.3-14.1,4.2-6,2.3-11.6,3.2-17.5-.5-4.4-2.8-7.2-9-7.2-14.5v-232.1h0v.2h-.1ZM352.3,118c-1-1-1.8-1.9-2.9-2.8-.5-.5-.9-.8-1.5-1.3-1.2-1.1-7-5.6-6.9-6.6.1-1.3-.2-.1.6-1,1.1-1.1,3.3-2.6,5-4.5,1-1.1,2-1.7,3-2.7l10.1-12c.8-1.3,1.4-1.9,2.7-2.6.5.5.9.8,1.3,1.5,3.1,4.7,4.8,6.3,8.8,10.5,13.3,13.9,14.2,8.5,5.5,16.3-1,.9-2.1,1.6-2.9,2.8l-2.9,3s-.1,0-.2.1l-5,5.1c-1.9,2.1-2.9,4.5-4.7,6.3l-10.2-12.2h.2v.1ZM152.7,107.3c-1-.6-.8-.6-1.4-1.5l-6.3-7.6c-2.7-3-2-2.6-5.5-5.6l-5.8-5.2c-.7-.6-2.5-2-2.3-2.8l7.2-6.7,1.4-1.4c1.1-1,1.8-1.7,2.8-2.6.8-.7.8-.8,1.4-1.5,2.2-2.4,4.3-4.7,6.2-7.4.4-.6.7-1.3,1-1.8l1.3-1.1c1.4.7,1.6,2,2.5,3.2l2.5,2.8c4.3,4.8,5.3,6.5,10.7,11.4,1.9,1.7,4.6,3.1,5.6,5.5-.6.6.3-.4-.4.5l-.3.3c-.2.3-.4.4-.6.7-.6.6-.9.9-1.5,1.4-4.5,3.7-8.5,8-12.2,12.5l-4.4,5.1c-1.6,1.7-.6,1.2-2,1.9h.1v-.1Z"/>
    <path class="cls-2" d="M274.5,74.7c-1.7,0-.6.3-1.4-.5l-3.5-5.3-8.2-9.1c-1.1-1.1-2.3-2.3-3.6-3.6l-9.2-8.1c-1.7-1.3-1.6-.8-1.6-1.8s1.3-1.8,2-2.3l12.4-11.3c2.8-3,4.3-5.1,6.9-7.6l4.1-5.6c.5-.9.7-1.3,1.6-2,1.4.6,1.1.7,1.9,1.9.6.9.8,1.1,1.4,2.1.2.3.5.8.7,1.1,2.7,3.7,5.5,6.9,8.9,10l2.8,2.6c10.9,11.7,14.7,9.6,8,14.5-4.4,3.2-6.9,6-10.9,9.9-4.4,4.2-3.1,3.5-6.2,7.1-1.1,1.3-2.3,2.5-3.2,3.7-.7,1-1.9,3.6-2.8,4.1h0v.2h-.1ZM273.9,92.3l4.7-1c1.4-.6,2.4-1.3,3.5-2.2,0,0,.3-.2.3-.3.9-.9,1.4-1.9,2.1-2.9.4-.5.3-.4.5-.7l3.6-5.6s0-.1.1-.2l5.3-6.7c.9-1,1.8-1.8,2.8-2.9l.8-.8s.1-.1.2-.2l3.5-3.5c2.5-2.5,5.4-4.6,8.2-6.9l2.4-2c2.2-1.9,5-3.6,6.1-6.5.7-1.9,1.1-3.7.6-5.9l-1.2-2.9s0-.1-.1-.2c-2.2-3.4-11.9-10-15.8-13.9l-5.3-5.2c-.13-.13-.3-.3-.5-.5l-1.1-1.1s-.1-.1-.2-.2l-4.5-5.6c-.3-.4-.4-.5-.7-.9-5-6.7-6.4-13.3-15.2-13.5-2.5,0-5.1.7-7,2.1l-1.1.8s-.1.1-.2.1l-1,1.2s0,.1-.1.2c0,0,0,.1-.1.2l-1.7,2.4s0,.1-.1.2l-1.3,2.2s0,.1-.1.2c0,0,0,.1-.1.2l-5.9,7.9c-2.6,3.2-8.4,9-11.4,11.6l-7,5.7c-.3.2-.5.4-.9.7-.7.6-.9.7-1.6,1.3l-3.8,3.8-1.1,2.7c-.4,1.8-.4,2.9,0,4.7.4,1.9,1,3.2,2.4,4.6l11.7,9.7c.7.5.9.6,1.6,1.3,2,1.9,3.7,3.7,5.7,5.7,3.1,3.1,5.7,6.5,8.4,9.9l1.1,1.7c2.1,3.2,3.7,6.7,6.8,9,.9.6.8.5,1.8,1l4.8,1.2h.1Z"/>
    <path class="cls-3" d="M130.4,304.8c10.1,0,12.4,0,21.8,1,3.8.4,6.2.9,10.4,1,2,0,3.1.5,5,.8,2,.3,2.5.8,4.5,1,3.5.4,6.4,1.4,9.5,1.9,1.3.2,1.2.2,2.3.6.9.3,1.3.2,2.4.5.9.2,1.2.5,2.1.7,3.9.7,8.7,1.6,12.2,3.4,1.8.9,1.5,0,3.5.9,1.4.5,2.8.9,4.3,1.4s3.6,1.3,4.5,2.5l.6,1c.6.9,1.3.5.9,5-.2,2.4-1.6,4-3.8,4.9-3.3,1.4-6.6-.8-9.1-1.4l-4.3-1.3c-1.2-.4-3.1-.8-4.6-1.2-.9-.3-1.5-.2-2.4-.4-.9-.2-1.2-.5-2-.7l-9.2-2.3c-1.6-.4-3.8-.4-5-.7-.8-.2.3,0-.8-.4-1.7-.7-2.3-.2-3.9-.6-3.3-.9-6.2-1.2-9.8-1.6-4.9-.5-6.9-1.7-15.3-1.9-3.7,0-7.4,0-10.9-.5-3.4-.4-7.4.2-10.9.3-3.2.1-7.8,0-11,.3-1.3.1-.8.4-4.9.7-.4,0-2,.2-2.5.3-1.1.2-.5.4-2.3.6-4.2.4-1.2-.2-4.6.9-.9.3-1.6.2-2.6.3-1.1.2-.7.4-2.3.6-.9.1-1.8,0-2.5.3-3.5,1.3-13,4.2-15.8,4.1-1.8,0-3-.7-4.1-1.7l-2.2-3.5c-1.6-7.6,7-9.3,12.3-10.3,1.2-.2,1.4-.5,2.3-.6l11.3-2.8c3.1-.6,6.6-.8,9.7-1.6,1.6-.4,13.6-1,16.1-1.2,3.6-.2,7.6-.3,11.4-.3h-.3ZM124.4,273.9c-2.4.4-10.9.3-15.9,1.1-1.7.3-3.5.3-5.2.5-3.2.4-9.4,2.1-11.7,2.4-.9.1-1.8.1-2.7.3l-11.1,3c-1,.4-.8.5-2.2.6-3.6.3-5.4-.6-7.1-3.4-2-3.1-.9-4.6.1-6.7,1.3-2.6,2.3-2.2,5.7-3.8l9-2.7c.9-.2,1.7-.1,2.5-.4,1.6-.5,0-.4,2.1-.7,2.2-.3,2.9-.7,4.8-1,2.1-.3,2.1-.7,4.7-.9,2.1-.1,2.6-.8,4.7-.9,1.9-.1,3.5-.3,5.1-.6,2.9-.6,7.8-.5,10.8-.9,6.7-.8,15.2-.4,22.3-.4l15.6,1.3c1.7.5,3.7.2,5.7.4,2,.2,5.2,1.5,9.2,2,1.6.2,3.1.7,4.8.9l22.7,5.6c1.3.4,1.1.5,2,.8,1,.3,1.3.3,2.2.6.7.3,1.5.4,2.1.7,2.3,1,6.2,1.5,8.1,3.2.4.3,1.2,1.3,1.3,1.5,1.2,2.8.8,6.2-1.7,8.6-2.5,2.3-5.8,2-9.1.7l-31.3-8.4c-2.8-.9-22.6-3.2-25.5-3.3-6.7-.4-15.3-1.6-22.1-.4h0v.3h.1ZM93.1,232.7s-.2,0-.2.2c-.4,1,.4,0-1.2.6-.4.1-1.1.4-1.7.5l-6.7,1.6c-1.1.4-2.4.7-3.3,1-4.5,1.4-9.5,2.4-12.2-2.7-1.9-3.7-.4-7.4,2.8-9.6,0,0,.1,0,.2-.1,1.2-.8,7-2.1,8.8-2.7.7-.2.7-.4,1.2-.5.7-.2,1.3-.2,2-.3,1.6-.4.2-.8,3.9-.7,1.6,0,5.8-1.2,7.3-1.5l8.4-1.1c1.2-.1,2.4-.5,3.6-.7,1.5-.2,2.9-.1,4.3-.4,2.2-.4.2-.5,4.1-.6,11.9-.2,29.6-1.2,40,1,4.4.9,4.5.4,8.2.9,1.4.2,2.5.5,4.1.6l12,2c2.7.5,4.9,1.2,7.8,1.7,1.8.3,0,0,1.5.6,1.7.7,1.9-.1,3.7.8,2.1,1,6,1.4,11.4,3.7h.2c3.4,1.3,8.3,1.7,10.6,4.9,1.4,2.1.9,5.5-.2,7.4-3.1,5.6-10.6,1.7-13.7.8l-10.6-3.3c-2.1-.8-14-3.1-15.1-3.5l-8.2-1.3c-1.6-.2-2.3-.7-3.8-.8-1.4-.1-3,0-4.4-.2-2.1-.2-10-1.6-12.3-1.7h-27.8c-2.6,0-14.8,1.2-16.9,1.9l-7.7,1.4h-.1v.1ZM83.1,190.3c-.5.6.3,0-.8.7-1,.6-7.5,2.1-9.1,1.9-5.4-.6-8.1-6.6-5-11.2,1.2-1.8,3.3-2.9,5.5-3.4,2.3-.5,1.4-.6,2.2-.8.8-.2,1.6-.1,2.6-.4,1.2-.4,1.2-.6,2.7-.8.6.2,6.1-1.4,7.8-1.6,1.8-.2,2.1-.7,4.1-.9,1.8-.2,2.8-.4,4.4-.7,2.6-.5,5.8-1,8.6-1.2,3.8-.3,2-.8,9.1-.9l19.5-.4c5.5.6,10.4.2,14.3.5,1.6.1,2.6.6,4.4.7,6.1.3,12.3,1,17.8,2.2,1.4.3,2.3.6,4,.8l12.3,2.8c.9.3.9.4,1.5.6l21.3,6.2c2.3,1.1,4.2,2.9,4.5,5.5.4,2.6-1.3,5.6-3,6.6-2.3,1.5-6.2.9-8.7.2-2.7-.8-7.1-2.9-11.3-3.6-1.2-.2-2.6-.7-3.8-1.1-1.3-.4-2.3-.6-3.7-1l-20.5-4.4-11-1.3c-1.4-.2-1-.3-2-.5-1.2-.2-3.6-.2-5-.2-5.2,0-14.6-.8-19-.4-5.4.5-9.5.3-14.5.5-1.7,0-2.5.6-4.1.8-1.6.2-3.3,0-4.8.3l-8.1,1.6c-4.4.5-1.8.6-4.1.9-1,.1-1.3,0-2.3.3l-5.8,1.4h0v.3h0ZM43.9,147.2v232.1c0,5.5,2.8,11.7,7.2,14.5,6,3.8,11.5,2.8,17.5.5,5-1.9,10.2-2.6,14.1-4.2l9-2c2.6-.3,3.5-.9,6.1-1.1,3.8-.3,9.7-1.6,13-1.8,1.1,0,2.3,0,3.4-.2,1.3-.2,1.5-.5,3.2-.5,11.9-.2,17,0,28.7.5,4.9.2,8.7.9,13.4,1.4l15.8,2.4c1.1.3,2,.4,3,.7,1.4.4,1.9.3,3.3.6l5.6,1.5c2.1.5,4.4.6,7.3,1.8l18,5.9c.7.2.7.3,1.4.5,2.4,1,14,5.5,15.1,5.5V136.3l-18.8-7.6c-1.9-.6-2.2-.9-3.8-1.5l-5.9-2c-.9-.3-1.5-.3-2.4-.5l-8.7-2.9c-1.1-.3,0,0-.9-.4l-8.5-2.1c-.9-.1-1.9,0-2.8-.2-1.5-.2-.9-.5-4.5-.9-2.9-.3-6.2-1.8-9.1-1.5-2.5,4.4-5.4,9.3-13.2,8.1l-2.9-1.1s-.1,0-.2-.1c0,0-.1,0-.2-.1,0,0-.3-.2-.4-.2-1-.6-1.9-1.7-2.6-2.7-.9-1.3-4-6.1-4.6-6.4l-.8-.2c-2.6-.4-17.8.2-19.7.5-3.2.4-7.2.2-10.1.7l-27.2,5.3-8.4,2.5c-3.1.9-5.1,1.9-8.1,2.9-.9.3-12.2,5.4-13.4,6.3-2.5,1.9-1.5.6-3.9,3-1,1-1.6,1.8-2.2,3.1-1.5,3.2-2,4.6-2,9.1h0l.2-.2h0Z"/>
    <path class="cls-3" d="M274.5,328.9c-.7,1.5-.7.7-3.3,1.7-.8.3-1.1.2-2,.5-1,.3-.6.4-2,.7-2.2.4-4.8.3-6.7-1l-1.2-1.3c-4.6-5.7.8-11.8,5-11.8s10.4-3.6,15.4-4.5l10-2.6c1-.2,1.2,0,2.1-.4,1.9-.7,1.8-.5,4.1-.8,1.9-.3.3-.3,4.4-.8l8.3-1.7c1.5-.2,3.5,0,4.9-.3,1.5-.3.3-.6,4.2-.8,1.6,0,3-.2,4.6-.5,4.8-.8,35.2-.9,39.7,0,1.7.4,2.7.4,4.6.5l8.8,1.5c1.4.4,4.9.5,8.5,1.6,3,1,2.6.1,7.6,2.1h.2c.7.2,1.4.1,2.2.4,1.5.4,3,1.2,5.8,1.7,2.4.5,5.2,2.9,5.6,4.9,1.1,6.1-3.7,10.2-10.9,7.8-1.7-.6,0-.3-1.7-.7l-8-2.1c-1.4-.6.2-.5-2-.6-4.6-.3-2.3-.3-4.5-.7-1.5-.3-3.2,0-4.7-.5l-8.4-1.5c-9.5-.7-30.5-1.9-39.4-.7-1.8.3-1.5.7-4.1.8-1.9,0-3.1,0-4.8.4-2.7.7-6.3.2-9.5,1-2.6.7-5.9.8-8.6,1.5l-16.2,4c-.8.2-1.2.2-2.1.5-.7.2-1,.4-1.8.7-1.2.4-3,1.2-3.9,1h-.2ZM342.3,273.5c-14.9,0-19.1,1-32.1,2.5-6.3.7-7.3,1.8-9,2.1-1.7.3-6.3.7-7.8,1.2l-6.8,1.7c-1,.2-1.5.5-2.2.6-.9.2-1.6.2-2.5.4l-10.9,3.3c-3.2.6-7.2,3.5-11-.4-2.8-2.8-3.2-7.9,2.2-11.1,1.2-.7,5.8-1.9,8.4-2.9l18.1-4.9c1.5-.2,1.2-.5,2.1-.7l27.3-4.1c1.4-.2,1-.4,2.5-.6,15.6-1.5,25.7-.8,41.3-.2l18.5,3.1c4,1.4,3.2.4,5.7,1.2.8.3,1.5.3,2.3.5,3,.8,13.2,3.1,15.1,5.1,3.7,3.8,1.7,9.5-2.2,11.1-3.1,1.3-10-1-13.8-2.2-1.6-.5-3.2-.6-4.6-1.1-2.9-.9-5.9-1.8-9.5-2.1-1.9-.2-3.3-.7-4.8-.9-11.1-1.3-14.6-1.9-26.4-1.9h0v.3h.1ZM329.9,215.5c5-.6,17.3-.5,22.6,0,3.6.3,7.2.4,10.6.7,10.2.9,19,2.8,28.7,5.4l4.5,1.2c1,.3,3.6.9,4.4,1.3,5.8,2.6,5.6,8.2,3.2,11-2.6,3.1-6.4,2.1-8.7,1.6-4.1-.9-4.7-1.6-6.5-1.9l-1.3-.4c-3.2-1.3-7.3-1.1-10.5-2.1-2.1-.7-7.7-1-10.1-1.4-2.3-.3,0-.5-4.8-.8-3.4-.2-7-.6-10.4-.8-7.5-.4-15.1,0-22.4.2l-20.8,2.3c-4.7,1.1-11.8,2-17,3.1-.9.2-1,.5-2,.7-1.6.5-2.9.7-4.7,1.1-1.4.3-.6.3-2,.7-.9.2-1.6.1-2.5.4-1,.3-.9.5-2.1.7-3,.5-11.3,5.3-15.7,3.4-2.3-1-4.6-3.6-4.1-7.2.2-1.7.7-2.8,1.8-3.9,1.6-1.6,7.5-3.6,10-4.2,1.1-.3,1.3-.2,2.3-.6,5.8-2.3,9.1-2.1,13.2-3.8l4.3-1.3c.9-.2,1.7-.1,2.6-.3l9.5-1.9c4.7-1.2,10-1.4,12.3-1.9,4.9-1,11.2-.8,15.8-1.4h-.2v.1ZM339.1,170.5c3.1-.5,17,.4,22.1.5,2.5,0,3.2.6,5,.8,1.8.2,3.8-.1,5.5.3.9.3.9.5,2.1.6,4.4.5,2.4.7,4.7.9,1,0,1.7,0,2.6.3l11.6,2.9c2.7.9,9,2.5,10.4,3.8,2.4,2.2,3,5.8,1.5,8.5-.6,1-1.6,2.4-2.7,2.9-3.2,1.5-8-.2-11.3-1.3-1-.3-1.4-.2-2.5-.4-1.4-.3-.6-.4-2-.8-.9-.2-1.8,0-2.6-.3-.7-.2-.7-.5-2.1-.7l-7.2-1.3c-2.9-1-6.3-1.2-9.8-1.6-1.7-.2-3-.7-5.1-.8h-5.7c-3.9,0-7.1-.4-11-.5l-16.7.5c-1.8,0-2.7.6-4.7.8-1.7.2-3.9.1-5.7.4-1.9.3-2.6.5-5.1.7l-2.3.5c-.7.3-15.3,2.5-19.1,3.9l-13.7,3.7c-1,.3-1.3.2-2.3.6-1.8.7-6.8,2.6-8.9,2.3-1.5-.2-2.9-1-3.9-1.8-1.2-.8-1.7-2.1-2-3.7-1.7-8.3,8.5-9.4,14.5-11.2,1.4-.4.6-.4,1.9-.8,4-1.1,8.1-1.9,12.3-3.5.6-.2.4-.1.9-.2l14.9-2.7c2.1-.5,1.5-.9,4.5-1,2.2-.1,3.2-.6,4.8-.8,1.7-.2,3.7-.1,5.3-.4,1.8-.2,3-.6,5-.7,1.9,0,3.8,0,5.7-.1,2.5,0,8.8,0,11-.4h.1v.1ZM243.1,138.1v267.3c1.2,0,7.5-2.3,9.4-3l6.3-2.8c1.9-.8,3.9-.9,5.9-1.8l40.8-10.5c2.1,0,1.6-.2,3-.8,1.8-.7,4.8-.2,6.8-.4,1.4,0,1.7-.5,3.1-.6,13.3-1,22.3-1.2,36-1l19.7,2.3c1,.3,2.4.3,3.4.4l19.1,4.8c.8.2.5.3,1.4.5l8.5,2.5c3.5,1.8,8.5,1.7,12.2,0,.8-.4,1.9-.9,2.6-1.2,1.7-1,3.6-2.8,4.7-4.4l.9-1.1s.1,0,.1-.2c0,0,.1,0,.1-.2,1.6-2,1.7-6.4,1.7-9v-232.1c0-3.2-.3-5.4-1.6-7.6-1.9-3.5-2.8-4.9-6.3-7.3-.9-.6-2.2-1.2-3.2-1.6l-3.2-1.3c-2.8-1.3-6.4-3.4-9.5-4.3-.9-.2-.9-.1-1.8-.5-2.7-1.2-5.8-1.7-8.6-2.8-5.9-2.3-4.5-1-8.9,2.8l-2.2,2.2c-4.1,4.3-7.2,7.5-10.3,12.7-1.1,1.9-2.2,4-3.9,5.2-4.4,3.1-9.4,3.5-13.7.2-1.4-1.1-2-2.1-2.9-3.7l-4.8-7.2c-2.7-3.3-5.8-6.6-8.9-9.4-2.5-2.3-4.7-4.5-7.2-6.4-4.3-3.2-4.5-4.1-10.5-3.2-5.5.8-14.8,1.7-19.9,3.1-1.7.5-2.4.3-4.2.6-1.3.2-1.7.6-3.5.9l-7.4,1.8c-5.6,1.1-11,3-16.4,4.6-1,.3-.8.4-1.8.7l-22.9,9.2c-1.7.7-2.2.3-2.2,2.5h0l.1.1Z"/>
    <path class="cls-7" d="M19.5,174.1c1.1-.3,1.3-1.1,1.4-1.1.2.3,0,0,.3.7.5,2.4,0,187.9,0,201.5s-.2,4.7.5,7.3c.7,2.5-.2,3.4,1,6.8l.9,2.9c.5,1.3.6,2.5,1.3,3.8,1.4,2.5,1.8,4.3,3.8,6.7l2.7,3.3c.2.3.5.7.8,1.1l13,9.3,5.5,1.8c1.5.8,9.9.6,11.7.5,3.6-.2,6.9-.4,10.1-1.6,1.8-.7,4.2-1,6.1-1.8,2.9-1.2,5.9-1.8,8.9-2.8,1.1-.4,2.3-.2,3.3-.5,1.2-.3.3-.2,1.3-.5.9-.3,1.2-.2,2.1-.3l6.2-1.5c2.1-.7,5-.2,7.2-.7l3.4-.5c3.9,0,3.3-.9,10.7-.9s17.4-.5,23.2.2c3.2.4,7.4.4,10.4,1.3,1.1.3,2.2.3,3.6.3s1.8.4,3.2.6c1.4.2,2.3.2,3.8.3l10.6,2.4h.2c2.4.5,4.7.4,8.6,1.6,1,.3,1.9.6,2.8.9l9.2,2.5c1.3.3,1.9.4,3.2.7l3,1.1c.7.3,1.8.9,2.5,1.2l4.6,1.5c.9.2.6.2,1.4.5l6.9,2.9c.5.2.9.3,1.4.5l2.6,1.2c2.7,1.4,5,2.9,8,4,1.8.6,3.6,2.6,5.4,2.6s5.2-2.5,6.5-3.1c1.2-.6,2.1-.9,3.3-1.5l6.2-3.2c3.2-1.5,6.1-2,7.1-2.5.9-.4,0-.2,1.6-.7l5.4-1.9c.5-.2.9-.4,1.5-.6l2-.8h.4c2.1-.9,4.2-1,5-1.4l.4-.2h.2c.6-.3,0,0,.9-.3,1.4-.5,3.2-.6,4.6-1.1l.8-.4c4.5-1.8,14.5-3.3,17-4.4,1.6-.7,2.1-.5,3.7-1l10.1-1.5c1.6,0,3-.7,6.3-.9,2.1-.2,1.9-.6,4.1-.7,6-.2,12.3-.5,18.6-.5s12.3.3,18.6.6c.3.8,0-.9,0,0v.3c3,.2,5.8.2,8.3.9.6.2.8.2,1.5.2,1.9.2,6.6,1.5,8.6,1.9.8,0,1.5,0,2.3.3.9.2,1,.5,2.3.6,5.5.6,1.2.3,4.4,1,2.1.4.6,0,1.8.6h.2l14.6,4.3c2.7.7,12.6,1.2,15.3.3.9-.3.8-.4,1.9-.6l6.5-1.9c1-.5.6-.4,2-.9.9-.3.3,0,.8-.4,1.9-1.2,4-2.2,5.6-3.8,1.4-1.4,2.9-2.4,4.1-4.2,3.3-4.8,3.1-2.9,6.6-9.4,1-1.9.9-1.6,1.4-4.1.2-1.1.5-1.2.7-2.1,2-6.8,1.9-15.3,1.9-22.3,0-28.6-.3-192.2,0-194.9,0-.7.3-.6.8-.8l-.7-1.5-.2-.1-3.7-5.5c-.7-.6-1.4-.8-1.8-1.8-1.8-1.8-1.7-2.6-3.4-2.7-.6,9.4,0,20.8,0,30.4v184.5c0,5.3.2,9.8-1.6,14-1.8,4-2.7,6.5-5.8,9.7-2.5,2.6-2.3,3-5.8,5.5-.8.6-1.5,1-2.4,1.4-8.7,4.6-16.8,4.3-25.5,1.6l-17.7-5.3c-5.2-.4-5.6-1.6-9.5-1.9l-10.2-1.5c-9.5-1.4-19.3-1.3-29.6-1.2-2.1,0-4.9.2-7,.5-2.4.3-4.8.2-7.1.5-1.4.2-1,.6-2.8.8-3.2.2-7.4.5-10.3,1.4-1.1.4-6.3.8-9.6,1.7-1.3.4-1.9.4-3.4.7-1.1.2-1.4.7-2.9.8-3.2.2-9.5,1.9-12.5,3.1l-16.9,5.8c-1.2.5-2,.4-3.2.9l-13.3,5.6h-.2l-5.2,2.4c-3.9,2.1-7.6,0-11.6-2.1-3-1.6-11-5-13.6-5.7-1.6-.4-.5,0-1.3-.5-4.9-2.5-13.8-4.7-18.4-6.5l-9.5-2.3c-1.7-.4-4.4-1.4-5.9-1.6-1.2-.2-2.5-.2-3.4-.4-4.8-1.4-9.4-1.8-9.8-1.9-4-1.3-15.2-2.2-20.2-2.7-7.6-.9-14.6-.6-22.4-.6s-9.4.8-14.5,1l-9.4,1.7c-5.5.3-4.2.7-7.3.9l-12,3.3c-2.5,1.1-12.1,4-14.5,4.3-10.1,1.3-8.3.7-16.6-1.3-1.6-.4-3.8-2-5.2-2.7-3.6-1.7-5.8-4.3-8.1-7.4-2.6-3.6-3.9-5.9-4.9-10.2-1.2-5.3-1.1-3.8-1.1-10.6v-184.8c0-10.1.4-20.9,0-30.9-1.8,0-2.4,1.3-3.3,2.4l-5.2,6.1c-1.1,1.8-1.2,1.7-2.1,3.9h-.1v.1Z"/>
    <path class="cls-5" d="M19.5,174.1c-1.7,1.7-2.7,5.6-3.3,7.2-.4,1.1-1,2.6-1.3,3.9-1.6,5.8-1.2,18.4-1.2,24.7v105c0,3.6.5,6.8-1.2,9.2-1.8,2.5-3.6,3.1-6.4,3.9v12.7c1,.7,1.4.7,2.6,1,.8.2,1.7.6,2.4,1.1,1.1.8,2.1,3,2.5,4.5,1,4.1-.6,31.7.3,37.8,0,.9.5,1.6.6,2.7.2,1.3,0,1.9.5,3,2,4.6,1.1,5,3.8,10.1.4.8.8,1.4,1.2,2.2,1,1.9,1.4,2.7,2.7,4.2,4.6,5.1,2.3,3.6,7.7,8,0,0,.8.6.9.7l1.8,1.6c1.9,1.9,8.4,5,11.3,6,4.6,1.7,9.5,2.7,14.6,2.8,2.4,0,4-.5,6.3-.6,4.7-.2,2.6-.3,6.1-1,1.9-.4,3.9-1,5.3-1.6,4.7-1.7,21.9-6.4,27.7-6.9,3.9-.3,8.5-1.5,12.3-1.6,7.7-.2,20.4-.7,27.7,0l9.4,1c1.4.3,1.1.5,2.6.7l9.4,1.1c1.2.2,1.2.5,2.7.7,6.4,1,18.5,4,25.1,6.2l13,4.4c3.3,1.4,6.9,2.5,10,3.9,1.5.7,2.9,1.6,4.5,2.3l4.9,2.1c4.3,2.2,9.8,2.9,14.9,2.3l9.8-4c8-4.2,16.5-6.9,25-10.3l.9-.3c.5,0,.9,0,1.4-.2,1.3-.3,1.3-.6,2.7-.8,2.7-.5,5.6-1.8,7.8-2.6l5.7-1.2c1.9-.3,1-.5,2.6-.9,1.1-.3,2,0,3.2-.4,4.1-.9,8.6-1.4,11.7-2,1.9-.4,4-.5,6-.9,8-1.7,35.3-2.1,40.1-.9,2.1.5,4,.5,6.4.6,1.4,0,1.8.4,2.9.5,4,.7,3.4-.2,8.8,1.6,1.6.5,8.1,1.1,9,1.5,1.6.7-.5-.2.6.3,2.6,1.2,6.8,2.7,9.6,3.3,2.8.6,5.1,1.8,7.7,2.6,1.7.5,11.2.8,13.4.6,5.2-.4,10.9-1.8,15.5-3.8l5.2-2.6h.2l8-6.2c1.2-1.2,2.3-2.2,3.3-3.6.9-1.3,2.2-2.8,2.9-4.1,1.6-3.1,3.6-5.7,4.8-9.1,3.3-9.9,3.1-13.2,3.1-24.4v-166.5c0-4.5,0-9.3-.2-13.6-.5-6.9-.6-4.6-1.6-8.9-.6-2.6-1.7-5.5-2.9-7.5-.9-1.7-1.5-2.9-2.5-4.4-.3-.4-.5-.7-.8-1.1-.2-.2-.4-.7-.6-1-1.2-2.1-3.1-3.5-4.5-5.3.4,1,1.1,1.2,1.8,1.8l3.7,5.5.2.1.7,1.5c-.5.2-.7.2-.8.8-.3,2.7,0,166.3,0,194.9s.2,15.5-1.9,22.3c-.3.9-.5,1-.7,2.1-.5,2.4-.4,2.1-1.4,4.1-3.5,6.5-3.3,4.7-6.6,9.4-1.2,1.7-2.7,2.8-4.1,4.2-1.6,1.6-3.8,2.6-5.6,3.8-.5.3.1,0-.8.4-1.4.5-1,.4-2,.9l-6.5,1.9c-1,.2-1,.3-1.9.6-2.6.9-12.6.5-15.3-.3l-14.6-4.3h-.2c-1.2-.6.3-.2-1.8-.6-3.2-.6,1.1-.4-4.4-1-1.3,0-1.4-.4-2.3-.6-.8-.2-1.5,0-2.3-.3-2-.4-6.7-1.7-8.6-1.9-.7,0-.8,0-1.5-.2-2.5-.7-5.3-.7-8.3-.9-.1-.3,0-.2,0-.3,0-1,.3.7,0,0-6.3-.2-12.3-.5-18.6-.6-6.3,0-12.6.4-18.6.5-2.1,0-2,.5-4.1.7-3.3.3-4.8.8-6.3.9l-10.1,1.5c-1.6.5-2.1.3-3.7,1-2.5,1.1-12.5,2.6-17,4.4l-.8.4c-1.4.6-3.1.7-4.6,1.1-1,.3-.4,0-.9.3h-.2l-.4.2c-.8.3-2.9.5-5,1.4h-.4l-2,.8c-.6.2-1,.5-1.5.6l-5.4,1.9c-1.5.5-.6.2-1.6.7s-3.9,1-7.1,2.5l-6.2,3.2c-1.2.6-2.1.9-3.3,1.5-1.3.6-5.3,3.1-6.5,3.1-1.8,0-3.6-2-5.4-2.6-3-1-5.3-2.6-8-4l-2.6-1.2c-.5-.2-.8-.3-1.4-.5l-6.9-2.9c-.8-.3-.6-.3-1.4-.5l-4.6-1.5c-.6-.3-1.8-.9-2.5-1.2l-3-1.1c-1.3-.3-1.9-.4-3.2-.7l-9.2-2.5c-.9-.3-1.8-.6-2.8-.9-3.8-1.2-6.2-1.1-8.6-1.6h-.2l-10.6-2.4c-1.4-.2-2.4,0-3.8-.3-1.4-.2-1.3-.6-3.2-.6s-2.6,0-3.6-.3c-3-.9-7.2-.9-10.4-1.3-5.8-.7-17.1-.2-23.2-.2s-6.8.9-10.7.9l-3.4.5c-2.2.6-5.1,0-7.2.7l-6.2,1.5c-.9,0-1.2,0-2.1.3-1.1.3,0,.2-1.3.5-1,.3-2.2.2-3.3.5-3,1-6,1.6-8.9,2.8-1.9.8-4.3,1.1-6.1,1.8-3.2,1.3-6.5,1.4-10.1,1.6-1.8,0-10.2.3-11.7-.5l-5.5-1.8-13-9.3c-.4-.4-.6-.8-.8-1.1l-2.7-3.3c-1.9-2.3-2.4-4.2-3.8-6.7-.7-1.3-.8-2.4-1.3-3.8l-.9-2.9c-1.2-3.4-.4-4.3-1-6.8-.7-2.5-.5-4.2-.5-7.3,0-13.5.4-199,0-201.5,0-.6,0-.4-.3-.7,0,0-.4.8-1.4,1.1h0l-.3.2v-.1Z"/>
    <path class="cls-7" d="M274.5,74.7c1-.6,2.1-3.1,2.8-4.1.9-1.3,2.1-2.5,3.2-3.7,3-3.6,1.8-2.9,6.2-7.1,4.1-3.9,6.5-6.7,10.9-9.9,6.7-4.9,2.9-2.8-8-14.5l-2.8-2.6c-3.3-3.1-6.2-6.4-8.9-10-.2-.3-.6-.9-.7-1.1-.6-1-.8-1.2-1.4-2.1-.8-1.2-.6-1.3-1.9-1.9-.9.6-1.1,1.1-1.6,2l-4.1,5.6c-2.7,2.5-4.1,4.6-6.9,7.6l-12.4,11.3c-.7.5-2,1.3-2,2.3s0,.4,1.6,1.8l9.2,8.1c1.3,1.4,2.5,2.5,3.6,3.6l8.2,9.1,3.5,5.3c.9.8-.2.6,1.4.5h0v-.2h.1Z"/>
    <path class="cls-1" d="M93.1,232.7c-1.9,0-5.8.9-7.2,1.3-3,.9-11.1,3.4-13.4,2.8l-2.7-1.4c-3-2.1-4.1-9.5,4.2-11.6l9.6-2.8c1.1-.3,2.2-.5,2.9-1.1-3.7,0-2.3.3-3.9.7-.7.2-1.3.1-2,.3-.5.2-.5.3-1.2.5-1.8.5-7.6,1.8-8.8,2.7,0,0-.1,0-.2.1-3.2,2.2-4.7,5.9-2.8,9.6,2.6,5.1,7.7,4.1,12.2,2.7,1-.3,2.2-.6,3.3-1l6.7-1.6c.7-.1,1.3-.3,1.7-.5,1.6-.5.9.4,1.2-.6,0-.1.2-.1.2-.2h.2v.1Z"/>
    <path class="cls-6" d="M83.1,190.3c-3,0-5.7,2.2-10.2,1.9-5.5-.5-8.4-9.9-.4-12.7l6.6-1.9c.5-.1.9-.2,1.2-.4.8-.5.4-.2.9-.8-1.6.2-1.5.4-2.7.8-.9.3-1.8.2-2.6.4-.8.2,0,.3-2.2.8s-4.3,1.5-5.5,3.4c-3.2,4.7-.4,10.7,5,11.2,1.6.2,8.1-1.3,9.1-1.9,1.1-.7.3-.2.8-.7h0v-.1Z"/>
    <path class="cls-4" d="M274.5,328.9c-5.1,1-10.3,4.8-14.5.6-1.5-1.6-1.7-3.5-1.5-5.6l.5-1.9c.6-1.1,1.4-1.9,2.3-2.4,1.5-1,1.3,0,3-1.7-4.2,0-9.6,6.1-5,11.8l1.2,1.3c1.9,1.3,4.6,1.5,6.7,1,1.3-.3,1-.4,2-.7.9-.3,1.2-.2,2-.5,2.6-1.1,2.6-.3,3.3-1.7h0v-.2h0Z"/>
  </g>
</svg>