<?xml version="1.0" encoding="utf-8"?>
<!-- Generator: Adobe Illustrator 27.9.0, SVG Export Plug-In . SVG Version: 6.00 Build 0)  -->
<svg version="1.1" id="Ebene_1" xmlns="http://www.w3.org/2000/svg" xmlns:xlink="http://www.w3.org/1999/xlink" x="0px" y="0px"
	 viewBox="0 0 309 81.1" style="enable-background:new 0 0 309 81.1;" xml:space="preserve">
<style type="text/css">
	.st0{fill:#E63312;}
</style>
<g>
	<path d="M276.7,62.5c-1.2,0-2.5-0.6-2.5-2c0-1.2,1.1-2,2.8-2c1.8,0,2.9,0.8,2.9,0.8v1.6C279.8,60.8,278.6,62.5,276.7,62.5
		 M277,52.6c-2.4,0-4.2,1.1-4.2,1.1l0.8,1.7c0,0,1.6-0.9,3.3-0.9c0.9,0,2.8,0.3,2.8,2.6v0.6c0,0-1.3-0.9-3.3-0.9
		c-2.5,0-4.4,1.5-4.4,3.7c0,2.4,2.1,3.8,4.1,3.8c2.5,0,3.8-1.9,3.8-1.9V64h1.8v-7.3C281.8,54.6,280.3,52.6,277,52.6 M265.4,49.4
		c0,0.7,0.6,1.4,1.4,1.4c0.7,0,1.4-0.6,1.4-1.4c0-0.7-0.6-1.4-1.4-1.4C266,48,265.4,48.6,265.4,49.4 M265.7,64h2V52.9h-2V64z
		 M260.8,52.6c-2.1,0-3.1,2-3.1,2v-1.7h-1.9V64h2v-7.6c0,0,0.8-1.9,2.5-1.9c0.8,0,1.3,0.2,1.3,0.2l0.7-1.8
		C262.4,52.9,261.7,52.6,260.8,52.6 M244.4,54.7h2.2v6.1c0,2.4,1.8,3.5,3.3,3.5c0.6,0,1.3-0.1,2.3-0.7l-0.7-1.7c0,0-0.6,0.5-1.3,0.5
		c-1.1,0-1.6-0.6-1.6-1.7v-6h3.5v-1.8h-3.5v-3.4h-2v3.4h-2.2V54.7z M232.2,62c0,0,1.6,2.3,4.8,2.3c2.1,0,4.4-1.1,4.4-3.2
		c0-2.3-1.8-3-3.9-3.5c-1.8-0.4-2.7-0.8-2.7-1.7c0-0.7,0.7-1.4,2.1-1.4c1.7,0,2.8,1.2,2.8,1.2l1.3-1.4c0,0-1.5-1.7-4.1-1.7
		c-2.5,0-4.1,1.6-4.1,3.2c0,2.1,1.7,3,4.1,3.5c1.7,0.3,2.5,0.8,2.5,1.8c0,0.9-1.3,1.4-2.4,1.4c-2.2,0-3.4-1.8-3.4-1.8L232.2,62z
		 M223.2,64.3c2.4,0,3.4-2,3.4-2V64h1.9V52.9h-2v7.7c0,0-0.9,1.8-2.8,1.8c-1.5,0-2.7-0.8-2.7-2.7v-6.8h-2V60
		C219,62.8,221,64.3,223.2,64.3 M208.3,50.1l2.9,7.5h-5.8L208.3,50.1z M200.8,64h2.2l1.8-4.5h7.2l1.8,4.5h2.1l-6.6-16.8h-1.9
		L200.8,64z M183.3,54.7h2.3V64h2v-9.3h2.9v-1.8h-2.9v-3.7c0-1.1,0.6-1.8,1.7-1.8c0.6,0,1.3,0.4,1.3,0.4l0.7-1.7
		c-1-0.5-1.7-0.6-2.3-0.6c-1.6,0-3.4,1.2-3.4,3.5v3.8h-2.3V54.7z M174.9,62.4c-2.2,0-3.7-1.8-3.7-4s1.5-4,3.7-4c2.2,0,3.7,1.8,3.7,4
		S177.1,62.4,174.9,62.4 M174.9,52.6c-3.3,0-5.7,2.6-5.7,5.8s2.4,5.8,5.7,5.8c3.3,0,5.7-2.6,5.7-5.8S178.1,52.6,174.9,52.6
		 M157.1,60.8c0,0-1.1,1.6-3.2,1.6c-2.2,0-3.7-1.8-3.7-4s1.5-4,3.7-4c2,0,3,1.3,3,1.3l1.4-1.2c0,0-1.6-2-4.4-2
		c-3.3,0-5.7,2.6-5.7,5.8c0,3.3,2.4,5.8,5.7,5.8c2.9,0,4.5-2.1,4.5-2.1L157.1,60.8z M141.6,49.4c0,0.7,0.6,1.4,1.4,1.4
		s1.4-0.6,1.4-1.4c0-0.7-0.6-1.4-1.4-1.4S141.6,48.6,141.6,49.4 M142,64h2V52.9h-2V64z M134.7,64h2V45.8h-2V64z M121.5,56.4
		c0,0,1.1-1.9,3.3-1.9s3.7,1.8,3.7,4s-1.4,4-3.7,4c-2.2,0-3.3-1.9-3.3-1.9V56.4z M125.1,52.6c-2.4,0-3.6,1.7-3.6,1.7v-8.4h-2V64h1.8
		v-1.6c0,0,1.1,1.9,3.7,1.9c3,0,5.4-2.6,5.4-5.8S128.1,52.6,125.1,52.6 M109.3,64.3c2.4,0,3.4-2,3.4-2V64h1.9V52.9h-2v7.7
		c0,0-0.9,1.8-2.8,1.8c-1.5,0-2.7-0.8-2.7-2.7v-6.8h-2V60C105.1,62.8,107.1,64.3,109.3,64.3 M92.4,56.4c0,0,1.1-1.9,3.3-1.9
		c2.3,0,3.7,1.8,3.7,4s-1.4,4-3.7,4c-2.2,0-3.3-1.9-3.3-1.9V56.4z M90.4,52.9v16.6h2v-6.9c0.4,0.5,1.5,1.7,3.6,1.7
		c3,0,5.4-2.6,5.4-5.8S99,52.6,96,52.6c-2.6,0-3.7,1.9-3.7,1.9v-1.6H90.4z M77.7,57.5c0.1-1.2,1.1-3,3.5-3c2.2,0,3.4,1.8,3.4,3H77.7
		z M81.3,52.6c-3.3,0-5.5,2.6-5.5,5.8c0,3.3,2.4,5.8,5.8,5.8c2.9,0,4.6-2.2,4.6-2.2l-1.3-1.3c0,0-1.2,1.6-3.3,1.6
		c-2.1,0-3.7-1.6-3.8-3.2h9c0-0.3,0-0.4,0-0.6C86.7,54.9,84.4,52.6,81.3,52.6 M62.2,64h2v-6.9h1.6l4.5,6.9h2.4l-4.7-7
		c0.5-0.1,4.1-0.8,4.1-4.8c0-3-2.3-5-5.6-5h-4.4V64z M66.7,55.2h-2.5v-6.1h2.5c2.3,0,3.5,1.2,3.5,3C70.2,54,68.9,55.2,66.7,55.2"/>
	<path d="M280.5,39c0,0,1,0.8,2.4,0.8c1.2,0,2.4-0.6,3.1-2.2c0.3-0.6,5.8-14.7,5.8-14.7h-2.2l-3.3,8.8l-3.9-8.8H280l5.2,11.1
		l-0.9,2.2c-0.4,1.1-0.8,1.7-1.7,1.7c-0.6,0-1.3-0.6-1.3-0.6L280.5,39z M276.7,22.6c-2.1,0-3.1,2-3.1,2v-1.7h-1.9V34h2v-7.6
		c0,0,0.8-1.9,2.5-1.9c0.8,0,1.3,0.2,1.3,0.2l0.7-1.8C278.3,22.9,277.6,22.6,276.7,22.6 M259.1,27.5c0.1-1.2,1.1-3,3.5-3
		c2.2,0,3.4,1.8,3.4,3H259.1z M262.6,22.6c-3.3,0-5.5,2.6-5.5,5.8c0,3.3,2.4,5.8,5.8,5.8c2.9,0,4.6-2.2,4.6-2.2l-1.3-1.3
		c0,0-1.2,1.6-3.3,1.6c-2.1,0-3.7-1.6-3.8-3.2h9c0-0.3,0-0.4,0-0.6C268,24.9,265.7,22.6,262.6,22.6 M250.9,34h2V15.8h-2V34z
		 M243.5,34h2V15.8h-2V34z M230.4,27.5c0.1-1.2,1.1-3,3.5-3c2.2,0,3.4,1.8,3.4,3H230.4z M233.9,22.6c-3.3,0-5.5,2.6-5.5,5.8
		c0,3.3,2.4,5.8,5.8,5.8c2.9,0,4.6-2.2,4.6-2.2l-1.3-1.3c0,0-1.2,1.6-3.3,1.6c-2.1,0-3.7-1.6-3.8-3.2h9c0-0.3,0-0.4,0-0.6
		C239.3,24.9,237,22.6,233.9,22.6 M224.4,30.8c0,0-1.1,1.6-3.2,1.6c-2.2,0-3.7-1.8-3.7-4c0-2.2,1.5-4,3.7-4c2,0,3,1.3,3,1.3l1.4-1.2
		c0,0-1.6-2-4.4-2c-3.3,0-5.7,2.6-5.7,5.8c0,3.3,2.4,5.8,5.7,5.8c2.9,0,4.5-2.1,4.5-2.1L224.4,30.8z M207.5,22.6
		c-2.4,0-3.4,1.8-3.4,1.8v-1.6h-1.9V34h2v-7.6c0,0,1-1.9,2.8-1.9c1.5,0,2.7,0.8,2.7,2.7V34h2v-7.1C211.7,24.1,209.8,22.6,207.5,22.6
		 M192.6,32.5c-1.2,0-2.5-0.6-2.5-2c0-1.2,1.1-2,2.8-2c1.8,0,2.9,0.8,2.9,0.8v1.6C195.7,30.8,194.5,32.5,192.6,32.5 M192.9,22.6
		c-2.4,0-4.2,1.1-4.2,1.1l0.8,1.7c0,0,1.6-0.9,3.3-0.9c0.9,0,2.8,0.3,2.8,2.6v0.6c0,0-1.3-0.9-3.3-0.9c-2.5,0-4.4,1.5-4.4,3.7
		c0,2.4,2.1,3.8,4.1,3.8c2.5,0,3.8-1.9,3.8-1.9V34h1.8v-7.3C197.8,24.6,196.2,22.6,192.9,22.6 M179.9,22.6c-1.9,0-2.9,1.2-3.3,1.6
		v-8.4h-2V34h2v-7.6c0,0,1-1.9,2.8-1.9c1.5,0,2.7,0.8,2.7,2.7V34h2v-7.1C184,24.1,182.1,22.6,179.9,22.6 M170.5,19.5
		c0,0-2.1-2.6-6-2.6c-4.8,0-8.3,3.8-8.3,8.7s3.5,8.7,8.3,8.7c3.9,0,6.2-2.8,6.2-2.8l-1.4-1.4c0,0-1.8,2.2-4.8,2.2
		c-3.6,0-6.1-3.2-6.1-6.8c0-3.6,2.5-6.8,6.1-6.8c3.1,0,4.6,2,4.6,2L170.5,19.5z M141.7,34h2V15.8h-2V34z M131.5,32.5
		c-1.2,0-2.5-0.6-2.5-2c0-1.2,1.1-2,2.8-2c1.8,0,2.9,0.8,2.9,0.8v1.6C134.7,30.8,133.5,32.5,131.5,32.5 M131.9,22.6
		c-2.4,0-4.2,1.1-4.2,1.1l0.8,1.7c0,0,1.6-0.9,3.3-0.9c0.9,0,2.8,0.3,2.8,2.6v0.6c0,0-1.3-0.9-3.3-0.9c-2.5,0-4.4,1.5-4.4,3.7
		c0,2.4,2.1,3.8,4.1,3.8c2.5,0,3.8-1.9,3.8-1.9V34h1.8v-7.3C136.7,24.6,135.2,22.6,131.9,22.6 M123.2,22.6c-2.1,0-3.1,2-3.1,2v-1.7
		h-1.9V34h2v-7.6c0,0,0.8-1.9,2.5-1.9c0.8,0,1.3,0.2,1.3,0.2l0.7-1.8C124.8,22.9,124.1,22.6,123.2,22.6 M105.5,27.5
		c0.1-1.2,1.1-3,3.5-3c2.2,0,3.4,1.8,3.4,3H105.5z M109.1,22.6c-3.3,0-5.5,2.6-5.5,5.8c0,3.3,2.4,5.8,5.8,5.8c2.9,0,4.6-2.2,4.6-2.2
		l-1.3-1.3c0,0-1.2,1.6-3.3,1.6c-2.1,0-3.7-1.6-3.8-3.2h9c0-0.3,0-0.4,0-0.6C114.5,24.9,112.1,22.6,109.1,22.6 M97.3,30.5
		c0,0-1.1,1.9-3.3,1.9c-2.3,0-3.7-1.8-3.7-4c0-2.2,1.5-4,3.7-4s3.3,1.9,3.3,1.9V30.5z M93.7,22.6c-3,0-5.4,2.6-5.4,5.8
		s2.4,5.8,5.4,5.8c2.7,0,3.7-1.9,3.7-1.9V34h1.8V15.8h-2v8.4C97.3,24.3,96.2,22.6,93.7,22.6 M76.5,27.5c0.1-1.2,1.1-3,3.5-3
		c2.2,0,3.4,1.8,3.4,3H76.5z M80,22.6c-3.3,0-5.5,2.6-5.5,5.8c0,3.3,2.4,5.8,5.8,5.8c2.9,0,4.6-2.2,4.6-2.2l-1.3-1.3
		c0,0-1.2,1.6-3.3,1.6c-2.1,0-3.7-1.6-3.8-3.2h9c0-0.3,0-0.4,0-0.6C85.4,24.9,83.1,22.6,80,22.6 M64.2,19.1h7.5v-1.9h-9.5V34h2v-7.7
		h7v-1.9h-7V19.1z"/>
</g>
<polygon class="st0" points="43.2,22.7 43.2,17 17,17 19.7,22.7 "/>
<polygon class="st0" points="24.9,34 43.2,34 43.2,28.3 22.3,28.3 "/>
</svg>
