<svg width="32" height="32" viewBox="0 0 32 32" fill="none" xmlns="http://www.w3.org/2000/svg">
<g clip-path="url(#clip0_296_6747)">
<mask id="mask0_296_6747" style="mask-type:luminance" maskUnits="userSpaceOnUse" x="0" y="0" width="31" height="32">
<path d="M30.9985 16.0005C30.9985 19.979 29.418 23.7945 26.6048 26.6078C23.7916 29.421 19.976 31.0014 15.9975 31.0014C12.019 31.0014 8.20349 29.421 5.39026 26.6078C2.57704 23.7945 0.996582 19.979 0.996582 16.0005C0.996582 12.022 2.57704 8.20642 5.39026 5.39319C8.20349 2.57997 12.019 0.999512 15.9975 0.999512C19.976 0.999512 23.7916 2.57997 26.6048 5.39319C29.418 8.20642 30.9985 12.022 30.9985 16.0005Z" fill="white"/>
</mask>
<g mask="url(#mask0_296_6747)">
<path d="M31 1V11L1 11V1L31 1Z" fill="#E32D3C"/>
<path d="M31 11V21H1V11L31 11Z" fill="white"/>
<path d="M31 21V31H1V21L31 21Z" fill="#E32D3C"/>
</g>
<circle cx="16" cy="16" r="15.5" stroke="#5A5A5A"/>
</g>
<defs>
<clipPath id="clip0_296_6747">
<rect width="32" height="32" fill="white"/>
</clipPath>
</defs>
</svg>
