<svg width="31" height="31" viewBox="0 0 31 31" fill="none" xmlns="http://www.w3.org/2000/svg">
<g clip-path="url(#clip0_296_6862)">
<mask id="mask0_296_6862" style="mask-type:luminance" maskUnits="userSpaceOnUse" x="0" y="0" width="31" height="31">
<path d="M30.0297 15.5004C30.0297 19.3546 28.4986 23.0509 25.7733 25.7762C23.048 28.5016 19.3517 30.0326 15.4975 30.0326C11.6433 30.0326 7.94702 28.5016 5.22171 25.7762C2.4964 23.0509 0.965332 19.3546 0.965332 15.5004C0.965332 11.6463 2.4964 7.94995 5.22171 5.22464C7.94702 2.49933 11.6433 0.968262 15.4975 0.968262C19.3517 0.968262 23.048 2.49933 25.7733 5.22464C28.4986 7.94995 30.0297 11.6463 30.0297 15.5004Z" fill="white"/>
</mask>
<g mask="url(#mask0_296_6862)">
<path d="M30.0312 0.96875V10.6563L0.96875 10.6563V0.96875L30.0312 0.96875Z" fill="#E32D3C"/>
<path d="M30.0312 10.6562V20.3438H0.96875V10.6563L30.0312 10.6562Z" fill="white"/>
<path d="M30.0312 20.3438V30.0313H0.96875V20.3438L30.0312 20.3438Z" fill="#E32D3C"/>
</g>
<circle cx="15.5" cy="15.5" r="15.5" fill="#D9D9D9" fill-opacity="0.6"/>
</g>
<defs>
<clipPath id="clip0_296_6862">
<rect width="31" height="31" fill="white"/>
</clipPath>
</defs>
</svg>
