<?xml version="1.0" encoding="UTF-8"?>
<svg id="_x2014_ÎÓÈ_x5F_1" xmlns="http://www.w3.org/2000/svg" xmlns:xlink="http://www.w3.org/1999/xlink" version="1.1" viewBox="0 0 4000 4000">
  <!-- Generator: Adobe Illustrator 29.2.1, SVG Export Plug-In . SVG Version: 2.1.0 Build 116)  -->
  <defs>
    <style>
      .st0 {
        fill: #eb6021;
      }

      .st1 {
        fill: #29120d;
      }

      .st2 {
        fill: #fcd836;
      }

      .st3 {
        fill: #eaa712;
      }

      .st4 {
        fill: #fefefe;
      }

      .st5 {
        fill: url(#_ÂÁ_Ï_ÌÌ_È_ËÂÌÚ);
      }

      .st6 {
        fill: #f78004;
      }

      .st7 {
        fill: #e03102;
      }

      .st8 {
        fill: #2d2423;
      }

      .st9 {
        fill: #f7bf9e;
      }
    </style>
    <linearGradient id="_ÂÁ_Ï_ÌÌ_È_ËÂÌÚ" data-name="¡ÂÁ˚ÏˇÌÌ˚È „‡‰ËÂÌÚ" x1="1787.4" y1="2309.2" x2="1853.2" y2="2513.9" gradientTransform="translate(-3830.1 10933.1) scale(3.9 -3.9)" gradientUnits="userSpaceOnUse">
      <stop offset="0" stop-color="#1c0200"/>
      <stop offset="1" stop-color="#3e1408"/>
    </linearGradient>
  </defs>
  <path class="st4" d="M0,0h4000v4000H0V0Z"/>
  <path class="st7" d="M350.1,2746.1c9,8,13.5,17.1,20.6,26.4-12.9,8.5-75.9,53.4-85.4,53.8l-1.2-.6c19.5-28.2,43.4-53.9,66-79.6Z"/>
  <path class="st1" d="M2918.1,1904.9c16.5-6.8,32.6-13.7,48.5-21.8,49.9,83.2,85.1,169,113,261.6-46.6,12-74.6,8.1-121.1,5.3l-1.1-.9c-4.9-75.2-20.4-170.5-39.6-243.3l.3-1Z"/>
  <path class="st0" d="M3079.7,2144.7c6.1,30.8,14.2,61.3,19.7,92.2,10.2,57.6,12.9,116.9,11.7,175.2-15.6,0-31.6,3-47.2,3.7-42.7,1.7-81.4-6.9-122-19.1,19.4-71.6,17.7-172.6,16.7-246.7,46.6,2.8,74.6,6.7,121.1-5.3Z"/>
  <path class="st6" d="M2461.7,337.1c55.3-14.6,120.3-37.9,163.3-76.1,44.9-39.9,59.3-93.5,62.8-151.2,8.6,14.2,16.5,28.8,23.8,43.7,7.3,14.9,14,30.1,19.9,45.6-.4.7-.8,1.4-1.1,2.2-4.1,8.3-8.4,48.9-13.6,64.9-28,86.8-100.9,147.7-184.3,179.2-15.5,5.9-31.7,11.5-47.8,15.3-17.5,4.1-43.3,4.6-58.9,12.6-23.9-8.4-47.4-18.2-71.7-25.6-46.2-14-95.3-21.7-143.3-25,48.9-27.4,108.3-50.3,148.4-89.9,38.1-37.6,47.5-85.3,47.9-136.8,38.2,41.7,51.6,85.7,54.6,141.1Z"/>
  <path class="st6" d="M2425.8,473.4c15.6-7.9,41.4-8.4,58.9-12.6,16.1-3.8,32.4-9.5,47.8-15.3,83.3-31.5,156.3-92.5,184.3-179.2,5.2-16,9.5-56.6,13.6-64.9.4-.7.8-1.5,1.1-2.2,20.4,53.8,33.1,115,19.1,172.1,12.4,3.7,48.9-16.3,60.5-22.6,51.6-28.2,85.4-62.9,117.1-111.8,33.6,88.7,11.1,158.6-26.1,241.6-7.6,16.8-15.4,33.6-23.2,50.4,77-7.7,118.2-34.5,168.1-92.8,20.8,94.6-26.1,182.8-75.7,260.3-6.1,9.6-12.4,19-19.1,28.3,49.1,6.9,85.9,4.2,131.7-14.8-11.3,49.3-28.4,82.2-72.4,109.7-26.3,16.5-55.3,27.3-84.9,36.1,50,19,96.7,14.8,148,5.1-24.2,57.5-74.9,95.8-131.4,119.1-15.6,6.4-31.6,12-47.6,17.7-18.3-101.3-68.1-193.6-130.4-274.2-38.9-43.3-76.8-88.7-124.3-123.1-8.5-12.3-48.6-35.2-63.4-44.3-32.6-33.7-108.5-64.9-151.8-82.4Z"/>
  <path class="st7" d="M2425.8,473.4c15.6-7.9,41.4-8.4,58.9-12.6,16.1-3.8,32.4-9.5,47.8-15.3,83.3-31.5,156.3-92.5,184.3-179.2,5.2-16,9.5-56.6,13.6-64.9.4-.7.8-1.5,1.1-2.2,20.4,53.8,33.1,115,19.1,172.1-20.6,64.2-48,107.5-91,158.8,50.8,43.8,116.4,64.2,183.2,59.5,27.3-1.9,52.7-8.1,78.2-18-22.4,55-63.1,94.3-112.6,125.5-13.9,8.8-30.2,16.2-43,26.1-38.9-43.3-76.8-88.7-124.3-123.1-8.5-12.3-48.6-35.2-63.4-44.3-32.6-33.7-108.5-64.9-151.8-82.4Z"/>
  <path class="st5" d="M3372.9,1205.7c52.7,33.4,84.3,115.1,109,130.4,6-1.6,8.3-3.2,12.1-8.2,12.7-16.5,21.4-36.1,33.6-53.1,13.7-19.1,83.7-101.4,105.4-91.9,15.4,31.2-47.3,142.8-39.9,172.9,1.3,5.4,3.3,6.1,7.8,8.6,13.6,1,29.5-7.8,42.7-11.6,27-7.7,133.3-36.5,151.4-19.6.9,4.9-.2,7.3-3,11.5-19.7,29.2-70.5,62.6-100.9,83-11.9,8-25.6,15.4-36,25.2-5.2,4.8-8.1,8.8-8.1,16.2,11.3,28.3,130.4,58.3,124.7,86-27.9,19-205.2,5.5-266.5,33.9-48.3,22.4-87.7,106.4-117.7,150-16.9,24.9-35.8,48.3-56.5,70.1-25.9,26.9-46.6,44.9-84.4,51.6-75.7,13.3-157.2,7.3-233.1-.1-21.4-2.1-43-6.5-64.4-7.6-21.6-13.2-42.4-41.3-59.6-59.9-24-27.6-48.7-54.7-73.1-82-4.4-10.9-13.1-22.2-18.8-32.7-12.6-23-24.1-47.6-33.4-72.2-3.3-8.8-10.7-26.6-6.7-35.3,45.9,15,90.7,33.1,136.4,48.6,85.8,29.1,175.9,54.5,264.8,72.1,28.9-15.9,56.5-33.2,82.7-53.3,48.1-36.9,129.1-111.9,145.3-170.9,10-36.4-.8-81.1-5.3-118.1-5.6-45.8-13.3-97.6-8.3-143.6Z"/>
  <path class="st0" d="M3519.7,1428c12.4-.8,23.6-1.5,35.5,3,10.8,4.1,21.2,11.9,25.5,22.9,2.8,7.3,2.7,15.3-.6,22.5-6.9,15.1-22,21.3-36.7,26.2-14.7,2.1-29,1.4-42.6-5.2-10.2-5-19.8-13.4-23-24.6-2.1-7.3-1.4-15.1,2.4-21.7,8.3-14.5,24.4-19.2,39.5-23Z"/>
  <path class="st1" d="M1849.7,1959.6c-70.9,31.2-141.8,49.5-217.1,66.1-43.5,9.6-116.5,27.3-159.6,20.9-74.9-11-180.6-144.3-222.9-205.8-32.6-47.3-60-102-107.4-136.3-59.5-43.1-144-53.1-212.3-78.3-23.7-8.7-91-34.4-101.2-56.3l1.8-4c37-25.7,142.2-6.1,159.5-15.2,4-2.1,6.4-4.5,7.2-9.2,1.2-7.4-4.3-16.4-8.5-22-9.7-12.8-22.7-23.9-33.8-35.5-26.8-28.2-50-57.2-68.9-91.4-5.6-10.1-17.5-29.3-13.2-41,1.1-3.1,3.2-3.2,5.8-4.7,36.9-.4,133.1,75.2,171.5,93.3,7.3,3.5,15.2,7.2,23.3,4.2,7.6-9.8.7-39.6-.5-51.6-3-30.8-9.5-126.3,10.5-147.5,2.4-2.5,2.8-1.9,5.9-2.2,9.7,5.8,15.6,16.4,21.5,25.8,25.6,40.3,41.3,86.3,58.4,130.7,6.7,17.3,12.8,38,23,53.4,4.2,6.3,9.4,12.8,17.3,13.9,3.5.5,5.6-.6,8.6-2.4,15.2-9.5,44.4-52.2,65-69.4,11.2-9.3,29-25,44.3-23.6,7.3,5.3,6.9,11.2,5.8,19.6-2.3,16.4-10.3,32.4-15.7,48-17.3,49.9-46.9,126.1-35.6,178.5,16.5,76.1,164.1,188.1,231.1,229.3,18.5-4.1,36.9-8.7,55.1-14,18.2-5.2,36.2-11.1,54.1-17.5,17.8-6.4,35.5-13.4,52.9-20.9,17.4-7.5,34.5-15.6,51.4-24.2,40.6-20.5,79.7-43.7,120.1-64.7,1.8,19.2,0,39.1-.5,58.4-.7,27-.9,54.1-.5,81.1.3,24.4,1.2,48.7,2.5,73.1.6,13.1,3.1,28.6,1.2,41.5Z"/>
  <path class="st0" d="M1105.1,1518c14.8-1.2,28.5,1,41.7,8.1,14.4,7.7,26.6,20.6,31,36.7,2.8,10.2,2,21.4-3.7,30.4-7.9,12.5-20.3,17.2-34.2,20-14.3.5-27.5-1.4-40.4-7.8-15-7.4-28.8-20.4-33.9-36.6-2.9-9.4-2.8-19.7,2.1-28.4,8.1-14,22.7-18.5,37.3-22.4Z"/>
  <path class="st6" d="M2735.8,1509.5c3,15.2,7.9,50.1,19.1,60.5l2.5.8c-4,8.7,3.4,26.5,6.7,35.3,9.3,24.5,20.8,49.2,33.4,72.2,5.8,10.5,14.4,21.8,18.8,32.7,24.4,27.3,49,54.4,73.1,82,17.2,18.6,38,46.7,59.6,59.9,5.9,10,12.1,19.9,17.7,30.1-15.9,8-32,15-48.5,21.8l-.3,1c19.2,72.8,34.7,168.2,39.6,243.3l1.1.9c1,74,2.8,175-16.7,246.7-11.1,66.6-37.6,135.7-65.3,197.1-7.8,17.2-26.4,41.1-29.6,58.1l-1-.2c-8-36.9-62.1-84.1-92.5-103.8-65.5-42.5-143.3-62.2-220.4-45.6-92.2,19.9-178.6,93.2-227.3,172.3-.9,1.5-1.8,3.1-2.6,4.6-4.5-1.7-47.3-55.9-56.6-64.6-36.1-34.1-76.2-55.2-123.8-69-19.3.6-39,.3-58.2,1.7-6.8-7.6-12.6-19.8-17.9-28.7-25.7-43.2-47.5-87.5-69.3-132.7-35.9-72-62.9-150.3-85.8-227.4-13.4-44.7-39.4-142.2-38.5-188l-3.4-11.2c1.8-12.9-.6-28.4-1.2-41.5-1.3-24.3-2.1-48.7-2.5-73.1-.4-27-.2-54.1.5-81.1.5-19.3,2.3-39.2.5-58.4-.3-16.7,3.3-36,5.4-52.6,5,8.8,23,12.2,32.8,15,19.2,5.1,38.5,9.4,58,12.9,19.5,3.5,39.2,6.1,58.9,7.8,19.8,1.8,56.3-.6,72.8,5h.7c111.7-.8,219-17.9,327.3-44.3,26.5-6.4,60.3-12.9,83.8-26.5v-.8c17.2-9.1,38.1-14,56.6-20.5,27-9.4,53.5-19.9,79.7-31.5,39.2-17.3,73.8-43.3,112.6-60.5Z"/>
  <path class="st0" d="M2889.4,1793.1c17.2,18.6,38,46.7,59.6,59.9,5.9,10,12.1,19.9,17.7,30.1-15.9,8-32,15-48.5,21.8-7.5-33-28.5-79.6-28.7-111.8Z"/>
  <path class="st8" d="M2735.8,1509.5c3,15.2,7.9,50.1,19.1,60.5l2.5.8c-4,8.7,3.4,26.5,6.7,35.3,9.3,24.5,20.8,49.2,33.4,72.2,5.8,10.5,14.4,21.8,18.8,32.7-105.5,40.5-177.9-20.8-269.1-64.7-18.4-8.9-40.3-19.8-60.4-23.6v-.8c17.2-9.1,38.1-14,56.6-20.5,27-9.4,53.5-19.9,79.7-31.5,39.2-17.3,73.8-43.3,112.6-60.5Z"/>
  <path class="st8" d="M1852.4,1652.9c5,8.8,23,12.2,32.8,15,19.2,5.1,38.5,9.4,58,12.9,19.5,3.5,39.2,6.1,58.9,7.8,19.8,1.8,56.3-.6,72.8,5-20.8,25.1-43.5,48.5-63.4,74.3-33.4,43.4-121,178.9-158.5,202.9l-3.4-11.2c1.8-12.9-.6-28.4-1.2-41.5-1.3-24.3-2.1-48.7-2.5-73.1-.4-27-.2-54.1.5-81.1.5-19.3,2.3-39.2.5-58.4-.3-16.7,3.3-36,5.4-52.6Z"/>
  <path class="st8" d="M1891.5,2158.7c34.2-19.1,65.1-39.3,91.9-68.1,97.3-104.3,137.5-285.3,285.6-335.5,150.7-51,273.2,70.6,398.6,131.6,85.1,41.4,160.4,50.1,250.3,19,19.2,72.8,34.7,168.2,39.6,243.3-70.5-14.1-131.9-41-191.5-81.3-36.4-24.7-71.9-51.4-110.4-72.7-119.9-66.5-260.1-79.6-377.6-1.6-53,35.2-94.6,87.1-121.5,144.4-46.6,98.9-55.3,211.4-179.2,248.2-35.9-72-62.9-150.3-85.8-227.4Z"/>
  <path class="st2" d="M1977.3,2386.1c123.9-36.8,132.7-149.3,179.2-248.2,27-57.3,68.6-109.2,121.5-144.4,117.5-78,257.7-64.9,377.6,1.6,38.5,21.4,74,48,110.4,72.7,59.5,40.4,121,67.2,191.5,81.3l1.1.9c1,74,2.8,175-16.7,246.7-11.1,66.6-37.6,135.7-65.3,197.1-7.8,17.2-26.4,41.1-29.6,58.1l-1-.2c-8-36.9-62.1-84.1-92.5-103.8-65.5-42.5-143.3-62.2-220.4-45.6-92.2,19.9-178.6,93.2-227.3,172.3-.9,1.5-1.8,3.1-2.6,4.6-4.5-1.7-47.3-55.9-56.6-64.6-36.1-34.1-76.2-55.2-123.8-69-19.3.6-39,.3-58.2,1.7-6.8-7.6-12.6-19.8-17.9-28.7-25.7-43.2-47.5-87.5-69.3-132.7Z"/>
  <path class="st8" d="M2122.8,2545.8c28-17.7,56.6-30.7,80.5-54.5,91-90.8,79.3-212.4,211.9-275.4,107.1-50.9,208.1-22.7,301.7,41.7,36.4,25,69.8,54.1,106.6,78.7,37.3,25,76,45.3,118.4,60.4-11.1,66.6-37.6,135.7-65.3,197.1-7.8,17.2-26.4,41.1-29.6,58.1l-1-.2c-8-36.9-62.1-84.1-92.5-103.8-65.5-42.5-143.3-62.2-220.4-45.6-92.2,19.9-178.6,93.2-227.3,172.3-.9,1.5-1.8,3.1-2.6,4.6-4.5-1.7-47.3-55.9-56.6-64.6-36.1-34.1-76.2-55.2-123.8-69Z"/>
  <path class="st8" d="M2058.9,421.7c34.4-5.1,73.6-1.7,108.3.1,14.4.8,29.3,2.5,43.7,1,48.1,3.4,97.2,11,143.3,25,24.2,7.4,47.8,17.1,71.7,25.6,43.4,17.5,119.2,48.7,151.8,82.4,14.7,9.2,54.8,32,63.4,44.3,47.4,34.4,85.4,79.8,124.3,123.1,62.4,80.7,112.1,172.9,130.4,274.2,9.1,49.9,11.7,103,5,153.3-6.2,65.6-31,123.6-61.8,181-23.5,47.4-73.7,96.8-113,130.6,3,15.8,6.4,31.5,10,47.1-38.8,17.2-73.4,43.1-112.6,60.5-26.1,11.6-52.7,22.1-79.7,31.5-18.5,6.5-39.4,11.3-56.6,20.5v.8c-23.5,13.6-57.4,20.1-83.8,26.5-108.3,26.4-215.6,43.5-327.3,44.4h-.7c-16.5-5.7-53-3.2-72.8-5-19.7-1.8-39.4-4.4-58.9-7.8-19.5-3.5-38.9-7.7-58-12.9-9.8-2.7-27.9-6.2-32.8-15,2.7-26.7,7.7-52.8,13.7-78.8-14-7.5-52.4-12.8-69.8-17.2-11.7-3-23.1-7.1-34.5-11.1-136.8-48.3-267.4-124.4-358.9-239.5-60.3-75.8-112.9-176-100.6-275.8,10.4-84.7,75.2-156.1,139.5-206.8-3.6-16.7-4.1-35.1-2.5-52.1,5-52.7,33.5-104.6,74.3-138.1,35.5-29.1,79.1-44.4,125-40,25.4-17.8,49-37.8,74.8-55.2,114.3-77.4,210.4-104,345.4-116.5Z"/>
  <path d="M1592.5,966.6c1.8,0,3.7,0,5.5.1,23.3,1.5,40.5,13.9,55.4,31,5.3,6.1,12.2,13.4,11.8,21.8l-3.6,2c-3.5-.6-6.9-1.4-10.3-2.4-21-6.2-53.3-20.1-63.8-40.1-.3-6.9.9-7.1,5-12.3Z"/>
  <path d="M2022.2,1080.5c14.6-.6,31.9-1.6,45.4,4.7,4.7,2.2,6.5,3.8,8.4,8.6l-2.6,4.5c-13,8.5-26.9,9.2-41.9,11-13.9.2-47,4.1-57.2-4.7l.5-4c11.8-12.7,31-16.7,47.4-20.1Z"/>
  <path class="st1" d="M2641,600.1c47.4,34.4,85.4,79.8,124.3,123.1,62.4,80.7,112.1,172.9,130.4,274.2,9.1,49.9,11.7,103,5,153.3-20.4-55.8-38.7-107.8-71.3-158.3-4.1-8.8-10.7-17.2-16-25.4,4-18.3-4.7-43.1-9.6-60.8-21.9-80.7-52.1-158.2-99.5-227.6-10.7-15.6-22.8-30.6-35.3-44.9-8.3-9.6-20.4-20.2-26.6-31.1-.5-.9-.9-1.7-1.4-2.6Z"/>
  <path class="st1" d="M1536.2,1112.1c-26.3-18.3-113.5-67-120.5-94.8,2.1-5,2.9-5.5,7.2-8.7,8.6,1,43.7,35.9,55.5,44,36.2,25,74,45.6,114.4,63,140.8,60.8,298.4,93.1,450.5,107.2,135.7,12.6,275.3,9.3,407.2-27.4,10.9-3,20.2-10.9,29.3-1.6,1,4.2,1.7,5.9-1.4,9.5-5.7,6.5-16.5,8.5-23.8,12.7-.6.2-1.2.4-1.9.6-53.9,16.9-110.6,24.5-166.7,29.3-232.7,19.9-541.8-24.3-749.9-133.7Z"/>
  <path class="st2" d="M2637.1,827.1c74.8,26.7,128.2,79.1,176.3,140,5.3,8.2,11.9,16.6,16,25.4,32.6,50.6,50.8,102.5,71.3,158.3-6.2,65.6-31,123.6-61.8,181-5.7-46.9-21.8-95.8-38.5-139.8l-.7-1.8c-38.3-80.5-82.1-134.3-152.6-189,17.6-44.4,21.1-89.7,5.4-135.5-4.1-12-11.7-23.8-14.7-35.9-.2-.9-.4-1.8-.6-2.6Z"/>
  <path class="st3" d="M2829.4,992.5c32.6,50.6,50.8,102.5,71.3,158.3-6.2,65.6-31,123.6-61.8,181-5.7-46.9-21.8-95.8-38.5-139.8l-.7-1.8c6.2-9.8,9.9-21.8,13.7-32.7,19.3-55.2,20.9-107.4,16.1-165Z"/>
  <path class="st0" d="M1638.7,593.4c33.2,11.6,62.2,24.6,78.9,58.2,15,30.4,13.3,74.7,2.2,106.2-1.3,3.5-2.7,6.7-4.9,9.7-10,33.1-37,78.2-69.1,94.4-2.4,1.2-4.8,1.9-7.3,2.6,1.1,1.9.6.6-.1,4.1-15.9,15.2-38.7,27.1-59.9,32.9-29,8-61.1,7.6-87.6-8-26.8-15.7-40.9-40.8-48.8-69.9-3.6-16.7-4.1-35.1-2.5-52.1,5-52.7,33.5-104.6,74.3-138.1,35.5-29.1,79.1-44.4,125-40Z"/>
  <path class="st3" d="M1612.5,608c12.1-2.3,23.4.3,35.3,2.5-13.4,3.4-26.3,8-38.4,14.7-69.2,38-98,107.9-118.9,179.5l-3.2,5.9-3.5.6c-9.4-7.3-13.2-25.6-15.3-37-6.1-34.3,5.8-66.4,25.5-94.5,28.8-41.1,69.7-63.2,118.4-71.7Z"/>
  <path d="M1612.7,674.1c14.1-7.5,36.1-5.9,51.2-1.3,18.4,5.6,32.5,18.4,40.8,35.6,9,18.6,10.7,38.9,10.1,59.1-10,33.1-37,78.2-69.1,94.4-2.4,1.2-4.8,1.9-7.3,2.6-15.2,3.7-32,3.4-46.3-3.1-15.7-7-26.6-20.6-32.1-36.7-13-37.4.7-80.8,16.8-115,1.2-4.7,2.7-9.3,4.7-13.8,6-13.4,18.6-17.3,31.3-21.9Z"/>
  <path class="st4" d="M1612.7,674.1c8.5,2.6,15.1,4.3,19.8,12.5,4.4,7.7,4.7,17,1.9,25.3-3.2,9.7-10.1,18.5-19.4,22.9-6.4,3-13.5,3.5-20.1.5-9.8-4.4-14.5-13.9-17.7-23.6-.2-.6-.4-1.3-.6-1.9,1.2-4.7,2.7-9.3,4.7-13.8,6-13.4,18.6-17.3,31.3-21.9Z"/>
  <path class="st0" d="M1536.2,1112.1c208.1,109.4,517.2,153.7,749.9,133.7,56.1-4.8,112.8-12.4,166.7-29.3.6-.2,1.2-.4,1.9-.6-13.7,28.5-38.3,58.5-61.8,79.6-26.9-.4-54.7,3.7-81.6,5.7-42.2,3.1-85.5,4.5-127.8,3-49.7-1.6-99.3-4.9-148.8-9.8-120.2-11.9-229.1-33.6-346.1,14.1-21.5,8.8-47.3,20.2-64.3,36.6-.4.4-.8.8-1.2,1.2-.4-.4-.8-.7-1.2-1.1-59.5-61.3-84.6-149.8-85.7-233.1Z"/>
  <path class="st9" d="M1623.1,1346.2c.4-.4.8-.8,1.2-1.2,16.9-16.3,42.7-27.8,64.3-36.6,117-47.7,225.9-26,346.1-14.1,49.5,4.9,99.1,8.2,148.8,9.8,42.3,1.4,85.6,0,127.8-3,26.9-1.9,54.7-6.1,81.6-5.7-118.9,113.9-279,192.2-446.1,189.2-124.7-2.3-236.9-48.7-323.7-138.4Z"/>
  <path class="st2" d="M2058.9,421.7c34.4-5.1,73.6-1.7,108.3.1,14.4.8,29.3,2.5,43.7,1,48.1,3.4,97.2,11,143.3,25,24.2,7.4,47.8,17.1,71.7,25.6,43.4,17.5,119.2,48.7,151.8,82.4-32.9-9.6-66.2-12.7-100.4-12.4-192.2,1.3-382.2,102.9-525.7,224.7-40.7,34.5-77.5,73.5-115,111.4,26.2-173,107.6-327.2,222.3-457.8Z"/>
  <path class="st6" d="M2647.1,1001.1c-10.7,24.3-24.9,46.2-44.5,64.4-36,33.4-83.1,49.9-131.9,48-55-2.2-105.8-28.8-142.4-69.4-35.8-39.6-53.9-89.5-50.6-142.9,3-48.7,27.8-97.2,64.5-129.3,38.8-33.9,89.7-48.4,140.7-44.3,46.7,3.7,91.7,24.5,123,59.6,10.7,12,19,25.8,29.4,37.7l1.8,2c.2.9.4,1.8.6,2.6,3,12.1,10.6,24,14.7,35.9,15.7,45.8,12.2,91.1-5.4,135.5Z"/>
  <path d="M2389,820.6c21.8-2,42.7,1.2,61.5,13,21.3,13.3,34.5,35,40.4,59,7,28.6,5.1,62.5-11,87.7-14.5,22.8-34.6,32.3-60.1,37.5-20.9.5-39.9-2.1-58.7-12.1-1.5-.8-2.9-1.6-4.4-2.5-1.4-.9-2.8-1.8-4.2-2.7-1.4-.9-2.8-1.9-4.1-2.9-1.3-1-2.7-2.1-3.9-3.1-1.3-1.1-2.6-2.2-3.8-3.3-1.2-1.1-2.4-2.3-3.6-3.5-1.2-1.2-2.3-2.4-3.4-3.7-1.1-1.3-2.2-2.5-3.2-3.9-1-1.3-2.1-2.7-3.1-4-1-1.4-1.9-2.8-2.8-4.2-.9-1.4-1.8-2.8-2.6-4.3-.8-1.5-1.6-2.9-2.4-4.4-.8-1.5-1.5-3-2.2-4.5-.7-1.5-1.3-3.1-2-4.6-.6-1.6-1.2-3.1-1.7-4.7-.5-1.6-1-3.2-1.5-4.8-7.4-25.7-4.9-54.4,8.8-77.7,15.6-26.6,39.3-38.8,68.1-46Z"/>
  <path class="st4" d="M2365.5,834c6-.3,12.9-.6,18.6,1.4,8.4,3,15.1,9.6,18.7,17.6,4.4,9.5,4.1,20.3,0,29.8-4.4,10.3-11.8,15.4-21.8,19.8-5.5.5-11.9.7-17.1-1.1-8.3-2.8-15.6-9.4-19.6-17.2-4.7-9.2-5-19.8-1.5-29.5,4-11,12.7-15.9,22.7-20.9Z"/>
  <path class="st1" d="M2800.3,1192c16.7,44,32.8,92.9,38.5,139.8-23.5,47.4-73.7,96.8-113,130.6,3,15.8,6.4,31.5,10,47.1-38.8,17.2-73.4,43.1-112.6,60.5-26.1,11.6-52.7,22.1-79.7,31.5-18.5,6.5-39.4,11.3-56.6,20.5v.8c-23.5,13.6-57.4,20.1-83.8,26.5-108.3,26.4-215.6,43.5-327.3,44.4h-.7c-16.5-5.7-53-3.2-72.8-5-19.7-1.8-39.4-4.4-58.9-7.8-19.5-3.5-38.9-7.7-58-12.9-9.8-2.7-27.9-6.2-32.8-15,2.7-26.7,7.7-52.8,13.7-78.8,3-2.2,4.8-2.6,8.7-2.8,16.1-.8,33.7,3.3,49.8,5.3,18.8,2.3,37.7,4,56.6,5.1,21.9,1,43.7,1.5,65.6,1.2,21.9-.2,43.7-1.1,65.6-2.5,21.8-1.5,43.6-3.6,65.3-6.3,21.7-2.7,43.3-6.1,64.8-10,183.8-33.5,363.3-114.9,484-261.7,30.9-37.6,46.4-71.3,72.5-108.5l1.4-1.9Z"/>
  <path class="st7" d="M2456.5,1610.2c9.9,4.4,20.2,7.9,30.3,11.7v.8c-23.5,13.6-57.4,20.1-83.8,26.5-108.3,26.4-215.6,43.5-327.3,44.4l29.4-32.7c116.8-.1,239.6-16.3,351.4-50.7Z"/>
  <path class="st1" d="M2941.9,2396.7c40.6,12.2,79.3,20.8,122,19.1,15.7-.6,31.6-3.6,47.2-3.7-2.1,47.5-5.5,94-14.5,140.8,106.4,64.3,233.8,174.8,264.2,300.8,14.2,58.6-4.6,116.3-35.7,166-40.5,64.9-93.7,121.9-144.8,178.5-21.9,24.3-47.4,48.7-65.5,75.9-21.7,32.7-33,77.1-47.9,113.6-27.2,66.4-56,134-88.3,198.1-15.8-36.4-30.3-73.9-48.9-108.9-41.5,22.6-83.8,43.4-125.9,64.7,12.6-56.8,32.7-111.9,47.3-168.3-43.5,1.5-86.9,4.1-130.3,7.6,27-47.8,61.5-89.8,91.9-135.3-29.1-18.1-60.8-36.6-86.9-58.8,36.5-8.7,72.2-20.7,108.1-31.6,25.6-7.7,52.7-14.3,77.3-24.7,84.2-35.5,186.2-108.7,233.6-186.5,1.7-2.8,3.3-5.6,4.9-8.5-36.9-32.2-112.8-61.7-158.4-81.9-35.8,56.5-71.9,110.5-116.1,160.8-134.5,152.8-326.7,258.9-516.5,327.4-51,18.4-103.3,33.2-155.4,48.4,17.5,101.1,66.9,185.9,141,256.5,22.8,21.7,47.7,40.8,71.3,61.6l-142.2,17.7c10.4,35,22,70.1,30.3,105.6-47.7-22.6-97.7-42.3-143.9-67.9-7.8,17.7-31.1,80.2-41.6,89.9-3.5-3.4-7-6.7-10.2-10.4-74.6-98.4-108-211.6-124-332.5-3.1-27.1-5.2-54.2-6.9-81.5-8.7.9-17.3,1.7-26,2.4-301.9,25.7-593.2-99.9-810.8-305.3-71.9-67.9-129.7-149.1-205.6-212.9-190.6-160.1-445.7-116.9-642.9,5.6-14.6,9.1-89.7,64.9-94.1,65.3l.6-3.8c12.1-47.7,53.4-117.1,85.7-154.9l1.2.6c9.5-.4,72.5-45.3,85.4-53.8-7.1-9.3-11.7-18.4-20.6-26.4l12.3-13.4c52.4-51.7,107.5-100.8,174.3-133.2,133-79.4,299.1-86.4,447.7-56.3,58.5,17.7,114.4,37.3,168.8,65.6,53.7,27,118.7,64.5,164.1,103.6,41.8,32.6,82.9,66.1,123.3,100.4,36.5,31.2,73.5,57.4,114.4,82.5,54.5,30.7,109.8,53.4,171.3,65.5,45,9.3,89.5,11.7,135.2,11.3,18.8-3.5,38.3-4.2,57.2-7.3,48.9-8.1,94.6-23.3,139.5-43.9,17-10.3,33.6-21.3,49.8-32.8,26.6-21.3,52.5-45.9,66.6-77.5,14.8-33.2,10.7-58.8-1.8-91.5-30.5-60.6-73.9-113.3-108.2-171.7,19.2-1.4,39-1.1,58.2-1.7,47.5,13.8,87.7,34.9,123.8,69,9.3,8.7,52.1,62.9,56.6,64.6.8-1.6,1.7-3.1,2.6-4.6,48.7-79.1,135.1-152.4,227.3-172.3,77.1-16.6,154.9,3,220.4,45.6,30.4,19.8,84.5,66.9,92.5,103.8l1,.2c3.3-17.1,21.8-40.9,29.6-58.1,27.7-61.5,54.1-130.5,65.3-197.1Z"/>
  <path class="st0" d="M2846,2651.8l1,.2c31.3,71.6,29.1,150.8,1,223.4-30,77.5-83.8,133.1-159.5,166.4,21.6-60.6,37.9-109.6,24.2-174.3,50.3-68.7,89.6-142.9,133.4-215.6Z"/>
  <path class="st8" d="M1984,3510.7c74.3,1.7,151.9,2.2,216.4,44.7,32.5,21.4,61.5,49.9,90.7,75.5,22.1,19.3,47.1,35.2,68.7,54.4-12.3,10-94.3,16.3-115.9,22.2,5.6,25.8,11.7,51.6,16.9,77.5-14-7.1-100.3-52.7-107.1-51.6l-3.1-1.3c-18.4,25.7-25.1,91.7-42.6,111-74.6-98.4-108-211.6-124-332.5Z"/>
  <path class="st2" d="M2303.1,2679.4c.8-1.6,1.7-3.1,2.6-4.6,48.7-79.1,135.1-152.4,227.3-172.3,77.1-16.6,154.9,3,220.4,45.6,30.4,19.8,84.5,66.9,92.5,103.8-43.8,72.7-83,146.8-133.4,215.6-7.1-18.8-15.8-36.7-27.3-53.2-1.7-2.5-3.5-4.9-5.3-7.3-1.8-2.4-3.7-4.8-5.7-7.1-2-2.3-4-4.6-6-6.8-2.1-2.2-4.2-4.4-6.3-6.5-2.2-2.1-4.4-4.1-6.7-6.1-2.3-2-4.6-3.9-7-5.8-2.4-1.9-4.8-3.7-7.2-5.4-2.5-1.8-5-3.4-7.5-5.1-2.5-1.6-5.1-3.2-7.7-4.7-2.6-1.5-5.3-2.9-8-4.3-2.7-1.4-5.4-2.7-8.2-3.9-2.8-1.2-5.5-2.4-8.4-3.5-2.8-1.1-5.7-2.1-8.5-3.1-2.9-1-5.8-1.8-8.7-2.6-2.9-.8-5.8-1.5-8.8-2.2-2.9-.7-5.9-1.2-8.9-1.8-80.2-13.2-150.3,34-212.5,78-5-49.8-23.9-95-50.9-136.6Z"/>
  <path class="st6" d="M536.7,2599.5c133-79.4,299.1-86.4,447.7-56.3,58.5,17.7,114.4,37.3,168.8,65.6,53.7,27,118.7,64.5,164.1,103.6,41.8,32.6,82.9,66.1,123.3,100.4,36.5,31.2,73.5,57.4,114.4,82.5,54.5,30.7,109.8,53.4,171.3,65.5,45,9.3,89.5,11.7,135.2,11.3,18.8-3.5,38.3-4.2,57.2-7.3,48.9-8.1,94.6-23.3,139.5-43.9,17-10.3,33.6-21.3,49.8-32.8,26.6-21.3,52.5-45.9,66.6-77.5,14.8-33.2,10.7-58.8-1.8-91.5-30.5-60.6-73.9-113.3-108.2-171.7,19.2-1.4,39-1.1,58.2-1.7,47.5,13.8,87.7,34.9,123.8,69,9.3,8.7,52.1,62.9,56.6,64.6,27.1,41.6,45.9,86.9,50.9,136.6.4,20,3.2,39.7,2.2,59.8-2.7,58.9-30.4,115.5-70.8,157.7-108.5,113.4-315.3,173-470.1,175.8-8,.2-16.1.3-24.1.3s-16.1-.2-24.1-.5c-8-.3-16.1-.7-24.1-1.2-8-.5-16-1.2-24-2-8-.8-16-1.7-24-2.7-8-1-15.9-2.2-23.9-3.5-7.9-1.3-15.9-2.7-23.8-4.2-7.9-1.5-15.8-3.2-23.6-5-7.8-1.8-15.7-3.7-23.4-5.7-7.8-2-15.5-4.2-23.2-6.4s-15.4-4.7-23-7.2-15.2-5.1-22.8-7.9c-7.6-2.7-15.1-5.6-22.5-8.6-7.5-3-14.9-6.1-22.3-9.3-7.4-3.2-14.7-6.5-22-10-7.3-3.4-14.5-7-21.6-10.7-111.1-58.1-209.4-142.9-305.8-222.2-73.5-60.4-146-122.9-234.6-160.3-53.1-22.4-108.5-32.7-165.8-35.3-7.7-.4-15.4-.6-23.1-.6-7.7,0-15.4.1-23.1.4-7.7.3-15.4.8-23.1,1.4-7.7.7-15.3,1.5-23,2.5-7.6,1-15.3,2.1-22.9,3.5-7.6,1.3-15.2,2.8-22.7,4.5-7.5,1.7-15,3.5-22.5,5.5-7.4,2-14.8,4.1-22.2,6.5-109,34.2-220.3,102.1-299.7,184.3-16.9,17.5-40.9,52.4-56.2,65.8,12.1-47.7,53.4-117.1,85.7-154.9l1.2.6c9.5-.4,72.5-45.3,85.4-53.8-7.1-9.3-11.7-18.4-20.6-26.4l12.3-13.4c52.4-51.7,107.5-100.8,174.3-133.2Z"/>
  <path class="st7" d="M536.7,2599.5c22.3,6.1,42.9,11.4,54.8,33.4,5.5,10.2,9.2,22.6,12.2,33.8-20.9,7.1-42.3,12.3-63.2,19.6-13.6,4.9-27,10.2-40.3,15.9-13.3,5.7-26.4,11.8-39.3,18.2-12.9,6.5-25.6,13.3-38.2,20.5-12.5,7.2-24.8,14.7-36.9,22.7-4.7,2.8-10.2,7-15.2,9-7.1-9.3-11.7-18.4-20.6-26.4l12.3-13.4c52.4-51.7,107.5-100.8,174.3-133.2Z"/>
  <path class="st0" d="M362.4,2732.7c12,8.6,17.3,17.9,23.6,30.8-4.7,2.8-10.2,7-15.2,9-7.1-9.3-11.7-18.4-20.6-26.4l12.3-13.4Z"/>
  <path class="st7" d="M749.2,2539.8c31.7-2.2,75.4,15.9,99.7,35.7,25.2,20.4,31.5,48.3,35.1,78.7-24.3-7.3-47.8-12.2-73-15.1-21.9-1.1-43.9-.8-65.8.8-15.4,1-31.8,3.5-47.2,2.2-8.1-.7-16.6-2.8-23.3-7.6-5.5-3.9-8.8-9.1-9.6-15.8-1.7-14.7,8.9-35.6,18.2-46.5,16.6-19.5,40.9-29.8,66-32.3Z"/>
  <path class="st7" d="M1335.8,2949.5c-34.6-29.1-77.4-61.1-84.9-108.9-5.3-33.5,9.4-69.9,33.1-93.7,9.8-9.8,23.6-19.8,31.3-31.2.7-1,1.3-2.1,2-3.1,41.8,32.6,82.9,66.1,123.3,100.4-51.6,45.2-88,66-104.8,136.6Z"/>
  <path class="st7" d="M984.4,2543.2c58.5,17.7,114.4,37.3,168.8,65.6-2.4,68.7-11.8,135.9-6.6,204.8-22.8-30.6-48.4-64.1-79-87.2-15.6-11.8-34.7-19.2-48.3-33.5-34.5-36.4-36.7-102.8-34.9-149.6Z"/>
  <path class="st7" d="M2058.2,2920.9c-13,64.1-67.5,117.5-120,152.1-38.9,25.7-95.4,53.7-143.7,43.6-10.4-2.2-19.6-7.5-25.1-17-6-10.4-6.4-22.8-3-34.1,13.1-44.2,61.1-67.7,95.1-93.4,18.8-3.5,38.3-4.2,57.2-7.3,48.9-8.1,94.6-23.3,139.5-43.9Z"/>
  <path class="st7" d="M2172.8,2719.1c34.9,11.5,62.8,51,78.7,82.1,18.8,36.8,26.6,78.9,13.2,118.8-17,50.7-63,83.3-109.2,105.6-15.2,7.3-30.8,13.7-46.7,19.2,5.1-53.7,7.6-103.1-.7-156.9,26.6-21.3,52.5-45.9,66.6-77.5,14.8-33.2,10.7-58.8-1.8-91.5Z"/>
  <path class="st7" d="M1555,2895.4c54.5,30.7,109.8,53.4,171.3,65.5-29.6,39.8-71,80.1-117.1,100-32.7,14.2-68.3,15.3-101.4,1.7-28.2-11.5-59.7-34.9-70.9-64.1-5.8-15-5.4-30.9,1.6-45.5,21-43.9,75.2-42.9,114.6-57,.6-.2,1.2-.5,1.8-.7Z"/>
</svg>